G04 Layer_Color=8388736*
%FSLAX43Y43*%
%MOMM*%
G71*
G01*
G75*
%ADD40C,0.330*%
%ADD41R,0.610X0.660*%
%ADD42R,0.740X0.990*%
%ADD43R,1.900X0.900*%
%ADD44R,0.990X0.740*%
%ADD45R,0.660X0.610*%
%ADD46R,0.850X1.100*%
%ADD47R,0.800X0.610*%
%ADD48C,0.500*%
%ADD49R,0.610X0.800*%
%ADD50R,0.300X0.900*%
%ADD51R,4.700X3.700*%
%ADD52R,0.900X0.300*%
D40*
X34975Y65075D02*
D03*
X34475D02*
D03*
X33975D02*
D03*
Y66575D02*
D03*
X34475D02*
D03*
X34975D02*
D03*
X33975Y66075D02*
D03*
X34475D02*
D03*
X33975Y65575D02*
D03*
X34475D02*
D03*
X34975D02*
D03*
X33975Y68075D02*
D03*
X34475D02*
D03*
X34975D02*
D03*
X33975Y67575D02*
D03*
X34475D02*
D03*
X33975Y67075D02*
D03*
X34475D02*
D03*
X34975D02*
D03*
X33975Y69575D02*
D03*
X34475D02*
D03*
X34975D02*
D03*
X33975Y69075D02*
D03*
X34475D02*
D03*
X33975Y68575D02*
D03*
X34475D02*
D03*
X34975D02*
D03*
X33975Y71075D02*
D03*
X34475D02*
D03*
X34975D02*
D03*
X33975Y70575D02*
D03*
X34475D02*
D03*
X33975Y70075D02*
D03*
X34475D02*
D03*
X34975D02*
D03*
X27475Y63575D02*
D03*
X27975D02*
D03*
X28975D02*
D03*
X29475D02*
D03*
X31975D02*
D03*
X30975D02*
D03*
X30475D02*
D03*
X34475D02*
D03*
X33975D02*
D03*
X33475D02*
D03*
X32475D02*
D03*
X34975D02*
D03*
X27475Y64075D02*
D03*
X27975D02*
D03*
X28475D02*
D03*
X28975D02*
D03*
X29475D02*
D03*
X31975D02*
D03*
X31475D02*
D03*
X30975D02*
D03*
X30475D02*
D03*
X29975D02*
D03*
X34475D02*
D03*
X33975D02*
D03*
X33475D02*
D03*
X32975D02*
D03*
X32475D02*
D03*
X34975D02*
D03*
Y64575D02*
D03*
X32475D02*
D03*
X32975D02*
D03*
X33475D02*
D03*
X33975D02*
D03*
X34475D02*
D03*
X29975D02*
D03*
X30475D02*
D03*
X30975D02*
D03*
X31475D02*
D03*
X31975D02*
D03*
X29475D02*
D03*
X28975D02*
D03*
X28475D02*
D03*
X27975D02*
D03*
X27475D02*
D03*
X25975Y64075D02*
D03*
X26975Y71075D02*
D03*
X26475D02*
D03*
X25975D02*
D03*
X26975Y63575D02*
D03*
X26475D02*
D03*
X25975D02*
D03*
X26975Y64075D02*
D03*
X26475D02*
D03*
X26975Y64575D02*
D03*
X26475D02*
D03*
X25975D02*
D03*
X26975Y65075D02*
D03*
X26475D02*
D03*
X25975D02*
D03*
X26975Y65575D02*
D03*
X26475D02*
D03*
X33075Y66775D02*
D03*
X32425D02*
D03*
X31775D02*
D03*
X31125D02*
D03*
X30475D02*
D03*
X29825D02*
D03*
X29175D02*
D03*
X28525D02*
D03*
X27875D02*
D03*
X26975Y66075D02*
D03*
X26475D02*
D03*
X25975D02*
D03*
X33075Y67425D02*
D03*
X32425D02*
D03*
X31775D02*
D03*
X31125D02*
D03*
X30475D02*
D03*
X29825D02*
D03*
X29175D02*
D03*
X28525D02*
D03*
X27875D02*
D03*
X26975Y66575D02*
D03*
X26475D02*
D03*
X25975D02*
D03*
X33075Y68075D02*
D03*
X32425D02*
D03*
X31775D02*
D03*
X31125D02*
D03*
X30475D02*
D03*
X29825D02*
D03*
X29175D02*
D03*
X28525D02*
D03*
X27875D02*
D03*
X26975Y67075D02*
D03*
X26475D02*
D03*
X33075Y68725D02*
D03*
X32425D02*
D03*
X31775D02*
D03*
X31125D02*
D03*
X30475D02*
D03*
X29825D02*
D03*
X29175D02*
D03*
X28525D02*
D03*
X27875D02*
D03*
X26975Y67575D02*
D03*
X26475D02*
D03*
X25975D02*
D03*
X33075Y69375D02*
D03*
X32425D02*
D03*
X31775D02*
D03*
X31125D02*
D03*
X30475D02*
D03*
X29825D02*
D03*
X29175D02*
D03*
X28525D02*
D03*
X27875D02*
D03*
X26975Y68075D02*
D03*
X26475D02*
D03*
X25975D02*
D03*
X33075Y70025D02*
D03*
X32425D02*
D03*
X31775D02*
D03*
X31125D02*
D03*
X30475D02*
D03*
X29825D02*
D03*
X29175D02*
D03*
X28525D02*
D03*
X27875D02*
D03*
X26975Y68575D02*
D03*
X26475D02*
D03*
X32425Y70675D02*
D03*
X31775D02*
D03*
X31125D02*
D03*
X30475D02*
D03*
X29825D02*
D03*
X29175D02*
D03*
X28525D02*
D03*
X26975Y69075D02*
D03*
X26475D02*
D03*
X25975D02*
D03*
X26975Y69575D02*
D03*
X26475D02*
D03*
X25975D02*
D03*
X26975Y70075D02*
D03*
X26475D02*
D03*
X26975Y70575D02*
D03*
X26475D02*
D03*
X25975D02*
D03*
X34975Y71575D02*
D03*
X34475D02*
D03*
X33975D02*
D03*
X33475D02*
D03*
X32975D02*
D03*
X32475D02*
D03*
X31975D02*
D03*
X31475D02*
D03*
X30975D02*
D03*
X30475D02*
D03*
X29975D02*
D03*
X29475D02*
D03*
X28975D02*
D03*
X28475D02*
D03*
X27975D02*
D03*
X27475D02*
D03*
X26975D02*
D03*
X26475D02*
D03*
X25975D02*
D03*
X34975Y72075D02*
D03*
X34475D02*
D03*
X33975D02*
D03*
X33475D02*
D03*
X32975D02*
D03*
X32475D02*
D03*
X31975D02*
D03*
X31475D02*
D03*
X30975D02*
D03*
X30475D02*
D03*
X29975D02*
D03*
X29475D02*
D03*
X28975D02*
D03*
X28475D02*
D03*
X27975D02*
D03*
X27475D02*
D03*
X26975D02*
D03*
X26475D02*
D03*
X25975D02*
D03*
X34975Y72575D02*
D03*
X34475D02*
D03*
X33975D02*
D03*
X33475D02*
D03*
X32975D02*
D03*
X31975D02*
D03*
X31475D02*
D03*
X30475D02*
D03*
X29975D02*
D03*
X28975D02*
D03*
X28475D02*
D03*
X27475D02*
D03*
X26975D02*
D03*
X26475D02*
D03*
X25975D02*
D03*
X27875Y70675D02*
D03*
X33075D02*
D03*
X27875Y66125D02*
D03*
X28525D02*
D03*
X29175D02*
D03*
X29825D02*
D03*
X30475D02*
D03*
X31125D02*
D03*
X31775D02*
D03*
X32425D02*
D03*
X33075D02*
D03*
X27875Y65475D02*
D03*
X28525D02*
D03*
X29175D02*
D03*
X29825D02*
D03*
X30475D02*
D03*
X31125D02*
D03*
X31775D02*
D03*
X32425D02*
D03*
X33075D02*
D03*
X31650Y84475D02*
D03*
X31150D02*
D03*
X30650D02*
D03*
X30150D02*
D03*
X29650D02*
D03*
X29150D02*
D03*
X28650D02*
D03*
X28150D02*
D03*
X27650D02*
D03*
X27150D02*
D03*
X26650D02*
D03*
X26150D02*
D03*
X25650D02*
D03*
X25150D02*
D03*
X31650Y84975D02*
D03*
X31150D02*
D03*
X30650D02*
D03*
X30150D02*
D03*
X29650D02*
D03*
X29150D02*
D03*
X28650D02*
D03*
X28150D02*
D03*
X27650D02*
D03*
X27150D02*
D03*
X26650D02*
D03*
X26150D02*
D03*
X25650D02*
D03*
X25150D02*
D03*
X31650Y85475D02*
D03*
X31150D02*
D03*
X30650D02*
D03*
X30150D02*
D03*
X29650D02*
D03*
X29150D02*
D03*
X28650D02*
D03*
X28150D02*
D03*
X27650D02*
D03*
X27150D02*
D03*
X26650D02*
D03*
X26150D02*
D03*
X25650D02*
D03*
X25150D02*
D03*
X31650Y85975D02*
D03*
X31150D02*
D03*
X30650D02*
D03*
X30150D02*
D03*
X26150D02*
D03*
X25650D02*
D03*
X25150D02*
D03*
X31650Y86475D02*
D03*
X31150D02*
D03*
X30650D02*
D03*
X29650D02*
D03*
X29150D02*
D03*
X28650D02*
D03*
X28150D02*
D03*
X27650D02*
D03*
X27150D02*
D03*
X26150D02*
D03*
X25650D02*
D03*
X25150D02*
D03*
X31650Y86975D02*
D03*
X31150D02*
D03*
X30650D02*
D03*
X29650D02*
D03*
X27150D02*
D03*
X26150D02*
D03*
X25650D02*
D03*
X25150D02*
D03*
X31650Y87475D02*
D03*
X31150D02*
D03*
X30650D02*
D03*
X29650D02*
D03*
X27150D02*
D03*
X26150D02*
D03*
X25650D02*
D03*
X25150D02*
D03*
X31650Y87975D02*
D03*
X31150D02*
D03*
X30650D02*
D03*
X29650D02*
D03*
X27150D02*
D03*
X26150D02*
D03*
X25650D02*
D03*
X25150D02*
D03*
X31650Y88475D02*
D03*
X31150D02*
D03*
X30650D02*
D03*
X29650D02*
D03*
X27150D02*
D03*
X26150D02*
D03*
X25650D02*
D03*
X25150D02*
D03*
X31650Y88975D02*
D03*
X31150D02*
D03*
X30650D02*
D03*
X29650D02*
D03*
X29150D02*
D03*
X28650D02*
D03*
X28150D02*
D03*
X27650D02*
D03*
X27150D02*
D03*
X26150D02*
D03*
X25650D02*
D03*
X25150D02*
D03*
X31650Y89475D02*
D03*
X31150D02*
D03*
X30650D02*
D03*
X26150D02*
D03*
X25650D02*
D03*
X25150D02*
D03*
X31650Y89975D02*
D03*
X31150D02*
D03*
X30650D02*
D03*
X30150D02*
D03*
X29650D02*
D03*
X29150D02*
D03*
X28650D02*
D03*
X28150D02*
D03*
X27650D02*
D03*
X27150D02*
D03*
X26650D02*
D03*
X26150D02*
D03*
X25650D02*
D03*
X25150D02*
D03*
X31650Y90475D02*
D03*
X31150D02*
D03*
X30650D02*
D03*
X30150D02*
D03*
X29650D02*
D03*
X29150D02*
D03*
X28650D02*
D03*
X28150D02*
D03*
X27650D02*
D03*
X27150D02*
D03*
X26650D02*
D03*
X26150D02*
D03*
X25650D02*
D03*
X25150D02*
D03*
X31650Y90975D02*
D03*
X31150D02*
D03*
X30650D02*
D03*
X30150D02*
D03*
X29650D02*
D03*
X29150D02*
D03*
X28650D02*
D03*
X28150D02*
D03*
X27650D02*
D03*
X27150D02*
D03*
X26650D02*
D03*
X26150D02*
D03*
X25650D02*
D03*
X25150D02*
D03*
D41*
X20175Y84275D02*
D03*
X19275D02*
D03*
X19775Y82400D02*
D03*
X20675D02*
D03*
X8075Y82600D02*
D03*
X8975D02*
D03*
X8075Y83500D02*
D03*
X8975D02*
D03*
X1775Y92950D02*
D03*
X2675D02*
D03*
X34975Y85725D02*
D03*
X35875D02*
D03*
X48950Y61100D02*
D03*
X48050D02*
D03*
X33450Y59875D02*
D03*
X34350D02*
D03*
X34375Y57100D02*
D03*
X33475D02*
D03*
X59250Y56000D02*
D03*
X60150D02*
D03*
X34025Y80000D02*
D03*
X33125D02*
D03*
X59250D02*
D03*
X60150D02*
D03*
X58600Y61025D02*
D03*
X59500D02*
D03*
X50640Y61100D02*
D03*
X49740D02*
D03*
X51410D02*
D03*
X52310D02*
D03*
D42*
X15925Y77100D02*
D03*
X14525D02*
D03*
X11425D02*
D03*
X12825D02*
D03*
X12625Y92125D02*
D03*
X11225D02*
D03*
X14525D02*
D03*
X15925D02*
D03*
X35050Y84625D02*
D03*
X36450D02*
D03*
X58675Y59950D02*
D03*
X60075D02*
D03*
D43*
X15500Y79900D02*
D03*
Y78300D02*
D03*
X12050Y79900D02*
D03*
Y78300D02*
D03*
X12025Y89400D02*
D03*
Y91000D02*
D03*
X15475Y89400D02*
D03*
Y91000D02*
D03*
D44*
X13775Y80000D02*
D03*
Y78600D02*
D03*
X10325Y79800D02*
D03*
Y78400D02*
D03*
X10300Y88200D02*
D03*
Y89600D02*
D03*
X13750Y89300D02*
D03*
Y90700D02*
D03*
X9025Y88200D02*
D03*
Y89600D02*
D03*
D45*
X8425Y78950D02*
D03*
Y79850D02*
D03*
X19525Y85950D02*
D03*
Y85050D02*
D03*
D46*
X6050Y96000D02*
D03*
Y94500D02*
D03*
X1600Y96000D02*
D03*
Y94500D02*
D03*
D47*
X35025Y89625D02*
D03*
Y88725D02*
D03*
X19900Y80700D02*
D03*
Y81600D02*
D03*
X21175Y74100D02*
D03*
Y75000D02*
D03*
X39975Y69425D02*
D03*
Y68525D02*
D03*
X53260Y61075D02*
D03*
Y60175D02*
D03*
D48*
X60250Y69425D02*
D03*
Y68625D02*
D03*
Y67825D02*
D03*
Y64625D02*
D03*
Y63825D02*
D03*
Y63025D02*
D03*
X59450Y69425D02*
D03*
Y68625D02*
D03*
Y67825D02*
D03*
Y64625D02*
D03*
Y63825D02*
D03*
Y63025D02*
D03*
X58650Y69425D02*
D03*
Y68625D02*
D03*
Y67825D02*
D03*
Y64625D02*
D03*
Y63825D02*
D03*
Y63025D02*
D03*
X57850Y69425D02*
D03*
Y68625D02*
D03*
Y67825D02*
D03*
Y64625D02*
D03*
Y63825D02*
D03*
Y63025D02*
D03*
X57050Y69425D02*
D03*
Y68625D02*
D03*
Y67825D02*
D03*
Y64625D02*
D03*
Y63825D02*
D03*
Y63025D02*
D03*
X56250Y69425D02*
D03*
Y68625D02*
D03*
Y67825D02*
D03*
Y64625D02*
D03*
Y63825D02*
D03*
Y63025D02*
D03*
X55450Y69425D02*
D03*
Y68625D02*
D03*
Y67825D02*
D03*
Y64625D02*
D03*
Y63825D02*
D03*
Y63025D02*
D03*
X54650Y69425D02*
D03*
Y68625D02*
D03*
Y67825D02*
D03*
Y64625D02*
D03*
Y63825D02*
D03*
Y63025D02*
D03*
X53850Y69425D02*
D03*
Y68625D02*
D03*
Y67825D02*
D03*
Y64625D02*
D03*
Y63825D02*
D03*
Y63025D02*
D03*
X53050Y69425D02*
D03*
Y68625D02*
D03*
Y67825D02*
D03*
Y64625D02*
D03*
Y63825D02*
D03*
Y63025D02*
D03*
X52250Y69425D02*
D03*
Y68625D02*
D03*
Y67825D02*
D03*
Y64625D02*
D03*
Y63825D02*
D03*
Y63025D02*
D03*
X51450Y69425D02*
D03*
Y68625D02*
D03*
Y67825D02*
D03*
Y64625D02*
D03*
Y63825D02*
D03*
Y63025D02*
D03*
X50650Y69425D02*
D03*
Y68625D02*
D03*
Y67825D02*
D03*
Y64625D02*
D03*
Y63825D02*
D03*
Y63025D02*
D03*
X49850Y69425D02*
D03*
Y68625D02*
D03*
Y67825D02*
D03*
Y64625D02*
D03*
Y63825D02*
D03*
Y63025D02*
D03*
X49050Y69425D02*
D03*
Y68625D02*
D03*
Y67825D02*
D03*
Y64625D02*
D03*
Y63825D02*
D03*
Y63025D02*
D03*
X48250Y69425D02*
D03*
Y68625D02*
D03*
Y67825D02*
D03*
Y64625D02*
D03*
Y63825D02*
D03*
Y63025D02*
D03*
D49*
X19600Y75950D02*
D03*
X20500D02*
D03*
X38225Y67700D02*
D03*
X37325D02*
D03*
X49750Y60150D02*
D03*
X50650D02*
D03*
X48400Y76450D02*
D03*
X49300D02*
D03*
X51425Y60150D02*
D03*
X52325D02*
D03*
X40100Y67675D02*
D03*
X39200D02*
D03*
X34375Y58000D02*
D03*
X33475D02*
D03*
Y58975D02*
D03*
X34375D02*
D03*
D50*
X16525Y82100D02*
D03*
X12125Y87000D02*
D03*
X14525D02*
D03*
X14925D02*
D03*
X15325D02*
D03*
X15725D02*
D03*
X16125D02*
D03*
X14125D02*
D03*
X13725D02*
D03*
X13325D02*
D03*
X12925D02*
D03*
X12525D02*
D03*
X12125Y82100D02*
D03*
X12525D02*
D03*
X12925D02*
D03*
X13325D02*
D03*
X13725D02*
D03*
X16125D02*
D03*
X15725D02*
D03*
X15325D02*
D03*
X14925D02*
D03*
X14525D02*
D03*
X14125D02*
D03*
X16525Y87000D02*
D03*
D51*
X14325Y84550D02*
D03*
D52*
X17275Y84350D02*
D03*
Y83950D02*
D03*
Y83550D02*
D03*
Y83150D02*
D03*
Y82750D02*
D03*
Y84750D02*
D03*
Y85150D02*
D03*
Y85550D02*
D03*
Y85950D02*
D03*
Y86350D02*
D03*
X11375D02*
D03*
Y85950D02*
D03*
Y85550D02*
D03*
Y85150D02*
D03*
Y82750D02*
D03*
Y83150D02*
D03*
Y83550D02*
D03*
Y83950D02*
D03*
Y84350D02*
D03*
Y84750D02*
D03*
M02*
