G04 Layer_Color=128*
%FSLAX43Y43*%
%MOMM*%
G71*
G01*
G75*
%ADD54C,0.051*%
D54*
X30075Y68400D02*
X30275D01*
X30175Y68300D02*
Y68500D01*
X31375Y69050D02*
X31575D01*
X31475Y68950D02*
Y69150D01*
X31375Y70350D02*
X31575D01*
X31475Y70250D02*
Y70450D01*
X14825Y87800D02*
X15025D01*
X14925Y87700D02*
Y87900D01*
X16450Y91700D02*
X16650D01*
X16550Y91600D02*
Y91800D01*
X16450Y92200D02*
X16650D01*
X16550Y92100D02*
Y92300D01*
X12550Y92975D02*
X12750D01*
X12650Y92875D02*
Y93075D01*
X13175Y92375D02*
X13375D01*
X13275Y92275D02*
Y92475D01*
X8950Y87575D02*
X9150D01*
X9050Y87475D02*
Y87675D01*
X22650Y89350D02*
X22950D01*
X22800Y89200D02*
Y89500D01*
X13575Y76750D02*
X13775D01*
X13675Y76650D02*
Y76850D01*
X20650Y84275D02*
X20850D01*
X20750Y84175D02*
Y84375D01*
X20575Y81725D02*
X20775D01*
X20675Y81625D02*
Y81825D01*
X8325Y78375D02*
X8525D01*
X8425Y78275D02*
Y78475D01*
X13575Y77300D02*
X13775D01*
X13675Y77200D02*
Y77400D01*
X15225Y81100D02*
X15425D01*
X15325Y81000D02*
Y81200D01*
X18525Y84300D02*
X18725D01*
X18625Y84200D02*
Y84400D01*
X18175Y85550D02*
X18375D01*
X18275Y85450D02*
Y85650D01*
X12925Y88100D02*
X13125D01*
X13025Y88000D02*
Y88200D01*
X8325Y80400D02*
X8525D01*
X8425Y80300D02*
Y80500D01*
X10325Y80600D02*
X10525D01*
X10425Y80500D02*
Y80700D01*
X10225Y77750D02*
X10425D01*
X10325Y77650D02*
Y77850D01*
X19025Y82400D02*
X19225D01*
X19125Y82300D02*
Y82500D01*
X14025Y80700D02*
X14225D01*
X14125Y80600D02*
Y80800D01*
X9425Y82600D02*
X9625D01*
X9525Y82500D02*
Y82700D01*
X9425Y83500D02*
X9625D01*
X9525Y83400D02*
Y83600D01*
X13425Y80800D02*
X13625D01*
X13525Y80700D02*
Y80900D01*
X12025Y77100D02*
X12225D01*
X12125Y77000D02*
Y77200D01*
X13425Y88600D02*
X13625D01*
X13525Y88500D02*
Y88700D01*
X13275Y91375D02*
X13475D01*
X13375Y91275D02*
Y91475D01*
X13875Y91375D02*
X14075D01*
X13975Y91275D02*
Y91475D01*
X13775Y92125D02*
X13975D01*
X13875Y92025D02*
Y92225D01*
X8925Y90250D02*
X9125D01*
X9025Y90150D02*
Y90350D01*
X10225Y90250D02*
X10425D01*
X10325Y90150D02*
Y90350D01*
X10725Y87400D02*
X10925D01*
X10825Y87300D02*
Y87500D01*
X10475Y91625D02*
X10675D01*
X10575Y91525D02*
Y91725D01*
X10475Y92375D02*
X10675D01*
X10575Y92275D02*
Y92475D01*
X13325Y77900D02*
X13525D01*
X13425Y77800D02*
Y78000D01*
X13825Y77900D02*
X14025D01*
X13925Y77800D02*
Y78000D01*
X20075Y85950D02*
X20275D01*
X20175Y85850D02*
Y86050D01*
X15950Y83350D02*
X16150D01*
X16050Y83250D02*
Y83450D01*
X15950Y84575D02*
X16150D01*
X16050Y84475D02*
Y84675D01*
X15950Y85750D02*
X16150D01*
X16050Y85650D02*
Y85850D01*
X14200Y83350D02*
X14400D01*
X14300Y83250D02*
Y83450D01*
X14200Y84575D02*
X14400D01*
X14300Y84475D02*
Y84675D01*
X14200Y85750D02*
X14400D01*
X14300Y85650D02*
Y85850D01*
X12500Y83350D02*
X12700D01*
X12600Y83250D02*
Y83450D01*
X12475Y84550D02*
X12675D01*
X12575Y84450D02*
Y84650D01*
X12500Y85750D02*
X12700D01*
X12600Y85650D02*
Y85850D01*
X28300Y76800D02*
X28500D01*
X28400Y76700D02*
Y76900D01*
X31750Y83450D02*
X31950D01*
X31850Y83350D02*
Y83550D01*
X28950Y83925D02*
X29150D01*
X29050Y83825D02*
Y84025D01*
X28575Y91475D02*
X28775D01*
X28675Y91375D02*
Y91575D01*
X64250Y1425D02*
X64550D01*
X64400Y1275D02*
Y1575D01*
X3500Y26550D02*
X3800D01*
X3650Y26400D02*
Y26700D01*
X20925Y2425D02*
X21225D01*
X21075Y2275D02*
Y2575D01*
X21900Y86800D02*
X22100D01*
X22000Y86700D02*
Y86900D01*
X21900Y84300D02*
X22100D01*
X22000Y84200D02*
Y84400D01*
X23150Y65050D02*
X23350D01*
X23250Y64950D02*
Y65150D01*
X24500Y67175D02*
X24700D01*
X24600Y67075D02*
Y67275D01*
X31875Y71150D02*
X32075D01*
X31975Y71050D02*
Y71250D01*
X21075Y73425D02*
X21275D01*
X21175Y73325D02*
Y73525D01*
X21100Y104175D02*
X21400D01*
X21250Y104025D02*
Y104325D01*
X26650Y115375D02*
X26950D01*
X26800Y115225D02*
Y115525D01*
X9500Y110500D02*
X9800D01*
X9650Y110350D02*
Y110650D01*
X3725Y115700D02*
X4025D01*
X3875Y115550D02*
Y115850D01*
X56425Y26425D02*
X56725D01*
X56575Y26275D02*
Y26575D01*
X82475Y27975D02*
X82775D01*
X82625Y27825D02*
Y28125D01*
X43975Y4175D02*
X44275D01*
X44125Y4025D02*
Y4325D01*
X82650Y4725D02*
X82850D01*
X82750Y4625D02*
Y4825D01*
X2950Y5150D02*
X3250D01*
X3100Y5000D02*
Y5300D01*
X49000Y82200D02*
X49300D01*
X49150Y82050D02*
Y82350D01*
X44650Y82050D02*
X44950D01*
X44800Y81900D02*
Y82200D01*
X54600Y82075D02*
X54900D01*
X54750Y81925D02*
Y82225D01*
X24600Y96475D02*
X24900D01*
X24750Y96325D02*
Y96625D01*
X78700Y76925D02*
X79000D01*
X78850Y76775D02*
Y77075D01*
X77650Y94450D02*
X77950D01*
X77800Y94300D02*
Y94600D01*
X77775Y86425D02*
X78075D01*
X77925Y86275D02*
Y86575D01*
X64850Y78725D02*
X65150D01*
X65000Y78575D02*
Y78875D01*
X63350Y81900D02*
X63650D01*
X63500Y81750D02*
Y82050D01*
X64800Y86775D02*
X65100D01*
X64950Y86625D02*
Y86925D01*
X58800Y82000D02*
X59100D01*
X58950Y81850D02*
Y82150D01*
X64000Y94525D02*
X64300D01*
X64150Y94375D02*
Y94675D01*
X40250Y94900D02*
X40550D01*
X40400Y94750D02*
Y95050D01*
X7625Y104275D02*
X7925D01*
X7775Y104125D02*
Y104425D01*
X19775Y89075D02*
X20075D01*
X19925Y88925D02*
Y89225D01*
X31500Y96425D02*
X31800D01*
X31650Y96275D02*
Y96575D01*
X18350Y96475D02*
X18650D01*
X18500Y96325D02*
Y96625D01*
X13200Y96500D02*
X13500D01*
X13350Y96350D02*
Y96650D01*
X6750Y96000D02*
X7050D01*
X6900Y95850D02*
Y96150D01*
X33450Y70225D02*
X33650D01*
X33550Y70125D02*
Y70325D01*
X31350Y69700D02*
X31550D01*
X31450Y69600D02*
Y69800D01*
X49750Y76450D02*
X49950D01*
X49850Y76350D02*
Y76550D01*
X39975Y71425D02*
X40175D01*
X40075Y71325D02*
Y71525D01*
X36600Y65425D02*
X36800D01*
X36700Y65325D02*
Y65525D01*
X36200Y65725D02*
X36400D01*
X36300Y65625D02*
Y65825D01*
X38025Y65450D02*
X38225D01*
X38125Y65350D02*
Y65550D01*
X36500Y67550D02*
X36700D01*
X36600Y67450D02*
Y67650D01*
X39025Y67025D02*
X39225D01*
X39125Y66925D02*
Y67125D01*
X37300Y65500D02*
X37500D01*
X37400Y65400D02*
Y65600D01*
X38700Y70875D02*
X38900D01*
X38800Y70775D02*
Y70975D01*
X48550Y62350D02*
X48750D01*
X48650Y62250D02*
Y62450D01*
X38875Y66150D02*
X39075D01*
X38975Y66050D02*
Y66250D01*
X47650Y64625D02*
X47850D01*
X47750Y64525D02*
Y64725D01*
X51750Y64225D02*
X51950D01*
X51850Y64125D02*
Y64325D01*
X59900Y69900D02*
X60100D01*
X60000Y69800D02*
Y70000D01*
X35150Y72875D02*
X35350D01*
X35250Y72775D02*
Y72975D01*
X59150Y69925D02*
X59350D01*
X59250Y69825D02*
Y70025D01*
X58425Y69925D02*
X58625D01*
X58525Y69825D02*
Y70025D01*
X57675Y69925D02*
X57875D01*
X57775Y69825D02*
Y70025D01*
X54550Y69925D02*
X54750D01*
X54650Y69825D02*
Y70025D01*
X48950Y60400D02*
X49150D01*
X49050Y60300D02*
Y60500D01*
X53175Y59600D02*
X53375D01*
X53275Y59500D02*
Y59700D01*
X59250Y61695D02*
X59450D01*
X59350Y61595D02*
Y61795D01*
X58560Y61695D02*
X58760D01*
X58660Y61595D02*
Y61795D01*
X51775Y61850D02*
X51975D01*
X51875Y61750D02*
Y61950D01*
X52550Y64225D02*
X52750D01*
X52650Y64125D02*
Y64325D01*
X50150Y64225D02*
X50350D01*
X50250Y64125D02*
Y64325D01*
X50950Y64225D02*
X51150D01*
X51050Y64125D02*
Y64325D01*
X53750Y67325D02*
X53950D01*
X53850Y67225D02*
Y67425D01*
X50150Y68225D02*
X50350D01*
X50250Y68125D02*
Y68325D01*
X50150Y69025D02*
X50350D01*
X50250Y68925D02*
Y69125D01*
X48550Y69025D02*
X48750D01*
X48650Y68925D02*
Y69125D01*
X47625Y68900D02*
X47825D01*
X47725Y68800D02*
Y69000D01*
X47775Y62350D02*
X47975D01*
X47875Y62250D02*
Y62450D01*
X49750Y69925D02*
X49950D01*
X49850Y69825D02*
Y70025D01*
X50550Y69925D02*
X50750D01*
X50650Y69825D02*
Y70025D01*
X55350Y62525D02*
X55550D01*
X55450Y62425D02*
Y62625D01*
X53350Y63425D02*
X53550D01*
X53450Y63325D02*
Y63525D01*
X48955Y69925D02*
X49155D01*
X49055Y69825D02*
Y70025D01*
X47400Y64150D02*
X47600D01*
X47500Y64050D02*
Y64250D01*
X55350Y69925D02*
X55550D01*
X55450Y69825D02*
Y70025D01*
X56150Y69925D02*
X56350D01*
X56250Y69825D02*
Y70025D01*
X54950Y65025D02*
X55150D01*
X55050Y64925D02*
Y65125D01*
X56925Y69925D02*
X57125D01*
X57025Y69825D02*
Y70025D01*
X49350Y69025D02*
X49550D01*
X49450Y68925D02*
Y69125D01*
X57350Y63425D02*
X57550D01*
X57450Y63325D02*
Y63525D01*
X51350Y69925D02*
X51550D01*
X51450Y69825D02*
Y70025D01*
X56150Y62525D02*
X56350D01*
X56250Y62425D02*
Y62625D01*
X58950Y68225D02*
X59150D01*
X59050Y68125D02*
Y68325D01*
X49750Y61950D02*
X49950D01*
X49850Y61850D02*
Y62050D01*
X48950Y61700D02*
X49150D01*
X49050Y61600D02*
Y61800D01*
X59750Y67425D02*
X59950D01*
X59850Y67325D02*
Y67525D01*
X54150Y64225D02*
X54350D01*
X54250Y64125D02*
Y64325D01*
X48150Y61700D02*
X48350D01*
X48250Y61600D02*
Y61800D01*
X49350Y62350D02*
X49550D01*
X49450Y62250D02*
Y62450D01*
X52550Y62725D02*
X52750D01*
X52650Y62625D02*
Y62825D01*
X50550Y61950D02*
X50750D01*
X50650Y61850D02*
Y62050D01*
X50150Y62675D02*
X50350D01*
X50250Y62575D02*
Y62775D01*
X54550Y62525D02*
X54750D01*
X54650Y62425D02*
Y62625D01*
X57350D02*
X57550D01*
X57450Y62525D02*
Y62725D01*
X52550Y68225D02*
X52750D01*
X52650Y68125D02*
Y68325D01*
X52450Y67325D02*
X52650D01*
X52550Y67225D02*
Y67425D01*
X52550Y69025D02*
X52750D01*
X52650Y68925D02*
Y69125D01*
X51750Y68225D02*
X51950D01*
X51850Y68125D02*
Y68325D01*
X51750Y69025D02*
X51950D01*
X51850Y68925D02*
Y69125D01*
X50950Y68225D02*
X51150D01*
X51050Y68125D02*
Y68325D01*
X50950Y69025D02*
X51150D01*
X51050Y68925D02*
Y69125D01*
X28750Y67100D02*
X28950D01*
X28850Y67000D02*
Y67200D01*
X28750Y69050D02*
X28950D01*
X28850Y68950D02*
Y69150D01*
X28100Y65750D02*
X28300D01*
X28200Y65650D02*
Y65850D01*
X28850Y65025D02*
X29050D01*
X28950Y64925D02*
Y65125D01*
X30050Y70350D02*
X30250D01*
X30150Y70250D02*
Y70450D01*
X30075Y69700D02*
X30275D01*
X30175Y69600D02*
Y69800D01*
X32375Y65000D02*
X32575D01*
X32475Y64900D02*
Y65100D01*
X31875Y65000D02*
X32075D01*
X31975Y64900D02*
Y65100D01*
X31375Y65000D02*
X31575D01*
X31475Y64900D02*
Y65100D01*
X33450Y65500D02*
X33650D01*
X33550Y65400D02*
Y65600D01*
X33450Y66000D02*
X33650D01*
X33550Y65900D02*
Y66100D01*
X33450Y66500D02*
X33650D01*
X33550Y66400D02*
Y66600D01*
X31375Y68400D02*
X31575D01*
X31475Y68300D02*
Y68500D01*
X33450Y68025D02*
X33650D01*
X33550Y67925D02*
Y68125D01*
X33450Y67525D02*
X33650D01*
X33550Y67425D02*
Y67625D01*
X33450Y69725D02*
X33650D01*
X33550Y69625D02*
Y69825D01*
X32050Y69700D02*
X32250D01*
X32150Y69600D02*
Y69800D01*
X33275Y67025D02*
X33475D01*
X33375Y66925D02*
Y67125D01*
X28350Y65000D02*
X28550D01*
X28450Y64900D02*
Y65100D01*
X27300Y65000D02*
X27500D01*
X27400Y64900D02*
Y65100D01*
X27300Y66400D02*
X27500D01*
X27400Y66300D02*
Y66500D01*
X31400Y70950D02*
X31600D01*
X31500Y70850D02*
Y71050D01*
X31375Y67100D02*
X31575D01*
X31475Y67000D02*
Y67200D01*
X27300Y66900D02*
X27500D01*
X27400Y66800D02*
Y67000D01*
X27850Y65000D02*
X28050D01*
X27950Y64900D02*
Y65100D01*
X28750Y65800D02*
X28950D01*
X28850Y65700D02*
Y65900D01*
X33450Y69225D02*
X33650D01*
X33550Y69125D02*
Y69325D01*
X53350Y69025D02*
X53550D01*
X53450Y68925D02*
Y69125D01*
X53350Y68225D02*
X53550D01*
X53450Y68125D02*
Y68325D01*
X60725Y64100D02*
X60925D01*
X60825Y64000D02*
Y64200D01*
X40050Y70875D02*
X40250D01*
X40150Y70775D02*
Y70975D01*
X39925Y70125D02*
X40125D01*
X40025Y70025D02*
Y70225D01*
X38100Y68350D02*
X38300D01*
X38200Y68250D02*
Y68450D01*
X39550Y67075D02*
X39750D01*
X39650Y66975D02*
Y67175D01*
X38375Y66150D02*
X38575D01*
X38475Y66050D02*
Y66250D01*
X35100Y63200D02*
X35300D01*
X35200Y63100D02*
Y63300D01*
X35500Y65475D02*
X35700D01*
X35600Y65375D02*
Y65575D01*
X39375Y66150D02*
X39575D01*
X39475Y66050D02*
Y66250D01*
X37500Y68425D02*
X37700D01*
X37600Y68325D02*
Y68525D01*
X53100Y67320D02*
X53300D01*
X53200Y67220D02*
Y67420D01*
X47625Y76300D02*
X47825D01*
X47725Y76200D02*
Y76400D01*
X33450Y65000D02*
X33650D01*
X33550Y64900D02*
Y65100D01*
X30100Y65025D02*
X30300D01*
X30200Y64925D02*
Y65125D01*
X30075Y65800D02*
X30275D01*
X30175Y65700D02*
Y65900D01*
X31375Y66450D02*
X31575D01*
X31475Y66350D02*
Y66550D01*
X47650Y69925D02*
X47850D01*
X47750Y69825D02*
Y70025D01*
X37925Y70650D02*
X38125D01*
X38025Y70550D02*
Y70750D01*
X37450Y70875D02*
X37650D01*
X37550Y70775D02*
Y70975D01*
X39175Y69300D02*
X39375D01*
X39275Y69200D02*
Y69400D01*
X39225Y71425D02*
X39425D01*
X39325Y71325D02*
Y71525D01*
X38750Y68950D02*
X38950D01*
X38850Y68850D02*
Y69050D01*
X53350Y64225D02*
X53550D01*
X53450Y64125D02*
Y64325D01*
X36500Y68050D02*
X36700D01*
X36600Y67950D02*
Y68150D01*
X53350Y65025D02*
X53550D01*
X53450Y64925D02*
Y65125D01*
X38275Y71425D02*
X38475D01*
X38375Y71325D02*
Y71525D01*
X33725Y79400D02*
X33925D01*
X33825Y79300D02*
Y79500D01*
X33225Y79400D02*
X33425D01*
X33325Y79300D02*
Y79500D01*
X33525Y56525D02*
X33725D01*
X33625Y56425D02*
Y56625D01*
X59325Y79400D02*
X59525D01*
X59425Y79300D02*
Y79500D01*
X59825Y79400D02*
X60025D01*
X59925Y79300D02*
Y79500D01*
X59350Y56600D02*
X59550D01*
X59450Y56500D02*
Y56700D01*
X59850Y56600D02*
X60050D01*
X59950Y56500D02*
Y56700D01*
X30075Y69050D02*
X30275D01*
X30175Y68950D02*
Y69150D01*
X30075Y67750D02*
X30275D01*
X30175Y67650D02*
Y67850D01*
X30075Y67100D02*
X30275D01*
X30175Y67000D02*
Y67200D01*
X28750Y66450D02*
X28950D01*
X28850Y66350D02*
Y66550D01*
X30075Y66450D02*
X30275D01*
X30175Y66350D02*
Y66550D01*
X28750Y67750D02*
X28950D01*
X28850Y67650D02*
Y67850D01*
X27300Y71150D02*
X27500D01*
X27400Y71050D02*
Y71250D01*
X28100Y70350D02*
X28300D01*
X28200Y70250D02*
Y70450D01*
X31375Y67750D02*
X31575D01*
X31475Y67650D02*
Y67850D01*
X28750Y68400D02*
X28950D01*
X28850Y68300D02*
Y68500D01*
X31875Y62600D02*
X32075D01*
X31975Y62500D02*
Y62700D01*
X25050Y69575D02*
X25250D01*
X25150Y69475D02*
Y69675D01*
X25475Y72675D02*
X25675D01*
X25575Y72575D02*
Y72775D01*
Y63300D02*
X25775D01*
X25675Y63200D02*
Y63400D01*
X27900Y62375D02*
X28100D01*
X28000Y62275D02*
Y62475D01*
X33450Y68725D02*
X33650D01*
X33550Y68625D02*
Y68825D01*
X35725Y68175D02*
X35925D01*
X35825Y68075D02*
Y68275D01*
X29400Y70350D02*
X29600D01*
X29500Y70250D02*
Y70450D01*
X28750Y70350D02*
X28950D01*
X28850Y70250D02*
Y70450D01*
X27250Y69900D02*
X27450D01*
X27350Y69800D02*
Y70000D01*
X27800Y71150D02*
X28000D01*
X27900Y71050D02*
Y71250D01*
X33675Y60575D02*
X33875D01*
X33775Y60475D02*
Y60675D01*
X27375Y65500D02*
X27575D01*
X27475Y65400D02*
Y65600D01*
X29700Y71150D02*
X29900D01*
X29800Y71050D02*
Y71250D01*
X28300Y71150D02*
X28500D01*
X28400Y71050D02*
Y71250D01*
X30200Y71150D02*
X30400D01*
X30300Y71050D02*
Y71250D01*
X27400Y67400D02*
X27600D01*
X27500Y67300D02*
Y67500D01*
X27300Y67900D02*
X27500D01*
X27400Y67800D02*
Y68000D01*
X27250Y69400D02*
X27450D01*
X27350Y69300D02*
Y69500D01*
X27500Y68400D02*
X27700D01*
X27600Y68300D02*
Y68500D01*
X27300Y68900D02*
X27500D01*
X27400Y68800D02*
Y69000D01*
X28100Y69650D02*
X28300D01*
X28200Y69550D02*
Y69750D01*
X29200Y71150D02*
X29400D01*
X29300Y71050D02*
Y71250D01*
X34025Y56500D02*
X34225D01*
X34125Y56400D02*
Y56600D01*
X3275Y92950D02*
X3575D01*
X3425Y92800D02*
Y93100D01*
X4150Y85825D02*
X4450D01*
X4300Y85675D02*
Y85975D01*
X4250Y73375D02*
X4550D01*
X4400Y73225D02*
Y73525D01*
X8400Y73150D02*
X8700D01*
X8550Y73000D02*
Y73300D01*
X13100Y73150D02*
X13400D01*
X13250Y73000D02*
Y73300D01*
X17550Y72600D02*
X17850D01*
X17700Y72450D02*
Y72750D01*
X14825Y68350D02*
X15125D01*
X14975Y68200D02*
Y68500D01*
X15325Y63925D02*
X15625D01*
X15475Y63775D02*
Y64075D01*
X16450Y59050D02*
X16750D01*
X16600Y58900D02*
Y59200D01*
X25950Y59050D02*
X26250D01*
X26100Y58900D02*
Y59200D01*
X31325Y59050D02*
X31625D01*
X31475Y58900D02*
Y59200D01*
X40450Y103600D02*
X40750D01*
X40600Y103450D02*
Y103750D01*
X40525Y111425D02*
X40825D01*
X40675Y111275D02*
Y111575D01*
X51000Y111950D02*
X51300D01*
X51150Y111800D02*
Y112100D01*
X63975Y112025D02*
X64275D01*
X64125Y111875D02*
Y112175D01*
X76800Y112250D02*
X77100D01*
X76950Y112100D02*
Y112400D01*
X51075Y103675D02*
X51375D01*
X51225Y103525D02*
Y103825D01*
X64050Y103525D02*
X64350D01*
X64200Y103375D02*
Y103675D01*
X77025Y103450D02*
X77325D01*
X77175Y103300D02*
Y103600D01*
X50925Y94650D02*
X51225D01*
X51075Y94500D02*
Y94800D01*
X77025Y66025D02*
X77325D01*
X77175Y65875D02*
Y66175D01*
X77250Y54650D02*
X77550D01*
X77400Y54500D02*
Y54800D01*
X77325Y46825D02*
X77625D01*
X77475Y46675D02*
Y46975D01*
X64350Y46225D02*
X64650D01*
X64500Y46075D02*
Y46375D01*
X50925D02*
X51225D01*
X51075Y46225D02*
Y46525D01*
X40300Y46150D02*
X40600D01*
X40450Y46000D02*
Y46300D01*
X15225Y44500D02*
X15525D01*
X15375Y44350D02*
Y44650D01*
X25925Y44300D02*
X26225D01*
X26075Y44150D02*
Y44450D01*
X4425Y43700D02*
X4725D01*
X4575Y43550D02*
Y43850D01*
X5525Y52800D02*
X5825D01*
X5675Y52650D02*
Y52950D01*
X6025Y61075D02*
X6325D01*
X6175Y60925D02*
Y61225D01*
X6325Y67750D02*
X6625D01*
X6475Y67600D02*
Y67900D01*
X64250Y57275D02*
X64550D01*
X64400Y57125D02*
Y57425D01*
X64475Y67225D02*
X64775D01*
X64625Y67075D02*
Y67375D01*
X24900Y82925D02*
X25200D01*
X25050Y82775D02*
Y83075D01*
X24900Y78200D02*
X25200D01*
X25050Y78050D02*
Y78350D01*
X32875Y65000D02*
X33075D01*
X32975Y64900D02*
Y65100D01*
X31100Y60975D02*
X31300D01*
X31200Y60875D02*
Y61075D01*
X32625Y61375D02*
X32825D01*
X32725Y61275D02*
Y61475D01*
X32675Y67100D02*
X32875D01*
X32775Y67000D02*
Y67200D01*
X32375Y71050D02*
X32575D01*
X32475Y70950D02*
Y71150D01*
X33100D02*
X33300D01*
X33200Y71050D02*
Y71250D01*
X33450Y70725D02*
X33650D01*
X33550Y70625D02*
Y70825D01*
X32675Y69675D02*
X32875D01*
X32775Y69575D02*
Y69775D01*
X32675Y68400D02*
X32875D01*
X32775Y68300D02*
Y68500D01*
X33025Y81100D02*
X33225D01*
X33125Y81000D02*
Y81200D01*
X27550Y89450D02*
X27750D01*
X27650Y89350D02*
Y89550D01*
X29975Y88475D02*
X30175D01*
X30075Y88375D02*
Y88575D01*
X27650Y88425D02*
X27850D01*
X27750Y88325D02*
Y88525D01*
X30050Y91450D02*
X30250D01*
X30150Y91350D02*
Y91550D01*
X29575Y85925D02*
X29775D01*
X29675Y85825D02*
Y86025D01*
X28800Y85925D02*
X29000D01*
X28900Y85825D02*
Y86025D01*
X36400Y85650D02*
X36600D01*
X36500Y85550D02*
Y85750D01*
X29975Y86975D02*
X30175D01*
X30075Y86875D02*
Y87075D01*
X28800Y86975D02*
X29000D01*
X28900Y86875D02*
Y87075D01*
X21400Y84300D02*
X21600D01*
X21500Y84200D02*
Y84400D01*
X21400Y87800D02*
X21600D01*
X21500Y87700D02*
Y87900D01*
X29900Y89575D02*
X30100D01*
X30000Y89475D02*
Y89675D01*
X48150Y69925D02*
X48350D01*
X48250Y69825D02*
Y70025D01*
X1400Y96950D02*
X1700D01*
X1550Y96800D02*
Y97100D01*
X29300Y83450D02*
X29500D01*
X29400Y83350D02*
Y83550D01*
X28425Y73250D02*
X28625D01*
X28525Y73150D02*
Y73350D01*
X29650Y75475D02*
X29850D01*
X29750Y75375D02*
Y75575D01*
X30100Y77025D02*
X30300D01*
X30200Y76925D02*
Y77125D01*
X27800Y74375D02*
X28000D01*
X27900Y74275D02*
Y74475D01*
X28775Y74000D02*
X28975D01*
X28875Y73900D02*
Y74100D01*
X16500Y77350D02*
X16700D01*
X16600Y77250D02*
Y77450D01*
X16500Y76800D02*
X16700D01*
X16600Y76700D02*
Y76900D01*
X16050Y75300D02*
X16250D01*
X16150Y75200D02*
Y75400D01*
X18250Y75925D02*
X18450D01*
X18350Y75825D02*
Y76025D01*
X18025Y83325D02*
X18225D01*
X18125Y83225D02*
Y83425D01*
X19200Y67875D02*
X19400D01*
X19300Y67775D02*
Y67975D01*
X15200Y52750D02*
X15500D01*
X15350Y52600D02*
Y52900D01*
X26050Y52650D02*
X26350D01*
X26200Y52500D02*
Y52800D01*
X15700Y26325D02*
X16000D01*
X15850Y26175D02*
Y26475D01*
X25825Y26325D02*
X26125D01*
X25975Y26175D02*
Y26475D01*
X40125Y26275D02*
X40425D01*
X40275Y26125D02*
Y26425D01*
X69900D02*
X70200D01*
X70050Y26275D02*
Y26575D01*
X28750Y69650D02*
X28950D01*
X28850Y69550D02*
Y69750D01*
X36900Y82950D02*
X37100D01*
X37000Y82850D02*
Y83050D01*
M02*
