G04 Layer_Physical_Order=1*
G04 Layer_Color=255*
%FSLAX43Y43*%
%MOMM*%
G71*
G01*
G75*
%ADD10C,0.230*%
%ADD11R,0.510X0.560*%
%ADD12R,0.640X0.890*%
%ADD13R,1.800X0.800*%
%ADD14R,0.890X0.640*%
%ADD15R,0.560X0.510*%
%ADD16R,0.750X1.000*%
%ADD17R,0.700X0.510*%
%ADD18C,0.400*%
%ADD19R,0.510X0.700*%
%ADD20R,0.200X0.800*%
%ADD21R,4.600X3.600*%
%ADD22R,0.800X0.200*%
%ADD23C,0.090*%
%ADD24C,0.300*%
%ADD25C,0.100*%
%ADD26C,0.200*%
%ADD27C,0.600*%
%ADD28C,0.120*%
%ADD29C,0.175*%
%ADD30C,0.150*%
%ADD31C,0.500*%
%ADD32C,0.250*%
%ADD33C,0.450*%
%ADD34C,0.130*%
%ADD35C,0.153*%
%ADD36C,0.330*%
%ADD37C,0.600*%
G36*
X85592Y775D02*
X408Y775D01*
Y119450D01*
X85592Y119450D01*
Y775D01*
D02*
G37*
%LPC*%
G36*
X12950Y78808D02*
X11150D01*
X11073Y78777D01*
X11042Y78700D01*
Y77900D01*
X11042Y77899D01*
Y77627D01*
X11028Y77622D01*
X10997Y77545D01*
Y76655D01*
X11028Y76578D01*
X11105Y76547D01*
X11745D01*
X11822Y76578D01*
X11853Y76655D01*
Y76743D01*
X12125D01*
X12262Y76770D01*
X12377Y76848D01*
X12455Y76963D01*
X12482Y77100D01*
X12455Y77237D01*
X12377Y77352D01*
X12262Y77430D01*
X12125Y77457D01*
X11858D01*
Y77792D01*
X12950D01*
X13027Y77823D01*
X13058Y77900D01*
Y78700D01*
X13027Y78777D01*
X12950Y78808D01*
D02*
G37*
G36*
X34280Y80388D02*
X33770D01*
X33693Y80357D01*
X33662Y80280D01*
Y79997D01*
X33645Y79980D01*
X33590Y79898D01*
X33570Y79800D01*
Y79559D01*
X33542Y79517D01*
X33519Y79400D01*
X33542Y79283D01*
X33609Y79184D01*
X33708Y79117D01*
X33825Y79094D01*
X33942Y79117D01*
X34041Y79184D01*
X34108Y79283D01*
X34131Y79400D01*
X34109Y79512D01*
X34108Y79518D01*
X34165Y79612D01*
X34280D01*
X34357Y79643D01*
X34388Y79720D01*
Y80280D01*
X34357Y80357D01*
X34280Y80388D01*
D02*
G37*
G36*
X59505D02*
X58995D01*
X58918Y80357D01*
X58887Y80280D01*
Y79720D01*
X58918Y79643D01*
X58995Y79612D01*
X59085D01*
X59142Y79518D01*
X59141Y79512D01*
X59119Y79400D01*
X59142Y79283D01*
X59209Y79184D01*
X59308Y79117D01*
X59425Y79094D01*
X59542Y79117D01*
X59641Y79184D01*
X59708Y79283D01*
X59731Y79400D01*
X59708Y79517D01*
X59680Y79559D01*
Y79825D01*
X59660Y79923D01*
X59613Y79993D01*
Y80280D01*
X59582Y80357D01*
X59505Y80388D01*
D02*
G37*
G36*
X16400Y78808D02*
X14600D01*
X14523Y78777D01*
X14492Y78700D01*
Y77900D01*
X14523Y77823D01*
X14600Y77792D01*
X15517D01*
Y77594D01*
X15497Y77545D01*
Y76655D01*
X15528Y76578D01*
X15605Y76547D01*
X16217D01*
X16225Y76545D01*
X16441D01*
X16483Y76517D01*
X16600Y76494D01*
X16717Y76517D01*
X16816Y76584D01*
X16883Y76683D01*
X16906Y76800D01*
X16883Y76917D01*
X16818Y77014D01*
X16803Y77039D01*
Y77111D01*
X16818Y77136D01*
X16883Y77233D01*
X16906Y77350D01*
X16883Y77467D01*
X16816Y77566D01*
X16717Y77633D01*
X16600Y77656D01*
X16483Y77633D01*
X16441Y77605D01*
X16333D01*
Y77792D01*
X16400D01*
X16477Y77823D01*
X16508Y77900D01*
Y78700D01*
X16477Y78777D01*
X16400Y78808D01*
D02*
G37*
G36*
X19300Y68181D02*
X19183Y68158D01*
X19084Y68091D01*
X19017Y67992D01*
X18994Y67875D01*
X19017Y67758D01*
X19084Y67659D01*
X19183Y67592D01*
X19300Y67569D01*
X19417Y67592D01*
X19516Y67659D01*
X19583Y67758D01*
X19606Y67875D01*
X19583Y67992D01*
X19516Y68091D01*
X19417Y68158D01*
X19300Y68181D01*
D02*
G37*
G36*
X16150Y75606D02*
X16033Y75583D01*
X15934Y75516D01*
X15867Y75417D01*
X15844Y75300D01*
X15867Y75183D01*
X15934Y75084D01*
X16033Y75017D01*
X16150Y74994D01*
X16267Y75017D01*
X16366Y75084D01*
X16433Y75183D01*
X16456Y75300D01*
X16433Y75417D01*
X16366Y75516D01*
X16267Y75583D01*
X16150Y75606D01*
D02*
G37*
G36*
X19855Y76408D02*
X19345D01*
X19268Y76377D01*
X19237Y76300D01*
Y76205D01*
X18471D01*
X18467Y76208D01*
X18350Y76231D01*
X18233Y76208D01*
X18134Y76141D01*
X18067Y76042D01*
X18044Y75925D01*
X18067Y75808D01*
X18134Y75709D01*
X18233Y75642D01*
X18350Y75619D01*
X18467Y75642D01*
X18546Y75695D01*
X19237D01*
Y75600D01*
X19268Y75523D01*
X19345Y75492D01*
X19855D01*
X19932Y75523D01*
X19963Y75600D01*
Y76300D01*
X19932Y76377D01*
X19855Y76408D01*
D02*
G37*
G36*
X12650Y93281D02*
X12533Y93258D01*
X12434Y93191D01*
X12367Y93092D01*
X12344Y92975D01*
X12367Y92858D01*
X12395Y92816D01*
Y92678D01*
X12305D01*
X12228Y92647D01*
X12197Y92570D01*
Y91680D01*
X12217Y91631D01*
Y91508D01*
X11125D01*
X11048Y91477D01*
X11017Y91400D01*
Y90600D01*
X11048Y90523D01*
X11125Y90492D01*
X12925D01*
X13002Y90523D01*
X13033Y90600D01*
Y91400D01*
X13033Y91401D01*
Y91631D01*
X13053Y91680D01*
Y92048D01*
X13153Y92096D01*
X13158Y92092D01*
X13275Y92069D01*
X13392Y92092D01*
X13491Y92159D01*
X13558Y92258D01*
X13581Y92375D01*
X13558Y92492D01*
X13491Y92591D01*
X13392Y92658D01*
X13275Y92681D01*
X13158Y92658D01*
X13121Y92633D01*
X13022Y92647D01*
X12945Y92678D01*
X12905D01*
Y92816D01*
X12933Y92858D01*
X12956Y92975D01*
X12933Y93092D01*
X12866Y93191D01*
X12767Y93258D01*
X12650Y93281D01*
D02*
G37*
G36*
X16245Y92678D02*
X15605D01*
X15528Y92647D01*
X15497Y92570D01*
Y91680D01*
X15517Y91631D01*
Y91508D01*
X14575D01*
X14498Y91477D01*
X14467Y91400D01*
Y90600D01*
X14498Y90523D01*
X14575Y90492D01*
X16375D01*
X16452Y90523D01*
X16483Y90600D01*
Y91315D01*
X16550Y91394D01*
X16667Y91417D01*
X16766Y91484D01*
X16833Y91583D01*
X16856Y91700D01*
X16833Y91817D01*
X16791Y91880D01*
X16774Y91950D01*
X16791Y92020D01*
X16833Y92083D01*
X16856Y92200D01*
X16833Y92317D01*
X16766Y92416D01*
X16667Y92483D01*
X16550Y92506D01*
X16453Y92487D01*
X16383Y92524D01*
X16353Y92550D01*
Y92570D01*
X16322Y92647D01*
X16245Y92678D01*
D02*
G37*
G36*
X6425Y95108D02*
X5675D01*
X5598Y95077D01*
X5567Y95000D01*
Y94662D01*
X2083D01*
Y95000D01*
X2052Y95077D01*
X1975Y95108D01*
X1225D01*
X1148Y95077D01*
X1117Y95000D01*
Y94000D01*
X1148Y93923D01*
X1225Y93892D01*
X1345D01*
Y92950D01*
Y89650D01*
X1365Y89552D01*
X1420Y89470D01*
X6145Y84745D01*
X6227Y84689D01*
X6325Y84670D01*
X10150D01*
X10248Y84689D01*
X10257Y84696D01*
X10441D01*
X10531Y84606D01*
X10531Y84606D01*
X10597Y84562D01*
X10675Y84546D01*
X10798D01*
X10867Y84450D01*
Y84250D01*
X10860Y84236D01*
X10773Y84186D01*
X10675Y84205D01*
X9975D01*
X9877Y84186D01*
X9795Y84130D01*
X9457Y83792D01*
X9435Y83788D01*
X9403Y83785D01*
X9313Y83840D01*
X9307Y83857D01*
X9230Y83888D01*
X8720D01*
X8643Y83857D01*
X8612Y83780D01*
Y83220D01*
X8643Y83143D01*
X8720Y83112D01*
X9230D01*
X9307Y83143D01*
X9313Y83160D01*
X9403Y83215D01*
X9435Y83212D01*
X9525Y83194D01*
X9642Y83217D01*
X9701Y83137D01*
X9496Y82931D01*
X9317D01*
X9307Y82957D01*
X9230Y82988D01*
X8720D01*
X8643Y82957D01*
X8612Y82880D01*
Y82320D01*
X8643Y82243D01*
X8720Y82212D01*
X9230D01*
X9307Y82243D01*
X9317Y82269D01*
X9525D01*
X9652Y82294D01*
X9759Y82366D01*
X9831Y82473D01*
X9849Y82564D01*
X10632Y83346D01*
X10798D01*
X10867Y83250D01*
Y83050D01*
X10898Y82973D01*
X10898Y82927D01*
X10867Y82850D01*
Y82730D01*
X10783Y82647D01*
X10727Y82635D01*
X10645Y82580D01*
X9719Y81655D01*
X8825D01*
X8727Y81635D01*
X8645Y81580D01*
X8245Y81180D01*
X8190Y81098D01*
X8170Y81000D01*
Y80559D01*
X8142Y80517D01*
X8119Y80400D01*
X8137Y80310D01*
X8140Y80278D01*
X8085Y80188D01*
X8068Y80182D01*
X8037Y80105D01*
Y79595D01*
X8068Y79518D01*
X8145Y79487D01*
X8705D01*
X8782Y79518D01*
X8813Y79595D01*
Y80105D01*
X8782Y80182D01*
X8765Y80188D01*
X8710Y80278D01*
X8713Y80310D01*
X8731Y80400D01*
X8708Y80517D01*
X8680Y80559D01*
Y80894D01*
X8931Y81145D01*
X9825D01*
X9923Y81165D01*
X10005Y81220D01*
X11005Y82220D01*
X11061Y82302D01*
X11072Y82358D01*
X11255Y82542D01*
X11775D01*
X11825Y82508D01*
Y82500D01*
X11917D01*
Y81779D01*
X11846Y81708D01*
X11125Y81708D01*
X11125Y81708D01*
X11048Y81677D01*
X11048Y81677D01*
X9748Y80377D01*
X9717Y80300D01*
Y79500D01*
X9717Y79500D01*
X9748Y79423D01*
X9748Y79423D01*
X9848Y79323D01*
X9925Y79292D01*
X10825D01*
X10832Y79295D01*
X10840Y79293D01*
X10870Y79310D01*
X10902Y79323D01*
X10905Y79331D01*
X10912Y79335D01*
X10927Y79356D01*
X11028Y79347D01*
X11041Y79341D01*
X11048Y79323D01*
X11048D01*
X11148Y79223D01*
X11225Y79192D01*
X12725D01*
X12725Y79192D01*
X12802Y79223D01*
X12802Y79223D01*
X12984Y79406D01*
X13027Y79423D01*
X13044Y79466D01*
X13102Y79523D01*
X13108Y79540D01*
X13137Y79600D01*
X13225Y79592D01*
X13282D01*
X13330Y79572D01*
X14220D01*
X14317Y79504D01*
Y79300D01*
X14348Y79223D01*
X14425Y79192D01*
X16125D01*
X16125Y79192D01*
X16202Y79223D01*
X16202Y79223D01*
X16370Y79392D01*
X16400D01*
X16477Y79423D01*
X16508Y79500D01*
Y79575D01*
X16508Y79575D01*
Y80225D01*
X16508Y80225D01*
X16508Y80225D01*
Y80300D01*
X16477Y80377D01*
X16400Y80408D01*
X16370D01*
X16102Y80677D01*
X16025Y80708D01*
X15581D01*
X15519Y80774D01*
X15530Y80876D01*
X15541Y80884D01*
X15608Y80983D01*
X15631Y81100D01*
X15608Y81217D01*
X15541Y81316D01*
X15529Y81325D01*
Y81690D01*
X15533Y81700D01*
Y82500D01*
X15917D01*
Y81700D01*
X15948Y81623D01*
X15963Y81618D01*
Y81550D01*
X16010Y81435D01*
X16435Y81010D01*
X16550Y80963D01*
X18183D01*
X18560Y80585D01*
X18675Y80538D01*
X19442D01*
Y80445D01*
X19473Y80368D01*
X19550Y80337D01*
X20250D01*
X20327Y80368D01*
X20358Y80445D01*
Y80955D01*
X20327Y81032D01*
X20250Y81063D01*
X19550D01*
X19473Y81032D01*
X19442Y80955D01*
Y80862D01*
X18742D01*
X18365Y81240D01*
X18250Y81287D01*
X16617D01*
X16405Y81499D01*
X16406Y81504D01*
X16454Y81592D01*
X16625D01*
X16702Y81623D01*
X16733Y81700D01*
Y82500D01*
X16825D01*
Y82508D01*
X16875Y82542D01*
X17675D01*
X17752Y82573D01*
X17772Y82622D01*
X17876Y82660D01*
X17955Y82581D01*
X17955Y82581D01*
X18021Y82537D01*
X18099Y82521D01*
X18266D01*
X18531Y82256D01*
X18597Y82212D01*
X18675Y82196D01*
X18675Y82196D01*
X18900D01*
X18909Y82184D01*
X19008Y82117D01*
X19125Y82094D01*
X19242Y82117D01*
X19312Y82164D01*
X19406Y82125D01*
X19412Y82120D01*
X19443Y82043D01*
X19463Y82035D01*
X19473Y81932D01*
X19442Y81855D01*
Y81345D01*
X19473Y81268D01*
X19550Y81237D01*
X20250D01*
X20327Y81268D01*
X20358Y81345D01*
Y81855D01*
X20327Y81932D01*
X20250Y81963D01*
X20157D01*
X20115Y82063D01*
X20138Y82120D01*
Y82680D01*
X20107Y82757D01*
X20030Y82788D01*
X19520D01*
X19443Y82757D01*
X19412Y82680D01*
X19406Y82675D01*
X19312Y82636D01*
X19242Y82683D01*
X19125Y82706D01*
X19008Y82683D01*
X18909Y82616D01*
X18900Y82604D01*
X18759D01*
X18494Y82869D01*
X18428Y82913D01*
X18350Y82929D01*
X18267D01*
X18257Y82943D01*
X18254Y82960D01*
X18285Y83071D01*
X18341Y83109D01*
X18408Y83208D01*
X18431Y83325D01*
X18408Y83442D01*
X18341Y83541D01*
X18242Y83608D01*
X18125Y83631D01*
X18110Y83628D01*
X18044Y83694D01*
X17978Y83738D01*
X17900Y83754D01*
X17852D01*
X17783Y83850D01*
Y84050D01*
X17852Y84146D01*
X17995D01*
X18047Y84112D01*
X18125Y84096D01*
X18370D01*
X18391Y84066D01*
X18498Y83994D01*
X18625Y83969D01*
X18923D01*
X18943Y83918D01*
X19020Y83887D01*
X19530D01*
X19607Y83918D01*
X19638Y83995D01*
Y84555D01*
X19625Y84587D01*
X19682Y84687D01*
X19805D01*
X19882Y84718D01*
X19913Y84795D01*
Y85305D01*
X19882Y85382D01*
X19805Y85413D01*
X19245D01*
X19168Y85382D01*
X19137Y85305D01*
X19075Y85254D01*
X18997Y85238D01*
X18931Y85194D01*
X18931Y85194D01*
X18691Y84954D01*
X17685D01*
X17675Y84958D01*
X16875D01*
X16825Y84992D01*
Y85308D01*
X16875Y85342D01*
X17675D01*
X17685Y85346D01*
X18050D01*
X18059Y85334D01*
X18158Y85267D01*
X18275Y85244D01*
X18392Y85267D01*
X18491Y85334D01*
X18558Y85433D01*
X18581Y85550D01*
X18558Y85667D01*
X18491Y85766D01*
X18392Y85833D01*
X18275Y85856D01*
X18158Y85833D01*
X18059Y85766D01*
X18050Y85754D01*
X17948D01*
X17923Y85788D01*
X17909Y85854D01*
X18392Y86338D01*
X20658D01*
X22238Y84758D01*
Y84622D01*
X22138Y84569D01*
X22117Y84583D01*
X22000Y84606D01*
X21883Y84583D01*
X21820Y84541D01*
X21750Y84524D01*
X21680Y84541D01*
X21617Y84583D01*
X21500Y84606D01*
X21383Y84583D01*
X21284Y84516D01*
X21217Y84417D01*
X21194Y84300D01*
X21217Y84183D01*
X21284Y84084D01*
X21338Y84048D01*
Y78217D01*
X20285Y77165D01*
X20238Y77050D01*
Y76405D01*
X20168Y76377D01*
X20137Y76300D01*
Y75600D01*
X20168Y75523D01*
X20238Y75495D01*
Y60500D01*
X20285Y60385D01*
X22435Y58235D01*
X22550Y58188D01*
X28575D01*
X28690Y58235D01*
X31136Y60682D01*
X31200Y60669D01*
X31317Y60692D01*
X31416Y60759D01*
X31483Y60858D01*
X31506Y60975D01*
X31483Y61092D01*
X31416Y61191D01*
X31317Y61258D01*
X31306Y61260D01*
X31273Y61368D01*
X31690Y61785D01*
X31737Y61900D01*
X31732Y61913D01*
Y63532D01*
X31764Y63554D01*
X31875Y63600D01*
X31981Y63705D01*
X32073Y63667D01*
Y63055D01*
X32119Y62944D01*
X32230Y62898D01*
X32341Y62944D01*
X32435Y62910D01*
X32475Y62893D01*
X32480Y62895D01*
X32563Y62840D01*
Y61628D01*
X32509Y61591D01*
X32442Y61492D01*
X32419Y61375D01*
X32442Y61258D01*
X32509Y61159D01*
X32608Y61092D01*
X32725Y61069D01*
X32842Y61092D01*
X32941Y61159D01*
X33008Y61258D01*
X33031Y61375D01*
X33008Y61492D01*
X32941Y61591D01*
X32877Y61634D01*
Y63384D01*
X32890Y63393D01*
X32975Y63428D01*
X33060Y63393D01*
X33073Y63384D01*
Y63280D01*
X33119Y63169D01*
X33175Y63146D01*
Y60255D01*
X33118Y60232D01*
X33087Y60155D01*
Y59595D01*
X33118Y59518D01*
X33146Y59507D01*
Y59403D01*
X33143Y59402D01*
X33112Y59325D01*
Y58625D01*
X33143Y58548D01*
X33175Y58535D01*
Y58440D01*
X33143Y58427D01*
X33112Y58350D01*
Y57650D01*
X33143Y57573D01*
X33175Y57560D01*
Y53725D01*
X64275Y53725D01*
X64275Y76500D01*
X48763D01*
Y76800D01*
X48732Y76877D01*
X48655Y76908D01*
X48145D01*
X48068Y76877D01*
X48037Y76800D01*
Y76607D01*
X47900D01*
X47841Y76583D01*
X47725Y76606D01*
X47608Y76583D01*
X47509Y76516D01*
X47498Y76500D01*
X33175D01*
Y73617D01*
X33110Y73590D01*
X33063Y73475D01*
Y73316D01*
X32979Y73260D01*
X32975Y73262D01*
X32965Y73258D01*
X32882Y73314D01*
Y73400D01*
X32836Y73511D01*
X32725Y73557D01*
X32715Y73553D01*
X32632Y73608D01*
Y73650D01*
X32586Y73761D01*
X32475Y73807D01*
X32474Y73807D01*
X32346Y73862D01*
X32336Y73886D01*
X32225Y73932D01*
X32114Y73886D01*
X32085Y73817D01*
X31975Y73862D01*
X31939Y73847D01*
X31840Y73840D01*
X31725Y73887D01*
X31694Y73875D01*
X31586Y73886D01*
X31543Y73904D01*
X31543Y73904D01*
X31527Y73910D01*
X31475Y73932D01*
X31364Y73886D01*
X31318Y73775D01*
Y72860D01*
X31235Y72805D01*
X31230Y72807D01*
X31147Y72773D01*
X31047Y72820D01*
Y72925D01*
X31001Y73036D01*
X30890Y73082D01*
X30877Y73091D01*
Y73939D01*
X32469Y75531D01*
X32505Y75586D01*
X32518Y75650D01*
X32518Y75650D01*
Y82950D01*
X32505Y83014D01*
X32469Y83069D01*
X32145Y83393D01*
X32156Y83450D01*
X32133Y83567D01*
X32066Y83666D01*
X31967Y83733D01*
X31850Y83756D01*
X31757Y83737D01*
X31683Y83773D01*
X31652Y83799D01*
X31611Y83897D01*
X31290Y84217D01*
X31300Y84317D01*
X31305Y84320D01*
X31347Y84383D01*
X31400Y84388D01*
X31453Y84383D01*
X31495Y84320D01*
X31566Y84272D01*
X31650Y84256D01*
X31734Y84272D01*
X31805Y84320D01*
X31853Y84391D01*
X31869Y84475D01*
X31853Y84559D01*
X31805Y84630D01*
X31742Y84672D01*
X31737Y84725D01*
X31742Y84778D01*
X31805Y84820D01*
X31853Y84891D01*
X31869Y84975D01*
X31853Y85059D01*
X31805Y85130D01*
X31742Y85172D01*
X31737Y85225D01*
X31742Y85278D01*
X31805Y85320D01*
X31853Y85391D01*
X31869Y85475D01*
X31953Y85568D01*
X32137D01*
X32150Y85563D01*
X34612D01*
Y85445D01*
X34643Y85368D01*
X34720Y85337D01*
X34813D01*
Y85178D01*
X34730D01*
X34653Y85147D01*
X34622Y85070D01*
Y84180D01*
X34653Y84103D01*
X34730Y84072D01*
X35370D01*
X35447Y84103D01*
X35478Y84180D01*
Y85070D01*
X35447Y85147D01*
X35370Y85178D01*
X35137D01*
Y85337D01*
X35230D01*
X35307Y85368D01*
X35338Y85445D01*
Y86005D01*
X35307Y86082D01*
X35230Y86113D01*
X34720D01*
X34643Y86082D01*
X34612Y86005D01*
Y85887D01*
X32150D01*
X32137Y85882D01*
X31953D01*
X31869Y85975D01*
X31853Y86059D01*
X31805Y86130D01*
X31742Y86172D01*
X31737Y86225D01*
X31742Y86278D01*
X31805Y86320D01*
X31853Y86391D01*
X31869Y86475D01*
X31853Y86559D01*
X31805Y86630D01*
X31742Y86672D01*
X31737Y86725D01*
X31742Y86778D01*
X31805Y86820D01*
X31853Y86891D01*
X31869Y86975D01*
X31853Y87059D01*
X31805Y87130D01*
X31742Y87172D01*
X31737Y87225D01*
X31742Y87278D01*
X31805Y87320D01*
X31853Y87391D01*
X31869Y87475D01*
X31853Y87559D01*
X31805Y87630D01*
X31742Y87672D01*
X31737Y87725D01*
X31742Y87778D01*
X31805Y87820D01*
X31853Y87891D01*
X31869Y87975D01*
X31853Y88059D01*
X31805Y88130D01*
X31742Y88172D01*
X31737Y88225D01*
X31742Y88278D01*
X31805Y88320D01*
X31853Y88391D01*
X31869Y88475D01*
X31953Y88568D01*
X31973D01*
X31985Y88563D01*
X34567D01*
Y88470D01*
X34598Y88393D01*
X34675Y88362D01*
X35375D01*
X35452Y88393D01*
X35483Y88470D01*
Y88980D01*
X35452Y89057D01*
X35375Y89088D01*
X34675D01*
X34598Y89057D01*
X34567Y88980D01*
Y88887D01*
X31992D01*
X31980Y88892D01*
X31932D01*
X31868Y88970D01*
X31869Y88975D01*
X31953Y89068D01*
X32047D01*
X32077Y89048D01*
X32150Y89034D01*
X32223Y89048D01*
X32285Y89090D01*
X32629Y89434D01*
X34567D01*
Y89370D01*
X34598Y89293D01*
X34675Y89262D01*
X35375D01*
X35452Y89293D01*
X35483Y89370D01*
Y89880D01*
X35452Y89957D01*
X35375Y89988D01*
X34675D01*
X34598Y89957D01*
X34567Y89880D01*
Y89816D01*
X32550D01*
X32477Y89802D01*
X32415Y89760D01*
X32047Y89392D01*
X31942Y89394D01*
X31869Y89475D01*
X31853Y89559D01*
X31805Y89630D01*
X31742Y89672D01*
X31737Y89725D01*
X31742Y89778D01*
X31805Y89820D01*
X31853Y89891D01*
X31869Y89975D01*
X31853Y90059D01*
X31805Y90130D01*
X31742Y90172D01*
X31737Y90225D01*
X31742Y90278D01*
X31805Y90320D01*
X31853Y90391D01*
X31869Y90475D01*
X31853Y90559D01*
X31805Y90630D01*
X31742Y90672D01*
X31737Y90725D01*
X31742Y90778D01*
X31805Y90820D01*
X31853Y90891D01*
X31869Y90975D01*
X31853Y91059D01*
X31805Y91130D01*
X31734Y91178D01*
X31650Y91194D01*
X31566Y91178D01*
X31495Y91130D01*
X31453Y91067D01*
X31400Y91062D01*
X31347Y91067D01*
X31305Y91130D01*
X31234Y91178D01*
X31150Y91194D01*
X31066Y91178D01*
X30995Y91130D01*
X30953Y91067D01*
X30900Y91062D01*
X30847Y91067D01*
X30805Y91130D01*
X30734Y91178D01*
X30650Y91194D01*
X30566Y91178D01*
X30495Y91130D01*
X30447Y91059D01*
X30444Y91039D01*
X30150Y90745D01*
X29857Y91039D01*
X29853Y91059D01*
X29805Y91130D01*
X29734Y91178D01*
X29650Y91194D01*
X29566Y91178D01*
X29495Y91130D01*
X29447Y91059D01*
X29431Y90975D01*
X29447Y90891D01*
X29495Y90820D01*
X29566Y90772D01*
X29586Y90768D01*
X29943Y90411D01*
X29947Y90391D01*
X29959Y90374D01*
Y90135D01*
X29928Y90109D01*
X29814Y90117D01*
X29805Y90130D01*
X29734Y90178D01*
X29653Y90194D01*
X29521Y90326D01*
X29410Y90372D01*
X29369Y90472D01*
X29369Y90475D01*
X29353Y90559D01*
X29305Y90630D01*
X29234Y90678D01*
X29150Y90694D01*
X29066Y90678D01*
X28995Y90630D01*
X28953Y90567D01*
X28900Y90562D01*
X28847Y90567D01*
X28805Y90630D01*
X28742Y90672D01*
X28737Y90725D01*
X28742Y90778D01*
X28805Y90820D01*
X28853Y90891D01*
X28869Y90975D01*
X28853Y91059D01*
X28805Y91130D01*
X28734Y91178D01*
X28650Y91194D01*
X28566Y91178D01*
X28495Y91130D01*
X28453Y91067D01*
X28400Y91062D01*
X28347Y91067D01*
X28305Y91130D01*
X28234Y91178D01*
X28150Y91194D01*
X28066Y91178D01*
X27995Y91130D01*
X27953Y91067D01*
X27900Y91062D01*
X27847Y91067D01*
X27805Y91130D01*
X27734Y91178D01*
X27650Y91194D01*
X27566Y91178D01*
X27495Y91130D01*
X27453Y91067D01*
X27400Y91062D01*
X27347Y91067D01*
X27305Y91130D01*
X27234Y91178D01*
X27150Y91194D01*
X27066Y91178D01*
X26995Y91130D01*
X26953Y91067D01*
X26900Y91062D01*
X26847Y91067D01*
X26805Y91130D01*
X26734Y91178D01*
X26650Y91194D01*
X26566Y91178D01*
X26495Y91130D01*
X26453Y91067D01*
X26400Y91062D01*
X26347Y91067D01*
X26305Y91130D01*
X26234Y91178D01*
X26150Y91194D01*
X26066Y91178D01*
X25995Y91130D01*
X25953Y91067D01*
X25900Y91062D01*
X25847Y91067D01*
X25805Y91130D01*
X25734Y91178D01*
X25650Y91194D01*
X25566Y91178D01*
X25495Y91130D01*
X25453Y91067D01*
X25400Y91062D01*
X25347Y91067D01*
X25305Y91130D01*
X25234Y91178D01*
X25150Y91194D01*
X25066Y91178D01*
X24995Y91130D01*
X24947Y91059D01*
X24931Y90975D01*
X24947Y90891D01*
X24995Y90820D01*
X25058Y90778D01*
X25063Y90725D01*
X25058Y90672D01*
X24995Y90630D01*
X24947Y90559D01*
X24931Y90475D01*
X24947Y90391D01*
X24995Y90320D01*
X25058Y90278D01*
X25063Y90225D01*
X25058Y90172D01*
X24995Y90130D01*
X24947Y90059D01*
X24931Y89975D01*
X24947Y89891D01*
X24995Y89820D01*
X25058Y89778D01*
X25063Y89725D01*
X25058Y89672D01*
X24995Y89630D01*
X24947Y89559D01*
X24931Y89475D01*
X24947Y89391D01*
X24995Y89320D01*
X25058Y89278D01*
X25063Y89225D01*
X25058Y89172D01*
X24995Y89130D01*
X24947Y89059D01*
X24931Y88975D01*
X24947Y88891D01*
X24995Y88820D01*
X25058Y88778D01*
X25063Y88725D01*
X25058Y88672D01*
X24995Y88630D01*
X24947Y88559D01*
X24931Y88475D01*
X24947Y88391D01*
X24995Y88320D01*
X25058Y88278D01*
X25063Y88225D01*
X25058Y88172D01*
X24995Y88130D01*
X24947Y88059D01*
X24931Y87975D01*
X24947Y87891D01*
X24995Y87820D01*
X25058Y87778D01*
X25063Y87725D01*
X25058Y87672D01*
X24995Y87630D01*
X24947Y87559D01*
X24931Y87475D01*
X24947Y87391D01*
X24995Y87320D01*
X25058Y87278D01*
X25063Y87225D01*
X25058Y87172D01*
X24995Y87130D01*
X24947Y87059D01*
X24931Y86975D01*
X24947Y86891D01*
X24995Y86820D01*
X25058Y86778D01*
X25063Y86725D01*
X25058Y86672D01*
X24995Y86630D01*
X24947Y86559D01*
X24931Y86475D01*
X24947Y86391D01*
X24995Y86320D01*
X25058Y86278D01*
X25063Y86225D01*
X25058Y86172D01*
X24995Y86130D01*
X24947Y86059D01*
X24931Y85975D01*
X24947Y85891D01*
X24995Y85820D01*
X25058Y85778D01*
X25063Y85725D01*
X25058Y85672D01*
X24995Y85630D01*
X24947Y85559D01*
X24931Y85475D01*
X24947Y85391D01*
X24995Y85320D01*
X25058Y85278D01*
X25063Y85225D01*
X25058Y85172D01*
X24995Y85130D01*
X24947Y85059D01*
X24931Y84975D01*
X24947Y84891D01*
X24995Y84820D01*
X25058Y84778D01*
X25063Y84725D01*
X25058Y84672D01*
X24995Y84630D01*
X24947Y84559D01*
X24931Y84475D01*
X24947Y84391D01*
X24995Y84320D01*
X25066Y84272D01*
X25150Y84256D01*
X25234Y84272D01*
X25305Y84320D01*
X25347Y84383D01*
X25400Y84388D01*
X25453Y84383D01*
X25495Y84320D01*
X25566Y84272D01*
X25650Y84256D01*
X25734Y84272D01*
X25805Y84320D01*
X25847Y84383D01*
X25900Y84388D01*
X25953Y84383D01*
X25995Y84320D01*
X26066Y84272D01*
X26150Y84256D01*
X26234Y84272D01*
X26305Y84320D01*
X26347Y84383D01*
X26400Y84388D01*
X26453Y84383D01*
X26495Y84320D01*
X26566Y84272D01*
X26650Y84256D01*
X26734Y84272D01*
X26805Y84320D01*
X26847Y84383D01*
X26900Y84388D01*
X26953Y84383D01*
X26995Y84320D01*
X27066Y84272D01*
X27150Y84256D01*
X27234Y84272D01*
X27305Y84320D01*
X27347Y84383D01*
X27400Y84388D01*
X27453Y84383D01*
X27495Y84320D01*
X27566Y84272D01*
X27650Y84256D01*
X27743Y84172D01*
Y84032D01*
X27732Y83975D01*
Y76420D01*
X27406Y76094D01*
X27370Y76039D01*
X27357Y75975D01*
Y74250D01*
X27370Y74186D01*
X27406Y74131D01*
X27454Y74099D01*
X27596Y73957D01*
Y73461D01*
X27525Y73382D01*
X27414Y73336D01*
X27396Y73292D01*
X27300Y73332D01*
X27189Y73286D01*
X27162Y73221D01*
X27075Y73257D01*
X26964Y73211D01*
X26937Y73146D01*
X26850Y73182D01*
X26739Y73136D01*
X26626Y73125D01*
X26550Y73157D01*
X26439Y73111D01*
X26353Y73094D01*
X26286Y73161D01*
X26175Y73207D01*
X26064Y73161D01*
X26020Y73055D01*
X25914Y73011D01*
X25868Y72900D01*
X25914Y72789D01*
X26068Y72635D01*
Y72477D01*
X25780D01*
X25669Y72431D01*
X25623Y72320D01*
X25625Y72315D01*
X25570Y72232D01*
X25500D01*
X25389Y72186D01*
X25343Y72075D01*
X25389Y71964D01*
X25500Y71918D01*
X25508Y71905D01*
X25473Y71820D01*
X25512Y71726D01*
X25414Y71686D01*
X25368Y71575D01*
X25414Y71464D01*
X25509Y71425D01*
X25468Y71325D01*
X25513Y71217D01*
X25439Y71186D01*
X25393Y71075D01*
X25397Y71065D01*
X25342Y70982D01*
X23690D01*
X23162Y71510D01*
Y85075D01*
X23115Y85190D01*
X21891Y86414D01*
X21940Y86506D01*
X22000Y86494D01*
X22117Y86517D01*
X22216Y86584D01*
X22283Y86683D01*
X22306Y86800D01*
X22283Y86917D01*
X22216Y87016D01*
X22117Y87083D01*
X22000Y87106D01*
X21936Y87093D01*
X21608Y87421D01*
X21639Y87532D01*
X21716Y87584D01*
X21783Y87683D01*
X21806Y87800D01*
X21783Y87917D01*
X21716Y88016D01*
X21617Y88083D01*
X21500Y88106D01*
X21383Y88083D01*
X21376Y88078D01*
X21215Y88240D01*
X21100Y88287D01*
X15885D01*
X15770Y88240D01*
X15326Y87796D01*
X15318Y87796D01*
X15224Y87835D01*
X15208Y87917D01*
X15141Y88016D01*
X15042Y88083D01*
X14925Y88106D01*
X14876Y88198D01*
X15370Y88692D01*
X16225D01*
X16225Y88692D01*
X16302Y88723D01*
X16452Y88873D01*
X16483Y88950D01*
Y89800D01*
X16483Y89800D01*
Y89900D01*
X16452Y89977D01*
X16375Y90008D01*
X14425Y90008D01*
X14348Y89977D01*
X14317Y89900D01*
Y89782D01*
X14217Y89719D01*
X14195Y89728D01*
X13305D01*
X13257Y89708D01*
X13225D01*
X13225Y89708D01*
X13133Y89778D01*
Y89900D01*
X13102Y89977D01*
X12902Y90177D01*
X12825Y90208D01*
X11225D01*
X11148Y90177D01*
X10948Y89977D01*
X10917Y89900D01*
Y88903D01*
X10817Y88861D01*
X10802Y88877D01*
X10725Y88908D01*
X9925D01*
X9925Y88908D01*
X9848Y88877D01*
X9848Y88877D01*
X9748Y88777D01*
X9717Y88700D01*
X9717Y87925D01*
X9748Y87848D01*
X9748Y87848D01*
X9768Y87829D01*
X9778Y87803D01*
X9804Y87793D01*
X10909Y86688D01*
X10871Y86584D01*
X10809Y86576D01*
X9630Y87755D01*
X9549Y87810D01*
X9578Y87880D01*
Y88520D01*
X9547Y88597D01*
X9470Y88628D01*
X8580D01*
X8503Y88597D01*
X8472Y88520D01*
Y87880D01*
X8503Y87803D01*
X8580Y87772D01*
X8700D01*
X8726Y87741D01*
X8763Y87672D01*
X8744Y87575D01*
X8767Y87458D01*
X8834Y87359D01*
X8933Y87292D01*
X9050Y87269D01*
X9167Y87292D01*
X9209Y87320D01*
X9344D01*
X10495Y86170D01*
X10577Y86115D01*
X10675Y86095D01*
X10773Y86115D01*
X10860Y86064D01*
X10867Y86050D01*
Y85850D01*
X10898Y85773D01*
X10975Y85742D01*
X11775D01*
X11825Y85708D01*
Y85392D01*
X11775Y85358D01*
X10975D01*
X10898Y85327D01*
X10867Y85250D01*
Y85050D01*
X10837Y85008D01*
X10714Y84999D01*
X10669Y85044D01*
X10603Y85088D01*
X10525Y85104D01*
X10331D01*
X10330Y85105D01*
X10248Y85160D01*
X10150Y85180D01*
X6431D01*
X1855Y89756D01*
Y92562D01*
X2030D01*
X2107Y92593D01*
X2138Y92670D01*
Y93230D01*
X2107Y93307D01*
X2030Y93338D01*
X1855D01*
Y93892D01*
X1975D01*
X2052Y93923D01*
X2083Y94000D01*
Y94338D01*
X5567D01*
Y94000D01*
X5598Y93923D01*
X5675Y93892D01*
X6425D01*
X6502Y93923D01*
X6533Y94000D01*
Y95000D01*
X6502Y95077D01*
X6425Y95108D01*
D02*
G37*
%LPD*%
G36*
X23514Y70714D02*
X23625Y70668D01*
X25317D01*
X25372Y70585D01*
X25368Y70575D01*
X25414Y70464D01*
X25525Y70418D01*
X25751D01*
X25823Y70330D01*
X25869Y70219D01*
X25907Y70203D01*
X25914Y70101D01*
X25868Y69990D01*
X25888Y69941D01*
X25864Y69931D01*
X25818Y69820D01*
X25864Y69709D01*
X25975Y69663D01*
X26040D01*
X26129Y69574D01*
X26090Y69482D01*
X25825D01*
X25714Y69436D01*
X25668Y69325D01*
X25672Y69315D01*
X25617Y69232D01*
X25550D01*
X25439Y69186D01*
X25393Y69075D01*
X25439Y68964D01*
X25550Y68918D01*
X25715D01*
X25770Y68835D01*
X25768Y68830D01*
X25814Y68719D01*
X25863Y68699D01*
X25889Y68601D01*
X25843Y68490D01*
X25834Y68477D01*
X25745D01*
X25634Y68431D01*
X25588Y68320D01*
X25590Y68315D01*
X25535Y68232D01*
X25475D01*
X25364Y68186D01*
X25318Y68075D01*
X25364Y67964D01*
X25357Y67859D01*
X25343Y67825D01*
X25389Y67714D01*
X25419Y67702D01*
X25440Y67650D01*
X25381Y67555D01*
X25025D01*
X22887Y69692D01*
Y71199D01*
X22987Y71241D01*
X23514Y70714D01*
D02*
G37*
G36*
X32475Y71856D02*
X32568Y71825D01*
X32614Y71714D01*
X32756Y71572D01*
X32772Y71491D01*
X32820Y71420D01*
X32891Y71372D01*
X32975Y71356D01*
X33059Y71372D01*
X33075Y71383D01*
X33175Y71330D01*
Y70976D01*
X33075Y70894D01*
X32991Y70878D01*
X32920Y70830D01*
X32872Y70759D01*
X32856Y70675D01*
X32872Y70591D01*
X32920Y70520D01*
X32991Y70472D01*
X33075Y70456D01*
X33088Y70446D01*
X33095Y70435D01*
X33104Y70324D01*
X33011Y70232D01*
X32991Y70228D01*
X32920Y70180D01*
X32872Y70109D01*
X32864Y70065D01*
X32775Y69981D01*
X32658Y69958D01*
X32559Y69891D01*
X32492Y69792D01*
X32469Y69675D01*
X32385Y69586D01*
X32341Y69578D01*
X32270Y69530D01*
X32222Y69459D01*
X32206Y69375D01*
X32222Y69291D01*
X32270Y69220D01*
X32341Y69172D01*
X32425Y69156D01*
X32484Y69167D01*
X32559Y69125D01*
X32584Y69102D01*
Y69025D01*
X32590Y68994D01*
X32509Y68928D01*
X32425Y68944D01*
X32341Y68928D01*
X32270Y68880D01*
X32222Y68809D01*
X32206Y68725D01*
X32211Y68701D01*
X32118Y68652D01*
X31982Y68789D01*
X31978Y68809D01*
X31930Y68880D01*
X31859Y68928D01*
X31839Y68932D01*
X31771Y69000D01*
X31781Y69050D01*
X31758Y69167D01*
X31691Y69266D01*
X31599Y69328D01*
X31596Y69336D01*
X31592Y69365D01*
X31593Y69434D01*
X31666Y69484D01*
X31733Y69583D01*
X31756Y69700D01*
X31753Y69716D01*
X31834Y69818D01*
X31859Y69822D01*
X31930Y69870D01*
X31974Y69935D01*
X32094Y70056D01*
X32094Y70056D01*
X32138Y70122D01*
X32154Y70200D01*
Y70500D01*
X32150Y70520D01*
X32244Y70559D01*
X32270Y70520D01*
X32341Y70472D01*
X32425Y70456D01*
X32509Y70472D01*
X32580Y70520D01*
X32628Y70591D01*
X32644Y70675D01*
X32628Y70759D01*
X32635Y70796D01*
X32691Y70834D01*
X32758Y70933D01*
X32781Y71050D01*
X32758Y71167D01*
X32691Y71266D01*
X32592Y71333D01*
X32475Y71356D01*
X32358Y71333D01*
X32335Y71317D01*
X32258Y71267D01*
X32207Y71343D01*
X32191Y71366D01*
X32173Y71379D01*
X32168Y71477D01*
X32178Y71491D01*
X32194Y71575D01*
X32178Y71659D01*
X32169Y71671D01*
X32182Y71714D01*
X32336Y71868D01*
X32391Y71872D01*
X32475Y71856D01*
D02*
G37*
G36*
X28968Y67361D02*
X28972Y67341D01*
X29020Y67270D01*
X29091Y67222D01*
X29111Y67218D01*
X29180Y67150D01*
Y67050D01*
X29111Y66982D01*
X29091Y66978D01*
X29020Y66930D01*
X28972Y66859D01*
X28956Y66775D01*
X28972Y66691D01*
X29020Y66620D01*
X29091Y66572D01*
X29175Y66556D01*
X29259Y66572D01*
X29330Y66620D01*
X29378Y66691D01*
X29382Y66711D01*
X29500Y66830D01*
X29618Y66711D01*
X29622Y66691D01*
X29670Y66620D01*
X29741Y66572D01*
X29786Y66564D01*
X29874Y66475D01*
X29869Y66450D01*
X29892Y66333D01*
X29959Y66234D01*
X30038Y66181D01*
X30047Y66136D01*
Y66114D01*
X30038Y66069D01*
X29959Y66016D01*
X29903Y65933D01*
X29886Y65915D01*
X29784Y65883D01*
X29725Y65907D01*
X29135D01*
X29133Y65917D01*
X29066Y66016D01*
X28967Y66083D01*
X28850Y66106D01*
X28733Y66083D01*
X28634Y66016D01*
X28567Y65917D01*
X28567Y65916D01*
X28462Y65898D01*
X28416Y65966D01*
X28317Y66033D01*
X28200Y66056D01*
X28163Y66049D01*
X28093Y66119D01*
X28094Y66125D01*
X28078Y66209D01*
X28030Y66280D01*
X27959Y66328D01*
X27875Y66344D01*
X27791Y66328D01*
X27704Y66389D01*
X27706Y66400D01*
X27683Y66517D01*
X27641Y66580D01*
X27624Y66650D01*
X27641Y66720D01*
X27683Y66783D01*
X27706Y66900D01*
X27683Y67017D01*
X27667Y67040D01*
X27617Y67117D01*
X27693Y67168D01*
X27716Y67184D01*
X27739Y67218D01*
X27813D01*
X27875Y67206D01*
X27937Y67218D01*
X28463D01*
X28525Y67206D01*
X28609Y67222D01*
X28647Y67248D01*
X28686Y67264D01*
X28702Y67303D01*
X28728Y67341D01*
X28732Y67366D01*
X28834Y67447D01*
X28850Y67444D01*
X28880Y67450D01*
X28968Y67361D01*
D02*
G37*
G36*
X29618Y69311D02*
X29622Y69291D01*
X29670Y69220D01*
X29741Y69172D01*
X29761Y69168D01*
X29871Y69059D01*
X29869Y69050D01*
X29892Y68933D01*
X29959Y68834D01*
X30058Y68767D01*
X30175Y68744D01*
X30184Y68746D01*
X30268Y68661D01*
X30272Y68641D01*
X30320Y68570D01*
X30391Y68522D01*
X30411Y68518D01*
X30918Y68011D01*
X30922Y67991D01*
X30970Y67920D01*
X31041Y67872D01*
X31061Y67868D01*
X31171Y67759D01*
X31169Y67750D01*
X31192Y67633D01*
X31259Y67534D01*
X31358Y67467D01*
X31475Y67444D01*
X31484Y67446D01*
X31568Y67361D01*
X31572Y67341D01*
X31620Y67270D01*
X31691Y67222D01*
X31711Y67218D01*
X32218Y66711D01*
X32222Y66691D01*
X32270Y66620D01*
X32341Y66572D01*
X32425Y66556D01*
X32484Y66567D01*
X32559Y66525D01*
X32584Y66502D01*
Y66425D01*
X32598Y66352D01*
X32640Y66290D01*
X32868Y66061D01*
X32872Y66041D01*
X32920Y65970D01*
X32991Y65922D01*
X33011Y65918D01*
X33040Y65890D01*
X33102Y65848D01*
X33175Y65834D01*
Y65338D01*
X33075Y65286D01*
X32975Y65306D01*
X32858Y65283D01*
X32759Y65216D01*
X32691D01*
X32643Y65248D01*
X32641Y65251D01*
X32616Y65369D01*
X32618Y65377D01*
X32628Y65391D01*
X32644Y65475D01*
X32628Y65559D01*
X32580Y65630D01*
X32509Y65678D01*
X32425Y65694D01*
X32412Y65692D01*
X32312Y65750D01*
X32265Y65865D01*
X31992Y66138D01*
X31978Y66209D01*
X31930Y66280D01*
X31859Y66328D01*
X31858Y66328D01*
X31779Y66439D01*
X31781Y66450D01*
X31758Y66567D01*
X31691Y66666D01*
X31592Y66733D01*
X31475Y66756D01*
X31425Y66746D01*
X31332Y66839D01*
X31328Y66859D01*
X31280Y66930D01*
X31209Y66978D01*
X31189Y66982D01*
X30682Y67489D01*
X30678Y67509D01*
X30630Y67580D01*
X30559Y67628D01*
X30539Y67632D01*
X30471Y67700D01*
X30481Y67750D01*
X30458Y67867D01*
X30391Y67966D01*
X30292Y68033D01*
X30175Y68056D01*
X30125Y68046D01*
X30032Y68139D01*
X30028Y68159D01*
X29980Y68230D01*
X29909Y68278D01*
X29889Y68282D01*
X29382Y68789D01*
X29378Y68809D01*
X29330Y68880D01*
X29259Y68928D01*
X29239Y68932D01*
X29150Y69020D01*
X29156Y69050D01*
X29133Y69167D01*
X29066Y69266D01*
X29031Y69290D01*
Y69410D01*
X29066Y69434D01*
X29133Y69533D01*
X29153Y69635D01*
X29200Y69663D01*
X29252Y69677D01*
X29618Y69311D01*
D02*
G37*
G36*
X22150Y77383D02*
X22238Y77360D01*
Y68675D01*
X22285Y68560D01*
X22298Y68555D01*
X24639Y66214D01*
X24750Y66168D01*
X25317D01*
X25372Y66085D01*
X25368Y66075D01*
X25414Y65964D01*
X25422Y65852D01*
X25413Y65830D01*
X25459Y65719D01*
X25570Y65673D01*
X25755D01*
X25802Y65573D01*
X25768Y65490D01*
X25792Y65432D01*
X25789Y65431D01*
X25743Y65320D01*
X25745Y65315D01*
X25690Y65232D01*
X25600D01*
X25489Y65186D01*
X25443Y65075D01*
X25456Y65044D01*
X25469Y64941D01*
X25423Y64830D01*
X25469Y64719D01*
X25460Y64615D01*
X25443Y64575D01*
X25480Y64487D01*
X25369Y64441D01*
X25323Y64330D01*
X25369Y64219D01*
X25462Y64181D01*
X25418Y64075D01*
X25464Y63964D01*
X25438Y63866D01*
X25423Y63830D01*
X25469Y63719D01*
X25580Y63673D01*
X26068D01*
Y63075D01*
X26114Y62964D01*
X26225Y62918D01*
X26336Y62964D01*
X26346Y62988D01*
X26474Y63043D01*
X26475Y63043D01*
X26586Y63089D01*
X26591Y63102D01*
X26619Y63119D01*
X26730Y63073D01*
X26758Y63085D01*
X26864Y63089D01*
X26975Y63043D01*
X27018Y63061D01*
X27100Y63085D01*
X27182Y63061D01*
X27225Y63043D01*
X27235Y63047D01*
X27318Y62992D01*
Y62925D01*
X27364Y62814D01*
X27475Y62768D01*
X27586Y62814D01*
X27600Y62848D01*
X27724Y62900D01*
X27730Y62898D01*
X27841Y62944D01*
X27887Y63055D01*
Y63765D01*
X27968Y63846D01*
X27993Y63842D01*
X28068Y63772D01*
Y63450D01*
X28114Y63339D01*
X28225Y63293D01*
X28336Y63339D01*
X28355Y63385D01*
X28395Y63368D01*
X28506Y63414D01*
X28508Y63420D01*
X28617D01*
X28619Y63414D01*
X28730Y63368D01*
X28735Y63370D01*
X28818Y63315D01*
Y63150D01*
X28864Y63039D01*
X28975Y62993D01*
X29086Y63039D01*
X29132Y63150D01*
Y63217D01*
X29215Y63272D01*
X29225Y63268D01*
X29235Y63272D01*
X29307Y63224D01*
X29319Y63199D01*
X29364Y63089D01*
X29475Y63043D01*
X29586Y63089D01*
X29632Y63200D01*
Y63351D01*
X29720Y63423D01*
X29831Y63469D01*
X29847Y63507D01*
X29949Y63514D01*
X30060Y63468D01*
X30073Y63473D01*
X30119Y63363D01*
X30143Y63339D01*
Y63100D01*
X30189Y62989D01*
X30300Y62943D01*
X30362Y62969D01*
X30364Y62964D01*
X30475Y62918D01*
X30586Y62964D01*
X30700Y62978D01*
X30725Y62968D01*
X30836Y63014D01*
X30841Y63026D01*
X30864Y63039D01*
X30975Y62993D01*
X31086Y63039D01*
X31132Y63150D01*
Y63263D01*
X31215Y63319D01*
X31220Y63317D01*
X31318Y63357D01*
X31418Y63319D01*
Y61973D01*
X28208Y58762D01*
X23092D01*
X20862Y60992D01*
Y72258D01*
X21790Y73185D01*
X21837Y73300D01*
Y75000D01*
X21790Y75115D01*
X21675Y75162D01*
X21633D01*
Y75255D01*
X21602Y75332D01*
X21525Y75363D01*
X21337D01*
Y76583D01*
X22138Y77383D01*
X22150Y77383D01*
D02*
G37*
G36*
X24843Y67278D02*
X24958Y67230D01*
X25398D01*
X25695Y66933D01*
X25694Y66931D01*
X25648Y66820D01*
X25694Y66709D01*
X25805Y66663D01*
X26165D01*
X26246Y66582D01*
X26242Y66557D01*
X26172Y66482D01*
X24815D01*
X22562Y68735D01*
Y69417D01*
X22662Y69458D01*
X24843Y67278D01*
D02*
G37*
G36*
X28564Y68951D02*
X28567Y68933D01*
X28634Y68834D01*
X28733Y68767D01*
X28850Y68744D01*
X28880Y68750D01*
X28968Y68661D01*
X28972Y68641D01*
X29020Y68570D01*
X29091Y68522D01*
X29111Y68518D01*
X29618Y68011D01*
X29622Y67991D01*
X29670Y67920D01*
X29741Y67872D01*
X29761Y67868D01*
X29871Y67759D01*
X29869Y67750D01*
X29892Y67633D01*
X29959Y67534D01*
X30058Y67467D01*
X30175Y67444D01*
X30184Y67446D01*
X30268Y67361D01*
X30272Y67341D01*
X30320Y67270D01*
X30391Y67222D01*
X30411Y67218D01*
X30918Y66711D01*
X30922Y66691D01*
X30970Y66620D01*
X31041Y66572D01*
X31061Y66568D01*
X31171Y66459D01*
X31169Y66450D01*
X31192Y66333D01*
X31259Y66234D01*
X31358Y66167D01*
X31475Y66144D01*
X31569Y66061D01*
X31572Y66041D01*
X31620Y65970D01*
X31691Y65922D01*
X31762Y65908D01*
X31877Y65794D01*
X31873Y65775D01*
X31775Y65694D01*
X31691Y65678D01*
X31620Y65630D01*
X31598Y65598D01*
X31542Y65559D01*
X31470Y65558D01*
X31400Y65587D01*
X31309D01*
X31280Y65630D01*
X31209Y65678D01*
X31125Y65694D01*
X31041Y65678D01*
X30970Y65630D01*
X30922Y65559D01*
X30906Y65475D01*
X30922Y65391D01*
X30970Y65320D01*
X31041Y65272D01*
X31125Y65256D01*
X31170Y65265D01*
X31171Y65264D01*
X31175Y65262D01*
X31223Y65163D01*
X31192Y65117D01*
X31169Y65000D01*
X31192Y64883D01*
X31259Y64784D01*
X31272Y64659D01*
X31256Y64578D01*
X31109Y64431D01*
X31083Y64367D01*
X31063Y64320D01*
X30975Y64294D01*
X30891Y64278D01*
X30820Y64230D01*
X30778Y64167D01*
X30725Y64162D01*
X30672Y64167D01*
X30630Y64230D01*
X30567Y64272D01*
X30562Y64325D01*
X30567Y64378D01*
X30630Y64420D01*
X30678Y64491D01*
X30694Y64575D01*
X30678Y64659D01*
X30630Y64730D01*
X30559Y64778D01*
X30475Y64794D01*
X30391Y64778D01*
X30320Y64730D01*
X30272Y64659D01*
X30256Y64578D01*
X30119Y64441D01*
X30073Y64330D01*
X29975Y64294D01*
X29877Y64330D01*
X29831Y64441D01*
X29694Y64578D01*
X29678Y64659D01*
X29630Y64730D01*
X29559Y64778D01*
X29475Y64794D01*
X29391Y64778D01*
X29320Y64730D01*
X29192Y64711D01*
X29163Y64733D01*
X29166Y64809D01*
X29233Y64908D01*
X29256Y65025D01*
X29250Y65055D01*
X29360Y65165D01*
X29402Y65227D01*
X29416Y65300D01*
Y65425D01*
X29403Y65491D01*
X29412Y65504D01*
X29470Y65572D01*
X29547Y65566D01*
X29608Y65485D01*
X29606Y65475D01*
X29622Y65391D01*
X29670Y65320D01*
X29741Y65272D01*
X29825Y65256D01*
X29909Y65272D01*
X29947Y65298D01*
X29986Y65314D01*
X30002Y65353D01*
X30028Y65391D01*
X30034Y65422D01*
X30126Y65497D01*
X30141Y65501D01*
X30175Y65494D01*
X30292Y65517D01*
X30391Y65584D01*
X30458Y65683D01*
X30468Y65734D01*
X30664Y65931D01*
X30708Y65997D01*
X30724Y66075D01*
X30724Y66075D01*
Y66080D01*
X30708Y66158D01*
X30679Y66202D01*
X30678Y66209D01*
X30630Y66280D01*
X30559Y66328D01*
X30558Y66328D01*
X30479Y66439D01*
X30481Y66450D01*
X30458Y66567D01*
X30391Y66666D01*
X30292Y66733D01*
X30175Y66756D01*
X30141Y66749D01*
X30020Y66871D01*
X29980Y66930D01*
X29909Y66978D01*
X29889Y66982D01*
X29382Y67489D01*
X29378Y67509D01*
X29330Y67580D01*
X29259Y67628D01*
X29239Y67632D01*
X29150Y67720D01*
X29156Y67750D01*
X29133Y67867D01*
X29066Y67966D01*
X28967Y68033D01*
X28850Y68056D01*
X28820Y68050D01*
X28732Y68139D01*
X28728Y68159D01*
X28680Y68230D01*
X28609Y68278D01*
X28525Y68294D01*
X28441Y68278D01*
X28370Y68230D01*
X28322Y68159D01*
X28306Y68075D01*
X28322Y67991D01*
X28370Y67920D01*
X28441Y67872D01*
X28461Y67868D01*
X28550Y67780D01*
X28544Y67750D01*
X28547Y67734D01*
X28466Y67632D01*
X28441Y67628D01*
X28370Y67580D01*
X28338Y67532D01*
X28062D01*
X28030Y67580D01*
X27959Y67628D01*
X27875Y67644D01*
X27791Y67628D01*
X27787Y67629D01*
X27758Y67696D01*
X27784Y67743D01*
X27800D01*
X27911Y67789D01*
X28036Y67914D01*
X28052Y67953D01*
X28078Y67991D01*
X28094Y68075D01*
X28078Y68159D01*
X28030Y68230D01*
X27959Y68278D01*
X27954Y68279D01*
X27898Y68362D01*
X27906Y68400D01*
X27900Y68428D01*
X27993Y68521D01*
X28036Y68539D01*
X28082Y68650D01*
Y68663D01*
X28094Y68725D01*
X28086Y68768D01*
X28149Y68868D01*
X28275D01*
X28386Y68914D01*
X28455Y68983D01*
X28564Y68951D01*
D02*
G37*
G36*
X27953Y89883D02*
X27995Y89820D01*
X28066Y89772D01*
X28150Y89756D01*
X28243Y89672D01*
Y88440D01*
X27789Y87986D01*
X27743Y87875D01*
Y86778D01*
X27650Y86694D01*
X27566Y86678D01*
X27495Y86630D01*
X27453Y86567D01*
X27400Y86562D01*
X27347Y86567D01*
X27305Y86630D01*
X27242Y86672D01*
X27237Y86725D01*
X27242Y86778D01*
X27305Y86820D01*
X27353Y86891D01*
X27369Y86975D01*
X27353Y87059D01*
X27305Y87130D01*
X27242Y87172D01*
X27237Y87225D01*
X27242Y87278D01*
X27305Y87320D01*
X27353Y87391D01*
X27369Y87475D01*
X27353Y87559D01*
X27305Y87630D01*
X27234Y87678D01*
X27150Y87694D01*
X27066Y87678D01*
X26995Y87630D01*
X26947Y87559D01*
X26931Y87475D01*
X26947Y87391D01*
X26995Y87320D01*
X27058Y87278D01*
X27063Y87225D01*
X27058Y87172D01*
X26995Y87130D01*
X26947Y87059D01*
X26931Y86975D01*
X26947Y86891D01*
X26995Y86820D01*
X27058Y86778D01*
X27063Y86725D01*
X27058Y86672D01*
X26995Y86630D01*
X26947Y86559D01*
X26931Y86475D01*
X26947Y86391D01*
X26995Y86320D01*
X27066Y86272D01*
X27150Y86256D01*
X27234Y86272D01*
X27305Y86320D01*
X27347Y86383D01*
X27400Y86388D01*
X27453Y86383D01*
X27495Y86320D01*
X27566Y86272D01*
X27650Y86256D01*
X27743Y86172D01*
Y85778D01*
X27650Y85694D01*
X27566Y85678D01*
X27495Y85630D01*
X27453Y85567D01*
X27400Y85562D01*
X27347Y85567D01*
X27305Y85630D01*
X27234Y85678D01*
X27150Y85694D01*
X27066Y85678D01*
X26995Y85630D01*
X26953Y85567D01*
X26900Y85562D01*
X26847Y85567D01*
X26805Y85630D01*
X26734Y85678D01*
X26650Y85694D01*
X26566Y85678D01*
X26495Y85630D01*
X26453Y85567D01*
X26400Y85562D01*
X26347Y85567D01*
X26305Y85630D01*
X26242Y85672D01*
X26237Y85725D01*
X26242Y85778D01*
X26305Y85820D01*
X26353Y85891D01*
X26369Y85975D01*
X26353Y86059D01*
X26305Y86130D01*
X26242Y86172D01*
X26237Y86225D01*
X26242Y86278D01*
X26305Y86320D01*
X26353Y86391D01*
X26369Y86475D01*
X26353Y86559D01*
X26305Y86630D01*
X26242Y86672D01*
X26237Y86725D01*
X26242Y86778D01*
X26305Y86820D01*
X26353Y86891D01*
X26369Y86975D01*
X26353Y87059D01*
X26305Y87130D01*
X26242Y87172D01*
X26237Y87225D01*
X26242Y87278D01*
X26305Y87320D01*
X26353Y87391D01*
X26369Y87475D01*
X26353Y87559D01*
X26305Y87630D01*
X26242Y87672D01*
X26237Y87725D01*
X26242Y87778D01*
X26305Y87820D01*
X26353Y87891D01*
X26369Y87975D01*
X26353Y88059D01*
X26305Y88130D01*
X26242Y88172D01*
X26237Y88225D01*
X26242Y88278D01*
X26305Y88320D01*
X26353Y88391D01*
X26369Y88475D01*
X26353Y88559D01*
X26305Y88630D01*
X26242Y88672D01*
X26237Y88725D01*
X26242Y88778D01*
X26305Y88820D01*
X26353Y88891D01*
X26369Y88975D01*
X26353Y89059D01*
X26305Y89130D01*
X26242Y89172D01*
X26237Y89225D01*
X26242Y89278D01*
X26305Y89320D01*
X26353Y89391D01*
X26369Y89475D01*
X26353Y89559D01*
X26305Y89630D01*
X26242Y89672D01*
X26237Y89725D01*
X26242Y89778D01*
X26305Y89820D01*
X26347Y89883D01*
X26400Y89888D01*
X26453Y89883D01*
X26495Y89820D01*
X26566Y89772D01*
X26650Y89756D01*
X26734Y89772D01*
X26805Y89820D01*
X26847Y89883D01*
X26900Y89888D01*
X26953Y89883D01*
X26995Y89820D01*
X27066Y89772D01*
X27150Y89756D01*
X27234Y89772D01*
X27305Y89820D01*
X27347Y89883D01*
X27400Y89888D01*
X27453Y89883D01*
X27495Y89820D01*
X27496Y89819D01*
X27489Y89703D01*
X27434Y89666D01*
X27367Y89567D01*
X27344Y89450D01*
X27367Y89333D01*
X27434Y89234D01*
X27444Y89227D01*
X27447Y89125D01*
X27428Y89109D01*
X27314Y89117D01*
X27305Y89130D01*
X27234Y89178D01*
X27150Y89194D01*
X27066Y89178D01*
X26995Y89130D01*
X26947Y89059D01*
X26931Y88975D01*
X26947Y88891D01*
X26995Y88820D01*
X27048Y88785D01*
X27061Y88750D01*
X27063Y88725D01*
X27058Y88672D01*
X26995Y88630D01*
X26947Y88559D01*
X26931Y88475D01*
X26947Y88391D01*
X26995Y88320D01*
X27066Y88272D01*
X27150Y88256D01*
X27234Y88272D01*
X27305Y88320D01*
X27353Y88391D01*
X27357Y88411D01*
X27714Y88768D01*
X27734Y88772D01*
X27805Y88820D01*
X27853Y88891D01*
X27869Y88975D01*
X27853Y89059D01*
X27841Y89076D01*
Y89217D01*
X27866Y89234D01*
X27933Y89333D01*
X27956Y89450D01*
X27933Y89567D01*
X27866Y89666D01*
X27811Y89703D01*
X27804Y89819D01*
X27805Y89820D01*
X27847Y89883D01*
X27900Y89888D01*
X27953Y89883D01*
D02*
G37*
G36*
X14317Y82408D02*
Y80730D01*
X14321Y80719D01*
X14319Y80708D01*
X14321Y80700D01*
X14319Y80692D01*
X14321Y80681D01*
X14317Y80670D01*
Y80492D01*
X14225Y80400D01*
Y79800D01*
X14125Y79700D01*
X13225D01*
X13133Y79792D01*
Y80308D01*
X13225Y80400D01*
X13425D01*
X13520Y80495D01*
X13525Y80494D01*
X13642Y80517D01*
X13741Y80584D01*
X13808Y80683D01*
X13831Y80800D01*
X13808Y80917D01*
X13741Y81016D01*
X13729Y81025D01*
Y81304D01*
X14025Y81600D01*
Y82500D01*
X14225D01*
X14317Y82408D01*
D02*
G37*
G36*
X14625Y81300D02*
X14725Y81200D01*
X14925D01*
X15020Y81105D01*
X15019Y81100D01*
X15042Y80983D01*
X15109Y80884D01*
X15208Y80817D01*
X15325Y80794D01*
X15330Y80795D01*
X15525Y80600D01*
X16025D01*
X16400Y80225D01*
Y79575D01*
X16125Y79300D01*
X14425D01*
Y80400D01*
Y80670D01*
X14431Y80700D01*
X14425Y80730D01*
Y82500D01*
X14625D01*
Y81300D01*
D02*
G37*
G36*
X12624Y81676D02*
X12625Y81676D01*
X12625Y81200D01*
X12525Y81100D01*
X12125Y80700D01*
X11325D01*
X10975Y80350D01*
Y79600D01*
X10825Y79400D01*
X9925D01*
X9825Y79500D01*
Y80300D01*
X11125Y81600D01*
X12005Y81600D01*
X12025Y81592D01*
X12225D01*
X12245Y81600D01*
X12325Y81600D01*
X12415Y81690D01*
X12624Y81676D01*
D02*
G37*
G36*
X29453Y88883D02*
X29495Y88820D01*
X29566Y88772D01*
X29650Y88756D01*
X29734Y88772D01*
X29794Y88813D01*
X30108D01*
X30305Y88615D01*
X30420Y88568D01*
X30431Y88475D01*
X30447Y88391D01*
X30495Y88320D01*
X30558Y88278D01*
X30563Y88225D01*
X30558Y88172D01*
X30495Y88130D01*
X30447Y88059D01*
X30431Y87975D01*
X30447Y87891D01*
X30495Y87820D01*
X30558Y87778D01*
X30563Y87725D01*
X30558Y87672D01*
X30495Y87630D01*
X30447Y87559D01*
X30431Y87475D01*
X30447Y87391D01*
X30495Y87320D01*
X30558Y87278D01*
X30563Y87225D01*
X30558Y87172D01*
X30495Y87130D01*
X30462Y87080D01*
X30373Y87085D01*
X30358Y87091D01*
X30358Y87092D01*
X30291Y87191D01*
X30192Y87258D01*
X30075Y87281D01*
X29958Y87258D01*
X29859Y87191D01*
X29846Y87173D01*
X29748Y87168D01*
X29734Y87178D01*
X29650Y87194D01*
X29566Y87178D01*
X29495Y87130D01*
X29447Y87059D01*
X29444Y87039D01*
X29086Y86682D01*
X29066Y86678D01*
X28995Y86630D01*
X28947Y86559D01*
X28931Y86475D01*
X28947Y86391D01*
X28995Y86320D01*
X29008Y86311D01*
X28969Y86217D01*
X28900Y86231D01*
X28783Y86208D01*
X28684Y86141D01*
X28657Y86101D01*
X28557Y86132D01*
Y87835D01*
X29011Y88289D01*
X29057Y88400D01*
Y88672D01*
X29150Y88756D01*
X29234Y88772D01*
X29305Y88820D01*
X29347Y88883D01*
X29400Y88888D01*
X29453Y88883D01*
D02*
G37*
G36*
X10825Y88700D02*
Y88300D01*
X11325Y87800D01*
X11925D01*
X12225Y87500D01*
Y86700D01*
X12125Y86600D01*
X11825D01*
Y86600D01*
X11150Y86600D01*
X9825Y87925D01*
X9825Y88700D01*
X9925Y88800D01*
X10725D01*
X10825Y88700D01*
D02*
G37*
G36*
X16375Y89900D02*
X16375Y88950D01*
X16225Y88800D01*
X15325D01*
X14525Y88000D01*
X14125Y88000D01*
X14025Y88100D01*
X14025Y88400D01*
X14425Y88800D01*
X14425Y89900D01*
X16375Y89900D01*
D02*
G37*
G36*
X14225Y88800D02*
X13725Y88300D01*
X13425D01*
X13125Y88600D01*
Y89500D01*
X13225Y89600D01*
X14225D01*
Y88800D01*
D02*
G37*
G36*
X13025Y89900D02*
Y89520D01*
X13017Y89500D01*
Y88892D01*
X12625Y88500D01*
Y87800D01*
X12600Y87775D01*
X12425Y87775D01*
X12100Y88100D01*
X11425Y88100D01*
X11025Y88500D01*
Y89900D01*
X11225Y90100D01*
X12825D01*
X13025Y89900D01*
D02*
G37*
G36*
Y79600D02*
X12725Y79300D01*
X11225D01*
X11125Y79400D01*
Y80300D01*
X11417Y80592D01*
X12125D01*
X12145Y80600D01*
X12225D01*
X12825Y81200D01*
X12825Y82500D01*
X13025D01*
Y79600D01*
D02*
G37*
%LPC*%
G36*
X23250Y65356D02*
X23133Y65333D01*
X23034Y65266D01*
X22967Y65167D01*
X22944Y65050D01*
X22967Y64933D01*
X23034Y64834D01*
X23133Y64767D01*
X23250Y64744D01*
X23367Y64767D01*
X23466Y64834D01*
X23533Y64933D01*
X23556Y65050D01*
X23533Y65167D01*
X23466Y65266D01*
X23367Y65333D01*
X23250Y65356D01*
D02*
G37*
G36*
X29650Y88194D02*
X29566Y88178D01*
X29495Y88130D01*
X29447Y88059D01*
X29431Y87975D01*
X29447Y87891D01*
X29495Y87820D01*
X29566Y87772D01*
X29650Y87756D01*
X29734Y87772D01*
X29805Y87820D01*
X29853Y87891D01*
X29869Y87975D01*
X29853Y88059D01*
X29805Y88130D01*
X29734Y88178D01*
X29650Y88194D01*
D02*
G37*
%LPD*%
D10*
X34975Y65075D02*
D03*
X34475D02*
D03*
X33975D02*
D03*
Y66575D02*
D03*
X34475D02*
D03*
X34975D02*
D03*
X33975Y66075D02*
D03*
X34475D02*
D03*
X33975Y65575D02*
D03*
X34475D02*
D03*
X34975D02*
D03*
X33975Y68075D02*
D03*
X34475D02*
D03*
X34975D02*
D03*
X33975Y67575D02*
D03*
X34475D02*
D03*
X33975Y67075D02*
D03*
X34475D02*
D03*
X34975D02*
D03*
X33975Y69575D02*
D03*
X34475D02*
D03*
X34975D02*
D03*
X33975Y69075D02*
D03*
X34475D02*
D03*
X33975Y68575D02*
D03*
X34475D02*
D03*
X34975D02*
D03*
X33975Y71075D02*
D03*
X34475D02*
D03*
X34975D02*
D03*
X33975Y70575D02*
D03*
X34475D02*
D03*
X33975Y70075D02*
D03*
X34475D02*
D03*
X34975D02*
D03*
X27475Y63575D02*
D03*
X27975D02*
D03*
X28975D02*
D03*
X29475D02*
D03*
X31975D02*
D03*
X30975D02*
D03*
X30475D02*
D03*
X34475D02*
D03*
X33975D02*
D03*
X33475D02*
D03*
X32475D02*
D03*
X34975D02*
D03*
X27475Y64075D02*
D03*
X27975D02*
D03*
X28475D02*
D03*
X28975D02*
D03*
X29475D02*
D03*
X31975D02*
D03*
X31475D02*
D03*
X30975D02*
D03*
X30475D02*
D03*
X29975D02*
D03*
X34475D02*
D03*
X33975D02*
D03*
X33475D02*
D03*
X32975D02*
D03*
X32475D02*
D03*
X34975D02*
D03*
Y64575D02*
D03*
X32475D02*
D03*
X32975D02*
D03*
X33475D02*
D03*
X33975D02*
D03*
X34475D02*
D03*
X29975D02*
D03*
X30475D02*
D03*
X30975D02*
D03*
X31475D02*
D03*
X31975D02*
D03*
X29475D02*
D03*
X28975D02*
D03*
X28475D02*
D03*
X27975D02*
D03*
X27475D02*
D03*
X25975Y64075D02*
D03*
X26975Y71075D02*
D03*
X26475D02*
D03*
X25975D02*
D03*
X26975Y63575D02*
D03*
X26475D02*
D03*
X25975D02*
D03*
X26975Y64075D02*
D03*
X26475D02*
D03*
X26975Y64575D02*
D03*
X26475D02*
D03*
X25975D02*
D03*
X26975Y65075D02*
D03*
X26475D02*
D03*
X25975D02*
D03*
X26975Y65575D02*
D03*
X26475D02*
D03*
X33075Y66775D02*
D03*
X32425D02*
D03*
X31775D02*
D03*
X31125D02*
D03*
X30475D02*
D03*
X29825D02*
D03*
X29175D02*
D03*
X28525D02*
D03*
X27875D02*
D03*
X26975Y66075D02*
D03*
X26475D02*
D03*
X25975D02*
D03*
X33075Y67425D02*
D03*
X32425D02*
D03*
X31775D02*
D03*
X31125D02*
D03*
X30475D02*
D03*
X29825D02*
D03*
X29175D02*
D03*
X28525D02*
D03*
X27875D02*
D03*
X26975Y66575D02*
D03*
X26475D02*
D03*
X25975D02*
D03*
X33075Y68075D02*
D03*
X32425D02*
D03*
X31775D02*
D03*
X31125D02*
D03*
X30475D02*
D03*
X29825D02*
D03*
X29175D02*
D03*
X28525D02*
D03*
X27875D02*
D03*
X26975Y67075D02*
D03*
X26475D02*
D03*
X33075Y68725D02*
D03*
X32425D02*
D03*
X31775D02*
D03*
X31125D02*
D03*
X30475D02*
D03*
X29825D02*
D03*
X29175D02*
D03*
X28525D02*
D03*
X27875D02*
D03*
X26975Y67575D02*
D03*
X26475D02*
D03*
X25975D02*
D03*
X33075Y69375D02*
D03*
X32425D02*
D03*
X31775D02*
D03*
X31125D02*
D03*
X30475D02*
D03*
X29825D02*
D03*
X29175D02*
D03*
X28525D02*
D03*
X27875D02*
D03*
X26975Y68075D02*
D03*
X26475D02*
D03*
X25975D02*
D03*
X33075Y70025D02*
D03*
X32425D02*
D03*
X31775D02*
D03*
X31125D02*
D03*
X30475D02*
D03*
X29825D02*
D03*
X29175D02*
D03*
X28525D02*
D03*
X27875D02*
D03*
X26975Y68575D02*
D03*
X26475D02*
D03*
X32425Y70675D02*
D03*
X31775D02*
D03*
X31125D02*
D03*
X30475D02*
D03*
X29825D02*
D03*
X29175D02*
D03*
X28525D02*
D03*
X26975Y69075D02*
D03*
X26475D02*
D03*
X25975D02*
D03*
X26975Y69575D02*
D03*
X26475D02*
D03*
X25975D02*
D03*
X26975Y70075D02*
D03*
X26475D02*
D03*
X26975Y70575D02*
D03*
X26475D02*
D03*
X25975D02*
D03*
X34975Y71575D02*
D03*
X34475D02*
D03*
X33975D02*
D03*
X33475D02*
D03*
X32975D02*
D03*
X32475D02*
D03*
X31975D02*
D03*
X31475D02*
D03*
X30975D02*
D03*
X30475D02*
D03*
X29975D02*
D03*
X29475D02*
D03*
X28975D02*
D03*
X28475D02*
D03*
X27975D02*
D03*
X27475D02*
D03*
X26975D02*
D03*
X26475D02*
D03*
X25975D02*
D03*
X34975Y72075D02*
D03*
X34475D02*
D03*
X33975D02*
D03*
X33475D02*
D03*
X32975D02*
D03*
X32475D02*
D03*
X31975D02*
D03*
X31475D02*
D03*
X30975D02*
D03*
X30475D02*
D03*
X29975D02*
D03*
X29475D02*
D03*
X28975D02*
D03*
X28475D02*
D03*
X27975D02*
D03*
X27475D02*
D03*
X26975D02*
D03*
X26475D02*
D03*
X25975D02*
D03*
X34975Y72575D02*
D03*
X34475D02*
D03*
X33975D02*
D03*
X33475D02*
D03*
X32975D02*
D03*
X31975D02*
D03*
X31475D02*
D03*
X30475D02*
D03*
X29975D02*
D03*
X28975D02*
D03*
X28475D02*
D03*
X27475D02*
D03*
X26975D02*
D03*
X26475D02*
D03*
X25975D02*
D03*
X27875Y70675D02*
D03*
X33075D02*
D03*
X27875Y66125D02*
D03*
X28525D02*
D03*
X29175D02*
D03*
X29825D02*
D03*
X30475D02*
D03*
X31125D02*
D03*
X31775D02*
D03*
X32425D02*
D03*
X33075D02*
D03*
X27875Y65475D02*
D03*
X28525D02*
D03*
X29175D02*
D03*
X29825D02*
D03*
X30475D02*
D03*
X31125D02*
D03*
X31775D02*
D03*
X32425D02*
D03*
X33075D02*
D03*
X31650Y84475D02*
D03*
X31150D02*
D03*
X30650D02*
D03*
X30150D02*
D03*
X29650D02*
D03*
X29150D02*
D03*
X28650D02*
D03*
X28150D02*
D03*
X27650D02*
D03*
X27150D02*
D03*
X26650D02*
D03*
X26150D02*
D03*
X25650D02*
D03*
X25150D02*
D03*
X31650Y84975D02*
D03*
X31150D02*
D03*
X30650D02*
D03*
X30150D02*
D03*
X29650D02*
D03*
X29150D02*
D03*
X28650D02*
D03*
X28150D02*
D03*
X27650D02*
D03*
X27150D02*
D03*
X26650D02*
D03*
X26150D02*
D03*
X25650D02*
D03*
X25150D02*
D03*
X31650Y85475D02*
D03*
X31150D02*
D03*
X30650D02*
D03*
X30150D02*
D03*
X29650D02*
D03*
X29150D02*
D03*
X28650D02*
D03*
X28150D02*
D03*
X27650D02*
D03*
X27150D02*
D03*
X26650D02*
D03*
X26150D02*
D03*
X25650D02*
D03*
X25150D02*
D03*
X31650Y85975D02*
D03*
X31150D02*
D03*
X30650D02*
D03*
X30150D02*
D03*
X26150D02*
D03*
X25650D02*
D03*
X25150D02*
D03*
X31650Y86475D02*
D03*
X31150D02*
D03*
X30650D02*
D03*
X29650D02*
D03*
X29150D02*
D03*
X28650D02*
D03*
X28150D02*
D03*
X27650D02*
D03*
X27150D02*
D03*
X26150D02*
D03*
X25650D02*
D03*
X25150D02*
D03*
X31650Y86975D02*
D03*
X31150D02*
D03*
X30650D02*
D03*
X29650D02*
D03*
X27150D02*
D03*
X26150D02*
D03*
X25650D02*
D03*
X25150D02*
D03*
X31650Y87475D02*
D03*
X31150D02*
D03*
X30650D02*
D03*
X29650D02*
D03*
X27150D02*
D03*
X26150D02*
D03*
X25650D02*
D03*
X25150D02*
D03*
X31650Y87975D02*
D03*
X31150D02*
D03*
X30650D02*
D03*
X29650D02*
D03*
X27150D02*
D03*
X26150D02*
D03*
X25650D02*
D03*
X25150D02*
D03*
X31650Y88475D02*
D03*
X31150D02*
D03*
X30650D02*
D03*
X29650D02*
D03*
X27150D02*
D03*
X26150D02*
D03*
X25650D02*
D03*
X25150D02*
D03*
X31650Y88975D02*
D03*
X31150D02*
D03*
X30650D02*
D03*
X29650D02*
D03*
X29150D02*
D03*
X28650D02*
D03*
X28150D02*
D03*
X27650D02*
D03*
X27150D02*
D03*
X26150D02*
D03*
X25650D02*
D03*
X25150D02*
D03*
X31650Y89475D02*
D03*
X31150D02*
D03*
X30650D02*
D03*
X26150D02*
D03*
X25650D02*
D03*
X25150D02*
D03*
X31650Y89975D02*
D03*
X31150D02*
D03*
X30650D02*
D03*
X30150D02*
D03*
X29650D02*
D03*
X29150D02*
D03*
X28650D02*
D03*
X28150D02*
D03*
X27650D02*
D03*
X27150D02*
D03*
X26650D02*
D03*
X26150D02*
D03*
X25650D02*
D03*
X25150D02*
D03*
X31650Y90475D02*
D03*
X31150D02*
D03*
X30650D02*
D03*
X30150D02*
D03*
X29650D02*
D03*
X29150D02*
D03*
X28650D02*
D03*
X28150D02*
D03*
X27650D02*
D03*
X27150D02*
D03*
X26650D02*
D03*
X26150D02*
D03*
X25650D02*
D03*
X25150D02*
D03*
X31650Y90975D02*
D03*
X31150D02*
D03*
X30650D02*
D03*
X30150D02*
D03*
X29650D02*
D03*
X29150D02*
D03*
X28650D02*
D03*
X28150D02*
D03*
X27650D02*
D03*
X27150D02*
D03*
X26650D02*
D03*
X26150D02*
D03*
X25650D02*
D03*
X25150D02*
D03*
D11*
X20175Y84275D02*
D03*
X19275D02*
D03*
X19775Y82400D02*
D03*
X20675D02*
D03*
X8075Y82600D02*
D03*
X8975D02*
D03*
X8075Y83500D02*
D03*
X8975D02*
D03*
X1775Y92950D02*
D03*
X2675D02*
D03*
X34975Y85725D02*
D03*
X35875D02*
D03*
X48950Y61100D02*
D03*
X48050D02*
D03*
X33450Y59875D02*
D03*
X34350D02*
D03*
X34375Y57100D02*
D03*
X33475D02*
D03*
X59250Y56000D02*
D03*
X60150D02*
D03*
X34025Y80000D02*
D03*
X33125D02*
D03*
X59250D02*
D03*
X60150D02*
D03*
X58600Y61025D02*
D03*
X59500D02*
D03*
X50640Y61100D02*
D03*
X49740D02*
D03*
X51410D02*
D03*
X52310D02*
D03*
D12*
X15925Y77100D02*
D03*
X14525D02*
D03*
X11425D02*
D03*
X12825D02*
D03*
X12625Y92125D02*
D03*
X11225D02*
D03*
X14525D02*
D03*
X15925D02*
D03*
X35050Y84625D02*
D03*
X36450D02*
D03*
X58675Y59950D02*
D03*
X60075D02*
D03*
D13*
X15500Y79900D02*
D03*
Y78300D02*
D03*
X12050Y79900D02*
D03*
Y78300D02*
D03*
X12025Y89400D02*
D03*
Y91000D02*
D03*
X15475Y89400D02*
D03*
Y91000D02*
D03*
D14*
X13775Y80000D02*
D03*
Y78600D02*
D03*
X10325Y79800D02*
D03*
Y78400D02*
D03*
X10300Y88200D02*
D03*
Y89600D02*
D03*
X13750Y89300D02*
D03*
Y90700D02*
D03*
X9025Y88200D02*
D03*
Y89600D02*
D03*
D15*
X8425Y78950D02*
D03*
Y79850D02*
D03*
X19525Y85950D02*
D03*
Y85050D02*
D03*
D16*
X6050Y96000D02*
D03*
Y94500D02*
D03*
X1600Y96000D02*
D03*
Y94500D02*
D03*
D17*
X35025Y89625D02*
D03*
Y88725D02*
D03*
X19900Y80700D02*
D03*
Y81600D02*
D03*
X21175Y74100D02*
D03*
Y75000D02*
D03*
X39975Y69425D02*
D03*
Y68525D02*
D03*
X53260Y61075D02*
D03*
Y60175D02*
D03*
D18*
X60250Y69425D02*
D03*
Y68625D02*
D03*
Y67825D02*
D03*
Y64625D02*
D03*
Y63825D02*
D03*
Y63025D02*
D03*
X59450Y69425D02*
D03*
Y68625D02*
D03*
Y67825D02*
D03*
Y64625D02*
D03*
Y63825D02*
D03*
Y63025D02*
D03*
X58650Y69425D02*
D03*
Y68625D02*
D03*
Y67825D02*
D03*
Y64625D02*
D03*
Y63825D02*
D03*
Y63025D02*
D03*
X57850Y69425D02*
D03*
Y68625D02*
D03*
Y67825D02*
D03*
Y64625D02*
D03*
Y63825D02*
D03*
Y63025D02*
D03*
X57050Y69425D02*
D03*
Y68625D02*
D03*
Y67825D02*
D03*
Y64625D02*
D03*
Y63825D02*
D03*
Y63025D02*
D03*
X56250Y69425D02*
D03*
Y68625D02*
D03*
Y67825D02*
D03*
Y64625D02*
D03*
Y63825D02*
D03*
Y63025D02*
D03*
X55450Y69425D02*
D03*
Y68625D02*
D03*
Y67825D02*
D03*
Y64625D02*
D03*
Y63825D02*
D03*
Y63025D02*
D03*
X54650Y69425D02*
D03*
Y68625D02*
D03*
Y67825D02*
D03*
Y64625D02*
D03*
Y63825D02*
D03*
Y63025D02*
D03*
X53850Y69425D02*
D03*
Y68625D02*
D03*
Y67825D02*
D03*
Y64625D02*
D03*
Y63825D02*
D03*
Y63025D02*
D03*
X53050Y69425D02*
D03*
Y68625D02*
D03*
Y67825D02*
D03*
Y64625D02*
D03*
Y63825D02*
D03*
Y63025D02*
D03*
X52250Y69425D02*
D03*
Y68625D02*
D03*
Y67825D02*
D03*
Y64625D02*
D03*
Y63825D02*
D03*
Y63025D02*
D03*
X51450Y69425D02*
D03*
Y68625D02*
D03*
Y67825D02*
D03*
Y64625D02*
D03*
Y63825D02*
D03*
Y63025D02*
D03*
X50650Y69425D02*
D03*
Y68625D02*
D03*
Y67825D02*
D03*
Y64625D02*
D03*
Y63825D02*
D03*
Y63025D02*
D03*
X49850Y69425D02*
D03*
Y68625D02*
D03*
Y67825D02*
D03*
Y64625D02*
D03*
Y63825D02*
D03*
Y63025D02*
D03*
X49050Y69425D02*
D03*
Y68625D02*
D03*
Y67825D02*
D03*
Y64625D02*
D03*
Y63825D02*
D03*
Y63025D02*
D03*
X48250Y69425D02*
D03*
Y68625D02*
D03*
Y67825D02*
D03*
Y64625D02*
D03*
Y63825D02*
D03*
Y63025D02*
D03*
X30175Y68400D02*
D03*
X31475Y69050D02*
D03*
Y70350D02*
D03*
X14925Y87800D02*
D03*
X16550Y91700D02*
D03*
Y92200D02*
D03*
X12650Y92975D02*
D03*
X13275Y92375D02*
D03*
X9050Y87575D02*
D03*
X13675Y76750D02*
D03*
X20750Y84275D02*
D03*
X20675Y81725D02*
D03*
X8425Y78375D02*
D03*
X13675Y77300D02*
D03*
X15325Y81100D02*
D03*
X18625Y84300D02*
D03*
X18275Y85550D02*
D03*
X13025Y88100D02*
D03*
X8425Y80400D02*
D03*
X10425Y80600D02*
D03*
X10325Y77750D02*
D03*
X19125Y82400D02*
D03*
X14125Y80700D02*
D03*
X9525Y82600D02*
D03*
Y83500D02*
D03*
X7425D02*
D03*
Y82600D02*
D03*
X13525Y80800D02*
D03*
X12125Y77100D02*
D03*
X13525Y88600D02*
D03*
X13375Y91375D02*
D03*
X13975D02*
D03*
X13875Y92125D02*
D03*
X9025Y90250D02*
D03*
X10325D02*
D03*
X10825Y87400D02*
D03*
X10575Y91625D02*
D03*
Y92375D02*
D03*
X13425Y77900D02*
D03*
X13925D02*
D03*
X20175Y85950D02*
D03*
X16050Y83350D02*
D03*
Y84575D02*
D03*
Y85750D02*
D03*
X14300Y83350D02*
D03*
Y84575D02*
D03*
Y85750D02*
D03*
X12600Y83350D02*
D03*
X12575Y84550D02*
D03*
X12600Y85750D02*
D03*
X28400Y76800D02*
D03*
X31850Y83450D02*
D03*
X29050Y83925D02*
D03*
X28675Y91475D02*
D03*
X22000Y86800D02*
D03*
Y84300D02*
D03*
X23250Y65050D02*
D03*
X24600Y67175D02*
D03*
X31975Y71150D02*
D03*
X21175Y73425D02*
D03*
X82750Y4725D02*
D03*
X33550Y70225D02*
D03*
X31450Y69700D02*
D03*
X49850Y76450D02*
D03*
X40075Y71425D02*
D03*
X36700Y65425D02*
D03*
X36300Y65725D02*
D03*
X38125Y65450D02*
D03*
X36600Y67550D02*
D03*
X39125Y67025D02*
D03*
X37400Y65500D02*
D03*
X38800Y70875D02*
D03*
X48650Y62350D02*
D03*
X38975Y66150D02*
D03*
X47750Y64625D02*
D03*
X51850Y64225D02*
D03*
X60000Y69900D02*
D03*
X35250Y72875D02*
D03*
X59250Y69925D02*
D03*
X58525D02*
D03*
X57775D02*
D03*
X54650Y69925D02*
D03*
X49050Y60400D02*
D03*
X53275Y59600D02*
D03*
X59350Y61695D02*
D03*
X58660D02*
D03*
X51875Y61850D02*
D03*
X52650Y64225D02*
D03*
X50250Y64225D02*
D03*
X51050D02*
D03*
X53850Y67325D02*
D03*
X50250Y68225D02*
D03*
Y69025D02*
D03*
X48650D02*
D03*
X47725Y68900D02*
D03*
X47875Y62350D02*
D03*
X49850Y69925D02*
D03*
X50650D02*
D03*
X55450Y62525D02*
D03*
X53450Y63425D02*
D03*
X49055Y69925D02*
D03*
X47500Y64150D02*
D03*
X55450Y69925D02*
D03*
X56250D02*
D03*
X55050Y65025D02*
D03*
X57025Y69925D02*
D03*
X49450Y69025D02*
D03*
X57450Y63425D02*
D03*
X51450Y69925D02*
D03*
X56250Y62525D02*
D03*
X59050Y68225D02*
D03*
X49850Y61950D02*
D03*
X49050Y61700D02*
D03*
X59850Y67425D02*
D03*
X54250Y64225D02*
D03*
X48250Y61700D02*
D03*
X49450Y62350D02*
D03*
X52650Y62725D02*
D03*
X50650Y61950D02*
D03*
X50250Y62675D02*
D03*
X54650Y62525D02*
D03*
X57450Y62625D02*
D03*
X52650Y68225D02*
D03*
X52550Y67325D02*
D03*
X52650Y69025D02*
D03*
X51850Y68225D02*
D03*
Y69025D02*
D03*
X51050Y68225D02*
D03*
Y69025D02*
D03*
X28850Y67100D02*
D03*
Y69050D02*
D03*
X28200Y65750D02*
D03*
X28950Y65025D02*
D03*
X30150Y70350D02*
D03*
X30175Y69700D02*
D03*
X32475Y65000D02*
D03*
X31975D02*
D03*
X31475D02*
D03*
X33550Y65500D02*
D03*
Y66000D02*
D03*
Y66500D02*
D03*
X31475Y68400D02*
D03*
X33550Y68025D02*
D03*
Y67525D02*
D03*
Y69725D02*
D03*
X32150Y69700D02*
D03*
X33375Y67025D02*
D03*
X28450Y65000D02*
D03*
X27400D02*
D03*
Y66400D02*
D03*
X31500Y70950D02*
D03*
X31475Y67100D02*
D03*
X27400Y66900D02*
D03*
X27950Y65000D02*
D03*
X28850Y65800D02*
D03*
X33550Y69225D02*
D03*
X53450Y69025D02*
D03*
Y68225D02*
D03*
X60825Y64100D02*
D03*
X40150Y70875D02*
D03*
X40025Y70125D02*
D03*
X38200Y68350D02*
D03*
X39650Y67075D02*
D03*
X38475Y66150D02*
D03*
X35200Y63200D02*
D03*
X35600Y65475D02*
D03*
X39475Y66150D02*
D03*
X37600Y68425D02*
D03*
X53200Y67320D02*
D03*
X47725Y76300D02*
D03*
X33550Y65000D02*
D03*
X30200Y65025D02*
D03*
X30175Y65800D02*
D03*
X31475Y66450D02*
D03*
X47750Y69925D02*
D03*
X38025Y70650D02*
D03*
X37550Y70875D02*
D03*
X39275Y69300D02*
D03*
X39325Y71425D02*
D03*
X38850Y68950D02*
D03*
X53450Y64225D02*
D03*
X36600Y68050D02*
D03*
X53450Y65025D02*
D03*
X38375Y71425D02*
D03*
X33825Y79400D02*
D03*
X33325D02*
D03*
X33625Y56525D02*
D03*
X59425Y79400D02*
D03*
X59925D02*
D03*
X59450Y56600D02*
D03*
X59950D02*
D03*
X30175Y69050D02*
D03*
Y67750D02*
D03*
Y67100D02*
D03*
X28850Y66450D02*
D03*
X30175D02*
D03*
X28850Y67750D02*
D03*
X27400Y71150D02*
D03*
X28200Y70350D02*
D03*
X31475Y67750D02*
D03*
X28850Y68400D02*
D03*
X31975Y62600D02*
D03*
X25150Y69575D02*
D03*
X25575Y72675D02*
D03*
X25675Y63300D02*
D03*
X28000Y62375D02*
D03*
X33550Y68725D02*
D03*
X35825Y68175D02*
D03*
X29500Y70350D02*
D03*
X28850D02*
D03*
X27350Y69900D02*
D03*
X27900Y71150D02*
D03*
X33775Y60575D02*
D03*
X27475Y65500D02*
D03*
X29800Y71150D02*
D03*
X28400D02*
D03*
X30300D02*
D03*
X27500Y67400D02*
D03*
X27400Y67900D02*
D03*
X27350Y69400D02*
D03*
X27600Y68400D02*
D03*
X27400Y68900D02*
D03*
X28200Y69650D02*
D03*
X29300Y71150D02*
D03*
X34125Y56500D02*
D03*
X32975Y65000D02*
D03*
X31200Y60975D02*
D03*
X32725Y61375D02*
D03*
X32775Y67100D02*
D03*
X32475Y71050D02*
D03*
X33200Y71150D02*
D03*
X33550Y70725D02*
D03*
X32775Y69675D02*
D03*
Y68400D02*
D03*
X33125Y81100D02*
D03*
X27650Y89450D02*
D03*
X30075Y88475D02*
D03*
X27750Y88425D02*
D03*
X30150Y91450D02*
D03*
X29675Y85925D02*
D03*
X28900D02*
D03*
X36500Y85650D02*
D03*
X30075Y86975D02*
D03*
X28900D02*
D03*
X21500Y84300D02*
D03*
X21500Y87800D02*
D03*
X30000Y89575D02*
D03*
X48250Y69925D02*
D03*
X29400Y83450D02*
D03*
X28525Y73250D02*
D03*
X29750Y75475D02*
D03*
X30200Y77025D02*
D03*
X27900Y74375D02*
D03*
X28875Y74000D02*
D03*
X16600Y77350D02*
D03*
Y76800D02*
D03*
X16150Y75300D02*
D03*
X18350Y75925D02*
D03*
X18125Y83325D02*
D03*
X19300Y67875D02*
D03*
X28850Y69650D02*
D03*
X37000Y82950D02*
D03*
D19*
X19600Y75950D02*
D03*
X20500D02*
D03*
X38225Y67700D02*
D03*
X37325D02*
D03*
X49750Y60150D02*
D03*
X50650D02*
D03*
X48400Y76450D02*
D03*
X49300D02*
D03*
X51425Y60150D02*
D03*
X52325D02*
D03*
X40100Y67675D02*
D03*
X39200D02*
D03*
X34375Y58000D02*
D03*
X33475D02*
D03*
Y58975D02*
D03*
X34375D02*
D03*
D20*
X16525Y82100D02*
D03*
X12125Y87000D02*
D03*
X14525D02*
D03*
X14925D02*
D03*
X15325D02*
D03*
X15725D02*
D03*
X16125D02*
D03*
X14125D02*
D03*
X13725D02*
D03*
X13325D02*
D03*
X12925D02*
D03*
X12525D02*
D03*
X12125Y82100D02*
D03*
X12525D02*
D03*
X12925D02*
D03*
X13325D02*
D03*
X13725D02*
D03*
X16125D02*
D03*
X15725D02*
D03*
X15325D02*
D03*
X14925D02*
D03*
X14525D02*
D03*
X14125D02*
D03*
X16525Y87000D02*
D03*
D21*
X14325Y84550D02*
D03*
D22*
X17275Y84350D02*
D03*
Y83950D02*
D03*
Y83550D02*
D03*
Y83150D02*
D03*
Y82750D02*
D03*
Y84750D02*
D03*
Y85150D02*
D03*
Y85550D02*
D03*
Y85950D02*
D03*
Y86350D02*
D03*
X11375D02*
D03*
Y85950D02*
D03*
Y85550D02*
D03*
Y85150D02*
D03*
Y82750D02*
D03*
Y83150D02*
D03*
Y83550D02*
D03*
Y83950D02*
D03*
Y84350D02*
D03*
Y84750D02*
D03*
D23*
X29225Y70625D02*
X29225Y70625D01*
X28888Y70287D02*
X28900Y70300D01*
X29800Y70650D02*
X29825Y70625D01*
X29300Y71150D02*
X29800Y70650D01*
X16525Y87350D02*
X20725D01*
X33575Y66025D02*
X33575Y66025D01*
X33525Y66075D02*
X33575Y66025D01*
X39950Y68400D02*
X40025Y68475D01*
X34475Y68580D02*
X34634D01*
X34470D02*
X34475D01*
X33125Y68025D02*
X33145Y68045D01*
X34475Y69080D02*
X34600D01*
X34470D02*
X34475D01*
Y64080D02*
X34624D01*
X34470D02*
X34475D01*
X33970Y71580D02*
X34220Y71830D01*
X33970Y64075D02*
Y64080D01*
Y63926D02*
Y64075D01*
X33975Y64575D02*
X34220Y64330D01*
X33970Y64580D02*
X33975Y64575D01*
X34475Y65075D02*
X34480Y65070D01*
X34470Y65080D02*
X34475Y65075D01*
X34470Y63575D02*
X34470Y63575D01*
X34975Y65080D02*
X35200D01*
X34970D02*
X34975D01*
X33975Y72080D02*
X34115D01*
X33970D02*
X33975D01*
X34975Y71580D02*
X35980D01*
X34960D02*
X34975D01*
X34970Y71080D02*
X34990Y71100D01*
X34475Y71080D02*
X34614D01*
X34470D02*
X34475D01*
X33528Y72128D02*
X33550Y72106D01*
X33520Y72136D02*
X33528Y72128D01*
X33475Y72080D02*
X33550D01*
X33470D02*
X33475D01*
X34475Y71575D02*
X34720Y71330D01*
X34470Y71580D02*
X34475Y71575D01*
X33970Y67580D02*
X34220Y67830D01*
X33975Y66080D02*
X34116D01*
X33950D02*
X33975D01*
X34975Y68580D02*
X35405D01*
X34970D02*
X34975D01*
X40125Y70825D02*
Y70875D01*
X34975Y69580D02*
X35180D01*
X34960D02*
X34975D01*
X33965Y70585D02*
X34205Y70825D01*
X33960Y70580D02*
X33965Y70585D01*
X34475Y67080D02*
X34624D01*
X34470D02*
X34475D01*
X34975Y66575D02*
X35050Y66500D01*
X34970Y66580D02*
X34975Y66575D01*
X33975Y67080D02*
X34116D01*
X33970D02*
X33975D01*
X34475Y70580D02*
X34633D01*
X34460D02*
X34475D01*
X33125Y66725D02*
Y66775D01*
X34995Y70095D02*
X35015Y70075D01*
X34990Y70100D02*
X34995Y70095D01*
X38370Y70507D02*
Y71425D01*
X33965Y70085D02*
X34200Y70320D01*
X33960Y70080D02*
X33965Y70085D01*
X34465Y69585D02*
X34705Y69825D01*
X34460Y69580D02*
X34465Y69585D01*
X31500Y65000D02*
Y65100D01*
X27925Y68675D02*
X27925Y68675D01*
X27650Y68400D02*
X27925Y68675D01*
X28525Y67375D02*
X28575D01*
X27875D02*
X28525D01*
X27500D02*
X27875D01*
X38213Y67688D02*
X38225Y67675D01*
X38200Y67700D02*
X38213Y67688D01*
X34090Y66830D02*
X34340Y66580D01*
X26725Y66325D02*
X26975Y66575D01*
X26050Y66990D02*
X26390D01*
X31450Y69700D02*
X31525Y69625D01*
Y69625D02*
Y69625D01*
X34470Y63575D02*
Y63575D01*
X26980Y71075D02*
X27055Y71150D01*
X30300Y70850D02*
X30475Y70675D01*
X29475Y71575D02*
X29800Y71250D01*
X33075Y68075D02*
X33370Y68370D01*
X33975Y68575D02*
X34220Y68820D01*
X34975Y67075D02*
X35075D01*
X34475Y65575D02*
X34725Y65325D01*
X33975Y65075D02*
X34222Y65322D01*
X33075Y70675D02*
X33500D01*
X34975Y64575D02*
X35150D01*
X34475Y67575D02*
X34560Y67490D01*
X29475Y72075D02*
X29560Y72160D01*
X32475Y64575D02*
X32720Y64330D01*
X33975Y69075D02*
X34230Y69330D01*
X33075Y69375D02*
X33225Y69225D01*
X31975Y64421D02*
Y64575D01*
X34470Y63575D02*
X34470Y63525D01*
X33975Y65425D02*
Y65575D01*
X30475Y71575D02*
X30720Y71820D01*
X26390Y66990D02*
X26475Y67075D01*
X26975D02*
X27200D01*
X35015Y70075D02*
X38240D01*
X34990Y71100D02*
X36700D01*
X34475Y68075D02*
X34625D01*
X34480Y65070D02*
X34625D01*
X29825Y70625D02*
X29875D01*
Y70645D01*
X30200Y66400D02*
Y66400D01*
X28575Y69975D02*
X28850Y69700D01*
X34470Y66080D02*
X34475Y66075D01*
X26975Y67050D02*
Y67075D01*
X32425Y70675D02*
Y71000D01*
X33970Y63575D02*
X33970Y63580D01*
X33970Y63575D02*
X33970Y63575D01*
X28975Y72075D02*
Y72200D01*
X27975Y72075D02*
Y72125D01*
X28475Y72075D02*
Y72280D01*
X33475Y71575D02*
Y71725D01*
X31500Y70950D02*
Y70950D01*
X32425Y71000D02*
X32475Y71050D01*
X33125Y66775D02*
X33375Y67025D01*
X33225Y69225D02*
X33550D01*
X33500Y70675D02*
X33550Y70725D01*
X33370Y68370D02*
X33693D01*
X27925Y68650D02*
Y68675D01*
X28965Y71575D02*
X28975D01*
X34470Y63525D02*
X34470Y63525D01*
X34470Y63525D01*
X34340Y66580D02*
X34470D01*
X34470Y63525D02*
X34476Y62794D01*
X33520Y72136D02*
X33661D01*
X35075Y67075D02*
X35300Y66850D01*
X25525Y70575D02*
X25975D01*
X27055Y71150D02*
X27400D01*
X27225Y72325D02*
Y72950D01*
X25625Y71325D02*
X26225D01*
X26475Y72575D02*
Y72750D01*
X26725Y72325D02*
Y72825D01*
X25500Y72075D02*
X25975D01*
X25630Y71820D02*
X26080D01*
X15300Y87025D02*
X15325Y87000D01*
X22400Y68675D02*
X24750Y66325D01*
X28400Y87900D02*
X28900Y88400D01*
X28400Y83925D02*
Y87900D01*
X28551Y90215D02*
X29410D01*
X29650Y89975D01*
X30720Y71820D02*
Y74020D01*
X30650Y84965D02*
Y84975D01*
X29650Y84965D02*
Y84975D01*
X28925Y74715D02*
X29220Y74420D01*
X29390Y72336D02*
Y74710D01*
X29220Y72445D02*
Y74420D01*
X28975Y72200D02*
X29220Y72445D01*
X28900Y84325D02*
Y85064D01*
X29061Y85225D01*
X27960Y73412D02*
Y74315D01*
X28060Y72340D02*
Y72615D01*
X28374Y72330D02*
X28425D01*
X28230Y72474D02*
X28374Y72330D01*
X28425D02*
X28475Y72280D01*
X28060Y72340D02*
Y72350D01*
Y72340D02*
X28220Y72180D01*
X27890Y72210D02*
X27975Y72125D01*
X29725Y71825D02*
X29975Y71575D01*
X29355Y71825D02*
X29725D01*
X28900Y88400D02*
Y89725D01*
X29150Y89975D01*
X29400Y83450D02*
Y84725D01*
X29061Y85225D02*
X30900D01*
X29800Y71150D02*
Y71250D01*
X29230Y71950D02*
Y72176D01*
Y71950D02*
X29355Y71825D01*
X29230Y72176D02*
X29390Y72336D01*
X30350Y89225D02*
X32150D01*
X30000Y89575D02*
X30350Y89225D01*
X24750Y66325D02*
X26725D01*
X23625Y70825D02*
X26225D01*
X23000Y71450D02*
X23625Y70825D01*
X31575Y61900D02*
Y63762D01*
X33230Y71970D02*
X33475Y71725D01*
X34076Y72320D02*
X34078Y72318D01*
X33845Y72320D02*
X34076D01*
X33661Y72136D02*
X33845Y72320D01*
X34078Y72318D02*
X34225Y72465D01*
X33384Y72330D02*
X33576D01*
X33550Y72080D02*
Y72106D01*
X47775Y76325D02*
X47900Y76450D01*
X48400D01*
X34633Y70580D02*
X34723Y70490D01*
X34614Y71080D02*
X34864Y70830D01*
X34624Y64080D02*
X34879Y63825D01*
X34624Y67080D02*
X34884Y66820D01*
X35050Y66500D02*
X36550D01*
X34560Y67490D02*
X35285D01*
X39750Y71100D02*
X40075Y71425D01*
X39750Y70950D02*
Y71100D01*
X35743Y65820D02*
X35945Y65618D01*
X34364Y65820D02*
X35743D01*
X52700Y62725D02*
X53000Y63025D01*
X52650Y62725D02*
X52700D01*
X37075Y65825D02*
X37400Y65500D01*
X36700Y65825D02*
X37075D01*
X37500Y66075D02*
X38112Y65463D01*
X38031Y65556D02*
X38088Y65500D01*
X34222Y65678D02*
X34364Y65820D01*
X35080Y66820D02*
X35225Y66675D01*
X34884Y66820D02*
X35080D01*
X35325Y69725D02*
X38525D01*
X35180Y69580D02*
X35325Y69725D01*
X38525D02*
X39750Y70950D01*
X36046Y67890D02*
X36440D01*
X35405Y68580D02*
X35545Y68720D01*
X35096Y70300D02*
X37865D01*
X35076Y70320D02*
X35096Y70300D01*
X34200Y70320D02*
X35076D01*
X35250Y70925D02*
X37075D01*
X35155Y70830D02*
X35250Y70925D01*
X34864Y70830D02*
X35155D01*
X34220Y71830D02*
X35630D01*
X38725Y67200D02*
X38812Y67287D01*
X38900Y67675D02*
X39200D01*
X38812Y67588D02*
X38900Y67675D01*
X38812Y67287D02*
Y67588D01*
X38825Y67025D02*
X39125D01*
X38775Y66975D02*
X38825Y67025D01*
X37400Y66975D02*
X38775D01*
X38675Y66725D02*
X38975Y66425D01*
X37225Y66725D02*
X38675D01*
X37100Y66850D02*
X37225Y66725D01*
X37350Y67025D02*
X37400Y66975D01*
X38125Y66500D02*
X38475Y66150D01*
X37075Y66500D02*
X38125D01*
X36925Y66275D02*
X37813D01*
X36700Y66500D02*
X36925Y66275D01*
X39650Y67075D02*
X40000D01*
X36450Y67700D02*
X36600Y67550D01*
X36555Y66500D02*
X36700D01*
X37813Y66275D02*
X38288Y65800D01*
X34222Y65322D02*
Y65678D01*
X39175Y65800D02*
X39450Y66075D01*
X38288Y65800D02*
X39175D01*
X39450Y66075D02*
Y66125D01*
X38975Y66150D02*
Y66425D01*
X37575Y65075D02*
X37675Y64975D01*
X38475Y66150D02*
X38500Y66125D01*
X36440Y67890D02*
X36600Y68050D01*
X37875Y70300D02*
X38163D01*
X33550Y65000D02*
X33975Y65425D01*
X35405Y64875D02*
X36975D01*
X36350Y64675D02*
X36650Y64375D01*
X34730Y72480D02*
Y72843D01*
X34580Y72330D02*
X34730Y72480D01*
X34365Y72330D02*
X34580D01*
X34730Y72843D02*
X35112Y73225D01*
X34225Y73200D02*
X34300Y73275D01*
X34225Y72465D02*
Y73200D01*
X33970Y68580D02*
X33975Y68575D01*
X34115Y72080D02*
X34365Y72330D01*
X35112Y73225D02*
X35500D01*
X35100Y73625D02*
X35325D01*
X34470Y72995D02*
X35100Y73625D01*
X34470Y72580D02*
Y72995D01*
X33720Y66975D02*
Y67190D01*
Y66975D02*
X33865Y66830D01*
X33970Y63575D02*
Y63575D01*
X34470Y66080D02*
Y66080D01*
X35850Y62875D02*
Y63075D01*
X34970Y64580D02*
X34975Y64575D01*
X34879Y63825D02*
X35100D01*
X35850Y63075D01*
X35950Y64475D02*
X36275Y64150D01*
X35200Y65080D02*
X35405Y64875D01*
X36975D02*
X36975Y64875D01*
X33720Y67190D02*
X33850Y67320D01*
X38088Y65500D02*
X38100D01*
X33865Y66830D02*
X34090D01*
X34600Y69080D02*
X34680Y69160D01*
X33693Y68370D02*
X33738Y68325D01*
X38700Y68400D02*
X39950D01*
X37400Y70725D02*
X37550Y70875D01*
X37865Y70490D02*
X38025Y70650D01*
X39850Y69300D02*
X39975Y69425D01*
X39275Y69300D02*
X39850D01*
X37355Y68720D02*
X37600Y68475D01*
Y68425D02*
Y68475D01*
X38200Y67700D02*
Y68350D01*
X40100Y67175D02*
Y67675D01*
X40000Y67075D02*
X40100Y67175D01*
X36035Y65990D02*
X36300Y65725D01*
X36655Y65380D02*
X36700Y65425D01*
X35945Y65480D02*
Y65618D01*
Y65480D02*
X36045Y65380D01*
X36655D01*
X33850Y67320D02*
X34576D01*
X34621Y67275D01*
X34829D01*
X34874Y67320D01*
X35076D01*
X35371Y67025D01*
X35225Y66675D02*
X36900D01*
X37075Y66500D01*
X35300Y66850D02*
X37100D01*
X35371Y67025D02*
X37350D01*
X37300Y67825D02*
Y68125D01*
X36150Y68425D02*
X37000D01*
X37300Y68125D01*
X34634Y68580D02*
X34874Y68820D01*
X35405D01*
X35510Y68925D01*
X38175D01*
X38700Y68400D01*
X34680Y69160D02*
X35260D01*
X35425Y69325D01*
X38800D01*
X34205Y70825D02*
X34628D01*
X34793Y70660D01*
X35385D01*
X35450Y70725D01*
X34723Y70490D02*
X37865D01*
X39325Y70850D02*
Y71425D01*
X39700Y70400D02*
X40125Y70825D01*
X39600Y70125D02*
X40025D01*
X38800Y69325D02*
X39600Y70125D01*
X38240Y70075D02*
X38800Y70635D01*
X35545Y68720D02*
X37355D01*
X35650Y68525D02*
X36050D01*
X36150Y68425D01*
X34220Y68820D02*
X34633D01*
X34803Y68990D01*
X35334D01*
X35469Y69125D01*
X38675D01*
X38850Y68950D01*
X34230Y69330D02*
X35170D01*
X35365Y69525D01*
X38650D01*
X39525Y70400D01*
X39700D01*
X34705Y69825D02*
X35125D01*
X35205Y69905D01*
X38380D01*
X39325Y70850D01*
X34720Y71330D02*
X36315D01*
X35450Y70725D02*
X37400D01*
X38163Y70300D02*
X38370Y70507D01*
X38800Y70635D02*
Y70875D01*
Y70900D01*
X33738Y68325D02*
X35450D01*
X35650Y68525D01*
X35925Y67500D02*
X36125Y67700D01*
X36450D01*
X35700D02*
X35856D01*
X36046Y67890D01*
X34220Y67830D02*
X34601D01*
X34771Y67660D01*
X35450D02*
X35610Y67500D01*
X35925D01*
X33576Y72330D02*
X33725Y72479D01*
X33230Y71970D02*
Y72176D01*
X33384Y72330D01*
X32725Y71825D02*
X32975Y71575D01*
X32725Y71825D02*
Y73400D01*
X32475Y72075D02*
Y73650D01*
X31475Y72575D02*
Y73775D01*
X30475Y72575D02*
Y74175D01*
X29975Y72575D02*
Y74325D01*
X25525Y71575D02*
X25975D01*
X25550Y71075D02*
X25975D01*
X26725Y72325D02*
X26975Y72075D01*
X27225Y72325D02*
X27475Y72075D01*
X26325Y71575D02*
X26475D01*
X26080Y71820D02*
X26325Y71575D01*
X26725Y71825D02*
X26975Y71575D01*
X26375Y71825D02*
X26725D01*
X26225Y71975D02*
X26375Y71825D01*
X26225Y72450D02*
X26475Y72200D01*
Y72075D02*
Y72200D01*
X25780Y72320D02*
X26080D01*
X26225Y72175D01*
Y71975D02*
Y72175D01*
X27975Y71575D02*
X28220Y71820D01*
Y72176D01*
X27475Y71575D02*
X27720Y71820D01*
Y72775D01*
X28220Y72176D02*
Y72180D01*
X31475Y72075D02*
Y72229D01*
X31230Y72474D02*
X31475Y72229D01*
X31230Y72474D02*
Y72650D01*
X31225Y71825D02*
X31475Y71575D01*
X31225Y71825D02*
Y72175D01*
X30890Y72160D02*
X30975Y72075D01*
X30890Y72160D02*
Y72925D01*
X31075Y72325D02*
X31225Y72175D01*
X31075Y72325D02*
Y72388D01*
X30225Y72325D02*
X30475Y72075D01*
X30225Y72325D02*
Y74225D01*
X30975Y71575D02*
X31220Y71330D01*
X31576D01*
X31720Y71474D01*
Y71720D01*
X31750Y71750D01*
X31825Y71825D01*
X31970D01*
X32071D01*
X32225Y71979D01*
Y73775D01*
X32475Y63050D02*
Y63575D01*
X32230Y63830D02*
X32475Y64075D01*
X32230Y63055D02*
Y63830D01*
X33475Y64575D02*
X33720Y64330D01*
Y63970D02*
Y64330D01*
Y61975D02*
Y63970D01*
X33230Y63280D02*
Y63680D01*
X33475Y63925D01*
Y64075D01*
X32975Y64575D02*
X33000D01*
X32975D02*
X33200Y64350D01*
X33220Y64330D01*
Y63910D02*
Y64330D01*
X33060Y63750D02*
X33220Y63910D01*
X33060Y63550D02*
Y63750D01*
X32975Y63906D02*
Y64075D01*
X32890Y63821D02*
X32975Y63906D01*
X32890Y63550D02*
Y63821D01*
X30475Y63075D02*
Y63575D01*
Y63921D02*
Y64075D01*
X30230Y63676D02*
X30475Y63921D01*
X30230Y63474D02*
Y63676D01*
Y63474D02*
X30300Y63404D01*
Y63100D02*
Y63404D01*
X31975Y63921D02*
Y64075D01*
X31764Y63711D02*
X31975Y63921D01*
X31720Y64166D02*
X31975Y64421D01*
X31720Y63907D02*
Y64166D01*
X31220Y64320D02*
X31475Y64575D01*
X31220Y63474D02*
Y64320D01*
X31390Y63990D02*
X31475Y64075D01*
X31390Y63600D02*
Y63990D01*
X30975Y63150D02*
Y63575D01*
X30725Y63825D02*
X30975Y64075D01*
X30725Y63125D02*
Y63825D01*
X30230Y64330D02*
X30475Y64575D01*
X30230Y63917D02*
Y64330D01*
X30060Y63747D02*
X30230Y63917D01*
X30060Y63625D02*
Y63747D01*
X29890Y63990D02*
X29975Y64075D01*
X29890Y63675D02*
Y63990D01*
X29475Y63200D02*
Y63575D01*
Y64575D02*
X29720Y64330D01*
Y63580D02*
Y64330D01*
X29225Y63825D02*
X29475Y64075D01*
X29225Y63425D02*
Y63825D01*
X28975Y63150D02*
Y63575D01*
Y63921D02*
Y64075D01*
X28802Y63748D02*
X28975Y63921D01*
X28730Y63676D02*
X28802Y63748D01*
X28730Y63525D02*
Y63676D01*
X28725Y64325D02*
X28975Y64575D01*
X28725Y63912D02*
Y64325D01*
X28632Y63818D02*
X28725Y63912D01*
X28225Y64325D02*
X28475Y64575D01*
X28225Y63450D02*
Y64325D01*
X28475Y63980D02*
Y64075D01*
X28395Y63900D02*
X28475Y63980D01*
X28395Y63525D02*
Y63900D01*
X29855Y65445D02*
X29875Y65425D01*
X29855Y65445D02*
Y65620D01*
X29725Y65750D02*
X29855Y65620D01*
X28875Y65750D02*
X29725D01*
X27730Y63830D02*
X27975Y64075D01*
X27730Y63055D02*
Y63830D01*
X27475Y62925D02*
Y63575D01*
X27225Y63825D02*
X27475Y64075D01*
X27225Y63200D02*
Y63825D01*
X26975Y63200D02*
Y63575D01*
X26730Y63830D02*
X26975Y64075D01*
X26730Y63230D02*
Y63830D01*
X26475Y63200D02*
Y63575D01*
X25575Y64075D02*
X25975D01*
X25600Y64575D02*
X25975D01*
X25600Y65075D02*
X25975D01*
X26321Y64575D02*
X26475D01*
X26076Y64330D02*
X26321Y64575D01*
X25480Y64330D02*
X26076D01*
X26475Y63950D02*
Y64075D01*
X26225Y63700D02*
X26475Y63950D01*
X26225Y63075D02*
Y63700D01*
X26725Y64325D02*
X26975Y64575D01*
X26379Y64325D02*
X26725D01*
X26220Y64166D02*
X26379Y64325D01*
X26220Y63974D02*
Y64166D01*
X26076Y63830D02*
X26220Y63974D01*
X25580Y63830D02*
X26076D01*
X27925Y66050D02*
Y66075D01*
Y66050D02*
X28237Y65738D01*
X28450Y65275D02*
X28575Y65400D01*
Y65425D01*
X28450Y65000D02*
Y65275D01*
X26175Y64925D02*
X26325Y65075D01*
X26475D01*
X25580Y64830D02*
X26080D01*
X26175Y64925D01*
Y64925D01*
X27975Y64575D02*
Y65000D01*
X27475Y64575D02*
Y64630D01*
X27375Y64975D02*
X27400D01*
X27475Y64900D01*
Y64575D02*
Y64900D01*
X26730Y65320D02*
X26975Y65075D01*
X25900Y65320D02*
X26730D01*
X26410Y65575D02*
X26475D01*
X26325Y65490D02*
X26410Y65575D01*
X25925Y65490D02*
X26325D01*
X25525Y66075D02*
X25975D01*
X26321D02*
X26475D01*
X26161Y65914D02*
X26321Y66075D01*
X26076Y65830D02*
X26161Y65914D01*
X25570Y65830D02*
X26076D01*
X26725Y65825D02*
X26975Y65575D01*
X26375Y65825D02*
X26725D01*
X26210Y65660D02*
X26375Y65825D01*
X25975Y65660D02*
X26210D01*
X26230Y66820D02*
X26475Y66575D01*
X25805Y66820D02*
X26230D01*
X26720Y67320D02*
X26975Y67575D01*
X26374Y67320D02*
X26720D01*
X26214Y67160D02*
X26374Y67320D01*
X26175Y67160D02*
X26214D01*
X26300Y67575D02*
X26475D01*
X26220Y67495D02*
X26300Y67575D01*
X26220Y67474D02*
Y67495D01*
X26076Y67330D02*
X26220Y67474D01*
X25950Y67330D02*
X26076D01*
X25600Y67575D02*
X25975D01*
X25475Y68075D02*
X25975D01*
X26725Y67825D02*
X26975Y68075D01*
X25500Y67825D02*
X26725D01*
X26230Y68320D02*
X26475Y68075D01*
X25745Y68320D02*
X26230D01*
X26335Y68575D02*
X26475D01*
X26250Y68490D02*
X26335Y68575D01*
X26000Y68490D02*
X26250D01*
X25550Y69075D02*
X25975D01*
X26770Y68575D02*
X26975D01*
X26720Y68625D02*
X26770Y68575D01*
X26720Y68625D02*
Y68676D01*
X26576Y68820D02*
X26720Y68676D01*
X26374Y68820D02*
X26576D01*
X26299Y68745D02*
X26374Y68820D01*
X26321Y69075D02*
X26475D01*
X26725Y69325D02*
X26975Y69075D01*
X25825Y69325D02*
X26725D01*
X25975Y69820D02*
X26105D01*
X26350Y69575D01*
X26475D01*
X26725Y69825D02*
X26975Y69575D01*
X26340Y69825D02*
X26725D01*
X26175Y69990D02*
X26340Y69825D01*
X26025Y69990D02*
X26175D01*
X26331Y70075D02*
X26475D01*
X26246Y70160D02*
X26331Y70075D01*
X26075Y70160D02*
X26246D01*
X26730Y70330D02*
X26975Y70575D01*
X26316Y70330D02*
X26730D01*
X26316Y70330D02*
X26316Y70330D01*
X25980Y70330D02*
X26316D01*
X26225Y70825D02*
X26475Y70575D01*
X26225Y71325D02*
X26475Y71075D01*
X27870Y69325D02*
X27900Y69350D01*
X27500Y65525D02*
X27550Y65475D01*
X27875D01*
X27925Y65425D01*
X27900Y70650D02*
X27925Y70625D01*
X27900Y70650D02*
Y71150D01*
X26076Y68830D02*
X26321Y69075D01*
X25925Y68830D02*
X26076D01*
X27400Y67875D02*
X27425Y67900D01*
X27800D01*
X27925Y68025D01*
X27600Y68400D02*
X27650D01*
X28275Y69025D02*
X28575Y69325D01*
X27475Y69025D02*
X28275D01*
X27450Y69000D02*
X27475Y69025D01*
X27200Y67075D02*
X27375Y66900D01*
X26975Y66075D02*
X27300Y66400D01*
X27425D01*
X27925Y69975D02*
X28263Y69637D01*
X28725Y71815D02*
X28965Y71575D01*
X28400Y71495D02*
X28475Y71570D01*
X28400Y71150D02*
Y71495D01*
X27425Y69325D02*
X27925D01*
X34725Y63150D02*
X34850Y63025D01*
X34470Y63580D02*
X34470Y63575D01*
X34225Y62450D02*
X34400Y62275D01*
X34476Y62794D02*
X34800Y62475D01*
X34625Y68075D02*
X34870Y67830D01*
X35570D01*
X35700Y67700D01*
X34771Y67660D02*
X35450D01*
X35295Y67480D02*
X35575Y67200D01*
X38725D01*
X34116Y67080D02*
X34366Y66830D01*
X34585D01*
X34720Y66695D01*
Y66484D02*
Y66695D01*
X34874Y66330D02*
X36545D01*
X36800Y66075D01*
X37500D01*
X34116Y66080D02*
X34366Y66330D01*
X34595D01*
X34765Y66160D01*
X36365D01*
X36700Y65825D01*
X34560Y65990D02*
X36035D01*
X34725Y65325D02*
X35250D01*
X35500Y65075D01*
X37575D01*
X34625Y65070D02*
X34870Y64825D01*
X35150D01*
X35300Y64675D01*
X36350D01*
X35150Y64575D02*
X35250Y64475D01*
X35950D01*
X34725Y63150D02*
Y63675D01*
X34225Y62450D02*
Y63671D01*
X33970Y63926D02*
X34225Y63671D01*
X34220Y63984D02*
Y64330D01*
Y63984D02*
X34379Y63825D01*
X34575D01*
X34725Y63675D01*
X31575Y63762D02*
X31720Y63907D01*
X32720Y61425D02*
Y64330D01*
X33725Y72479D02*
Y73775D01*
X36250Y76300D01*
X47700D01*
X27975Y72125D02*
Y72145D01*
X30650Y84965D02*
X30900Y84715D01*
X30150Y84975D02*
X30400Y84725D01*
X29730Y72320D02*
Y74300D01*
Y72320D02*
X29975Y72075D01*
X30300Y70850D02*
Y71150D01*
X29150Y84975D02*
X29400Y84725D01*
X29650Y84965D02*
X29890Y84725D01*
X31150Y85475D02*
X31400Y85725D01*
X32150D01*
X30900Y85225D02*
X31150Y84975D01*
X30150Y90475D02*
Y90475D01*
X30900Y90725D02*
Y91225D01*
X30675Y91450D02*
X30900Y91225D01*
X28400Y90064D02*
X28551Y90215D01*
X28400Y88375D02*
Y90064D01*
X27900Y87875D02*
X28400Y88375D01*
X31500Y83275D02*
Y83786D01*
X30900Y84386D02*
X31500Y83786D01*
X30900Y84386D02*
Y84715D01*
X30650Y84200D02*
Y84475D01*
Y84200D02*
X31188Y83662D01*
Y83088D02*
Y83662D01*
X30400Y84050D02*
Y84725D01*
Y84050D02*
X30850Y83600D01*
X30150Y83950D02*
Y84475D01*
Y83950D02*
X30475Y83625D01*
X29560Y72160D02*
Y74535D01*
X29725Y74700D01*
Y74900D01*
X26975Y72575D02*
Y72900D01*
X27753Y73378D02*
Y74022D01*
X28975Y72575D02*
Y72750D01*
X29050Y72825D01*
Y73825D01*
X26225Y72450D02*
Y72700D01*
X26025Y72900D02*
X26225Y72700D01*
X28725Y71815D02*
Y72825D01*
X28875Y72975D01*
X27650Y72845D02*
Y73100D01*
Y72845D02*
X27720Y72775D01*
X27753Y73378D02*
X27822Y73310D01*
X27960Y73412D02*
X28000Y73372D01*
X27475Y72575D02*
Y73000D01*
X26175Y73050D02*
X26475Y72750D01*
X26550Y73000D02*
X26725Y72825D01*
X26850Y73025D02*
X26975Y72900D01*
X27075Y73100D02*
X27225Y72950D01*
X27300Y73175D02*
X27475Y73000D01*
X27525Y73225D02*
X27650Y73100D01*
X27822Y72914D02*
Y73310D01*
Y72914D02*
X27890Y72845D01*
Y72210D02*
Y72845D01*
X28060Y72615D02*
Y72928D01*
X28000Y72988D02*
X28060Y72928D01*
X28000Y72988D02*
Y73025D01*
Y73372D01*
X28170Y73059D02*
X28230Y72999D01*
Y72474D02*
Y72999D01*
X29650Y83725D02*
Y84475D01*
X29890Y83860D02*
Y84725D01*
Y83860D02*
X30100Y83650D01*
X28700Y84125D02*
X28900Y84325D01*
X28700Y83600D02*
Y84125D01*
X27900Y83975D02*
Y87875D01*
X28170Y73059D02*
Y73445D01*
X28525Y73775D02*
X28875Y73425D01*
Y72975D02*
Y73425D01*
X27525Y74250D02*
X27753Y74022D01*
X28170Y73445D02*
X28275Y73550D01*
Y73850D01*
X28525Y73775D02*
Y74400D01*
X28875Y74000D02*
X29050Y73825D01*
X27900Y74375D02*
X27960Y74315D01*
X29650Y83725D02*
X29775Y83600D01*
Y83250D02*
Y83600D01*
X30100Y83250D02*
Y83650D01*
Y83250D02*
X30100Y83250D01*
X30475D02*
Y83625D01*
X30850Y83250D02*
Y83600D01*
X16525Y87000D02*
Y87350D01*
X20725D02*
X20850Y87225D01*
X15300Y87025D02*
Y87540D01*
X15725Y87000D02*
Y87575D01*
X15925Y77100D02*
X16175Y77350D01*
X15925Y77100D02*
X16225Y76800D01*
X18350Y75925D02*
X18375Y75950D01*
X19775Y81725D02*
X19900Y81600D01*
X14125Y80700D02*
Y82100D01*
X14125Y80700D02*
X14125Y80700D01*
X34720Y66484D02*
X34874Y66330D01*
X29550Y70300D02*
X29875Y69975D01*
X29175Y70675D02*
Y70675D01*
X28850Y70350D02*
X29175Y70675D01*
X27350Y69400D02*
X27425Y69325D01*
X28850Y69625D02*
Y69700D01*
X34475Y66075D02*
X34560Y65990D01*
D24*
X1600Y92950D02*
Y94450D01*
Y89650D02*
Y92950D01*
X50650Y69925D02*
Y69950D01*
Y69425D02*
Y69925D01*
X59263Y55987D02*
X59450Y56175D01*
X59250Y55975D02*
X59263Y55987D01*
X58615Y61010D02*
X58660Y61055D01*
X58600Y60995D02*
X58615Y61010D01*
X50650Y61100D02*
Y61950D01*
X49750Y60125D02*
X49775D01*
X49325D02*
X49750D01*
X49050Y61100D02*
Y61695D01*
Y60400D02*
Y61100D01*
X60162Y79988D02*
X60200Y80025D01*
X59925Y79750D02*
X60162Y79988D01*
X57787Y69938D02*
X57800Y69925D01*
X57775Y69950D02*
X57787Y69938D01*
X59500Y61025D02*
Y61545D01*
Y60995D02*
Y61025D01*
X60162Y56013D02*
X60200Y55975D01*
X59950Y56225D02*
X60162Y56013D01*
X52300Y61100D02*
Y61425D01*
X49750Y61100D02*
Y61850D01*
X48050Y61100D02*
Y61495D01*
Y60995D02*
Y61100D01*
X15925Y91650D02*
X16500D01*
X6325Y84925D02*
X10150D01*
X9450Y87575D02*
X10675Y86350D01*
X8425Y80400D02*
Y81000D01*
Y80050D02*
Y80400D01*
Y81000D02*
X8825Y81400D01*
X9825D01*
X10825Y82400D01*
X9525Y82600D02*
X10475Y83550D01*
X8975Y83500D02*
X9525D01*
X9975Y83950D01*
X10675D01*
X1600Y89650D02*
X6325Y84925D01*
X49300Y76450D02*
X49850D01*
X53275Y60125D02*
Y60150D01*
Y59600D02*
Y60125D01*
X33825Y79800D02*
X34025Y80000D01*
X33825Y79400D02*
Y79800D01*
X33150Y80000D02*
X33325Y79825D01*
Y79400D02*
Y79825D01*
X59925Y79400D02*
Y79750D01*
X59225Y80025D02*
X59250Y80000D01*
X59425Y79400D02*
Y79825D01*
X59950Y56225D02*
Y56600D01*
X59450Y56175D02*
Y56600D01*
X60075Y59950D02*
Y60275D01*
X59500Y60850D02*
X60075Y60275D01*
X59500Y60850D02*
Y61025D01*
X58600Y60995D02*
X58600Y60995D01*
Y61025D01*
Y60995D02*
Y60995D01*
Y60025D02*
Y60995D01*
Y60025D02*
X58650Y59975D01*
X51875Y61850D02*
X52300Y61425D01*
X49750Y61850D02*
X49850Y61950D01*
X48250Y69925D02*
X48250Y69925D01*
X48250Y69425D02*
Y69925D01*
X49050D02*
X49050Y69925D01*
X49050Y69425D02*
Y69925D01*
X49850Y69925D02*
X49850Y69925D01*
X49850Y69425D02*
Y69925D01*
X50650Y69950D02*
X50650Y69950D01*
X51450Y69925D02*
X51450Y69925D01*
X51450Y69425D02*
Y69925D01*
X53850Y68625D02*
Y68625D01*
X53450Y68225D02*
X53850Y68625D01*
X53450Y69025D02*
X53450D01*
X53050Y68625D02*
X53450Y69025D01*
X57025Y69925D02*
X57050Y69900D01*
Y69425D02*
Y69900D01*
X57800Y69475D02*
X57850Y69425D01*
X57800Y69475D02*
Y69925D01*
X58650Y69425D02*
Y69537D01*
X58593Y69593D02*
X58650Y69537D01*
X58575Y69593D02*
X58593D01*
X58575D02*
Y69875D01*
X58525Y69925D02*
X58575Y69875D01*
X60250Y69425D02*
Y69650D01*
X60000Y69900D02*
X60250Y69650D01*
X59850Y67425D02*
X59850D01*
X59450Y67825D02*
X59850Y67425D01*
X60250Y63825D02*
X60550D01*
X60825Y64100D01*
X55050Y65025D02*
Y65025D01*
Y65025D02*
X55450Y64625D01*
X58600Y60995D02*
X58600Y60995D01*
X50650Y63025D02*
X50680Y62995D01*
X48050Y61495D02*
X48250Y61695D01*
X53850Y63825D02*
X54250Y64225D01*
X53850Y63825D02*
X53850D01*
X54650Y62525D02*
Y63025D01*
X55450D02*
Y63825D01*
X56250Y62525D02*
Y63025D01*
X57050D02*
X57450Y62625D01*
X57850Y63025D01*
X57450Y63425D02*
X57450D01*
X57850Y63825D01*
X57050Y63825D02*
X57450Y63425D01*
X57050Y63825D02*
Y63825D01*
X59350Y61695D02*
X59500Y61545D01*
X58660Y61055D02*
Y61695D01*
X59350D02*
X59450Y61795D01*
Y63025D01*
X58650Y61705D02*
X58660Y61695D01*
X58650Y61705D02*
Y63025D01*
X59450D02*
X60250D01*
X59050Y68225D02*
X59450Y68625D01*
X53050Y68615D02*
Y68625D01*
X56250Y69925D02*
X56250Y69925D01*
Y69425D02*
Y69925D01*
X55450Y69425D02*
Y69925D01*
X51450Y69425D02*
X51455Y69430D01*
X49050Y60400D02*
X49325Y60125D01*
X50640Y60995D02*
X50650Y61005D01*
X1550Y96050D02*
Y96950D01*
X2675Y92950D02*
X3425D01*
X6050Y96000D02*
X6900D01*
X12650Y92150D02*
Y92975D01*
X12875Y92375D02*
X13275D01*
X13875Y92125D02*
X14525D01*
X13975Y90925D02*
Y91375D01*
X13375D02*
X13550Y91200D01*
Y90925D02*
Y91200D01*
X10325Y89625D02*
Y90250D01*
X9025Y89600D02*
Y90250D01*
X10575Y92375D02*
X10975D01*
X10575Y91625D02*
X10725D01*
X11225Y92125D01*
X16000Y92200D02*
X16550D01*
X13925Y77900D02*
Y78450D01*
X13425Y77900D02*
Y78550D01*
X13675Y76750D02*
Y77300D01*
X13025D02*
X13675D01*
X14325D01*
X13175Y76750D02*
X13675D01*
X14175D01*
X16175Y77350D02*
X16600D01*
X16225Y76800D02*
X16600D01*
X18375Y75950D02*
X19600D01*
X9050Y87575D02*
X9450D01*
X9050D02*
Y88175D01*
X59250Y80000D02*
X59425Y79825D01*
X57050Y68625D02*
Y69425D01*
X55450Y62525D02*
Y63025D01*
D25*
X20400Y75950D02*
Y77050D01*
Y60500D02*
Y75950D01*
X33450Y58975D02*
Y59875D01*
Y58025D02*
Y58975D01*
X34975Y64080D02*
X34998D01*
X34970D02*
X34975D01*
X34475Y64575D02*
X34725Y64325D01*
X34470Y64580D02*
X34475Y64575D01*
Y72080D02*
X34616D01*
X34470D02*
X34475D01*
X31775Y66125D02*
X32150Y65750D01*
X34975Y72075D02*
X35290D01*
X26975Y67025D02*
Y67050D01*
X33475Y61000D02*
Y63575D01*
X34998Y64080D02*
X35033Y64045D01*
X32150Y65325D02*
Y65750D01*
Y65325D02*
X32475Y65000D01*
X22400Y68675D02*
Y84825D01*
X22725Y69625D02*
Y84900D01*
Y69625D02*
X24958Y67393D01*
X20625Y87000D02*
X22725Y84900D01*
X20725Y86500D02*
X22400Y84825D01*
X18325Y86500D02*
X20725D01*
X17775Y85950D02*
X18325Y86500D01*
X18225Y87000D02*
X20625D01*
X17575Y86350D02*
X18225Y87000D01*
X29390Y74710D02*
Y75665D01*
X28275Y58600D02*
X31575Y61900D01*
X20700Y60925D02*
X23025Y58600D01*
X28275D01*
X28575Y58350D02*
X31200Y60975D01*
X22550Y58350D02*
X28575D01*
X20400Y60500D02*
X22550Y58350D01*
X31980Y88730D02*
X31985Y88725D01*
X35025D01*
X25853Y67005D02*
X26050D01*
X25465Y67393D02*
X25853Y67005D01*
X23000Y71450D02*
Y85075D01*
X20875Y87925D02*
X22000Y86800D01*
X21500Y78150D02*
Y84300D01*
X20400Y77050D02*
X21500Y78150D01*
X22025Y77500D02*
Y84275D01*
X20700Y60925D02*
Y72325D01*
X21675Y73300D02*
Y75000D01*
X20700Y72325D02*
X21675Y73300D01*
X21175Y75000D02*
X21675D01*
X21175Y73425D02*
Y74100D01*
Y76650D02*
X22025Y77500D01*
X21175Y75000D02*
Y76650D01*
X24958Y67393D02*
X25465D01*
X1600Y94500D02*
X6050D01*
X50625Y60150D02*
X50650D01*
X51410Y60165D02*
X51425Y60150D01*
X56525Y72750D02*
Y73325D01*
Y72750D02*
X56645Y72630D01*
X56830D01*
X56550Y72400D02*
X56925D01*
X56295Y72655D02*
X56550Y72400D01*
X56295Y72655D02*
Y73230D01*
X56925Y72725D02*
Y73350D01*
X56830Y72630D02*
X56925Y72725D01*
X57155Y72630D02*
Y73255D01*
X56925Y72400D02*
X57155Y72630D01*
X61020Y67070D02*
Y69955D01*
X57575Y73400D02*
X61020Y69955D01*
X57300Y73400D02*
X57575D01*
X57155Y73255D02*
X57300Y73400D01*
X57205Y73630D02*
X57670D01*
X56925Y73350D02*
X57205Y73630D01*
X56130Y73395D02*
X56295Y73230D01*
X55170Y73395D02*
X56130D01*
X56225Y73625D02*
X56525Y73325D01*
X55075Y73625D02*
X56225D01*
X55015Y73240D02*
X55170Y73395D01*
X55015Y72590D02*
Y73240D01*
X54775Y73325D02*
X55075Y73625D01*
X54775Y72675D02*
Y73325D01*
X50021Y73404D02*
X53946D01*
X54150Y72600D02*
Y73200D01*
X53946Y73404D02*
X54150Y73200D01*
X54380Y72695D02*
Y73295D01*
X54041Y73634D02*
X54380Y73295D01*
X50141Y73634D02*
X54041D01*
X35290Y72075D02*
X37125Y73910D01*
X53050Y63025D02*
X53075D01*
X52250Y64625D02*
X52650Y64225D01*
X51850D02*
X51850D01*
X51450Y64625D02*
X51850Y64225D01*
X41980Y59955D02*
X42229Y60205D01*
X42075Y59725D02*
X42325Y59975D01*
X39245Y61175D02*
X39930Y60490D01*
X39150Y60945D02*
X39700Y60395D01*
X46975Y59700D02*
X46987Y59713D01*
X47000Y59700D02*
X47125Y59825D01*
X46800Y60400D02*
Y62750D01*
X47125Y59825D02*
Y60075D01*
X46800Y60400D02*
X47125Y60075D01*
X47375Y59725D02*
Y60200D01*
X47030Y60545D02*
Y62845D01*
Y60545D02*
X47375Y60200D01*
X46650Y59700D02*
X46975D01*
X44795Y59595D02*
X45430D01*
X44700Y59825D02*
X45550D01*
X44475Y59700D02*
X44475Y59700D01*
X43600D02*
X44475D01*
X44030Y62370D02*
Y63620D01*
X43820Y63830D02*
X44030Y63620D01*
X43800Y62275D02*
Y63525D01*
X43725Y63600D02*
X43800Y63525D01*
X43450Y63600D02*
X43725D01*
X44955Y61245D02*
X45075Y61125D01*
X44255Y61245D02*
X44955D01*
X43920Y61580D02*
X44255Y61245D01*
X45050Y61475D02*
X45325Y61200D01*
X44350Y61475D02*
X45050D01*
X44150Y61675D02*
X44350Y61475D01*
X44150Y61675D02*
Y62250D01*
X43800Y62275D02*
X43920Y62155D01*
Y61580D02*
Y62155D01*
X44030Y62370D02*
X44150Y62250D01*
X55485Y67790D02*
X55740Y67535D01*
X55740Y66165D02*
Y67515D01*
X54505Y66030D02*
X55605D01*
X55740Y66165D01*
X54440Y65965D02*
X54505Y66030D01*
X50265Y65965D02*
X54440D01*
X49985Y65685D02*
X50265Y65965D01*
X46460Y65685D02*
X49985D01*
X46220Y63330D02*
Y65445D01*
Y63330D02*
X46800Y62750D01*
X46220Y65445D02*
X46460Y65685D01*
X45325Y60700D02*
Y61200D01*
X45050Y60425D02*
X45325Y60700D01*
X43750Y60425D02*
X45050D01*
X43355Y63830D02*
X43820D01*
X43125Y63600D02*
X43355Y63830D01*
X38800Y61175D02*
X39245D01*
X43125Y61100D02*
Y63600D01*
X42230Y60205D02*
X43125Y61100D01*
X43505Y60180D02*
X43750Y60425D01*
X42229Y60205D02*
X42230D01*
X43505Y59795D02*
X43600Y59700D01*
X43505Y59795D02*
Y60180D01*
X38530Y60905D02*
X38800Y61175D01*
X55970Y67545D02*
X56250Y67825D01*
X55970Y66070D02*
Y67545D01*
X54600Y65800D02*
X55700D01*
X55970Y66070D01*
X54535Y65735D02*
X54600Y65800D01*
X50440Y65735D02*
X54535D01*
X50160Y65455D02*
X50440Y65735D01*
X46555Y65455D02*
X50160D01*
X46450Y63425D02*
Y65350D01*
Y63425D02*
X47030Y62845D01*
X46450Y65350D02*
X46555Y65455D01*
X45075Y60780D02*
Y61125D01*
X44950Y60655D02*
X45075Y60780D01*
X43655Y60655D02*
X44950D01*
X43275Y60275D02*
X43655Y60655D01*
X43275Y59700D02*
X43505Y59470D01*
X43275Y59700D02*
Y60275D01*
X43355Y63505D02*
X43450Y63600D01*
X43355Y61005D02*
Y63505D01*
X38895Y60945D02*
X39150D01*
X42325Y59975D02*
X43355Y61005D01*
X38625Y60675D02*
X38895Y60945D01*
X42325Y59975D02*
X42325D01*
X34861Y72325D02*
X35200D01*
X34616Y72080D02*
X34861Y72325D01*
X35250Y72375D02*
X37015Y74140D01*
X35205Y72330D02*
X35250Y72375D01*
X37125Y73910D02*
X49515D01*
X37015Y74140D02*
X49635D01*
X60605Y66655D02*
X61020Y67070D01*
X59825Y66655D02*
X60605D01*
X60700Y66425D02*
X61250Y66975D01*
Y70064D01*
X57175Y66425D02*
X60700D01*
X57055Y66655D02*
X59825D01*
X49515Y73910D02*
X50021Y73404D01*
X49638Y74138D02*
X50141Y73634D01*
X58620Y65755D02*
X59155Y65220D01*
Y64920D02*
Y65220D01*
Y64920D02*
X59450Y64625D01*
X58525Y65525D02*
X58925Y65125D01*
Y64900D02*
Y65125D01*
X58650Y64625D02*
X58925Y64900D01*
X57670Y73630D02*
X61250Y70064D01*
X54785Y72360D02*
X55015Y72590D01*
X54390Y72360D02*
X54785D01*
X54690Y72590D02*
X54775Y72675D01*
X54485Y72590D02*
X54690D01*
X54380Y72695D02*
X54485Y72590D01*
X54150Y72600D02*
X54390Y72360D01*
X57075Y65825D02*
Y66325D01*
Y65825D02*
X57145Y65755D01*
X58620D01*
X57050Y65525D02*
X58525D01*
X56825Y65750D02*
X57050Y65525D01*
X56825Y65750D02*
Y66150D01*
X56825Y66425D02*
X57055Y66655D01*
X56825Y66150D02*
Y66425D01*
X57075Y66325D02*
X57175Y66425D01*
X49635Y74140D02*
X49675Y74100D01*
X59825Y66655D02*
Y66655D01*
X39930Y60045D02*
Y60490D01*
X39700Y59950D02*
Y60395D01*
X39930Y60045D02*
X40020Y59955D01*
X41980D01*
X39700Y59950D02*
X39925Y59725D01*
X42075D01*
X36525Y62329D02*
X37949Y60905D01*
X38530D01*
X36278Y62248D02*
X37850Y60675D01*
X38625D01*
X47120Y59470D02*
X47375Y59725D01*
X45430Y59595D02*
X45550Y59475D01*
X45793D01*
X45798Y59470D01*
X47120D01*
X45550Y59825D02*
X45670Y59705D01*
X45888D01*
X45893Y59700D01*
X46650D01*
X44475D02*
X44575D01*
X44700Y59825D01*
X43505Y59470D02*
X44670D01*
X44795Y59595D01*
X36525Y62329D02*
Y63300D01*
X36278Y62248D02*
Y63222D01*
X35079Y64325D02*
X35094Y64310D01*
X35094D01*
X35455Y64045D02*
X36278Y63222D01*
X35550Y64275D02*
X36525Y63300D01*
X53450Y64225D02*
X53850Y64625D01*
X53050D02*
X53450Y65025D01*
X33450Y69325D02*
X33550Y69225D01*
X31975Y72575D02*
Y73700D01*
X31725Y72325D02*
X31975Y72075D01*
X31725Y72325D02*
Y73725D01*
X33475Y72575D02*
Y73380D01*
X32975Y72075D02*
X32975Y72075D01*
X32975Y72075D02*
Y72225D01*
X33075Y72325D01*
X33075D01*
X33225Y72475D01*
Y73475D01*
X32975Y71575D02*
X32975D01*
Y72575D02*
Y73100D01*
X35094Y64310D02*
X35129Y64275D01*
X35550D01*
X35033Y64045D02*
X35455D01*
X34725Y64325D02*
X35079D01*
X15885Y88125D02*
X21100D01*
X1325Y94775D02*
X1600Y94500D01*
X31475Y65000D02*
X31500D01*
X31175Y65425D02*
X31400D01*
X31475Y65350D01*
Y65000D02*
Y65350D01*
X33425Y60950D02*
X33475Y61000D01*
X33425Y59900D02*
Y60950D01*
Y59900D02*
X33450Y59875D01*
Y58025D02*
X33475Y58000D01*
X27650Y89450D02*
X27650Y89450D01*
X32150Y85725D02*
X34975D01*
Y84700D02*
Y85725D01*
Y84700D02*
X35050Y84625D01*
X30075Y86975D02*
X30075Y86975D01*
X21100Y88125D02*
X21425Y87800D01*
X21500D01*
X29650Y88975D02*
X30175D01*
X30420Y88730D01*
X31980D01*
X15300Y87540D02*
X15885Y88125D01*
X15725Y87575D02*
X16075Y87925D01*
X20875D01*
X16125Y81550D02*
Y82100D01*
Y81550D02*
X16550Y81125D01*
X18250D01*
X18675Y80700D01*
X19900D01*
X19775Y81725D02*
Y82400D01*
X20850Y87225D02*
X23000Y85075D01*
D26*
X19775Y82400D02*
X19800D01*
X19125D02*
X19775D01*
X13750Y80025D02*
X14125Y80400D01*
X13725Y80000D02*
X13750Y80025D01*
X34460Y70075D02*
Y70080D01*
Y70060D02*
Y70075D01*
X34975Y65580D02*
X35495D01*
X34970D02*
X34975D01*
X14525Y85750D02*
Y87000D01*
Y84750D02*
Y85750D01*
X14300Y84575D02*
X14325Y84550D01*
X13325Y85550D02*
X14300Y84575D01*
X14325Y84550D02*
X14525Y84750D01*
X14325Y84550D02*
X14325Y84550D01*
X13325Y83550D02*
X14325Y84550D01*
X12600Y85550D02*
X13325D01*
X11375D02*
X12600D01*
X30210Y65765D02*
X30520Y66075D01*
X31775Y70675D02*
X31950Y70500D01*
X33975Y69575D02*
X34460Y70060D01*
X31775Y70025D02*
X31950Y70200D01*
Y70500D01*
X10675Y86350D02*
X11075D01*
X11075Y86350D01*
X19375Y85950D02*
X19525D01*
X10850Y80425D02*
X11425Y81000D01*
X10850Y80225D02*
Y80425D01*
X10625Y80000D02*
X10850Y80225D01*
X18075Y84350D02*
X18125Y84300D01*
X12925Y85950D02*
X13325Y85550D01*
X14325Y84550D02*
X14925Y83950D01*
X15725Y83150D01*
X12925Y85950D02*
Y87000D01*
X17275Y85550D02*
X18275D01*
X19075Y85050D02*
X19525D01*
X18775Y84750D02*
X19075Y85050D01*
X17275Y84750D02*
X18775D01*
X18575Y85150D02*
X19375Y85950D01*
X17275Y85150D02*
X18575D01*
X18125Y84300D02*
X18625D01*
X17275Y84350D02*
X18075D01*
X18675Y82400D02*
X19125D01*
X18350Y82725D02*
X18675Y82400D01*
X18099Y82725D02*
X18350D01*
X17275Y83150D02*
X17674D01*
X18099Y82725D01*
X15325Y81100D02*
Y82100D01*
X15725D02*
Y83150D01*
X14925Y82100D02*
Y83950D01*
X14125Y80400D02*
Y80700D01*
X13525Y80800D02*
Y81400D01*
X13725Y81600D01*
Y82100D01*
X13325D02*
Y83550D01*
X11425Y81000D02*
X11925D01*
X12525Y81600D01*
Y82100D01*
X11175Y82750D02*
X11375D01*
X10825Y82400D02*
X11175Y82750D01*
X10475Y83550D02*
X11375D01*
X10675Y83950D02*
X11375D01*
X10125Y84900D02*
X10525D01*
X10675Y84750D01*
X11375D01*
X10825Y87400D02*
X11225D01*
X11625Y87000D01*
X12125D01*
X12525D02*
Y87800D01*
X13025Y88100D02*
X13325Y87800D01*
Y87000D02*
Y87800D01*
X13525Y89100D02*
X13725Y89300D01*
X13525Y88600D02*
Y89100D01*
Y88600D02*
X13725Y88400D01*
Y87000D02*
Y88400D01*
X14125Y88100D02*
X14325Y88300D01*
X14125Y87000D02*
Y88100D01*
X28570Y68680D02*
X28575Y68675D01*
X50650Y60150D02*
X51425D01*
X51410Y60165D02*
Y61100D01*
X53275Y60125D02*
X53285Y60135D01*
X53195Y60045D02*
X53275Y60125D01*
X49850Y61950D02*
Y62516D01*
X49820Y62545D02*
X49850Y62516D01*
X50650Y62000D02*
Y63025D01*
X49820Y62545D02*
Y62995D01*
X49850Y63025D01*
X59272Y69603D02*
X59450Y69425D01*
X59272Y69603D02*
Y69903D01*
X59250Y69925D02*
X59272Y69903D01*
X51875Y61850D02*
Y62150D01*
X51450Y62575D02*
X51875Y62150D01*
X51450Y62575D02*
Y63025D01*
X51850Y63425D02*
X52250Y63825D01*
X51850Y62825D02*
Y63425D01*
Y62825D02*
X52400Y62275D01*
Y61995D02*
Y62275D01*
X53130Y60045D02*
X53195D01*
X53055Y60060D02*
X53130Y60045D01*
X53040Y60075D02*
X53055Y60060D01*
X53050Y63825D02*
X53450Y63425D01*
X51050D02*
X51450Y63825D01*
X52400Y61995D02*
X53260Y61135D01*
X35495Y65580D02*
X35600Y65475D01*
X51050Y62275D02*
Y63425D01*
Y62275D02*
X51412Y61912D01*
X51410Y61100D02*
X51425Y61115D01*
Y61900D01*
X53260Y61055D02*
Y61075D01*
X52325Y60045D02*
X53130D01*
X49050Y61695D02*
Y61700D01*
Y63025D01*
X30830Y69020D02*
Y69020D01*
X17275Y83550D02*
X17900D01*
X18125Y83325D01*
X30520Y66075D02*
Y66080D01*
X53260Y61075D02*
Y61135D01*
X31500Y70950D02*
X31775Y70675D01*
D27*
X11450Y77100D02*
Y78300D01*
X15925Y77100D02*
Y78300D01*
X15475Y91000D02*
X15725D01*
X15325D02*
X15475D01*
X12025D02*
X12525D01*
X12625Y91100D02*
Y92100D01*
X12525Y91000D02*
X12625Y91100D01*
X15725Y91000D02*
X15925Y91200D01*
Y91650D01*
Y92100D01*
D28*
X54650Y69425D02*
Y69905D01*
Y69390D02*
Y69425D01*
X50625Y61975D02*
X50650Y62000D01*
X33188Y71137D02*
X33250Y71075D01*
X33025Y71300D02*
X33188Y71137D01*
X60190Y67825D02*
Y67885D01*
Y67825D02*
Y67825D01*
X60250Y64625D02*
Y65300D01*
Y64600D02*
Y64625D01*
X50237Y62688D02*
X50250Y62700D01*
X50225Y62675D02*
X50237Y62688D01*
X32559Y71575D02*
X32834Y71300D01*
X32475Y71575D02*
X32559D01*
X33975Y62125D02*
Y63575D01*
Y72575D02*
Y73425D01*
X11075Y86350D02*
X11375D01*
X17275Y85950D02*
X17775D01*
X50250Y63425D02*
X50650Y63825D01*
X50250Y62700D02*
Y63425D01*
X54400Y68625D02*
X54650D01*
X58775Y70275D02*
X58885Y70165D01*
Y69740D02*
Y70165D01*
X58646Y70285D02*
X58765D01*
X43518Y58625D02*
X47475D01*
X42825Y58956D02*
X43253Y58528D01*
X43422D02*
X43518Y58625D01*
X43253Y58528D02*
X43422D01*
X38850Y59275D02*
Y59650D01*
X38725Y59150D02*
X38850Y59275D01*
X38675Y59825D02*
X38850Y59650D01*
X39275Y59775D02*
Y60075D01*
Y59775D02*
X39735Y59315D01*
X39100Y60250D02*
X39275Y60075D01*
X39494Y58950D02*
X39819Y58625D01*
X39281Y58950D02*
X39494D01*
X38956Y58625D02*
X39281Y58950D01*
X41825Y58200D02*
X42344D01*
X42544Y58400D01*
X42775D01*
X42506Y58956D02*
X42825D01*
X42175Y58625D02*
X42506Y58956D01*
X42000Y58625D02*
X42175D01*
X57600Y72050D02*
Y72350D01*
X57500Y71950D02*
X57600Y72050D01*
X55975Y71950D02*
X57500D01*
X52080Y72420D02*
X52345D01*
X52000Y72500D02*
X52080Y72420D01*
X52000Y72500D02*
Y72900D01*
X50100Y72525D02*
Y72900D01*
X50006Y72994D02*
X50100Y72900D01*
X49851Y72994D02*
X50006D01*
X48300Y72425D02*
X48506D01*
X48200Y72525D02*
X48300Y72425D01*
X48200Y72525D02*
Y73400D01*
X48725Y73500D02*
X49345D01*
X48625Y73400D02*
X48725Y73500D01*
X48625Y72544D02*
Y73400D01*
X48100Y73500D02*
X48200Y73400D01*
X45775Y73500D02*
X48100D01*
X57450Y67575D02*
X57600Y67575D01*
X57200Y67325D02*
X57450Y67575D01*
X57200Y67150D02*
Y67325D01*
X57600Y67575D02*
X57850Y67825D01*
X57984Y68200D02*
X58359Y67825D01*
X57525Y68200D02*
X57984D01*
X59300Y69025D02*
X59580D01*
X59012Y69313D02*
X59300Y69025D01*
X59012Y69313D02*
Y69613D01*
X58885Y69740D02*
X59012Y69613D01*
X59840Y69285D02*
X60250Y68875D01*
X59840Y69285D02*
Y69544D01*
X59860Y68215D02*
Y68745D01*
X59580Y69025D02*
X59860Y68745D01*
X60610Y67240D02*
Y69799D01*
X58250Y69025D02*
Y69525D01*
X58150Y69625D02*
X58250Y69525D01*
X58150Y69625D02*
Y70100D01*
X57410Y68315D02*
Y70140D01*
X58359Y67825D02*
X58650D01*
X57285Y67065D02*
X60435D01*
X57200Y67150D02*
X57285Y67065D01*
X54275Y58275D02*
X55444D01*
X56100Y58325D02*
X56255Y58480D01*
X55444Y58275D02*
X55559Y58159D01*
X55941D01*
X56100Y58319D01*
Y58325D01*
X42775Y58400D02*
X43180Y57995D01*
X38000Y58725D02*
Y59300D01*
X37895Y59405D02*
X38000Y59300D01*
X39819Y58625D02*
X40006D01*
X39650Y58200D02*
X40175D01*
X39450Y58400D02*
X39650Y58200D01*
X39325Y58400D02*
X39450D01*
X39125Y58200D02*
X39325Y58400D01*
X38694Y58625D02*
X38956D01*
X38525Y58200D02*
X39125D01*
X41625Y58400D02*
X41825Y58200D01*
X41419Y58400D02*
X41625D01*
X41219Y58200D02*
X41419Y58400D01*
X40550D02*
X40750Y58200D01*
X40375Y58400D02*
X40550D01*
X40175Y58200D02*
X40375Y58400D01*
X40276Y58895D02*
X40655D01*
X40006Y58625D02*
X40276Y58895D01*
X56275Y74625D02*
X56430Y74470D01*
X56075Y74625D02*
X56275D01*
X55920Y74470D02*
X56075Y74625D01*
X56430Y74470D02*
X56745D01*
X55630D02*
X55920D01*
X44825Y62025D02*
X45106D01*
X45162Y61963D02*
X45500Y61625D01*
X44615Y62235D02*
Y62519D01*
X45106Y62025D02*
X45166Y61966D01*
X44615Y62235D02*
X44825Y62025D01*
X37925Y71800D02*
X41200D01*
X37075Y70950D02*
X37925Y71800D01*
X41200D02*
X41350Y71650D01*
X53350Y59150D02*
X53525Y59325D01*
X52775Y59150D02*
X53350D01*
X52250Y58625D02*
X52775Y59150D01*
X53000Y63025D02*
X53050D01*
X39450Y65375D02*
X39700Y65625D01*
X39450Y65150D02*
Y65375D01*
X38800Y65100D02*
X39325Y64575D01*
X38530Y65100D02*
X38800D01*
X48650Y59876D02*
Y60075D01*
X48325Y60400D02*
X48650Y60075D01*
X47755Y60400D02*
X48325D01*
X47750Y64625D02*
X48250D01*
X48705Y64245D02*
X49050Y64590D01*
X48076Y64245D02*
X48705D01*
X47956Y64125D02*
X48076Y64245D01*
X47525Y64125D02*
X47956D01*
X47500Y64150D02*
X47525Y64125D01*
X47500Y61700D02*
Y62350D01*
X47450Y61650D02*
X47500Y61700D01*
X47450Y62400D02*
X47500Y62350D01*
X47875D02*
X47890Y62365D01*
Y63465D01*
X51675Y65000D02*
X52070Y65395D01*
X51050D02*
X51445Y65000D01*
X51675D01*
X54650Y64625D02*
X55050Y64225D01*
X55875Y64250D02*
X56250Y64625D01*
X38025Y62600D02*
Y62700D01*
Y62600D02*
X38175Y62450D01*
X40375D01*
X53950Y61400D02*
X54075Y61275D01*
X52200Y59200D02*
Y59350D01*
X52050Y59050D02*
X52200Y59200D01*
X52075Y59475D02*
X52200Y59350D01*
X49051Y59475D02*
X52075D01*
X48650Y59876D02*
X49051Y59475D01*
X42850Y59525D02*
X43325Y59050D01*
X42475Y59525D02*
X42850D01*
X42265Y59315D02*
X42475Y59525D01*
X39735Y59315D02*
X42265D01*
X41800Y60375D02*
X42700Y61275D01*
X40625Y60375D02*
X41800D01*
X39400Y61600D02*
X40625Y60375D01*
X41630Y60805D02*
X42275Y61450D01*
X40801Y60805D02*
X41630D01*
X40050Y61556D02*
X40801Y60805D01*
X38645Y61600D02*
X39400D01*
X55341Y68225D02*
X55850D01*
X55050Y67934D02*
X55341Y68225D01*
X55050Y66500D02*
Y67934D01*
X54865Y66315D02*
X55050Y66500D01*
X51530Y66315D02*
X54865D01*
X51996Y66635D02*
X54560D01*
X51706Y66925D02*
X51996Y66635D01*
X54290Y67065D02*
Y68090D01*
X54180Y66955D02*
X54290Y67065D01*
X52270Y66955D02*
X54180D01*
X51880Y67345D02*
X52270Y66955D01*
X54740Y65435D02*
X56240D01*
X54700Y65395D02*
X54740Y65435D01*
X52070Y65395D02*
X54700D01*
X50720D02*
X51050D01*
X50335Y65010D02*
X50720Y65395D01*
X51340Y66505D02*
X51530Y66315D01*
X54650Y66725D02*
Y67825D01*
X54560Y66635D02*
X54650Y66725D01*
X54775Y68225D02*
X55175Y68625D01*
X54425Y68225D02*
X54775D01*
X54290Y68090D02*
X54425Y68225D01*
X44950Y62778D02*
Y64150D01*
Y62778D02*
X45035Y62693D01*
Y62690D02*
Y62693D01*
Y62690D02*
X45675Y62050D01*
X44450Y62684D02*
X44615Y62519D01*
X44450Y62684D02*
Y64050D01*
X38374Y61329D02*
X38645Y61600D01*
X41475Y61250D02*
X41850Y61625D01*
X40950Y61250D02*
X41475D01*
X41425Y61825D02*
Y65050D01*
X41300Y61700D02*
X41425Y61825D01*
X41119Y61700D02*
X41300D01*
X43325Y64400D02*
Y66050D01*
X43161Y64236D02*
X43325Y64400D01*
X43325D01*
X42936Y64236D02*
X43161D01*
X42700Y64000D02*
X42936Y64236D01*
X42700Y61275D02*
Y64000D01*
X44240Y64260D02*
X44450Y64050D01*
X43865Y64260D02*
X44240D01*
X43750Y64375D02*
X43865Y64260D01*
X46225Y60125D02*
X46375Y60275D01*
X46100Y60125D02*
X46225D01*
X45950Y60275D02*
X46100Y60125D01*
X45750Y61625D02*
X45950Y61425D01*
Y60275D02*
Y61425D01*
X46375Y60275D02*
Y62575D01*
X45500Y61625D02*
X45750D01*
X45675Y62050D02*
X45825D01*
X45955Y62180D02*
Y62395D01*
X45825Y62050D02*
X45955Y62180D01*
X45375Y62975D02*
X45955Y62395D01*
X45375Y62975D02*
Y66425D01*
X45800Y63150D02*
Y66000D01*
Y63150D02*
X46375Y62575D01*
X46860Y63595D02*
X47450Y63005D01*
X46860Y63595D02*
Y64470D01*
X47450Y62400D02*
Y63005D01*
X37525Y63300D02*
X40025D01*
X37355Y63130D02*
X37525Y63300D01*
X38025Y62700D02*
X38200Y62875D01*
X40425D01*
X40050Y61556D02*
Y61950D01*
X42275Y61450D02*
Y64375D01*
X41850Y61625D02*
Y64875D01*
X44950Y65075D02*
Y65325D01*
X44850Y64975D02*
X44950Y65075D01*
Y66900D02*
X45080Y67030D01*
X44950Y65330D02*
Y66900D01*
X45375Y66425D02*
X45525Y66575D01*
X45800Y66000D02*
X45955Y66155D01*
X44600Y65094D02*
Y66925D01*
X44719Y64975D02*
X44850D01*
X44600Y65094D02*
X44719Y64975D01*
X43750Y64375D02*
Y66025D01*
X44180Y64920D02*
X44950Y64150D01*
X44180Y64920D02*
Y66445D01*
X42275Y64375D02*
X42905Y65005D01*
Y66255D01*
X42485Y65185D02*
Y66490D01*
X42325Y65025D02*
X42485Y65185D01*
X42000Y65025D02*
X42325D01*
X42375Y66600D02*
X42485Y66490D01*
X41950Y66600D02*
X42375D01*
X41820Y66730D02*
X41950Y66600D01*
X43386Y66111D02*
Y66117D01*
X43325Y66050D02*
X43386Y66111D01*
X42905Y66255D02*
X43250Y66600D01*
X44025D01*
X43444Y66175D02*
X43600D01*
X43386Y66117D02*
X43444Y66175D01*
X41850Y64875D02*
X42000Y65025D01*
X42065Y65690D02*
Y65860D01*
X41425Y65050D02*
X42065Y65690D01*
X41400Y66525D02*
X41750Y66175D01*
X41725Y66200D02*
X42065Y65860D01*
X41400Y66525D02*
Y68950D01*
X43600Y66175D02*
X43750Y66025D01*
X44025Y66600D02*
X44180Y66445D01*
X40938Y61263D02*
X40950Y61250D01*
X40550Y61650D02*
X40938Y61263D01*
X40550Y61650D02*
Y62275D01*
X45080Y67030D02*
X47811D01*
X44495D02*
X44600Y66925D01*
X41895Y67030D02*
X44495D01*
X49875Y66155D02*
X50225Y66505D01*
X49120Y66155D02*
X49875D01*
X49751Y66625D02*
X50051Y66925D01*
X49275Y66625D02*
X49751D01*
X49577Y67045D02*
X49877Y67345D01*
X49449Y67045D02*
X49577D01*
X49877Y67345D02*
X51880D01*
X50051Y66925D02*
X51706D01*
X50225Y66505D02*
X51340D01*
X45525Y66575D02*
X47950D01*
X41950Y67450D02*
X47637D01*
X44020Y67880D02*
X46805D01*
X43925Y67975D02*
X44020Y67880D01*
X43925Y67975D02*
Y69700D01*
X43850Y69775D02*
X43925Y69700D01*
X43575Y69775D02*
X43850D01*
X43500Y69700D02*
X43575Y69775D01*
X43500Y68000D02*
Y69700D01*
X43375Y67875D02*
X43500Y68000D01*
X42450Y67875D02*
X43375D01*
X42230Y68095D02*
X42450Y67875D01*
X42920Y68295D02*
X43075Y68450D01*
X42755Y68295D02*
X42920D01*
X42650Y68400D02*
X42755Y68295D01*
X44450Y68300D02*
X46400D01*
X44360Y68390D02*
X44450Y68300D01*
X47450Y60705D02*
Y61650D01*
Y60705D02*
X47755Y60400D01*
X46860Y64470D02*
X47400Y65010D01*
X50335D01*
X39975Y62025D02*
X40050Y61950D01*
X41820Y66730D02*
Y66955D01*
X41895Y67030D01*
X40825Y66000D02*
X40975Y65850D01*
X41810Y67590D02*
X41950Y67450D01*
X41810Y67590D02*
Y68950D01*
X40975Y67175D02*
Y69325D01*
X40900Y67100D02*
X40975Y67175D01*
X40625Y67100D02*
X40900D01*
X40550Y67175D02*
Y70475D01*
Y67175D02*
X40625Y67100D01*
X42230Y68095D02*
Y69570D01*
X46925Y68000D02*
Y68688D01*
X46805Y67880D02*
X46925Y68000D01*
X52059Y70441D02*
X52250Y70250D01*
X52059Y70441D02*
Y70641D01*
X52250Y70250D02*
X54475D01*
X57265Y70285D02*
X57410Y70140D01*
X54510Y70285D02*
X57265D01*
X57410Y68315D02*
X57525Y68200D01*
X41785Y71110D02*
Y72065D01*
X41615Y72235D02*
X41785Y72065D01*
X45500Y73225D02*
X45775Y73500D01*
X45350Y73225D02*
X45500D01*
X45075Y73500D02*
X45350Y73225D01*
X37295Y73500D02*
X45075D01*
X44870Y73080D02*
X45200Y72750D01*
X43205Y73080D02*
X44870D01*
X45950Y73075D02*
X47625D01*
X45650Y72775D02*
X45950Y73075D01*
X45650Y69250D02*
Y72775D01*
X45200Y69250D02*
Y72750D01*
X35635Y71840D02*
X37295Y73500D01*
X36844Y74550D02*
X49825D01*
X36675Y74975D02*
X50200D01*
X36425Y75400D02*
X55600D01*
X36375Y75825D02*
X57877D01*
X33975Y73425D02*
X36375Y75825D01*
X34300Y73275D02*
X36425Y75400D01*
X52775Y72000D02*
X52851Y72076D01*
Y72476D02*
X52949Y72574D01*
X52851Y72076D02*
Y72476D01*
X52519Y72994D02*
X53656D01*
X52431Y72906D02*
X52519Y72994D01*
X52431Y72506D02*
Y72906D01*
X53725Y72025D02*
Y72925D01*
X53656Y72994D02*
X53725Y72925D01*
X60435Y67065D02*
X60610Y67240D01*
X53450Y74050D02*
X57870D01*
X61660Y70260D01*
Y66210D02*
Y70260D01*
X57275Y74550D02*
X57355Y74470D01*
X58044D01*
X62080Y70434D01*
Y66036D02*
Y70434D01*
X59825Y66000D02*
X61450D01*
X59675Y65850D02*
X59825Y66000D01*
X62500Y65862D02*
Y70608D01*
X62920Y65670D02*
Y70782D01*
X60127Y70282D02*
X60610Y69799D01*
X58928Y71222D02*
X59425Y70725D01*
X58340Y71804D02*
X58922Y71222D01*
X60025Y70275D02*
X60120D01*
X59575Y70725D02*
X60025Y70275D01*
X59425Y70725D02*
X59575D01*
X58922Y71222D02*
X58928D01*
X58340Y71804D02*
Y71935D01*
X58820Y70730D02*
X58823D01*
X58025Y71525D02*
X58820Y70730D01*
X57725Y71525D02*
X58025D01*
X59415Y70285D02*
X59610Y70090D01*
X59268Y70285D02*
X59415D01*
X59222Y70331D02*
X59268Y70285D01*
X59222Y70331D02*
Y70331D01*
X58823Y70730D02*
X59222Y70331D01*
X59610Y69774D02*
Y70090D01*
Y69774D02*
X59840Y69544D01*
X58250Y69025D02*
X58650Y68625D01*
X57831Y71100D02*
X58646Y70285D01*
X56395Y69055D02*
X56665Y68785D01*
Y68210D02*
Y68785D01*
X55875Y72050D02*
X55975Y71950D01*
X55875Y72050D02*
Y72875D01*
X53725Y72025D02*
X53800Y71950D01*
X48506Y72425D02*
X48625Y72544D01*
X57700Y72450D02*
X57825D01*
X57600Y72350D02*
X57700Y72450D01*
X57825D02*
X58340Y71935D01*
X43075Y72950D02*
X43205Y73080D01*
X49345Y73500D02*
X49851Y72994D01*
X50325Y74050D02*
X51100D01*
X49825Y74550D02*
X50325Y74050D01*
X50300Y74669D02*
Y74875D01*
Y74669D02*
X50469Y74500D01*
X50675D01*
X35525Y73231D02*
X36844Y74550D01*
X35525Y73230D02*
Y73231D01*
X57950Y74900D02*
X58175D01*
X57700Y75150D02*
X57950Y74900D01*
X61450Y66000D02*
X61660Y66210D01*
X35330Y73630D02*
X36675Y74975D01*
X60805Y64970D02*
X61014D01*
X60750Y65025D02*
X60805Y64970D01*
X60750Y65025D02*
Y65425D01*
X60600Y65575D02*
X60750Y65425D01*
X60400Y65575D02*
X60600D01*
X60250Y65425D02*
X60400Y65575D01*
X60675Y64475D02*
X61113D01*
X61014Y64970D02*
X62080Y66036D01*
X61113Y64475D02*
X62500Y65862D01*
X60700Y63450D02*
X62920Y65670D01*
X59025Y63450D02*
X60700D01*
X60455Y64255D02*
X60675Y64475D01*
X58650Y63825D02*
X59025Y63450D01*
X58260Y64215D02*
X59620D01*
X59850Y64445D02*
Y65170D01*
X59620Y64215D02*
X59850Y64445D01*
X60115Y64255D02*
X60455D01*
X59685Y63825D02*
X60115Y64255D01*
X58208Y74900D02*
X62500Y70608D01*
X58100Y74900D02*
X58208D01*
X57877Y75825D02*
X62920Y70782D01*
X58650Y68625D02*
Y68625D01*
X57570Y70680D02*
X58150Y70100D01*
X54445Y69055D02*
X56395D01*
X54240Y69260D02*
X54445Y69055D01*
X54240Y69260D02*
Y69665D01*
X54080Y69825D02*
X54240Y69665D01*
X54475Y70250D02*
X54510Y70285D01*
X41400Y68950D02*
X41505Y69055D01*
X41125Y69475D02*
X41500D01*
X41800Y69775D01*
X40975Y69325D02*
X41125Y69475D01*
X46400Y68300D02*
X46500Y68400D01*
X46925Y68688D02*
Y70575D01*
X46925Y68688D02*
X46925Y68688D01*
X47350Y68519D02*
Y70125D01*
X47350Y68519D02*
X47350Y68519D01*
X47350Y67950D02*
Y68519D01*
X46070Y68870D02*
Y72495D01*
X45925Y68725D02*
X46070Y68870D01*
X46500Y68400D02*
Y72125D01*
X47525Y70300D02*
X51600D01*
X47350Y70125D02*
X47525Y70300D01*
X41705Y69055D02*
X41810Y68950D01*
X41505Y69055D02*
X41705D01*
X42025Y69775D02*
X42230Y69570D01*
X41800Y69775D02*
X42025D01*
X41305Y69905D02*
X41525Y70125D01*
X41070Y69905D02*
X41305D01*
X40970Y70005D02*
X41070Y69905D01*
X42495Y70205D02*
X42650Y70050D01*
Y68400D02*
Y70050D01*
X43075Y69975D02*
X43300Y70200D01*
X43075Y68450D02*
Y69975D01*
X43300Y70200D02*
X43800D01*
X43300D02*
X43306Y70206D01*
X40970Y70005D02*
Y70295D01*
X41785Y71110D01*
X40550Y70475D02*
X41350Y71275D01*
X51975Y70725D02*
X52059Y70641D01*
X47075Y70725D02*
X51975D01*
X52479Y70796D02*
Y71071D01*
X52400Y71150D02*
X52479Y71071D01*
X47050Y71150D02*
X52400D01*
X51600Y70300D02*
X52075Y69825D01*
X50200Y74975D02*
X50300Y74875D01*
X52479Y70796D02*
X52595Y70680D01*
X52899Y71226D02*
X53025Y71100D01*
X57831D01*
X52899Y71226D02*
Y71476D01*
X52595Y70680D02*
X57358D01*
Y70680D02*
X57570D01*
X53450Y71525D02*
X57725D01*
X55775Y72975D02*
X55875Y72875D01*
X55525Y72975D02*
X55775D01*
X55425Y72875D02*
X55525Y72975D01*
X55425Y72050D02*
Y72875D01*
X55325Y71950D02*
X55425Y72050D01*
X53800Y71950D02*
X55325D01*
X42019Y70375D02*
X42189Y70205D01*
X41775Y70375D02*
X42019D01*
X41525Y70125D02*
X41775Y70375D01*
X41350Y71275D02*
Y71650D01*
X42189Y70205D02*
X42495D01*
X44360Y68390D02*
Y72090D01*
X45550Y69150D02*
X45650Y69250D01*
X45300Y69150D02*
X45550D01*
X45200Y69250D02*
X45300Y69150D01*
X44925Y68725D02*
X45925D01*
X44780Y68870D02*
X44925Y68725D01*
X43920Y70320D02*
Y72100D01*
X43800Y70200D02*
X43920Y70320D01*
X52595Y70680D02*
X52600Y70675D01*
X52075Y69825D02*
X54080D01*
X46600Y72225D02*
Y72225D01*
X46500Y72125D02*
X46600Y72225D01*
X46825Y72225D02*
X46925Y72125D01*
X46600Y72225D02*
X46825D01*
X46225Y72650D02*
X47225D01*
X46925Y71275D02*
Y72125D01*
X44050Y72230D02*
X44220D01*
X44360Y72090D01*
X43920Y72100D02*
X44050Y72230D01*
X42970Y71045D02*
X43075Y71150D01*
X42730Y71045D02*
X42970D01*
X42625Y71150D02*
X42730Y71045D01*
X43275Y70625D02*
X43500Y70850D01*
X42425Y70625D02*
X43275D01*
X42205Y70845D02*
X42425Y70625D01*
X43075Y71150D02*
Y71425D01*
X42625Y71150D02*
Y73000D01*
X51500Y71575D02*
X52800D01*
X51325Y71750D02*
X51500Y71575D01*
X51025D02*
X51200Y71750D01*
X50025Y71575D02*
X51025D01*
X51200Y71750D02*
X51325D01*
X51675Y72000D02*
X52775D01*
X51580Y72095D02*
X51675Y72000D01*
X51580Y72095D02*
Y72520D01*
X51526Y72574D02*
X51580Y72520D01*
X51024Y72574D02*
X51526D01*
X51906Y72994D02*
X52000Y72900D01*
X50669Y72994D02*
X51906D01*
X52345Y72420D02*
X52431Y72506D01*
X53300Y71675D02*
Y72500D01*
Y71675D02*
X53450Y71525D01*
X52800Y71575D02*
X52899Y71476D01*
X52949Y72574D02*
X53226D01*
X53300Y72500D01*
X49550Y71650D02*
Y71850D01*
X49400Y72000D02*
X49550Y71850D01*
X49275Y72000D02*
X49400D01*
X49675Y72325D02*
X50000Y72000D01*
X49675Y72325D02*
Y72575D01*
X50205Y72420D02*
X50470D01*
X50100Y72525D02*
X50205Y72420D01*
X49100Y71825D02*
X49275Y72000D01*
X49100Y71700D02*
Y71825D01*
X48975Y71575D02*
X49100Y71700D01*
X47425Y71575D02*
X48975D01*
X49550Y71650D02*
X49625Y71575D01*
X50025D01*
X49045Y72370D02*
Y72720D01*
X48675Y72000D02*
X49045Y72370D01*
X47950Y72000D02*
X48675D01*
X50000D02*
X50850D01*
X43500Y70850D02*
Y72525D01*
X49100Y72775D02*
X49475D01*
X49045Y72720D02*
X49100Y72775D01*
X47625Y73075D02*
X47765Y72935D01*
Y72185D02*
Y72935D01*
Y72185D02*
X47950Y72000D01*
X47225Y72650D02*
X47345Y72530D01*
Y71655D02*
Y72530D01*
Y71655D02*
X47425Y71575D01*
X46925Y71275D02*
X47050Y71150D01*
X59860Y68215D02*
X60190Y67885D01*
X59860Y68215D02*
X59860D01*
X42205Y70845D02*
Y72545D01*
X47750Y69400D02*
X48250Y68900D01*
Y68625D02*
Y68900D01*
X43625Y72650D02*
X44625D01*
X44780Y68870D02*
Y72495D01*
X44625Y72650D02*
X44780Y72495D01*
X43500Y72525D02*
X43625Y72650D01*
X46070Y72495D02*
X46225Y72650D01*
X42095Y72655D02*
X42205Y72545D01*
X42550Y73075D02*
X42625Y73000D01*
X43075Y71430D02*
Y71650D01*
X43075Y71655D02*
Y72875D01*
X43075Y72800D02*
Y72950D01*
X57700Y75150D02*
Y75275D01*
X57575Y75400D02*
X57700Y75275D01*
X56750Y75400D02*
X57575D01*
X56500Y75150D02*
X56750Y75400D01*
X55850Y75150D02*
X56500D01*
X55600Y75400D02*
X55850Y75150D01*
X49450Y69025D02*
Y69050D01*
X49050Y68625D02*
X49450Y69025D01*
X60250Y68625D02*
Y68875D01*
X47725Y68350D02*
X48250Y67825D01*
X60445Y63825D02*
X60515Y63895D01*
X49850Y64625D02*
X50250Y64225D01*
X50650Y64625D02*
X51050Y64225D01*
X53850Y67325D02*
Y67825D01*
X49850Y67825D02*
X50250Y68225D01*
X49850Y68625D02*
X50250Y69025D01*
X47890Y63465D02*
X48250Y63825D01*
X49450Y62350D02*
Y63425D01*
X48650Y63425D02*
X49050Y63825D01*
X49450Y63425D02*
X49850Y63825D01*
X54250Y63425D02*
X54650Y63825D01*
X55450Y62435D02*
Y62525D01*
X51450Y69425D02*
Y69525D01*
X57050Y63825D02*
X57070D01*
X56250D02*
X56650Y63425D01*
X48650Y62350D02*
Y63425D01*
X52250Y68625D02*
X52650Y68225D01*
X52250Y67825D02*
X52550Y67525D01*
Y67325D02*
Y67525D01*
X51450Y67825D02*
X51830Y68205D01*
X51450Y68625D02*
X51850Y69025D01*
X50650Y67825D02*
X51050Y68225D01*
X50650Y68625D02*
X51050Y69025D01*
X56665Y68210D02*
X57050Y67825D01*
X56240Y65435D02*
X57050Y64625D01*
X30510Y69340D02*
X30520Y69330D01*
X57850Y64625D02*
X58260Y64215D01*
X59450Y63825D02*
X59685D01*
X60250D02*
X60445D01*
X57420Y70680D02*
X57425D01*
X50850Y72000D02*
X50975Y72125D01*
Y72525D01*
X51024Y72574D01*
X50470Y72420D02*
X50550Y72500D01*
Y72875D01*
X50669Y72994D01*
X49475Y72775D02*
X49675Y72575D01*
X46925Y70575D02*
X47075Y70725D01*
X58650Y63825D02*
Y63825D01*
X52850Y74050D02*
X52925Y74125D01*
X53375Y74125D02*
X53450Y74050D01*
X51700D02*
X52850D01*
X59675Y65325D02*
X59830Y65170D01*
X51625Y74125D02*
X51700Y74050D01*
X52500Y74850D02*
X52500Y74850D01*
X59675Y65325D02*
Y65850D01*
X60250Y65298D02*
Y65425D01*
X52400Y74475D02*
X52500Y74575D01*
Y74850D01*
X52050Y74550D02*
X52125Y74475D01*
X52400D01*
X52925Y74125D02*
Y74475D01*
X53375Y74125D02*
Y74475D01*
X52500Y74850D02*
Y74900D01*
X57275Y74550D02*
Y74900D01*
X51625Y74125D02*
Y74475D01*
X52050Y74550D02*
Y74900D01*
X52925Y74475D02*
X53000Y74550D01*
X53300D01*
X53375Y74475D01*
X52500Y74900D02*
X52575Y74975D01*
X53725D01*
X53800Y74900D01*
Y74600D02*
Y74900D01*
Y74600D02*
X53925Y74475D01*
X54125D01*
X54250Y74600D01*
Y74850D01*
X54375Y74975D01*
X54600D01*
X54775Y74800D01*
X54925D01*
X55100Y74975D01*
X55400D01*
X55550Y74825D01*
Y74550D02*
Y74825D01*
Y74550D02*
X55630Y74470D01*
X56745D02*
X56825Y74550D01*
Y74875D01*
X56925Y74975D01*
X57200D01*
X57275Y74900D01*
X51100Y74050D02*
X51175Y74125D01*
Y74450D01*
X51275Y74550D01*
X51550D01*
X51625Y74475D01*
X50675Y74500D02*
X50750Y74575D01*
Y74900D01*
X50825Y74975D01*
X51975D01*
X52050Y74900D01*
X37675Y64769D02*
X37874Y64570D01*
X39700Y65825D02*
X39875Y66000D01*
X40825D01*
X39450Y65150D02*
X39700Y64900D01*
Y64650D02*
Y64900D01*
Y65625D02*
Y65825D01*
X37874Y64570D02*
X38000D01*
X38530Y65100D01*
X47350Y67950D02*
X47425Y67875D01*
X47600D01*
X47775Y67700D01*
X55850Y68225D02*
X56250Y68625D01*
X55175D02*
X55450D01*
X47950Y66575D02*
X48300Y66925D01*
X47811Y67030D02*
X48126Y67345D01*
X47637Y67450D02*
X47775Y67588D01*
Y67700D01*
X40125Y65430D02*
X40275Y65580D01*
X40125Y64481D02*
Y65430D01*
X40400Y65580D02*
X40550Y65430D01*
X40275Y65580D02*
X40400D01*
X37700Y64150D02*
X38175D01*
X38525Y64500D01*
X38806D01*
X39794Y64150D02*
X40125Y64481D01*
X39325Y64575D02*
X39625D01*
X39700Y64650D01*
X38806Y64500D02*
X39156Y64150D01*
X39794D01*
X40025Y63725D02*
X40130Y63620D01*
X48130Y66155D02*
X48480Y66505D01*
X48126Y67345D02*
X49149D01*
X48300Y66925D02*
X48975D01*
X49149Y67345D02*
X49449Y67045D01*
X48975Y66925D02*
X49275Y66625D01*
X48480Y66505D02*
X48770D01*
X49120Y66155D01*
X45955D02*
X48130D01*
X40025Y63300D02*
X40130Y63405D01*
Y63620D01*
X40425Y62875D02*
X40550Y63000D01*
Y65430D01*
X40375Y62450D02*
X40550Y62275D01*
X40975Y61844D02*
X41119Y61700D01*
X40975Y61844D02*
Y65850D01*
X56725Y60650D02*
X56810Y60735D01*
X56700Y59325D02*
X56800Y59225D01*
X56725Y58900D02*
X56800Y58975D01*
Y59225D01*
X53950Y60500D02*
X54100Y60650D01*
X56725D01*
X54450Y59325D02*
X56700D01*
X53950Y59825D02*
Y60500D01*
Y59825D02*
X54450Y59325D01*
X54500Y59875D02*
X54625Y59750D01*
X41730Y58895D02*
X42000Y58625D01*
X41320Y58895D02*
X41730D01*
X40925Y58625D02*
X41050D01*
X41320Y58895D01*
X40655D02*
X40925Y58625D01*
X52425Y58200D02*
X52930Y58705D01*
X56075Y58900D02*
X56725D01*
X47830Y58980D02*
X48201D01*
X47900Y58450D02*
X48125D01*
X38850Y57575D02*
X39055Y57780D01*
X37355Y62673D02*
Y63130D01*
Y62673D02*
X38003Y62025D01*
X39975D01*
X36935Y62499D02*
X38104Y61329D01*
X38374D01*
X38575Y59150D02*
X38725D01*
X38425Y59000D02*
X38575Y59150D01*
X38425Y58894D02*
Y59000D01*
Y58894D02*
X38694Y58625D01*
X38000Y58725D02*
X38525Y58200D01*
X38550Y57575D02*
X38850D01*
X39025Y57150D02*
X39225Y57350D01*
X38375Y57150D02*
X39025D01*
X52850Y57700D02*
Y58025D01*
X53110Y58285D01*
X48375Y59400D02*
X48725Y59050D01*
X52050D01*
X48201Y58980D02*
X48556Y58625D01*
X52250D01*
X52725Y57575D02*
X52850Y57700D01*
X53275Y57675D02*
X53375Y57775D01*
X53550D01*
X53700Y57625D01*
X53150Y57150D02*
X53275Y57275D01*
Y57675D01*
X55875Y58700D02*
X56075Y58900D01*
X52175Y57350D02*
X52375Y57150D01*
X53150D01*
X52544Y57575D02*
X52725D01*
X52339Y57780D02*
X52544Y57575D01*
X51470Y57995D02*
X51675Y58200D01*
X52425D01*
X51644Y57575D02*
X51849Y57780D01*
X52339D01*
X52013Y57350D02*
X52175D01*
X51813Y57150D02*
X52013Y57350D01*
X50775D02*
X50975Y57150D01*
X51813D01*
X51144Y57575D02*
X51644D01*
X51318Y57995D02*
X51470D01*
X51113Y58200D02*
X51318Y57995D01*
X50944Y57775D02*
X51144Y57575D01*
X50430Y57155D02*
X50625Y57350D01*
X50775D01*
X50082Y57995D02*
X50287Y58200D01*
X50256Y57575D02*
X50456Y57775D01*
X50944D01*
X50287Y58200D02*
X51113D01*
X49425Y57350D02*
X49620Y57155D01*
X50430D01*
X49599Y57770D02*
X49794Y57575D01*
X50256D01*
X49773Y58190D02*
X49968Y57995D01*
X50082D01*
X48385Y58190D02*
X49773D01*
X48125Y58450D02*
X48385Y58190D01*
X58075Y59425D02*
X58225Y59275D01*
X53525Y59325D02*
X53825D01*
X54450Y58700D01*
X55875D01*
X53110Y58285D02*
X53665D01*
X52930Y58705D02*
X53845D01*
X40750Y58200D02*
X41219D01*
X54175Y58369D02*
Y58375D01*
X53845Y58705D02*
X54175Y58375D01*
X54275Y58275D01*
X39055Y57780D02*
X39570D01*
X39775Y57575D01*
X39225Y57350D02*
X39406D01*
X39606Y57150D01*
X40100D01*
X40300Y57350D01*
X39775Y57575D02*
X39931D01*
X40136Y57780D01*
X40645D01*
X40850Y57575D01*
X40300Y57350D02*
X40481D01*
X40676Y57155D01*
X41180D01*
X41375Y57350D01*
X40850Y57575D02*
X41006D01*
X41206Y57775D01*
X41700D01*
X41900Y57575D01*
X41375Y57350D02*
X41531D01*
X41731Y57150D01*
X42275D01*
X42475Y57350D01*
X41900Y57575D02*
X42106D01*
X42311Y57780D01*
X43861D02*
X44345D01*
X44025Y57350D02*
X44181D01*
X42311Y57780D02*
X42801D01*
X43180Y57995D02*
X43482D01*
X43687Y58200D01*
X42801Y57780D02*
X43006Y57575D01*
X43656D01*
X43861Y57780D01*
X42825Y57150D02*
X43825D01*
X44025Y57350D01*
X42625D02*
X42825Y57150D01*
X42475Y57350D02*
X42625D01*
X43687Y58200D02*
X44525D01*
X44725Y58000D01*
X44345Y57780D02*
X44570Y57555D01*
X44181Y57350D02*
X44396Y57135D01*
X47475Y58625D02*
X47481D01*
X47475D02*
X47830Y58980D01*
X47650Y59400D02*
X48375D01*
X47300Y59050D02*
X47306D01*
X47300D02*
X47650Y59400D01*
X44725Y58000D02*
X44925D01*
X45248Y57135D02*
X45448Y57335D01*
X44570Y57555D02*
X45074D01*
X44396Y57135D02*
X45248D01*
X43325Y59050D02*
X47300D01*
X44925Y58000D02*
X45125Y58200D01*
X47650D02*
X47900Y58450D01*
X45074Y57555D02*
X45299Y57780D01*
X45448Y57335D02*
X45621D01*
X45822Y57134D01*
X45299Y57780D02*
X45770D01*
X45950Y57600D01*
X45125Y58200D02*
X45950D01*
X46125Y58025D01*
X45822Y57134D02*
X46559D01*
X46785Y57360D01*
X45950Y57600D02*
X46431D01*
X46611Y57780D01*
X46125Y58025D02*
X46262D01*
X46437Y58200D01*
X47650D01*
X46611Y57780D02*
X47120D01*
X47325Y57575D01*
X46785Y57360D02*
X46946D01*
X47156Y57150D01*
X47650D01*
X47850Y57350D01*
X47325Y57575D02*
X47481D01*
X47676Y57770D01*
X56255Y58480D02*
X57155D01*
X57225Y58550D01*
X54375Y61800D02*
Y61900D01*
Y61800D02*
X54480Y61695D01*
X56225Y61500D02*
X56350D01*
X57100Y60175D02*
X57230Y60305D01*
Y61051D01*
X54625Y59750D02*
X57100D01*
X57225Y59625D01*
Y58550D02*
Y59625D01*
X54500Y59875D02*
Y60050D01*
X54625Y60175D01*
X57100D01*
X58075Y59425D02*
Y61650D01*
X54375Y61900D02*
Y62050D01*
X53950Y61400D02*
Y62375D01*
X54140Y62565D01*
X54140D01*
X57650Y59025D02*
Y61250D01*
Y59025D02*
X57825Y58850D01*
X57125Y58050D02*
X57325Y57850D01*
X56425Y58050D02*
X57125D01*
X56605Y57630D02*
X56951D01*
X47850Y57350D02*
X48100D01*
X49200D02*
X49425D01*
X48100D02*
X48300Y57150D01*
X49000D01*
X49200Y57350D01*
X47676Y57770D02*
X48280D01*
X48475Y57575D01*
X48825D01*
X49020Y57770D01*
X49599D01*
X57325Y57850D02*
X57500D01*
X57975Y58325D01*
X58150D01*
X58525Y57950D01*
X57900Y57625D02*
X58250D01*
X53700Y57325D02*
Y57625D01*
X58525Y57950D02*
X58700D01*
X59025Y58275D01*
X59225D01*
X59450Y58050D01*
X56125Y57150D02*
X56605Y57630D01*
X53700Y57325D02*
X53875Y57150D01*
X53665Y58285D02*
X54375Y57575D01*
X55950D02*
X56425Y58050D01*
X54375Y57575D02*
X54575D01*
X54855Y57855D01*
X55270D01*
X55550Y57575D01*
X55950D01*
X54750Y57150D02*
X54950Y57350D01*
X55181D01*
X55381Y57150D01*
X56125D01*
X53875D02*
X54750D01*
X57825Y58850D02*
X59575D01*
X59800Y58625D01*
X59450Y58050D02*
X59625D01*
X59800Y58225D01*
Y58625D01*
X54250Y62675D02*
Y63425D01*
X54140Y62565D02*
X54250Y62675D01*
X54375Y62050D02*
X54450Y62125D01*
X54950D01*
X56810Y60735D02*
Y60865D01*
X57525Y62200D02*
X58075Y61650D01*
X54950Y62125D02*
X55050Y62225D01*
Y64225D01*
X54075Y61275D02*
X55775D01*
X55975Y61075D01*
X54480Y61695D02*
X56030D01*
X56225Y61500D01*
X55875Y62250D02*
Y64250D01*
Y62250D02*
X55975Y62150D01*
X56425D01*
X56650Y61925D01*
X56650Y62575D02*
X56925Y62300D01*
X56650Y62575D02*
Y63425D01*
X55975Y61075D02*
X56600D01*
X56810Y60865D01*
X56355Y61500D02*
X56781D01*
X57230Y61051D01*
X56650Y61925D02*
X56975D01*
X57650Y61250D01*
X57150Y62200D02*
X57525D01*
X56925Y62300D02*
X57050D01*
X57150Y62200D01*
X56951Y57630D02*
X57306Y57275D01*
X57550D01*
X57900Y57625D01*
X58250D02*
X58600Y57275D01*
X59575D01*
X60250Y57950D01*
X58225Y59275D02*
X59900D01*
X60250Y58925D01*
Y57950D02*
Y58925D01*
X36275Y64150D02*
X36935Y63490D01*
Y62499D02*
Y63490D01*
X36275Y64150D02*
Y64150D01*
X36987Y64863D02*
X37700Y64150D01*
X36650Y64375D02*
X37300Y63725D01*
X40025D01*
X37675Y64769D02*
Y64975D01*
X47725Y68350D02*
Y68900D01*
X48650Y68225D02*
Y69025D01*
Y68225D02*
X49050Y67825D01*
X53025Y67500D02*
X53200Y67325D01*
X53025Y67500D02*
Y67800D01*
X53050Y67825D01*
X52650Y69025D02*
X53050Y69425D01*
X47750Y69400D02*
Y69925D01*
X35982Y71593D02*
X37464Y73075D01*
X42550D01*
X36329Y71346D02*
X37638Y72655D01*
X42095D01*
X36715Y71115D02*
X37835Y72235D01*
X41615D01*
X51412Y61912D02*
X51425Y61900D01*
X37675Y60250D02*
X39100D01*
X37500Y59825D02*
X38675D01*
X35430Y61901D02*
X37501Y59830D01*
X37700D01*
X35004Y61728D02*
X37326Y59405D01*
X37895D01*
X35850Y62075D02*
Y62875D01*
Y62075D02*
X37675Y60250D01*
X35430Y61901D02*
Y62445D01*
X34835Y63041D02*
X35430Y62445D01*
X35004Y61734D02*
Y62278D01*
X34795Y62486D02*
X35004Y62278D01*
X34583Y61542D02*
Y62104D01*
X34395Y62293D02*
X34583Y62104D01*
X34164Y61361D02*
X34250Y61275D01*
X34164Y61361D02*
Y61361D01*
Y61930D01*
X34125Y61969D02*
X34164Y61930D01*
X34583Y61542D02*
X38550Y57575D01*
X34164Y61361D02*
X38375Y57150D01*
X33975Y62125D02*
X34150Y61950D01*
X33720Y61305D02*
Y61975D01*
Y61305D02*
X36925Y58100D01*
Y56550D02*
Y58100D01*
X32834Y71300D02*
X33025D01*
D29*
X30173Y66448D02*
X30200Y66420D01*
X29845Y66775D02*
X30173Y66448D01*
X33550Y66025D02*
X33575D01*
X33175D02*
X33550D01*
X33500Y68725D02*
X33525Y68700D01*
X33075Y66125D02*
X33175Y66025D01*
X32775Y66425D02*
X33075Y66125D01*
X31150Y70675D02*
Y70675D01*
X32125Y69725D02*
X32150Y69750D01*
X31775Y69375D02*
X32125Y69725D01*
X33575Y66525D02*
X33600Y66500D01*
X33550Y66550D02*
X33575Y66525D01*
X30475Y69375D02*
X30510Y69340D01*
X30225Y69625D02*
X30475Y69375D01*
X31462Y68387D02*
X31775Y68075D01*
X31125Y68725D02*
X31462Y68387D01*
X30830Y69020D02*
X31125Y68725D01*
X30475Y66775D02*
X31125Y66125D01*
X30163Y67088D02*
X30475Y66775D01*
X31775D02*
X32425Y66125D01*
X31462Y67088D02*
X31775Y66775D01*
X31125Y67425D02*
X31462Y67088D01*
X30475Y68075D02*
X31125Y67425D01*
X30163Y68387D02*
X30475Y68075D01*
X29825Y68725D02*
X30163Y68387D01*
X29225Y69325D02*
X29825Y68725D01*
X29825Y67425D02*
X30163Y67088D01*
X29175Y68075D02*
X29825Y67425D01*
X28850Y68400D02*
X29175Y68075D01*
X30525Y65425D02*
X30525Y65425D01*
X30175Y65075D02*
X30525Y65425D01*
X30212Y65037D02*
X30368Y64882D01*
X30200Y65050D02*
X30212Y65037D01*
X30188D02*
X30200Y65050D01*
X29975Y64825D02*
X30188Y65037D01*
X31775Y68725D02*
X31825Y68675D01*
X31462Y69037D02*
X31775Y68725D01*
X31125Y69375D02*
X31462Y69037D01*
X30475Y70025D02*
X31125Y69375D01*
X30188Y70312D02*
X30475Y70025D01*
X31825Y67375D02*
X32475Y68025D01*
X31775Y67425D02*
X31825Y67375D01*
X31462Y67738D02*
X31775Y67425D01*
X31125Y68075D02*
X31462Y67738D01*
X31175Y66725D02*
X31462Y66438D01*
X30475Y68725D02*
X31125Y68075D01*
X30163Y69037D02*
X30475Y68725D01*
X29825Y69375D02*
X30163Y69037D01*
X31125Y66775D02*
X31175Y66725D01*
X30475Y67425D02*
X31125Y66775D01*
X30163Y67738D02*
X30475Y67425D01*
X29825Y68075D02*
X30163Y67738D01*
X29175Y68725D02*
X29825Y68075D01*
X28900Y69000D02*
X29175Y68725D01*
X32150Y69700D02*
Y69750D01*
X32425Y70025D01*
X31825Y67375D02*
X32425Y66775D01*
X31825Y68675D02*
X32425Y68075D01*
X25200Y66575D02*
X25975D01*
X25700Y63300D02*
X25975Y63575D01*
X27875Y66775D02*
X28525D01*
X25150Y69575D02*
X25975D01*
X25575Y72675D02*
X25875D01*
X25975Y72575D01*
X29175Y66125D02*
X29825D01*
X28900Y66400D02*
X29175Y66125D01*
X30667Y64882D02*
X30975Y64575D01*
X33600Y66500D02*
X33900D01*
X33550Y68025D02*
X33925D01*
X33825Y69725D02*
X33975Y69575D01*
X33550Y69725D02*
X33825D01*
X33748Y71075D02*
X33975D01*
X32775Y67125D02*
X33075Y67425D01*
X32775Y67725D02*
X33075Y67425D01*
X32775Y69025D02*
X33075Y68725D01*
X28850Y67750D02*
X29175Y67425D01*
X29500Y67100D02*
X29825Y66775D01*
X31125Y70025D02*
X31450Y69700D01*
X29175Y67425D02*
X29500Y67100D01*
X29175Y66775D02*
X29500Y67100D01*
X28850Y66450D02*
X28900Y66400D01*
X29175Y66125D02*
Y66125D01*
X28850Y66450D02*
X28850D01*
X28525Y66775D02*
X28850Y66450D01*
X28525Y66125D02*
X28850Y66450D01*
X28525Y66775D02*
X28850Y67100D01*
X28525Y68075D02*
X28850Y67750D01*
X29825Y66775D02*
X29845D01*
X32425Y68075D02*
X32475Y68025D01*
X27975Y62425D02*
Y63575D01*
X31975Y62600D02*
Y63575D01*
X33075Y65475D02*
X33525D01*
X34975Y63425D02*
Y63575D01*
X33900Y66500D02*
X33975Y66575D01*
X33925Y68025D02*
X33975Y68075D01*
X34975D02*
X35725D01*
X31150Y70675D02*
X31475Y70350D01*
X33075Y67425D02*
X33175Y67525D01*
X33075Y68725D02*
X33500D01*
X33075Y70025D02*
X33275Y70225D01*
X31975Y71150D02*
Y71575D01*
X29825Y66125D02*
X29825Y66125D01*
X28850Y66450D02*
X28875Y66425D01*
X28900Y66400D01*
Y66400D02*
Y66400D01*
X28575Y68675D02*
X28850Y68400D01*
X29975Y64575D02*
Y64825D01*
X28475Y72575D02*
Y73200D01*
X33525Y65475D02*
X33550Y65500D01*
Y66550D02*
X33575Y66575D01*
X32775Y67100D02*
Y67125D01*
Y66425D02*
Y67100D01*
Y67725D02*
Y68400D01*
Y69025D02*
Y69675D01*
X33275Y70225D02*
X33550D01*
X29225Y65300D02*
Y65425D01*
X31175Y66725D02*
Y66725D01*
X30520Y69330D02*
X30825Y69025D01*
X10675Y86350D02*
X10675Y86350D01*
X20175Y84275D02*
X20750D01*
X20675Y81725D02*
Y82400D01*
X28675Y91475D02*
X29150Y91000D01*
X30000Y89575D02*
Y89825D01*
X30150Y89975D01*
X28900Y85925D02*
X29150Y85675D01*
Y85475D02*
Y85675D01*
X32150Y89225D02*
X32550Y89625D01*
X35025D01*
X24600Y67175D02*
X25200Y66575D01*
X1600Y96000D02*
Y96250D01*
X30200Y69625D02*
X30225D01*
X33175Y67525D02*
X33550D01*
X28900Y66400D02*
X28900D01*
X30175Y65075D02*
X30175D01*
X30368Y64882D02*
X30667D01*
X34975Y63425D02*
X35200Y63200D01*
X28950Y65025D02*
X29225Y65300D01*
X35725Y68075D02*
X35825Y68175D01*
X33525Y68700D02*
X33550Y68725D01*
X25675Y63300D02*
X25700D01*
X28900Y66400D02*
Y66425D01*
X33775Y60450D02*
Y60575D01*
Y60450D02*
X34350Y59875D01*
Y59000D02*
Y59875D01*
Y59000D02*
X34375Y58975D01*
X33475Y57100D02*
X33625Y56950D01*
Y56525D02*
Y56950D01*
X34125Y56500D02*
X34375Y56750D01*
X33673Y71150D02*
X33748Y71075D01*
X33200Y71150D02*
X33673D01*
X34375Y57100D02*
Y58000D01*
X33125Y81000D02*
Y81100D01*
X30150Y90475D02*
X30650Y90975D01*
X29650D02*
X30150Y90475D01*
Y89975D02*
Y90475D01*
Y90948D02*
Y90975D01*
Y91450D01*
X29650Y90475D02*
Y90475D01*
X29150Y90975D02*
X29650Y90475D01*
X27650Y88975D02*
Y89450D01*
X27150Y88475D02*
X27650Y88975D01*
X28150Y88825D02*
Y88975D01*
X27750Y88425D02*
X28150Y88825D01*
X27150Y87975D02*
X27300D01*
X27750Y88425D01*
X35875Y85725D02*
X35950Y85650D01*
X36500D01*
Y84675D02*
Y85650D01*
X36450Y84625D02*
X36500Y84675D01*
X28650Y86475D02*
Y86725D01*
X28900Y86975D01*
X29400Y87475D01*
X29650D01*
X29150Y86475D02*
X29650Y86975D01*
X30075D01*
X29650Y88475D02*
X30075D01*
X29650Y87475D02*
X30075Y87900D01*
Y88475D01*
X29675Y85925D02*
X29700D01*
X30150Y85475D01*
X29150Y90975D02*
Y91000D01*
X30900Y90725D02*
X31150Y90475D01*
X30150Y91450D02*
X30675D01*
X30150Y91450D02*
X30150Y91450D01*
X30150Y91450D01*
X1550Y96050D02*
X1600Y96000D01*
X28475Y73200D02*
X28525Y73250D01*
X29150Y84025D02*
Y84475D01*
X29050Y83925D02*
X29150Y84025D01*
X12625Y92125D02*
X12650Y92150D01*
X12875Y92375D01*
X13750Y90700D02*
X13975Y90925D01*
X10300Y89600D02*
X10325Y89625D01*
X10975Y92375D02*
X11225Y92125D01*
X15925D02*
X16000Y92200D01*
X16500Y91650D02*
X16550Y91700D01*
X13775Y78600D02*
X13925Y78450D01*
X12825Y77100D02*
X13025Y77300D01*
X14325D02*
X14525Y77100D01*
X12825D02*
X13175Y76750D01*
X14175D02*
X14525Y77100D01*
X9025Y87600D02*
X9050Y87575D01*
X9025Y88200D02*
X9050Y88175D01*
X27350Y69900D02*
X27400D01*
X26975Y70075D02*
X27175D01*
X27350Y69900D01*
X34375Y56750D02*
Y57100D01*
X28525Y66775D02*
X28525D01*
X29225Y69975D02*
X29825Y69375D01*
D30*
X34970Y72580D02*
X35257Y72868D01*
X14925Y87000D02*
Y87800D01*
X54400Y68625D02*
X54650D01*
X54000Y69025D02*
X54400Y68625D01*
X53450Y69025D02*
X54000D01*
X58650Y69175D02*
X59200Y68625D01*
X58650Y69175D02*
Y69425D01*
X58430Y68225D02*
X59050D01*
X58030Y68625D02*
X58430Y68225D01*
X57850Y68625D02*
X58030D01*
X59200D02*
X59450D01*
X48250Y61695D02*
Y61700D01*
Y63025D01*
D31*
X11450Y77100D02*
X12125D01*
X14325Y88300D02*
X14725Y88700D01*
Y89300D01*
X14825Y89400D01*
X15325D01*
D32*
X19525Y85950D02*
X20175D01*
X10325Y77750D02*
Y78400D01*
X8425Y78375D02*
Y78950D01*
X8425Y78950D01*
X7425Y82600D02*
X8075D01*
X7425Y83500D02*
X8075D01*
D33*
X18625Y84300D02*
X19175D01*
X8975Y82600D02*
X9525D01*
D34*
X30600Y78066D02*
Y82050D01*
X30950Y77775D02*
Y82275D01*
X31650Y77375D02*
Y82625D01*
X32000Y77175D02*
Y82775D01*
X29725Y74900D02*
X32000Y77175D01*
X31850Y83450D02*
X32350Y82950D01*
Y75650D02*
Y82950D01*
X30720Y74020D02*
X32350Y75650D01*
X28925Y74715D02*
Y75725D01*
X28525Y74400D02*
Y75850D01*
X31500Y83275D02*
X32000Y82775D01*
X31188Y83088D02*
X31650Y82625D01*
X30850Y82900D02*
X31300Y82450D01*
X30475Y82750D02*
X30950Y82275D01*
X30100Y82550D02*
X30600Y82050D01*
X29750Y75475D02*
X31650Y77375D01*
X29750Y75475D02*
X29750D01*
X28000Y75825D02*
X29000Y76825D01*
X28525Y75850D02*
X29350Y76675D01*
Y77425D01*
X30250Y78325D01*
X28925Y75725D02*
X29700Y76500D01*
X31300Y77575D02*
Y82450D01*
X29390Y75665D02*
X31300Y77575D01*
X29700Y76500D02*
Y77166D01*
X30600Y78066D01*
X30200Y77025D02*
X30950Y77775D01*
X28700Y83600D02*
X29000Y83300D01*
Y76825D02*
Y83300D01*
X28400Y76800D02*
Y83925D01*
X27900Y76350D02*
Y83975D01*
X28000Y74800D02*
Y75825D01*
X27525Y74250D02*
Y75975D01*
X27900Y76350D01*
X28000Y74800D02*
X28275Y74525D01*
Y73850D02*
Y74525D01*
X30250Y78325D02*
Y81750D01*
X29775Y82225D02*
X30250Y81750D01*
X29775Y82225D02*
Y83250D01*
X30100Y82550D02*
Y83250D01*
X30475Y82750D02*
Y83250D01*
X30850Y82900D02*
Y83250D01*
D35*
X59050Y68225D02*
X59325Y68500D01*
X59050Y68225D02*
Y68225D01*
D36*
X13425Y77900D02*
X13925D01*
D37*
X22800Y89350D02*
D03*
X64400Y1425D02*
D03*
X3650Y26550D02*
D03*
X21075Y2425D02*
D03*
X21250Y104175D02*
D03*
X26800Y115375D02*
D03*
X9650Y110500D02*
D03*
X3875Y115700D02*
D03*
X56575Y26425D02*
D03*
X82625Y27975D02*
D03*
X44125Y4175D02*
D03*
X3100Y5150D02*
D03*
X49150Y82200D02*
D03*
X44800Y82050D02*
D03*
X54750Y82075D02*
D03*
X24750Y96475D02*
D03*
X78850Y76925D02*
D03*
X77800Y94450D02*
D03*
X77925Y86425D02*
D03*
X65000Y78725D02*
D03*
X63500Y81900D02*
D03*
X64950Y86775D02*
D03*
X58950Y82000D02*
D03*
X64150Y94525D02*
D03*
X40400Y94900D02*
D03*
X7775Y104275D02*
D03*
X19925Y89075D02*
D03*
X31650Y96425D02*
D03*
X18500Y96475D02*
D03*
X13350Y96500D02*
D03*
X6900Y96000D02*
D03*
X3425Y92950D02*
D03*
X4300Y85825D02*
D03*
X4400Y73375D02*
D03*
X8550Y73150D02*
D03*
X13250D02*
D03*
X17700Y72600D02*
D03*
X14975Y68350D02*
D03*
X15475Y63925D02*
D03*
X16600Y59050D02*
D03*
X26100D02*
D03*
X31475D02*
D03*
X40600Y103600D02*
D03*
X40675Y111425D02*
D03*
X51150Y111950D02*
D03*
X64125Y112025D02*
D03*
X76950Y112250D02*
D03*
X51225Y103675D02*
D03*
X64200Y103525D02*
D03*
X77175Y103450D02*
D03*
X51075Y94650D02*
D03*
X77175Y66025D02*
D03*
X77400Y54650D02*
D03*
X77475Y46825D02*
D03*
X64500Y46225D02*
D03*
X51075Y46375D02*
D03*
X40450Y46150D02*
D03*
X15375Y44500D02*
D03*
X26075Y44300D02*
D03*
X4575Y43700D02*
D03*
X5675Y52800D02*
D03*
X6175Y61075D02*
D03*
X6475Y67750D02*
D03*
X64400Y57275D02*
D03*
X64625Y67225D02*
D03*
X25050Y82925D02*
D03*
Y78200D02*
D03*
X1550Y96950D02*
D03*
X15350Y52750D02*
D03*
X26200Y52650D02*
D03*
X15850Y26325D02*
D03*
X25975D02*
D03*
X40275Y26275D02*
D03*
X70050Y26425D02*
D03*
M02*
