G04 Layer_Physical_Order=4*
G04 Layer_Color=16711680*
%FSLAX43Y43*%
%MOMM*%
G71*
G01*
G75*
%ADD11R,0.510X0.560*%
%ADD12R,0.640X0.890*%
%ADD14R,0.890X0.640*%
%ADD15R,0.560X0.510*%
%ADD17R,0.700X0.510*%
%ADD18C,0.400*%
%ADD19R,0.510X0.700*%
%ADD23C,0.090*%
%ADD24C,0.300*%
%ADD25C,0.100*%
%ADD26C,0.200*%
%ADD28C,0.120*%
%ADD29C,0.175*%
%ADD34C,0.130*%
%ADD37C,0.600*%
%ADD38R,0.950X0.800*%
G36*
X85592Y425D02*
X408Y425D01*
Y119592D01*
X85592D01*
Y425D01*
D02*
G37*
%LPC*%
G36*
X16600Y77656D02*
X16483Y77633D01*
X16384Y77566D01*
X16317Y77467D01*
X16294Y77350D01*
X16317Y77233D01*
X16382Y77136D01*
X16397Y77111D01*
Y77039D01*
X16382Y77014D01*
X16317Y76917D01*
X16294Y76800D01*
X16317Y76683D01*
X16384Y76584D01*
X16483Y76517D01*
X16600Y76494D01*
X16717Y76517D01*
X16816Y76584D01*
X16883Y76683D01*
X16906Y76800D01*
X16883Y76917D01*
X16818Y77014D01*
X16803Y77039D01*
Y77111D01*
X16818Y77136D01*
X16883Y77233D01*
X16906Y77350D01*
X16883Y77467D01*
X16816Y77566D01*
X16717Y77633D01*
X16600Y77656D01*
D02*
G37*
G36*
X30200Y77331D02*
X30083Y77308D01*
X29984Y77241D01*
X29917Y77142D01*
X29894Y77025D01*
X29917Y76908D01*
X29984Y76809D01*
X30032Y76777D01*
Y75760D01*
X29932Y75714D01*
X29867Y75758D01*
X29750Y75781D01*
X29633Y75758D01*
X29534Y75691D01*
X29467Y75592D01*
X29444Y75475D01*
X29467Y75358D01*
X29534Y75259D01*
X29582Y75227D01*
Y73920D01*
X29356Y73694D01*
X29320Y73639D01*
X29307Y73575D01*
Y71970D01*
X29207Y71870D01*
X29136Y71811D01*
X29025Y71857D01*
X29001Y71847D01*
X28918Y71903D01*
Y72805D01*
X29019Y72906D01*
X29055Y72961D01*
X29068Y73025D01*
Y73400D01*
X29055Y73464D01*
X29019Y73519D01*
X28934Y73604D01*
X28967Y73712D01*
X28992Y73717D01*
X29091Y73784D01*
X29158Y73883D01*
X29181Y74000D01*
X29158Y74117D01*
X29091Y74216D01*
X28992Y74283D01*
X28875Y74306D01*
X28758Y74283D01*
X28668Y74223D01*
X28624Y74234D01*
X28568Y74261D01*
Y76552D01*
X28616Y76584D01*
X28683Y76683D01*
X28706Y76800D01*
X28683Y76917D01*
X28616Y77016D01*
X28517Y77083D01*
X28400Y77106D01*
X28283Y77083D01*
X28184Y77016D01*
X28117Y76917D01*
X28094Y76800D01*
X28117Y76683D01*
X28184Y76584D01*
X28232Y76552D01*
Y74598D01*
X28132Y74568D01*
X28116Y74591D01*
X28017Y74658D01*
X27900Y74681D01*
X27783Y74658D01*
X27684Y74591D01*
X27617Y74492D01*
X27594Y74375D01*
X27617Y74258D01*
X27684Y74159D01*
X27783Y74092D01*
X27900Y74069D01*
X28017Y74092D01*
X28116Y74159D01*
X28132Y74182D01*
X28232Y74152D01*
Y73900D01*
X28245Y73836D01*
X28281Y73781D01*
X28732Y73330D01*
Y73095D01*
X28631Y72994D01*
X28595Y72939D01*
X28582Y72875D01*
Y72271D01*
X28482Y72223D01*
X28400Y72257D01*
X28289Y72211D01*
X28243Y72100D01*
Y71406D01*
X28220Y71391D01*
X28150Y71374D01*
X28080Y71391D01*
X28057Y71406D01*
Y71650D01*
X28011Y71761D01*
X27686Y72086D01*
X27575Y72132D01*
X27464Y72086D01*
X27418Y71975D01*
X27464Y71864D01*
X27743Y71585D01*
Y71406D01*
X27720Y71391D01*
X27650Y71374D01*
X27580Y71391D01*
X27517Y71433D01*
X27400Y71456D01*
X27330Y71442D01*
X26761Y72011D01*
X26650Y72057D01*
X26539Y72011D01*
X26493Y71900D01*
X26539Y71789D01*
X27108Y71220D01*
X27094Y71150D01*
X27117Y71033D01*
X27184Y70934D01*
X27283Y70867D01*
X27330Y70858D01*
X27389Y70757D01*
X27349Y70668D01*
X27324Y70656D01*
X27214Y70611D01*
X27168Y70500D01*
X27168Y70499D01*
X27110Y70380D01*
X27064Y70361D01*
X27018Y70250D01*
X27064Y70139D01*
X27175Y70093D01*
X27473D01*
X27898Y69668D01*
X27894Y69650D01*
X27917Y69533D01*
X27952Y69481D01*
X27952Y69480D01*
X27918Y69367D01*
X27918Y69366D01*
X27893Y69357D01*
X27862Y69280D01*
Y68770D01*
X27893Y68693D01*
X27970Y68662D01*
X28530D01*
X28607Y68693D01*
X28619Y68723D01*
X28726Y68767D01*
X28737Y68767D01*
X28850Y68744D01*
X28967Y68767D01*
X29066Y68834D01*
X29100Y68884D01*
X29188Y68916D01*
X29225Y68905D01*
X29270Y68887D01*
X29830D01*
X29903Y68917D01*
X29959Y68834D01*
X30058Y68767D01*
X30175Y68744D01*
X30292Y68767D01*
X30317Y68784D01*
X30625D01*
X30698Y68798D01*
X30760Y68840D01*
X30807Y68887D01*
X31155D01*
X31208Y68909D01*
X31259Y68834D01*
X31358Y68767D01*
X31475Y68744D01*
X31592Y68767D01*
X31691Y68834D01*
X31758Y68933D01*
X31781Y69050D01*
X31758Y69167D01*
X31691Y69266D01*
X31599Y69328D01*
X31596Y69336D01*
X31592Y69365D01*
X31593Y69434D01*
X31666Y69484D01*
X31733Y69583D01*
X31756Y69700D01*
X31733Y69817D01*
X31666Y69916D01*
X31567Y69983D01*
X31450Y70006D01*
X31388Y69994D01*
X31288Y70064D01*
Y70255D01*
X31257Y70332D01*
X31180Y70363D01*
X30620D01*
X30553Y70335D01*
X30532Y70339D01*
X30452Y70371D01*
X30433Y70467D01*
X30366Y70566D01*
X30267Y70633D01*
X30150Y70656D01*
X30033Y70633D01*
X29934Y70566D01*
X29881Y70487D01*
X29836Y70478D01*
X29814D01*
X29769Y70487D01*
X29716Y70566D01*
X29617Y70633D01*
X29500Y70656D01*
X29430Y70642D01*
X29325Y70747D01*
X29358Y70856D01*
X29417Y70867D01*
X29480Y70909D01*
X29550Y70926D01*
X29620Y70909D01*
X29683Y70867D01*
X29800Y70844D01*
X29917Y70867D01*
X29980Y70909D01*
X30050Y70926D01*
X30120Y70909D01*
X30183Y70867D01*
X30300Y70844D01*
X30417Y70867D01*
X30516Y70934D01*
X30583Y71033D01*
X30606Y71150D01*
X30583Y71267D01*
X30516Y71366D01*
X30417Y71433D01*
X30300Y71456D01*
X30252Y71495D01*
Y72400D01*
X30206Y72511D01*
X30095Y72557D01*
X30076Y72549D01*
X29993Y72605D01*
Y72730D01*
X30294Y73031D01*
X30304Y73046D01*
X30319Y73056D01*
X30355Y73111D01*
X30368Y73175D01*
Y76777D01*
X30416Y76809D01*
X30483Y76908D01*
X30506Y77025D01*
X30483Y77142D01*
X30416Y77241D01*
X30317Y77308D01*
X30200Y77331D01*
D02*
G37*
G36*
X18350Y76231D02*
X18233Y76208D01*
X18134Y76141D01*
X18067Y76042D01*
X18044Y75925D01*
X18067Y75808D01*
X18134Y75709D01*
X18233Y75642D01*
X18350Y75619D01*
X18467Y75642D01*
X18566Y75709D01*
X18633Y75808D01*
X18656Y75925D01*
X18633Y76042D01*
X18566Y76141D01*
X18467Y76208D01*
X18350Y76231D01*
D02*
G37*
G36*
X9525Y82906D02*
X9408Y82883D01*
X9309Y82816D01*
X9242Y82717D01*
X9219Y82600D01*
X9242Y82483D01*
X9309Y82384D01*
X9408Y82317D01*
X9525Y82294D01*
X9642Y82317D01*
X9741Y82384D01*
X9808Y82483D01*
X9831Y82600D01*
X9808Y82717D01*
X9741Y82816D01*
X9642Y82883D01*
X9525Y82906D01*
D02*
G37*
G36*
X10425Y80906D02*
X10308Y80883D01*
X10209Y80816D01*
X10142Y80717D01*
X10119Y80600D01*
X10142Y80483D01*
X10209Y80384D01*
X10308Y80317D01*
X10425Y80294D01*
X10542Y80317D01*
X10641Y80384D01*
X10708Y80483D01*
X10731Y80600D01*
X10708Y80717D01*
X10641Y80816D01*
X10542Y80883D01*
X10425Y80906D01*
D02*
G37*
G36*
X8425Y80706D02*
X8308Y80683D01*
X8209Y80616D01*
X8142Y80517D01*
X8119Y80400D01*
X8142Y80283D01*
X8209Y80184D01*
X8308Y80117D01*
X8425Y80094D01*
X8542Y80117D01*
X8641Y80184D01*
X8708Y80283D01*
X8731Y80400D01*
X8708Y80517D01*
X8641Y80616D01*
X8542Y80683D01*
X8425Y80706D01*
D02*
G37*
G36*
X15325Y81406D02*
X15208Y81383D01*
X15109Y81316D01*
X15042Y81217D01*
X15019Y81100D01*
X15042Y80983D01*
X15109Y80884D01*
X15121Y80875D01*
Y76125D01*
X15137Y76047D01*
X15181Y75981D01*
X15847Y75315D01*
X15844Y75300D01*
X15867Y75183D01*
X15934Y75084D01*
X16033Y75017D01*
X16150Y74994D01*
X16267Y75017D01*
X16366Y75084D01*
X16433Y75183D01*
X16456Y75300D01*
X16433Y75417D01*
X16366Y75516D01*
X16267Y75583D01*
X16150Y75606D01*
X16135Y75603D01*
X15529Y76209D01*
Y80875D01*
X15541Y80884D01*
X15608Y80983D01*
X15631Y81100D01*
X15608Y81217D01*
X15541Y81316D01*
X15442Y81383D01*
X15325Y81406D01*
D02*
G37*
G36*
X20905Y68333D02*
X20395D01*
X20318Y68302D01*
X20287Y68225D01*
Y68130D01*
X19459D01*
X19417Y68158D01*
X19300Y68181D01*
X19183Y68158D01*
X19084Y68091D01*
X19017Y67992D01*
X18994Y67875D01*
X19017Y67758D01*
X19084Y67659D01*
X19183Y67592D01*
X19300Y67569D01*
X19417Y67592D01*
X19459Y67620D01*
X20287D01*
Y67525D01*
X20318Y67448D01*
X20395Y67417D01*
X20905D01*
X20982Y67448D01*
X21013Y67525D01*
Y68225D01*
X20982Y68302D01*
X20905Y68333D01*
D02*
G37*
G36*
X24275Y65413D02*
X23575D01*
X23498Y65382D01*
X23493Y65369D01*
X23374Y65328D01*
X23367Y65333D01*
X23250Y65356D01*
X23133Y65333D01*
X23034Y65266D01*
X22967Y65167D01*
X22944Y65050D01*
X22967Y64933D01*
X23034Y64834D01*
X23133Y64767D01*
X23250Y64744D01*
X23367Y64767D01*
X23374Y64772D01*
X23493Y64731D01*
X23498Y64718D01*
X23575Y64687D01*
X24275D01*
X24352Y64718D01*
X24383Y64795D01*
Y65305D01*
X24352Y65382D01*
X24275Y65413D01*
D02*
G37*
G36*
X32725Y61681D02*
X32608Y61658D01*
X32509Y61591D01*
X32442Y61492D01*
X32419Y61375D01*
X32432Y61311D01*
X32258Y61137D01*
X31452D01*
X31416Y61191D01*
X31317Y61258D01*
X31200Y61281D01*
X31083Y61258D01*
X30984Y61191D01*
X30917Y61092D01*
X30894Y60975D01*
X30917Y60858D01*
X30984Y60759D01*
X31083Y60692D01*
X31200Y60669D01*
X31317Y60692D01*
X31416Y60759D01*
X31452Y60813D01*
X32325D01*
X32440Y60860D01*
X32661Y61082D01*
X32725Y61069D01*
X32842Y61092D01*
X32941Y61159D01*
X33008Y61258D01*
X33031Y61375D01*
X33008Y61492D01*
X32941Y61591D01*
X32842Y61658D01*
X32725Y61681D01*
D02*
G37*
G36*
X21175Y73731D02*
X21058Y73708D01*
X20959Y73641D01*
X20892Y73542D01*
X20869Y73425D01*
X20892Y73308D01*
X20959Y73209D01*
X21058Y73142D01*
X21175Y73119D01*
X21292Y73142D01*
X21391Y73209D01*
X21458Y73308D01*
X21481Y73425D01*
X21458Y73542D01*
X21391Y73641D01*
X21292Y73708D01*
X21175Y73731D01*
D02*
G37*
G36*
X32405Y73088D02*
X31895D01*
X31818Y73057D01*
X31787Y72980D01*
Y72540D01*
X31784Y72525D01*
Y72285D01*
X31684Y72226D01*
X31655Y72238D01*
X31145D01*
X31068Y72207D01*
X31037Y72130D01*
Y71570D01*
X31068Y71493D01*
X31145Y71462D01*
X31338D01*
Y71202D01*
X31284Y71166D01*
X31217Y71067D01*
X31194Y70950D01*
X31217Y70833D01*
X31284Y70734D01*
X31383Y70667D01*
X31500Y70644D01*
X31617Y70667D01*
X31716Y70734D01*
X31766Y70808D01*
X31858Y70867D01*
X31975Y70844D01*
X32092Y70867D01*
X32115Y70883D01*
X32192Y70933D01*
X32243Y70857D01*
X32259Y70834D01*
X32358Y70767D01*
X32475Y70744D01*
X32592Y70767D01*
X32691Y70834D01*
X32758Y70933D01*
X32781Y71050D01*
X32758Y71167D01*
X32708Y71242D01*
X32738Y71325D01*
X32752Y71342D01*
X32755D01*
X32832Y71373D01*
X32863Y71450D01*
Y72150D01*
X32832Y72227D01*
X32755Y72258D01*
X32527D01*
X32488Y72358D01*
X32513Y72420D01*
Y72980D01*
X32482Y73057D01*
X32405Y73088D01*
D02*
G37*
G36*
X63775Y82425D02*
X33675D01*
Y79661D01*
X33609Y79616D01*
X33542Y79517D01*
X33519Y79400D01*
X33542Y79283D01*
X33609Y79184D01*
X33675Y79139D01*
Y71108D01*
X33575Y71026D01*
X33550Y71031D01*
X33433Y71008D01*
X33334Y70941D01*
X33267Y70842D01*
X33260Y70806D01*
X33233Y70724D01*
X33148Y70713D01*
X32720D01*
X32643Y70682D01*
X32612Y70605D01*
Y70045D01*
X32643Y69968D01*
X32577Y69904D01*
X32559Y69891D01*
X32492Y69792D01*
X32469Y69675D01*
X32492Y69558D01*
X32559Y69459D01*
X32609Y69425D01*
Y68650D01*
X32559Y68616D01*
X32542Y68591D01*
X32400D01*
X32327Y68577D01*
X32265Y68535D01*
X32218Y68488D01*
X31845D01*
X31768Y68457D01*
X31737Y68380D01*
Y68056D01*
X31637Y68003D01*
X31592Y68033D01*
X31475Y68056D01*
X31358Y68033D01*
X31259Y67966D01*
X31242Y67941D01*
X31208D01*
X31155Y67963D01*
X30595D01*
X30542Y67941D01*
X30408D01*
X30391Y67966D01*
X30292Y68033D01*
X30175Y68056D01*
X30058Y68033D01*
X29959Y67966D01*
X29892Y67867D01*
X29869Y67750D01*
X29892Y67633D01*
X29959Y67534D01*
X30058Y67467D01*
X30175Y67444D01*
X30292Y67467D01*
X30387Y67531D01*
X30413Y67525D01*
X30487Y67497D01*
Y67345D01*
X30518Y67268D01*
X30595Y67237D01*
X31155D01*
X31232Y67268D01*
X31263Y67345D01*
Y67416D01*
X31346Y67467D01*
X31363Y67466D01*
X31475Y67444D01*
X31592Y67467D01*
X31691Y67534D01*
X31758Y67633D01*
X31768Y67685D01*
X31840Y67757D01*
X31877Y67762D01*
X32405D01*
X32482Y67793D01*
X32513Y67870D01*
X32609Y67859D01*
Y67350D01*
X32559Y67316D01*
X32492Y67217D01*
X32469Y67100D01*
X32492Y66983D01*
X32551Y66895D01*
X32562Y66872D01*
X32547Y66847D01*
X32457Y66807D01*
X32380Y66838D01*
X31820D01*
X31743Y66807D01*
X31726Y66764D01*
X31636Y66722D01*
X31612Y66719D01*
X31592Y66733D01*
X31475Y66756D01*
X31358Y66733D01*
X31259Y66666D01*
X31192Y66567D01*
X31169Y66450D01*
X31182Y66387D01*
X31116Y66313D01*
X30595D01*
X30544Y66292D01*
X30532Y66297D01*
X30462Y66356D01*
X30481Y66450D01*
X30458Y66567D01*
X30391Y66666D01*
X30292Y66733D01*
X30175Y66756D01*
X30125Y66746D01*
X30060Y66810D01*
X29998Y66852D01*
X29938Y66864D01*
Y66955D01*
X29907Y67032D01*
X29830Y67063D01*
X29270D01*
X29193Y67032D01*
X29162Y66955D01*
Y66445D01*
X29186Y66387D01*
X29193Y66368D01*
Y66282D01*
X29186Y66263D01*
X29162Y66205D01*
Y66053D01*
X29088Y66025D01*
X29062Y66019D01*
X28967Y66083D01*
X28850Y66106D01*
X28733Y66083D01*
X28634Y66016D01*
X28567Y65917D01*
X28567Y65916D01*
X28462Y65898D01*
X28416Y65966D01*
X28317Y66033D01*
X28200Y66056D01*
X28151Y66046D01*
X28031Y66166D01*
X27920Y66212D01*
X27746D01*
X27688Y66312D01*
X27706Y66400D01*
X27683Y66517D01*
X27641Y66580D01*
X27624Y66650D01*
X27641Y66720D01*
X27683Y66783D01*
X27706Y66900D01*
X27683Y67017D01*
X27667Y67040D01*
X27617Y67117D01*
X27693Y67168D01*
X27716Y67184D01*
X27762Y67252D01*
X27862Y67221D01*
Y67120D01*
X27893Y67043D01*
X27970Y67012D01*
X28530D01*
X28607Y67043D01*
X28638Y67120D01*
Y67410D01*
X28726Y67472D01*
X28733Y67467D01*
X28850Y67444D01*
X28967Y67467D01*
X29066Y67534D01*
X29133Y67633D01*
X29156Y67750D01*
X29133Y67867D01*
X29066Y67966D01*
X28967Y68033D01*
X28850Y68056D01*
X28733Y68033D01*
X28634Y67966D01*
X28577Y67882D01*
X28552Y67877D01*
X28490Y67835D01*
X28393Y67738D01*
X27970D01*
X27893Y67707D01*
X27862Y67630D01*
Y67579D01*
X27762Y67548D01*
X27716Y67616D01*
X27693Y67632D01*
X27617Y67683D01*
X27667Y67760D01*
X27683Y67783D01*
X27706Y67900D01*
X27683Y68017D01*
X27677Y68025D01*
X27716Y68117D01*
X27717Y68117D01*
X27816Y68184D01*
X27883Y68283D01*
X27906Y68400D01*
X27883Y68517D01*
X27816Y68616D01*
X27730Y68674D01*
X27705Y68709D01*
X27677Y68775D01*
X27683Y68783D01*
X27706Y68900D01*
X27683Y69017D01*
X27616Y69116D01*
X27606Y69243D01*
X27633Y69283D01*
X27656Y69400D01*
X27633Y69517D01*
X27566Y69616D01*
X27467Y69683D01*
X27350Y69706D01*
X27233Y69683D01*
X27162Y69635D01*
X26936Y69861D01*
X26825Y69907D01*
X26225D01*
X26114Y69861D01*
X26068Y69750D01*
X26114Y69639D01*
X26175Y69614D01*
X26189Y69511D01*
X26143Y69400D01*
X26065Y69326D01*
X26018Y69307D01*
X25987Y69230D01*
Y68670D01*
X25978Y68657D01*
X24550D01*
X24439Y68611D01*
X24393Y68500D01*
X24439Y68389D01*
X24550Y68343D01*
X24820D01*
X24862Y68280D01*
Y68222D01*
X24794Y68155D01*
X23183D01*
X23175Y68158D01*
X22225D01*
X22217Y68155D01*
X21913D01*
Y68225D01*
X21882Y68302D01*
X21805Y68333D01*
X21295D01*
X21218Y68302D01*
X21187Y68225D01*
Y67525D01*
X21218Y67448D01*
X21295Y67417D01*
X21805D01*
X21882Y67448D01*
X21913Y67525D01*
Y67645D01*
X22117D01*
Y67250D01*
X22148Y67173D01*
X22225Y67142D01*
X23175D01*
X23252Y67173D01*
X23283Y67250D01*
Y67645D01*
X23467D01*
Y67370D01*
X23498Y67293D01*
X23575Y67262D01*
X24275D01*
X24352Y67293D01*
X24383Y67370D01*
Y67645D01*
X24900D01*
X24984Y67662D01*
X25530D01*
X25607Y67693D01*
X25638Y67770D01*
Y67871D01*
X26441D01*
X27056Y67256D01*
X27056Y67256D01*
X27122Y67212D01*
X27100Y67115D01*
X27095Y67104D01*
X26950D01*
X26950Y67104D01*
X26872Y67088D01*
X26806Y67044D01*
X26616Y66854D01*
X26513D01*
Y66905D01*
X26482Y66982D01*
X26405Y67013D01*
X25845D01*
X25768Y66982D01*
X25737Y66905D01*
Y66841D01*
X24383D01*
Y66980D01*
X24352Y67057D01*
X24275Y67088D01*
X23575D01*
X23498Y67057D01*
X23467Y66980D01*
Y66470D01*
X23498Y66393D01*
X23460Y66301D01*
X23415Y66254D01*
X23283D01*
Y66450D01*
X23252Y66527D01*
X23175Y66558D01*
X22225D01*
X22148Y66527D01*
X22117Y66450D01*
Y65650D01*
X22148Y65573D01*
X22225Y65542D01*
X23175D01*
X23252Y65573D01*
X23283Y65650D01*
Y65846D01*
X23467D01*
Y65695D01*
X23498Y65618D01*
X23575Y65587D01*
X24275D01*
X24352Y65618D01*
X24383Y65695D01*
Y66205D01*
X24352Y66282D01*
X24350Y66376D01*
X24419Y66459D01*
X25737D01*
Y66395D01*
X25768Y66318D01*
X25845Y66287D01*
X26266D01*
X26307Y66187D01*
X25910Y65790D01*
X25863Y65675D01*
X25910Y65560D01*
X26025Y65513D01*
X26140Y65560D01*
X26823Y66243D01*
X27093D01*
X27137Y66143D01*
X27100Y66055D01*
X27146Y65944D01*
X27155Y65940D01*
X27118Y65850D01*
X27157Y65757D01*
X27115Y65657D01*
X26875D01*
X26764Y65611D01*
X26718Y65500D01*
X26764Y65389D01*
X26875Y65343D01*
X27193D01*
X27231Y65248D01*
X27184Y65216D01*
X27117Y65117D01*
X27094Y65000D01*
X27117Y64883D01*
X27184Y64784D01*
X27243Y64744D01*
Y63550D01*
X27289Y63439D01*
X27400Y63393D01*
X27511Y63439D01*
X27557Y63550D01*
Y64744D01*
X27614Y64782D01*
X27639Y64797D01*
X27711D01*
X27736Y64782D01*
X27793Y64744D01*
Y63425D01*
X27839Y63314D01*
X27950Y63268D01*
X28044Y63307D01*
X28066Y63315D01*
X28174Y63325D01*
X28250Y63293D01*
X28361Y63339D01*
X28407Y63450D01*
Y64659D01*
X28450Y64694D01*
X28567Y64717D01*
X28641Y64767D01*
X28664Y64777D01*
X28697Y64770D01*
X28759Y64742D01*
Y64563D01*
X28645D01*
X28568Y64532D01*
X28537Y64455D01*
Y63895D01*
X28568Y63818D01*
X28645Y63787D01*
X29155D01*
X29232Y63818D01*
X29263Y63895D01*
Y64455D01*
X29232Y64532D01*
X29155Y64563D01*
X29141D01*
Y64792D01*
X29166Y64809D01*
X29233Y64908D01*
X29256Y65025D01*
X29233Y65142D01*
X29166Y65241D01*
X29067Y65308D01*
X28950Y65331D01*
X28833Y65308D01*
X28784Y65275D01*
X28747Y65293D01*
X28737Y65317D01*
X28740Y65393D01*
X28843Y65496D01*
X28850Y65494D01*
X28967Y65517D01*
X29066Y65584D01*
X29087Y65615D01*
X29193Y65618D01*
X29206Y65613D01*
X29270Y65587D01*
X29830D01*
X29907Y65618D01*
X29985Y65566D01*
X30058Y65517D01*
X30175Y65494D01*
X30292Y65517D01*
X30391Y65584D01*
X30412Y65615D01*
X30518Y65618D01*
X30531Y65613D01*
X30595Y65587D01*
X31155D01*
X31232Y65618D01*
X31263Y65695D01*
Y65918D01*
X31493Y66148D01*
X31592Y66167D01*
X31619Y66186D01*
X31742Y66147D01*
X31743Y66143D01*
X31820Y66112D01*
X32380D01*
X32457Y66143D01*
X32471Y66178D01*
X32579D01*
X32593Y66143D01*
X32670Y66112D01*
X33043D01*
X33266Y65888D01*
X33267Y65883D01*
X33334Y65784D01*
X33433Y65717D01*
X33550Y65694D01*
X33594Y65703D01*
X33675Y65634D01*
Y65383D01*
X33575Y65301D01*
X33550Y65306D01*
X33433Y65283D01*
X33334Y65216D01*
X33323Y65200D01*
X33202D01*
X33191Y65216D01*
X33092Y65283D01*
X32975Y65306D01*
X32858Y65283D01*
X32795Y65241D01*
X32725Y65224D01*
X32655Y65241D01*
X32592Y65283D01*
X32475Y65306D01*
X32358Y65283D01*
X32295Y65241D01*
X32225Y65224D01*
X32155Y65241D01*
X32092Y65283D01*
X31975Y65306D01*
X31858Y65283D01*
X31795Y65241D01*
X31725Y65224D01*
X31655Y65241D01*
X31592Y65283D01*
X31475Y65306D01*
X31358Y65283D01*
X31259Y65216D01*
X31192Y65117D01*
X31169Y65000D01*
X31192Y64883D01*
X31259Y64784D01*
X31313Y64748D01*
Y64563D01*
X31220D01*
X31143Y64532D01*
X31112Y64455D01*
Y63895D01*
X31143Y63818D01*
X31220Y63787D01*
X31730D01*
X31813Y63713D01*
Y63592D01*
X31685Y63465D01*
X31638Y63350D01*
X31685Y63235D01*
X31800Y63188D01*
X31915Y63235D01*
X32090Y63410D01*
X32137Y63525D01*
Y63973D01*
X32195Y64012D01*
X32755D01*
X32832Y64043D01*
X32863Y64120D01*
Y64614D01*
X32894Y64657D01*
X32942Y64701D01*
X32975Y64694D01*
X33092Y64717D01*
X33191Y64784D01*
X33202Y64800D01*
X33323D01*
X33334Y64784D01*
X33386Y64749D01*
X33420Y64665D01*
X33409Y64622D01*
X33392Y64580D01*
Y64070D01*
X33423Y63993D01*
X33500Y63962D01*
X33675D01*
Y63788D01*
X33500D01*
X33423Y63757D01*
X33392Y63680D01*
Y63170D01*
X33423Y63093D01*
X33500Y63062D01*
X33675D01*
Y49400D01*
X63775D01*
Y50225D01*
Y82425D01*
D02*
G37*
G36*
X31370Y90328D02*
X30480D01*
X30403Y90297D01*
X30372Y90220D01*
Y90155D01*
X30325D01*
X30227Y90135D01*
X30145Y90080D01*
X29932Y89867D01*
X29883Y89858D01*
X29784Y89791D01*
X29717Y89692D01*
X29694Y89575D01*
X29717Y89458D01*
X29784Y89359D01*
X29883Y89292D01*
X29932Y89283D01*
X30345Y88869D01*
Y88009D01*
X30255Y87938D01*
X29972D01*
X28280Y89630D01*
X28198Y89685D01*
X28100Y89705D01*
X27809D01*
X27767Y89733D01*
X27650Y89756D01*
X27533Y89733D01*
X27491Y89705D01*
X27353D01*
Y89895D01*
X27322Y89972D01*
X27245Y90003D01*
X26355D01*
X26278Y89972D01*
X26247Y89895D01*
Y89382D01*
X23445Y86580D01*
X23390Y86498D01*
X23370Y86400D01*
Y85331D01*
X22900Y84861D01*
X22331D01*
X22262Y84847D01*
X22162Y84905D01*
Y86548D01*
X22216Y86584D01*
X22283Y86683D01*
X22306Y86800D01*
X22283Y86917D01*
X22216Y87016D01*
X22117Y87083D01*
X22000Y87106D01*
X21883Y87083D01*
X21784Y87016D01*
X21762Y86984D01*
X21662Y87015D01*
Y87548D01*
X21716Y87584D01*
X21783Y87683D01*
X21806Y87800D01*
X21783Y87917D01*
X21716Y88016D01*
X21617Y88083D01*
X21500Y88106D01*
X21383Y88083D01*
X21284Y88016D01*
X21217Y87917D01*
X21194Y87800D01*
X21217Y87683D01*
X21284Y87584D01*
X21338Y87548D01*
Y84552D01*
X21284Y84516D01*
X21217Y84417D01*
X21194Y84300D01*
X21217Y84183D01*
X21284Y84084D01*
X21364Y84030D01*
X21396Y83921D01*
X19656Y82180D01*
X19459D01*
X19406Y82280D01*
X19408Y82283D01*
X19431Y82400D01*
X19408Y82517D01*
X19341Y82616D01*
X19242Y82683D01*
X19125Y82706D01*
X19008Y82683D01*
X18909Y82616D01*
X18842Y82517D01*
X18819Y82400D01*
X18842Y82283D01*
X18844Y82280D01*
X18791Y82180D01*
X12650D01*
X12552Y82160D01*
X12470Y82105D01*
X11945Y81580D01*
X11890Y81498D01*
X11870Y81400D01*
Y77259D01*
X11842Y77217D01*
X11819Y77100D01*
X11842Y76983D01*
X11909Y76884D01*
X12008Y76817D01*
X12125Y76794D01*
X12242Y76817D01*
X12284Y76845D01*
X12650D01*
X12748Y76865D01*
X12830Y76920D01*
X13030Y77120D01*
X13085Y77202D01*
X13105Y77300D01*
Y80019D01*
X13593Y80508D01*
X13642Y80517D01*
X13741Y80584D01*
X13785Y80583D01*
X13852Y80569D01*
X13909Y80484D01*
X14008Y80417D01*
X14125Y80394D01*
X14242Y80417D01*
X14341Y80484D01*
X14408Y80583D01*
X14431Y80700D01*
X14408Y80817D01*
X14341Y80916D01*
X14242Y80983D01*
X14125Y81006D01*
X14008Y80983D01*
X13909Y80916D01*
X13866Y80917D01*
X13798Y80931D01*
X13741Y81016D01*
X13642Y81083D01*
X13525Y81106D01*
X13408Y81083D01*
X13309Y81016D01*
X13242Y80917D01*
X13233Y80868D01*
X12670Y80305D01*
X12615Y80223D01*
X12595Y80125D01*
Y77406D01*
X12544Y77355D01*
X12380D01*
Y81294D01*
X12756Y81670D01*
X19761D01*
X19859Y81690D01*
X19942Y81745D01*
X21792Y83595D01*
X22186D01*
X22284Y83615D01*
X22367Y83670D01*
X22630Y83933D01*
X22685Y84016D01*
X22705Y84114D01*
Y84351D01*
X23006D01*
X23103Y84370D01*
X23186Y84425D01*
X23805Y85045D01*
X23860Y85127D01*
X23880Y85225D01*
Y86294D01*
X26732Y89147D01*
X27245D01*
X27322Y89178D01*
X27328Y89195D01*
X27491D01*
X27533Y89167D01*
X27650Y89144D01*
X27767Y89167D01*
X27809Y89195D01*
X27994D01*
X29637Y87553D01*
Y87270D01*
X29668Y87193D01*
X29745Y87162D01*
X29745D01*
Y87050D01*
X29764Y86952D01*
X29777Y86933D01*
X29792Y86858D01*
X29845Y86780D01*
X29819Y86705D01*
X29800Y86680D01*
X29400D01*
X29302Y86660D01*
X29220Y86605D01*
X28832Y86217D01*
X28783Y86208D01*
X28684Y86141D01*
X28617Y86042D01*
X28594Y85925D01*
X28611Y85838D01*
X28582Y85767D01*
X28549Y85730D01*
X28493Y85707D01*
X28462Y85630D01*
Y85070D01*
X28493Y84993D01*
X28570Y84962D01*
X29080D01*
X29157Y84993D01*
X29188Y85070D01*
Y85630D01*
X29157Y85707D01*
X29144Y85749D01*
X29183Y85808D01*
X29192Y85857D01*
X29506Y86170D01*
X30225D01*
X30323Y86190D01*
X30405Y86245D01*
X30780Y86620D01*
X30835Y86702D01*
X30855Y86800D01*
Y88975D01*
X30835Y89073D01*
X30780Y89155D01*
X30564Y89372D01*
X30605Y89472D01*
X31370D01*
X31447Y89503D01*
X31478Y89580D01*
Y90220D01*
X31447Y90297D01*
X31370Y90328D01*
D02*
G37*
G36*
X13025Y88406D02*
X12908Y88383D01*
X12809Y88316D01*
X12742Y88217D01*
X12719Y88100D01*
X12742Y87983D01*
X12809Y87884D01*
X12908Y87817D01*
X13025Y87794D01*
X13142Y87817D01*
X13241Y87884D01*
X13308Y87983D01*
X13331Y88100D01*
X13308Y88217D01*
X13241Y88316D01*
X13142Y88383D01*
X13025Y88406D01*
D02*
G37*
G36*
X14925Y88106D02*
X14808Y88083D01*
X14709Y88016D01*
X14642Y87917D01*
X14619Y87800D01*
X14642Y87683D01*
X14709Y87584D01*
X14808Y87517D01*
X14925Y87494D01*
X15042Y87517D01*
X15141Y87584D01*
X15208Y87683D01*
X15231Y87800D01*
X15208Y87917D01*
X15141Y88016D01*
X15042Y88083D01*
X14925Y88106D01*
D02*
G37*
G36*
X13525Y88906D02*
X13408Y88883D01*
X13309Y88816D01*
X13242Y88717D01*
X13219Y88600D01*
X13242Y88483D01*
X13309Y88384D01*
X13408Y88317D01*
X13525Y88294D01*
X13642Y88317D01*
X13741Y88384D01*
X13808Y88483D01*
X13831Y88600D01*
X13808Y88717D01*
X13741Y88816D01*
X13642Y88883D01*
X13525Y88906D01*
D02*
G37*
G36*
X12650Y93281D02*
X12533Y93258D01*
X12434Y93191D01*
X12367Y93092D01*
X12344Y92975D01*
X12367Y92858D01*
X12434Y92759D01*
X12533Y92692D01*
X12650Y92669D01*
X12767Y92692D01*
X12866Y92759D01*
X12933Y92858D01*
X12956Y92975D01*
X12933Y93092D01*
X12866Y93191D01*
X12767Y93258D01*
X12650Y93281D01*
D02*
G37*
G36*
X13275Y92681D02*
X13158Y92658D01*
X13059Y92591D01*
X12992Y92492D01*
X12969Y92375D01*
X12992Y92258D01*
X13059Y92159D01*
X13158Y92092D01*
X13275Y92069D01*
X13392Y92092D01*
X13491Y92159D01*
X13558Y92258D01*
X13581Y92375D01*
X13558Y92492D01*
X13491Y92591D01*
X13392Y92658D01*
X13275Y92681D01*
D02*
G37*
G36*
X16550Y92506D02*
X16433Y92483D01*
X16334Y92416D01*
X16267Y92317D01*
X16244Y92200D01*
X16267Y92083D01*
X16309Y92020D01*
X16326Y91950D01*
X16309Y91880D01*
X16267Y91817D01*
X16244Y91700D01*
X16267Y91583D01*
X16334Y91484D01*
X16433Y91417D01*
X16550Y91394D01*
X16667Y91417D01*
X16766Y91484D01*
X16833Y91583D01*
X16856Y91700D01*
X16833Y91817D01*
X16791Y91880D01*
X16774Y91950D01*
X16791Y92020D01*
X16833Y92083D01*
X16856Y92200D01*
X16833Y92317D01*
X16766Y92416D01*
X16667Y92483D01*
X16550Y92506D01*
D02*
G37*
G36*
X31850Y83756D02*
X31733Y83733D01*
X31634Y83666D01*
X31594Y83607D01*
X29656D01*
X29616Y83666D01*
X29517Y83733D01*
X29400Y83756D01*
X29283Y83733D01*
X29184Y83666D01*
X29117Y83567D01*
X29094Y83450D01*
X29117Y83333D01*
X29184Y83234D01*
X29283Y83167D01*
X29400Y83144D01*
X29517Y83167D01*
X29616Y83234D01*
X29656Y83293D01*
X31594D01*
X31634Y83234D01*
X31733Y83167D01*
X31850Y83144D01*
X31967Y83167D01*
X32066Y83234D01*
X32133Y83333D01*
X32156Y83450D01*
X32133Y83567D01*
X32066Y83666D01*
X31967Y83733D01*
X31850Y83756D01*
D02*
G37*
G36*
X9525Y83806D02*
X9408Y83783D01*
X9309Y83716D01*
X9242Y83617D01*
X9219Y83500D01*
X9242Y83383D01*
X9309Y83284D01*
X9408Y83217D01*
X9525Y83194D01*
X9642Y83217D01*
X9741Y83284D01*
X9808Y83383D01*
X9831Y83500D01*
X9808Y83617D01*
X9741Y83716D01*
X9642Y83783D01*
X9525Y83806D01*
D02*
G37*
G36*
X18125Y83631D02*
X18008Y83608D01*
X17909Y83541D01*
X17842Y83442D01*
X17819Y83325D01*
X17842Y83208D01*
X17909Y83109D01*
X18008Y83042D01*
X18125Y83019D01*
X18242Y83042D01*
X18341Y83109D01*
X18408Y83208D01*
X18431Y83325D01*
X18408Y83442D01*
X18341Y83541D01*
X18242Y83608D01*
X18125Y83631D01*
D02*
G37*
G36*
X18625Y84606D02*
X18508Y84583D01*
X18409Y84516D01*
X18342Y84417D01*
X18319Y84300D01*
X18342Y84183D01*
X18409Y84084D01*
X18508Y84017D01*
X18625Y83994D01*
X18742Y84017D01*
X18841Y84084D01*
X18908Y84183D01*
X18931Y84300D01*
X18908Y84417D01*
X18841Y84516D01*
X18742Y84583D01*
X18625Y84606D01*
D02*
G37*
G36*
X9050Y87881D02*
X8933Y87858D01*
X8834Y87791D01*
X8767Y87692D01*
X8744Y87575D01*
X8767Y87458D01*
X8834Y87359D01*
X8933Y87292D01*
X9050Y87269D01*
X9167Y87292D01*
X9266Y87359D01*
X9333Y87458D01*
X9356Y87575D01*
X9333Y87692D01*
X9266Y87791D01*
X9167Y87858D01*
X9050Y87881D01*
D02*
G37*
G36*
X10825Y87706D02*
X10708Y87683D01*
X10609Y87616D01*
X10542Y87517D01*
X10519Y87400D01*
X10542Y87283D01*
X10609Y87184D01*
X10708Y87117D01*
X10825Y87094D01*
X10942Y87117D01*
X11041Y87184D01*
X11108Y87283D01*
X11131Y87400D01*
X11108Y87517D01*
X11041Y87616D01*
X10942Y87683D01*
X10825Y87706D01*
D02*
G37*
G36*
X18275Y85856D02*
X18158Y85833D01*
X18059Y85766D01*
X17992Y85667D01*
X17969Y85550D01*
X17992Y85433D01*
X18059Y85334D01*
X18158Y85267D01*
X18275Y85244D01*
X18392Y85267D01*
X18491Y85334D01*
X18558Y85433D01*
X18581Y85550D01*
X18558Y85667D01*
X18491Y85766D01*
X18392Y85833D01*
X18275Y85856D01*
D02*
G37*
%LPD*%
D11*
X26350Y68950D02*
D03*
X25450D02*
D03*
X32075D02*
D03*
X32975D02*
D03*
X30000Y87550D02*
D03*
X29100D02*
D03*
X28825Y85350D02*
D03*
X29725D02*
D03*
X31475Y64175D02*
D03*
X30575D02*
D03*
X31400Y71850D02*
D03*
X30500D02*
D03*
X60550Y70675D02*
D03*
X59650D02*
D03*
X58875D02*
D03*
X57975D02*
D03*
X56300D02*
D03*
X57200D02*
D03*
X49075Y70550D02*
D03*
X48175D02*
D03*
X52900Y69725D02*
D03*
X52000D02*
D03*
X54850Y69275D02*
D03*
X55750D02*
D03*
X32150Y72700D02*
D03*
X33050D02*
D03*
X28900Y64175D02*
D03*
X29800D02*
D03*
X32975Y70325D02*
D03*
X32075D02*
D03*
X34150Y68025D02*
D03*
X35050D02*
D03*
X34150Y68875D02*
D03*
X35050D02*
D03*
D12*
X50725Y70750D02*
D03*
X52125D02*
D03*
D14*
X26800Y89575D02*
D03*
Y88175D02*
D03*
X30925Y89900D02*
D03*
Y91300D02*
D03*
D15*
X32950Y65575D02*
D03*
Y66475D02*
D03*
X25250Y68025D02*
D03*
Y67125D02*
D03*
X29550Y65950D02*
D03*
Y65050D02*
D03*
X30900Y70000D02*
D03*
Y70900D02*
D03*
X32475Y64375D02*
D03*
Y63475D02*
D03*
X30875Y67600D02*
D03*
Y66700D02*
D03*
Y69250D02*
D03*
Y68350D02*
D03*
X58130Y63435D02*
D03*
Y62535D02*
D03*
X32100Y66475D02*
D03*
Y65575D02*
D03*
X29550Y69250D02*
D03*
Y68350D02*
D03*
X28250Y69025D02*
D03*
Y68125D02*
D03*
X30875Y65950D02*
D03*
Y65050D02*
D03*
X29550Y66700D02*
D03*
Y67600D02*
D03*
X28250Y67375D02*
D03*
Y66475D02*
D03*
X26125Y66650D02*
D03*
Y67550D02*
D03*
X34175Y65325D02*
D03*
Y66225D02*
D03*
X32125Y68125D02*
D03*
Y67225D02*
D03*
D17*
X23925Y66725D02*
D03*
Y67625D02*
D03*
Y65950D02*
D03*
Y65050D02*
D03*
X55900Y64100D02*
D03*
Y65000D02*
D03*
X39550Y72925D02*
D03*
Y72025D02*
D03*
X39375Y64675D02*
D03*
Y65575D02*
D03*
X38525Y72950D02*
D03*
Y72050D02*
D03*
X37500Y72350D02*
D03*
Y71450D02*
D03*
X33850Y63425D02*
D03*
Y64325D02*
D03*
X34300Y71650D02*
D03*
Y70750D02*
D03*
X36200Y63800D02*
D03*
Y64700D02*
D03*
X35400Y71700D02*
D03*
Y70800D02*
D03*
X38250Y64000D02*
D03*
Y64900D02*
D03*
X40400Y64250D02*
D03*
Y65150D02*
D03*
X39275Y63075D02*
D03*
Y63975D02*
D03*
X36475Y71775D02*
D03*
Y70875D02*
D03*
X40750Y65875D02*
D03*
Y66775D02*
D03*
X35175Y64000D02*
D03*
Y64900D02*
D03*
X37225Y64000D02*
D03*
Y64900D02*
D03*
X53750Y70100D02*
D03*
Y71000D02*
D03*
D18*
X30175Y68400D02*
D03*
X31475Y69050D02*
D03*
Y70350D02*
D03*
X14925Y87800D02*
D03*
X16550Y91700D02*
D03*
Y92200D02*
D03*
X12650Y92975D02*
D03*
X13275Y92375D02*
D03*
X9050Y87575D02*
D03*
X13675Y76750D02*
D03*
X20750Y84275D02*
D03*
X20675Y81725D02*
D03*
X8425Y78375D02*
D03*
X13675Y77300D02*
D03*
X15325Y81100D02*
D03*
X18625Y84300D02*
D03*
X18275Y85550D02*
D03*
X13025Y88100D02*
D03*
X8425Y80400D02*
D03*
X10425Y80600D02*
D03*
X10325Y77750D02*
D03*
X19125Y82400D02*
D03*
X14125Y80700D02*
D03*
X9525Y82600D02*
D03*
Y83500D02*
D03*
X13525Y80800D02*
D03*
X12125Y77100D02*
D03*
X13525Y88600D02*
D03*
X13375Y91375D02*
D03*
X13975D02*
D03*
X13875Y92125D02*
D03*
X9025Y90250D02*
D03*
X10325D02*
D03*
X10825Y87400D02*
D03*
X10575Y91625D02*
D03*
Y92375D02*
D03*
X13425Y77900D02*
D03*
X13925D02*
D03*
X20175Y85950D02*
D03*
X16050Y83350D02*
D03*
Y84575D02*
D03*
Y85750D02*
D03*
X14300Y83350D02*
D03*
Y84575D02*
D03*
Y85750D02*
D03*
X12600Y83350D02*
D03*
X12575Y84550D02*
D03*
X12600Y85750D02*
D03*
X28400Y76800D02*
D03*
X31850Y83450D02*
D03*
X29050Y83925D02*
D03*
X28675Y91475D02*
D03*
X22000Y86800D02*
D03*
Y84300D02*
D03*
X23250Y65050D02*
D03*
X24600Y67175D02*
D03*
X31975Y71150D02*
D03*
X21175Y73425D02*
D03*
X82750Y4725D02*
D03*
X33550Y70225D02*
D03*
X31450Y69700D02*
D03*
X49850Y76450D02*
D03*
X40075Y71425D02*
D03*
X36700Y65425D02*
D03*
X36300Y65725D02*
D03*
X38125Y65450D02*
D03*
X36600Y67550D02*
D03*
X39125Y67025D02*
D03*
X37400Y65500D02*
D03*
X38800Y70875D02*
D03*
X48650Y62350D02*
D03*
X38975Y66150D02*
D03*
X47750Y64625D02*
D03*
X51850Y64225D02*
D03*
X60000Y69900D02*
D03*
X35250Y72875D02*
D03*
X59250Y69925D02*
D03*
X58525D02*
D03*
X57775D02*
D03*
X54650Y69925D02*
D03*
X49050Y60400D02*
D03*
X53275Y59600D02*
D03*
X59350Y61695D02*
D03*
X58660D02*
D03*
X51875Y61850D02*
D03*
X52650Y64225D02*
D03*
X50250Y64225D02*
D03*
X51050D02*
D03*
X53850Y67325D02*
D03*
X50250Y68225D02*
D03*
Y69025D02*
D03*
X48650D02*
D03*
X47725Y68900D02*
D03*
X47875Y62350D02*
D03*
X49850Y69925D02*
D03*
X50650D02*
D03*
X55450Y62525D02*
D03*
X53450Y63425D02*
D03*
X49055Y69925D02*
D03*
X47500Y64150D02*
D03*
X55450Y69925D02*
D03*
X56250D02*
D03*
X55050Y65025D02*
D03*
X57025Y69925D02*
D03*
X49450Y69025D02*
D03*
X57450Y63425D02*
D03*
X51450Y69925D02*
D03*
X56250Y62525D02*
D03*
X59050Y68225D02*
D03*
X49850Y61950D02*
D03*
X49050Y61700D02*
D03*
X59850Y67425D02*
D03*
X54250Y64225D02*
D03*
X48250Y61700D02*
D03*
X49450Y62350D02*
D03*
X52650Y62725D02*
D03*
X50650Y61950D02*
D03*
X50250Y62675D02*
D03*
X54650Y62525D02*
D03*
X57450Y62625D02*
D03*
X52650Y68225D02*
D03*
X52550Y67325D02*
D03*
X52650Y69025D02*
D03*
X51850Y68225D02*
D03*
Y69025D02*
D03*
X51050Y68225D02*
D03*
Y69025D02*
D03*
X28850Y67100D02*
D03*
Y69050D02*
D03*
X28200Y65750D02*
D03*
X28950Y65025D02*
D03*
X30150Y70350D02*
D03*
X30175Y69700D02*
D03*
X32475Y65000D02*
D03*
X31975D02*
D03*
X31475D02*
D03*
X33550Y65500D02*
D03*
Y66000D02*
D03*
Y66500D02*
D03*
X31475Y68400D02*
D03*
X33550Y68025D02*
D03*
Y67525D02*
D03*
Y69725D02*
D03*
X32150Y69700D02*
D03*
X33375Y67025D02*
D03*
X28450Y65000D02*
D03*
X27400D02*
D03*
Y66400D02*
D03*
X31500Y70950D02*
D03*
X31475Y67100D02*
D03*
X27400Y66900D02*
D03*
X27950Y65000D02*
D03*
X28850Y65800D02*
D03*
X33550Y69225D02*
D03*
X53450Y69025D02*
D03*
Y68225D02*
D03*
X60825Y64100D02*
D03*
X40150Y70875D02*
D03*
X40025Y70125D02*
D03*
X38200Y68350D02*
D03*
X39650Y67075D02*
D03*
X38475Y66150D02*
D03*
X35200Y63200D02*
D03*
X35600Y65475D02*
D03*
X39475Y66150D02*
D03*
X37600Y68425D02*
D03*
X53200Y67320D02*
D03*
X47725Y76300D02*
D03*
X33550Y65000D02*
D03*
X30200Y65025D02*
D03*
X30175Y65800D02*
D03*
X31475Y66450D02*
D03*
X47750Y69925D02*
D03*
X38025Y70650D02*
D03*
X37550Y70875D02*
D03*
X39275Y69300D02*
D03*
X39325Y71425D02*
D03*
X38850Y68950D02*
D03*
X53450Y64225D02*
D03*
X36600Y68050D02*
D03*
X53450Y65025D02*
D03*
X38375Y71425D02*
D03*
X33825Y79400D02*
D03*
X33325D02*
D03*
X33625Y56525D02*
D03*
X59425Y79400D02*
D03*
X59925D02*
D03*
X59450Y56600D02*
D03*
X59950D02*
D03*
X30175Y69050D02*
D03*
Y67750D02*
D03*
Y67100D02*
D03*
X28850Y66450D02*
D03*
X30175D02*
D03*
X28850Y67750D02*
D03*
X27400Y71150D02*
D03*
X28200Y70350D02*
D03*
X31475Y67750D02*
D03*
X28850Y68400D02*
D03*
X31975Y62600D02*
D03*
X25150Y69575D02*
D03*
X25575Y72675D02*
D03*
X25675Y63300D02*
D03*
X28000Y62375D02*
D03*
X33550Y68725D02*
D03*
X35825Y68175D02*
D03*
X29500Y70350D02*
D03*
X28850D02*
D03*
X27350Y69900D02*
D03*
X27900Y71150D02*
D03*
X33775Y60575D02*
D03*
X27475Y65500D02*
D03*
X29800Y71150D02*
D03*
X28400D02*
D03*
X30300D02*
D03*
X27500Y67400D02*
D03*
X27400Y67900D02*
D03*
X27350Y69400D02*
D03*
X27600Y68400D02*
D03*
X27400Y68900D02*
D03*
X28200Y69650D02*
D03*
X29300Y71150D02*
D03*
X34125Y56500D02*
D03*
X32975Y65000D02*
D03*
X31200Y60975D02*
D03*
X32725Y61375D02*
D03*
X32775Y67100D02*
D03*
X32475Y71050D02*
D03*
X33200Y71150D02*
D03*
X33550Y70725D02*
D03*
X32775Y69675D02*
D03*
Y68400D02*
D03*
X33125Y81100D02*
D03*
X27650Y89450D02*
D03*
X30075Y88475D02*
D03*
X27750Y88425D02*
D03*
X30150Y91450D02*
D03*
X29675Y85925D02*
D03*
X28900D02*
D03*
X36500Y85650D02*
D03*
X30075Y86975D02*
D03*
X28900D02*
D03*
X21500Y84300D02*
D03*
X21500Y87800D02*
D03*
X30000Y89575D02*
D03*
X48250Y69925D02*
D03*
X29400Y83450D02*
D03*
X28525Y73250D02*
D03*
X29750Y75475D02*
D03*
X30200Y77025D02*
D03*
X27900Y74375D02*
D03*
X28875Y74000D02*
D03*
X16600Y77350D02*
D03*
Y76800D02*
D03*
X16150Y75300D02*
D03*
X18350Y75925D02*
D03*
X18125Y83325D02*
D03*
X19300Y67875D02*
D03*
X28850Y69650D02*
D03*
X37000Y82950D02*
D03*
D19*
X32500Y71800D02*
D03*
X33400D02*
D03*
X35050Y69825D02*
D03*
X34150D02*
D03*
X35050Y67100D02*
D03*
X34150D02*
D03*
X53550Y61825D02*
D03*
X52650D02*
D03*
X41350Y72325D02*
D03*
X40450D02*
D03*
X41675Y71300D02*
D03*
X40775D02*
D03*
X36200Y68950D02*
D03*
X37100D02*
D03*
X38800Y69950D02*
D03*
X37900D02*
D03*
X41675Y70275D02*
D03*
X40775D02*
D03*
X54625Y70750D02*
D03*
X55525D02*
D03*
X21550Y67875D02*
D03*
X20650D02*
D03*
D23*
X27587Y68387D02*
X27600Y68375D01*
X27550Y68425D02*
X27587Y68387D01*
X27550Y70750D02*
X27800D01*
X28200Y70350D01*
X26700Y68950D02*
X27225Y68425D01*
X28250Y64800D02*
X28450Y65000D01*
X28250Y63450D02*
Y64800D01*
X27950Y63425D02*
Y65000D01*
X27400Y63550D02*
Y65000D01*
X27300Y68000D02*
X27500D01*
X24550Y68500D02*
X26725D01*
X27400Y67825D01*
Y67800D02*
Y67825D01*
X26375Y68950D02*
X26700D01*
X27175D02*
X27350D01*
X26725Y69400D02*
X27175Y68950D01*
X26300Y69400D02*
X26725D01*
X26650Y71900D02*
X27400Y71150D01*
X27900D02*
Y71650D01*
X27575Y71975D02*
X27900Y71650D01*
X28400Y71150D02*
Y72100D01*
X27225Y68425D02*
X27550D01*
X27350Y68950D02*
X27425Y68875D01*
X28500Y65375D02*
X28875Y65750D01*
X28088Y65375D02*
X28500D01*
X27781Y65681D02*
X28088Y65375D01*
X27613Y65850D02*
X27781Y65681D01*
X27275Y65850D02*
X27613D01*
X27920Y66055D02*
X28225Y65750D01*
X27257Y66055D02*
X27920D01*
X26875Y65500D02*
X27475D01*
X26750Y66400D02*
X27400D01*
X27538Y70250D02*
X28138Y69650D01*
X27175Y70250D02*
X27538D01*
X27325Y70500D02*
X27550D01*
X27175Y69400D02*
X27400D01*
X26825Y69750D02*
X27175Y69400D01*
X26225Y69750D02*
X26825D01*
X30095Y71380D02*
Y72400D01*
Y71380D02*
X30300Y71175D01*
X29400Y83450D02*
X31850D01*
X30175Y73150D02*
X30200Y73175D01*
X28950Y71400D02*
X29025Y71475D01*
Y71700D01*
X28950Y70900D02*
Y71400D01*
Y70900D02*
X29575Y70275D01*
X27550Y70500D02*
X28050Y70000D01*
X28550D02*
X28900Y69650D01*
X28300Y70000D02*
X28550D01*
X28050D02*
X28300D01*
X28138Y69650D02*
X28200D01*
D24*
X52900Y69800D02*
X53375D01*
X57850Y70000D02*
Y70675D01*
X57150Y70625D02*
X57300Y70475D01*
X57100Y70675D02*
X57150Y70625D01*
X22700Y67900D02*
X23925D01*
X21550D02*
X22700D01*
X23925D02*
X24900D01*
X30000Y89575D02*
X30600Y88975D01*
Y86800D02*
Y88975D01*
X30225Y86425D02*
X30600Y86800D01*
X29400Y86425D02*
X30225D01*
X28100Y89450D02*
X30000Y87550D01*
X27650Y89450D02*
X28100D01*
X50650Y69925D02*
Y70675D01*
X52900Y69725D02*
Y69800D01*
X55450Y70750D02*
X55475Y70775D01*
X57300Y70200D02*
Y70475D01*
X57025Y69925D02*
X57300Y70200D01*
X57200Y70675D02*
X57850D01*
X57775Y69925D02*
X57850Y70000D01*
X56200Y70675D02*
X56250Y70625D01*
X58760Y70560D02*
X58875Y70675D01*
X58760Y70160D02*
Y70560D01*
X58525Y69925D02*
X58760Y70160D01*
X60440Y70565D02*
X60550Y70675D01*
X59550Y70575D02*
X59650Y70675D01*
X60440Y70215D02*
Y70565D01*
X24600Y67175D02*
X25200D01*
X55750Y69275D02*
Y69625D01*
X55450Y69925D02*
X55750Y69625D01*
X49075Y69950D02*
Y70550D01*
X48250Y69950D02*
X48300Y70000D01*
Y70425D01*
X48175Y70550D02*
X48300Y70425D01*
X51875Y69925D02*
X52000Y69800D01*
X51450Y69925D02*
X51875D01*
X52000Y69800D02*
Y70625D01*
X52125Y70750D01*
X53375Y69800D02*
X53675Y70100D01*
X52900Y69575D02*
X53450Y69025D01*
X53500D01*
X55450Y69925D02*
Y70750D01*
X56250Y69925D02*
Y70625D01*
X57850Y70675D02*
X57860Y70685D01*
X59550Y69975D02*
Y70575D01*
X59500Y69925D02*
X59550Y69975D01*
X59390Y69925D02*
X59500D01*
X51925Y61825D02*
X52650D01*
X60150Y69925D02*
X60440Y70215D01*
X57450Y62625D02*
X58040D01*
X58130Y62535D01*
X57450Y63425D02*
X57460Y63435D01*
X58130D01*
X24900Y67900D02*
X25075Y68075D01*
X26925Y89450D02*
X27650D01*
X30000Y89575D02*
X30325Y89900D01*
X30925D01*
X28900Y85925D02*
X29400Y86425D01*
X57850Y70675D02*
X57900D01*
X30150Y91450D02*
X30775D01*
X30000Y87050D02*
Y87550D01*
X28900Y86975D02*
Y87350D01*
X29100Y87550D01*
X26800Y88175D02*
X27500D01*
X27750Y88425D01*
X23625Y86400D02*
X26800Y89575D01*
X22186Y83850D02*
X22450Y84114D01*
Y84486D01*
X22331Y84606D02*
X22450Y84486D01*
X21686Y83850D02*
X22186D01*
X22331Y84606D02*
X23006D01*
X23625Y85225D01*
Y86400D01*
X19761Y81925D02*
X21686Y83850D01*
X12650Y81925D02*
X19761D01*
X12125Y81400D02*
X12650Y81925D01*
X12125Y77100D02*
Y81400D01*
Y77100D02*
X12650D01*
X12850Y77300D01*
Y80125D01*
X13525Y80800D01*
X19300Y67875D02*
X20650D01*
X52900Y69575D02*
Y69725D01*
X57100Y70675D02*
X57200D01*
X55750Y69250D02*
Y69275D01*
D25*
X28900Y70350D02*
Y70703D01*
Y70275D02*
Y70350D01*
X54600Y70725D02*
X54650Y70675D01*
X54575Y70750D02*
X54600Y70725D01*
X55925Y64100D02*
Y64175D01*
Y64100D02*
Y64100D01*
X44840Y63990D02*
Y65140D01*
X44975Y65275D01*
X44610Y65235D02*
X44880Y65505D01*
X44610Y64085D02*
Y65235D01*
X23925Y66725D02*
X24000Y66650D01*
X54575Y70750D02*
X54575D01*
X54730Y64445D02*
X55000D01*
X55500Y64675D02*
X55825Y65000D01*
X55480Y64445D02*
X55825Y64100D01*
X55000Y64445D02*
X55480D01*
X54825Y64675D02*
X55500D01*
X55000Y64445D02*
X55000Y64445D01*
X54625Y64875D02*
X54825Y64675D01*
X54530Y64645D02*
X54730Y64445D01*
X54145Y64645D02*
X54530D01*
X54020Y64520D02*
X54145Y64645D01*
X53775Y64520D02*
X54020D01*
X54050Y64875D02*
X54625D01*
X53925Y64750D02*
X54050Y64875D01*
X53725Y64750D02*
X53925D01*
X53155Y64520D02*
X53450Y64225D01*
X53480D01*
X53450D02*
X53450D01*
X53480D02*
X53775Y64520D01*
X53450Y65025D02*
X53725Y64750D01*
X44475Y63625D02*
X44840Y63990D01*
X44380Y63855D02*
X44610Y64085D01*
X44270Y63855D02*
X44380D01*
X44175Y63625D02*
X44475D01*
X44175Y63950D02*
X44270Y63855D01*
X43945Y63855D02*
X44175Y63625D01*
X35750Y66250D02*
X36475D01*
X36815Y65910D01*
X36570Y66480D02*
X36910Y66140D01*
X42070Y62005D02*
X42305D01*
X42000Y62075D02*
X42070Y62005D01*
X42305D02*
X42400Y62100D01*
Y66800D01*
X42650Y62025D02*
Y66725D01*
X42375Y61750D02*
X42650Y62025D01*
X42000Y61750D02*
X42375D01*
X41770Y61980D02*
X42000Y61750D01*
X42945Y67030D02*
X44175Y65800D01*
X42630Y67030D02*
X42945D01*
X42400Y66800D02*
X42630Y67030D01*
X42850Y66800D02*
X43945Y65705D01*
X42725Y66800D02*
X42850D01*
X42650Y66725D02*
X42725Y66800D01*
X35780Y66545D02*
Y66805D01*
Y66545D02*
X35845Y66480D01*
X36570D01*
X35550Y66450D02*
X35750Y66250D01*
X35550Y66450D02*
Y66900D01*
X35755Y67105D01*
X35850Y66875D02*
X37550D01*
X35780Y66805D02*
X35850Y66875D01*
X37455Y67105D02*
X37525Y67175D01*
X35755Y67105D02*
X37455D01*
X37550Y66875D02*
X37755Y67080D01*
X37525Y67175D02*
Y67575D01*
X37755Y67080D02*
Y67670D01*
X43945Y63855D02*
Y65705D01*
X44175Y63950D02*
Y65800D01*
X37685Y65910D02*
X38650Y66875D01*
X36815Y65910D02*
X37685D01*
X37425Y67675D02*
X37525Y67575D01*
X36825Y67675D02*
X37425D01*
X36700Y67550D02*
X36825Y67675D01*
X36600Y67550D02*
X36700D01*
X37590Y66140D02*
X38420Y66970D01*
X36910Y66140D02*
X37590D01*
X33375Y67025D02*
X34150D01*
X52955Y64520D02*
X53155D01*
X53175Y64750D02*
X53450Y65025D01*
X53050Y64750D02*
X53175D01*
X37520Y67905D02*
X37755Y67670D01*
X36820Y67905D02*
X37520D01*
X36600Y68050D02*
X36675D01*
X36820Y67905D01*
X44975Y65275D02*
X51650D01*
X52000Y64925D01*
X44880Y65505D02*
X51745D01*
X52088Y65163D01*
X52000Y64925D02*
X52550D01*
X52955Y64520D01*
X52088Y65163D02*
X52637D01*
X53050Y64750D01*
X33550Y69225D02*
X34150Y69825D01*
X33550Y69225D02*
X33550D01*
X26025Y65675D02*
X26750Y66400D01*
X31475Y64175D02*
Y65000D01*
X31500Y70950D02*
Y71750D01*
X31400Y71850D02*
X31500Y71750D01*
X31975Y63525D02*
Y65000D01*
X33800Y64375D02*
X33850Y64325D01*
X31800Y63350D02*
X31975Y63525D01*
Y72525D02*
X32150Y72700D01*
X32475Y71775D02*
X32500Y71800D01*
X31200Y60975D02*
X32325D01*
X32725Y61375D01*
X26800Y89575D02*
X26925Y89450D01*
X28825Y85350D02*
X28900Y85425D01*
X23925Y65050D02*
X23925Y65050D01*
X28750Y70853D02*
Y71700D01*
X30000Y87050D02*
X30075Y86975D01*
X22000Y84300D02*
Y86800D01*
X21500Y84300D02*
Y87800D01*
X39645Y67520D02*
X39825Y67700D01*
X38420Y66970D02*
Y67395D01*
X38650Y66875D02*
Y67300D01*
X38420Y67395D02*
X38775Y67750D01*
X39550D01*
X39730Y67930D01*
X38650Y67300D02*
X38870Y67520D01*
X39645D01*
X39730Y67930D02*
X41470D01*
X42000Y67400D01*
Y62075D02*
Y67400D01*
X39825Y67700D02*
X41375D01*
X41770Y67305D01*
Y61980D02*
Y67305D01*
X28750Y70853D02*
X28900Y70703D01*
X28900Y70275D02*
X28900Y70275D01*
D26*
X25250Y68075D02*
X26525D01*
X25075D02*
X25250D01*
X26125Y66650D02*
X26700D01*
X26950Y66900D01*
X27200Y67400D02*
X27500D01*
X26525Y68075D02*
X27200Y67400D01*
X26950Y66900D02*
X27400D01*
X22700Y66050D02*
X23825D01*
X23925Y65950D01*
X15325Y76125D02*
Y81100D01*
Y76125D02*
X16150Y75300D01*
D28*
X53713Y70963D02*
X53925Y70750D01*
X53675Y71000D02*
X53713Y70963D01*
X51888Y61862D02*
X51925Y61825D01*
X51875Y61875D02*
X51888Y61862D01*
X47725Y69925D02*
Y70925D01*
X37875Y69925D02*
X38850Y68950D01*
X38025Y70650D02*
X38050Y70675D01*
X37875Y70500D02*
X38025Y70650D01*
X38362Y71438D02*
X38375Y71450D01*
X38350Y71425D02*
X38362Y71438D01*
X39362Y65562D02*
X39375Y65550D01*
X38975Y65950D02*
X39362Y65562D01*
X50250Y68225D02*
X50275Y68200D01*
X50200Y68275D02*
X50250Y68225D01*
X50250Y68200D02*
X50275D01*
X49954D02*
X50250D01*
X35075Y67000D02*
Y67100D01*
X45875Y64600D02*
X47750D01*
X35188Y64012D02*
X35200Y64000D01*
X35175Y64025D02*
X35188Y64012D01*
X53575Y61825D02*
Y62325D01*
Y61775D02*
Y61825D01*
X45540Y64865D02*
X45685Y65010D01*
X48290Y62515D02*
X48500Y62725D01*
X52650Y68225D02*
X53075Y68650D01*
X52500Y68584D02*
Y68814D01*
X52650Y68964D01*
Y69025D01*
X39075Y69750D02*
X41384D01*
X41574Y69560D01*
X44406Y56550D02*
X44706Y56250D01*
X44269Y56550D02*
X44406D01*
X43969Y56250D02*
X44269Y56550D01*
X43056D02*
X43356Y56250D01*
X42819Y56550D02*
X43056D01*
X42519Y56250D02*
X42819Y56550D01*
X39125Y66725D02*
Y67025D01*
Y66725D02*
X39200Y66650D01*
X37300Y70300D02*
X37500Y70500D01*
X35900Y70300D02*
X37300D01*
X35400Y70800D02*
X35900Y70300D01*
X37500Y70500D02*
X37875D01*
X40825Y72925D02*
X40975Y73075D01*
X40955Y75526D02*
Y76495D01*
X40795Y76655D02*
X40955Y76495D01*
X40501Y76655D02*
X40795D01*
X43125Y77700D02*
X43370Y77945D01*
X42969Y77700D02*
X43125D01*
X42797Y77872D02*
X42969Y77700D01*
X40580Y77198D02*
X40703Y77075D01*
X39740Y76810D02*
Y77784D01*
Y76810D02*
X40455Y76095D01*
X40160Y76996D02*
X40501Y76655D01*
X40703Y77075D02*
X41275D01*
X53925Y70750D02*
X54575D01*
X53075Y68650D02*
X57550D01*
X58125Y69225D01*
X54850Y69275D02*
Y69725D01*
X54650Y69925D02*
X54850Y69725D01*
X54650Y69925D02*
Y70675D01*
X49584Y62725D02*
X49634Y62675D01*
X48500Y62725D02*
X49584D01*
X49634Y62675D02*
X50225D01*
X53175Y62725D02*
X53575Y62325D01*
X52650Y62725D02*
X53175D01*
X37400Y69575D02*
X37938Y69037D01*
X36800Y69575D02*
X37400D01*
X36200Y68975D02*
X36800Y69575D01*
X43805Y68576D02*
Y69545D01*
X43600Y69750D02*
X43805Y69545D01*
X42750Y69750D02*
X43600D01*
X52450Y67750D02*
X52675D01*
X51315Y66615D02*
X52450Y67750D01*
X45860Y66615D02*
X51315D01*
X52675Y67750D02*
X52725Y67800D01*
X53875D01*
X41574Y69560D02*
X42560D01*
X42750Y69750D01*
X52250Y68334D02*
X52500Y68584D01*
X52250Y67961D02*
Y68334D01*
X52140Y67851D02*
X52250Y67961D01*
X52140Y67845D02*
Y67851D01*
X51200Y66905D02*
X52140Y67845D01*
X46070Y66905D02*
X51200D01*
X47828Y67200D02*
X51085D01*
X47823Y67195D02*
X47828Y67200D01*
X46380Y67195D02*
X47823D01*
X44660Y68915D02*
X46380Y67195D01*
X50949Y67495D02*
X51440Y67986D01*
X47713Y67495D02*
X50949D01*
X47703Y67485D02*
X47713Y67495D01*
X46690Y67485D02*
X47703D01*
X45080Y69095D02*
X46690Y67485D01*
X49829Y68075D02*
X49954Y68200D01*
X47300Y68075D02*
X49829D01*
X45925Y69450D02*
X47300Y68075D01*
X43356Y56250D02*
X43969D01*
X38125D02*
X42519D01*
X40307Y60050D02*
X41100D01*
Y60045D02*
X41224D01*
X41384Y59884D01*
X41611D01*
X41776Y60050D01*
X42750D01*
X39764D02*
X39907Y59907D01*
X38482Y60050D02*
X39764D01*
X39907Y59907D02*
X40164D01*
X40307Y60050D01*
X40250Y71600D02*
Y72075D01*
X40075Y71425D02*
X40250Y71600D01*
X40350Y71100D02*
X40575D01*
X40150Y70900D02*
X40350Y71100D01*
X40575D02*
X40775Y71300D01*
X38044Y56925D02*
X39325D01*
X37450Y57519D02*
X38044Y56925D01*
X53650Y60650D02*
Y60850D01*
X53575Y60925D02*
X53650Y60850D01*
X52114Y60925D02*
X53575D01*
X51744Y61295D02*
X52114Y60925D01*
X52875Y60550D02*
X53550D01*
X53650Y60650D01*
X52807Y60232D02*
X52919Y60119D01*
X52807Y60232D02*
Y60482D01*
X52875Y60550D01*
X51010Y62315D02*
X51304Y62021D01*
Y61454D02*
Y62021D01*
Y61454D02*
X51463Y61295D01*
X51744D01*
X52919Y60119D02*
X53265D01*
X53635Y59749D01*
Y59040D02*
Y59749D01*
X53320Y58725D02*
X53635Y59040D01*
X53320Y57156D02*
Y58725D01*
X51544Y55380D02*
X53320Y57156D01*
X38850Y55380D02*
X51544D01*
X37811Y55375D02*
X38850D01*
X34155Y60376D02*
X34530Y60001D01*
X34155Y60376D02*
Y62445D01*
X33850Y62750D02*
X34155Y62445D01*
X51570Y60875D02*
X52900Y59545D01*
X51380Y55810D02*
X52900Y57330D01*
Y59545D01*
X34575Y64775D02*
X34650Y64850D01*
X34575Y60550D02*
Y64775D01*
Y60550D02*
X34950Y60175D01*
X37236Y56545D02*
X37971Y55810D01*
X51380D01*
X37235Y56545D02*
X37236D01*
X51289Y60875D02*
X51570D01*
X44706Y56250D02*
X45244D01*
X45497Y56503D01*
X45708D01*
X45961Y56250D01*
X39325Y56925D02*
X39550Y56700D01*
X35805Y62431D02*
X36200Y62826D01*
Y63800D01*
Y62825D02*
Y62826D01*
X36175Y62800D02*
X36200Y62825D01*
X46662Y57925D02*
X50525D01*
X46252Y58335D02*
X46662Y57925D01*
X50525D02*
X50800Y58200D01*
X46426Y58755D02*
X46831Y58350D01*
X47469D01*
X47569Y58450D01*
X47900D01*
X48000Y58350D01*
X49806D01*
X49925Y58469D01*
X46475Y59300D02*
X47005Y58770D01*
X47295D01*
X47400Y58875D01*
X51206Y56230D02*
X52480Y57504D01*
X45961Y56250D02*
X45981Y56230D01*
X51206D01*
X51032Y56650D02*
X52060Y57678D01*
X46155Y56650D02*
X51032D01*
X45730Y57075D02*
X46155Y56650D01*
X50863Y57075D02*
X51640Y57852D01*
X46324Y57075D02*
X50863D01*
X45904Y57495D02*
X46324Y57075D01*
X50694Y57500D02*
X51220Y58026D01*
X46493Y57500D02*
X50694D01*
X46078Y57915D02*
X46493Y57500D01*
X39550Y56700D02*
X40025D01*
X39349Y57495D02*
X45904D01*
X38906Y57939D02*
X39349Y57495D01*
X39523Y57915D02*
X46078D01*
X39080Y58359D02*
X39523Y57915D01*
X39682Y58350D02*
X40389D01*
X39254Y58779D02*
X39682Y58350D01*
X39801Y58825D02*
X40270D01*
X39421Y59205D02*
X39801Y58825D01*
X39975Y59245D02*
X40096D01*
X39595Y59625D02*
X39975Y59245D01*
X37624Y57939D02*
X38906D01*
X37798Y58359D02*
X39080D01*
X37971Y58779D02*
X39254D01*
X38139Y59205D02*
X39421D01*
X39025Y59625D02*
X39595D01*
X40625Y57075D02*
X41000Y56700D01*
X40400Y57075D02*
X40625D01*
X41000Y56700D02*
X41250D01*
X40025D02*
X40400Y57075D01*
X42175Y56700D02*
X42375D01*
X41250D02*
X41625Y57075D01*
X41800D01*
X42175Y56700D01*
X43125Y57075D02*
X43500Y56700D01*
X42750Y57075D02*
X43125D01*
X43500Y56700D02*
X43825D01*
X42375D02*
X42750Y57075D01*
X44850Y56700D02*
X45100D01*
X43825D02*
X44200Y57075D01*
X44475D01*
X44850Y56700D01*
X45100D02*
X45475Y57075D01*
X45730D01*
X49739Y60880D02*
X50690D01*
X49294Y61325D02*
X49739Y60880D01*
X50690D02*
X51115Y60455D01*
X51396D01*
X52480Y59371D01*
Y57504D02*
Y59371D01*
X49120Y60905D02*
X49565Y60460D01*
X50516D01*
X51222Y60035D02*
X52060Y59197D01*
X50516Y60460D02*
X50941Y60035D01*
X51222D01*
X37450Y57519D02*
X37450D01*
X37276Y57099D02*
X38125Y56250D01*
X37276Y57099D02*
X37276D01*
X45961Y56250D02*
X45961Y56250D01*
X35200Y64000D02*
X35250D01*
X35175D02*
X35200D01*
X35385Y62605D02*
X35560Y62780D01*
Y63690D01*
X35250Y64000D02*
X35560Y63690D01*
X36225Y62257D02*
X37225Y63257D01*
X36645Y62083D02*
X38057Y63495D01*
X37065Y61909D02*
X37791Y62634D01*
X37945Y62195D02*
X38700D01*
X37485Y61735D02*
X37945Y62195D01*
X38175Y61775D02*
X38450D01*
X37925Y61525D02*
X38175Y61775D01*
X37925Y61075D02*
Y61525D01*
X37791Y62634D02*
X38234D01*
X37225Y63257D02*
Y64000D01*
X38057Y63495D02*
Y63757D01*
X52060Y57678D02*
Y59197D01*
X48802Y60040D02*
X50342D01*
X47450Y61392D02*
X48802Y60040D01*
X47450Y61392D02*
Y62434D01*
X48911Y61325D02*
X49294D01*
X48737Y60905D02*
X49120D01*
X48650Y61586D02*
X48911Y61325D01*
X48508Y61133D02*
X48737Y60905D01*
X48302Y61133D02*
X48508D01*
X49533Y62315D02*
X51010D01*
X49474Y62374D02*
X49533Y62315D01*
X51513Y62713D02*
X52638D01*
X51190Y63035D02*
X51513Y62713D01*
X45685Y65010D02*
X50215D01*
X50575Y64650D02*
X51425D01*
X50215Y65010D02*
X50575Y64650D01*
X49959Y69025D02*
X50250D01*
X49599Y68665D02*
X49959Y69025D01*
X49301Y68665D02*
X49599D01*
X49291Y68675D02*
X49301Y68665D01*
X49175Y68675D02*
X49291D01*
X49050Y68800D02*
X49175Y68675D01*
X49050Y68800D02*
Y69411D01*
X46990Y67785D02*
X50685D01*
X46000Y66975D02*
X46070Y66905D01*
X51640Y57852D02*
Y59023D01*
X50342Y60040D02*
X50767Y59615D01*
X51048D01*
X51640Y59023D01*
X51220Y58026D02*
Y58849D01*
X50874Y59195D02*
X51220Y58849D01*
X50593Y59195D02*
X50874D01*
X42677Y58335D02*
X46252D01*
X42337Y58675D02*
X42677Y58335D01*
X42183Y58675D02*
X42337D01*
X41858Y58350D02*
X42183Y58675D01*
X40812D02*
X41137Y58350D01*
X40714Y58675D02*
X40812D01*
X40389Y58350D02*
X40714Y58675D01*
X50800Y58200D02*
Y58675D01*
X38450Y63075D02*
X39275D01*
X38350Y62975D02*
X38450Y63075D01*
X38350Y62750D02*
Y62975D01*
X38234Y62634D02*
X38350Y62750D01*
X50419Y58775D02*
X50700D01*
X50800Y58675D01*
X49994Y59200D02*
X50419Y58775D01*
X37400Y65075D02*
Y65500D01*
X37225Y64900D02*
X37400Y65075D01*
X38125Y65025D02*
Y65450D01*
Y65025D02*
X38250Y64900D01*
X47875Y61561D02*
X48302Y61133D01*
X47875Y61561D02*
Y62350D01*
X47030Y61167D02*
X48577Y59620D01*
X46610Y60993D02*
X48403Y59200D01*
X46190Y60819D02*
X48229Y58780D01*
X47400Y58875D02*
Y59015D01*
X45770Y60645D02*
X47400Y59015D01*
X46000Y59670D02*
Y59821D01*
X45350Y60471D02*
X46000Y59821D01*
X47030Y61167D02*
Y62608D01*
X48577Y59620D02*
X50168D01*
X46610Y60993D02*
Y62785D01*
X48403Y59200D02*
X49994D01*
X46190Y60819D02*
Y62959D01*
X48229Y58780D02*
X49820D01*
X45770Y60645D02*
Y63145D01*
X45350Y60471D02*
Y63319D01*
X44930Y60855D02*
Y63493D01*
X44825Y60750D02*
X44930Y60855D01*
X52638Y62713D02*
X52650Y62725D01*
Y64225D02*
X52875Y64000D01*
X38250Y63950D02*
Y64000D01*
X38057Y63757D02*
X38250Y63950D01*
X50168Y59620D02*
X50593Y59195D01*
X46120Y63495D02*
Y64025D01*
X45770Y63145D02*
X46120Y63495D01*
X45700Y63669D02*
Y64425D01*
X45350Y63319D02*
X45700Y63669D01*
X45250Y63813D02*
Y64750D01*
X44930Y63493D02*
X45250Y63813D01*
X41137Y58350D02*
X41858D01*
X49820Y58780D02*
X49925Y58675D01*
Y58469D02*
Y58675D01*
X39800Y62325D02*
Y64281D01*
X39670Y62195D02*
X39800Y62325D01*
X39691Y64390D02*
X39800Y64281D01*
X40220Y63370D02*
X40400Y63550D01*
X40220Y62700D02*
Y63370D01*
Y62700D02*
X40400Y62520D01*
X40640Y63175D02*
X40925Y63460D01*
X40640Y62874D02*
Y63175D01*
Y62874D02*
X40925Y62589D01*
X39200Y62650D02*
X39325Y62525D01*
Y62375D02*
Y62525D01*
Y62375D02*
X39500Y62200D01*
Y62195D02*
X39670D01*
X38700Y62200D02*
X38825Y62325D01*
Y62500D01*
X38975Y62650D01*
X39200D01*
X39500Y62195D02*
Y62200D01*
X44370Y58755D02*
X46426D01*
X40270Y58825D02*
X40650Y59205D01*
X40476Y59625D02*
X41050D01*
X40096Y59245D02*
X40476Y59625D01*
X41744Y58830D02*
X42119Y59205D01*
X40650D02*
X40876D01*
X41251Y58830D01*
X41744D01*
X44850Y59175D02*
X46099D01*
X46224Y59300D01*
X46475D01*
X37925Y61075D02*
X38125Y60875D01*
Y60769D02*
Y60875D01*
X37905Y60549D02*
X38125Y60769D01*
X41425Y59250D02*
X41570D01*
X41050Y59625D02*
X41425Y59250D01*
X42851Y58755D02*
X43755D01*
X42401Y59205D02*
X42851Y58755D01*
X42119Y59205D02*
X42401D01*
X43400Y59250D02*
Y59425D01*
X43325Y59175D02*
X43400Y59250D01*
X43025Y59175D02*
X43325D01*
X43150Y59675D02*
X43400Y59425D01*
X44305Y58820D02*
X44370Y58755D01*
X44305Y58820D02*
Y59345D01*
X43850Y58850D02*
Y59350D01*
X43755Y58755D02*
X43850Y58850D01*
Y59350D02*
X43925Y59425D01*
X44225D01*
X44305Y59345D01*
X43150Y59675D02*
Y59800D01*
X43285Y59935D01*
X43448D01*
X42575Y59625D02*
X43025Y59175D01*
X41945Y59625D02*
X42575D01*
X38575Y61025D02*
Y61650D01*
X38450Y61775D02*
X38575Y61650D01*
X39125Y61775D02*
X40250D01*
X39025Y61675D02*
X39125Y61775D01*
X39025Y61400D02*
Y61675D01*
X39100Y61325D02*
X40657D01*
X39025Y61400D02*
X39100Y61325D01*
X38705Y60895D02*
X40750D01*
X38575Y61025D02*
X38705Y60895D01*
X43274Y60355D02*
X43650Y60731D01*
X42930Y60355D02*
X43274D01*
X42825Y60250D02*
X42930Y60355D01*
X42825Y60125D02*
Y60250D01*
X42750Y60050D02*
X42825Y60125D01*
X38425Y60475D02*
X42250D01*
X38308Y59630D02*
X39025D01*
X34650Y64850D02*
Y66575D01*
X41570Y59250D02*
X41945Y59625D01*
X40400Y65150D02*
Y65306D01*
X38975Y65950D02*
Y66150D01*
X42330Y60555D02*
Y60825D01*
X42250Y60475D02*
X42330Y60555D01*
X40925Y63460D02*
Y65775D01*
Y61651D02*
Y62589D01*
X40400Y63550D02*
Y64250D01*
Y61925D02*
Y62520D01*
X40250Y61775D02*
X40400Y61925D01*
X39685Y64390D02*
X39691D01*
X39400Y64675D02*
X39685Y64390D01*
X45400Y59595D02*
X45925D01*
X44875Y60325D02*
X45295Y59905D01*
Y59700D02*
Y59905D01*
Y59700D02*
X45400Y59595D01*
X40657Y61325D02*
X40850Y61132D01*
Y60995D02*
Y61132D01*
X40750Y60895D02*
X40850Y60995D01*
X44725Y59459D02*
X44875Y59609D01*
X44725Y59300D02*
Y59459D01*
Y59300D02*
X44850Y59175D01*
X44816Y59784D02*
X44875Y59725D01*
Y59609D02*
Y59725D01*
X44816Y59784D02*
Y59791D01*
X44701Y59899D02*
X44816Y59784D01*
X44263Y59899D02*
X44701D01*
X43448Y59935D02*
X43713Y60200D01*
X43962D01*
X44263Y59899D01*
X44426Y60330D02*
X44725D01*
Y60325D02*
X44875D01*
X45925Y59595D02*
X46000Y59670D01*
X42235Y60920D02*
X42330Y60825D01*
X41656Y60920D02*
X42235D01*
X40925Y61651D02*
X41656Y60920D01*
X39200Y66650D02*
X40725D01*
X43100Y60775D02*
X43230Y60905D01*
X42850Y60775D02*
X43100D01*
X42750Y60875D02*
X42850Y60775D01*
X43650Y60731D02*
Y62580D01*
X43230Y60905D02*
Y62445D01*
X42750Y60875D02*
Y61200D01*
X43625Y63100D02*
X44400D01*
X43525Y63200D02*
Y65545D01*
Y63200D02*
X43625Y63100D01*
X44500Y60850D02*
Y63000D01*
X44400Y63100D02*
X44500Y63000D01*
X45700Y64425D02*
X45875Y64600D01*
X46270Y64175D02*
X47475D01*
X46120Y64025D02*
X46270Y64175D01*
X45250Y64750D02*
X45365Y64865D01*
X45540D01*
X51425Y64650D02*
X51850Y64225D01*
X41350Y61820D02*
Y67100D01*
X42610Y61340D02*
X42750Y61200D01*
X41830Y61340D02*
X42610D01*
X41350Y61820D02*
X41830Y61340D01*
X38825Y64350D02*
X39150Y64025D01*
X38825Y64350D02*
Y65225D01*
X38475Y65575D02*
X38825Y65225D01*
X38475Y65575D02*
Y66150D01*
X51025Y64225D02*
X51050D01*
X37225Y64875D02*
Y64900D01*
X40030Y65676D02*
X40400Y65306D01*
X39825Y66150D02*
X40030Y65945D01*
Y65676D02*
Y65945D01*
X39850Y67275D02*
X41175D01*
X39650Y67075D02*
X39850Y67275D01*
X41175D02*
X41350Y67100D01*
X39475Y66150D02*
X39825D01*
X40850Y65850D02*
X40925Y65775D01*
X43075Y65650D02*
X43075D01*
X43075Y62600D02*
Y65650D01*
Y62600D02*
X43230Y62445D01*
X43320Y65750D02*
X43525Y65545D01*
X43175Y65750D02*
X43320D01*
X43075Y65650D02*
X43175Y65750D01*
X49950Y64525D02*
X50250Y64225D01*
X47475Y64175D02*
X47500Y64150D01*
X34650Y66575D02*
X35075Y67000D01*
X43650Y62580D02*
X43750Y62680D01*
X44025D01*
X44080Y62625D01*
Y60676D02*
Y62625D01*
Y60676D02*
X44426Y60330D01*
X44500Y60850D02*
X44600Y60750D01*
X44825D01*
X51850Y67965D02*
Y68225D01*
X50685Y67785D02*
X51050Y68150D01*
X49181Y68375D02*
X49181Y68375D01*
X47600Y68375D02*
X49181D01*
X47575Y68400D02*
X47600Y68375D01*
X44225Y68750D02*
X46000Y66975D01*
X45500Y69275D02*
X46900Y67875D01*
X46900D02*
X46990Y67785D01*
X46355Y69623D02*
X47598Y68380D01*
X50650Y68625D02*
X51050Y69025D01*
X50250Y69025D02*
X50250Y69025D01*
X47672Y68900D02*
X47725D01*
X46775Y69797D02*
X47672Y68900D01*
X47846Y69320D02*
X48355D01*
X55420Y69955D02*
X55450Y69925D01*
X51850Y68786D02*
Y69025D01*
X49450D02*
X49990Y69565D01*
X49050Y69411D02*
X49450Y69811D01*
Y70075D01*
X37585Y70875D02*
X37600Y70890D01*
X37550Y70875D02*
X37585D01*
X38138Y69037D02*
X38585Y68590D01*
X53200Y67320D02*
X53205Y67325D01*
X53225D01*
X54225Y68150D02*
X57925D01*
X58450Y68675D01*
X34200Y70650D02*
X34300Y70750D01*
X34850Y70425D02*
X35050Y70225D01*
X49450Y70075D02*
X49550Y70175D01*
X48355Y69320D02*
X48650Y69025D01*
X34850Y70425D02*
Y72025D01*
X51050Y68150D02*
Y68225D01*
X35200Y64900D02*
X35350Y65050D01*
X36525Y65425D02*
X36700D01*
X36200Y65100D02*
X36525Y65425D01*
X36200Y64700D02*
Y65100D01*
X35350Y65050D02*
X35684D01*
X36300Y65666D01*
Y65725D01*
X53875Y67800D02*
X54225Y68150D01*
X51085Y67200D02*
X51850Y67965D01*
X42281Y68300D02*
X44836Y65745D01*
X53850Y67325D02*
X53875Y67350D01*
X52550Y67000D02*
Y67325D01*
Y67000D02*
X52700Y66850D01*
X53075D01*
X53440Y66485D01*
X39545Y68300D02*
X42281D01*
X38585Y68590D02*
X38645Y68530D01*
X39275Y69300D02*
X39300Y69325D01*
X38200Y68350D02*
X38440Y68110D01*
X37938Y69037D02*
X38138D01*
X37100Y68925D02*
X37600Y68425D01*
X37100Y68925D02*
Y68950D01*
X36200D02*
Y68975D01*
X42455Y68720D02*
X42550Y68625D01*
X39362Y68714D02*
X39368Y68720D01*
X42455D01*
X52544Y66525D02*
X52859Y66210D01*
X45375Y66400D02*
X45450Y66325D01*
X51440D01*
X51445Y66330D01*
X52075Y66525D02*
X52544D01*
X51445Y66330D02*
X51880D01*
X52075Y66525D01*
X46190Y62959D02*
X46575Y63344D01*
Y63600D01*
X46610Y62785D02*
X47250Y63425D01*
X46575Y63600D02*
X46765Y63790D01*
X49700Y64025D02*
X49860Y63865D01*
X50665D01*
X51025Y64225D01*
X47450Y62434D02*
X47726Y62710D01*
X48032D01*
X48357Y63035D01*
X51190D01*
X47030Y62608D02*
X47497Y63075D01*
X47925D01*
X48375Y63525D01*
X52100D01*
X46765Y63790D02*
X47649D01*
X47250Y63425D02*
X47775D01*
X48375Y64025D01*
X49700D01*
X47649Y63790D02*
X48450Y64591D01*
X49884D01*
X49950Y64525D01*
X52930Y66125D02*
X57200D01*
X52852Y66203D02*
X52930Y66125D01*
X59685Y67065D02*
X59999D01*
X60004Y67070D01*
X60199D01*
X59505Y66645D02*
X60030D01*
X54198Y66485D02*
X54263Y66550D01*
X53440Y66485D02*
X54198D01*
X54263Y66550D02*
X57450D01*
X57800Y66200D01*
X58025D01*
X59075D02*
X59875D01*
X58025D02*
X58375Y66550D01*
X58725D01*
X59075Y66200D01*
X59425Y67325D02*
X59685Y67065D01*
X53850Y67325D02*
X59425D01*
X53225D02*
X53585Y66965D01*
X59185D02*
X59275Y66875D01*
X53585Y66965D02*
X59185D01*
X59275Y66875D02*
X59505Y66645D01*
X57200Y66125D02*
X57575Y65750D01*
X59925D01*
X60025Y65850D01*
Y66050D01*
X59875Y66200D02*
X60025Y66050D01*
X60030Y66645D02*
X60445Y66230D01*
X60199Y67070D02*
X60865Y66404D01*
X49181Y68375D02*
X49719D01*
X49969Y68625D01*
X50650D01*
X51440Y67986D02*
Y68376D01*
X51850Y68786D01*
X42550Y68625D02*
X45140Y66035D01*
X52440D01*
X52685Y65790D01*
X44836Y65745D02*
X52320D01*
X52580Y65485D01*
X56640D01*
X52685Y65790D02*
X56935D01*
X57395Y65330D01*
X60099D01*
X60445Y65676D01*
Y66230D01*
X56640Y65485D02*
X57215Y64910D01*
X60273D01*
X60865Y65502D01*
Y66404D01*
X39575Y69325D02*
X39760Y69140D01*
X39925D01*
X40110Y69325D02*
X40250D01*
X39300Y69325D02*
X39575D01*
X39925Y69140D02*
X40110Y69325D01*
X40375Y69325D02*
X40560Y69140D01*
X40700D01*
X40885Y69325D02*
X40975D01*
X40250Y69325D02*
X40375D01*
X40700Y69140D02*
X40885Y69325D01*
X43805Y68576D02*
X44153Y68228D01*
X44250Y68225D02*
X45860Y66615D01*
X40975Y69325D02*
X41215D01*
X41400Y69140D01*
X43175Y68600D02*
X45415Y66360D01*
X43175Y68600D02*
Y68765D01*
X43385Y68975D01*
X41400Y69140D02*
X42840D01*
X43385Y68975D02*
Y69240D01*
X42840Y69140D02*
X43025Y69325D01*
X43300D01*
X43385Y69240D01*
X44150Y68225D02*
X44250D01*
X38800Y69950D02*
X38875D01*
X58450Y68675D02*
X61025D01*
X61175Y68825D01*
X58125Y69225D02*
X61050D01*
X61175Y69100D01*
Y68825D02*
Y69100D01*
X38875Y69950D02*
X39075Y69750D01*
X40025Y70125D02*
X40275D01*
X40425Y70275D01*
X40775D01*
X41825Y72100D02*
X42000Y71925D01*
X42245Y72455D02*
X42355Y72345D01*
X42150Y71300D02*
X42300Y71150D01*
Y70820D02*
Y71150D01*
Y70820D02*
X42425Y70695D01*
X43201D01*
X43305Y70799D01*
X41675Y71300D02*
X42150D01*
X43475Y70175D02*
X43725Y70425D01*
X42355Y72345D02*
X43605D01*
X43725Y72225D01*
Y70425D02*
Y72225D01*
X41675Y70275D02*
X42050D01*
X42155Y70170D01*
X42445D01*
X42550Y70275D01*
X43150Y70175D02*
X43475D01*
X43050Y70275D02*
X43150Y70175D01*
X42550Y70275D02*
X43050D01*
X42400Y74575D02*
X43625D01*
X43725Y74675D01*
Y76500D01*
X43900Y76675D01*
X43175Y74995D02*
X43305Y75125D01*
X42226Y74995D02*
X43175D01*
X42775Y75875D02*
X42885Y75765D01*
X43110Y76295D02*
X43305Y76100D01*
Y75125D02*
Y76100D01*
X43503Y76872D02*
X43726Y77095D01*
X43375Y76750D02*
X43500Y76875D01*
X42000Y71925D02*
X43100D01*
X43305Y71720D01*
X41405Y74768D02*
X42052Y75415D01*
X40450Y72275D02*
Y72325D01*
X40250Y72075D02*
X40450Y72275D01*
X42052Y75415D02*
X42815D01*
X42885Y75485D01*
Y75765D01*
X39325Y71800D02*
X39550Y72025D01*
X39325Y71425D02*
Y71800D01*
X39550Y72900D02*
Y72925D01*
X41350Y72325D02*
X41395Y72370D01*
X39550Y72925D02*
X40825D01*
X42245Y72455D02*
Y72695D01*
X42350Y72800D01*
X43650D01*
X43725Y72875D01*
Y74000D01*
X43630Y74095D02*
X43725Y74000D01*
X42400Y74095D02*
X43630D01*
X42245Y74250D02*
X42400Y74095D01*
X42245Y74250D02*
Y74420D01*
X42400Y74575D01*
X41825Y72100D02*
Y72869D01*
X42176Y73220D01*
X43175D01*
X43305Y73350D01*
Y73570D01*
X43200Y73675D02*
X43305Y73570D01*
X42226Y73675D02*
X43200D01*
X41825Y74076D02*
X42226Y73675D01*
X41825Y74076D02*
Y74594D01*
X42226Y74995D01*
X41395Y72370D02*
Y73033D01*
X41750Y73388D01*
Y73557D01*
X41405Y73902D02*
X41750Y73557D01*
X41405Y73902D02*
Y74768D01*
X40430Y73425D02*
X40555Y73550D01*
Y73770D01*
X40450Y73875D02*
X40555Y73770D01*
X40855Y74295D02*
X40975Y74175D01*
Y73075D02*
Y74175D01*
X43201Y77170D02*
X43546Y77515D01*
X43305Y71605D02*
Y71720D01*
Y70799D02*
Y70945D01*
X43050Y71200D02*
X43305Y70945D01*
X43050Y71200D02*
Y71350D01*
X43305Y71605D01*
X42800Y76750D02*
X43375D01*
X42805Y76295D02*
X43110D01*
X42700Y76400D02*
X42805Y76295D01*
X42700Y76400D02*
Y76650D01*
X42800Y76750D01*
X42175Y77150D02*
X42280Y77045D01*
X41975Y77150D02*
X42175D01*
X41825Y75825D02*
Y77000D01*
X41975Y77150D01*
X41450Y75625D02*
X41625D01*
X41825Y75825D01*
X41375Y75700D02*
X41450Y75625D01*
X41375Y75700D02*
Y76975D01*
X42280Y76195D02*
Y77045D01*
Y76195D02*
X42600Y75875D01*
X42775D01*
X43370Y77945D02*
X44587D01*
X42905Y77170D02*
X43201D01*
X40665Y77515D02*
X42560D01*
X42905Y77170D01*
X42730Y77945D02*
X42800Y77875D01*
X40955Y75526D02*
X41122Y75359D01*
X40850Y74725D02*
X40955Y74830D01*
Y75030D01*
X41122Y75197D01*
Y75359D01*
X37645Y75065D02*
X37725Y75145D01*
X38065Y74375D02*
X38145Y74295D01*
X38065Y74375D02*
Y74650D01*
X38140Y74725D01*
X38145Y74295D02*
X40855D01*
X38140Y74725D02*
X40850D01*
X38525Y73325D02*
X38625Y73425D01*
X38525Y72900D02*
Y72950D01*
X38625Y73425D02*
X40430D01*
X37725Y75145D02*
X40320D01*
X40455Y75280D01*
X40425Y77875D02*
X40495Y77945D01*
X42730D01*
X40326Y78370D02*
X44756D01*
X41275Y77075D02*
X41375Y76975D01*
X40455Y75280D02*
Y76095D01*
X38275Y73725D02*
X38425Y73875D01*
X40450D01*
X37850Y73725D02*
X38275D01*
X37225Y75250D02*
X37540Y75565D01*
X37645Y73930D02*
Y75065D01*
Y73930D02*
X37725Y73850D01*
Y73850D02*
X37850Y73725D01*
X38375Y71450D02*
Y71900D01*
X38525Y72050D01*
X38500Y70875D02*
X38800D01*
X38325Y71050D02*
X38500Y70875D01*
X37925Y71050D02*
X38325D01*
X37525Y71450D02*
X37925Y71050D01*
X36500Y70875D02*
X37550D01*
X40212Y78850D02*
X44870D01*
X39900Y75565D02*
X40035Y75700D01*
X37540Y75565D02*
X39900D01*
X40035Y75700D02*
Y75921D01*
X38937Y76425D02*
X39025Y76337D01*
X39111Y76845D02*
X40035Y75921D01*
X37225Y73756D02*
X37500Y73481D01*
Y72350D02*
Y73481D01*
X37225Y73756D02*
Y75250D01*
X39225Y77300D02*
X39315Y77390D01*
X37500Y77300D02*
X39225D01*
X37480Y76845D02*
X39111D01*
X37306Y76425D02*
X38937D01*
X37375Y76950D02*
X37480Y76845D01*
X37375Y76950D02*
Y77175D01*
X37500Y77300D01*
X36955Y76776D02*
Y77349D01*
Y76776D02*
X37306Y76425D01*
X37080Y72830D02*
Y73307D01*
X36794Y73594D02*
Y75412D01*
Y73594D02*
X37080Y73307D01*
X36794Y75412D02*
X37366Y75985D01*
X36955Y77349D02*
X37338Y77732D01*
X36178Y72522D02*
X36660Y73004D01*
Y73133D01*
X36374Y73420D02*
X36660Y73133D01*
X36374Y73420D02*
Y75586D01*
X36756Y75969D01*
Y76356D01*
X36535Y76577D02*
X36756Y76356D01*
X36535Y76577D02*
Y77523D01*
X37164Y78152D01*
X38250Y78650D02*
X38400Y78500D01*
Y78226D02*
Y78500D01*
X38326Y78152D02*
X38400Y78226D01*
X37164Y78152D02*
X38326D01*
X37366Y75985D02*
X38935D01*
X39025Y76075D01*
Y76337D01*
X38675Y78850D02*
X39200D01*
X39309Y78741D01*
X38525Y79000D02*
Y79170D01*
X38625Y79270D01*
X38525Y79000D02*
X38675Y78850D01*
X38625Y79270D02*
X45044D01*
X47725Y72806D02*
Y76300D01*
Y72806D02*
X48375Y72156D01*
Y71575D02*
Y72156D01*
X47725Y70925D02*
X48375Y71575D01*
X47305Y69861D02*
Y71361D01*
X47195Y72742D02*
Y77713D01*
X47305Y69861D02*
X47846Y69320D01*
X46775Y72568D02*
Y77539D01*
Y72568D02*
X47225Y72118D01*
Y71875D02*
Y72118D01*
X46775Y71425D02*
X47225Y71875D01*
X46775Y69797D02*
Y71425D01*
X39315Y77390D02*
Y77725D01*
X39309Y78559D02*
Y78741D01*
X39315Y77725D02*
X39320Y77730D01*
X40580Y77430D02*
X40665Y77515D01*
X40580Y77198D02*
Y77430D01*
X40160Y77604D02*
X40428Y77872D01*
X40160Y76996D02*
Y77604D01*
X39740Y77784D02*
X40326Y78370D01*
X39320Y77958D02*
X40212Y78850D01*
X39320Y77730D02*
Y77958D01*
X38875Y78125D02*
X39309Y78559D01*
X37338Y77732D02*
X38707D01*
X38875Y77900D01*
Y78125D01*
X47305Y71361D02*
X47825Y71881D01*
Y72112D01*
X47195Y72742D02*
X47825Y72112D01*
X38451Y79690D02*
X45218D01*
X37861Y79100D02*
X38451Y79690D01*
X37250Y78725D02*
X37325Y78650D01*
X38250D01*
X37250Y78725D02*
Y78975D01*
X37375Y79100D01*
X37861D01*
X35400Y71700D02*
X35525D01*
X36178Y72353D01*
Y72522D01*
X36598Y72348D02*
X37080Y72830D01*
X36475Y71775D02*
X36598Y71898D01*
Y72348D01*
X34850Y72025D02*
X35125Y72300D01*
X35350D01*
X35954Y73246D02*
Y75760D01*
X36115Y76403D02*
Y77697D01*
X36830Y78412D01*
Y79149D01*
X37201Y79520D01*
X37687D01*
X38277Y80110D01*
X45392D01*
X35954Y75760D02*
X36225Y76032D01*
Y76293D01*
X36115Y76403D02*
X36225Y76293D01*
X48795Y71705D02*
X49550Y70950D01*
X48691Y72441D02*
X48795Y72336D01*
X48145Y72980D02*
X48688Y72438D01*
X48795Y71705D02*
Y72336D01*
X49550Y70175D02*
Y70950D01*
X35350Y72300D02*
X35750Y72700D01*
Y73042D01*
X35954Y73246D01*
X35050Y69825D02*
Y70225D01*
X46700Y79250D02*
Y79450D01*
X46376Y79126D02*
X46576D01*
X46700Y79250D01*
X45392Y80110D02*
X46376Y79126D01*
X43900Y76675D02*
X44075D01*
X44225Y76525D01*
Y68750D02*
Y76525D01*
X43726Y77095D02*
X44249D01*
X44660Y76684D01*
Y68915D02*
Y76684D01*
X43546Y77515D02*
X44423D01*
X45080Y76858D01*
Y69095D02*
Y76858D01*
X44587Y77945D02*
X45500Y77032D01*
Y69275D02*
Y77032D01*
X44756Y78370D02*
X45935Y77191D01*
Y69449D02*
Y77191D01*
X44870Y78850D02*
X46355Y77365D01*
Y69623D02*
Y77365D01*
X45044Y79270D02*
X46775Y77539D01*
X45218Y79690D02*
X47195Y77713D01*
X46912Y78589D02*
Y78812D01*
X46287Y79863D02*
X46700Y79450D01*
X46287Y79863D02*
Y79988D01*
X46400Y80100D01*
X46675D01*
X46912Y78812D02*
X47300Y79200D01*
Y79475D01*
X46675Y80100D02*
X47300Y79475D01*
X34300Y72434D02*
X35534Y73668D01*
Y76264D01*
X35695Y76425D01*
Y77871D01*
X36410Y78586D01*
Y79323D01*
X37027Y79940D01*
X37513D01*
X38103Y80530D01*
X46839D01*
X47720Y79649D01*
Y78376D02*
Y79649D01*
X34300Y71650D02*
Y72434D01*
X49725Y69300D02*
X49734D01*
X50225Y69791D01*
X48700Y73025D02*
X48875D01*
X48565Y73160D02*
X48700Y73025D01*
X49450Y71825D02*
X50225Y71050D01*
Y69791D02*
Y71050D01*
X48875Y73025D02*
X49000Y73150D01*
X47615Y77004D02*
X48145Y76474D01*
X47615Y77004D02*
Y77887D01*
X46912Y78589D02*
X47615Y77887D01*
X48145Y72980D02*
Y76474D01*
X48035Y77178D02*
X48565Y76648D01*
X48035Y77178D02*
Y78061D01*
X47720Y78376D02*
X48035Y78061D01*
X48565Y73160D02*
Y76648D01*
X49000Y73150D02*
Y74700D01*
X49100Y74800D01*
X49350D01*
X49450Y74700D01*
Y71825D02*
Y74700D01*
X48290Y62201D02*
X48650Y61841D01*
X48290Y62201D02*
Y62515D01*
X48650Y61586D02*
Y61841D01*
X48650Y62350D02*
X48925D01*
X49925Y61350D01*
X50814D02*
X51289Y60875D01*
X49925Y61350D02*
X50814D01*
X38325Y60207D02*
X38482Y60050D01*
X38325Y60207D02*
Y60375D01*
X38425Y60475D01*
X37905Y60033D02*
X38308Y59630D01*
X37905Y60033D02*
Y60549D01*
X37485Y59859D02*
X38139Y59205D01*
X37485Y59859D02*
Y61735D01*
X37065Y59685D02*
X37971Y58779D01*
X37065Y59685D02*
Y61909D01*
X36645Y59511D02*
X37798Y58359D01*
X36645Y59511D02*
Y62083D01*
X36225Y59337D02*
X37624Y57939D01*
X36225Y59337D02*
Y62257D01*
X35805Y59163D02*
X37450Y57519D01*
X35805Y59163D02*
Y62431D01*
X35385Y58989D02*
X37276Y57099D01*
X35385Y58989D02*
Y62605D01*
X34950Y58830D02*
X37235Y56545D01*
X34950Y58830D02*
Y60175D01*
X34530Y58656D02*
X37811Y55375D01*
X34530Y58656D02*
Y60001D01*
X33550Y65000D02*
X33850Y64700D01*
Y64325D02*
Y64700D01*
Y62750D02*
Y63425D01*
X33625Y70650D02*
X34200D01*
X33550Y70725D02*
X33625Y70650D01*
X38645Y68530D02*
X39181D01*
X39362Y68714D01*
X38440Y68110D02*
X39355D01*
X39545Y68300D01*
X52875Y63450D02*
Y64000D01*
X52100Y63525D02*
X52350Y63275D01*
X52700D01*
X52875Y63450D01*
X36200Y63800D02*
Y64000D01*
X38775Y69950D02*
X38800D01*
X40400Y65125D02*
Y65150D01*
X38525Y72950D02*
Y73325D01*
D29*
X29550Y66675D02*
X29925D01*
X30163Y66438D02*
X30200Y66400D01*
X29925Y66675D02*
X30163Y66438D01*
X28850Y67700D02*
X28900D01*
X28625D02*
X28850D01*
X32800Y69650D02*
X32975Y69825D01*
X34025Y68975D02*
X34138Y68863D01*
X32800Y68950D02*
Y69125D01*
Y68400D02*
Y68950D01*
Y67525D02*
Y68400D01*
Y67100D02*
Y67525D01*
Y66625D02*
Y67100D01*
X32125Y69700D02*
Y70275D01*
Y68975D02*
Y69700D01*
X32088Y68938D02*
X32125Y68975D01*
X32075Y68925D02*
X32088Y68938D01*
X31513Y68363D02*
X32075Y68925D01*
X31500Y68350D02*
X31513Y68363D01*
X35075Y68900D02*
X35800Y68175D01*
X29550Y68400D02*
X29552Y68400D01*
X28850Y68400D02*
X29550D01*
X30150Y67075D02*
X30175Y67050D01*
X29625Y67600D02*
X30150Y67075D01*
X29525Y67625D02*
X29550Y67650D01*
X29538Y67613D02*
X29550Y67625D01*
X28975Y67050D02*
X29538Y67613D01*
X28900Y67050D02*
X28925Y67075D01*
X30562Y64162D02*
X30575Y64150D01*
X30200Y64525D02*
X30562Y64162D01*
X28900Y66450D02*
Y67050D01*
X28825Y66975D02*
X28900Y67050D01*
X28850Y66400D02*
X28925D01*
X28300D02*
X28850D01*
X30200Y65050D02*
X30875D01*
X29575D02*
X30200D01*
X29825Y64150D02*
X30200Y64525D01*
X29562Y65037D02*
X29575Y65050D01*
X29550Y65025D02*
X29562Y65037D01*
X25200Y67175D02*
X25575Y67550D01*
X25175Y69225D02*
Y69575D01*
X25191Y67140D02*
X25200Y67175D01*
X29975Y65950D02*
X30150Y65775D01*
X31500Y64200D02*
X31525Y64175D01*
X31487Y69062D02*
X31525Y69025D01*
X31300Y69250D02*
X31487Y69062D01*
X30888Y69238D02*
X30900Y69250D01*
X30625Y68975D02*
X30888Y69238D01*
X31475Y66475D02*
X32100D01*
X30150Y69025D02*
X30225Y68950D01*
X29925Y69250D02*
X30150Y69025D01*
X28900Y69000D02*
X29150Y69250D01*
X28850Y69000D02*
X28900D01*
X28325D02*
X28850D01*
X31200Y69700D02*
X31450D01*
X30900Y70900D02*
X31450Y70350D01*
X31475D01*
X30900Y70000D02*
X31200Y69700D01*
X32125Y68975D02*
X32150Y69000D01*
X32125Y70275D02*
X32150Y70250D01*
X32075Y70325D02*
X32125Y70275D01*
X32975Y69825D02*
Y70325D01*
X32125Y68125D02*
X32400Y68400D01*
X32775D01*
X33550Y66000D02*
X33598D01*
X33425D02*
X33550D01*
X32950Y66475D02*
X33425Y66000D01*
X30875Y65950D02*
X31025D01*
X31475Y66400D01*
Y66450D01*
X30875Y66700D02*
X31275Y67100D01*
X31475D01*
X32000D02*
X32125Y67225D01*
X31475Y67100D02*
X32000D01*
X30875Y67600D02*
X31025Y67750D01*
X31475D01*
X30725D02*
X30875Y67600D01*
X30175Y67750D02*
X30725D01*
X30875Y68350D02*
X30925Y68400D01*
X31475D01*
X30825D02*
X30875Y68350D01*
X30175Y68400D02*
X30825D01*
X29552Y68400D02*
X30175Y68400D01*
X28250Y68125D02*
X28525Y68400D01*
X29550Y68350D02*
Y68400D01*
Y67650D02*
Y68350D01*
X28525Y68400D02*
X28850D01*
X31500Y70300D02*
X32050D01*
X32800Y69125D02*
X32975Y68950D01*
X50650Y70675D02*
X50725Y70750D01*
X24000Y66650D02*
X26125D01*
X25191Y67140D02*
Y67140D01*
X25175Y67075D02*
X25191Y67140D01*
X25575Y67550D02*
X26125D01*
X25075Y67175D02*
X25200Y67175D01*
X25250Y67125D01*
X29550Y69250D02*
X29925D01*
X30200Y68975D02*
X30625D01*
X30875Y69250D02*
X30900D01*
X31300D01*
X29550Y67600D02*
X29625D01*
X30200Y67050D02*
X30525D01*
X30800Y66775D01*
X30850Y66675D02*
X30875Y66700D01*
X29550Y65950D02*
X29975D01*
X28950Y64225D02*
Y65025D01*
X28925Y64200D02*
X28950Y64225D01*
X33550Y67525D02*
X33650D01*
X34150Y68025D01*
X35050Y68000D02*
X35650D01*
X35825Y68175D01*
X35800D02*
X35825D01*
X33550Y68725D02*
X34000D01*
X34138Y68863D02*
X34138D01*
X34150Y68850D01*
X34000Y68725D02*
X34138Y68863D01*
X34150Y68875D01*
X30200Y64525D02*
Y65025D01*
Y65050D01*
X30725Y71075D02*
Y71500D01*
X30475Y71750D02*
X30725Y71500D01*
X29150Y69250D02*
X29550D01*
X28900Y67050D02*
X28975D01*
X28275Y66425D02*
X28300Y66400D01*
X28300Y69025D02*
X28325Y69000D01*
X25175Y69225D02*
X25450Y68950D01*
X32475Y64375D02*
Y65000D01*
Y63100D02*
Y63475D01*
X31975Y62600D02*
X32475Y63100D01*
X32075Y68925D02*
Y68950D01*
X31400Y65575D02*
X32100D01*
X30875Y65050D02*
X31400Y65575D01*
X32100D02*
Y65625D01*
X33200Y68725D02*
X33550D01*
X32975Y68950D02*
X33200Y68725D01*
X33075Y70225D02*
X33550D01*
X32975Y70325D02*
X33075Y70225D01*
X32800Y69125D02*
Y69650D01*
X32050Y70300D02*
X32075Y70325D01*
X31975Y71150D02*
Y72525D01*
X33050Y72700D02*
X33400Y72350D01*
Y71800D02*
Y72350D01*
X33200Y71150D02*
Y71600D01*
X33400Y71800D01*
X32475Y71050D02*
Y71775D01*
X33550Y66500D02*
X33900D01*
X34175Y66225D01*
X33598Y66000D02*
X33796Y65802D01*
X33925D01*
X34175Y65552D01*
Y65325D02*
Y65552D01*
X33025Y65500D02*
X33550D01*
X32950Y65575D02*
X33025Y65500D01*
X32100Y65575D02*
X32950D01*
X32800Y66625D02*
X32950Y66475D01*
X32800Y67525D02*
X33550D01*
X28900Y85425D02*
Y85925D01*
X29675Y85400D02*
Y85925D01*
Y85400D02*
X29725Y85350D01*
X23250Y65050D02*
X23925D01*
X28300Y67375D02*
X28625Y67700D01*
X30775Y91450D02*
X30925Y91300D01*
D34*
X29825Y71150D02*
Y72800D01*
X29750Y73850D02*
Y75475D01*
X30200Y73175D02*
Y77025D01*
X29825Y72800D02*
X30175Y73150D01*
X29300Y71725D02*
X29475Y71900D01*
Y73575D01*
X29300Y71150D02*
Y71725D01*
X29475Y73575D02*
X29750Y73850D01*
X28750Y72875D02*
X28900Y73025D01*
X28750Y71700D02*
Y72875D01*
X28400Y73900D02*
Y76800D01*
Y73900D02*
X28900Y73400D01*
Y73025D02*
Y73400D01*
D37*
X22800Y89350D02*
D03*
X64400Y1425D02*
D03*
X3650Y26550D02*
D03*
X21075Y2425D02*
D03*
X21250Y104175D02*
D03*
X26800Y115375D02*
D03*
X9650Y110500D02*
D03*
X3875Y115700D02*
D03*
X56575Y26425D02*
D03*
X82625Y27975D02*
D03*
X44125Y4175D02*
D03*
X3100Y5150D02*
D03*
X49150Y82200D02*
D03*
X44800Y82050D02*
D03*
X54750Y82075D02*
D03*
X24750Y96475D02*
D03*
X78850Y76925D02*
D03*
X77800Y94450D02*
D03*
X77925Y86425D02*
D03*
X65000Y78725D02*
D03*
X63500Y81900D02*
D03*
X64950Y86775D02*
D03*
X58950Y82000D02*
D03*
X64150Y94525D02*
D03*
X40400Y94900D02*
D03*
X7775Y104275D02*
D03*
X19925Y89075D02*
D03*
X31650Y96425D02*
D03*
X18500Y96475D02*
D03*
X13350Y96500D02*
D03*
X6900Y96000D02*
D03*
X3425Y92950D02*
D03*
X4300Y85825D02*
D03*
X4400Y73375D02*
D03*
X8550Y73150D02*
D03*
X13250D02*
D03*
X17700Y72600D02*
D03*
X14975Y68350D02*
D03*
X15475Y63925D02*
D03*
X16600Y59050D02*
D03*
X26100D02*
D03*
X31475D02*
D03*
X40600Y103600D02*
D03*
X40675Y111425D02*
D03*
X51150Y111950D02*
D03*
X64125Y112025D02*
D03*
X76950Y112250D02*
D03*
X51225Y103675D02*
D03*
X64200Y103525D02*
D03*
X77175Y103450D02*
D03*
X51075Y94650D02*
D03*
X77175Y66025D02*
D03*
X77400Y54650D02*
D03*
X77475Y46825D02*
D03*
X64500Y46225D02*
D03*
X51075Y46375D02*
D03*
X40450Y46150D02*
D03*
X15375Y44500D02*
D03*
X26075Y44300D02*
D03*
X4575Y43700D02*
D03*
X5675Y52800D02*
D03*
X6175Y61075D02*
D03*
X6475Y67750D02*
D03*
X64400Y57275D02*
D03*
X64625Y67225D02*
D03*
X25050Y82925D02*
D03*
Y78200D02*
D03*
X1550Y96950D02*
D03*
X15350Y52750D02*
D03*
X26200Y52650D02*
D03*
X15850Y26325D02*
D03*
X25975D02*
D03*
X40275Y26275D02*
D03*
X70050Y26425D02*
D03*
D38*
X22700Y67650D02*
D03*
Y66050D02*
D03*
M02*
