G04 Layer_Physical_Order=3*
G04 Layer_Color=16440176*
%FSLAX43Y43*%
%MOMM*%
G71*
G01*
G75*
%ADD18C,0.400*%
%ADD23C,0.090*%
%ADD24C,0.300*%
%ADD25C,0.100*%
%ADD26C,0.200*%
%ADD29C,0.175*%
%ADD37C,0.600*%
G36*
X85575Y425D02*
X408D01*
Y119592D01*
X85575D01*
Y425D01*
D02*
G37*
%LPC*%
G36*
X31200Y61281D02*
X31083Y61258D01*
X30984Y61191D01*
X30917Y61092D01*
X30894Y60975D01*
X30917Y60858D01*
X30984Y60759D01*
X31083Y60692D01*
X31200Y60669D01*
X31317Y60692D01*
X31416Y60759D01*
X31483Y60858D01*
X31506Y60975D01*
X31483Y61092D01*
X31416Y61191D01*
X31317Y61258D01*
X31200Y61281D01*
D02*
G37*
G36*
X30700Y96141D02*
X11500D01*
X11427Y96127D01*
X11365Y96085D01*
X7690Y92410D01*
X7648Y92348D01*
X7634Y92275D01*
Y87050D01*
X7648Y86977D01*
X7690Y86915D01*
X7865Y86740D01*
X7927Y86698D01*
X8000Y86684D01*
X9017D01*
X9211Y86613D01*
X9216Y82936D01*
X9223Y82919D01*
X9222Y82901D01*
X9238Y82882D01*
X9248Y82859D01*
X9229Y82708D01*
X9204Y82640D01*
X7370Y80805D01*
X7315Y80723D01*
X7295Y80625D01*
Y76550D01*
X7315Y76452D01*
X7370Y76370D01*
X15020Y68720D01*
X15028Y68714D01*
X15339Y68403D01*
X15345Y68395D01*
X16045Y67695D01*
X16127Y67640D01*
X16225Y67620D01*
X19141D01*
X19183Y67592D01*
X19300Y67569D01*
X19417Y67592D01*
X19516Y67659D01*
X19583Y67758D01*
X19606Y67875D01*
X19603Y67890D01*
X19797Y67993D01*
X20270Y67519D01*
Y65925D01*
X20289Y65827D01*
X20345Y65745D01*
X24545Y61545D01*
X24627Y61490D01*
X24725Y61470D01*
X29525D01*
X29623Y61490D01*
X29705Y61545D01*
X31948Y63787D01*
X32142Y63707D01*
Y62728D01*
X32153Y62702D01*
X32151Y62696D01*
X32171Y62600D01*
X32151Y62504D01*
X32153Y62498D01*
X32142Y62472D01*
Y55125D01*
X32173Y55048D01*
X32250Y55017D01*
X61450D01*
X61527Y55048D01*
X61558Y55125D01*
Y80900D01*
X61527Y80977D01*
X61450Y81008D01*
X39716D01*
Y81550D01*
X39702Y81623D01*
X39660Y81685D01*
X37079Y84267D01*
Y89762D01*
X37064Y89836D01*
X37023Y89898D01*
X30835Y96085D01*
X30773Y96127D01*
X30700Y96141D01*
D02*
G37*
%LPD*%
G36*
X23148Y65547D02*
X23145Y65503D01*
X23069Y65290D01*
X23034Y65266D01*
X22967Y65167D01*
X22944Y65050D01*
X22952Y65008D01*
X22759Y64904D01*
X21604Y66059D01*
Y67424D01*
X21814Y67489D01*
X23148Y65547D01*
D02*
G37*
G36*
X21196Y67616D02*
Y65975D01*
X21212Y65897D01*
X21214Y65894D01*
X21051Y65760D01*
X20780Y66031D01*
Y67625D01*
X20760Y67723D01*
X20705Y67805D01*
X16011Y72499D01*
X16012Y72503D01*
X16240Y72571D01*
X21196Y67616D01*
D02*
G37*
G36*
X19898Y81690D02*
X19914Y81588D01*
X16420Y78094D01*
X16365Y78011D01*
X16345Y77914D01*
Y77733D01*
X15855D01*
Y77944D01*
X19674Y81764D01*
X19898Y81690D01*
D02*
G37*
G36*
X17983Y85482D02*
X17992Y85433D01*
X18059Y85334D01*
X18158Y85267D01*
X18207Y85258D01*
X18655Y84810D01*
X18644Y84734D01*
X18586Y84598D01*
X18508Y84583D01*
X18409Y84516D01*
X18342Y84417D01*
X18319Y84300D01*
X18342Y84183D01*
X18409Y84084D01*
X18508Y84017D01*
X18557Y84008D01*
X19012Y83552D01*
X18932Y83358D01*
X18424D01*
X18408Y83442D01*
X18341Y83541D01*
X18242Y83608D01*
X18125Y83631D01*
X18008Y83608D01*
X17909Y83541D01*
X17842Y83442D01*
X17826Y83358D01*
X17358D01*
X17358Y85832D01*
X17552Y85912D01*
X17983Y85482D01*
D02*
G37*
G36*
X31278Y65229D02*
X31259Y65216D01*
X31192Y65117D01*
X31169Y65000D01*
X31192Y64883D01*
X31259Y64784D01*
X31358Y64717D01*
X31475Y64694D01*
X31592Y64717D01*
X31668Y64747D01*
X31847Y64665D01*
X31895Y64456D01*
X29419Y61980D01*
X24831D01*
X23135Y63676D01*
X23269Y63839D01*
X23272Y63837D01*
X23350Y63821D01*
X24369D01*
X24373Y63819D01*
X24383Y63821D01*
X24393Y63817D01*
X30539Y63817D01*
X30616Y63848D01*
X30647Y63925D01*
X30647Y64812D01*
X30637Y64837D01*
X30635Y64864D01*
X30635Y64864D01*
X30622Y64874D01*
X30616Y64889D01*
X30591Y64899D01*
X30571Y64916D01*
Y65134D01*
X30591Y65151D01*
X30616Y65161D01*
X30622Y65176D01*
X30635Y65186D01*
X30637Y65213D01*
X30647Y65237D01*
Y65281D01*
X30660Y65290D01*
X30809Y65439D01*
X31214D01*
X31278Y65229D01*
D02*
G37*
G36*
X39334Y81471D02*
Y81008D01*
X36558D01*
X36558Y83965D01*
X36701Y84029D01*
X36768Y84036D01*
X39334Y81471D01*
D02*
G37*
G36*
X23928Y69432D02*
X27311Y68485D01*
X27294Y68400D01*
X27317Y68283D01*
X27323Y68275D01*
X27284Y68183D01*
X27283Y68183D01*
X27184Y68116D01*
X27117Y68017D01*
X27094Y67900D01*
X27117Y67783D01*
X27184Y67684D01*
X27207Y67668D01*
X27283Y67617D01*
X27233Y67540D01*
X27217Y67517D01*
X27194Y67400D01*
X27217Y67283D01*
X27233Y67260D01*
X27283Y67183D01*
X27207Y67132D01*
X27184Y67116D01*
X27117Y67017D01*
X27094Y66900D01*
X27117Y66783D01*
X27159Y66720D01*
X27176Y66650D01*
X27159Y66580D01*
X27117Y66517D01*
X27094Y66400D01*
X27117Y66283D01*
X27184Y66184D01*
X27283Y66117D01*
X27400Y66094D01*
X27517Y66117D01*
X27616Y66184D01*
X27683Y66283D01*
X27706Y66400D01*
X27683Y66517D01*
X27641Y66580D01*
X27624Y66650D01*
X27641Y66720D01*
X27683Y66783D01*
X27706Y66900D01*
X27683Y67017D01*
X27667Y67040D01*
X27617Y67117D01*
X27693Y67168D01*
X27716Y67184D01*
X27783Y67283D01*
X27806Y67400D01*
X27783Y67517D01*
X27716Y67616D01*
X27693Y67632D01*
X27617Y67683D01*
X27667Y67760D01*
X27683Y67783D01*
X27706Y67900D01*
X27683Y68017D01*
X27677Y68025D01*
X27716Y68117D01*
X27717Y68117D01*
X27816Y68184D01*
X27883Y68283D01*
X27929Y68312D01*
X29489Y67875D01*
X29967Y67397D01*
X29959Y67316D01*
X29892Y67217D01*
X29869Y67100D01*
X29892Y66983D01*
X29959Y66884D01*
X30058Y66817D01*
X30175Y66794D01*
X30292Y66817D01*
X30391Y66884D01*
X30466Y66891D01*
X30539Y66823D01*
X30539Y66166D01*
X30425D01*
X30352Y66152D01*
X30290Y66110D01*
X30267Y66088D01*
X30175Y66106D01*
X30058Y66083D01*
X29959Y66016D01*
X29892Y65917D01*
X29869Y65800D01*
X29892Y65683D01*
X29959Y65584D01*
X30058Y65517D01*
X30175Y65494D01*
X30292Y65517D01*
X30391Y65584D01*
X30439Y65655D01*
X30539Y65625D01*
X30539Y65237D01*
X30439Y65207D01*
X30416Y65241D01*
X30317Y65308D01*
X30200Y65331D01*
X30083Y65308D01*
X29984Y65241D01*
X29917Y65142D01*
X29894Y65025D01*
X29917Y64908D01*
X29984Y64809D01*
X30083Y64742D01*
X30200Y64719D01*
X30317Y64742D01*
X30416Y64809D01*
X30439Y64843D01*
X30539Y64812D01*
X30539Y63925D01*
X24393Y63925D01*
X15855Y76358D01*
Y77625D01*
X17270D01*
X23928Y69432D01*
D02*
G37*
G36*
X9218Y81658D02*
X9219Y80375D01*
X9235Y80337D01*
X9251Y80298D01*
X9251Y80298D01*
X9251Y80298D01*
X9289Y80283D01*
X9328Y80267D01*
X17182Y80267D01*
X17262Y80073D01*
X15420Y78230D01*
X15365Y78148D01*
X15345Y78050D01*
Y72550D01*
X15365Y72452D01*
X15420Y72370D01*
X19418Y68372D01*
X19315Y68178D01*
X19300Y68181D01*
X19183Y68158D01*
X19141Y68130D01*
X16331D01*
X15711Y68750D01*
X15705Y68758D01*
X15383Y69080D01*
X15375Y69086D01*
X7805Y76656D01*
Y80519D01*
X9024Y81738D01*
X9218Y81658D01*
D02*
G37*
G36*
X16708Y74924D02*
X20976Y68710D01*
X20814Y68575D01*
X16354Y73034D01*
Y74875D01*
X16435Y74952D01*
X16708Y74924D01*
D02*
G37*
G36*
X21129Y88021D02*
X21209Y87874D01*
X21194Y87800D01*
X21217Y87683D01*
X21284Y87584D01*
X21383Y87517D01*
X21500Y87494D01*
X21617Y87517D01*
X21716Y87584D01*
X21739Y87618D01*
X21943Y87667D01*
X21993Y87662D01*
X25809Y83846D01*
Y72125D01*
X25823Y72052D01*
X25865Y71990D01*
X26117Y71738D01*
Y69105D01*
X25949Y68979D01*
X23991Y69527D01*
X21217Y72940D01*
X21282Y73116D01*
X21312Y73156D01*
X21391Y73209D01*
X21458Y73308D01*
X21481Y73425D01*
X21458Y73542D01*
X21391Y73641D01*
X21292Y73708D01*
X21175Y73731D01*
X21058Y73708D01*
X20959Y73641D01*
X20940Y73613D01*
X20730Y73579D01*
X20690Y73588D01*
X17354Y77693D01*
X17349Y77696D01*
X17346Y77702D01*
X17313Y77715D01*
X17281Y77733D01*
X17275Y77731D01*
X17270Y77733D01*
X17077D01*
X16990Y77943D01*
X20405Y81358D01*
X20461Y81441D01*
X20480Y81539D01*
Y81806D01*
X20630Y81956D01*
X20685Y82039D01*
X20705Y82136D01*
Y83700D01*
X20685Y83798D01*
X20630Y83880D01*
X19355Y85155D01*
X19273Y85210D01*
X19175Y85230D01*
X18956D01*
X18567Y85618D01*
X18558Y85667D01*
X18491Y85766D01*
X18392Y85833D01*
X18343Y85842D01*
X17080Y87105D01*
X16998Y87160D01*
X16900Y87180D01*
X15102D01*
X14989Y87319D01*
X15052Y87524D01*
X15141Y87584D01*
X15208Y87683D01*
X15231Y87800D01*
X15225Y87830D01*
X15479Y88084D01*
X21076D01*
X21129Y88021D01*
D02*
G37*
G36*
X32122Y82857D02*
X32117Y80925D01*
X32117Y80925D01*
X32117Y80925D01*
X32133Y80887D01*
X32142Y80864D01*
Y71752D01*
X31944Y71604D01*
X31858Y71638D01*
X31858Y82946D01*
X31912Y82978D01*
X32122Y82857D01*
D02*
G37*
G36*
X29375Y89400D02*
X29929Y88846D01*
X29909Y88725D01*
X29859Y88691D01*
X29792Y88592D01*
X29769Y88475D01*
X29792Y88358D01*
X29859Y88259D01*
X29958Y88192D01*
X30075Y88169D01*
X30192Y88192D01*
X30291Y88259D01*
X30324Y88308D01*
X30446Y88328D01*
X31750Y87024D01*
X31750Y83736D01*
X31733Y83733D01*
X31634Y83666D01*
X31567Y83567D01*
X31544Y83450D01*
X31567Y83333D01*
X31634Y83234D01*
X31733Y83167D01*
X31750Y83164D01*
X31750Y71353D01*
X31709Y71292D01*
X31617Y71233D01*
X31500Y71256D01*
X31383Y71233D01*
X31284Y71166D01*
X31217Y71067D01*
X31194Y70950D01*
X31217Y70833D01*
X31284Y70734D01*
X31309Y70717D01*
X31306Y70598D01*
X31259Y70566D01*
X31192Y70467D01*
X31169Y70350D01*
X31192Y70233D01*
X31259Y70134D01*
X31332Y70084D01*
X31333Y70015D01*
X31329Y69986D01*
X31326Y69978D01*
X31234Y69916D01*
X31167Y69817D01*
X31144Y69700D01*
X31167Y69583D01*
X31234Y69484D01*
X31333Y69417D01*
X31384Y69407D01*
X31709Y69082D01*
Y68725D01*
X31609Y68671D01*
X31592Y68683D01*
X31475Y68706D01*
X31358Y68683D01*
X31259Y68616D01*
X31192Y68517D01*
X31169Y68400D01*
X31192Y68283D01*
X31259Y68184D01*
X31358Y68117D01*
X31475Y68094D01*
X31592Y68117D01*
X31609Y68129D01*
X31709Y68075D01*
Y67425D01*
X31609Y67371D01*
X31592Y67383D01*
X31475Y67406D01*
X31358Y67383D01*
X31259Y67316D01*
X31192Y67217D01*
X31169Y67100D01*
X31192Y66983D01*
X31259Y66884D01*
X31358Y66817D01*
X31475Y66794D01*
X31592Y66817D01*
X31609Y66829D01*
X31709Y66775D01*
Y66329D01*
X31546Y66166D01*
X30718D01*
X30647Y66237D01*
X30647Y66823D01*
X30647Y66824D01*
X30647Y66826D01*
X30631Y66862D01*
X30616Y66899D01*
X30614Y66900D01*
X30613Y66901D01*
X30541Y66970D01*
X30537Y66971D01*
X30535Y66975D01*
X30499Y66986D01*
X30463Y66999D01*
X30461Y67001D01*
X30481Y67100D01*
X30458Y67217D01*
X30391Y67316D01*
X30292Y67383D01*
X30175Y67406D01*
X30167Y67404D01*
X30075Y67397D01*
X30061Y67431D01*
X30050Y67466D01*
X30045Y67469D01*
X30043Y67474D01*
X29565Y67952D01*
X29540Y67962D01*
X29518Y67979D01*
X29357Y68024D01*
X29153Y68209D01*
X29138Y68309D01*
X29156Y68400D01*
X29133Y68517D01*
X29066Y68616D01*
X28967Y68683D01*
X28850Y68706D01*
X28733Y68683D01*
X28634Y68616D01*
X28567Y68517D01*
X28544Y68400D01*
X28553Y68353D01*
X28467Y68274D01*
X27959Y68416D01*
X27956Y68416D01*
X27955Y68417D01*
X27916Y68411D01*
X27904Y68409D01*
X27883Y68517D01*
X27816Y68616D01*
X27730Y68674D01*
X27705Y68709D01*
X27677Y68775D01*
X27683Y68783D01*
X27706Y68900D01*
X27683Y69017D01*
X27616Y69116D01*
X27606Y69243D01*
X27633Y69283D01*
X27656Y69400D01*
X27633Y69517D01*
X27591Y69580D01*
X27574Y69650D01*
X27591Y69720D01*
X27633Y69783D01*
X27656Y69900D01*
X27633Y70017D01*
X27566Y70116D01*
X27467Y70183D01*
X27350Y70206D01*
X27233Y70183D01*
X27134Y70116D01*
X27067Y70017D01*
X27044Y69900D01*
X27067Y69783D01*
X27109Y69720D01*
X27126Y69650D01*
X27109Y69580D01*
X27067Y69517D01*
X27044Y69400D01*
X27067Y69283D01*
X27134Y69184D01*
X27144Y69057D01*
X27117Y69017D01*
X27094Y68900D01*
X27117Y68783D01*
X27140Y68749D01*
X27077Y68663D01*
X26225Y68901D01*
Y84050D01*
X20800Y89475D01*
X19964D01*
X19925Y89483D01*
X19886Y89475D01*
X16125Y89475D01*
X16125Y92365D01*
X16206Y92445D01*
X26330D01*
X29375Y89400D01*
D02*
G37*
G36*
X30550Y95575D02*
X36450Y89675D01*
X36450Y85946D01*
X36383Y85933D01*
X36284Y85866D01*
X36217Y85767D01*
X36194Y85650D01*
X36217Y85533D01*
X36284Y85434D01*
X36383Y85367D01*
X36450Y85354D01*
X36450Y80900D01*
X61450D01*
Y55125D01*
X32250D01*
Y62472D01*
X32258Y62483D01*
X32281Y62600D01*
X32258Y62717D01*
X32250Y62728D01*
Y64090D01*
X32655Y64495D01*
X32710Y64577D01*
X32730Y64675D01*
Y64683D01*
X32830Y64736D01*
X32858Y64717D01*
X32975Y64694D01*
X33092Y64717D01*
X33191Y64784D01*
X33202Y64800D01*
X33323D01*
X33334Y64784D01*
X33433Y64717D01*
X33550Y64694D01*
X33667Y64717D01*
X33766Y64784D01*
X33833Y64883D01*
X33856Y65000D01*
X33833Y65117D01*
X33791Y65180D01*
X33774Y65250D01*
X33791Y65320D01*
X33833Y65383D01*
X33856Y65500D01*
X33833Y65617D01*
X33766Y65716D01*
X33667Y65783D01*
X33550Y65806D01*
X33433Y65783D01*
X33334Y65716D01*
X33267Y65617D01*
X33244Y65500D01*
X33267Y65383D01*
X33309Y65320D01*
X33314Y65300D01*
X33285Y65256D01*
X33265Y65247D01*
X33161Y65236D01*
X33092Y65283D01*
X32975Y65306D01*
X32858Y65283D01*
X32795Y65241D01*
X32725Y65224D01*
X32655Y65241D01*
X32592Y65283D01*
X32475Y65306D01*
X32358Y65283D01*
X32350Y65277D01*
X32250Y65331D01*
Y65805D01*
X32360Y65915D01*
X32402Y65977D01*
X32416Y66050D01*
Y69000D01*
X32402Y69073D01*
X32382Y69103D01*
Y69137D01*
X32336Y69248D01*
X32268Y69316D01*
X32267Y69362D01*
X32276Y69423D01*
X32366Y69484D01*
X32433Y69583D01*
X32456Y69700D01*
X32433Y69817D01*
X32366Y69916D01*
X32267Y69983D01*
X32250Y69986D01*
Y70719D01*
X32350Y70773D01*
X32358Y70767D01*
X32475Y70744D01*
X32592Y70767D01*
X32691Y70834D01*
X32758Y70933D01*
X32781Y71050D01*
X32758Y71167D01*
X32691Y71266D01*
X32592Y71333D01*
X32475Y71356D01*
X32358Y71333D01*
X32350Y71327D01*
X32250Y71381D01*
Y80900D01*
X32225Y80925D01*
X32243Y87757D01*
X30231Y89769D01*
X30216Y89791D01*
X30194Y89806D01*
X28857Y91143D01*
X28867Y91242D01*
X28891Y91259D01*
X28958Y91358D01*
X28981Y91475D01*
X28958Y91592D01*
X28891Y91691D01*
X28792Y91758D01*
X28675Y91781D01*
X28558Y91758D01*
X28459Y91691D01*
X28442Y91667D01*
X28343Y91657D01*
X27200Y92800D01*
X26886D01*
X26805Y92880D01*
X26723Y92935D01*
X26625Y92955D01*
X16100D01*
X16002Y92935D01*
X15920Y92880D01*
X15840Y92800D01*
X14125Y92800D01*
X13682Y92357D01*
X13659Y92341D01*
X13643Y92318D01*
X12475Y91150D01*
X9825Y87650D01*
X9534Y87359D01*
X8194D01*
X8123Y87429D01*
X8123Y90527D01*
X8123Y90600D01*
Y92223D01*
X11475Y95575D01*
X30550Y95575D01*
D02*
G37*
G36*
X16017Y91982D02*
X16017Y89475D01*
X16048Y89398D01*
X16125Y89367D01*
X19886Y89367D01*
X19896Y89371D01*
X19907Y89369D01*
X19925Y89372D01*
X19943Y89369D01*
X19954Y89371D01*
X19964Y89367D01*
X20755D01*
X21446Y88676D01*
X21359Y88466D01*
X15400D01*
X15327Y88452D01*
X15265Y88410D01*
X15124Y88270D01*
X14960Y88402D01*
X14980Y88500D01*
Y91219D01*
X15823Y92062D01*
X16017Y91982D01*
D02*
G37*
G36*
X14470Y88606D02*
X14245Y88380D01*
X14190Y88298D01*
X14170Y88200D01*
Y87450D01*
X14190Y87352D01*
X14245Y87270D01*
X14770Y86745D01*
X14852Y86690D01*
X14950Y86670D01*
X16794D01*
X17250Y86215D01*
X17250Y83250D01*
X19315D01*
X19320Y83244D01*
Y82131D01*
X17564Y80375D01*
X9328Y80375D01*
X9325Y82040D01*
X9593Y82308D01*
X9642Y82317D01*
X9741Y82384D01*
X9808Y82483D01*
X9831Y82600D01*
X9808Y82717D01*
X9741Y82816D01*
X9642Y82883D01*
X9525Y82906D01*
X9424Y82886D01*
X9324Y82936D01*
X9320Y86613D01*
X9390Y86684D01*
X9575D01*
X9648Y86698D01*
X9710Y86740D01*
X10879Y87909D01*
X12792D01*
X12809Y87884D01*
X12908Y87817D01*
X13025Y87794D01*
X13142Y87817D01*
X13241Y87884D01*
X13308Y87983D01*
X13331Y88100D01*
X13308Y88217D01*
X13241Y88316D01*
X13142Y88383D01*
X13025Y88406D01*
X12908Y88383D01*
X12809Y88316D01*
X12792Y88291D01*
X12675D01*
Y88875D01*
X14470Y88875D01*
Y88606D01*
D02*
G37*
G36*
X15457Y92692D02*
X15537Y92498D01*
X14545Y91505D01*
X14490Y91423D01*
X14470Y91325D01*
Y88983D01*
X12675Y88983D01*
X12598Y88952D01*
X12567Y88875D01*
Y88291D01*
X10800D01*
X10727Y88277D01*
X10665Y88235D01*
X10516Y88383D01*
X12557Y91079D01*
X13720Y92242D01*
X13724Y92252D01*
X13733Y92258D01*
X13737Y92263D01*
X13742Y92267D01*
X13748Y92276D01*
X13758Y92280D01*
X14170Y92692D01*
X15457Y92692D01*
D02*
G37*
G36*
X32135Y87712D02*
X32125Y84039D01*
X31915Y83919D01*
X31858Y83952D01*
X31858Y87024D01*
X31841Y87064D01*
X31827Y87100D01*
X31827Y87100D01*
X31827Y87100D01*
X31827Y87100D01*
X30522Y88405D01*
X30514Y88408D01*
X30509Y88416D01*
X30477Y88424D01*
X30446Y88437D01*
X30437Y88433D01*
X30428Y88435D01*
X30307Y88415D01*
X30305Y88414D01*
X30303Y88415D01*
X30270Y88392D01*
X30237Y88372D01*
X30236Y88370D01*
X30235Y88369D01*
X30213Y88337D01*
X30150Y88294D01*
X30075Y88279D01*
X30000Y88294D01*
X29937Y88337D01*
X29894Y88400D01*
X29879Y88475D01*
X29894Y88550D01*
X29937Y88613D01*
X29969Y88635D01*
X29970Y88636D01*
X29972Y88637D01*
X29993Y88670D01*
X30015Y88703D01*
X30014Y88705D01*
X30015Y88707D01*
X30035Y88828D01*
X30033Y88837D01*
X30037Y88846D01*
X30024Y88877D01*
X30017Y88909D01*
X30009Y88914D01*
X30005Y88922D01*
X29840Y89088D01*
X29945Y89280D01*
X30000Y89269D01*
X30117Y89292D01*
X30216Y89359D01*
X30465Y89382D01*
X32135Y87712D01*
D02*
G37*
%LPC*%
G36*
X24600Y67481D02*
X24483Y67458D01*
X24384Y67391D01*
X24317Y67292D01*
X24294Y67175D01*
X24317Y67058D01*
X24384Y66959D01*
X24483Y66892D01*
X24600Y66869D01*
X24717Y66892D01*
X24816Y66959D01*
X24883Y67058D01*
X24906Y67175D01*
X24883Y67292D01*
X24816Y67391D01*
X24717Y67458D01*
X24600Y67481D01*
D02*
G37*
G36*
X28850Y67406D02*
X28733Y67383D01*
X28634Y67316D01*
X28567Y67217D01*
X28544Y67100D01*
X28567Y66983D01*
X28634Y66884D01*
X28713Y66831D01*
X28722Y66786D01*
Y66764D01*
X28713Y66719D01*
X28634Y66666D01*
X28567Y66567D01*
X28544Y66450D01*
X28567Y66333D01*
X28634Y66234D01*
X28713Y66181D01*
X28722Y66136D01*
Y66114D01*
X28713Y66069D01*
X28634Y66016D01*
X28567Y65917D01*
X28567Y65916D01*
X28462Y65898D01*
X28416Y65966D01*
X28317Y66033D01*
X28200Y66056D01*
X28083Y66033D01*
X27984Y65966D01*
X27917Y65867D01*
X27894Y65750D01*
X27917Y65633D01*
X27984Y65534D01*
X28083Y65467D01*
X28200Y65444D01*
X28317Y65467D01*
X28416Y65534D01*
X28483Y65633D01*
X28483Y65634D01*
X28588Y65652D01*
X28634Y65584D01*
X28733Y65517D01*
X28850Y65494D01*
X28967Y65517D01*
X29066Y65584D01*
X29133Y65683D01*
X29156Y65800D01*
X29133Y65917D01*
X29066Y66016D01*
X28987Y66069D01*
X28978Y66114D01*
Y66136D01*
X28987Y66181D01*
X29066Y66234D01*
X29133Y66333D01*
X29156Y66450D01*
X29133Y66567D01*
X29066Y66666D01*
X28987Y66719D01*
X28978Y66764D01*
Y66786D01*
X28987Y66831D01*
X29066Y66884D01*
X29133Y66983D01*
X29156Y67100D01*
X29133Y67217D01*
X29066Y67316D01*
X28967Y67383D01*
X28850Y67406D01*
D02*
G37*
G36*
X27475Y65806D02*
X27358Y65783D01*
X27259Y65716D01*
X27192Y65617D01*
X27169Y65500D01*
X27192Y65383D01*
X27213Y65352D01*
X27189Y65219D01*
X27184Y65216D01*
X27117Y65117D01*
X27094Y65000D01*
X27117Y64883D01*
X27184Y64784D01*
X27283Y64717D01*
X27400Y64694D01*
X27517Y64717D01*
X27616Y64784D01*
X27625Y64797D01*
X27725D01*
X27734Y64784D01*
X27833Y64717D01*
X27950Y64694D01*
X28067Y64717D01*
X28130Y64759D01*
X28200Y64776D01*
X28270Y64759D01*
X28333Y64717D01*
X28450Y64694D01*
X28567Y64717D01*
X28666Y64784D01*
X28733Y64883D01*
X28756Y65000D01*
X28733Y65117D01*
X28666Y65216D01*
X28567Y65283D01*
X28450Y65306D01*
X28333Y65283D01*
X28270Y65241D01*
X28200Y65224D01*
X28130Y65241D01*
X28067Y65283D01*
X27950Y65306D01*
X27833Y65283D01*
X27793Y65256D01*
X27721Y65328D01*
X27758Y65383D01*
X27781Y65500D01*
X27758Y65617D01*
X27691Y65716D01*
X27592Y65783D01*
X27475Y65806D01*
D02*
G37*
G36*
X8425Y80706D02*
X8308Y80683D01*
X8209Y80616D01*
X8142Y80517D01*
X8119Y80400D01*
X8142Y80283D01*
X8209Y80184D01*
X8308Y80117D01*
X8357Y80108D01*
X9607Y78857D01*
X11545Y76920D01*
X11627Y76865D01*
X11725Y76845D01*
X11966D01*
X12008Y76817D01*
X12125Y76794D01*
X12242Y76817D01*
X12341Y76884D01*
X12408Y76983D01*
X12431Y77100D01*
X12408Y77217D01*
X12341Y77316D01*
X12242Y77383D01*
X12125Y77406D01*
X12008Y77383D01*
X11966Y77355D01*
X11831D01*
X9968Y79218D01*
X8717Y80468D01*
X8708Y80517D01*
X8641Y80616D01*
X8542Y80683D01*
X8425Y80706D01*
D02*
G37*
G36*
X22000Y84606D02*
X21883Y84583D01*
X21750Y84530D01*
X21617Y84583D01*
X21500Y84606D01*
X21383Y84583D01*
X21284Y84516D01*
X21217Y84417D01*
X21194Y84300D01*
X21217Y84183D01*
X21284Y84084D01*
X21383Y84017D01*
X21500Y83994D01*
X21617Y84017D01*
X21750Y84070D01*
X21883Y84017D01*
X22000Y83994D01*
X22117Y84017D01*
X22216Y84084D01*
X22283Y84183D01*
X22306Y84300D01*
X22283Y84417D01*
X22216Y84516D01*
X22117Y84583D01*
X22000Y84606D01*
D02*
G37*
G36*
Y87106D02*
X21883Y87083D01*
X21784Y87016D01*
X21717Y86917D01*
X21694Y86800D01*
X21717Y86683D01*
X21784Y86584D01*
X21883Y86517D01*
X22000Y86494D01*
X22117Y86517D01*
X22216Y86584D01*
X22283Y86683D01*
X22306Y86800D01*
X22283Y86917D01*
X22216Y87016D01*
X22117Y87083D01*
X22000Y87106D01*
D02*
G37*
G36*
X30175Y68706D02*
X30058Y68683D01*
X29959Y68616D01*
X29892Y68517D01*
X29869Y68400D01*
X29892Y68283D01*
X29959Y68184D01*
X30058Y68117D01*
X30175Y68094D01*
X30292Y68117D01*
X30391Y68184D01*
X30458Y68283D01*
X30481Y68400D01*
X30458Y68517D01*
X30391Y68616D01*
X30292Y68683D01*
X30175Y68706D01*
D02*
G37*
G36*
X29050Y84231D02*
X28933Y84208D01*
X28834Y84141D01*
X28767Y84042D01*
X28744Y83925D01*
X28767Y83808D01*
X28834Y83709D01*
X28933Y83642D01*
X29034Y83622D01*
X29059Y83606D01*
X29110Y83529D01*
X29094Y83450D01*
X29117Y83333D01*
X29184Y83234D01*
X29283Y83167D01*
X29400Y83144D01*
X29517Y83167D01*
X29616Y83234D01*
X29683Y83333D01*
X29706Y83450D01*
X29683Y83567D01*
X29616Y83666D01*
X29517Y83733D01*
X29416Y83753D01*
X29391Y83769D01*
X29340Y83846D01*
X29356Y83925D01*
X29333Y84042D01*
X29266Y84141D01*
X29167Y84208D01*
X29050Y84231D01*
D02*
G37*
G36*
X27650Y89756D02*
X27533Y89733D01*
X27434Y89666D01*
X27367Y89567D01*
X27344Y89450D01*
X27367Y89333D01*
X27434Y89234D01*
X27533Y89167D01*
X27650Y89144D01*
X27767Y89167D01*
X27866Y89234D01*
X27933Y89333D01*
X27956Y89450D01*
X27933Y89567D01*
X27866Y89666D01*
X27767Y89733D01*
X27650Y89756D01*
D02*
G37*
G36*
X22800Y89758D02*
X22644Y89727D01*
X22512Y89638D01*
X22423Y89506D01*
X22392Y89350D01*
X22423Y89194D01*
X22512Y89062D01*
X22644Y88973D01*
X22800Y88942D01*
X22956Y88973D01*
X23088Y89062D01*
X23177Y89194D01*
X23208Y89350D01*
X23177Y89506D01*
X23088Y89638D01*
X22956Y89727D01*
X22800Y89758D01*
D02*
G37*
G36*
X27750Y88731D02*
X27633Y88708D01*
X27534Y88641D01*
X27467Y88542D01*
X27444Y88425D01*
X27467Y88308D01*
X27534Y88209D01*
X27633Y88142D01*
X27750Y88119D01*
X27867Y88142D01*
X27966Y88209D01*
X28033Y88308D01*
X28056Y88425D01*
X28033Y88542D01*
X27966Y88641D01*
X27867Y88708D01*
X27750Y88731D01*
D02*
G37*
G36*
X28900Y86231D02*
X28783Y86208D01*
X28684Y86141D01*
X28617Y86042D01*
X28594Y85925D01*
X28617Y85808D01*
X28684Y85709D01*
X28783Y85642D01*
X28900Y85619D01*
X29017Y85642D01*
X29116Y85709D01*
X29183Y85808D01*
X29206Y85925D01*
X29183Y86042D01*
X29116Y86141D01*
X29017Y86208D01*
X28900Y86231D01*
D02*
G37*
G36*
X29675D02*
X29558Y86208D01*
X29459Y86141D01*
X29392Y86042D01*
X29369Y85925D01*
X29392Y85808D01*
X29459Y85709D01*
X29558Y85642D01*
X29675Y85619D01*
X29792Y85642D01*
X29891Y85709D01*
X29958Y85808D01*
X29981Y85925D01*
X29958Y86042D01*
X29891Y86141D01*
X29792Y86208D01*
X29675Y86231D01*
D02*
G37*
G36*
X30075Y87281D02*
X29958Y87258D01*
X29859Y87191D01*
X29792Y87092D01*
X29769Y86975D01*
X29792Y86858D01*
X29859Y86759D01*
X29958Y86692D01*
X30075Y86669D01*
X30192Y86692D01*
X30291Y86759D01*
X30358Y86858D01*
X30381Y86975D01*
X30358Y87092D01*
X30291Y87191D01*
X30192Y87258D01*
X30075Y87281D01*
D02*
G37*
G36*
X28900D02*
X28783Y87258D01*
X28684Y87191D01*
X28617Y87092D01*
X28594Y86975D01*
X28617Y86858D01*
X28684Y86759D01*
X28783Y86692D01*
X28900Y86669D01*
X29017Y86692D01*
X29116Y86759D01*
X29183Y86858D01*
X29206Y86975D01*
X29183Y87092D01*
X29116Y87191D01*
X29017Y87258D01*
X28900Y87281D01*
D02*
G37*
G36*
X30200Y77331D02*
X30083Y77308D01*
X29984Y77241D01*
X29917Y77142D01*
X29894Y77025D01*
X29917Y76908D01*
X29984Y76809D01*
X30083Y76742D01*
X30200Y76719D01*
X30317Y76742D01*
X30416Y76809D01*
X30483Y76908D01*
X30506Y77025D01*
X30483Y77142D01*
X30416Y77241D01*
X30317Y77308D01*
X30200Y77331D01*
D02*
G37*
G36*
X30175Y70006D02*
X30058Y69983D01*
X29959Y69916D01*
X29892Y69817D01*
X29869Y69700D01*
X29892Y69583D01*
X29959Y69484D01*
X30058Y69417D01*
X30175Y69394D01*
X30292Y69417D01*
X30391Y69484D01*
X30458Y69583D01*
X30481Y69700D01*
X30458Y69817D01*
X30391Y69916D01*
X30292Y69983D01*
X30175Y70006D01*
D02*
G37*
G36*
X27900Y74681D02*
X27783Y74658D01*
X27684Y74591D01*
X27617Y74492D01*
X27594Y74375D01*
X27617Y74258D01*
X27684Y74159D01*
X27783Y74092D01*
X27900Y74069D01*
X28017Y74092D01*
X28116Y74159D01*
X28183Y74258D01*
X28206Y74375D01*
X28183Y74492D01*
X28116Y74591D01*
X28017Y74658D01*
X27900Y74681D01*
D02*
G37*
G36*
X28875Y74306D02*
X28758Y74283D01*
X28659Y74216D01*
X28592Y74117D01*
X28569Y74000D01*
X28592Y73883D01*
X28659Y73784D01*
X28758Y73717D01*
X28875Y73694D01*
X28992Y73717D01*
X29091Y73784D01*
X29158Y73883D01*
X29181Y74000D01*
X29158Y74117D01*
X29091Y74216D01*
X28992Y74283D01*
X28875Y74306D01*
D02*
G37*
G36*
X28525Y73556D02*
X28408Y73533D01*
X28309Y73466D01*
X28242Y73367D01*
X28219Y73250D01*
X28242Y73133D01*
X28309Y73034D01*
X28408Y72967D01*
X28525Y72944D01*
X28642Y72967D01*
X28741Y73034D01*
X28808Y73133D01*
X28831Y73250D01*
X28808Y73367D01*
X28741Y73466D01*
X28642Y73533D01*
X28525Y73556D01*
D02*
G37*
G36*
X29750Y75781D02*
X29633Y75758D01*
X29534Y75691D01*
X29467Y75592D01*
X29444Y75475D01*
X29467Y75358D01*
X29534Y75259D01*
X29633Y75192D01*
X29750Y75169D01*
X29867Y75192D01*
X29966Y75259D01*
X30033Y75358D01*
X30056Y75475D01*
X30033Y75592D01*
X29966Y75691D01*
X29867Y75758D01*
X29750Y75781D01*
D02*
G37*
G36*
X28400Y77106D02*
X28283Y77083D01*
X28184Y77016D01*
X28117Y76917D01*
X28094Y76800D01*
X28117Y76683D01*
X28184Y76584D01*
X28283Y76517D01*
X28400Y76494D01*
X28517Y76517D01*
X28616Y76584D01*
X28683Y76683D01*
X28706Y76800D01*
X28683Y76917D01*
X28616Y77016D01*
X28517Y77083D01*
X28400Y77106D01*
D02*
G37*
G36*
X29500Y70656D02*
X29383Y70633D01*
X29284Y70566D01*
X29231Y70487D01*
X29186Y70478D01*
X29164D01*
X29119Y70487D01*
X29066Y70566D01*
X28967Y70633D01*
X28850Y70656D01*
X28733Y70633D01*
X28634Y70566D01*
X28581Y70487D01*
X28536Y70478D01*
X28514D01*
X28469Y70487D01*
X28416Y70566D01*
X28317Y70633D01*
X28200Y70656D01*
X28083Y70633D01*
X27984Y70566D01*
X27917Y70467D01*
X27894Y70350D01*
X27917Y70233D01*
X27984Y70134D01*
X28083Y70067D01*
X28137Y70057D01*
X28166Y70051D01*
Y69949D01*
X28137Y69943D01*
X28083Y69933D01*
X27984Y69866D01*
X27917Y69767D01*
X27894Y69650D01*
X27917Y69533D01*
X27984Y69434D01*
X28083Y69367D01*
X28200Y69344D01*
X28317Y69367D01*
X28416Y69434D01*
X28469Y69513D01*
X28514Y69522D01*
X28536D01*
X28581Y69513D01*
X28634Y69434D01*
X28733Y69367D01*
X28850Y69344D01*
X28967Y69367D01*
X29066Y69434D01*
X29133Y69533D01*
X29156Y69650D01*
X29133Y69767D01*
X29066Y69866D01*
X28967Y69933D01*
X28913Y69943D01*
X28884Y69949D01*
Y70051D01*
X28913Y70057D01*
X28967Y70067D01*
X29066Y70134D01*
X29119Y70213D01*
X29164Y70222D01*
X29186D01*
X29231Y70213D01*
X29284Y70134D01*
X29383Y70067D01*
X29500Y70044D01*
X29617Y70067D01*
X29716Y70134D01*
X29783Y70233D01*
X29806Y70350D01*
X29783Y70467D01*
X29716Y70566D01*
X29617Y70633D01*
X29500Y70656D01*
D02*
G37*
G36*
X28400Y71456D02*
X28283Y71433D01*
X28220Y71391D01*
X28150Y71374D01*
X28080Y71391D01*
X28017Y71433D01*
X27900Y71456D01*
X27783Y71433D01*
X27720Y71391D01*
X27650Y71374D01*
X27580Y71391D01*
X27517Y71433D01*
X27400Y71456D01*
X27283Y71433D01*
X27184Y71366D01*
X27117Y71267D01*
X27094Y71150D01*
X27117Y71033D01*
X27184Y70934D01*
X27283Y70867D01*
X27400Y70844D01*
X27517Y70867D01*
X27580Y70909D01*
X27650Y70926D01*
X27720Y70909D01*
X27783Y70867D01*
X27900Y70844D01*
X28017Y70867D01*
X28080Y70909D01*
X28150Y70926D01*
X28220Y70909D01*
X28283Y70867D01*
X28400Y70844D01*
X28517Y70867D01*
X28616Y70934D01*
X28683Y71033D01*
X28706Y71150D01*
X28683Y71267D01*
X28616Y71366D01*
X28517Y71433D01*
X28400Y71456D01*
D02*
G37*
G36*
X30300D02*
X30183Y71433D01*
X30120Y71391D01*
X30050Y71374D01*
X29980Y71391D01*
X29917Y71433D01*
X29800Y71456D01*
X29683Y71433D01*
X29620Y71391D01*
X29550Y71374D01*
X29480Y71391D01*
X29417Y71433D01*
X29300Y71456D01*
X29183Y71433D01*
X29084Y71366D01*
X29017Y71267D01*
X28994Y71150D01*
X29017Y71033D01*
X29084Y70934D01*
X29183Y70867D01*
X29300Y70844D01*
X29417Y70867D01*
X29480Y70909D01*
X29550Y70926D01*
X29620Y70909D01*
X29683Y70867D01*
X29800Y70844D01*
X29917Y70867D01*
X29980Y70909D01*
X30050Y70926D01*
X30120Y70909D01*
X30183Y70867D01*
X30300Y70844D01*
X30417Y70867D01*
X30516Y70934D01*
X30583Y71033D01*
X30606Y71150D01*
X30583Y71267D01*
X30516Y71366D01*
X30417Y71433D01*
X30300Y71456D01*
D02*
G37*
G36*
X39650Y67381D02*
X39533Y67358D01*
X39434Y67291D01*
X39400Y67241D01*
X39341D01*
X39242Y67308D01*
X39125Y67331D01*
X39008Y67308D01*
X38909Y67241D01*
X38842Y67142D01*
X38819Y67025D01*
X38842Y66908D01*
X38909Y66809D01*
X39008Y66742D01*
X39125Y66719D01*
X39242Y66742D01*
X39341Y66809D01*
X39375Y66859D01*
X39434D01*
X39533Y66792D01*
X39650Y66769D01*
X39767Y66792D01*
X39866Y66859D01*
X39933Y66958D01*
X39956Y67075D01*
X39933Y67192D01*
X39866Y67291D01*
X39767Y67358D01*
X39650Y67381D01*
D02*
G37*
G36*
X36600Y68356D02*
X36483Y68333D01*
X36384Y68266D01*
X36317Y68167D01*
X36294Y68050D01*
X36317Y67933D01*
X36359Y67870D01*
X36376Y67800D01*
X36359Y67730D01*
X36317Y67667D01*
X36294Y67550D01*
X36317Y67433D01*
X36384Y67334D01*
X36483Y67267D01*
X36600Y67244D01*
X36717Y67267D01*
X36816Y67334D01*
X36883Y67433D01*
X36906Y67550D01*
X36883Y67667D01*
X36841Y67730D01*
X36824Y67800D01*
X36841Y67870D01*
X36883Y67933D01*
X36906Y68050D01*
X36883Y68167D01*
X36816Y68266D01*
X36717Y68333D01*
X36600Y68356D01*
D02*
G37*
G36*
X35825Y68481D02*
X35708Y68458D01*
X35609Y68391D01*
X35542Y68292D01*
X35519Y68175D01*
X35542Y68058D01*
X35609Y67959D01*
X35708Y67892D01*
X35825Y67869D01*
X35942Y67892D01*
X36041Y67959D01*
X36108Y68058D01*
X36131Y68175D01*
X36108Y68292D01*
X36041Y68391D01*
X35942Y68458D01*
X35825Y68481D01*
D02*
G37*
G36*
X33550Y68331D02*
X33433Y68308D01*
X33334Y68241D01*
X33267Y68142D01*
X33244Y68025D01*
X33267Y67908D01*
X33334Y67809D01*
X33433Y67742D01*
X33550Y67719D01*
X33667Y67742D01*
X33766Y67809D01*
X33833Y67908D01*
X33856Y68025D01*
X33833Y68142D01*
X33766Y68241D01*
X33667Y68308D01*
X33550Y68331D01*
D02*
G37*
G36*
X53850Y67631D02*
X53733Y67608D01*
X53634Y67541D01*
X53579Y67459D01*
X53543Y67451D01*
X53517Y67450D01*
X53469Y67458D01*
X53416Y67536D01*
X53317Y67603D01*
X53200Y67626D01*
X53083Y67603D01*
X52984Y67536D01*
X52931Y67458D01*
X52883Y67450D01*
X52857Y67451D01*
X52821Y67459D01*
X52766Y67541D01*
X52667Y67608D01*
X52550Y67631D01*
X52433Y67608D01*
X52334Y67541D01*
X52267Y67442D01*
X52244Y67325D01*
X52267Y67208D01*
X52334Y67109D01*
X52433Y67042D01*
X52550Y67019D01*
X52667Y67042D01*
X52766Y67109D01*
X52819Y67187D01*
X52867Y67195D01*
X52893Y67194D01*
X52929Y67186D01*
X52984Y67104D01*
X53083Y67037D01*
X53200Y67014D01*
X53317Y67037D01*
X53416Y67104D01*
X53471Y67186D01*
X53507Y67194D01*
X53533Y67195D01*
X53581Y67187D01*
X53634Y67109D01*
X53733Y67042D01*
X53850Y67019D01*
X53967Y67042D01*
X54066Y67109D01*
X54133Y67208D01*
X54156Y67325D01*
X54133Y67442D01*
X54066Y67541D01*
X53967Y67608D01*
X53850Y67631D01*
D02*
G37*
G36*
X39475Y66456D02*
X39358Y66433D01*
X39295Y66391D01*
X39225Y66374D01*
X39155Y66391D01*
X39092Y66433D01*
X38975Y66456D01*
X38858Y66433D01*
X38795Y66391D01*
X38725Y66374D01*
X38655Y66391D01*
X38592Y66433D01*
X38475Y66456D01*
X38358Y66433D01*
X38259Y66366D01*
X38192Y66267D01*
X38169Y66150D01*
X38192Y66033D01*
X38259Y65934D01*
X38358Y65867D01*
X38475Y65844D01*
X38592Y65867D01*
X38655Y65909D01*
X38725Y65926D01*
X38795Y65909D01*
X38858Y65867D01*
X38975Y65844D01*
X39092Y65867D01*
X39155Y65909D01*
X39225Y65926D01*
X39295Y65909D01*
X39358Y65867D01*
X39475Y65844D01*
X39592Y65867D01*
X39691Y65934D01*
X39758Y66033D01*
X39781Y66150D01*
X39758Y66267D01*
X39691Y66366D01*
X39592Y66433D01*
X39475Y66456D01*
D02*
G37*
G36*
X33375Y67331D02*
X33258Y67308D01*
X33159Y67241D01*
X33092Y67142D01*
X33069Y67025D01*
X33092Y66908D01*
X33159Y66809D01*
X33258Y66742D01*
X33280Y66636D01*
X33267Y66617D01*
X33244Y66500D01*
X33267Y66383D01*
X33334Y66284D01*
X33433Y66217D01*
X33550Y66194D01*
X33667Y66217D01*
X33766Y66284D01*
X33833Y66383D01*
X33856Y66500D01*
X33833Y66617D01*
X33766Y66716D01*
X33667Y66783D01*
X33645Y66889D01*
X33658Y66908D01*
X33681Y67025D01*
X33658Y67142D01*
X33591Y67241D01*
X33492Y67308D01*
X33375Y67331D01*
D02*
G37*
G36*
X59850Y67731D02*
X59733Y67708D01*
X59634Y67641D01*
X59567Y67542D01*
X59544Y67425D01*
X59567Y67308D01*
X59634Y67209D01*
X59733Y67142D01*
X59850Y67119D01*
X59967Y67142D01*
X60066Y67209D01*
X60133Y67308D01*
X60156Y67425D01*
X60133Y67542D01*
X60066Y67641D01*
X59967Y67708D01*
X59850Y67731D01*
D02*
G37*
G36*
X33775Y60881D02*
X33658Y60858D01*
X33559Y60791D01*
X33492Y60692D01*
X33469Y60575D01*
X33492Y60458D01*
X33559Y60359D01*
X33658Y60292D01*
X33775Y60269D01*
X33892Y60292D01*
X33991Y60359D01*
X34058Y60458D01*
X34081Y60575D01*
X34058Y60692D01*
X33991Y60791D01*
X33892Y60858D01*
X33775Y60881D01*
D02*
G37*
G36*
X51050Y68531D02*
X50933Y68507D01*
X50834Y68441D01*
X50767Y68342D01*
X50744Y68225D01*
X50767Y68108D01*
X50834Y68009D01*
X50933Y67942D01*
X51050Y67919D01*
X51167Y67942D01*
X51266Y68009D01*
X51333Y68108D01*
X51356Y68225D01*
X51333Y68342D01*
X51266Y68441D01*
X51167Y68507D01*
X51050Y68531D01*
D02*
G37*
G36*
X48650Y69331D02*
X48533Y69308D01*
X48434Y69241D01*
X48367Y69142D01*
X48344Y69025D01*
X48367Y68908D01*
X48434Y68809D01*
X48533Y68742D01*
X48650Y68719D01*
X48767Y68742D01*
X48866Y68809D01*
X48933Y68908D01*
X48956Y69025D01*
X48933Y69142D01*
X48866Y69241D01*
X48767Y69308D01*
X48650Y69331D01*
D02*
G37*
G36*
X47725Y69206D02*
X47608Y69183D01*
X47509Y69116D01*
X47442Y69017D01*
X47419Y68900D01*
X47442Y68783D01*
X47509Y68684D01*
X47608Y68617D01*
X47725Y68594D01*
X47842Y68617D01*
X47941Y68684D01*
X48008Y68783D01*
X48031Y68900D01*
X48008Y69017D01*
X47941Y69116D01*
X47842Y69183D01*
X47725Y69206D01*
D02*
G37*
G36*
X59950Y56906D02*
X59833Y56883D01*
X59734Y56816D01*
X59667Y56717D01*
X59644Y56600D01*
X59667Y56483D01*
X59734Y56384D01*
X59833Y56317D01*
X59950Y56294D01*
X60067Y56317D01*
X60166Y56384D01*
X60233Y56483D01*
X60256Y56600D01*
X60233Y56717D01*
X60166Y56816D01*
X60067Y56883D01*
X59950Y56906D01*
D02*
G37*
G36*
X33625Y56831D02*
X33508Y56808D01*
X33409Y56741D01*
X33342Y56642D01*
X33319Y56525D01*
X33342Y56408D01*
X33409Y56309D01*
X33508Y56242D01*
X33625Y56219D01*
X33742Y56242D01*
X33841Y56309D01*
X33908Y56408D01*
X33931Y56525D01*
X33908Y56642D01*
X33841Y56741D01*
X33742Y56808D01*
X33625Y56831D01*
D02*
G37*
G36*
X51050Y69331D02*
X50933Y69308D01*
X50834Y69241D01*
X50767Y69142D01*
X50744Y69025D01*
X50767Y68908D01*
X50834Y68809D01*
X50933Y68742D01*
X51050Y68719D01*
X51167Y68742D01*
X51266Y68809D01*
X51333Y68908D01*
X51356Y69025D01*
X51333Y69142D01*
X51266Y69241D01*
X51167Y69308D01*
X51050Y69331D01*
D02*
G37*
G36*
X50250D02*
X50133Y69308D01*
X50034Y69241D01*
X49967Y69142D01*
X49944Y69025D01*
X49967Y68908D01*
X50034Y68809D01*
X50133Y68742D01*
X50250Y68719D01*
X50367Y68742D01*
X50466Y68809D01*
X50533Y68908D01*
X50556Y69025D01*
X50533Y69142D01*
X50466Y69241D01*
X50367Y69308D01*
X50250Y69331D01*
D02*
G37*
G36*
X49450D02*
X49333Y69308D01*
X49234Y69241D01*
X49167Y69142D01*
X49144Y69025D01*
X49167Y68908D01*
X49234Y68809D01*
X49333Y68742D01*
X49450Y68719D01*
X49567Y68742D01*
X49666Y68809D01*
X49733Y68908D01*
X49756Y69025D01*
X49733Y69142D01*
X49666Y69241D01*
X49567Y69308D01*
X49450Y69331D01*
D02*
G37*
G36*
X51850Y68531D02*
X51733Y68508D01*
X51634Y68441D01*
X51567Y68342D01*
X51544Y68225D01*
X51567Y68108D01*
X51634Y68009D01*
X51733Y67942D01*
X51850Y67919D01*
X51967Y67942D01*
X52066Y68009D01*
X52133Y68108D01*
X52156Y68225D01*
X52133Y68342D01*
X52066Y68441D01*
X51967Y68508D01*
X51850Y68531D01*
D02*
G37*
G36*
X50250D02*
X50133Y68508D01*
X50034Y68441D01*
X49967Y68342D01*
X49944Y68225D01*
X49967Y68108D01*
X50034Y68009D01*
X50133Y67942D01*
X50250Y67919D01*
X50367Y67942D01*
X50466Y68009D01*
X50533Y68108D01*
X50556Y68225D01*
X50533Y68342D01*
X50466Y68441D01*
X50367Y68508D01*
X50250Y68531D01*
D02*
G37*
G36*
X53450Y68531D02*
X53333Y68508D01*
X53234Y68441D01*
X53167Y68342D01*
X53144Y68225D01*
X53167Y68108D01*
X53234Y68009D01*
X53333Y67942D01*
X53450Y67919D01*
X53567Y67942D01*
X53666Y68009D01*
X53733Y68108D01*
X53756Y68225D01*
X53733Y68342D01*
X53666Y68441D01*
X53567Y68508D01*
X53450Y68531D01*
D02*
G37*
G36*
X52650Y68531D02*
X52533Y68508D01*
X52434Y68441D01*
X52367Y68342D01*
X52344Y68225D01*
X52367Y68108D01*
X52434Y68009D01*
X52533Y67942D01*
X52650Y67919D01*
X52767Y67942D01*
X52866Y68009D01*
X52933Y68108D01*
X52956Y68225D01*
X52933Y68342D01*
X52866Y68441D01*
X52767Y68508D01*
X52650Y68531D01*
D02*
G37*
G36*
X53275Y59906D02*
X53158Y59883D01*
X53059Y59816D01*
X52992Y59717D01*
X52969Y59600D01*
X52992Y59483D01*
X53059Y59384D01*
X53158Y59317D01*
X53275Y59294D01*
X53392Y59317D01*
X53491Y59384D01*
X53558Y59483D01*
X53581Y59600D01*
X53558Y59717D01*
X53491Y59816D01*
X53392Y59883D01*
X53275Y59906D01*
D02*
G37*
G36*
X37600Y68731D02*
X37483Y68708D01*
X37384Y68641D01*
X37317Y68542D01*
X37294Y68425D01*
X37317Y68308D01*
X37384Y68209D01*
X37483Y68142D01*
X37600Y68119D01*
X37717Y68142D01*
X37816Y68209D01*
X37819Y68213D01*
X37848Y68219D01*
X37935Y68206D01*
X37984Y68134D01*
X38083Y68067D01*
X38200Y68044D01*
X38317Y68067D01*
X38416Y68134D01*
X38483Y68233D01*
X38506Y68350D01*
X38483Y68467D01*
X38416Y68566D01*
X38317Y68633D01*
X38200Y68656D01*
X38083Y68633D01*
X37984Y68566D01*
X37981Y68562D01*
X37952Y68556D01*
X37865Y68568D01*
X37816Y68641D01*
X37717Y68708D01*
X37600Y68731D01*
D02*
G37*
G36*
X51875Y62156D02*
X51758Y62133D01*
X51659Y62066D01*
X51592Y61967D01*
X51569Y61850D01*
X51592Y61733D01*
X51659Y61634D01*
X51758Y61567D01*
X51875Y61544D01*
X51992Y61567D01*
X52091Y61634D01*
X52158Y61733D01*
X52181Y61850D01*
X52158Y61967D01*
X52091Y62066D01*
X51992Y62133D01*
X51875Y62156D01*
D02*
G37*
G36*
X49450Y62656D02*
X49333Y62633D01*
X49234Y62566D01*
X49167Y62467D01*
X49144Y62350D01*
X49167Y62233D01*
X49234Y62134D01*
X49333Y62067D01*
X49450Y62044D01*
X49461Y62046D01*
X49546Y61961D01*
X49544Y61950D01*
X49567Y61833D01*
X49634Y61734D01*
X49733Y61667D01*
X49850Y61644D01*
X49967Y61667D01*
X50066Y61734D01*
X50133Y61833D01*
X50156Y61950D01*
X50133Y62067D01*
X50066Y62166D01*
X49967Y62233D01*
X49850Y62256D01*
X49839Y62254D01*
X49754Y62339D01*
X49756Y62350D01*
X49733Y62467D01*
X49666Y62566D01*
X49567Y62633D01*
X49450Y62656D01*
D02*
G37*
G36*
X57450Y63731D02*
X57333Y63708D01*
X57234Y63641D01*
X57167Y63542D01*
X57144Y63425D01*
X57167Y63308D01*
X57234Y63209D01*
X57333Y63142D01*
X57450Y63119D01*
X57567Y63142D01*
X57666Y63209D01*
X57733Y63308D01*
X57756Y63425D01*
X57733Y63542D01*
X57666Y63641D01*
X57567Y63708D01*
X57450Y63731D01*
D02*
G37*
G36*
X52650Y64531D02*
X52533Y64508D01*
X52434Y64441D01*
X52367Y64342D01*
X52344Y64225D01*
X52367Y64108D01*
X52434Y64009D01*
X52533Y63942D01*
X52650Y63919D01*
X52767Y63942D01*
X52866Y64009D01*
X52933Y64108D01*
X52956Y64225D01*
X52933Y64342D01*
X52866Y64441D01*
X52767Y64508D01*
X52650Y64531D01*
D02*
G37*
G36*
X51850D02*
X51733Y64508D01*
X51634Y64441D01*
X51567Y64342D01*
X51544Y64225D01*
X51567Y64108D01*
X51634Y64009D01*
X51733Y63942D01*
X51850Y63919D01*
X51967Y63942D01*
X52066Y64009D01*
X52133Y64108D01*
X52156Y64225D01*
X52133Y64342D01*
X52066Y64441D01*
X51967Y64508D01*
X51850Y64531D01*
D02*
G37*
G36*
X47750Y64931D02*
X47633Y64908D01*
X47534Y64841D01*
X47467Y64742D01*
X47444Y64625D01*
X47461Y64542D01*
X47467Y64508D01*
X47396Y64435D01*
X47383Y64433D01*
X47284Y64366D01*
X47217Y64267D01*
X47194Y64150D01*
X47217Y64033D01*
X47284Y63934D01*
X47383Y63867D01*
X47500Y63844D01*
X47617Y63867D01*
X47716Y63934D01*
X47783Y64033D01*
X47806Y64150D01*
X47789Y64233D01*
X47783Y64267D01*
X47854Y64340D01*
X47867Y64342D01*
X47966Y64409D01*
X48033Y64508D01*
X48056Y64625D01*
X48033Y64742D01*
X47966Y64841D01*
X47867Y64908D01*
X47750Y64931D01*
D02*
G37*
G36*
X35200Y63506D02*
X35083Y63483D01*
X34984Y63416D01*
X34917Y63317D01*
X34894Y63200D01*
X34917Y63083D01*
X34984Y62984D01*
X35083Y62917D01*
X35200Y62894D01*
X35317Y62917D01*
X35416Y62984D01*
X35483Y63083D01*
X35506Y63200D01*
X35483Y63317D01*
X35416Y63416D01*
X35317Y63483D01*
X35200Y63506D01*
D02*
G37*
G36*
X55450Y62831D02*
X55333Y62808D01*
X55234Y62741D01*
X55167Y62642D01*
X55144Y62525D01*
X55167Y62408D01*
X55234Y62309D01*
X55333Y62242D01*
X55450Y62219D01*
X55567Y62242D01*
X55666Y62309D01*
X55733Y62408D01*
X55756Y62525D01*
X55733Y62642D01*
X55666Y62741D01*
X55567Y62808D01*
X55450Y62831D01*
D02*
G37*
G36*
X48650Y62656D02*
X48533Y62633D01*
X48434Y62566D01*
X48367Y62467D01*
X48344Y62350D01*
X48367Y62233D01*
X48434Y62134D01*
X48533Y62067D01*
X48650Y62044D01*
X48767Y62067D01*
X48866Y62134D01*
X48933Y62233D01*
X48956Y62350D01*
X48933Y62467D01*
X48866Y62566D01*
X48767Y62633D01*
X48650Y62656D01*
D02*
G37*
G36*
X47875D02*
X47758Y62633D01*
X47659Y62566D01*
X47592Y62467D01*
X47569Y62350D01*
X47592Y62233D01*
X47659Y62134D01*
X47758Y62067D01*
X47875Y62044D01*
X47992Y62067D01*
X48091Y62134D01*
X48158Y62233D01*
X48181Y62350D01*
X48158Y62467D01*
X48091Y62566D01*
X47992Y62633D01*
X47875Y62656D01*
D02*
G37*
G36*
X52650Y63031D02*
X52533Y63008D01*
X52434Y62941D01*
X52367Y62842D01*
X52344Y62725D01*
X52367Y62608D01*
X52434Y62509D01*
X52533Y62442D01*
X52650Y62419D01*
X52767Y62442D01*
X52866Y62509D01*
X52933Y62608D01*
X52956Y62725D01*
X52933Y62842D01*
X52866Y62941D01*
X52767Y63008D01*
X52650Y63031D01*
D02*
G37*
G36*
X50250Y62981D02*
X50133Y62958D01*
X50034Y62891D01*
X49967Y62792D01*
X49944Y62675D01*
X49967Y62558D01*
X50034Y62459D01*
X50133Y62392D01*
X50250Y62369D01*
X50367Y62392D01*
X50466Y62459D01*
X50533Y62558D01*
X50556Y62675D01*
X50533Y62792D01*
X50466Y62891D01*
X50367Y62958D01*
X50250Y62981D01*
D02*
G37*
G36*
X56250Y62831D02*
X56133Y62808D01*
X56034Y62741D01*
X55967Y62642D01*
X55944Y62525D01*
X55967Y62408D01*
X56034Y62309D01*
X56133Y62242D01*
X56250Y62219D01*
X56367Y62242D01*
X56466Y62309D01*
X56533Y62408D01*
X56556Y62525D01*
X56533Y62642D01*
X56466Y62741D01*
X56367Y62808D01*
X56250Y62831D01*
D02*
G37*
G36*
X48250Y62006D02*
X48133Y61983D01*
X48034Y61916D01*
X47967Y61817D01*
X47944Y61700D01*
X47967Y61583D01*
X48034Y61484D01*
X48133Y61417D01*
X48250Y61394D01*
X48367Y61417D01*
X48466Y61484D01*
X48533Y61583D01*
X48556Y61700D01*
X48533Y61817D01*
X48466Y61916D01*
X48367Y61983D01*
X48250Y62006D01*
D02*
G37*
G36*
X35600Y65781D02*
X35483Y65758D01*
X35384Y65691D01*
X35317Y65592D01*
X35294Y65475D01*
X35317Y65358D01*
X35384Y65259D01*
X35483Y65192D01*
X35600Y65169D01*
X35717Y65192D01*
X35816Y65259D01*
X35883Y65358D01*
X35906Y65475D01*
X35883Y65592D01*
X35816Y65691D01*
X35717Y65758D01*
X35600Y65781D01*
D02*
G37*
G36*
X38125Y65756D02*
X38008Y65733D01*
X37909Y65666D01*
X37842Y65567D01*
X37819Y65450D01*
X37842Y65333D01*
X37909Y65234D01*
X38008Y65167D01*
X38125Y65144D01*
X38242Y65167D01*
X38341Y65234D01*
X38408Y65333D01*
X38431Y65450D01*
X38408Y65567D01*
X38341Y65666D01*
X38242Y65733D01*
X38125Y65756D01*
D02*
G37*
G36*
X36300Y66031D02*
X36183Y66008D01*
X36084Y65941D01*
X36017Y65842D01*
X35994Y65725D01*
X36017Y65608D01*
X36084Y65509D01*
X36183Y65442D01*
X36300Y65419D01*
X36411Y65339D01*
X36417Y65308D01*
X36484Y65209D01*
X36583Y65142D01*
X36700Y65119D01*
X36817Y65142D01*
X36916Y65209D01*
X36983Y65308D01*
X37006Y65425D01*
X36983Y65542D01*
X36916Y65641D01*
X36817Y65708D01*
X36700Y65731D01*
X36589Y65811D01*
X36583Y65842D01*
X36516Y65941D01*
X36417Y66008D01*
X36300Y66031D01*
D02*
G37*
G36*
X32725Y61681D02*
X32608Y61658D01*
X32509Y61591D01*
X32442Y61492D01*
X32419Y61375D01*
X32442Y61258D01*
X32509Y61159D01*
X32608Y61092D01*
X32725Y61069D01*
X32842Y61092D01*
X32941Y61159D01*
X33008Y61258D01*
X33031Y61375D01*
X33008Y61492D01*
X32941Y61591D01*
X32842Y61658D01*
X32725Y61681D01*
D02*
G37*
G36*
X37400Y65806D02*
X37283Y65783D01*
X37184Y65716D01*
X37117Y65617D01*
X37094Y65500D01*
X37117Y65383D01*
X37184Y65284D01*
X37283Y65217D01*
X37400Y65194D01*
X37517Y65217D01*
X37616Y65284D01*
X37683Y65383D01*
X37706Y65500D01*
X37683Y65617D01*
X37616Y65716D01*
X37517Y65783D01*
X37400Y65806D01*
D02*
G37*
G36*
X53450Y65331D02*
X53333Y65308D01*
X53234Y65241D01*
X53167Y65142D01*
X53144Y65025D01*
X53167Y64908D01*
X53234Y64809D01*
X53333Y64742D01*
X53450Y64719D01*
X53567Y64742D01*
X53666Y64809D01*
X53733Y64908D01*
X53756Y65025D01*
X53733Y65142D01*
X53666Y65241D01*
X53567Y65308D01*
X53450Y65331D01*
D02*
G37*
G36*
X51050Y64531D02*
X50933Y64508D01*
X50834Y64441D01*
X50767Y64342D01*
X50744Y64225D01*
X50767Y64108D01*
X50834Y64009D01*
X50933Y63942D01*
X51050Y63919D01*
X51167Y63942D01*
X51266Y64009D01*
X51333Y64108D01*
X51356Y64225D01*
X51333Y64342D01*
X51266Y64441D01*
X51167Y64508D01*
X51050Y64531D01*
D02*
G37*
G36*
X50250D02*
X50133Y64508D01*
X50034Y64441D01*
X49967Y64342D01*
X49944Y64225D01*
X49967Y64108D01*
X50034Y64009D01*
X50133Y63942D01*
X50250Y63919D01*
X50367Y63942D01*
X50466Y64009D01*
X50533Y64108D01*
X50556Y64225D01*
X50533Y64342D01*
X50466Y64441D01*
X50367Y64508D01*
X50250Y64531D01*
D02*
G37*
G36*
X54250Y64531D02*
X54133Y64508D01*
X54034Y64441D01*
X53967Y64342D01*
X53944Y64225D01*
X53967Y64108D01*
X54034Y64009D01*
X54133Y63942D01*
X54250Y63919D01*
X54367Y63942D01*
X54466Y64009D01*
X54533Y64108D01*
X54556Y64225D01*
X54533Y64342D01*
X54466Y64441D01*
X54367Y64508D01*
X54250Y64531D01*
D02*
G37*
G36*
X59350Y62001D02*
X59233Y61978D01*
X59134Y61911D01*
X59067Y61812D01*
X59044Y61695D01*
X59067Y61578D01*
X59134Y61479D01*
X59233Y61412D01*
X59350Y61389D01*
X59467Y61412D01*
X59566Y61479D01*
X59633Y61578D01*
X59656Y61695D01*
X59633Y61812D01*
X59566Y61911D01*
X59467Y61978D01*
X59350Y62001D01*
D02*
G37*
G36*
X53450Y64531D02*
X53333Y64508D01*
X53234Y64441D01*
X53167Y64342D01*
X53144Y64225D01*
X53167Y64108D01*
X53234Y64009D01*
X53333Y63942D01*
X53450Y63919D01*
X53567Y63942D01*
X53666Y64009D01*
X53733Y64108D01*
X53756Y64225D01*
X53733Y64342D01*
X53666Y64441D01*
X53567Y64508D01*
X53450Y64531D01*
D02*
G37*
G36*
X59925Y79706D02*
X59808Y79683D01*
X59709Y79616D01*
X59642Y79517D01*
X59619Y79400D01*
X59642Y79283D01*
X59709Y79184D01*
X59808Y79117D01*
X59925Y79094D01*
X60042Y79117D01*
X60141Y79184D01*
X60208Y79283D01*
X60231Y79400D01*
X60208Y79517D01*
X60141Y79616D01*
X60042Y79683D01*
X59925Y79706D01*
D02*
G37*
G36*
X33325D02*
X33208Y79683D01*
X33109Y79616D01*
X33042Y79517D01*
X33019Y79400D01*
X33042Y79283D01*
X33109Y79184D01*
X33208Y79117D01*
X33325Y79094D01*
X33442Y79117D01*
X33541Y79184D01*
X33608Y79283D01*
X33631Y79400D01*
X33608Y79517D01*
X33541Y79616D01*
X33442Y79683D01*
X33325Y79706D01*
D02*
G37*
G36*
X33125Y81406D02*
X33008Y81383D01*
X32909Y81316D01*
X32842Y81217D01*
X32819Y81100D01*
X32842Y80983D01*
X32909Y80884D01*
X33008Y80817D01*
X33125Y80794D01*
X33242Y80817D01*
X33341Y80884D01*
X33408Y80983D01*
X33431Y81100D01*
X33408Y81217D01*
X33341Y81316D01*
X33242Y81383D01*
X33125Y81406D01*
D02*
G37*
G36*
X9025Y90556D02*
X8908Y90533D01*
X8809Y90466D01*
X8742Y90367D01*
X8719Y90250D01*
X8742Y90133D01*
X8809Y90034D01*
X8908Y89967D01*
X9025Y89944D01*
X9142Y89967D01*
X9241Y90034D01*
X9308Y90133D01*
X9331Y90250D01*
X9308Y90367D01*
X9241Y90466D01*
X9142Y90533D01*
X9025Y90556D01*
D02*
G37*
G36*
X10325D02*
X10208Y90533D01*
X10109Y90466D01*
X10042Y90367D01*
X10019Y90250D01*
X10042Y90133D01*
X10109Y90034D01*
X10208Y89967D01*
X10325Y89944D01*
X10442Y89967D01*
X10541Y90034D01*
X10608Y90133D01*
X10631Y90250D01*
X10608Y90367D01*
X10541Y90466D01*
X10442Y90533D01*
X10325Y90556D01*
D02*
G37*
G36*
X10575Y92681D02*
X10458Y92658D01*
X10359Y92591D01*
X10292Y92492D01*
X10269Y92375D01*
X10292Y92258D01*
X10359Y92159D01*
X10458Y92092D01*
X10575Y92069D01*
X10692Y92092D01*
X10791Y92159D01*
X10858Y92258D01*
X10881Y92375D01*
X10858Y92492D01*
X10791Y92591D01*
X10692Y92658D01*
X10575Y92681D01*
D02*
G37*
G36*
Y91931D02*
X10458Y91908D01*
X10359Y91841D01*
X10292Y91742D01*
X10269Y91625D01*
X10292Y91508D01*
X10359Y91409D01*
X10458Y91342D01*
X10575Y91319D01*
X10692Y91342D01*
X10791Y91409D01*
X10858Y91508D01*
X10881Y91625D01*
X10858Y91742D01*
X10791Y91841D01*
X10692Y91908D01*
X10575Y91931D01*
D02*
G37*
G36*
X30150Y91756D02*
X30033Y91733D01*
X29934Y91666D01*
X29867Y91567D01*
X29844Y91450D01*
X29867Y91333D01*
X29934Y91234D01*
X30033Y91167D01*
X30150Y91144D01*
X30267Y91167D01*
X30366Y91234D01*
X30433Y91333D01*
X30456Y91450D01*
X30433Y91567D01*
X30366Y91666D01*
X30267Y91733D01*
X30150Y91756D01*
D02*
G37*
G36*
X57025Y70231D02*
X56908Y70208D01*
X56809Y70141D01*
X56742Y70042D01*
X56719Y69925D01*
X56742Y69808D01*
X56809Y69709D01*
X56908Y69642D01*
X57025Y69619D01*
X57142Y69642D01*
X57241Y69709D01*
X57308Y69808D01*
X57331Y69925D01*
X57308Y70042D01*
X57241Y70141D01*
X57142Y70208D01*
X57025Y70231D01*
D02*
G37*
G36*
X55450D02*
X55333Y70208D01*
X55234Y70141D01*
X55167Y70042D01*
X55144Y69925D01*
X55167Y69808D01*
X55234Y69709D01*
X55333Y69642D01*
X55450Y69619D01*
X55567Y69642D01*
X55666Y69709D01*
X55733Y69808D01*
X55756Y69925D01*
X55733Y70042D01*
X55666Y70141D01*
X55567Y70208D01*
X55450Y70231D01*
D02*
G37*
G36*
X54650Y70231D02*
X54533Y70208D01*
X54434Y70141D01*
X54367Y70042D01*
X54344Y69925D01*
X54367Y69808D01*
X54434Y69709D01*
X54533Y69642D01*
X54650Y69619D01*
X54767Y69642D01*
X54866Y69709D01*
X54933Y69808D01*
X54956Y69925D01*
X54933Y70042D01*
X54866Y70141D01*
X54767Y70208D01*
X54650Y70231D01*
D02*
G37*
G36*
X57775Y70231D02*
X57658Y70208D01*
X57559Y70141D01*
X57492Y70042D01*
X57469Y69925D01*
X57492Y69808D01*
X57559Y69709D01*
X57658Y69642D01*
X57775Y69619D01*
X57892Y69642D01*
X57991Y69709D01*
X58058Y69808D01*
X58081Y69925D01*
X58058Y70042D01*
X57991Y70141D01*
X57892Y70208D01*
X57775Y70231D01*
D02*
G37*
G36*
X37550Y71181D02*
X37433Y71158D01*
X37334Y71091D01*
X37267Y70992D01*
X37244Y70875D01*
X37267Y70758D01*
X37334Y70659D01*
X37433Y70592D01*
X37550Y70569D01*
X37667Y70592D01*
X37688Y70584D01*
X37747Y70526D01*
X37809Y70434D01*
X37908Y70367D01*
X38025Y70344D01*
X38142Y70367D01*
X38241Y70434D01*
X38308Y70533D01*
X38331Y70650D01*
X38308Y70767D01*
X38241Y70866D01*
X38142Y70933D01*
X38025Y70956D01*
X37908Y70933D01*
X37887Y70941D01*
X37828Y70999D01*
X37766Y71091D01*
X37667Y71158D01*
X37550Y71181D01*
D02*
G37*
G36*
X40025Y70431D02*
X39908Y70408D01*
X39809Y70341D01*
X39742Y70242D01*
X39719Y70125D01*
X39742Y70008D01*
X39809Y69909D01*
X39908Y69842D01*
X40025Y69819D01*
X40142Y69842D01*
X40241Y69909D01*
X40308Y70008D01*
X40331Y70125D01*
X40308Y70242D01*
X40241Y70341D01*
X40142Y70408D01*
X40025Y70431D01*
D02*
G37*
G36*
X59250Y70231D02*
X59133Y70208D01*
X59034Y70141D01*
X58967Y70042D01*
X58944Y69925D01*
X58967Y69808D01*
X59034Y69709D01*
X59133Y69642D01*
X59250Y69619D01*
X59367Y69642D01*
X59466Y69709D01*
X59533Y69808D01*
X59556Y69925D01*
X59533Y70042D01*
X59466Y70141D01*
X59367Y70208D01*
X59250Y70231D01*
D02*
G37*
G36*
X51450Y70231D02*
X51333Y70208D01*
X51234Y70141D01*
X51167Y70042D01*
X51144Y69925D01*
X51167Y69808D01*
X51234Y69709D01*
X51333Y69642D01*
X51450Y69619D01*
X51567Y69642D01*
X51666Y69709D01*
X51733Y69808D01*
X51756Y69925D01*
X51733Y70042D01*
X51666Y70141D01*
X51567Y70208D01*
X51450Y70231D01*
D02*
G37*
G36*
X33550Y70031D02*
X33433Y70008D01*
X33334Y69941D01*
X33267Y69842D01*
X33244Y69725D01*
X33267Y69608D01*
X33309Y69545D01*
X33326Y69475D01*
X33309Y69405D01*
X33267Y69342D01*
X33244Y69225D01*
X33267Y69108D01*
X33334Y69009D01*
X33433Y68942D01*
X33550Y68919D01*
X33667Y68942D01*
X33766Y69009D01*
X33833Y69108D01*
X33856Y69225D01*
X33833Y69342D01*
X33791Y69405D01*
X33774Y69475D01*
X33791Y69545D01*
X33833Y69608D01*
X33856Y69725D01*
X33833Y69842D01*
X33766Y69941D01*
X33667Y70008D01*
X33550Y70031D01*
D02*
G37*
G36*
X52650Y69331D02*
X52533Y69308D01*
X52434Y69241D01*
X52367Y69142D01*
X52344Y69025D01*
X52367Y68908D01*
X52434Y68809D01*
X52533Y68742D01*
X52650Y68719D01*
X52767Y68742D01*
X52866Y68809D01*
X52933Y68908D01*
X52956Y69025D01*
X52933Y69142D01*
X52866Y69241D01*
X52767Y69308D01*
X52650Y69331D01*
D02*
G37*
G36*
X51850D02*
X51733Y69308D01*
X51634Y69241D01*
X51567Y69142D01*
X51544Y69025D01*
X51567Y68908D01*
X51634Y68809D01*
X51733Y68742D01*
X51850Y68719D01*
X51967Y68742D01*
X52066Y68809D01*
X52133Y68908D01*
X52156Y69025D01*
X52133Y69142D01*
X52066Y69241D01*
X51967Y69308D01*
X51850Y69331D01*
D02*
G37*
G36*
X39275Y69606D02*
X39158Y69583D01*
X39059Y69516D01*
X38992Y69417D01*
X38969Y69300D01*
X38877Y69251D01*
X38850Y69256D01*
X38733Y69233D01*
X38634Y69166D01*
X38567Y69067D01*
X38544Y68950D01*
X38567Y68833D01*
X38634Y68734D01*
X38733Y68667D01*
X38850Y68644D01*
X38967Y68667D01*
X39066Y68734D01*
X39133Y68833D01*
X39156Y68950D01*
X39248Y68999D01*
X39275Y68994D01*
X39392Y69017D01*
X39491Y69084D01*
X39558Y69183D01*
X39581Y69300D01*
X39558Y69417D01*
X39491Y69516D01*
X39392Y69583D01*
X39275Y69606D01*
D02*
G37*
G36*
X49850Y70231D02*
X49733Y70208D01*
X49634Y70141D01*
X49567Y70042D01*
X49544Y69925D01*
X49567Y69808D01*
X49634Y69709D01*
X49733Y69642D01*
X49850Y69619D01*
X49967Y69642D01*
X50066Y69709D01*
X50133Y69808D01*
X50156Y69925D01*
X50133Y70042D01*
X50066Y70141D01*
X49967Y70208D01*
X49850Y70231D01*
D02*
G37*
G36*
X47750Y70231D02*
X47633Y70208D01*
X47534Y70141D01*
X47467Y70042D01*
X47444Y69925D01*
X47467Y69808D01*
X47534Y69709D01*
X47633Y69642D01*
X47750Y69619D01*
X47867Y69642D01*
X47930Y69684D01*
X48034Y69709D01*
X48133Y69642D01*
X48250Y69619D01*
X48367Y69642D01*
X48466Y69709D01*
X48533Y69808D01*
X48556Y69925D01*
X48533Y70042D01*
X48466Y70141D01*
X48367Y70208D01*
X48250Y70231D01*
X48133Y70208D01*
X48070Y70166D01*
X47966Y70141D01*
X47867Y70208D01*
X47750Y70231D01*
D02*
G37*
G36*
X49850Y76756D02*
X49733Y76733D01*
X49634Y76666D01*
X49567Y76567D01*
X49544Y76450D01*
X49567Y76333D01*
X49634Y76234D01*
X49733Y76167D01*
X49850Y76144D01*
X49967Y76167D01*
X50066Y76234D01*
X50133Y76333D01*
X50156Y76450D01*
X50133Y76567D01*
X50066Y76666D01*
X49967Y76733D01*
X49850Y76756D01*
D02*
G37*
G36*
X47725Y76606D02*
X47608Y76583D01*
X47509Y76516D01*
X47442Y76417D01*
X47419Y76300D01*
X47442Y76183D01*
X47509Y76084D01*
X47608Y76017D01*
X47725Y75994D01*
X47842Y76017D01*
X47941Y76084D01*
X48008Y76183D01*
X48031Y76300D01*
X48008Y76417D01*
X47941Y76516D01*
X47842Y76583D01*
X47725Y76606D01*
D02*
G37*
G36*
X35250Y73181D02*
X35133Y73158D01*
X35034Y73091D01*
X34967Y72992D01*
X34944Y72875D01*
X34967Y72758D01*
X35034Y72659D01*
X35133Y72592D01*
X35250Y72569D01*
X35367Y72592D01*
X35466Y72659D01*
X35533Y72758D01*
X35556Y72875D01*
X35533Y72992D01*
X35466Y73091D01*
X35367Y73158D01*
X35250Y73181D01*
D02*
G37*
G36*
X38375Y71731D02*
X38258Y71708D01*
X38159Y71641D01*
X38092Y71542D01*
X38069Y71425D01*
X38092Y71308D01*
X38159Y71209D01*
X38258Y71142D01*
X38375Y71119D01*
X38492Y71142D01*
X38512Y71156D01*
X38519Y71160D01*
X38584Y71091D01*
X38576Y71079D01*
X38517Y70992D01*
X38494Y70875D01*
X38517Y70758D01*
X38584Y70659D01*
X38683Y70592D01*
X38800Y70569D01*
X38917Y70592D01*
X39016Y70659D01*
X39083Y70758D01*
X39106Y70875D01*
X39083Y70992D01*
X39016Y71091D01*
X38917Y71158D01*
X38800Y71181D01*
X38683Y71158D01*
X38663Y71144D01*
X38656Y71140D01*
X38591Y71209D01*
X38599Y71221D01*
X38658Y71308D01*
X38681Y71425D01*
X38658Y71542D01*
X38591Y71641D01*
X38492Y71708D01*
X38375Y71731D01*
D02*
G37*
G36*
X33200Y71456D02*
X33083Y71433D01*
X32984Y71366D01*
X32917Y71267D01*
X32894Y71150D01*
X32917Y71033D01*
X32984Y70934D01*
X33083Y70867D01*
X33200Y70844D01*
X33249Y70752D01*
X33244Y70725D01*
X33267Y70608D01*
X33334Y70509D01*
X33433Y70442D01*
X33550Y70419D01*
X33667Y70442D01*
X33766Y70509D01*
X33833Y70608D01*
X33856Y70725D01*
X33833Y70842D01*
X33766Y70941D01*
X33667Y71008D01*
X33550Y71031D01*
X33500Y71123D01*
X33506Y71150D01*
X33483Y71267D01*
X33416Y71366D01*
X33317Y71433D01*
X33200Y71456D01*
D02*
G37*
G36*
X40075Y71731D02*
X39958Y71708D01*
X39859Y71641D01*
X39792Y71542D01*
X39769Y71425D01*
X39792Y71308D01*
X39859Y71209D01*
X39894Y71185D01*
X39932Y71095D01*
X39913Y71061D01*
X39867Y70992D01*
X39844Y70875D01*
X39867Y70758D01*
X39934Y70659D01*
X40033Y70592D01*
X40150Y70569D01*
X40267Y70592D01*
X40366Y70659D01*
X40433Y70758D01*
X40456Y70875D01*
X40433Y70992D01*
X40366Y71091D01*
X40331Y71115D01*
X40293Y71205D01*
X40312Y71239D01*
X40358Y71308D01*
X40381Y71425D01*
X40358Y71542D01*
X40291Y71641D01*
X40192Y71708D01*
X40075Y71731D01*
D02*
G37*
G36*
X39325D02*
X39208Y71708D01*
X39109Y71641D01*
X39042Y71542D01*
X39019Y71425D01*
X39042Y71308D01*
X39109Y71209D01*
X39208Y71142D01*
X39325Y71119D01*
X39442Y71142D01*
X39541Y71209D01*
X39608Y71308D01*
X39631Y71425D01*
X39608Y71542D01*
X39541Y71641D01*
X39442Y71708D01*
X39325Y71731D01*
D02*
G37*
G36*
X12575Y84856D02*
X12458Y84833D01*
X12359Y84766D01*
X12292Y84667D01*
X12269Y84550D01*
X12292Y84433D01*
X12359Y84334D01*
X12458Y84267D01*
X12575Y84244D01*
X12692Y84267D01*
X12791Y84334D01*
X12858Y84433D01*
X12881Y84550D01*
X12858Y84667D01*
X12791Y84766D01*
X12692Y84833D01*
X12575Y84856D01*
D02*
G37*
G36*
X16050Y83656D02*
X15933Y83633D01*
X15834Y83566D01*
X15767Y83467D01*
X15744Y83350D01*
X15767Y83233D01*
X15834Y83134D01*
X15933Y83067D01*
X16050Y83044D01*
X16167Y83067D01*
X16266Y83134D01*
X16333Y83233D01*
X16356Y83350D01*
X16333Y83467D01*
X16266Y83566D01*
X16167Y83633D01*
X16050Y83656D01*
D02*
G37*
G36*
X14300Y84881D02*
X14183Y84858D01*
X14084Y84791D01*
X14017Y84692D01*
X13994Y84575D01*
X14017Y84458D01*
X14084Y84359D01*
X14183Y84292D01*
X14300Y84269D01*
X14417Y84292D01*
X14516Y84359D01*
X14583Y84458D01*
X14606Y84575D01*
X14583Y84692D01*
X14516Y84791D01*
X14417Y84858D01*
X14300Y84881D01*
D02*
G37*
G36*
X12600Y86056D02*
X12483Y86033D01*
X12384Y85966D01*
X12317Y85867D01*
X12294Y85750D01*
X12317Y85633D01*
X12384Y85534D01*
X12483Y85467D01*
X12600Y85444D01*
X12717Y85467D01*
X12816Y85534D01*
X12883Y85633D01*
X12906Y85750D01*
X12883Y85867D01*
X12816Y85966D01*
X12717Y86033D01*
X12600Y86056D01*
D02*
G37*
G36*
X16050Y84881D02*
X15933Y84858D01*
X15834Y84791D01*
X15767Y84692D01*
X15744Y84575D01*
X15767Y84458D01*
X15834Y84359D01*
X15933Y84292D01*
X16050Y84269D01*
X16167Y84292D01*
X16266Y84359D01*
X16333Y84458D01*
X16356Y84575D01*
X16333Y84692D01*
X16266Y84791D01*
X16167Y84858D01*
X16050Y84881D01*
D02*
G37*
G36*
X14300Y83656D02*
X14183Y83633D01*
X14084Y83566D01*
X14017Y83467D01*
X13994Y83350D01*
X14017Y83233D01*
X14084Y83134D01*
X14183Y83067D01*
X14300Y83044D01*
X14417Y83067D01*
X14516Y83134D01*
X14583Y83233D01*
X14606Y83350D01*
X14583Y83467D01*
X14516Y83566D01*
X14417Y83633D01*
X14300Y83656D01*
D02*
G37*
G36*
X13525Y81106D02*
X13408Y81083D01*
X13309Y81016D01*
X13242Y80917D01*
X13219Y80800D01*
X13242Y80683D01*
X13309Y80584D01*
X13408Y80517D01*
X13525Y80494D01*
X13642Y80517D01*
X13741Y80584D01*
X13808Y80683D01*
X13831Y80800D01*
X13808Y80917D01*
X13741Y81016D01*
X13642Y81083D01*
X13525Y81106D01*
D02*
G37*
G36*
X12600Y83656D02*
X12483Y83633D01*
X12384Y83566D01*
X12317Y83467D01*
X12294Y83350D01*
X12317Y83233D01*
X12384Y83134D01*
X12483Y83067D01*
X12600Y83044D01*
X12717Y83067D01*
X12816Y83134D01*
X12883Y83233D01*
X12906Y83350D01*
X12883Y83467D01*
X12816Y83566D01*
X12717Y83633D01*
X12600Y83656D01*
D02*
G37*
G36*
X15325Y81406D02*
X15208Y81383D01*
X15109Y81316D01*
X15042Y81217D01*
X15019Y81100D01*
X15042Y80983D01*
X15109Y80884D01*
X15208Y80817D01*
X15325Y80794D01*
X15442Y80817D01*
X15541Y80884D01*
X15608Y80983D01*
X15631Y81100D01*
X15608Y81217D01*
X15541Y81316D01*
X15442Y81383D01*
X15325Y81406D01*
D02*
G37*
G36*
X16050Y86056D02*
X15933Y86033D01*
X15834Y85966D01*
X15767Y85867D01*
X15744Y85750D01*
X15767Y85633D01*
X15834Y85534D01*
X15933Y85467D01*
X16050Y85444D01*
X16167Y85467D01*
X16266Y85534D01*
X16333Y85633D01*
X16356Y85750D01*
X16333Y85867D01*
X16266Y85966D01*
X16167Y86033D01*
X16050Y86056D01*
D02*
G37*
G36*
X14300D02*
X14183Y86033D01*
X14084Y85966D01*
X14017Y85867D01*
X13994Y85750D01*
X14017Y85633D01*
X14084Y85534D01*
X14183Y85467D01*
X14300Y85444D01*
X14417Y85467D01*
X14516Y85534D01*
X14583Y85633D01*
X14606Y85750D01*
X14583Y85867D01*
X14516Y85966D01*
X14417Y86033D01*
X14300Y86056D01*
D02*
G37*
%LPD*%
D18*
X30175Y68400D02*
D03*
X31475Y69050D02*
D03*
Y70350D02*
D03*
X14925Y87800D02*
D03*
X16550Y91700D02*
D03*
Y92200D02*
D03*
X12650Y92975D02*
D03*
X13275Y92375D02*
D03*
X9050Y87575D02*
D03*
X13675Y76750D02*
D03*
X20750Y84275D02*
D03*
X20675Y81725D02*
D03*
X8425Y78375D02*
D03*
X13675Y77300D02*
D03*
X15325Y81100D02*
D03*
X18625Y84300D02*
D03*
X18275Y85550D02*
D03*
X13025Y88100D02*
D03*
X8425Y80400D02*
D03*
X10425Y80600D02*
D03*
X10325Y77750D02*
D03*
X19125Y82400D02*
D03*
X14125Y80700D02*
D03*
X9525Y82600D02*
D03*
Y83500D02*
D03*
X13525Y80800D02*
D03*
X12125Y77100D02*
D03*
X13525Y88600D02*
D03*
X13375Y91375D02*
D03*
X13975D02*
D03*
X13875Y92125D02*
D03*
X9025Y90250D02*
D03*
X10325D02*
D03*
X10825Y87400D02*
D03*
X10575Y91625D02*
D03*
Y92375D02*
D03*
X13425Y77900D02*
D03*
X13925D02*
D03*
X20175Y85950D02*
D03*
X16050Y83350D02*
D03*
Y84575D02*
D03*
Y85750D02*
D03*
X14300Y83350D02*
D03*
Y84575D02*
D03*
Y85750D02*
D03*
X12600Y83350D02*
D03*
X12575Y84550D02*
D03*
X12600Y85750D02*
D03*
X28400Y76800D02*
D03*
X31850Y83450D02*
D03*
X29050Y83925D02*
D03*
X28675Y91475D02*
D03*
X22000Y86800D02*
D03*
Y84300D02*
D03*
X23250Y65050D02*
D03*
X24600Y67175D02*
D03*
X31975Y71150D02*
D03*
X21175Y73425D02*
D03*
X82750Y4725D02*
D03*
X33550Y70225D02*
D03*
X31450Y69700D02*
D03*
X49850Y76450D02*
D03*
X40075Y71425D02*
D03*
X36700Y65425D02*
D03*
X36300Y65725D02*
D03*
X38125Y65450D02*
D03*
X36600Y67550D02*
D03*
X39125Y67025D02*
D03*
X37400Y65500D02*
D03*
X38800Y70875D02*
D03*
X48650Y62350D02*
D03*
X38975Y66150D02*
D03*
X47750Y64625D02*
D03*
X51850Y64225D02*
D03*
X60000Y69900D02*
D03*
X35250Y72875D02*
D03*
X59250Y69925D02*
D03*
X58525D02*
D03*
X57775D02*
D03*
X54650Y69925D02*
D03*
X49050Y60400D02*
D03*
X53275Y59600D02*
D03*
X59350Y61695D02*
D03*
X58660D02*
D03*
X51875Y61850D02*
D03*
X52650Y64225D02*
D03*
X50250Y64225D02*
D03*
X51050D02*
D03*
X53850Y67325D02*
D03*
X50250Y68225D02*
D03*
Y69025D02*
D03*
X48650D02*
D03*
X47725Y68900D02*
D03*
X47875Y62350D02*
D03*
X49850Y69925D02*
D03*
X50650D02*
D03*
X55450Y62525D02*
D03*
X53450Y63425D02*
D03*
X49055Y69925D02*
D03*
X47500Y64150D02*
D03*
X55450Y69925D02*
D03*
X56250D02*
D03*
X55050Y65025D02*
D03*
X57025Y69925D02*
D03*
X49450Y69025D02*
D03*
X57450Y63425D02*
D03*
X51450Y69925D02*
D03*
X56250Y62525D02*
D03*
X59050Y68225D02*
D03*
X49850Y61950D02*
D03*
X49050Y61700D02*
D03*
X59850Y67425D02*
D03*
X54250Y64225D02*
D03*
X48250Y61700D02*
D03*
X49450Y62350D02*
D03*
X52650Y62725D02*
D03*
X50650Y61950D02*
D03*
X50250Y62675D02*
D03*
X54650Y62525D02*
D03*
X57450Y62625D02*
D03*
X52650Y68225D02*
D03*
X52550Y67325D02*
D03*
X52650Y69025D02*
D03*
X51850Y68225D02*
D03*
Y69025D02*
D03*
X51050Y68225D02*
D03*
Y69025D02*
D03*
X28850Y67100D02*
D03*
Y69050D02*
D03*
X28200Y65750D02*
D03*
X28950Y65025D02*
D03*
X30150Y70350D02*
D03*
X30175Y69700D02*
D03*
X32475Y65000D02*
D03*
X31975D02*
D03*
X31475D02*
D03*
X33550Y65500D02*
D03*
Y66000D02*
D03*
Y66500D02*
D03*
X31475Y68400D02*
D03*
X33550Y68025D02*
D03*
Y67525D02*
D03*
Y69725D02*
D03*
X32150Y69700D02*
D03*
X33375Y67025D02*
D03*
X28450Y65000D02*
D03*
X27400D02*
D03*
Y66400D02*
D03*
X31500Y70950D02*
D03*
X31475Y67100D02*
D03*
X27400Y66900D02*
D03*
X27950Y65000D02*
D03*
X28850Y65800D02*
D03*
X33550Y69225D02*
D03*
X53450Y69025D02*
D03*
Y68225D02*
D03*
X60825Y64100D02*
D03*
X40150Y70875D02*
D03*
X40025Y70125D02*
D03*
X38200Y68350D02*
D03*
X39650Y67075D02*
D03*
X38475Y66150D02*
D03*
X35200Y63200D02*
D03*
X35600Y65475D02*
D03*
X39475Y66150D02*
D03*
X37600Y68425D02*
D03*
X53200Y67320D02*
D03*
X47725Y76300D02*
D03*
X33550Y65000D02*
D03*
X30200Y65025D02*
D03*
X30175Y65800D02*
D03*
X31475Y66450D02*
D03*
X47750Y69925D02*
D03*
X38025Y70650D02*
D03*
X37550Y70875D02*
D03*
X39275Y69300D02*
D03*
X39325Y71425D02*
D03*
X38850Y68950D02*
D03*
X53450Y64225D02*
D03*
X36600Y68050D02*
D03*
X53450Y65025D02*
D03*
X38375Y71425D02*
D03*
X33825Y79400D02*
D03*
X33325D02*
D03*
X33625Y56525D02*
D03*
X59425Y79400D02*
D03*
X59925D02*
D03*
X59450Y56600D02*
D03*
X59950D02*
D03*
X30175Y69050D02*
D03*
Y67750D02*
D03*
Y67100D02*
D03*
X28850Y66450D02*
D03*
X30175D02*
D03*
X28850Y67750D02*
D03*
X27400Y71150D02*
D03*
X28200Y70350D02*
D03*
X31475Y67750D02*
D03*
X28850Y68400D02*
D03*
X31975Y62600D02*
D03*
X25150Y69575D02*
D03*
X25575Y72675D02*
D03*
X25675Y63300D02*
D03*
X28000Y62375D02*
D03*
X33550Y68725D02*
D03*
X35825Y68175D02*
D03*
X29500Y70350D02*
D03*
X28850D02*
D03*
X27350Y69900D02*
D03*
X27900Y71150D02*
D03*
X33775Y60575D02*
D03*
X27475Y65500D02*
D03*
X29800Y71150D02*
D03*
X28400D02*
D03*
X30300D02*
D03*
X27500Y67400D02*
D03*
X27400Y67900D02*
D03*
X27350Y69400D02*
D03*
X27600Y68400D02*
D03*
X27400Y68900D02*
D03*
X28200Y69650D02*
D03*
X29300Y71150D02*
D03*
X34125Y56500D02*
D03*
X32975Y65000D02*
D03*
X31200Y60975D02*
D03*
X32725Y61375D02*
D03*
X32775Y67100D02*
D03*
X32475Y71050D02*
D03*
X33200Y71150D02*
D03*
X33550Y70725D02*
D03*
X32775Y69675D02*
D03*
Y68400D02*
D03*
X33125Y81100D02*
D03*
X27650Y89450D02*
D03*
X30075Y88475D02*
D03*
X27750Y88425D02*
D03*
X30150Y91450D02*
D03*
X29675Y85925D02*
D03*
X28900D02*
D03*
X36500Y85650D02*
D03*
X30075Y86975D02*
D03*
X28900D02*
D03*
X21500Y84300D02*
D03*
X21500Y87800D02*
D03*
X30000Y89575D02*
D03*
X48250Y69925D02*
D03*
X29400Y83450D02*
D03*
X28525Y73250D02*
D03*
X29750Y75475D02*
D03*
X30200Y77025D02*
D03*
X27900Y74375D02*
D03*
X28875Y74000D02*
D03*
X16600Y77350D02*
D03*
Y76800D02*
D03*
X16150Y75300D02*
D03*
X18350Y75925D02*
D03*
X18125Y83325D02*
D03*
X19300Y67875D02*
D03*
X28850Y69650D02*
D03*
X37000Y82950D02*
D03*
D23*
X31450Y69563D02*
Y69700D01*
X31900Y69100D02*
Y69113D01*
X31450Y69563D02*
X31900Y69113D01*
X32225Y69000D02*
Y69137D01*
X31802Y69560D02*
X32225Y69137D01*
X31802Y69560D02*
Y69948D01*
D24*
X16100Y92700D02*
X26625D01*
X14725Y91325D02*
X16100Y92700D01*
X14725Y88500D02*
Y91325D01*
X11725Y77100D02*
X12125D01*
X9788Y79037D02*
X11725Y77100D01*
X8425Y80400D02*
X9788Y79037D01*
X18625Y84300D02*
X19575Y83350D01*
X14950Y86925D02*
X16900D01*
X18275Y85550D01*
X14425Y87450D02*
X14950Y86925D01*
X14425Y87450D02*
Y88200D01*
X14725Y88500D01*
X18275Y85550D02*
X18850Y84975D01*
X26625Y92700D02*
X29750Y89575D01*
X20725Y72975D02*
X21175Y73425D01*
X23250Y65050D02*
X23700Y65500D01*
X24725Y61725D02*
X29525D01*
X32475Y64675D01*
Y65000D01*
X29750Y89575D02*
X30000D01*
X18850Y84975D02*
X19175D01*
X15600Y78050D02*
X19575Y82025D01*
Y83350D01*
X19175Y84975D02*
X20450Y83700D01*
X20225Y81539D02*
Y81911D01*
X20450Y82136D01*
Y83700D01*
X16600Y77914D02*
X20225Y81539D01*
X16600Y77350D02*
Y77914D01*
X7550Y76550D02*
Y80625D01*
X9525Y82600D01*
X15525Y68575D02*
X16225Y67875D01*
X15525Y68575D02*
Y68578D01*
X15203Y68900D02*
X15525Y68578D01*
X15200Y68900D02*
X15203D01*
X7550Y76550D02*
X15200Y68900D01*
X16225Y67875D02*
X19300D01*
X20525Y65925D02*
Y67625D01*
X15600Y72550D02*
X20525Y67625D01*
Y65925D02*
X24725Y61725D01*
X15600Y72550D02*
Y78050D01*
D25*
X28950Y65025D02*
X28975Y65050D01*
X29200Y65400D02*
X30525D01*
X30200Y65775D02*
X30225D01*
D26*
X23350Y64025D02*
X24675D01*
X21400Y65975D02*
X23350Y64025D01*
X16150Y72950D02*
Y75300D01*
Y72950D02*
X21400Y67700D01*
Y65975D02*
Y67700D01*
D29*
X28975Y65025D02*
Y65050D01*
X30163Y66438D02*
X30200Y66400D01*
X28900Y67700D02*
X30163Y66438D01*
X31802Y69948D02*
X31975Y70120D01*
X29200Y65400D02*
X30200Y66400D01*
X28975Y65175D02*
X29200Y65400D01*
X21650Y88275D02*
X26000Y83925D01*
X15400Y88275D02*
X21650D01*
X14925Y87800D02*
X15400Y88275D01*
X10800Y88100D02*
X13025D01*
X9575Y86875D02*
X10800Y88100D01*
X30200Y66400D02*
X30250Y66350D01*
X28975Y65050D02*
Y65175D01*
X8000Y86875D02*
X9575D01*
X7825Y87050D02*
X8000Y86875D01*
X7825Y87050D02*
Y92275D01*
X30525Y65425D02*
X30730Y65630D01*
X31975Y70120D02*
Y71150D01*
X30730Y65630D02*
X31805D01*
X32225Y66050D02*
Y69000D01*
X31805Y65630D02*
X32225Y66050D01*
X31900Y66250D02*
Y69100D01*
X31625Y65975D02*
X31900Y66250D01*
X30425Y65975D02*
X31625D01*
X30225Y65775D02*
X30425Y65975D01*
X7825Y92275D02*
X11500Y95950D01*
X30700D01*
X36888Y89762D01*
Y84188D02*
Y89762D01*
X39525Y80525D02*
Y81550D01*
X36888Y84188D02*
X39525Y81550D01*
X26000Y72125D02*
X26450Y71675D01*
X26000Y72125D02*
Y83925D01*
D37*
X22800Y89350D02*
D03*
X64400Y1425D02*
D03*
X3650Y26550D02*
D03*
X21075Y2425D02*
D03*
X21250Y104175D02*
D03*
X26800Y115375D02*
D03*
X9650Y110500D02*
D03*
X3875Y115700D02*
D03*
X56575Y26425D02*
D03*
X82625Y27975D02*
D03*
X44125Y4175D02*
D03*
X3100Y5150D02*
D03*
X49150Y82200D02*
D03*
X44800Y82050D02*
D03*
X54750Y82075D02*
D03*
X24750Y96475D02*
D03*
X78850Y76925D02*
D03*
X77800Y94450D02*
D03*
X77925Y86425D02*
D03*
X65000Y78725D02*
D03*
X63500Y81900D02*
D03*
X64950Y86775D02*
D03*
X58950Y82000D02*
D03*
X64150Y94525D02*
D03*
X40400Y94900D02*
D03*
X7775Y104275D02*
D03*
X19925Y89075D02*
D03*
X31650Y96425D02*
D03*
X18500Y96475D02*
D03*
X13350Y96500D02*
D03*
X6900Y96000D02*
D03*
X3425Y92950D02*
D03*
X4300Y85825D02*
D03*
X4400Y73375D02*
D03*
X8550Y73150D02*
D03*
X13250D02*
D03*
X17700Y72600D02*
D03*
X14975Y68350D02*
D03*
X15475Y63925D02*
D03*
X16600Y59050D02*
D03*
X26100D02*
D03*
X31475D02*
D03*
X40600Y103600D02*
D03*
X40675Y111425D02*
D03*
X51150Y111950D02*
D03*
X64125Y112025D02*
D03*
X76950Y112250D02*
D03*
X51225Y103675D02*
D03*
X64200Y103525D02*
D03*
X77175Y103450D02*
D03*
X51075Y94650D02*
D03*
X77175Y66025D02*
D03*
X77400Y54650D02*
D03*
X77475Y46825D02*
D03*
X64500Y46225D02*
D03*
X51075Y46375D02*
D03*
X40450Y46150D02*
D03*
X15375Y44500D02*
D03*
X26075Y44300D02*
D03*
X4575Y43700D02*
D03*
X5675Y52800D02*
D03*
X6175Y61075D02*
D03*
X6475Y67750D02*
D03*
X64400Y57275D02*
D03*
X64625Y67225D02*
D03*
X25050Y82925D02*
D03*
Y78200D02*
D03*
X1550Y96950D02*
D03*
X15350Y52750D02*
D03*
X26200Y52650D02*
D03*
X15850Y26325D02*
D03*
X25975D02*
D03*
X40275Y26275D02*
D03*
X70050Y26425D02*
D03*
M02*
