G04 Layer_Color=2752767*
%FSLAX43Y43*%
%MOMM*%
G71*
G01*
G75*
%ADD54C,0.051*%
%ADD55C,0.068*%
D54*
X29972Y68197D02*
Y68603D01*
X30378D01*
Y68197D01*
X29972D01*
X31272Y68847D02*
Y69253D01*
X31678D01*
Y68847D01*
X31272D01*
Y70147D02*
Y70553D01*
X31678D01*
Y70147D01*
X31272D01*
X14722Y87597D02*
Y88003D01*
X15128D01*
Y87597D01*
X14722D01*
X16347Y91497D02*
Y91903D01*
X16753D01*
Y91497D01*
X16347D01*
Y91997D02*
Y92403D01*
X16753D01*
Y91997D01*
X16347D01*
X12447Y92772D02*
Y93178D01*
X12853D01*
Y92772D01*
X12447D01*
X13072Y92172D02*
Y92578D01*
X13478D01*
Y92172D01*
X13072D01*
X8847Y87372D02*
Y87778D01*
X9253D01*
Y87372D01*
X8847D01*
X13472Y76547D02*
Y76953D01*
X13878D01*
Y76547D01*
X13472D01*
X20547Y84072D02*
Y84478D01*
X20953D01*
Y84072D01*
X20547D01*
X20472Y81522D02*
Y81928D01*
X20878D01*
Y81522D01*
X20472D01*
X8222Y78172D02*
Y78578D01*
X8628D01*
Y78172D01*
X8222D01*
X13472Y77097D02*
Y77503D01*
X13878D01*
Y77097D01*
X13472D01*
X15122Y80897D02*
Y81303D01*
X15528D01*
Y80897D01*
X15122D01*
X18422Y84097D02*
Y84503D01*
X18828D01*
Y84097D01*
X18422D01*
X18072Y85347D02*
Y85753D01*
X18478D01*
Y85347D01*
X18072D01*
X12822Y87897D02*
Y88303D01*
X13228D01*
Y87897D01*
X12822D01*
X8222Y80197D02*
Y80603D01*
X8628D01*
Y80197D01*
X8222D01*
X10222Y80397D02*
Y80803D01*
X10628D01*
Y80397D01*
X10222D01*
X10122Y77547D02*
Y77953D01*
X10528D01*
Y77547D01*
X10122D01*
X18922Y82197D02*
Y82603D01*
X19328D01*
Y82197D01*
X18922D01*
X13922Y80497D02*
Y80903D01*
X14328D01*
Y80497D01*
X13922D01*
X9322Y82397D02*
Y82803D01*
X9728D01*
Y82397D01*
X9322D01*
Y83297D02*
Y83703D01*
X9728D01*
Y83297D01*
X9322D01*
X13322Y80597D02*
Y81003D01*
X13728D01*
Y80597D01*
X13322D01*
X11922Y76897D02*
Y77303D01*
X12328D01*
Y76897D01*
X11922D01*
X13322Y88397D02*
Y88803D01*
X13728D01*
Y88397D01*
X13322D01*
X13172Y91172D02*
Y91578D01*
X13578D01*
Y91172D01*
X13172D01*
X13772D02*
Y91578D01*
X14178D01*
Y91172D01*
X13772D01*
X13672Y91922D02*
Y92328D01*
X14078D01*
Y91922D01*
X13672D01*
X8822Y90047D02*
Y90453D01*
X9228D01*
Y90047D01*
X8822D01*
X10122D02*
Y90453D01*
X10528D01*
Y90047D01*
X10122D01*
X10622Y87197D02*
Y87603D01*
X11028D01*
Y87197D01*
X10622D01*
X10372Y91422D02*
Y91828D01*
X10778D01*
Y91422D01*
X10372D01*
Y92172D02*
Y92578D01*
X10778D01*
Y92172D01*
X10372D01*
X13222Y77697D02*
Y78103D01*
X13628D01*
Y77697D01*
X13222D01*
X13722D02*
Y78103D01*
X14128D01*
Y77697D01*
X13722D01*
X19972Y85747D02*
Y86153D01*
X20378D01*
Y85747D01*
X19972D01*
X15847Y83147D02*
Y83553D01*
X16253D01*
Y83147D01*
X15847D01*
Y84372D02*
Y84778D01*
X16253D01*
Y84372D01*
X15847D01*
Y85547D02*
Y85953D01*
X16253D01*
Y85547D01*
X15847D01*
X14097Y83147D02*
Y83553D01*
X14503D01*
Y83147D01*
X14097D01*
Y84372D02*
Y84778D01*
X14503D01*
Y84372D01*
X14097D01*
Y85547D02*
Y85953D01*
X14503D01*
Y85547D01*
X14097D01*
X12397Y83147D02*
Y83553D01*
X12803D01*
Y83147D01*
X12397D01*
X12372Y84347D02*
Y84753D01*
X12778D01*
Y84347D01*
X12372D01*
X12397Y85547D02*
Y85953D01*
X12803D01*
Y85547D01*
X12397D01*
X28197Y76597D02*
Y77003D01*
X28603D01*
Y76597D01*
X28197D01*
X31647Y83247D02*
Y83653D01*
X32053D01*
Y83247D01*
X31647D01*
X28847Y83722D02*
Y84128D01*
X29253D01*
Y83722D01*
X28847D01*
X28472Y91272D02*
Y91678D01*
X28878D01*
Y91272D01*
X28472D01*
X21797Y86597D02*
Y87003D01*
X22203D01*
Y86597D01*
X21797D01*
Y84097D02*
Y84503D01*
X22203D01*
Y84097D01*
X21797D01*
X23047Y64847D02*
Y65253D01*
X23453D01*
Y64847D01*
X23047D01*
X24397Y66972D02*
Y67378D01*
X24803D01*
Y66972D01*
X24397D01*
X31772Y70947D02*
Y71353D01*
X32178D01*
Y70947D01*
X31772D01*
X20972Y73222D02*
Y73628D01*
X21378D01*
Y73222D01*
X20972D01*
X82547Y4522D02*
Y4928D01*
X82953D01*
Y4522D01*
X82547D01*
X33347Y70022D02*
Y70428D01*
X33753D01*
Y70022D01*
X33347D01*
X31247Y69497D02*
Y69903D01*
X31653D01*
Y69497D01*
X31247D01*
X49647Y76247D02*
Y76653D01*
X50053D01*
Y76247D01*
X49647D01*
X39872Y71222D02*
Y71628D01*
X40278D01*
Y71222D01*
X39872D01*
X36497Y65222D02*
Y65628D01*
X36903D01*
Y65222D01*
X36497D01*
X36097Y65522D02*
Y65928D01*
X36503D01*
Y65522D01*
X36097D01*
X37922Y65247D02*
Y65653D01*
X38328D01*
Y65247D01*
X37922D01*
X36397Y67347D02*
Y67753D01*
X36803D01*
Y67347D01*
X36397D01*
X38922Y66822D02*
Y67228D01*
X39328D01*
Y66822D01*
X38922D01*
X37197Y65297D02*
Y65703D01*
X37603D01*
Y65297D01*
X37197D01*
X38597Y70672D02*
Y71078D01*
X39003D01*
Y70672D01*
X38597D01*
X48447Y62147D02*
Y62553D01*
X48853D01*
Y62147D01*
X48447D01*
X38772Y65947D02*
Y66353D01*
X39178D01*
Y65947D01*
X38772D01*
X47547Y64422D02*
Y64828D01*
X47953D01*
Y64422D01*
X47547D01*
X51647Y64022D02*
Y64428D01*
X52053D01*
Y64022D01*
X51647D01*
X59797Y69697D02*
Y70103D01*
X60203D01*
Y69697D01*
X59797D01*
X35047Y72672D02*
Y73078D01*
X35453D01*
Y72672D01*
X35047D01*
X59047Y69722D02*
Y70128D01*
X59453D01*
Y69722D01*
X59047D01*
X58322D02*
Y70128D01*
X58728D01*
Y69722D01*
X58322D01*
X57572D02*
Y70128D01*
X57978D01*
Y69722D01*
X57572D01*
X54447Y69722D02*
Y70128D01*
X54853D01*
Y69722D01*
X54447D01*
X48847Y60197D02*
Y60603D01*
X49253D01*
Y60197D01*
X48847D01*
X53072Y59397D02*
Y59803D01*
X53478D01*
Y59397D01*
X53072D01*
X59147Y61492D02*
Y61898D01*
X59553D01*
Y61492D01*
X59147D01*
X58457D02*
Y61898D01*
X58863D01*
Y61492D01*
X58457D01*
X51672Y61647D02*
Y62053D01*
X52078D01*
Y61647D01*
X51672D01*
X52447Y64022D02*
Y64428D01*
X52853D01*
Y64022D01*
X52447D01*
X50047Y64022D02*
Y64428D01*
X50453D01*
Y64022D01*
X50047D01*
X50847D02*
Y64428D01*
X51253D01*
Y64022D01*
X50847D01*
X53647Y67122D02*
Y67528D01*
X54053D01*
Y67122D01*
X53647D01*
X50047Y68022D02*
Y68428D01*
X50453D01*
Y68022D01*
X50047D01*
Y68822D02*
Y69228D01*
X50453D01*
Y68822D01*
X50047D01*
X48447D02*
Y69228D01*
X48853D01*
Y68822D01*
X48447D01*
X47522Y68697D02*
Y69103D01*
X47928D01*
Y68697D01*
X47522D01*
X47672Y62147D02*
Y62553D01*
X48078D01*
Y62147D01*
X47672D01*
X49647Y69722D02*
Y70128D01*
X50053D01*
Y69722D01*
X49647D01*
X50447D02*
Y70128D01*
X50853D01*
Y69722D01*
X50447D01*
X55247Y62322D02*
Y62728D01*
X55653D01*
Y62322D01*
X55247D01*
X53247Y63222D02*
Y63628D01*
X53653D01*
Y63222D01*
X53247D01*
X48852Y69722D02*
Y70128D01*
X49258D01*
Y69722D01*
X48852D01*
X47297Y63947D02*
Y64353D01*
X47703D01*
Y63947D01*
X47297D01*
X55247Y69722D02*
Y70128D01*
X55653D01*
Y69722D01*
X55247D01*
X56047D02*
Y70128D01*
X56453D01*
Y69722D01*
X56047D01*
X54847Y64822D02*
Y65228D01*
X55253D01*
Y64822D01*
X54847D01*
X56822Y69722D02*
Y70128D01*
X57228D01*
Y69722D01*
X56822D01*
X49247Y68822D02*
Y69228D01*
X49653D01*
Y68822D01*
X49247D01*
X57247Y63222D02*
Y63628D01*
X57653D01*
Y63222D01*
X57247D01*
X51247Y69722D02*
Y70128D01*
X51653D01*
Y69722D01*
X51247D01*
X56047Y62322D02*
Y62728D01*
X56453D01*
Y62322D01*
X56047D01*
X58847Y68022D02*
Y68428D01*
X59253D01*
Y68022D01*
X58847D01*
X49647Y61747D02*
Y62153D01*
X50053D01*
Y61747D01*
X49647D01*
X48847Y61497D02*
Y61903D01*
X49253D01*
Y61497D01*
X48847D01*
X59647Y67222D02*
Y67628D01*
X60053D01*
Y67222D01*
X59647D01*
X54047Y64022D02*
Y64428D01*
X54453D01*
Y64022D01*
X54047D01*
X48047Y61497D02*
Y61903D01*
X48453D01*
Y61497D01*
X48047D01*
X49247Y62147D02*
Y62553D01*
X49653D01*
Y62147D01*
X49247D01*
X52447Y62522D02*
Y62928D01*
X52853D01*
Y62522D01*
X52447D01*
X50447Y61747D02*
Y62153D01*
X50853D01*
Y61747D01*
X50447D01*
X50047Y62472D02*
Y62878D01*
X50453D01*
Y62472D01*
X50047D01*
X54447Y62322D02*
Y62728D01*
X54853D01*
Y62322D01*
X54447D01*
X57247Y62422D02*
Y62828D01*
X57653D01*
Y62422D01*
X57247D01*
X52447Y68022D02*
Y68428D01*
X52853D01*
Y68022D01*
X52447D01*
X52347Y67122D02*
Y67528D01*
X52753D01*
Y67122D01*
X52347D01*
X52447Y68822D02*
Y69228D01*
X52853D01*
Y68822D01*
X52447D01*
X51647Y68022D02*
Y68428D01*
X52053D01*
Y68022D01*
X51647D01*
Y68822D02*
Y69228D01*
X52053D01*
Y68822D01*
X51647D01*
X50847Y68022D02*
Y68428D01*
X51253D01*
Y68022D01*
X50847D01*
Y68822D02*
Y69228D01*
X51253D01*
Y68822D01*
X50847D01*
X28647Y66897D02*
Y67303D01*
X29053D01*
Y66897D01*
X28647D01*
Y68847D02*
Y69253D01*
X29053D01*
Y68847D01*
X28647D01*
X27997Y65547D02*
Y65953D01*
X28403D01*
Y65547D01*
X27997D01*
X28747Y64822D02*
Y65228D01*
X29153D01*
Y64822D01*
X28747D01*
X29947Y70147D02*
Y70553D01*
X30353D01*
Y70147D01*
X29947D01*
X29972Y69497D02*
Y69903D01*
X30378D01*
Y69497D01*
X29972D01*
X32272Y64797D02*
Y65203D01*
X32678D01*
Y64797D01*
X32272D01*
X31772D02*
Y65203D01*
X32178D01*
Y64797D01*
X31772D01*
X31272D02*
Y65203D01*
X31678D01*
Y64797D01*
X31272D01*
X33347Y65297D02*
Y65703D01*
X33753D01*
Y65297D01*
X33347D01*
Y65797D02*
Y66203D01*
X33753D01*
Y65797D01*
X33347D01*
Y66297D02*
Y66703D01*
X33753D01*
Y66297D01*
X33347D01*
X31272Y68197D02*
Y68603D01*
X31678D01*
Y68197D01*
X31272D01*
X33347Y67822D02*
Y68228D01*
X33753D01*
Y67822D01*
X33347D01*
Y67322D02*
Y67728D01*
X33753D01*
Y67322D01*
X33347D01*
Y69522D02*
Y69928D01*
X33753D01*
Y69522D01*
X33347D01*
X31947Y69497D02*
Y69903D01*
X32353D01*
Y69497D01*
X31947D01*
X33172Y66822D02*
Y67228D01*
X33578D01*
Y66822D01*
X33172D01*
X28247Y64797D02*
Y65203D01*
X28653D01*
Y64797D01*
X28247D01*
X27197D02*
Y65203D01*
X27603D01*
Y64797D01*
X27197D01*
Y66197D02*
Y66603D01*
X27603D01*
Y66197D01*
X27197D01*
X31297Y70747D02*
Y71153D01*
X31703D01*
Y70747D01*
X31297D01*
X31272Y66897D02*
Y67303D01*
X31678D01*
Y66897D01*
X31272D01*
X27197Y66697D02*
Y67103D01*
X27603D01*
Y66697D01*
X27197D01*
X27747Y64797D02*
Y65203D01*
X28153D01*
Y64797D01*
X27747D01*
X28647Y65597D02*
Y66003D01*
X29053D01*
Y65597D01*
X28647D01*
X33347Y69022D02*
Y69428D01*
X33753D01*
Y69022D01*
X33347D01*
X53247Y68822D02*
Y69228D01*
X53653D01*
Y68822D01*
X53247D01*
Y68022D02*
Y68428D01*
X53653D01*
Y68022D01*
X53247D01*
X60622Y63897D02*
Y64303D01*
X61028D01*
Y63897D01*
X60622D01*
X39947Y70672D02*
Y71078D01*
X40353D01*
Y70672D01*
X39947D01*
X39822Y69922D02*
Y70328D01*
X40228D01*
Y69922D01*
X39822D01*
X37997Y68147D02*
Y68553D01*
X38403D01*
Y68147D01*
X37997D01*
X39447Y66872D02*
Y67278D01*
X39853D01*
Y66872D01*
X39447D01*
X38272Y65947D02*
Y66353D01*
X38678D01*
Y65947D01*
X38272D01*
X34997Y62997D02*
Y63403D01*
X35403D01*
Y62997D01*
X34997D01*
X35397Y65272D02*
Y65678D01*
X35803D01*
Y65272D01*
X35397D01*
X39272Y65947D02*
Y66353D01*
X39678D01*
Y65947D01*
X39272D01*
X37397Y68222D02*
Y68628D01*
X37803D01*
Y68222D01*
X37397D01*
X52997Y67117D02*
Y67523D01*
X53403D01*
Y67117D01*
X52997D01*
X47522Y76097D02*
Y76503D01*
X47928D01*
Y76097D01*
X47522D01*
X33347Y64797D02*
Y65203D01*
X33753D01*
Y64797D01*
X33347D01*
X29997Y64822D02*
Y65228D01*
X30403D01*
Y64822D01*
X29997D01*
X29972Y65597D02*
Y66003D01*
X30378D01*
Y65597D01*
X29972D01*
X31272Y66247D02*
Y66653D01*
X31678D01*
Y66247D01*
X31272D01*
X47547Y69722D02*
Y70128D01*
X47953D01*
Y69722D01*
X47547D01*
X37822Y70447D02*
Y70853D01*
X38228D01*
Y70447D01*
X37822D01*
X37347Y70672D02*
Y71078D01*
X37753D01*
Y70672D01*
X37347D01*
X39072Y69097D02*
Y69503D01*
X39478D01*
Y69097D01*
X39072D01*
X39122Y71222D02*
Y71628D01*
X39528D01*
Y71222D01*
X39122D01*
X38647Y68747D02*
Y69153D01*
X39053D01*
Y68747D01*
X38647D01*
X53247Y64022D02*
Y64428D01*
X53653D01*
Y64022D01*
X53247D01*
X36397Y67847D02*
Y68253D01*
X36803D01*
Y67847D01*
X36397D01*
X53247Y64822D02*
Y65228D01*
X53653D01*
Y64822D01*
X53247D01*
X38172Y71222D02*
Y71628D01*
X38578D01*
Y71222D01*
X38172D01*
X33622Y79197D02*
Y79603D01*
X34028D01*
Y79197D01*
X33622D01*
X33122D02*
Y79603D01*
X33528D01*
Y79197D01*
X33122D01*
X33422Y56322D02*
Y56728D01*
X33828D01*
Y56322D01*
X33422D01*
X59222Y79197D02*
Y79603D01*
X59628D01*
Y79197D01*
X59222D01*
X59722D02*
Y79603D01*
X60128D01*
Y79197D01*
X59722D01*
X59247Y56397D02*
Y56803D01*
X59653D01*
Y56397D01*
X59247D01*
X59747D02*
Y56803D01*
X60153D01*
Y56397D01*
X59747D01*
X29972Y68847D02*
Y69253D01*
X30378D01*
Y68847D01*
X29972D01*
Y67547D02*
Y67953D01*
X30378D01*
Y67547D01*
X29972D01*
Y66897D02*
Y67303D01*
X30378D01*
Y66897D01*
X29972D01*
X28647Y66247D02*
Y66653D01*
X29053D01*
Y66247D01*
X28647D01*
X29972D02*
Y66653D01*
X30378D01*
Y66247D01*
X29972D01*
X28647Y67547D02*
Y67953D01*
X29053D01*
Y67547D01*
X28647D01*
X27197Y70947D02*
Y71353D01*
X27603D01*
Y70947D01*
X27197D01*
X27997Y70147D02*
Y70553D01*
X28403D01*
Y70147D01*
X27997D01*
X31272Y67547D02*
Y67953D01*
X31678D01*
Y67547D01*
X31272D01*
X28647Y68197D02*
Y68603D01*
X29053D01*
Y68197D01*
X28647D01*
X31772Y62397D02*
Y62803D01*
X32178D01*
Y62397D01*
X31772D01*
X24947Y69372D02*
Y69778D01*
X25353D01*
Y69372D01*
X24947D01*
X25372Y72472D02*
Y72878D01*
X25778D01*
Y72472D01*
X25372D01*
X25472Y63097D02*
Y63503D01*
X25878D01*
Y63097D01*
X25472D01*
X27797Y62172D02*
Y62578D01*
X28203D01*
Y62172D01*
X27797D01*
X33347Y68522D02*
Y68928D01*
X33753D01*
Y68522D01*
X33347D01*
X35622Y67972D02*
Y68378D01*
X36028D01*
Y67972D01*
X35622D01*
X29297Y70147D02*
Y70553D01*
X29703D01*
Y70147D01*
X29297D01*
X28647D02*
Y70553D01*
X29053D01*
Y70147D01*
X28647D01*
X27147Y69697D02*
Y70103D01*
X27553D01*
Y69697D01*
X27147D01*
X27697Y70947D02*
Y71353D01*
X28103D01*
Y70947D01*
X27697D01*
X33572Y60372D02*
Y60778D01*
X33978D01*
Y60372D01*
X33572D01*
X27272Y65297D02*
Y65703D01*
X27678D01*
Y65297D01*
X27272D01*
X29597Y70947D02*
Y71353D01*
X30003D01*
Y70947D01*
X29597D01*
X28197D02*
Y71353D01*
X28603D01*
Y70947D01*
X28197D01*
X30097D02*
Y71353D01*
X30503D01*
Y70947D01*
X30097D01*
X27297Y67197D02*
Y67603D01*
X27703D01*
Y67197D01*
X27297D01*
X27197Y67697D02*
Y68103D01*
X27603D01*
Y67697D01*
X27197D01*
X27147Y69197D02*
Y69603D01*
X27553D01*
Y69197D01*
X27147D01*
X27397Y68197D02*
Y68603D01*
X27803D01*
Y68197D01*
X27397D01*
X27197Y68697D02*
Y69103D01*
X27603D01*
Y68697D01*
X27197D01*
X27997Y69447D02*
Y69853D01*
X28403D01*
Y69447D01*
X27997D01*
X29097Y70947D02*
Y71353D01*
X29503D01*
Y70947D01*
X29097D01*
X33922Y56297D02*
Y56703D01*
X34328D01*
Y56297D01*
X33922D01*
X32772Y64797D02*
Y65203D01*
X33178D01*
Y64797D01*
X32772D01*
X30997Y60772D02*
Y61178D01*
X31403D01*
Y60772D01*
X30997D01*
X32522Y61172D02*
Y61578D01*
X32928D01*
Y61172D01*
X32522D01*
X32572Y66897D02*
Y67303D01*
X32978D01*
Y66897D01*
X32572D01*
X32272Y70847D02*
Y71253D01*
X32678D01*
Y70847D01*
X32272D01*
X32997Y70947D02*
Y71353D01*
X33403D01*
Y70947D01*
X32997D01*
X33347Y70522D02*
Y70928D01*
X33753D01*
Y70522D01*
X33347D01*
X32572Y69472D02*
Y69878D01*
X32978D01*
Y69472D01*
X32572D01*
Y68197D02*
Y68603D01*
X32978D01*
Y68197D01*
X32572D01*
X32922Y80897D02*
Y81303D01*
X33328D01*
Y80897D01*
X32922D01*
X27447Y89247D02*
Y89653D01*
X27853D01*
Y89247D01*
X27447D01*
X29872Y88272D02*
Y88678D01*
X30278D01*
Y88272D01*
X29872D01*
X27547Y88222D02*
Y88628D01*
X27953D01*
Y88222D01*
X27547D01*
X29947Y91247D02*
Y91653D01*
X30353D01*
Y91247D01*
X29947D01*
X29472Y85722D02*
Y86128D01*
X29878D01*
Y85722D01*
X29472D01*
X28697D02*
Y86128D01*
X29103D01*
Y85722D01*
X28697D01*
X36297Y85447D02*
Y85853D01*
X36703D01*
Y85447D01*
X36297D01*
X29872Y86772D02*
Y87178D01*
X30278D01*
Y86772D01*
X29872D01*
X28697D02*
Y87178D01*
X29103D01*
Y86772D01*
X28697D01*
X21297Y84097D02*
Y84503D01*
X21703D01*
Y84097D01*
X21297D01*
X21297Y87597D02*
Y88003D01*
X21703D01*
Y87597D01*
X21297D01*
X29797Y89372D02*
Y89778D01*
X30203D01*
Y89372D01*
X29797D01*
X48047Y69722D02*
Y70128D01*
X48453D01*
Y69722D01*
X48047D01*
X29197Y83247D02*
Y83653D01*
X29603D01*
Y83247D01*
X29197D01*
X28322Y73047D02*
Y73453D01*
X28728D01*
Y73047D01*
X28322D01*
X29547Y75272D02*
Y75678D01*
X29953D01*
Y75272D01*
X29547D01*
X29997Y76822D02*
Y77228D01*
X30403D01*
Y76822D01*
X29997D01*
X27697Y74172D02*
Y74578D01*
X28103D01*
Y74172D01*
X27697D01*
X28672Y73797D02*
Y74203D01*
X29078D01*
Y73797D01*
X28672D01*
X16397Y77147D02*
Y77553D01*
X16803D01*
Y77147D01*
X16397D01*
Y76597D02*
Y77003D01*
X16803D01*
Y76597D01*
X16397D01*
X15947Y75097D02*
Y75503D01*
X16353D01*
Y75097D01*
X15947D01*
X18147Y75722D02*
Y76128D01*
X18553D01*
Y75722D01*
X18147D01*
X17922Y83122D02*
Y83528D01*
X18328D01*
Y83122D01*
X17922D01*
X19097Y67672D02*
Y68078D01*
X19503D01*
Y67672D01*
X19097D01*
X28647Y69447D02*
Y69853D01*
X29053D01*
Y69447D01*
X28647D01*
X36797Y82747D02*
Y83153D01*
X37203D01*
Y82747D01*
X36797D01*
D55*
X23003Y89350D02*
G03*
X23003Y89350I-203J0D01*
G01*
X64603Y1425D02*
G03*
X64603Y1425I-203J0D01*
G01*
X3853Y26550D02*
G03*
X3853Y26550I-203J0D01*
G01*
X21278Y2425D02*
G03*
X21278Y2425I-203J0D01*
G01*
X21453Y104175D02*
G03*
X21453Y104175I-203J0D01*
G01*
X27003Y115375D02*
G03*
X27003Y115375I-203J0D01*
G01*
X9853Y110500D02*
G03*
X9853Y110500I-203J0D01*
G01*
X4078Y115700D02*
G03*
X4078Y115700I-203J0D01*
G01*
X56778Y26425D02*
G03*
X56778Y26425I-203J0D01*
G01*
X82828Y27975D02*
G03*
X82828Y27975I-203J0D01*
G01*
X44328Y4175D02*
G03*
X44328Y4175I-203J0D01*
G01*
X3303Y5150D02*
G03*
X3303Y5150I-203J0D01*
G01*
X49353Y82200D02*
G03*
X49353Y82200I-203J0D01*
G01*
X45003Y82050D02*
G03*
X45003Y82050I-203J0D01*
G01*
X54953Y82075D02*
G03*
X54953Y82075I-203J0D01*
G01*
X24953Y96475D02*
G03*
X24953Y96475I-203J0D01*
G01*
X79053Y76925D02*
G03*
X79053Y76925I-203J0D01*
G01*
X78003Y94450D02*
G03*
X78003Y94450I-203J0D01*
G01*
X78128Y86425D02*
G03*
X78128Y86425I-203J0D01*
G01*
X65203Y78725D02*
G03*
X65203Y78725I-203J0D01*
G01*
X63703Y81900D02*
G03*
X63703Y81900I-203J0D01*
G01*
X65153Y86775D02*
G03*
X65153Y86775I-203J0D01*
G01*
X59153Y82000D02*
G03*
X59153Y82000I-203J0D01*
G01*
X64353Y94525D02*
G03*
X64353Y94525I-203J0D01*
G01*
X40603Y94900D02*
G03*
X40603Y94900I-203J0D01*
G01*
X7978Y104275D02*
G03*
X7978Y104275I-203J0D01*
G01*
X20128Y89075D02*
G03*
X20128Y89075I-203J0D01*
G01*
X31853Y96425D02*
G03*
X31853Y96425I-203J0D01*
G01*
X18703Y96475D02*
G03*
X18703Y96475I-203J0D01*
G01*
X13553Y96500D02*
G03*
X13553Y96500I-203J0D01*
G01*
X7103Y96000D02*
G03*
X7103Y96000I-203J0D01*
G01*
X3628Y92950D02*
G03*
X3628Y92950I-203J0D01*
G01*
X4503Y85825D02*
G03*
X4503Y85825I-203J0D01*
G01*
X4603Y73375D02*
G03*
X4603Y73375I-203J0D01*
G01*
X8753Y73150D02*
G03*
X8753Y73150I-203J0D01*
G01*
X13453D02*
G03*
X13453Y73150I-203J0D01*
G01*
X17903Y72600D02*
G03*
X17903Y72600I-203J0D01*
G01*
X15178Y68350D02*
G03*
X15178Y68350I-203J0D01*
G01*
X15678Y63925D02*
G03*
X15678Y63925I-203J0D01*
G01*
X16803Y59050D02*
G03*
X16803Y59050I-203J0D01*
G01*
X26303D02*
G03*
X26303Y59050I-203J0D01*
G01*
X31678D02*
G03*
X31678Y59050I-203J0D01*
G01*
X40803Y103600D02*
G03*
X40803Y103600I-203J0D01*
G01*
X40878Y111425D02*
G03*
X40878Y111425I-203J0D01*
G01*
X51353Y111950D02*
G03*
X51353Y111950I-203J0D01*
G01*
X64328Y112025D02*
G03*
X64328Y112025I-203J0D01*
G01*
X77153Y112250D02*
G03*
X77153Y112250I-203J0D01*
G01*
X51428Y103675D02*
G03*
X51428Y103675I-203J0D01*
G01*
X64403Y103525D02*
G03*
X64403Y103525I-203J0D01*
G01*
X77378Y103450D02*
G03*
X77378Y103450I-203J0D01*
G01*
X51278Y94650D02*
G03*
X51278Y94650I-203J0D01*
G01*
X77378Y66025D02*
G03*
X77378Y66025I-203J0D01*
G01*
X77603Y54650D02*
G03*
X77603Y54650I-203J0D01*
G01*
X77678Y46825D02*
G03*
X77678Y46825I-203J0D01*
G01*
X64703Y46225D02*
G03*
X64703Y46225I-203J0D01*
G01*
X51278Y46375D02*
G03*
X51278Y46375I-203J0D01*
G01*
X40653Y46150D02*
G03*
X40653Y46150I-203J0D01*
G01*
X15578Y44500D02*
G03*
X15578Y44500I-203J0D01*
G01*
X26278Y44300D02*
G03*
X26278Y44300I-203J0D01*
G01*
X4778Y43700D02*
G03*
X4778Y43700I-203J0D01*
G01*
X5878Y52800D02*
G03*
X5878Y52800I-203J0D01*
G01*
X6378Y61075D02*
G03*
X6378Y61075I-203J0D01*
G01*
X6678Y67750D02*
G03*
X6678Y67750I-203J0D01*
G01*
X64603Y57275D02*
G03*
X64603Y57275I-203J0D01*
G01*
X64828Y67225D02*
G03*
X64828Y67225I-203J0D01*
G01*
X25253Y82925D02*
G03*
X25253Y82925I-203J0D01*
G01*
Y78200D02*
G03*
X25253Y78200I-203J0D01*
G01*
X1753Y96950D02*
G03*
X1753Y96950I-203J0D01*
G01*
X15553Y52750D02*
G03*
X15553Y52750I-203J0D01*
G01*
X26403Y52650D02*
G03*
X26403Y52650I-203J0D01*
G01*
X16053Y26325D02*
G03*
X16053Y26325I-203J0D01*
G01*
X26178D02*
G03*
X26178Y26325I-203J0D01*
G01*
X40478Y26275D02*
G03*
X40478Y26275I-203J0D01*
G01*
X70253Y26425D02*
G03*
X70253Y26425I-203J0D01*
G01*
M02*
