M48
;Layer_Color=9474304
;FILE_FORMAT=4:3
METRIC,LZ
;TYPE=PLATED
T1F00S00C0.200
T2F00S00C0.300
%
T01
X008275Y0004725
X0034125Y00565
X0033625Y0056525
X0033775Y0060575
X0032725Y0061375
X00312Y0060975
X0031975Y00626
Y0065
X0032475
X0032975
X003355
Y00655
Y0066
Y00665
X0033375Y0067025
X003355Y0067525
Y0068025
Y0068725
Y0069225
Y0069725
Y0070225
Y0070725
X00332Y007115
X0032475Y007105
X0031975Y007115
X00315Y007095
X0031475Y007035
X003145Y00697
X0031475Y006905
Y00684
Y006775
Y00671
Y006645
X0030175
Y00658
X00302Y0065025
X002895
X002845Y0065
X002795
X00274
X0027475Y00655
X00274Y00664
Y00669
X00275Y00674
X00274Y00679
X00276Y00684
X00274Y00689
X002735Y00694
Y00699
X00282Y006965
X002885
Y006905
Y00684
Y006775
Y00671
Y006645
Y00658
X00282Y006575
X0030175Y00671
Y006775
Y00684
Y006905
Y00697
X003015Y007035
X00295
X002885
X00282
X00284Y007115
X00279
X00274
X00293
X00298
X00303
X003215Y00697
X0032775Y0069675
Y00684
Y00671
X0031475Y0065
X00356Y0065475
X00352Y00632
X0035825Y0068175
X003525Y0072875
X0028525Y007325
X0028875Y0074
X00279Y0074375
X00284Y00768
X00302Y0077025
X002975Y0075475
X0025575Y0072675
X002515Y0069575
X00246Y0067175
X002325Y006505
X0025675Y00633
X0028Y0062375
X00193Y0067875
X0021175Y0073425
X001835Y0075925
X00166Y00768
Y007735
X001615Y00753
X0013675Y007675
Y00773
X0013425Y00779
X0013925
X0012125Y00771
X0010325Y007775
X0008425Y0078375
X0008425Y00804
X0010425Y00806
X0009525Y00826
Y00835
X00126Y008335
X00143
X001605
X0018125Y0083325
X0019125Y00824
X0020675Y0081725
X0015325Y00811
X0014125Y00807
X0013525Y00808
X00294Y008345
X003185
X0033125Y00811
X0033325Y00794
X0033825
X0037Y008295
X003755Y0070875
X0038025Y007065
X00388Y0070875
X0038375Y0071425
X0039325
X0040075
X004015Y0070875
X0040025Y0070125
X0039275Y00693
X003885Y006895
X00382Y006835
X00376Y0068425
X00366Y006805
Y006755
X00363Y0065725
X00367Y0065425
X00374Y00655
X0038125Y006545
X0038475Y006615
X0038975
X0039475
X003965Y0067075
X0039125Y0067025
X0047725Y00689
X004865Y0069025
X004945
X005025
Y0068225
X005105Y0068225
Y0069025
X005185
X005265
Y0068225
X005185
X005255Y0067325
X00532Y006732
X005385Y0067325
X005345Y0068225
Y0069025
X005465Y0069925
X005545Y0069925
X005625
X0057025
X0057775
X0058525
X005925
X006Y00699
X005985Y0067425
X005905Y0068225
X0060825Y00641
X005935Y0061695
X005866
X005745Y0062625
X005745Y0063425
X005625Y0062525
X005545
X005465
X005345Y0063425
X005345Y0064225
X005265Y0064225
X005185
X005105Y0064225
X005025
X005025Y0062675
X005065Y006195
X004985
X004945Y006235
X004865
X0047875
X004825Y00617
X004905
X004905Y00604
X0051875Y006185
X005265Y0062725
X005345Y0065025
X005505
X005425Y0064225
X0053275Y00596
X005945Y00566
X005995
X00475Y006415
X004775Y0064625
Y0069925
X004825Y0069925
X0049055
X004985
X005065
X005145
X004985Y007645
X0047725Y00763
X0059425Y00794
X0059925
X00365Y008565
X0029675Y0085925
X00289
Y0086975
X0030075
Y0088475
X003Y0089575
X003015Y009145
X0028675Y0091475
X002765Y008945
X002775Y0088425
X002905Y0083925
X0022Y00843
X00215
X002075Y0084275
X0018625Y00843
X0018275Y008555
X0020175Y008595
X0022Y00868
X00215Y00878
X0014925Y00878
X0013025Y00881
X0013525Y00886
X0013375Y0091375
X0013975
X0013875Y0092125
X0013275Y0092375
X001265Y0092975
X0010575Y0092375
Y0091625
X0010325Y009025
X0009025
X000905Y0087575
X0010825Y00874
X00126Y008575
X0012575Y008455
X00143Y0084575
Y008575
X001605
Y0084575
X001655Y00917
Y00922
T02
X0021075Y0002425
X0044125Y0004175
X00644Y0001425
X0082625Y0027975
X007005Y0026425
X0056575
X0040275Y0026275
X0025975Y0026325
X001585
X000365Y002655
X0004575Y00437
X00031Y000515
X0005675Y00528
X0006175Y0061075
X0006475Y006775
X000855Y007315
X00044Y0073375
X001325Y007315
X00177Y00726
X0014975Y006835
X0015475Y0063925
X00166Y005905
X001535Y005275
X0015375Y00445
X0026075Y00443
X00262Y005265
X00261Y005905
X0031475
X002505Y00782
Y0082925
X00448Y008205
X004915Y00822
X005475Y0082075
X005895Y0082
X00635Y00819
X0065Y0078725
X0064625Y0067225
X00644Y0057275
X00645Y0046225
X0051075Y0046375
X004045Y004615
X0077475Y0046825
X00774Y005465
X0077175Y0066025
X007885Y0076925
X0077925Y0086425
X00778Y009445
X0077175Y010345
X007695Y011225
X0064125Y0112025
X00642Y0103525
X006415Y0094525
X006495Y0086775
X0051075Y009465
X0051225Y0103675
X005115Y011195
X0040675Y0111425
X00406Y01036
X00404Y00949
X003165Y0096425
X002475Y0096475
X00185Y0096475
X001335Y00965
X00069Y0096
X000155Y009695
X0003425Y009295
X00043Y0085825
X0019925Y0089075
X00228Y008935
X002125Y0104175
X0007775Y0104275
X000965Y01105
X0003875Y01157
X00268Y0115375
M30
