G04 Layer_Physical_Order=3*
G04 Layer_Color=16440176*
%FSLAX43Y43*%
%MOMM*%
G71*
G01*
G75*
%ADD18C,0.400*%
%ADD25C,0.300*%
%ADD26C,0.200*%
%ADD27C,0.175*%
%ADD39C,0.600*%
G36*
X85592Y408D02*
X408D01*
Y119592D01*
X85592D01*
Y408D01*
D02*
G37*
%LPC*%
G36*
X5425Y86681D02*
X5308Y86658D01*
X5209Y86591D01*
X5142Y86492D01*
X5119Y86375D01*
X5142Y86258D01*
X5209Y86159D01*
X5308Y86092D01*
X5425Y86069D01*
X5542Y86092D01*
X5641Y86159D01*
X5708Y86258D01*
X5731Y86375D01*
X5708Y86492D01*
X5641Y86591D01*
X5542Y86658D01*
X5425Y86681D01*
D02*
G37*
G36*
X7100Y81156D02*
X6983Y81133D01*
X6884Y81066D01*
X6817Y80967D01*
X6794Y80850D01*
X6817Y80733D01*
X6884Y80634D01*
X6983Y80567D01*
X7032Y80558D01*
X10220Y77370D01*
X10302Y77315D01*
X10400Y77295D01*
X10641D01*
X10683Y77267D01*
X10800Y77244D01*
X10917Y77267D01*
X11016Y77334D01*
X11083Y77433D01*
X11106Y77550D01*
X11083Y77667D01*
X11016Y77766D01*
X10917Y77833D01*
X10800Y77856D01*
X10683Y77833D01*
X10641Y77805D01*
X10506D01*
X7392Y80918D01*
X7383Y80967D01*
X7316Y81066D01*
X7217Y81133D01*
X7100Y81156D01*
D02*
G37*
G36*
X6525Y88706D02*
X6408Y88683D01*
X6309Y88616D01*
X6242Y88517D01*
X6219Y88400D01*
X6242Y88283D01*
X6309Y88184D01*
X6408Y88117D01*
X6525Y88094D01*
X6642Y88117D01*
X6741Y88184D01*
X6808Y88283D01*
X6831Y88400D01*
X6808Y88517D01*
X6741Y88616D01*
X6642Y88683D01*
X6525Y88706D01*
D02*
G37*
G36*
X33825Y96191D02*
X11300D01*
X11227Y96177D01*
X11165Y96135D01*
X7065Y92035D01*
X7023Y91973D01*
X7009Y91900D01*
Y87575D01*
X7023Y87502D01*
X7065Y87440D01*
X7415Y87090D01*
X7477Y87048D01*
X7550Y87034D01*
X7892D01*
Y83511D01*
X7895Y83504D01*
X7893Y83497D01*
X7910Y83466D01*
X7923Y83434D01*
X7930Y83431D01*
X7934Y83425D01*
X7988Y83383D01*
X7984Y83266D01*
X7917Y83167D01*
X7894Y83050D01*
X7917Y82933D01*
X7984Y82834D01*
X7988Y82717D01*
X7934Y82675D01*
X7930Y82669D01*
X7923Y82666D01*
X7910Y82634D01*
X7893Y82603D01*
X7895Y82596D01*
X7892Y82589D01*
Y80828D01*
X7923Y80751D01*
X7923Y80751D01*
X7935Y80740D01*
X8011Y80708D01*
X11931D01*
X11956Y80718D01*
X11982Y80721D01*
X11993Y80733D01*
X12008Y80740D01*
X12018Y80764D01*
X12035Y80785D01*
X12090Y80966D01*
X12200Y80944D01*
X12310Y80966D01*
X12365Y80785D01*
X12382Y80764D01*
X12392Y80740D01*
X12407Y80733D01*
X12418Y80721D01*
X12444Y80718D01*
X12469Y80708D01*
X15818D01*
X15871Y80581D01*
X14045Y78755D01*
X13990Y78673D01*
X13970Y78575D01*
Y70350D01*
X13990Y70252D01*
X14045Y70170D01*
X17745Y66469D01*
Y55250D01*
X17765Y55152D01*
X17820Y55070D01*
X20320Y52570D01*
X20402Y52515D01*
X20500Y52495D01*
X29750D01*
X29848Y52515D01*
X29930Y52570D01*
X31231Y53870D01*
X34342D01*
Y52771D01*
X34354Y52742D01*
X34360Y52711D01*
X34381Y52680D01*
X34396Y52605D01*
X34381Y52530D01*
X34360Y52499D01*
X34354Y52468D01*
X34342Y52439D01*
Y49175D01*
X34373Y49098D01*
X34450Y49067D01*
X67175Y49067D01*
X67252Y49098D01*
X67283Y49175D01*
Y53165D01*
X67269Y53199D01*
X67260Y53230D01*
X67269Y53261D01*
X67283Y53295D01*
X67283Y78750D01*
X67252Y78827D01*
X67175Y78858D01*
X42326Y78858D01*
X42302Y78848D01*
X42275Y78845D01*
X42265Y78833D01*
X42250Y78827D01*
X42239Y78802D01*
X42223Y78781D01*
X42209Y78737D01*
X42200Y78718D01*
X42130Y78696D01*
X42060Y78718D01*
X42051Y78737D01*
X42037Y78781D01*
X42021Y78802D01*
X42010Y78827D01*
X41995Y78833D01*
X41985Y78845D01*
X41958Y78848D01*
X41934Y78858D01*
X39716D01*
Y90300D01*
X39702Y90373D01*
X39660Y90435D01*
X33960Y96135D01*
X33898Y96177D01*
X33825Y96191D01*
D02*
G37*
%LPD*%
G36*
X17196Y78125D02*
X23750Y68750D01*
X23750Y64592D01*
X23675Y64531D01*
X23558Y64508D01*
X23459Y64441D01*
X23392Y64342D01*
X23369Y64225D01*
X23392Y64108D01*
X23459Y64009D01*
X23558Y63942D01*
X23675Y63919D01*
X23750Y63858D01*
Y63250D01*
X25628D01*
X25704Y63150D01*
X25694Y63100D01*
X25717Y62983D01*
X25784Y62884D01*
X25883Y62817D01*
X26000Y62794D01*
X26117Y62817D01*
X26216Y62884D01*
X26283Y62983D01*
X26306Y63100D01*
X26296Y63150D01*
X26372Y63250D01*
X28828Y63250D01*
X28904Y63150D01*
X28894Y63100D01*
X28917Y62983D01*
X28984Y62884D01*
X29083Y62817D01*
X29200Y62794D01*
X29317Y62817D01*
X29416Y62884D01*
X29483Y62983D01*
X29506Y63100D01*
X29496Y63150D01*
X29572Y63250D01*
X30000D01*
X30000Y60986D01*
X31750Y60986D01*
X31750Y59750D01*
X32139Y59750D01*
X32184Y59684D01*
X32283Y59617D01*
X32400Y59594D01*
X32423Y59599D01*
X32500Y59535D01*
Y58665D01*
X32423Y58601D01*
X32400Y58606D01*
X32283Y58583D01*
X32184Y58516D01*
X32117Y58417D01*
X32094Y58300D01*
X32117Y58183D01*
X32184Y58084D01*
X32283Y58017D01*
X32400Y57994D01*
X32423Y57999D01*
X32500Y57935D01*
X32500Y57065D01*
X32423Y57001D01*
X32400Y57006D01*
X32283Y56983D01*
X32184Y56916D01*
X32117Y56817D01*
X32094Y56700D01*
X32117Y56583D01*
X32184Y56484D01*
X32283Y56417D01*
X32400Y56394D01*
X32423Y56399D01*
X32500Y56335D01*
Y55750D01*
X20000Y55750D01*
X20000Y64367D01*
X14480Y77546D01*
Y78054D01*
X14551Y78125D01*
X17196Y78125D01*
D02*
G37*
G36*
X32714Y58652D02*
X32729Y58650D01*
X32750Y58642D01*
X34246Y58642D01*
Y58084D01*
X33866Y57704D01*
X32608D01*
Y57935D01*
X32606Y57940D01*
X32608Y57946D01*
X32591Y57978D01*
X32577Y58012D01*
X32571Y58014D01*
X32569Y58019D01*
X32491Y58082D01*
X32486Y58084D01*
X32483Y58089D01*
X32447Y58096D01*
X32412Y58106D01*
X32407Y58104D01*
X32402Y58105D01*
X32400Y58104D01*
X32325Y58119D01*
X32262Y58162D01*
X32219Y58225D01*
X32204Y58300D01*
X32219Y58375D01*
X32262Y58438D01*
X32325Y58481D01*
X32400Y58496D01*
X32402Y58495D01*
X32407Y58496D01*
X32412Y58494D01*
X32447Y58504D01*
X32483Y58511D01*
X32486Y58516D01*
X32491Y58518D01*
X32569Y58581D01*
X32571Y58586D01*
X32577Y58588D01*
X32581Y58600D01*
X32648Y58653D01*
X32714Y58652D01*
D02*
G37*
G36*
X33550Y95775D02*
X39000Y90325D01*
X39000Y78750D01*
X41934D01*
X41964Y78650D01*
X41914Y78616D01*
X41847Y78517D01*
X41824Y78400D01*
X41847Y78283D01*
X41914Y78184D01*
X42013Y78117D01*
X42130Y78094D01*
X42247Y78117D01*
X42346Y78184D01*
X42413Y78283D01*
X42436Y78400D01*
X42413Y78517D01*
X42346Y78616D01*
X42296Y78650D01*
X42326Y78750D01*
X67175Y78750D01*
X67175Y53295D01*
X67075Y53285D01*
X67063Y53347D01*
X66996Y53446D01*
X66897Y53513D01*
X66780Y53536D01*
X66663Y53513D01*
X66564Y53446D01*
X66497Y53347D01*
X66474Y53230D01*
X66497Y53113D01*
X66564Y53014D01*
X66663Y52947D01*
X66780Y52924D01*
X66897Y52947D01*
X66996Y53014D01*
X67063Y53113D01*
X67075Y53175D01*
X67175Y53165D01*
Y49175D01*
X34450Y49175D01*
Y52439D01*
X34483Y52488D01*
X34506Y52605D01*
X34483Y52722D01*
X34450Y52771D01*
Y53870D01*
X34792D01*
X34833Y53842D01*
X34950Y53819D01*
X35067Y53842D01*
X35109Y53870D01*
X35191D01*
X35288Y53890D01*
X35371Y53945D01*
X36068Y54642D01*
X36117Y54652D01*
X36216Y54718D01*
X36283Y54817D01*
X36306Y54934D01*
X36283Y55051D01*
X36216Y55151D01*
X36117Y55217D01*
X36000Y55240D01*
X35883Y55217D01*
X35784Y55151D01*
X35717Y55051D01*
X35708Y55002D01*
X35094Y54389D01*
X35067Y54408D01*
X34950Y54431D01*
X34833Y54408D01*
X34792Y54380D01*
X34450D01*
Y56504D01*
X34550Y56534D01*
X34584Y56484D01*
X34683Y56417D01*
X34800Y56394D01*
X34917Y56417D01*
X35016Y56484D01*
X35083Y56583D01*
X35106Y56700D01*
X35083Y56817D01*
X35016Y56916D01*
X34917Y56983D01*
X34800Y57006D01*
X34683Y56983D01*
X34584Y56916D01*
X34550Y56866D01*
X34450Y56896D01*
Y57712D01*
X34594Y57856D01*
X34638Y57922D01*
X34654Y58000D01*
X34654Y58000D01*
Y59475D01*
X34654Y59475D01*
X34638Y59553D01*
X34604Y59605D01*
Y60241D01*
X34669Y60306D01*
X34669Y60306D01*
X34713Y60372D01*
X34729Y60450D01*
X34729Y60450D01*
Y64225D01*
X34729Y64225D01*
X34713Y64303D01*
X34669Y64369D01*
X34669Y64369D01*
X34604Y64434D01*
Y64991D01*
X34694Y65081D01*
X34694Y65081D01*
X34738Y65147D01*
X34754Y65225D01*
Y65500D01*
Y70075D01*
X34738Y70153D01*
X34694Y70219D01*
X34694Y70219D01*
X34450Y70463D01*
Y89525D01*
X30600Y93375D01*
X26301Y93375D01*
X26248Y93410D01*
X26150Y93430D01*
X14650D01*
X14552Y93410D01*
X14499Y93375D01*
X13075Y93375D01*
X12576Y92876D01*
X12550Y92881D01*
X12433Y92858D01*
X12334Y92791D01*
X12267Y92692D01*
X12244Y92575D01*
X12249Y92549D01*
X10300Y90600D01*
X10300Y89417D01*
X8200Y87675D01*
X7450Y87967D01*
X7450Y90386D01*
X7550Y90439D01*
X7583Y90417D01*
X7700Y90394D01*
X7817Y90417D01*
X7916Y90484D01*
X7983Y90583D01*
X8006Y90700D01*
X7983Y90817D01*
X7916Y90916D01*
X7817Y90983D01*
X7700Y91006D01*
X7583Y90983D01*
X7550Y90961D01*
X7450Y91014D01*
X7450Y91600D01*
X11625Y95775D01*
X33550Y95775D01*
D02*
G37*
G36*
X29375Y89400D02*
X29929Y88846D01*
X29909Y88725D01*
X29859Y88691D01*
X29792Y88592D01*
X29769Y88475D01*
X29792Y88358D01*
X29859Y88259D01*
X29958Y88192D01*
X30075Y88169D01*
X30192Y88192D01*
X30291Y88259D01*
X30324Y88308D01*
X30446Y88328D01*
X31750Y87024D01*
X31750Y83736D01*
X31733Y83733D01*
X31634Y83666D01*
X31567Y83567D01*
X31544Y83450D01*
X31567Y83333D01*
X31634Y83234D01*
X31733Y83167D01*
X31750Y83164D01*
X31750Y70250D01*
X34087D01*
X34250Y70087D01*
Y69738D01*
X34237Y69727D01*
X34150Y69694D01*
X34077Y69743D01*
X33960Y69766D01*
X33843Y69743D01*
X33744Y69676D01*
X33677Y69577D01*
X33654Y69460D01*
X33677Y69343D01*
X33744Y69244D01*
X33843Y69177D01*
X33960Y69154D01*
X34077Y69177D01*
X34150Y69226D01*
X34237Y69193D01*
X34250Y69182D01*
Y68214D01*
X34150Y68161D01*
X34117Y68183D01*
X34000Y68206D01*
X33883Y68183D01*
X33784Y68116D01*
X33717Y68017D01*
X33694Y67900D01*
X33717Y67783D01*
X33784Y67684D01*
X33883Y67617D01*
X34000Y67594D01*
X34117Y67617D01*
X34150Y67639D01*
X34250Y67586D01*
Y66614D01*
X34150Y66561D01*
X34117Y66583D01*
X34000Y66606D01*
X33883Y66583D01*
X33784Y66516D01*
X33717Y66417D01*
X33694Y66300D01*
X33717Y66183D01*
X33784Y66084D01*
X33883Y66017D01*
X34000Y65994D01*
X34117Y66017D01*
X34150Y66039D01*
X34250Y65986D01*
Y65814D01*
X34150Y65761D01*
X34117Y65783D01*
X34000Y65806D01*
X33883Y65783D01*
X33784Y65716D01*
X33717Y65617D01*
X33694Y65500D01*
X33717Y65383D01*
X33784Y65284D01*
X33883Y65217D01*
X34000Y65194D01*
X34117Y65217D01*
X34148Y65238D01*
X34220Y65166D01*
X34212Y65153D01*
X34196Y65075D01*
Y65041D01*
X34096Y64987D01*
X34000Y65006D01*
X33883Y64983D01*
X33784Y64916D01*
X33717Y64817D01*
X33694Y64700D01*
X33717Y64583D01*
X33784Y64484D01*
X33883Y64417D01*
X34000Y64394D01*
X34096Y64413D01*
X34196Y64359D01*
Y64350D01*
X34212Y64272D01*
X34250Y64215D01*
Y63414D01*
X34150Y63361D01*
X34117Y63383D01*
X34000Y63406D01*
X33883Y63383D01*
X33784Y63316D01*
X33717Y63217D01*
X33694Y63100D01*
X33717Y62983D01*
X33784Y62884D01*
X33883Y62817D01*
X34000Y62794D01*
X34117Y62817D01*
X34150Y62839D01*
X34250Y62786D01*
Y61814D01*
X34150Y61761D01*
X34117Y61783D01*
X34000Y61806D01*
X33883Y61783D01*
X33784Y61716D01*
X33717Y61617D01*
X33694Y61500D01*
X33717Y61383D01*
X33784Y61284D01*
X33883Y61217D01*
X34000Y61194D01*
X34117Y61217D01*
X34150Y61239D01*
X34250Y61186D01*
Y60460D01*
X34212Y60403D01*
X34196Y60325D01*
Y60241D01*
X34096Y60187D01*
X34000Y60206D01*
X33883Y60183D01*
X33784Y60116D01*
X33717Y60017D01*
X33694Y59900D01*
X33717Y59783D01*
X33784Y59684D01*
X33883Y59617D01*
X34000Y59594D01*
X34096Y59613D01*
X34196Y59559D01*
Y59525D01*
X34212Y59447D01*
X34246Y59395D01*
Y58750D01*
X32750Y58750D01*
Y60000D01*
X32686D01*
X32683Y60017D01*
X32616Y60116D01*
X32517Y60183D01*
X32400Y60206D01*
X32283Y60183D01*
X32184Y60116D01*
X32146Y60060D01*
X32092Y60052D01*
X32000Y60131D01*
X32000Y61250D01*
X31114D01*
X31061Y61350D01*
X31083Y61383D01*
X31106Y61500D01*
X31083Y61617D01*
X31016Y61716D01*
X30917Y61783D01*
X30800Y61806D01*
X30683Y61783D01*
X30584Y61716D01*
X30517Y61617D01*
X30494Y61500D01*
X30517Y61383D01*
X30539Y61350D01*
X30486Y61250D01*
X30250D01*
Y63500D01*
X26039D01*
X26030Y63600D01*
X26065Y63607D01*
X26117Y63617D01*
X26216Y63684D01*
X26283Y63783D01*
X26306Y63900D01*
X26283Y64017D01*
X26216Y64116D01*
X26117Y64183D01*
X26000Y64206D01*
X25883Y64183D01*
X25784Y64116D01*
X25717Y64017D01*
X25694Y63900D01*
X25717Y63783D01*
X25784Y63684D01*
X25883Y63617D01*
X25935Y63607D01*
X25970Y63600D01*
X25961Y63500D01*
X24250D01*
Y68209D01*
X26225D01*
Y68497D01*
X26283Y68583D01*
X26306Y68700D01*
X26283Y68817D01*
X26225Y68903D01*
Y84050D01*
X20775Y89500D01*
X14875D01*
X14875Y92920D01*
X25855D01*
X29375Y89400D01*
D02*
G37*
G36*
X18546Y66566D02*
Y55750D01*
X18562Y55672D01*
X18606Y55606D01*
X19856Y54356D01*
X19922Y54312D01*
X20000Y54296D01*
X20000Y54296D01*
X27500D01*
X27578Y54312D01*
X27644Y54356D01*
X28334Y55046D01*
X30750D01*
X30828Y55062D01*
X30894Y55106D01*
X31144Y55356D01*
X31188Y55422D01*
X31204Y55500D01*
X31204Y55500D01*
Y55642D01*
X32500D01*
X32577Y55673D01*
X32608Y55750D01*
Y56335D01*
X32606Y56340D01*
X32608Y56346D01*
X32591Y56378D01*
X32577Y56412D01*
X32638Y56516D01*
X32683Y56583D01*
X32706Y56700D01*
X32683Y56817D01*
X32638Y56884D01*
X32577Y56988D01*
X32591Y57022D01*
X32608Y57054D01*
X32606Y57060D01*
X32608Y57065D01*
Y57296D01*
X33950D01*
X34028Y57312D01*
X34094Y57356D01*
X34224Y57486D01*
X34342Y57437D01*
Y56957D01*
X34216Y56916D01*
X34117Y56983D01*
X34000Y57006D01*
X33883Y56983D01*
X33784Y56916D01*
X33717Y56817D01*
X33694Y56700D01*
X33717Y56583D01*
X33784Y56484D01*
X33883Y56417D01*
X34000Y56394D01*
X34117Y56417D01*
X34216Y56484D01*
X34342Y56443D01*
Y54380D01*
X31125D01*
X31027Y54360D01*
X30945Y54305D01*
X29644Y53005D01*
X28090D01*
X28051Y53132D01*
X28091Y53159D01*
X28158Y53258D01*
X28181Y53375D01*
X28158Y53492D01*
X28091Y53591D01*
X27992Y53658D01*
X27875Y53681D01*
X27758Y53658D01*
X27659Y53591D01*
X27592Y53492D01*
X27569Y53375D01*
X27592Y53258D01*
X27659Y53159D01*
X27699Y53132D01*
X27660Y53005D01*
X20606D01*
X18255Y55356D01*
Y66575D01*
X18235Y66673D01*
X18187Y66745D01*
X18286Y66826D01*
X18546Y66566D01*
D02*
G37*
G36*
X19892Y64346D02*
X19892Y55750D01*
X19923Y55673D01*
X20000Y55642D01*
X30606Y55642D01*
X30668Y55515D01*
X30621Y55454D01*
X28250D01*
X28172Y55438D01*
X28106Y55394D01*
X28106Y55394D01*
X27416Y54704D01*
X20084D01*
X18954Y55834D01*
Y66262D01*
X19078Y66287D01*
X19892Y64346D01*
D02*
G37*
G36*
X15934Y89114D02*
Y88441D01*
X13833D01*
X13816Y88466D01*
X13776Y88493D01*
X13726Y88690D01*
X13730Y88744D01*
X14005Y89020D01*
X14060Y89102D01*
X14080Y89200D01*
Y89316D01*
X15916D01*
X15934Y89114D01*
D02*
G37*
G36*
X21227Y87932D02*
X21217Y87917D01*
X21194Y87800D01*
X21217Y87683D01*
X21284Y87584D01*
X21383Y87517D01*
X21500Y87494D01*
X21617Y87517D01*
X21716Y87584D01*
X21783Y87683D01*
X21784Y87691D01*
X21922Y87733D01*
X25809Y83846D01*
Y72125D01*
X25823Y72052D01*
X25865Y71990D01*
X26117Y71738D01*
Y68903D01*
X26129Y68874D01*
X26135Y68843D01*
X26181Y68775D01*
X26196Y68700D01*
X26181Y68625D01*
X26135Y68557D01*
X26129Y68526D01*
X26117Y68497D01*
Y68318D01*
X24250D01*
X24173Y68286D01*
X24142Y68209D01*
Y63500D01*
X24148Y63485D01*
X24073Y63358D01*
X23858D01*
Y63858D01*
X23856Y63863D01*
X23858Y63868D01*
X23840Y63900D01*
X23827Y63934D01*
X23821Y63936D01*
X23819Y63941D01*
X23744Y64003D01*
X23718Y64011D01*
X23696Y64025D01*
X23600Y64044D01*
X23537Y64087D01*
X23494Y64150D01*
X23479Y64225D01*
X23494Y64300D01*
X23537Y64363D01*
X23600Y64406D01*
X23696Y64425D01*
X23718Y64439D01*
X23744Y64447D01*
X23819Y64509D01*
X23821Y64514D01*
X23827Y64516D01*
X23841Y64550D01*
X23858Y64582D01*
X23856Y64587D01*
X23858Y64592D01*
X23858Y68750D01*
X23846Y68780D01*
X23839Y68812D01*
X20993Y72882D01*
X21243Y73133D01*
X21292Y73142D01*
X21391Y73209D01*
X21458Y73308D01*
X21467Y73357D01*
X21555Y73445D01*
X21610Y73527D01*
X21630Y73625D01*
Y81575D01*
X21610Y81673D01*
X21555Y81755D01*
X17242Y86068D01*
X17233Y86117D01*
X17166Y86216D01*
X17067Y86283D01*
X17018Y86292D01*
X15605Y87705D01*
X15523Y87760D01*
X15425Y87780D01*
X13733D01*
X13692Y87833D01*
X13708Y87920D01*
X13737Y87981D01*
X13816Y88034D01*
X13833Y88059D01*
X21159D01*
X21227Y87932D01*
D02*
G37*
G36*
X30555Y93267D02*
X34342Y89481D01*
Y70738D01*
X34224Y70689D01*
X34169Y70744D01*
X34103Y70788D01*
X34025Y70804D01*
X33625D01*
X33616Y70816D01*
X33517Y70883D01*
X33400Y70906D01*
X33283Y70883D01*
X33184Y70816D01*
X33117Y70717D01*
X33094Y70600D01*
X33117Y70483D01*
X33048Y70358D01*
X31858D01*
X31858Y83146D01*
X31967Y83167D01*
X32066Y83234D01*
X32133Y83333D01*
X32156Y83450D01*
X32133Y83567D01*
X32066Y83666D01*
X31967Y83733D01*
X31858Y83754D01*
X31858Y87024D01*
X31841Y87064D01*
X31827Y87100D01*
X31827Y87100D01*
X31827Y87100D01*
X31827Y87100D01*
X30522Y88405D01*
X30514Y88408D01*
X30509Y88416D01*
X30477Y88424D01*
X30446Y88437D01*
X30437Y88433D01*
X30428Y88435D01*
X30307Y88415D01*
X30305Y88414D01*
X30303Y88415D01*
X30270Y88392D01*
X30237Y88372D01*
X30236Y88370D01*
X30235Y88369D01*
X30213Y88337D01*
X30150Y88294D01*
X30075Y88279D01*
X30000Y88294D01*
X29937Y88337D01*
X29894Y88400D01*
X29879Y88475D01*
X29894Y88550D01*
X29937Y88613D01*
X29969Y88635D01*
X29970Y88636D01*
X29972Y88637D01*
X29993Y88670D01*
X30015Y88703D01*
X30014Y88705D01*
X30015Y88707D01*
X30035Y88828D01*
X30033Y88837D01*
X30037Y88846D01*
X30024Y88877D01*
X30017Y88909D01*
X30009Y88914D01*
X30005Y88922D01*
X29797Y89131D01*
X29832Y89276D01*
X29883Y89292D01*
X30000Y89269D01*
X30117Y89292D01*
X30216Y89359D01*
X30283Y89458D01*
X30306Y89575D01*
X30283Y89692D01*
X30216Y89791D01*
X30117Y89858D01*
X30000Y89881D01*
X29883Y89858D01*
X29850Y89836D01*
X26536Y93149D01*
X26585Y93267D01*
X30555Y93267D01*
D02*
G37*
G36*
X14215Y93267D02*
X14264Y93149D01*
X13645Y92530D01*
X13590Y92448D01*
X13570Y92350D01*
Y89387D01*
X13525Y89349D01*
X13384Y89358D01*
X13369Y89373D01*
X13360Y89393D01*
X13340Y89401D01*
X13325Y89416D01*
X13304D01*
X13284Y89425D01*
X11359D01*
X11282Y89393D01*
X11250Y89316D01*
Y88928D01*
X11257Y88912D01*
X11256Y88894D01*
X11272Y88876D01*
X11272Y88873D01*
X11224Y88761D01*
X11214Y88749D01*
X9851D01*
X9808Y88868D01*
X10369Y89334D01*
X10372Y89338D01*
X10377Y89340D01*
X10391Y89374D01*
X10408Y89407D01*
X10406Y89412D01*
X10408Y89417D01*
X10408Y90555D01*
X12326Y92473D01*
X12330Y92483D01*
X12339Y92489D01*
X12345Y92520D01*
X12357Y92549D01*
X12353Y92559D01*
X12355Y92570D01*
X12354Y92575D01*
X12369Y92650D01*
X12412Y92713D01*
X12475Y92756D01*
X12550Y92771D01*
X12555Y92770D01*
X12566Y92772D01*
X12576Y92768D01*
X12605Y92780D01*
X12636Y92786D01*
X12642Y92795D01*
X12652Y92799D01*
X13120Y93267D01*
X14215Y93267D01*
D02*
G37*
G36*
X21120Y81469D02*
Y73731D01*
X21107Y73717D01*
X21058Y73708D01*
X20959Y73641D01*
X20892Y73542D01*
X20883Y73493D01*
X20766Y73377D01*
X20640Y73388D01*
X19128Y75549D01*
X19152Y75674D01*
X19166Y75684D01*
X19233Y75783D01*
X19256Y75900D01*
X19233Y76017D01*
X19166Y76116D01*
X19067Y76183D01*
X18950Y76206D01*
X18833Y76183D01*
X18734Y76116D01*
X18732Y76116D01*
X17284Y78187D01*
X17276Y78192D01*
X17272Y78201D01*
X17242Y78214D01*
X17215Y78232D01*
X17205Y78229D01*
X17196Y78233D01*
X14551Y78233D01*
X14551Y78233D01*
X14480Y78342D01*
Y78469D01*
X16258Y80248D01*
X17428D01*
X17525Y80267D01*
X17608Y80323D01*
X18580Y81295D01*
X18635Y81377D01*
X18655Y81475D01*
Y83650D01*
X18635Y83748D01*
X18580Y83830D01*
X18670Y83919D01*
X21120Y81469D01*
D02*
G37*
G36*
X13371Y89106D02*
X12895Y88630D01*
X12840Y88548D01*
X12820Y88450D01*
Y88000D01*
X12840Y87902D01*
X12895Y87820D01*
X13370Y87345D01*
X13452Y87290D01*
X13550Y87270D01*
X15319D01*
X15934Y86656D01*
Y83691D01*
X17794D01*
X18000Y83682D01*
Y81575D01*
X17241Y80816D01*
X12469D01*
X12405Y81026D01*
X12416Y81034D01*
X12483Y81133D01*
X12506Y81250D01*
X12483Y81367D01*
X12416Y81466D01*
X12317Y81533D01*
X12200Y81556D01*
X12083Y81533D01*
X11984Y81466D01*
X11917Y81367D01*
X11894Y81250D01*
X11917Y81133D01*
X11984Y81034D01*
X11995Y81026D01*
X11931Y80816D01*
X8011D01*
X8000Y80828D01*
Y82589D01*
X8200Y82744D01*
X8317Y82767D01*
X8416Y82834D01*
X8483Y82933D01*
X8506Y83050D01*
X8483Y83167D01*
X8416Y83266D01*
X8317Y83333D01*
X8200Y83356D01*
X8000Y83511D01*
Y87034D01*
X8296D01*
X8369Y87048D01*
X8431Y87090D01*
X9708Y88367D01*
X11462D01*
X11484Y88334D01*
X11583Y88267D01*
X11700Y88244D01*
X11817Y88267D01*
X11916Y88334D01*
X11983Y88433D01*
X12006Y88550D01*
X11983Y88667D01*
X11916Y88766D01*
X11817Y88833D01*
X11700Y88856D01*
X11583Y88833D01*
X11569Y88823D01*
X11359Y88928D01*
Y89316D01*
X13284D01*
X13371Y89106D01*
D02*
G37*
%LPC*%
G36*
X26800Y61006D02*
X26683Y60983D01*
X26584Y60916D01*
X26517Y60817D01*
X26494Y60700D01*
X26517Y60583D01*
X26584Y60484D01*
X26683Y60417D01*
X26800Y60394D01*
X26917Y60417D01*
X27016Y60484D01*
X27083Y60583D01*
X27106Y60700D01*
X27083Y60817D01*
X27016Y60916D01*
X26917Y60983D01*
X26800Y61006D01*
D02*
G37*
G36*
X27600Y60196D02*
X27483Y60173D01*
X27384Y60106D01*
X27317Y60007D01*
X27294Y59890D01*
X27317Y59773D01*
X27384Y59674D01*
X27483Y59607D01*
X27600Y59584D01*
X27717Y59607D01*
X27816Y59674D01*
X27883Y59773D01*
X27906Y59890D01*
X27883Y60007D01*
X27816Y60106D01*
X27717Y60173D01*
X27600Y60196D01*
D02*
G37*
G36*
X26000Y60206D02*
X25883Y60183D01*
X25784Y60116D01*
X25717Y60017D01*
X25694Y59900D01*
X25717Y59783D01*
X25784Y59684D01*
X25883Y59617D01*
X26000Y59594D01*
X26117Y59617D01*
X26216Y59684D01*
X26283Y59783D01*
X26306Y59900D01*
X26283Y60017D01*
X26216Y60116D01*
X26117Y60183D01*
X26000Y60206D01*
D02*
G37*
G36*
X29200Y60206D02*
X29083Y60183D01*
X28984Y60116D01*
X28917Y60017D01*
X28894Y59900D01*
X28917Y59783D01*
X28984Y59684D01*
X29083Y59617D01*
X29200Y59594D01*
X29317Y59617D01*
X29416Y59684D01*
X29483Y59783D01*
X29506Y59900D01*
X29483Y60017D01*
X29416Y60116D01*
X29317Y60183D01*
X29200Y60206D01*
D02*
G37*
G36*
X30800D02*
X30683Y60183D01*
X30584Y60116D01*
X30517Y60017D01*
X30494Y59900D01*
X30517Y59783D01*
X30584Y59684D01*
X30683Y59617D01*
X30800Y59594D01*
X30917Y59617D01*
X31016Y59684D01*
X31083Y59783D01*
X31106Y59900D01*
X31083Y60017D01*
X31016Y60116D01*
X30917Y60183D01*
X30800Y60206D01*
D02*
G37*
G36*
X29200Y61806D02*
X29083Y61783D01*
X28984Y61716D01*
X28917Y61617D01*
X28894Y61500D01*
X28917Y61383D01*
X28984Y61284D01*
X29083Y61217D01*
X29200Y61194D01*
X29317Y61217D01*
X29416Y61284D01*
X29483Y61383D01*
X29506Y61500D01*
X29483Y61617D01*
X29416Y61716D01*
X29317Y61783D01*
X29200Y61806D01*
D02*
G37*
G36*
X26800D02*
X26683Y61783D01*
X26584Y61716D01*
X26517Y61617D01*
X26494Y61500D01*
X26517Y61383D01*
X26584Y61284D01*
X26683Y61217D01*
X26800Y61194D01*
X26917Y61217D01*
X27016Y61284D01*
X27083Y61383D01*
X27106Y61500D01*
X27083Y61617D01*
X27016Y61716D01*
X26917Y61783D01*
X26800Y61806D01*
D02*
G37*
G36*
X27600D02*
X27483Y61783D01*
X27384Y61716D01*
X27317Y61617D01*
X27294Y61500D01*
X27317Y61383D01*
X27384Y61284D01*
X27483Y61217D01*
X27600Y61194D01*
X27717Y61217D01*
X27816Y61284D01*
X27883Y61383D01*
X27906Y61500D01*
X27883Y61617D01*
X27816Y61716D01*
X27717Y61783D01*
X27600Y61806D01*
D02*
G37*
G36*
X29200Y57006D02*
X29083Y56983D01*
X28984Y56916D01*
X28917Y56817D01*
X28894Y56700D01*
X28917Y56583D01*
X28984Y56484D01*
X29083Y56417D01*
X29200Y56394D01*
X29317Y56417D01*
X29416Y56484D01*
X29483Y56583D01*
X29506Y56700D01*
X29483Y56817D01*
X29416Y56916D01*
X29317Y56983D01*
X29200Y57006D01*
D02*
G37*
G36*
X30800D02*
X30683Y56983D01*
X30584Y56916D01*
X30517Y56817D01*
X30494Y56700D01*
X30517Y56583D01*
X30584Y56484D01*
X30683Y56417D01*
X30800Y56394D01*
X30917Y56417D01*
X31016Y56484D01*
X31083Y56583D01*
X31106Y56700D01*
X31083Y56817D01*
X31016Y56916D01*
X30917Y56983D01*
X30800Y57006D01*
D02*
G37*
G36*
X25200Y59406D02*
X25083Y59383D01*
X24984Y59316D01*
X24917Y59217D01*
X24894Y59100D01*
X24917Y58983D01*
X24984Y58884D01*
X25083Y58817D01*
X25200Y58794D01*
X25317Y58817D01*
X25416Y58884D01*
X25483Y58983D01*
X25506Y59100D01*
X25483Y59217D01*
X25416Y59316D01*
X25317Y59383D01*
X25200Y59406D01*
D02*
G37*
G36*
X27600Y59406D02*
X27483Y59383D01*
X27384Y59316D01*
X27317Y59217D01*
X27294Y59100D01*
X27317Y58983D01*
X27384Y58884D01*
X27483Y58817D01*
X27600Y58794D01*
X27717Y58817D01*
X27816Y58884D01*
X27883Y58983D01*
X27906Y59100D01*
X27883Y59217D01*
X27816Y59316D01*
X27717Y59383D01*
X27600Y59406D01*
D02*
G37*
G36*
Y58636D02*
X27483Y58613D01*
X27384Y58546D01*
X27317Y58447D01*
X27294Y58330D01*
X27317Y58213D01*
X27384Y58114D01*
X27483Y58047D01*
X27600Y58024D01*
X27717Y58047D01*
X27816Y58114D01*
X27883Y58213D01*
X27906Y58330D01*
X27883Y58447D01*
X27816Y58546D01*
X27717Y58613D01*
X27600Y58636D01*
D02*
G37*
G36*
X29200Y58606D02*
X29083Y58583D01*
X28984Y58516D01*
X28917Y58417D01*
X28894Y58300D01*
X28917Y58183D01*
X28984Y58084D01*
X29083Y58017D01*
X29200Y57994D01*
X29317Y58017D01*
X29416Y58084D01*
X29483Y58183D01*
X29506Y58300D01*
X29483Y58417D01*
X29416Y58516D01*
X29317Y58583D01*
X29200Y58606D01*
D02*
G37*
G36*
X30800D02*
X30683Y58583D01*
X30584Y58516D01*
X30517Y58417D01*
X30494Y58300D01*
X30517Y58183D01*
X30584Y58084D01*
X30683Y58017D01*
X30800Y57994D01*
X30917Y58017D01*
X31016Y58084D01*
X31083Y58183D01*
X31106Y58300D01*
X31083Y58417D01*
X31016Y58516D01*
X30917Y58583D01*
X30800Y58606D01*
D02*
G37*
G36*
X57450Y60706D02*
X57333Y60683D01*
X57234Y60616D01*
X57167Y60517D01*
X57144Y60400D01*
X57167Y60283D01*
X57234Y60184D01*
X57333Y60117D01*
X57450Y60094D01*
X57567Y60117D01*
X57666Y60184D01*
X57733Y60283D01*
X57756Y60400D01*
X57733Y60517D01*
X57666Y60616D01*
X57567Y60683D01*
X57450Y60706D01*
D02*
G37*
G36*
X53450Y60706D02*
X53333Y60683D01*
X53234Y60616D01*
X53167Y60517D01*
X53144Y60400D01*
X53167Y60283D01*
X53234Y60184D01*
X53333Y60117D01*
X53450Y60094D01*
X53567Y60117D01*
X53666Y60184D01*
X53733Y60283D01*
X53756Y60400D01*
X53733Y60517D01*
X53666Y60616D01*
X53567Y60683D01*
X53450Y60706D01*
D02*
G37*
G36*
X50940Y60506D02*
X50823Y60483D01*
X50724Y60416D01*
X50657Y60317D01*
X50656Y60311D01*
X50550Y60244D01*
X50490Y60256D01*
X50373Y60233D01*
X50274Y60166D01*
X50207Y60067D01*
X50184Y59950D01*
X50207Y59833D01*
X50274Y59734D01*
X50373Y59667D01*
X50490Y59644D01*
X50607Y59667D01*
X50706Y59734D01*
X50773Y59833D01*
X50774Y59839D01*
X50880Y59906D01*
X50940Y59894D01*
X51057Y59917D01*
X51156Y59984D01*
X51223Y60083D01*
X51246Y60200D01*
X51223Y60317D01*
X51156Y60416D01*
X51057Y60483D01*
X50940Y60506D01*
D02*
G37*
G36*
X56650Y60706D02*
X56533Y60683D01*
X56434Y60616D01*
X56367Y60517D01*
X56344Y60400D01*
X56367Y60283D01*
X56434Y60184D01*
X56533Y60117D01*
X56650Y60094D01*
X56767Y60117D01*
X56866Y60184D01*
X56933Y60283D01*
X56956Y60400D01*
X56933Y60517D01*
X56866Y60616D01*
X56767Y60683D01*
X56650Y60706D01*
D02*
G37*
G36*
X54250D02*
X54133Y60683D01*
X54034Y60616D01*
X53967Y60517D01*
X53944Y60400D01*
X53967Y60283D01*
X54034Y60184D01*
X54133Y60117D01*
X54250Y60094D01*
X54367Y60117D01*
X54466Y60184D01*
X54533Y60283D01*
X54556Y60400D01*
X54533Y60517D01*
X54466Y60616D01*
X54367Y60683D01*
X54250Y60706D01*
D02*
G37*
G36*
X60650Y59906D02*
X60533Y59883D01*
X60434Y59816D01*
X60367Y59717D01*
X60344Y59600D01*
X60367Y59483D01*
X60434Y59384D01*
X60533Y59317D01*
X60650Y59294D01*
X60767Y59317D01*
X60866Y59384D01*
X60933Y59483D01*
X60956Y59600D01*
X60933Y59717D01*
X60866Y59816D01*
X60767Y59883D01*
X60650Y59906D01*
D02*
G37*
G36*
X39700Y59806D02*
X39583Y59783D01*
X39484Y59716D01*
X39417Y59617D01*
X39394Y59500D01*
X39417Y59383D01*
X39484Y59284D01*
X39583Y59217D01*
X39700Y59194D01*
X39817Y59217D01*
X39916Y59284D01*
X39983Y59383D01*
X40006Y59500D01*
X39983Y59617D01*
X39916Y59716D01*
X39817Y59783D01*
X39700Y59806D01*
D02*
G37*
G36*
X55050Y59906D02*
X54933Y59883D01*
X54834Y59816D01*
X54767Y59717D01*
X54744Y59600D01*
X54767Y59483D01*
X54834Y59384D01*
X54933Y59317D01*
X55050Y59294D01*
X55167Y59317D01*
X55266Y59384D01*
X55333Y59483D01*
X55356Y59600D01*
X55333Y59717D01*
X55266Y59816D01*
X55167Y59883D01*
X55050Y59906D01*
D02*
G37*
G36*
X38000Y60206D02*
X37883Y60183D01*
X37784Y60116D01*
X37717Y60017D01*
X37694Y59900D01*
X37717Y59783D01*
X37784Y59684D01*
X37883Y59617D01*
X38000Y59594D01*
X38117Y59617D01*
X38216Y59684D01*
X38283Y59783D01*
X38306Y59900D01*
X38283Y60017D01*
X38216Y60116D01*
X38117Y60183D01*
X38000Y60206D01*
D02*
G37*
G36*
X38800D02*
X38683Y60183D01*
X38584Y60116D01*
X38517Y60017D01*
X38494Y59900D01*
X38517Y59783D01*
X38584Y59684D01*
X38683Y59617D01*
X38800Y59594D01*
X38917Y59617D01*
X39016Y59684D01*
X39083Y59783D01*
X39106Y59900D01*
X39083Y60017D01*
X39016Y60116D01*
X38917Y60183D01*
X38800Y60206D01*
D02*
G37*
G36*
X37200D02*
X37083Y60183D01*
X36984Y60116D01*
X36917Y60017D01*
X36894Y59900D01*
X36917Y59783D01*
X36984Y59684D01*
X37083Y59617D01*
X37200Y59594D01*
X37317Y59617D01*
X37416Y59684D01*
X37483Y59783D01*
X37506Y59900D01*
X37483Y60017D01*
X37416Y60116D01*
X37317Y60183D01*
X37200Y60206D01*
D02*
G37*
G36*
X35600D02*
X35483Y60183D01*
X35384Y60116D01*
X35317Y60017D01*
X35294Y59900D01*
X35317Y59783D01*
X35384Y59684D01*
X35483Y59617D01*
X35600Y59594D01*
X35717Y59617D01*
X35816Y59684D01*
X35883Y59783D01*
X35906Y59900D01*
X35883Y60017D01*
X35816Y60116D01*
X35717Y60183D01*
X35600Y60206D01*
D02*
G37*
G36*
X38800Y62606D02*
X38683Y62583D01*
X38584Y62516D01*
X38517Y62417D01*
X38494Y62300D01*
X38517Y62183D01*
X38584Y62084D01*
X38683Y62017D01*
X38800Y61994D01*
X38917Y62017D01*
X39016Y62084D01*
X39083Y62183D01*
X39106Y62300D01*
X39083Y62417D01*
X39016Y62516D01*
X38917Y62583D01*
X38800Y62606D01*
D02*
G37*
G36*
X38000D02*
X37883Y62583D01*
X37784Y62516D01*
X37717Y62417D01*
X37694Y62300D01*
X37717Y62183D01*
X37784Y62084D01*
X37883Y62017D01*
X38000Y61994D01*
X38117Y62017D01*
X38216Y62084D01*
X38283Y62183D01*
X38306Y62300D01*
X38283Y62417D01*
X38216Y62516D01*
X38117Y62583D01*
X38000Y62606D01*
D02*
G37*
G36*
X40350Y62856D02*
X40233Y62833D01*
X40134Y62766D01*
X40067Y62667D01*
X40044Y62550D01*
X40067Y62433D01*
X40109Y62370D01*
X40126Y62300D01*
X40109Y62230D01*
X40067Y62167D01*
X40044Y62050D01*
X40067Y61933D01*
X40134Y61834D01*
X40233Y61767D01*
X40350Y61744D01*
X40467Y61767D01*
X40566Y61834D01*
X40633Y61933D01*
X40656Y62050D01*
X40633Y62167D01*
X40591Y62230D01*
X40574Y62300D01*
X40591Y62370D01*
X40633Y62433D01*
X40656Y62550D01*
X40633Y62667D01*
X40566Y62766D01*
X40467Y62833D01*
X40350Y62856D01*
D02*
G37*
G36*
X37200Y62606D02*
X37083Y62583D01*
X36984Y62516D01*
X36917Y62417D01*
X36894Y62300D01*
X36917Y62183D01*
X36984Y62084D01*
X37083Y62017D01*
X37200Y61994D01*
X37317Y62017D01*
X37416Y62084D01*
X37483Y62183D01*
X37506Y62300D01*
X37483Y62417D01*
X37416Y62516D01*
X37317Y62583D01*
X37200Y62606D01*
D02*
G37*
G36*
X62250Y63906D02*
X62133Y63883D01*
X62034Y63816D01*
X61967Y63717D01*
X61944Y63600D01*
X61967Y63483D01*
X62034Y63384D01*
X62133Y63317D01*
X62250Y63294D01*
X62367Y63317D01*
X62466Y63384D01*
X62533Y63483D01*
X62556Y63600D01*
X62533Y63717D01*
X62466Y63816D01*
X62367Y63883D01*
X62250Y63906D01*
D02*
G37*
G36*
X37200Y64206D02*
X37083Y64183D01*
X36984Y64116D01*
X36917Y64017D01*
X36894Y63900D01*
X36917Y63783D01*
X36984Y63684D01*
X37083Y63617D01*
X37200Y63594D01*
X37317Y63617D01*
X37416Y63684D01*
X37483Y63783D01*
X37506Y63900D01*
X37483Y64017D01*
X37416Y64116D01*
X37317Y64183D01*
X37200Y64206D01*
D02*
G37*
G36*
X38000Y63406D02*
X37883Y63383D01*
X37784Y63316D01*
X37717Y63217D01*
X37694Y63100D01*
X37717Y62983D01*
X37784Y62884D01*
X37883Y62817D01*
X38000Y62794D01*
X38117Y62817D01*
X38216Y62884D01*
X38283Y62983D01*
X38306Y63100D01*
X38283Y63217D01*
X38216Y63316D01*
X38117Y63383D01*
X38000Y63406D01*
D02*
G37*
G36*
X35600D02*
X35483Y63383D01*
X35384Y63316D01*
X35317Y63217D01*
X35294Y63100D01*
X35317Y62983D01*
X35384Y62884D01*
X35483Y62817D01*
X35600Y62794D01*
X35717Y62817D01*
X35816Y62884D01*
X35883Y62983D01*
X35906Y63100D01*
X35883Y63217D01*
X35816Y63316D01*
X35717Y63383D01*
X35600Y63406D01*
D02*
G37*
G36*
X54250Y61506D02*
X54133Y61483D01*
X54034Y61416D01*
X53967Y61317D01*
X53944Y61200D01*
X53967Y61083D01*
X54034Y60984D01*
X54133Y60917D01*
X54250Y60894D01*
X54367Y60917D01*
X54466Y60984D01*
X54533Y61083D01*
X54556Y61200D01*
X54533Y61317D01*
X54466Y61416D01*
X54367Y61483D01*
X54250Y61506D01*
D02*
G37*
G36*
X56650D02*
X56533Y61483D01*
X56434Y61416D01*
X56367Y61317D01*
X56344Y61200D01*
X56367Y61083D01*
X56434Y60984D01*
X56533Y60917D01*
X56650Y60894D01*
X56767Y60917D01*
X56866Y60984D01*
X56933Y61083D01*
X56956Y61200D01*
X56933Y61317D01*
X56866Y61416D01*
X56767Y61483D01*
X56650Y61506D01*
D02*
G37*
G36*
X39600Y61006D02*
X39483Y60983D01*
X39384Y60916D01*
X39317Y60817D01*
X39294Y60700D01*
X39317Y60583D01*
X39384Y60484D01*
X39483Y60417D01*
X39600Y60394D01*
X39717Y60417D01*
X39816Y60484D01*
X39883Y60583D01*
X39906Y60700D01*
X39883Y60817D01*
X39816Y60916D01*
X39717Y60983D01*
X39600Y61006D01*
D02*
G37*
G36*
X38000D02*
X37883Y60983D01*
X37784Y60916D01*
X37717Y60817D01*
X37694Y60700D01*
X37717Y60583D01*
X37784Y60484D01*
X37883Y60417D01*
X38000Y60394D01*
X38117Y60417D01*
X38216Y60484D01*
X38283Y60583D01*
X38306Y60700D01*
X38283Y60817D01*
X38216Y60916D01*
X38117Y60983D01*
X38000Y61006D01*
D02*
G37*
G36*
X38800D02*
X38683Y60983D01*
X38584Y60916D01*
X38517Y60817D01*
X38494Y60700D01*
X38517Y60583D01*
X38584Y60484D01*
X38683Y60417D01*
X38800Y60394D01*
X38917Y60417D01*
X39016Y60484D01*
X39083Y60583D01*
X39106Y60700D01*
X39083Y60817D01*
X39016Y60916D01*
X38917Y60983D01*
X38800Y61006D01*
D02*
G37*
G36*
X35600Y61806D02*
X35483Y61783D01*
X35384Y61716D01*
X35317Y61617D01*
X35294Y61500D01*
X35317Y61383D01*
X35384Y61284D01*
X35483Y61217D01*
X35600Y61194D01*
X35717Y61217D01*
X35816Y61284D01*
X35883Y61383D01*
X35906Y61500D01*
X35883Y61617D01*
X35816Y61716D01*
X35717Y61783D01*
X35600Y61806D01*
D02*
G37*
G36*
X38000Y59406D02*
X37883Y59383D01*
X37784Y59316D01*
X37717Y59217D01*
X37694Y59100D01*
X37717Y58983D01*
X37784Y58884D01*
X37883Y58817D01*
X38000Y58794D01*
X38117Y58817D01*
X38216Y58884D01*
X38283Y58983D01*
X38306Y59100D01*
X38283Y59217D01*
X38216Y59316D01*
X38117Y59383D01*
X38000Y59406D01*
D02*
G37*
G36*
X50480Y56856D02*
X50363Y56833D01*
X50264Y56766D01*
X50197Y56667D01*
X50174Y56550D01*
X50197Y56433D01*
X50264Y56334D01*
X50363Y56267D01*
X50480Y56244D01*
X50597Y56267D01*
X50696Y56334D01*
X50763Y56433D01*
X50786Y56550D01*
X50763Y56667D01*
X50696Y56766D01*
X50597Y56833D01*
X50480Y56856D01*
D02*
G37*
G36*
X39560Y55446D02*
X39443Y55423D01*
X39344Y55356D01*
X39277Y55257D01*
X39254Y55140D01*
X39277Y55023D01*
X39344Y54924D01*
X39443Y54857D01*
X39560Y54834D01*
X39677Y54857D01*
X39776Y54924D01*
X39843Y55023D01*
X39866Y55140D01*
X39843Y55257D01*
X39776Y55356D01*
X39677Y55423D01*
X39560Y55446D01*
D02*
G37*
G36*
X36400Y56206D02*
X36283Y56183D01*
X36184Y56116D01*
X36117Y56017D01*
X36094Y55900D01*
X36117Y55783D01*
X36184Y55684D01*
X36283Y55617D01*
X36400Y55594D01*
X36517Y55617D01*
X36616Y55684D01*
X36683Y55783D01*
X36706Y55900D01*
X36683Y56017D01*
X36616Y56116D01*
X36517Y56183D01*
X36400Y56206D01*
D02*
G37*
G36*
X37200Y57806D02*
X37083Y57783D01*
X36984Y57716D01*
X36917Y57617D01*
X36894Y57500D01*
X36917Y57383D01*
X36984Y57284D01*
X37083Y57217D01*
X37200Y57194D01*
X37317Y57217D01*
X37416Y57284D01*
X37483Y57383D01*
X37506Y57500D01*
X37483Y57617D01*
X37416Y57716D01*
X37317Y57783D01*
X37200Y57806D01*
D02*
G37*
G36*
X51490Y58156D02*
X51373Y58133D01*
X51274Y58066D01*
X51207Y57967D01*
X51184Y57850D01*
X51207Y57733D01*
X51274Y57634D01*
X51373Y57567D01*
X51490Y57544D01*
X51607Y57567D01*
X51706Y57634D01*
X51773Y57733D01*
X51796Y57850D01*
X51773Y57967D01*
X51706Y58066D01*
X51607Y58133D01*
X51490Y58156D01*
D02*
G37*
G36*
X35600Y57006D02*
X35483Y56983D01*
X35384Y56916D01*
X35317Y56817D01*
X35294Y56700D01*
X35317Y56583D01*
X35384Y56484D01*
X35483Y56417D01*
X35600Y56394D01*
X35717Y56417D01*
X35816Y56484D01*
X35883Y56583D01*
X35906Y56700D01*
X35883Y56817D01*
X35816Y56916D01*
X35717Y56983D01*
X35600Y57006D01*
D02*
G37*
G36*
X50480Y52906D02*
X50363Y52883D01*
X50264Y52816D01*
X50197Y52717D01*
X50174Y52600D01*
X50197Y52483D01*
X50264Y52384D01*
X50363Y52317D01*
X50480Y52294D01*
X50597Y52317D01*
X50696Y52384D01*
X50763Y52483D01*
X50786Y52600D01*
X50763Y52717D01*
X50696Y52816D01*
X50597Y52883D01*
X50480Y52906D01*
D02*
G37*
G36*
X36790Y52986D02*
X36673Y52963D01*
X36574Y52896D01*
X36507Y52797D01*
X36484Y52680D01*
X36507Y52563D01*
X36574Y52464D01*
X36673Y52397D01*
X36790Y52374D01*
X36907Y52397D01*
X37006Y52464D01*
X37073Y52563D01*
X37096Y52680D01*
X37073Y52797D01*
X37006Y52896D01*
X36907Y52963D01*
X36790Y52986D01*
D02*
G37*
G36*
X38230Y51586D02*
X38113Y51563D01*
X38014Y51496D01*
X37947Y51397D01*
X37924Y51280D01*
X37947Y51163D01*
X38014Y51064D01*
X38113Y50997D01*
X38230Y50974D01*
X38347Y50997D01*
X38446Y51064D01*
X38513Y51163D01*
X38536Y51280D01*
X38513Y51397D01*
X38446Y51496D01*
X38347Y51563D01*
X38230Y51586D01*
D02*
G37*
G36*
X55160Y52326D02*
X55043Y52303D01*
X54944Y52236D01*
X54877Y52137D01*
X54854Y52020D01*
X54877Y51903D01*
X54944Y51804D01*
X55043Y51737D01*
X55160Y51714D01*
X55277Y51737D01*
X55376Y51804D01*
X55443Y51903D01*
X55466Y52020D01*
X55443Y52137D01*
X55376Y52236D01*
X55277Y52303D01*
X55160Y52326D01*
D02*
G37*
G36*
X52000Y53456D02*
X51883Y53433D01*
X51784Y53366D01*
X51717Y53267D01*
X51694Y53150D01*
X51717Y53033D01*
X51784Y52934D01*
X51883Y52867D01*
X52000Y52844D01*
X52117Y52867D01*
X52216Y52934D01*
X52283Y53033D01*
X52306Y53150D01*
X52283Y53267D01*
X52216Y53366D01*
X52117Y53433D01*
X52000Y53456D01*
D02*
G37*
G36*
X58150D02*
X58033Y53433D01*
X57934Y53366D01*
X57867Y53267D01*
X57844Y53150D01*
X57867Y53033D01*
X57934Y52934D01*
X58033Y52867D01*
X58150Y52844D01*
X58267Y52867D01*
X58366Y52934D01*
X58433Y53033D01*
X58456Y53150D01*
X58433Y53267D01*
X58366Y53366D01*
X58267Y53433D01*
X58150Y53456D01*
D02*
G37*
G36*
X60750D02*
X60633Y53433D01*
X60534Y53366D01*
X60467Y53267D01*
X60444Y53150D01*
X60467Y53033D01*
X60534Y52934D01*
X60633Y52867D01*
X60750Y52844D01*
X60867Y52867D01*
X60966Y52934D01*
X61033Y53033D01*
X61056Y53150D01*
X61033Y53267D01*
X60966Y53366D01*
X60867Y53433D01*
X60750Y53456D01*
D02*
G37*
G36*
X54000D02*
X53883Y53433D01*
X53784Y53366D01*
X53717Y53267D01*
X53694Y53150D01*
X53717Y53033D01*
X53784Y52934D01*
X53883Y52867D01*
X54000Y52844D01*
X54117Y52867D01*
X54216Y52934D01*
X54283Y53033D01*
X54306Y53150D01*
X54283Y53267D01*
X54216Y53366D01*
X54117Y53433D01*
X54000Y53456D01*
D02*
G37*
G36*
X56100D02*
X55983Y53433D01*
X55884Y53366D01*
X55817Y53267D01*
X55794Y53150D01*
X55817Y53033D01*
X55884Y52934D01*
X55983Y52867D01*
X56100Y52844D01*
X56217Y52867D01*
X56316Y52934D01*
X56383Y53033D01*
X56406Y53150D01*
X56383Y53267D01*
X56316Y53366D01*
X56217Y53433D01*
X56100Y53456D01*
D02*
G37*
G36*
X59450Y59006D02*
X59333Y58983D01*
X59234Y58916D01*
X59167Y58817D01*
X59144Y58700D01*
X59167Y58583D01*
X59234Y58484D01*
X59333Y58417D01*
X59450Y58394D01*
X59567Y58417D01*
X59666Y58484D01*
X59733Y58583D01*
X59756Y58700D01*
X59733Y58817D01*
X59666Y58916D01*
X59567Y58983D01*
X59450Y59006D01*
D02*
G37*
G36*
X51070Y59056D02*
X50953Y59033D01*
X50854Y58966D01*
X50787Y58867D01*
X50764Y58750D01*
X50787Y58633D01*
X50854Y58534D01*
X50953Y58467D01*
X51070Y58444D01*
X51187Y58467D01*
X51286Y58534D01*
X51353Y58633D01*
X51376Y58750D01*
X51353Y58867D01*
X51286Y58966D01*
X51187Y59033D01*
X51070Y59056D01*
D02*
G37*
G36*
X53430Y58936D02*
X53313Y58913D01*
X53214Y58846D01*
X53147Y58747D01*
X53124Y58630D01*
X53147Y58513D01*
X53214Y58414D01*
X53313Y58347D01*
X53430Y58324D01*
X53547Y58347D01*
X53646Y58414D01*
X53713Y58513D01*
X53736Y58630D01*
X53713Y58747D01*
X53646Y58846D01*
X53547Y58913D01*
X53430Y58936D01*
D02*
G37*
G36*
X58650Y59006D02*
X58533Y58983D01*
X58434Y58916D01*
X58367Y58817D01*
X58344Y58700D01*
X58367Y58583D01*
X58434Y58484D01*
X58533Y58417D01*
X58650Y58394D01*
X58767Y58417D01*
X58866Y58484D01*
X58933Y58583D01*
X58956Y58700D01*
X58933Y58817D01*
X58866Y58916D01*
X58767Y58983D01*
X58650Y59006D01*
D02*
G37*
G36*
X51850Y59056D02*
X51733Y59033D01*
X51634Y58966D01*
X51567Y58867D01*
X51544Y58750D01*
X51567Y58633D01*
X51634Y58534D01*
X51733Y58467D01*
X51850Y58444D01*
X51967Y58467D01*
X52066Y58534D01*
X52133Y58633D01*
X52156Y58750D01*
X52133Y58867D01*
X52066Y58966D01*
X51967Y59033D01*
X51850Y59056D01*
D02*
G37*
G36*
X37200Y59406D02*
X37083Y59383D01*
X36984Y59316D01*
X36917Y59217D01*
X36894Y59100D01*
X36917Y58983D01*
X36984Y58884D01*
X37083Y58817D01*
X37200Y58794D01*
X37317Y58817D01*
X37416Y58884D01*
X37483Y58983D01*
X37506Y59100D01*
X37483Y59217D01*
X37416Y59316D01*
X37317Y59383D01*
X37200Y59406D01*
D02*
G37*
G36*
X52650Y59056D02*
X52533Y59033D01*
X52434Y58966D01*
X52367Y58867D01*
X52344Y58750D01*
X52367Y58633D01*
X52434Y58534D01*
X52533Y58467D01*
X52650Y58444D01*
X52767Y58467D01*
X52866Y58534D01*
X52933Y58633D01*
X52956Y58750D01*
X52933Y58867D01*
X52866Y58966D01*
X52767Y59033D01*
X52650Y59056D01*
D02*
G37*
G36*
X55270Y58356D02*
X55153Y58333D01*
X55054Y58266D01*
X54987Y58167D01*
X54964Y58050D01*
X54987Y57933D01*
X55054Y57834D01*
X55153Y57767D01*
X55270Y57744D01*
X55387Y57767D01*
X55486Y57834D01*
X55553Y57933D01*
X55576Y58050D01*
X55553Y58167D01*
X55486Y58266D01*
X55387Y58333D01*
X55270Y58356D01*
D02*
G37*
G36*
X56250Y58396D02*
X56133Y58373D01*
X56034Y58306D01*
X55967Y58207D01*
X55944Y58090D01*
X55967Y57973D01*
X56034Y57874D01*
X56133Y57807D01*
X56250Y57784D01*
X56367Y57807D01*
X56466Y57874D01*
X56533Y57973D01*
X56556Y58090D01*
X56533Y58207D01*
X56466Y58306D01*
X56367Y58373D01*
X56250Y58396D01*
D02*
G37*
G36*
X53050Y58176D02*
X52933Y58153D01*
X52834Y58086D01*
X52767Y57987D01*
X52744Y57870D01*
X52767Y57753D01*
X52834Y57654D01*
X52933Y57587D01*
X53050Y57564D01*
X53167Y57587D01*
X53266Y57654D01*
X53333Y57753D01*
X53356Y57870D01*
X53333Y57987D01*
X53266Y58086D01*
X53167Y58153D01*
X53050Y58176D01*
D02*
G37*
G36*
X62550D02*
X62433Y58153D01*
X62334Y58086D01*
X62267Y57987D01*
X62244Y57870D01*
X62267Y57753D01*
X62334Y57654D01*
X62433Y57587D01*
X62550Y57564D01*
X62667Y57587D01*
X62766Y57654D01*
X62833Y57753D01*
X62856Y57870D01*
X62833Y57987D01*
X62766Y58086D01*
X62667Y58153D01*
X62550Y58176D01*
D02*
G37*
G36*
X37200Y58606D02*
X37083Y58583D01*
X36984Y58516D01*
X36917Y58417D01*
X36894Y58300D01*
X36917Y58183D01*
X36984Y58084D01*
X37083Y58017D01*
X37200Y57994D01*
X37317Y58017D01*
X37416Y58084D01*
X37483Y58183D01*
X37506Y58300D01*
X37483Y58417D01*
X37416Y58516D01*
X37317Y58583D01*
X37200Y58606D01*
D02*
G37*
G36*
X38000D02*
X37883Y58583D01*
X37784Y58516D01*
X37717Y58417D01*
X37694Y58300D01*
X37717Y58183D01*
X37784Y58084D01*
X37883Y58017D01*
X38000Y57994D01*
X38117Y58017D01*
X38216Y58084D01*
X38283Y58183D01*
X38306Y58300D01*
X38283Y58417D01*
X38216Y58516D01*
X38117Y58583D01*
X38000Y58606D01*
D02*
G37*
G36*
X35600D02*
X35483Y58583D01*
X35384Y58516D01*
X35317Y58417D01*
X35294Y58300D01*
X35317Y58183D01*
X35384Y58084D01*
X35483Y58017D01*
X35600Y57994D01*
X35717Y58017D01*
X35816Y58084D01*
X35883Y58183D01*
X35906Y58300D01*
X35883Y58417D01*
X35816Y58516D01*
X35717Y58583D01*
X35600Y58606D01*
D02*
G37*
G36*
X38000Y64206D02*
X37883Y64183D01*
X37784Y64116D01*
X37717Y64017D01*
X37694Y63900D01*
X37717Y63783D01*
X37784Y63684D01*
X37883Y63617D01*
X38000Y63594D01*
X38117Y63617D01*
X38216Y63684D01*
X38283Y63783D01*
X38306Y63900D01*
X38283Y64017D01*
X38216Y64116D01*
X38117Y64183D01*
X38000Y64206D01*
D02*
G37*
G36*
X53500Y73306D02*
X53383Y73283D01*
X53284Y73216D01*
X53217Y73117D01*
X53194Y73000D01*
X53217Y72883D01*
X53284Y72784D01*
X53383Y72717D01*
X53500Y72694D01*
X53617Y72717D01*
X53716Y72784D01*
X53783Y72883D01*
X53806Y73000D01*
X53783Y73117D01*
X53716Y73216D01*
X53617Y73283D01*
X53500Y73306D01*
D02*
G37*
G36*
X36800Y73156D02*
X36683Y73133D01*
X36584Y73066D01*
X36517Y72967D01*
X36494Y72850D01*
X36517Y72733D01*
X36584Y72634D01*
X36683Y72567D01*
X36800Y72544D01*
X36917Y72567D01*
X37016Y72634D01*
X37083Y72733D01*
X37106Y72850D01*
X37083Y72967D01*
X37016Y73066D01*
X36917Y73133D01*
X36800Y73156D01*
D02*
G37*
G36*
X66750Y72986D02*
X66633Y72963D01*
X66534Y72896D01*
X66467Y72797D01*
X66444Y72680D01*
X66467Y72563D01*
X66534Y72464D01*
X66633Y72397D01*
X66750Y72374D01*
X66867Y72397D01*
X66966Y72464D01*
X67033Y72563D01*
X67056Y72680D01*
X67033Y72797D01*
X66966Y72896D01*
X66867Y72963D01*
X66750Y72986D01*
D02*
G37*
G36*
X56350Y75358D02*
X56194Y75327D01*
X56062Y75238D01*
X55973Y75106D01*
X55942Y74950D01*
X55973Y74794D01*
X56062Y74662D01*
X56194Y74573D01*
X56350Y74542D01*
X56506Y74573D01*
X56638Y74662D01*
X56727Y74794D01*
X56758Y74950D01*
X56727Y75106D01*
X56638Y75238D01*
X56506Y75327D01*
X56350Y75358D01*
D02*
G37*
G36*
X55570Y73306D02*
X55453Y73283D01*
X55354Y73216D01*
X55287Y73117D01*
X55264Y73000D01*
X55287Y72883D01*
X55354Y72784D01*
X55453Y72717D01*
X55570Y72694D01*
X55687Y72717D01*
X55786Y72784D01*
X55853Y72883D01*
X55876Y73000D01*
X55853Y73117D01*
X55786Y73216D01*
X55687Y73283D01*
X55570Y73306D01*
D02*
G37*
G36*
X57630D02*
X57513Y73283D01*
X57414Y73216D01*
X57347Y73117D01*
X57324Y73000D01*
X57347Y72883D01*
X57414Y72784D01*
X57513Y72717D01*
X57630Y72694D01*
X57747Y72717D01*
X57846Y72784D01*
X57913Y72883D01*
X57936Y73000D01*
X57913Y73117D01*
X57846Y73216D01*
X57747Y73283D01*
X57630Y73306D01*
D02*
G37*
G36*
X39680Y70166D02*
X39563Y70143D01*
X39464Y70076D01*
X39397Y69977D01*
X39374Y69860D01*
X39397Y69743D01*
X39464Y69644D01*
X39563Y69577D01*
X39680Y69554D01*
X39797Y69577D01*
X39896Y69644D01*
X39963Y69743D01*
X39986Y69860D01*
X39963Y69977D01*
X39896Y70076D01*
X39797Y70143D01*
X39680Y70166D01*
D02*
G37*
G36*
X37200Y67406D02*
X37083Y67383D01*
X36984Y67316D01*
X36917Y67217D01*
X36894Y67100D01*
X36917Y66983D01*
X36984Y66884D01*
X37083Y66817D01*
X37200Y66794D01*
X37317Y66817D01*
X37416Y66884D01*
X37483Y66983D01*
X37506Y67100D01*
X37483Y67217D01*
X37416Y67316D01*
X37317Y67383D01*
X37200Y67406D01*
D02*
G37*
G36*
X64700Y69196D02*
X64583Y69173D01*
X64484Y69106D01*
X64417Y69007D01*
X64394Y68890D01*
X64417Y68773D01*
X64484Y68674D01*
X64583Y68607D01*
X64700Y68584D01*
X64817Y68607D01*
X64916Y68674D01*
X64983Y68773D01*
X65006Y68890D01*
X64983Y69007D01*
X64916Y69106D01*
X64817Y69173D01*
X64700Y69196D01*
D02*
G37*
G36*
X37200Y69006D02*
X37083Y68983D01*
X36984Y68916D01*
X36917Y68817D01*
X36894Y68700D01*
X36917Y68583D01*
X36984Y68484D01*
X37083Y68417D01*
X37200Y68394D01*
X37317Y68417D01*
X37416Y68484D01*
X37483Y68583D01*
X37506Y68700D01*
X37483Y68817D01*
X37416Y68916D01*
X37317Y68983D01*
X37200Y69006D01*
D02*
G37*
G36*
X35600D02*
X35483Y68983D01*
X35384Y68916D01*
X35317Y68817D01*
X35294Y68700D01*
X35317Y68583D01*
X35384Y68484D01*
X35483Y68417D01*
X35600Y68394D01*
X35717Y68417D01*
X35816Y68484D01*
X35883Y68583D01*
X35906Y68700D01*
X35883Y68817D01*
X35816Y68916D01*
X35717Y68983D01*
X35600Y69006D01*
D02*
G37*
G36*
X9250Y92381D02*
X9133Y92358D01*
X9034Y92291D01*
X8967Y92192D01*
X8944Y92075D01*
X8967Y91958D01*
X9034Y91859D01*
X9133Y91792D01*
X9250Y91769D01*
X9367Y91792D01*
X9466Y91859D01*
X9533Y91958D01*
X9556Y92075D01*
X9533Y92192D01*
X9466Y92291D01*
X9367Y92358D01*
X9250Y92381D01*
D02*
G37*
G36*
Y93131D02*
X9133Y93108D01*
X9034Y93041D01*
X8967Y92942D01*
X8944Y92825D01*
X8967Y92708D01*
X9034Y92609D01*
X9133Y92542D01*
X9250Y92519D01*
X9367Y92542D01*
X9466Y92609D01*
X9533Y92708D01*
X9556Y92825D01*
X9533Y92942D01*
X9466Y93041D01*
X9367Y93108D01*
X9250Y93131D01*
D02*
G37*
G36*
X9000Y91006D02*
X8883Y90983D01*
X8784Y90916D01*
X8717Y90817D01*
X8694Y90700D01*
X8717Y90583D01*
X8784Y90484D01*
X8883Y90417D01*
X9000Y90394D01*
X9117Y90417D01*
X9216Y90484D01*
X9283Y90583D01*
X9306Y90700D01*
X9283Y90817D01*
X9216Y90916D01*
X9117Y90983D01*
X9000Y91006D01*
D02*
G37*
G36*
X36500Y85956D02*
X36383Y85933D01*
X36284Y85866D01*
X36217Y85767D01*
X36194Y85650D01*
X36217Y85533D01*
X36284Y85434D01*
X36383Y85367D01*
X36500Y85344D01*
X36617Y85367D01*
X36716Y85434D01*
X36783Y85533D01*
X36806Y85650D01*
X36783Y85767D01*
X36716Y85866D01*
X36617Y85933D01*
X36500Y85956D01*
D02*
G37*
G36*
X38000Y65006D02*
X37883Y64983D01*
X37784Y64916D01*
X37717Y64817D01*
X37694Y64700D01*
X37717Y64583D01*
X37784Y64484D01*
X37883Y64417D01*
X38000Y64394D01*
X38117Y64417D01*
X38216Y64484D01*
X38283Y64583D01*
X38306Y64700D01*
X38283Y64817D01*
X38216Y64916D01*
X38117Y64983D01*
X38000Y65006D01*
D02*
G37*
G36*
X38800D02*
X38683Y64983D01*
X38584Y64916D01*
X38517Y64817D01*
X38494Y64700D01*
X38517Y64583D01*
X38584Y64484D01*
X38683Y64417D01*
X38800Y64394D01*
X38917Y64417D01*
X39016Y64484D01*
X39083Y64583D01*
X39106Y64700D01*
X39083Y64817D01*
X39016Y64916D01*
X38917Y64983D01*
X38800Y65006D01*
D02*
G37*
G36*
X35600D02*
X35483Y64983D01*
X35384Y64916D01*
X35317Y64817D01*
X35294Y64700D01*
X35317Y64583D01*
X35384Y64484D01*
X35483Y64417D01*
X35600Y64394D01*
X35717Y64417D01*
X35816Y64484D01*
X35883Y64583D01*
X35906Y64700D01*
X35883Y64817D01*
X35816Y64916D01*
X35717Y64983D01*
X35600Y65006D01*
D02*
G37*
G36*
X52650Y65506D02*
X52533Y65483D01*
X52434Y65416D01*
X52367Y65317D01*
X52344Y65200D01*
X52367Y65083D01*
X52434Y64984D01*
X52533Y64917D01*
X52650Y64894D01*
X52767Y64917D01*
X52866Y64984D01*
X52933Y65083D01*
X52956Y65200D01*
X52933Y65317D01*
X52866Y65416D01*
X52767Y65483D01*
X52650Y65506D01*
D02*
G37*
G36*
X53450D02*
X53333Y65483D01*
X53234Y65416D01*
X53167Y65317D01*
X53144Y65200D01*
X53167Y65083D01*
X53234Y64984D01*
X53333Y64917D01*
X53450Y64894D01*
X53567Y64917D01*
X53666Y64984D01*
X53733Y65083D01*
X53756Y65200D01*
X53733Y65317D01*
X53666Y65416D01*
X53567Y65483D01*
X53450Y65506D01*
D02*
G37*
G36*
X51850D02*
X51733Y65483D01*
X51634Y65416D01*
X51567Y65317D01*
X51544Y65200D01*
X51567Y65083D01*
X51634Y64984D01*
X51733Y64917D01*
X51850Y64894D01*
X51967Y64917D01*
X52066Y64984D01*
X52133Y65083D01*
X52156Y65200D01*
X52133Y65317D01*
X52066Y65416D01*
X51967Y65483D01*
X51850Y65506D01*
D02*
G37*
G36*
X39850Y65066D02*
X39733Y65043D01*
X39634Y64976D01*
X39567Y64877D01*
X39544Y64760D01*
X39567Y64643D01*
X39634Y64544D01*
X39733Y64477D01*
X39850Y64454D01*
X39967Y64477D01*
X40066Y64544D01*
X40133Y64643D01*
X40156Y64760D01*
X40133Y64877D01*
X40066Y64976D01*
X39967Y65043D01*
X39850Y65066D01*
D02*
G37*
G36*
X42000Y65206D02*
X41883Y65183D01*
X41784Y65116D01*
X41717Y65017D01*
X41694Y64900D01*
X41717Y64783D01*
X41784Y64684D01*
X41883Y64617D01*
X42000Y64594D01*
X42117Y64617D01*
X42216Y64684D01*
X42283Y64783D01*
X42306Y64900D01*
X42283Y65017D01*
X42216Y65116D01*
X42117Y65183D01*
X42000Y65206D01*
D02*
G37*
G36*
X39850Y64326D02*
X39733Y64303D01*
X39634Y64236D01*
X39567Y64137D01*
X39544Y64020D01*
X39567Y63903D01*
X39634Y63804D01*
X39733Y63737D01*
X39850Y63714D01*
X39967Y63737D01*
X40066Y63804D01*
X40133Y63903D01*
X40156Y64020D01*
X40133Y64137D01*
X40066Y64236D01*
X39967Y64303D01*
X39850Y64326D01*
D02*
G37*
G36*
X54250Y64706D02*
X54133Y64682D01*
X54034Y64616D01*
X53967Y64517D01*
X53944Y64400D01*
X53967Y64283D01*
X54034Y64184D01*
X54133Y64117D01*
X54250Y64094D01*
X54367Y64117D01*
X54466Y64184D01*
X54533Y64283D01*
X54556Y64400D01*
X54533Y64517D01*
X54466Y64616D01*
X54367Y64682D01*
X54250Y64706D01*
D02*
G37*
G36*
X57050Y63806D02*
X56933Y63783D01*
X56834Y63716D01*
X56777Y63632D01*
X56748Y63624D01*
X56721Y63623D01*
X56668Y63629D01*
X56616Y63706D01*
X56517Y63773D01*
X56400Y63796D01*
X56283Y63773D01*
X56184Y63706D01*
X56132Y63629D01*
X56079Y63623D01*
X56052Y63624D01*
X56023Y63632D01*
X55966Y63716D01*
X55867Y63783D01*
X55750Y63806D01*
X55633Y63783D01*
X55534Y63716D01*
X55467Y63617D01*
X55444Y63500D01*
X55467Y63383D01*
X55534Y63284D01*
X55633Y63217D01*
X55750Y63194D01*
X55867Y63217D01*
X55966Y63284D01*
X56018Y63361D01*
X56071Y63367D01*
X56098Y63366D01*
X56127Y63358D01*
X56184Y63274D01*
X56283Y63207D01*
X56400Y63184D01*
X56517Y63207D01*
X56616Y63274D01*
X56673Y63358D01*
X56702Y63366D01*
X56729Y63367D01*
X56782Y63361D01*
X56834Y63284D01*
X56933Y63217D01*
X57050Y63194D01*
X57167Y63217D01*
X57266Y63284D01*
X57333Y63383D01*
X57356Y63500D01*
X57333Y63617D01*
X57266Y63716D01*
X57167Y63783D01*
X57050Y63806D01*
D02*
G37*
G36*
X38800Y64206D02*
X38683Y64183D01*
X38584Y64116D01*
X38517Y64017D01*
X38494Y63900D01*
X38517Y63783D01*
X38584Y63684D01*
X38683Y63617D01*
X38800Y63594D01*
X38917Y63617D01*
X39016Y63684D01*
X39083Y63783D01*
X39106Y63900D01*
X39083Y64017D01*
X39016Y64116D01*
X38917Y64183D01*
X38800Y64206D01*
D02*
G37*
G36*
X55850Y64706D02*
X55733Y64683D01*
X55634Y64616D01*
X55567Y64517D01*
X55544Y64400D01*
X55567Y64283D01*
X55634Y64184D01*
X55733Y64117D01*
X55850Y64094D01*
X55967Y64117D01*
X56066Y64184D01*
X56133Y64283D01*
X56156Y64400D01*
X56133Y64517D01*
X56066Y64616D01*
X55967Y64683D01*
X55850Y64706D01*
D02*
G37*
G36*
X53450D02*
X53333Y64683D01*
X53234Y64616D01*
X53167Y64517D01*
X53144Y64400D01*
X53167Y64283D01*
X53234Y64184D01*
X53333Y64117D01*
X53450Y64094D01*
X53567Y64117D01*
X53666Y64184D01*
X53733Y64283D01*
X53756Y64400D01*
X53733Y64517D01*
X53666Y64616D01*
X53567Y64683D01*
X53450Y64706D01*
D02*
G37*
G36*
X55050D02*
X54933Y64683D01*
X54834Y64616D01*
X54767Y64517D01*
X54744Y64400D01*
X54767Y64283D01*
X54834Y64184D01*
X54933Y64117D01*
X55050Y64094D01*
X55167Y64117D01*
X55266Y64184D01*
X55333Y64283D01*
X55356Y64400D01*
X55333Y64517D01*
X55266Y64616D01*
X55167Y64683D01*
X55050Y64706D01*
D02*
G37*
G36*
X54650Y66426D02*
X54533Y66403D01*
X54434Y66336D01*
X54367Y66237D01*
X54344Y66120D01*
X54367Y66003D01*
X54434Y65904D01*
X54533Y65837D01*
X54650Y65814D01*
X54767Y65837D01*
X54866Y65904D01*
X54933Y66003D01*
X54956Y66120D01*
X54933Y66237D01*
X54866Y66336D01*
X54767Y66403D01*
X54650Y66426D01*
D02*
G37*
G36*
X57850Y66406D02*
X57733Y66383D01*
X57634Y66316D01*
X57567Y66217D01*
X57544Y66100D01*
X57567Y65983D01*
X57634Y65884D01*
X57733Y65817D01*
X57850Y65794D01*
X57967Y65817D01*
X58066Y65884D01*
X58133Y65983D01*
X58156Y66100D01*
X58133Y66217D01*
X58066Y66316D01*
X57967Y66383D01*
X57850Y66406D01*
D02*
G37*
G36*
X53210Y66426D02*
X53093Y66403D01*
X52994Y66336D01*
X52927Y66237D01*
X52904Y66120D01*
X52927Y66003D01*
X52994Y65904D01*
X53093Y65837D01*
X53210Y65814D01*
X53327Y65837D01*
X53426Y65904D01*
X53493Y66003D01*
X53516Y66120D01*
X53493Y66237D01*
X53426Y66336D01*
X53327Y66403D01*
X53210Y66426D01*
D02*
G37*
G36*
X37200Y66606D02*
X37083Y66583D01*
X36984Y66516D01*
X36917Y66417D01*
X36894Y66300D01*
X36917Y66183D01*
X36984Y66084D01*
X37083Y66017D01*
X37200Y65994D01*
X37317Y66017D01*
X37416Y66084D01*
X37483Y66183D01*
X37506Y66300D01*
X37483Y66417D01*
X37416Y66516D01*
X37317Y66583D01*
X37200Y66606D01*
D02*
G37*
G36*
X35600D02*
X35483Y66583D01*
X35384Y66516D01*
X35317Y66417D01*
X35294Y66300D01*
X35317Y66183D01*
X35384Y66084D01*
X35483Y66017D01*
X35600Y65994D01*
X35717Y66017D01*
X35816Y66084D01*
X35883Y66183D01*
X35906Y66300D01*
X35883Y66417D01*
X35816Y66516D01*
X35717Y66583D01*
X35600Y66606D01*
D02*
G37*
G36*
X62590Y66406D02*
X62473Y66383D01*
X62374Y66316D01*
X62307Y66217D01*
X62284Y66100D01*
X62307Y65983D01*
X62374Y65884D01*
X62473Y65817D01*
X62590Y65794D01*
X62707Y65817D01*
X62806Y65884D01*
X62873Y65983D01*
X62896Y66100D01*
X62873Y66217D01*
X62806Y66316D01*
X62707Y66383D01*
X62590Y66406D01*
D02*
G37*
G36*
X38000Y65806D02*
X37883Y65783D01*
X37784Y65716D01*
X37717Y65617D01*
X37694Y65500D01*
X37717Y65383D01*
X37784Y65284D01*
X37883Y65217D01*
X38000Y65194D01*
X38117Y65217D01*
X38216Y65284D01*
X38283Y65383D01*
X38306Y65500D01*
X38283Y65617D01*
X38216Y65716D01*
X38117Y65783D01*
X38000Y65806D01*
D02*
G37*
G36*
X38800D02*
X38683Y65783D01*
X38584Y65716D01*
X38517Y65617D01*
X38494Y65500D01*
X38517Y65383D01*
X38584Y65284D01*
X38683Y65217D01*
X38800Y65194D01*
X38917Y65217D01*
X39016Y65284D01*
X39083Y65383D01*
X39106Y65500D01*
X39083Y65617D01*
X39016Y65716D01*
X38917Y65783D01*
X38800Y65806D01*
D02*
G37*
G36*
X55850Y65506D02*
X55733Y65483D01*
X55634Y65416D01*
X55567Y65317D01*
X55544Y65200D01*
X55567Y65083D01*
X55634Y64984D01*
X55733Y64917D01*
X55850Y64894D01*
X55967Y64917D01*
X56066Y64984D01*
X56133Y65083D01*
X56156Y65200D01*
X56133Y65317D01*
X56066Y65416D01*
X55967Y65483D01*
X55850Y65506D01*
D02*
G37*
G36*
X54250D02*
X54133Y65483D01*
X54034Y65416D01*
X53967Y65317D01*
X53944Y65200D01*
X53967Y65083D01*
X54034Y64984D01*
X54133Y64917D01*
X54250Y64894D01*
X54367Y64917D01*
X54466Y64984D01*
X54533Y65083D01*
X54556Y65200D01*
X54533Y65317D01*
X54466Y65416D01*
X54367Y65483D01*
X54250Y65506D01*
D02*
G37*
G36*
X55050D02*
X54933Y65483D01*
X54834Y65416D01*
X54767Y65317D01*
X54744Y65200D01*
X54767Y65083D01*
X54834Y64984D01*
X54933Y64917D01*
X55050Y64894D01*
X55167Y64917D01*
X55266Y64984D01*
X55333Y65083D01*
X55356Y65200D01*
X55333Y65317D01*
X55266Y65416D01*
X55167Y65483D01*
X55050Y65506D01*
D02*
G37*
G36*
X60250Y66406D02*
X60133Y66383D01*
X60034Y66316D01*
X59967Y66217D01*
X59944Y66100D01*
X59967Y65983D01*
X60034Y65884D01*
X60133Y65817D01*
X60250Y65794D01*
X60367Y65817D01*
X60466Y65884D01*
X60533Y65983D01*
X60556Y66100D01*
X60533Y66217D01*
X60466Y66316D01*
X60367Y66383D01*
X60250Y66406D01*
D02*
G37*
G36*
X61010D02*
X60893Y66383D01*
X60794Y66316D01*
X60727Y66217D01*
X60704Y66100D01*
X60727Y65983D01*
X60794Y65884D01*
X60893Y65817D01*
X61010Y65794D01*
X61127Y65817D01*
X61226Y65884D01*
X61293Y65983D01*
X61316Y66100D01*
X61293Y66217D01*
X61226Y66316D01*
X61127Y66383D01*
X61010Y66406D01*
D02*
G37*
G36*
X58650D02*
X58533Y66383D01*
X58434Y66316D01*
X58367Y66217D01*
X58344Y66100D01*
X58367Y65983D01*
X58434Y65884D01*
X58533Y65817D01*
X58650Y65794D01*
X58767Y65817D01*
X58866Y65884D01*
X58933Y65983D01*
X58956Y66100D01*
X58933Y66217D01*
X58866Y66316D01*
X58767Y66383D01*
X58650Y66406D01*
D02*
G37*
G36*
X39600Y65806D02*
X39483Y65783D01*
X39384Y65716D01*
X39317Y65617D01*
X39294Y65500D01*
X39317Y65383D01*
X39384Y65284D01*
X39483Y65217D01*
X39600Y65194D01*
X39717Y65217D01*
X39816Y65284D01*
X39883Y65383D01*
X39906Y65500D01*
X39883Y65617D01*
X39816Y65716D01*
X39717Y65783D01*
X39600Y65806D01*
D02*
G37*
G36*
X51100Y66426D02*
X50983Y66403D01*
X50884Y66336D01*
X50817Y66237D01*
X50794Y66120D01*
X50817Y66003D01*
X50871Y65922D01*
X50856Y65848D01*
X50838Y65814D01*
X50833Y65813D01*
X50734Y65746D01*
X50667Y65647D01*
X50644Y65530D01*
X50667Y65413D01*
X50734Y65314D01*
X50833Y65247D01*
X50950Y65224D01*
X51067Y65247D01*
X51166Y65314D01*
X51233Y65413D01*
X51256Y65530D01*
X51233Y65647D01*
X51179Y65728D01*
X51194Y65802D01*
X51212Y65836D01*
X51217Y65837D01*
X51316Y65904D01*
X51383Y66003D01*
X51406Y66120D01*
X51383Y66237D01*
X51316Y66336D01*
X51217Y66403D01*
X51100Y66426D01*
D02*
G37*
G36*
X30800Y63406D02*
X30683Y63383D01*
X30584Y63316D01*
X30517Y63217D01*
X30494Y63100D01*
X30517Y62983D01*
X30584Y62884D01*
X30683Y62817D01*
X30800Y62794D01*
X30917Y62817D01*
X31016Y62884D01*
X31083Y62983D01*
X31106Y63100D01*
X31083Y63217D01*
X31016Y63316D01*
X30917Y63383D01*
X30800Y63406D01*
D02*
G37*
G36*
X32400D02*
X32283Y63383D01*
X32184Y63316D01*
X32117Y63217D01*
X32094Y63100D01*
X32117Y62983D01*
X32184Y62884D01*
X32283Y62817D01*
X32400Y62794D01*
X32517Y62817D01*
X32616Y62884D01*
X32683Y62983D01*
X32706Y63100D01*
X32683Y63217D01*
X32616Y63316D01*
X32517Y63383D01*
X32400Y63406D01*
D02*
G37*
G36*
Y61806D02*
X32283Y61783D01*
X32184Y61716D01*
X32117Y61617D01*
X32094Y61500D01*
X32117Y61383D01*
X32184Y61284D01*
X32283Y61217D01*
X32400Y61194D01*
X32517Y61217D01*
X32616Y61284D01*
X32683Y61383D01*
X32706Y61500D01*
X32683Y61617D01*
X32616Y61716D01*
X32517Y61783D01*
X32400Y61806D01*
D02*
G37*
G36*
X30350Y73256D02*
X30233Y73233D01*
X30134Y73166D01*
X30067Y73067D01*
X30044Y72950D01*
X30067Y72833D01*
X30134Y72734D01*
X30233Y72667D01*
X30350Y72644D01*
X30467Y72667D01*
X30566Y72734D01*
X30633Y72833D01*
X30656Y72950D01*
X30633Y73067D01*
X30566Y73166D01*
X30467Y73233D01*
X30350Y73256D01*
D02*
G37*
G36*
X29850Y72706D02*
X29733Y72683D01*
X29634Y72616D01*
X29567Y72517D01*
X29544Y72400D01*
X29567Y72283D01*
X29634Y72184D01*
X29733Y72117D01*
X29850Y72094D01*
X29967Y72117D01*
X30066Y72184D01*
X30133Y72283D01*
X30156Y72400D01*
X30133Y72517D01*
X30066Y72616D01*
X29967Y72683D01*
X29850Y72706D01*
D02*
G37*
G36*
X29050Y84231D02*
X28933Y84208D01*
X28834Y84141D01*
X28767Y84042D01*
X28744Y83925D01*
X28767Y83808D01*
X28834Y83709D01*
X28933Y83642D01*
X29034Y83622D01*
X29059Y83606D01*
X29110Y83529D01*
X29094Y83450D01*
X29117Y83333D01*
X29184Y83234D01*
X29283Y83167D01*
X29400Y83144D01*
X29517Y83167D01*
X29616Y83234D01*
X29683Y83333D01*
X29706Y83450D01*
X29683Y83567D01*
X29616Y83666D01*
X29517Y83733D01*
X29416Y83753D01*
X29391Y83769D01*
X29340Y83846D01*
X29356Y83925D01*
X29333Y84042D01*
X29266Y84141D01*
X29167Y84208D01*
X29050Y84231D01*
D02*
G37*
G36*
X26825Y68181D02*
X26708Y68158D01*
X26609Y68091D01*
X26542Y67992D01*
X26519Y67875D01*
X26542Y67758D01*
X26609Y67659D01*
X26708Y67592D01*
X26825Y67569D01*
X26942Y67592D01*
X27041Y67659D01*
X27108Y67758D01*
X27131Y67875D01*
X27108Y67992D01*
X27041Y68091D01*
X26942Y68158D01*
X26825Y68181D01*
D02*
G37*
G36*
X27600Y68206D02*
X27483Y68183D01*
X27384Y68116D01*
X27317Y68017D01*
X27294Y67900D01*
X27317Y67783D01*
X27384Y67684D01*
X27483Y67617D01*
X27600Y67594D01*
X27717Y67617D01*
X27816Y67684D01*
X27883Y67783D01*
X27906Y67900D01*
X27883Y68017D01*
X27816Y68116D01*
X27717Y68183D01*
X27600Y68206D01*
D02*
G37*
G36*
X30825Y68181D02*
X30708Y68158D01*
X30609Y68091D01*
X30542Y67992D01*
X30519Y67875D01*
X30542Y67758D01*
X30609Y67659D01*
X30708Y67592D01*
X30825Y67569D01*
X30942Y67592D01*
X31041Y67659D01*
X31108Y67758D01*
X31131Y67875D01*
X31108Y67992D01*
X31041Y68091D01*
X30942Y68158D01*
X30825Y68181D01*
D02*
G37*
G36*
X27600Y67406D02*
X27483Y67383D01*
X27384Y67316D01*
X27317Y67217D01*
X27294Y67100D01*
X27317Y66983D01*
X27384Y66884D01*
X27483Y66817D01*
X27600Y66794D01*
X27717Y66817D01*
X27816Y66884D01*
X27883Y66983D01*
X27906Y67100D01*
X27883Y67217D01*
X27816Y67316D01*
X27717Y67383D01*
X27600Y67406D01*
D02*
G37*
G36*
X29200Y69806D02*
X29083Y69783D01*
X28984Y69716D01*
X28917Y69617D01*
X28894Y69500D01*
X28917Y69383D01*
X28984Y69284D01*
X29083Y69217D01*
X29200Y69194D01*
X29317Y69217D01*
X29416Y69284D01*
X29483Y69383D01*
X29506Y69500D01*
X29483Y69617D01*
X29416Y69716D01*
X29317Y69783D01*
X29200Y69806D01*
D02*
G37*
G36*
X30825Y68981D02*
X30708Y68958D01*
X30609Y68891D01*
X30542Y68792D01*
X30519Y68675D01*
X30542Y68558D01*
X30609Y68459D01*
X30708Y68392D01*
X30825Y68369D01*
X30942Y68392D01*
X31041Y68459D01*
X31108Y68558D01*
X31131Y68675D01*
X31108Y68792D01*
X31041Y68891D01*
X30942Y68958D01*
X30825Y68981D01*
D02*
G37*
G36*
X28900Y87281D02*
X28783Y87258D01*
X28684Y87191D01*
X28617Y87092D01*
X28594Y86975D01*
X28617Y86858D01*
X28684Y86759D01*
X28783Y86692D01*
X28900Y86669D01*
X29017Y86692D01*
X29116Y86759D01*
X29183Y86858D01*
X29206Y86975D01*
X29183Y87092D01*
X29116Y87191D01*
X29017Y87258D01*
X28900Y87281D01*
D02*
G37*
G36*
X30075D02*
X29958Y87258D01*
X29859Y87191D01*
X29792Y87092D01*
X29769Y86975D01*
X29792Y86858D01*
X29859Y86759D01*
X29958Y86692D01*
X30075Y86669D01*
X30192Y86692D01*
X30291Y86759D01*
X30358Y86858D01*
X30381Y86975D01*
X30358Y87092D01*
X30291Y87191D01*
X30192Y87258D01*
X30075Y87281D01*
D02*
G37*
G36*
X27750Y88731D02*
X27633Y88708D01*
X27534Y88641D01*
X27467Y88542D01*
X27444Y88425D01*
X27467Y88308D01*
X27534Y88209D01*
X27633Y88142D01*
X27750Y88119D01*
X27867Y88142D01*
X27966Y88209D01*
X28033Y88308D01*
X28056Y88425D01*
X28033Y88542D01*
X27966Y88641D01*
X27867Y88708D01*
X27750Y88731D01*
D02*
G37*
G36*
X27650Y89756D02*
X27533Y89733D01*
X27434Y89666D01*
X27367Y89567D01*
X27344Y89450D01*
X27367Y89333D01*
X27434Y89234D01*
X27533Y89167D01*
X27650Y89144D01*
X27767Y89167D01*
X27866Y89234D01*
X27933Y89333D01*
X27956Y89450D01*
X27933Y89567D01*
X27866Y89666D01*
X27767Y89733D01*
X27650Y89756D01*
D02*
G37*
G36*
X28900Y86231D02*
X28783Y86208D01*
X28684Y86141D01*
X28617Y86042D01*
X28594Y85925D01*
X28617Y85808D01*
X28684Y85709D01*
X28783Y85642D01*
X28900Y85619D01*
X29017Y85642D01*
X29116Y85709D01*
X29183Y85808D01*
X29206Y85925D01*
X29183Y86042D01*
X29116Y86141D01*
X29017Y86208D01*
X28900Y86231D01*
D02*
G37*
G36*
X29675D02*
X29558Y86208D01*
X29459Y86141D01*
X29392Y86042D01*
X29369Y85925D01*
X29392Y85808D01*
X29459Y85709D01*
X29558Y85642D01*
X29675Y85619D01*
X29792Y85642D01*
X29891Y85709D01*
X29958Y85808D01*
X29981Y85925D01*
X29958Y86042D01*
X29891Y86141D01*
X29792Y86208D01*
X29675Y86231D01*
D02*
G37*
G36*
X30800Y65006D02*
X30683Y64983D01*
X30584Y64916D01*
X30517Y64817D01*
X30494Y64700D01*
X30517Y64583D01*
X30584Y64484D01*
X30683Y64417D01*
X30800Y64394D01*
X30917Y64417D01*
X31016Y64484D01*
X31083Y64583D01*
X31106Y64700D01*
X31083Y64817D01*
X31016Y64916D01*
X30917Y64983D01*
X30800Y65006D01*
D02*
G37*
G36*
X32400D02*
X32283Y64983D01*
X32184Y64916D01*
X32117Y64817D01*
X32094Y64700D01*
X32117Y64583D01*
X32184Y64484D01*
X32283Y64417D01*
X32400Y64394D01*
X32517Y64417D01*
X32616Y64484D01*
X32683Y64583D01*
X32706Y64700D01*
X32683Y64817D01*
X32616Y64916D01*
X32517Y64983D01*
X32400Y65006D01*
D02*
G37*
G36*
X29200D02*
X29083Y64983D01*
X28984Y64916D01*
X28917Y64817D01*
X28894Y64700D01*
X28917Y64583D01*
X28984Y64484D01*
X29083Y64417D01*
X29200Y64394D01*
X29317Y64417D01*
X29416Y64484D01*
X29483Y64583D01*
X29506Y64700D01*
X29483Y64817D01*
X29416Y64916D01*
X29317Y64983D01*
X29200Y65006D01*
D02*
G37*
G36*
X27600Y64216D02*
X27483Y64193D01*
X27384Y64126D01*
X27317Y64027D01*
X27294Y63910D01*
X27317Y63793D01*
X27384Y63694D01*
X27483Y63627D01*
X27600Y63604D01*
X27717Y63627D01*
X27816Y63694D01*
X27883Y63793D01*
X27906Y63910D01*
X27883Y64027D01*
X27816Y64126D01*
X27717Y64193D01*
X27600Y64216D01*
D02*
G37*
G36*
X26000Y65006D02*
X25883Y64983D01*
X25784Y64916D01*
X25717Y64817D01*
X25694Y64700D01*
X25717Y64583D01*
X25784Y64484D01*
X25883Y64417D01*
X26000Y64394D01*
X26117Y64417D01*
X26216Y64484D01*
X26283Y64583D01*
X26306Y64700D01*
X26283Y64817D01*
X26216Y64916D01*
X26117Y64983D01*
X26000Y65006D01*
D02*
G37*
G36*
X26800D02*
X26683Y64983D01*
X26584Y64916D01*
X26517Y64817D01*
X26494Y64700D01*
X26517Y64583D01*
X26584Y64484D01*
X26683Y64417D01*
X26800Y64394D01*
X26917Y64417D01*
X27016Y64484D01*
X27083Y64583D01*
X27106Y64700D01*
X27083Y64817D01*
X27016Y64916D01*
X26917Y64983D01*
X26800Y65006D01*
D02*
G37*
G36*
X27600Y66606D02*
X27483Y66583D01*
X27384Y66516D01*
X27317Y66417D01*
X27294Y66300D01*
X27317Y66183D01*
X27384Y66084D01*
X27483Y66017D01*
X27600Y65994D01*
X27717Y66017D01*
X27816Y66084D01*
X27883Y66183D01*
X27906Y66300D01*
X27883Y66417D01*
X27816Y66516D01*
X27717Y66583D01*
X27600Y66606D01*
D02*
G37*
G36*
X29200D02*
X29083Y66583D01*
X28984Y66516D01*
X28917Y66417D01*
X28894Y66300D01*
X28917Y66183D01*
X28984Y66084D01*
X29083Y66017D01*
X29200Y65994D01*
X29317Y66017D01*
X29416Y66084D01*
X29483Y66183D01*
X29506Y66300D01*
X29483Y66417D01*
X29416Y66516D01*
X29317Y66583D01*
X29200Y66606D01*
D02*
G37*
G36*
X25200Y67406D02*
X25083Y67383D01*
X24984Y67316D01*
X24917Y67217D01*
X24894Y67100D01*
X24917Y66983D01*
X24984Y66884D01*
X25083Y66817D01*
X25200Y66794D01*
X25317Y66817D01*
X25416Y66884D01*
X25483Y66983D01*
X25506Y67100D01*
X25483Y67217D01*
X25416Y67316D01*
X25317Y67383D01*
X25200Y67406D01*
D02*
G37*
G36*
X30800Y66606D02*
X30683Y66583D01*
X30584Y66516D01*
X30517Y66417D01*
X30494Y66300D01*
X30517Y66183D01*
X30584Y66084D01*
X30683Y66017D01*
X30800Y65994D01*
X30917Y66017D01*
X31016Y66084D01*
X31083Y66183D01*
X31106Y66300D01*
X31083Y66417D01*
X31016Y66516D01*
X30917Y66583D01*
X30800Y66606D01*
D02*
G37*
G36*
X32400D02*
X32283Y66583D01*
X32184Y66516D01*
X32117Y66417D01*
X32094Y66300D01*
X32117Y66183D01*
X32184Y66084D01*
X32283Y66017D01*
X32400Y65994D01*
X32517Y66017D01*
X32616Y66084D01*
X32683Y66183D01*
X32706Y66300D01*
X32683Y66417D01*
X32616Y66516D01*
X32517Y66583D01*
X32400Y66606D01*
D02*
G37*
G36*
X33200Y57006D02*
X33083Y56983D01*
X32984Y56916D01*
X32917Y56817D01*
X32894Y56700D01*
X32917Y56583D01*
X32984Y56484D01*
X33083Y56417D01*
X33200Y56394D01*
X33317Y56417D01*
X33416Y56484D01*
X33483Y56583D01*
X33506Y56700D01*
X33483Y56817D01*
X33416Y56916D01*
X33317Y56983D01*
X33200Y57006D01*
D02*
G37*
G36*
X28525Y54106D02*
X28408Y54083D01*
X28309Y54016D01*
X28242Y53917D01*
X28219Y53800D01*
X28242Y53683D01*
X28309Y53584D01*
X28408Y53517D01*
X28525Y53494D01*
X28642Y53517D01*
X28741Y53584D01*
X28808Y53683D01*
X28831Y53800D01*
X28808Y53917D01*
X28741Y54016D01*
X28642Y54083D01*
X28525Y54106D01*
D02*
G37*
G36*
X22000Y87106D02*
X21883Y87083D01*
X21784Y87016D01*
X21717Y86917D01*
X21694Y86800D01*
X21717Y86683D01*
X21784Y86584D01*
X21883Y86517D01*
X22000Y86494D01*
X22117Y86517D01*
X22216Y86584D01*
X22283Y86683D01*
X22306Y86800D01*
X22283Y86917D01*
X22216Y87016D01*
X22117Y87083D01*
X22000Y87106D01*
D02*
G37*
G36*
Y84606D02*
X21883Y84583D01*
X21843Y84556D01*
X21750Y84527D01*
X21657Y84556D01*
X21617Y84583D01*
X21500Y84606D01*
X21383Y84583D01*
X21284Y84516D01*
X21217Y84417D01*
X21194Y84300D01*
X21217Y84183D01*
X21284Y84084D01*
X21383Y84017D01*
X21500Y83994D01*
X21617Y84017D01*
X21716Y84084D01*
X21784D01*
X21883Y84017D01*
X22000Y83994D01*
X22117Y84017D01*
X22216Y84084D01*
X22283Y84183D01*
X22306Y84300D01*
X22283Y84417D01*
X22216Y84516D01*
X22117Y84583D01*
X22000Y84606D01*
D02*
G37*
G36*
X14000Y81856D02*
X13883Y81833D01*
X13784Y81766D01*
X13717Y81667D01*
X13694Y81550D01*
X13717Y81433D01*
X13784Y81334D01*
X13883Y81267D01*
X14000Y81244D01*
X14117Y81267D01*
X14216Y81334D01*
X14283Y81433D01*
X14306Y81550D01*
X14283Y81667D01*
X14216Y81766D01*
X14117Y81833D01*
X14000Y81856D01*
D02*
G37*
G36*
X12975Y86506D02*
X12858Y86483D01*
X12759Y86416D01*
X12692Y86317D01*
X12669Y86200D01*
X12692Y86083D01*
X12759Y85984D01*
X12858Y85917D01*
X12975Y85894D01*
X13092Y85917D01*
X13191Y85984D01*
X13258Y86083D01*
X13281Y86200D01*
X13258Y86317D01*
X13191Y86416D01*
X13092Y86483D01*
X12975Y86506D01*
D02*
G37*
G36*
X14725D02*
X14608Y86483D01*
X14509Y86416D01*
X14442Y86317D01*
X14419Y86200D01*
X14442Y86083D01*
X14509Y85984D01*
X14608Y85917D01*
X14725Y85894D01*
X14842Y85917D01*
X14941Y85984D01*
X15008Y86083D01*
X15031Y86200D01*
X15008Y86317D01*
X14941Y86416D01*
X14842Y86483D01*
X14725Y86506D01*
D02*
G37*
G36*
X11275D02*
X11158Y86483D01*
X11059Y86416D01*
X10992Y86317D01*
X10969Y86200D01*
X10992Y86083D01*
X11059Y85984D01*
X11158Y85917D01*
X11275Y85894D01*
X11392Y85917D01*
X11491Y85984D01*
X11558Y86083D01*
X11581Y86200D01*
X11558Y86317D01*
X11491Y86416D01*
X11392Y86483D01*
X11275Y86506D01*
D02*
G37*
G36*
X11250Y85306D02*
X11133Y85283D01*
X11034Y85216D01*
X10967Y85117D01*
X10944Y85000D01*
X10967Y84883D01*
X11034Y84784D01*
X11133Y84717D01*
X11250Y84694D01*
X11367Y84717D01*
X11466Y84784D01*
X11533Y84883D01*
X11556Y85000D01*
X11533Y85117D01*
X11466Y85216D01*
X11367Y85283D01*
X11250Y85306D01*
D02*
G37*
G36*
X14725Y84106D02*
X14608Y84083D01*
X14509Y84016D01*
X14442Y83917D01*
X14419Y83800D01*
X14442Y83683D01*
X14509Y83584D01*
X14608Y83517D01*
X14725Y83494D01*
X14842Y83517D01*
X14941Y83584D01*
X15008Y83683D01*
X15031Y83800D01*
X15008Y83917D01*
X14941Y84016D01*
X14842Y84083D01*
X14725Y84106D01*
D02*
G37*
G36*
X11275D02*
X11158Y84083D01*
X11059Y84016D01*
X10992Y83917D01*
X10969Y83800D01*
X10992Y83683D01*
X11059Y83584D01*
X11158Y83517D01*
X11275Y83494D01*
X11392Y83517D01*
X11491Y83584D01*
X11558Y83683D01*
X11581Y83800D01*
X11558Y83917D01*
X11491Y84016D01*
X11392Y84083D01*
X11275Y84106D01*
D02*
G37*
G36*
X12975D02*
X12858Y84083D01*
X12759Y84016D01*
X12692Y83917D01*
X12669Y83800D01*
X12692Y83683D01*
X12759Y83584D01*
X12858Y83517D01*
X12975Y83494D01*
X13092Y83517D01*
X13191Y83584D01*
X13258Y83683D01*
X13281Y83800D01*
X13258Y83917D01*
X13191Y84016D01*
X13092Y84083D01*
X12975Y84106D01*
D02*
G37*
G36*
Y85331D02*
X12858Y85308D01*
X12759Y85241D01*
X12692Y85142D01*
X12669Y85025D01*
X12692Y84908D01*
X12759Y84809D01*
X12858Y84742D01*
X12975Y84719D01*
X13092Y84742D01*
X13191Y84809D01*
X13258Y84908D01*
X13281Y85025D01*
X13258Y85142D01*
X13191Y85241D01*
X13092Y85308D01*
X12975Y85331D01*
D02*
G37*
G36*
X14725D02*
X14608Y85308D01*
X14509Y85241D01*
X14442Y85142D01*
X14419Y85025D01*
X14442Y84908D01*
X14509Y84809D01*
X14608Y84742D01*
X14725Y84719D01*
X14842Y84742D01*
X14941Y84809D01*
X15008Y84908D01*
X15031Y85025D01*
X15008Y85142D01*
X14941Y85241D01*
X14842Y85308D01*
X14725Y85331D01*
D02*
G37*
%LPD*%
D18*
X27725Y92800D02*
D03*
X34200Y52605D02*
D03*
X26825Y67875D02*
D03*
X26000Y68700D02*
D03*
X25225Y69475D02*
D03*
X28525Y53800D02*
D03*
X27875Y53375D02*
D03*
X26000Y59900D02*
D03*
X32400Y56700D02*
D03*
X34950Y54125D02*
D03*
X36000Y54934D02*
D03*
X36400Y55900D02*
D03*
X34000Y56700D02*
D03*
X35600D02*
D03*
X34800D02*
D03*
X34000Y55900D02*
D03*
X34000Y67900D02*
D03*
X26800Y60700D02*
D03*
X26000Y63100D02*
D03*
X26800Y64700D02*
D03*
X26000D02*
D03*
X25200Y67100D02*
D03*
X37200Y57500D02*
D03*
X30800Y56700D02*
D03*
X29200D02*
D03*
X24450Y55200D02*
D03*
X25200Y59100D02*
D03*
X35600Y68700D02*
D03*
X42130Y77620D02*
D03*
X54290Y52020D02*
D03*
X36790Y52680D02*
D03*
X39030Y51280D02*
D03*
X38230D02*
D03*
X42130Y78400D02*
D03*
X56380Y73000D02*
D03*
X52000Y53150D02*
D03*
X54000D02*
D03*
X56100D02*
D03*
X58150D02*
D03*
X60750D02*
D03*
X55160Y52020D02*
D03*
X55270Y58050D02*
D03*
X57630Y73000D02*
D03*
X53500D02*
D03*
X69310Y58650D02*
D03*
X69300Y60800D02*
D03*
Y63050D02*
D03*
Y65090D02*
D03*
X39700Y59500D02*
D03*
X39600Y60700D02*
D03*
X55050Y59600D02*
D03*
X38000Y60700D02*
D03*
X53450Y60400D02*
D03*
X38000Y62300D02*
D03*
X54250Y60400D02*
D03*
X37200Y62300D02*
D03*
X54250Y61200D02*
D03*
X38800Y62300D02*
D03*
X57050Y63500D02*
D03*
X38000Y63100D02*
D03*
X56400Y63490D02*
D03*
X38800Y65500D02*
D03*
X53450Y64400D02*
D03*
X38000Y64700D02*
D03*
X53450Y65200D02*
D03*
X37200Y67100D02*
D03*
X51850Y65200D02*
D03*
X37200Y66300D02*
D03*
X50950Y65530D02*
D03*
X42000Y64900D02*
D03*
X50480Y56550D02*
D03*
X61850Y66100D02*
D03*
X51850Y58750D02*
D03*
X51070D02*
D03*
X51100Y66120D02*
D03*
X53210D02*
D03*
X53930D02*
D03*
X58650Y58700D02*
D03*
X56650Y58750D02*
D03*
X51750Y66120D02*
D03*
X37200Y68700D02*
D03*
X35600Y64700D02*
D03*
X40350Y62050D02*
D03*
Y62550D02*
D03*
X38800Y59900D02*
D03*
Y60700D02*
D03*
X38000Y59900D02*
D03*
Y58300D02*
D03*
X37200Y59900D02*
D03*
X38000Y59100D02*
D03*
Y65500D02*
D03*
X39680Y69860D02*
D03*
X50940Y60200D02*
D03*
X57850Y66100D02*
D03*
X58650Y66100D02*
D03*
X59450D02*
D03*
X58250Y61200D02*
D03*
X61010Y66100D02*
D03*
X63320D02*
D03*
X62590D02*
D03*
X60250D02*
D03*
X52650Y65200D02*
D03*
X60650Y59600D02*
D03*
X54650Y66120D02*
D03*
X62550Y57870D02*
D03*
X59450Y58700D02*
D03*
X62250Y64400D02*
D03*
X53050Y57870D02*
D03*
X52250D02*
D03*
X61860D02*
D03*
X62250Y63600D02*
D03*
X57450Y60400D02*
D03*
X51490Y57850D02*
D03*
X52650Y58750D02*
D03*
X50490Y59950D02*
D03*
X56250Y58090D02*
D03*
X53850Y57870D02*
D03*
X53430Y58630D02*
D03*
X39560Y55140D02*
D03*
X35600Y67100D02*
D03*
Y63900D02*
D03*
Y62300D02*
D03*
Y61500D02*
D03*
Y60700D02*
D03*
Y59100D02*
D03*
Y58300D02*
D03*
X37200D02*
D03*
X57850Y58700D02*
D03*
X60650Y58800D02*
D03*
X38800Y63900D02*
D03*
X55850Y64400D02*
D03*
X38000Y63900D02*
D03*
X55750Y63500D02*
D03*
X39850Y64020D02*
D03*
X55850Y65200D02*
D03*
X37200Y63900D02*
D03*
X55050Y64400D02*
D03*
X39850Y64760D02*
D03*
X55050Y65200D02*
D03*
X38800Y64700D02*
D03*
X54250Y64400D02*
D03*
X39600Y65500D02*
D03*
X54250Y65200D02*
D03*
X34000Y59100D02*
D03*
Y58300D02*
D03*
Y59900D02*
D03*
Y60700D02*
D03*
Y62300D02*
D03*
Y63100D02*
D03*
Y63900D02*
D03*
Y64700D02*
D03*
Y65500D02*
D03*
Y66300D02*
D03*
Y67100D02*
D03*
X32400Y60700D02*
D03*
Y61500D02*
D03*
Y62300D02*
D03*
Y63910D02*
D03*
Y64700D02*
D03*
Y66300D02*
D03*
X35600D02*
D03*
Y63100D02*
D03*
Y59900D02*
D03*
X37200Y59100D02*
D03*
X32400Y59100D02*
D03*
Y58300D02*
D03*
X30800D02*
D03*
Y59100D02*
D03*
Y67100D02*
D03*
Y66300D02*
D03*
Y65500D02*
D03*
Y63900D02*
D03*
Y63100D02*
D03*
Y62300D02*
D03*
Y60700D02*
D03*
Y59900D02*
D03*
X29200Y58300D02*
D03*
X29200Y59100D02*
D03*
Y67100D02*
D03*
X29200Y65500D02*
D03*
X29200Y64700D02*
D03*
X29200Y63900D02*
D03*
X29200Y63100D02*
D03*
Y62300D02*
D03*
X29200Y61500D02*
D03*
X29200Y60700D02*
D03*
X29200Y59900D02*
D03*
X27600Y58330D02*
D03*
Y59100D02*
D03*
Y66300D02*
D03*
Y65500D02*
D03*
Y63910D02*
D03*
Y64700D02*
D03*
Y63100D02*
D03*
Y62300D02*
D03*
Y61500D02*
D03*
Y60700D02*
D03*
Y59890D02*
D03*
X35600Y65500D02*
D03*
X34800Y59850D02*
D03*
Y64700D02*
D03*
X27600Y67900D02*
D03*
Y67100D02*
D03*
X34000Y61500D02*
D03*
X32400Y63100D02*
D03*
X29200Y66300D02*
D03*
X30800Y64700D02*
D03*
X32400Y65500D02*
D03*
X30800Y61500D02*
D03*
X32400Y59900D02*
D03*
X36800Y72850D02*
D03*
X33590D02*
D03*
X32450Y52630D02*
D03*
X33370Y52620D02*
D03*
X33200Y56700D02*
D03*
X66750Y72680D02*
D03*
X64700Y68890D02*
D03*
X55570Y73000D02*
D03*
X66780Y53230D02*
D03*
X31850Y83450D02*
D03*
X28675Y91475D02*
D03*
X22000Y86800D02*
D03*
Y84300D02*
D03*
X33350Y79440D02*
D03*
X33125Y81100D02*
D03*
X27650Y89450D02*
D03*
X30075Y88475D02*
D03*
X27750Y88425D02*
D03*
X30150Y91450D02*
D03*
X29675Y85925D02*
D03*
X28900D02*
D03*
X36500Y85650D02*
D03*
X30075Y86975D02*
D03*
X28900D02*
D03*
X21500Y84300D02*
D03*
X21500Y87800D02*
D03*
X30000Y89575D02*
D03*
X50480Y52600D02*
D03*
X21175Y73425D02*
D03*
X32400Y67100D02*
D03*
X30825Y68675D02*
D03*
X29200Y69500D02*
D03*
X29050Y83925D02*
D03*
X29400Y83450D02*
D03*
X30350Y72950D02*
D03*
X29850Y72400D02*
D03*
X30825Y67875D02*
D03*
X56650Y60400D02*
D03*
Y61200D02*
D03*
X26800Y61500D02*
D03*
X26000Y63900D02*
D03*
X23325Y58800D02*
D03*
X23675Y64225D02*
D03*
X33960Y69460D02*
D03*
X33400Y70600D02*
D03*
X16800Y83775D02*
D03*
X14825Y75750D02*
D03*
X15275Y77250D02*
D03*
Y77800D02*
D03*
X11275Y86200D02*
D03*
X11250Y85000D02*
D03*
X11275Y83800D02*
D03*
X12975Y86200D02*
D03*
Y85025D02*
D03*
Y83800D02*
D03*
X14725Y86200D02*
D03*
Y85025D02*
D03*
Y83800D02*
D03*
X18850Y86400D02*
D03*
X12600Y78350D02*
D03*
X12100D02*
D03*
X9250Y92825D02*
D03*
Y92075D02*
D03*
X9500Y87850D02*
D03*
X9000Y90700D02*
D03*
X7700D02*
D03*
X12550Y92575D02*
D03*
X12650Y91825D02*
D03*
X12050D02*
D03*
X12200Y89050D02*
D03*
X10800Y77550D02*
D03*
X12200Y81250D02*
D03*
X8200Y83950D02*
D03*
Y83050D02*
D03*
X12800Y81150D02*
D03*
X9000Y78200D02*
D03*
X9100Y81050D02*
D03*
X7100Y80850D02*
D03*
X11700Y88550D02*
D03*
X16950Y86000D02*
D03*
X17300Y84750D02*
D03*
X14000Y81550D02*
D03*
X12350Y77750D02*
D03*
X7100Y78825D02*
D03*
X19425Y84725D02*
D03*
X12350Y77200D02*
D03*
X8200Y87950D02*
D03*
X11950Y92825D02*
D03*
X11325Y93425D02*
D03*
X15225Y92650D02*
D03*
Y92150D02*
D03*
X13600Y88250D02*
D03*
X17750Y82825D02*
D03*
X19250Y82000D02*
D03*
X18950Y75900D02*
D03*
X6100Y85850D02*
D03*
X6525Y88400D02*
D03*
X5425Y86375D02*
D03*
X5525Y87125D02*
D03*
D25*
X20725Y72975D02*
X21175Y73425D01*
X18000Y55250D02*
X20500Y52750D01*
X29750D01*
X31125Y54125D01*
X34950D01*
X35191D01*
X36000Y54934D01*
X7100Y80850D02*
X10400Y77550D01*
X10800D01*
X21175Y73425D02*
X21375Y73625D01*
Y81575D01*
X16950Y86000D02*
X21375Y81575D01*
X14225Y78575D02*
X16153Y80503D01*
X17428D01*
X18400Y81475D01*
Y83650D01*
X17300Y84750D02*
X18400Y83650D01*
X15425Y87525D02*
X16950Y86000D01*
X13550Y87525D02*
X15425D01*
X13075Y88000D02*
X13550Y87525D01*
X13075Y88000D02*
Y88450D01*
X13825Y89200D01*
Y92350D01*
X14650Y93175D01*
X26150D01*
X29750Y89575D01*
X30000D01*
X18725Y75675D02*
X18950Y75900D01*
X14225Y70350D02*
Y78575D01*
Y70350D02*
X18000Y66575D01*
Y55250D02*
Y66575D01*
D26*
X18750Y55750D02*
X20000Y54500D01*
X27500D01*
X28250Y55250D01*
X30750D01*
X31000Y55500D01*
Y56000D01*
X32200Y57500D02*
X33950D01*
X34450Y58000D01*
Y59475D01*
X34400Y59525D02*
X34450Y59475D01*
X34400Y65075D02*
X34550Y65225D01*
X34025Y70600D02*
X34550Y70075D01*
X33400Y70600D02*
X34025D01*
X34000Y65500D02*
X34550D01*
Y65225D02*
Y65500D01*
Y70075D01*
X34400Y59525D02*
Y60325D01*
X34525Y60450D01*
Y64225D01*
X34400Y64350D02*
X34525Y64225D01*
X34400Y64350D02*
Y65075D01*
X14825Y70575D02*
Y75750D01*
Y70575D02*
X18750Y66650D01*
Y55750D02*
Y66650D01*
D27*
X39500Y77250D02*
X39525Y77275D01*
X26000Y72125D02*
X26450Y71675D01*
X26000Y72125D02*
Y83925D01*
X13600Y88250D02*
X21675D01*
X26000Y83925D01*
X33825Y96000D02*
X39525Y90300D01*
Y77275D02*
Y90300D01*
X7200Y87575D02*
Y91900D01*
X11300Y96000D01*
X33825D01*
X9628Y88558D02*
X11692D01*
X8296Y87225D02*
X9628Y88558D01*
X7550Y87225D02*
X8296D01*
X7200Y87575D02*
X7550Y87225D01*
D39*
X51025Y80700D02*
D03*
X48325Y83275D02*
D03*
X44775Y86800D02*
D03*
X41700Y89875D02*
D03*
X38225Y93300D02*
D03*
X64400Y1425D02*
D03*
X21075Y2425D02*
D03*
X21250Y104175D02*
D03*
X26800Y115375D02*
D03*
X9650Y110500D02*
D03*
X3875Y115700D02*
D03*
X34450Y26150D02*
D03*
X56575Y26425D02*
D03*
X82625Y27975D02*
D03*
X44125Y4175D02*
D03*
X82750Y4725D02*
D03*
X3100Y5150D02*
D03*
X24750Y96500D02*
D03*
X78850Y76925D02*
D03*
X77800Y94450D02*
D03*
X77925Y86425D02*
D03*
X64950Y86775D02*
D03*
X64150Y94525D02*
D03*
X40400Y94900D02*
D03*
X7775Y104275D02*
D03*
X31650Y96525D02*
D03*
X18500Y96500D02*
D03*
X13350D02*
D03*
X6900Y96000D02*
D03*
X3425Y92950D02*
D03*
X4400Y79800D02*
D03*
X14975Y68350D02*
D03*
X15475Y63925D02*
D03*
X16600Y59050D02*
D03*
X40600Y103600D02*
D03*
X40675Y111425D02*
D03*
X51150Y111950D02*
D03*
X64125Y112025D02*
D03*
X76950Y112250D02*
D03*
X51225Y103675D02*
D03*
X64200Y103525D02*
D03*
X77175Y103450D02*
D03*
X51075Y94650D02*
D03*
X77175Y66025D02*
D03*
X77400Y54650D02*
D03*
X77475Y46825D02*
D03*
X64500Y46225D02*
D03*
X51075Y46375D02*
D03*
X40450Y46150D02*
D03*
X15375Y44500D02*
D03*
X26075Y44300D02*
D03*
X4575Y43700D02*
D03*
X5675Y52800D02*
D03*
X6175Y61075D02*
D03*
X6475Y67750D02*
D03*
X25050Y82925D02*
D03*
X1550Y96950D02*
D03*
X56350Y74950D02*
D03*
X13175Y34900D02*
D03*
X18325Y34875D02*
D03*
X19750Y27475D02*
D03*
M02*
