M48
;Layer_Color=9474304
;FILE_FORMAT=4:3
METRIC,LZ
;TYPE=PLATED
T1F00S00C0.200
T2F00S00C0.300
%
T01
X002445Y00552
X00252Y00591
X0026Y00599
X00268Y00607
Y00615
X00276
Y00607
Y005989
Y00591
Y005833
X00292Y00583
X00292Y00591
X00292Y00599
X00292Y00607
X00292Y00615
X00292Y00623
Y00631
X00292Y00639
X00292Y00647
X00292Y00655
X00292Y00663
Y00671
X00308
X0030825Y0067875
Y0068675
X00308Y00663
Y00655
Y00647
Y00639
Y00631
Y00623
Y00615
Y00607
Y00599
Y00591
Y00583
Y00567
X00292
X00324Y00567
X00332Y00567
X0034
X00348
X00356
X00356Y00583
Y00591
Y00599
Y00607
Y00615
Y00623
Y00631
Y00639
Y00647
X00348
X0034
Y00639
Y00631
Y00623
Y00615
Y00607
Y00599
Y00591
Y00583
X00324
Y00591
Y00599
Y00607
Y00615
Y00623
Y00631
Y006391
Y00647
Y00655
Y00663
Y00671
X0034
Y00679
Y00663
Y00655
X00356
Y00663
Y00671
Y00687
X003396Y006946
X00334Y00706
X003359Y007285
X003035Y007295
X002985Y00724
X00292Y00695
X00276Y00679
X0026825Y0067875
X00276Y00671
Y00663
Y00655
Y00647
Y006391
Y00631
Y00623
X0026Y00631
X0026Y00639
X0026Y00647
X00268
X0023675Y0064225
X00252Y00671
X0026Y00687
X0025225Y0069475
X0021175Y0073425
X001895Y00759
X0014825Y007575
X0015275Y007725
Y00778
X001235Y007775
Y00772
X00121Y007835
X00126
X00108Y007755
X0009Y00782
X00071Y0078825
X00071Y008085
X00091Y008105
X00082Y008305
X0011275Y00838
X0012975
X0014725
X00168Y0083775
X001775Y0082825
X001925Y0082
X0014Y008155
X00128Y008115
X00122Y008125
X00294Y008345
X003185
X0033125Y00811
X003335Y007944
X00348Y005985
X0034Y00559
X003495Y0054125
X0036Y0054934
X00342Y0052605
X003337Y005262
X003245Y005263
X0028525Y00538
X0027875Y0053375
X0023325Y00588
X00372Y00591
Y00599
X0038
Y00591
Y00583
X00372
Y00575
X00364Y00559
X003679Y005268
X003823Y005128
X003903
X003956Y005514
X00397Y00595
X00388Y00599
Y00607
X00396
X0038
Y00623
X00372
X00388
X0038Y00631
Y00639
X00388
X00388Y00647
Y00655
X00396
X003985Y006476
Y006402
X004035Y006255
Y006205
X0042Y00649
X0038Y00647
Y00655
X00372Y00663
Y00671
Y00687
X003968Y006986
X00368Y007285
X00372Y00639
X005095Y006553
X00511Y006612
X005175
X005185Y00652
X005265
X005345
Y00644
X005425Y00644
Y00652
X005505
X005585
Y00644
X005505
X005575Y00635
X00564Y006349
X005705Y00635
X005665Y00612
Y00604
X005745Y00604
X005825Y00612
X005785Y00587
X005865
X005945
X006065Y00588
X006065Y00596
X006186Y005787
X006255
X006225Y00636
X006225Y00644
X006259Y00661
X006332
X006185Y00661
X006101Y00661
X006025
X005945
X005865
X005785Y00661
X005465Y006612
X005393
X005321
X005345Y00604
X005425
Y00612
X005505Y00596
X005527Y005805
X005625Y005809
X005665Y005875
X005343Y005863
X005265Y005875
X005185
X005107
X005149Y005785
X005225Y005787
X005305
X005385
X005048Y005655
X005049Y005995
X005094Y00602
X005048Y00526
X0052Y005315
X0054
X005429Y005202
X005516
X00561Y005315
X005815
X006075
X006678Y005323
X006931Y005865
X00693Y00608
Y006305
Y006509
X00647Y006889
X006675Y007268
X005763Y0073
X005638
X005557
X00535
X004213Y007762
Y00784
X00365Y008565
X0029675Y0085925
X00289
Y0086975
X0030075
Y0088475
X003Y0089575
X003015Y009145
X0028675Y0091475
X0027725Y00928
X002765Y008945
X002775Y0088425
X002905Y0083925
X0022Y00843
X00215
X0019425Y0084725
X00173Y008475
X001695Y0086
X001885Y00864
X0022Y00868
X00215Y00878
X00136Y008825
X00122Y008905
X00117Y008855
X0011275Y00862
X001125Y0085
X0012975Y0085025
Y00862
X0014725
Y0085025
X00082Y008395
X00061Y008585
X0005425Y0086375
X0005525Y0087125
X0006525Y00884
X00082Y008795
X00095Y008785
X0009Y00907
X00077
X000925Y0092075
Y0092825
X0011325Y0093425
X001195Y0092825
X001255Y0092575
X001265Y0091825
X001205
X0015225Y009215
Y009265
T02
X0021075Y0002425
X0044125Y0004175
X00644Y0001425
X008275Y0004725
X0082625Y0027975
X0056575Y0026425
X003445Y002615
X001975Y0027475
X0018325Y0034875
X0013175Y00349
X0004575Y00437
X00031Y000515
X0005675Y00528
X0006175Y0061075
X0006475Y006775
X0014975Y006835
X0015475Y0063925
X00166Y005905
X0015375Y00445
X0026075Y00443
X002505Y0082925
X00044Y00798
X0048325Y0083275
X0051025Y00807
X005635Y007495
X0051075Y0046375
X004045Y004615
X00645Y0046225
X0077475Y0046825
X00774Y005465
X0077175Y0066025
X007885Y0076925
X0077925Y0086425
X00778Y009445
X0077175Y010345
X007695Y011225
X0064125Y0112025
X00642Y0103525
X006415Y0094525
X006495Y0086775
X0044775Y00868
X00417Y0089875
X00404Y00949
X0038225Y00933
X00406Y01036
X0040675Y0111425
X005115Y011195
X0051225Y0103675
X0051075Y009465
X003165Y0096525
X002475Y00965
X00185
X001335
X00069Y0096
X000155Y009695
X0003425Y009295
X0007775Y0104275
X000965Y01105
X0003875Y01157
X00268Y0115375
X002125Y0104175
M30
