G04 Layer_Color=2752767*
%FSLAX43Y43*%
%MOMM*%
G71*
G01*
G75*
%ADD57C,0.051*%
%ADD58C,0.068*%
D57*
X50822Y80497D02*
Y80903D01*
X51228D01*
Y80497D01*
X50822D01*
X48122Y83072D02*
Y83478D01*
X48528D01*
Y83072D01*
X48122D01*
X44572Y86597D02*
Y87003D01*
X44978D01*
Y86597D01*
X44572D01*
X41497Y89672D02*
Y90078D01*
X41903D01*
Y89672D01*
X41497D01*
X38022Y93097D02*
Y93503D01*
X38428D01*
Y93097D01*
X38022D01*
X64197Y1222D02*
Y1628D01*
X64603D01*
Y1222D01*
X64197D01*
X20872Y2222D02*
Y2628D01*
X21278D01*
Y2222D01*
X20872D01*
X21047Y103972D02*
Y104378D01*
X21453D01*
Y103972D01*
X21047D01*
X26597Y115172D02*
Y115578D01*
X27003D01*
Y115172D01*
X26597D01*
X9447Y110297D02*
Y110703D01*
X9853D01*
Y110297D01*
X9447D01*
X3672Y115497D02*
Y115903D01*
X4078D01*
Y115497D01*
X3672D01*
X34247Y25947D02*
Y26353D01*
X34653D01*
Y25947D01*
X34247D01*
X56372Y26222D02*
Y26628D01*
X56778D01*
Y26222D01*
X56372D01*
X82422Y27772D02*
Y28178D01*
X82828D01*
Y27772D01*
X82422D01*
X43922Y3972D02*
Y4378D01*
X44328D01*
Y3972D01*
X43922D01*
X82547Y4522D02*
Y4928D01*
X82953D01*
Y4522D01*
X82547D01*
X2897Y4947D02*
Y5353D01*
X3303D01*
Y4947D01*
X2897D01*
X24547Y96297D02*
Y96703D01*
X24953D01*
Y96297D01*
X24547D01*
X78647Y76722D02*
Y77128D01*
X79053D01*
Y76722D01*
X78647D01*
X77597Y94247D02*
Y94653D01*
X78003D01*
Y94247D01*
X77597D01*
X77722Y86222D02*
Y86628D01*
X78128D01*
Y86222D01*
X77722D01*
X64747Y86572D02*
Y86978D01*
X65153D01*
Y86572D01*
X64747D01*
X63947Y94322D02*
Y94728D01*
X64353D01*
Y94322D01*
X63947D01*
X40197Y94697D02*
Y95103D01*
X40603D01*
Y94697D01*
X40197D01*
X7572Y104072D02*
Y104478D01*
X7978D01*
Y104072D01*
X7572D01*
X31447Y96322D02*
Y96728D01*
X31853D01*
Y96322D01*
X31447D01*
X18297Y96297D02*
Y96703D01*
X18703D01*
Y96297D01*
X18297D01*
X13147D02*
Y96703D01*
X13553D01*
Y96297D01*
X13147D01*
X6697Y95797D02*
Y96203D01*
X7103D01*
Y95797D01*
X6697D01*
X3222Y92747D02*
Y93153D01*
X3628D01*
Y92747D01*
X3222D01*
X4197Y79597D02*
Y80003D01*
X4603D01*
Y79597D01*
X4197D01*
X14772Y68147D02*
Y68553D01*
X15178D01*
Y68147D01*
X14772D01*
X15272Y63722D02*
Y64128D01*
X15678D01*
Y63722D01*
X15272D01*
X16397Y58847D02*
Y59253D01*
X16803D01*
Y58847D01*
X16397D01*
X40397Y103397D02*
Y103803D01*
X40803D01*
Y103397D01*
X40397D01*
X40472Y111222D02*
Y111628D01*
X40878D01*
Y111222D01*
X40472D01*
X50947Y111747D02*
Y112153D01*
X51353D01*
Y111747D01*
X50947D01*
X63922Y111822D02*
Y112228D01*
X64328D01*
Y111822D01*
X63922D01*
X76747Y112047D02*
Y112453D01*
X77153D01*
Y112047D01*
X76747D01*
X51022Y103472D02*
Y103878D01*
X51428D01*
Y103472D01*
X51022D01*
X63997Y103322D02*
Y103728D01*
X64403D01*
Y103322D01*
X63997D01*
X76972Y103247D02*
Y103653D01*
X77378D01*
Y103247D01*
X76972D01*
X50872Y94447D02*
Y94853D01*
X51278D01*
Y94447D01*
X50872D01*
X76972Y65822D02*
Y66228D01*
X77378D01*
Y65822D01*
X76972D01*
X77197Y54447D02*
Y54853D01*
X77603D01*
Y54447D01*
X77197D01*
X77272Y46622D02*
Y47028D01*
X77678D01*
Y46622D01*
X77272D01*
X64297Y46022D02*
Y46428D01*
X64703D01*
Y46022D01*
X64297D01*
X50872Y46172D02*
Y46578D01*
X51278D01*
Y46172D01*
X50872D01*
X40247Y45947D02*
Y46353D01*
X40653D01*
Y45947D01*
X40247D01*
X15172Y44297D02*
Y44703D01*
X15578D01*
Y44297D01*
X15172D01*
X25872Y44097D02*
Y44503D01*
X26278D01*
Y44097D01*
X25872D01*
X4372Y43497D02*
Y43903D01*
X4778D01*
Y43497D01*
X4372D01*
X5472Y52597D02*
Y53003D01*
X5878D01*
Y52597D01*
X5472D01*
X5972Y60872D02*
Y61278D01*
X6378D01*
Y60872D01*
X5972D01*
X6272Y67547D02*
Y67953D01*
X6678D01*
Y67547D01*
X6272D01*
X24847Y82722D02*
Y83128D01*
X25253D01*
Y82722D01*
X24847D01*
X1347Y96747D02*
Y97153D01*
X1753D01*
Y96747D01*
X1347D01*
X56147Y74747D02*
Y75153D01*
X56553D01*
Y74747D01*
X56147D01*
X12972Y34697D02*
Y35103D01*
X13378D01*
Y34697D01*
X12972D01*
X18122Y34672D02*
Y35078D01*
X18528D01*
Y34672D01*
X18122D01*
X19547Y27272D02*
Y27678D01*
X19953D01*
Y27272D01*
X19547D01*
D58*
X27928Y92800D02*
G03*
X27928Y92800I-203J0D01*
G01*
X34403Y52605D02*
G03*
X34403Y52605I-203J0D01*
G01*
X27028Y67875D02*
G03*
X27028Y67875I-203J0D01*
G01*
X26203Y68700D02*
G03*
X26203Y68700I-203J0D01*
G01*
X25428Y69475D02*
G03*
X25428Y69475I-203J0D01*
G01*
X28728Y53800D02*
G03*
X28728Y53800I-203J0D01*
G01*
X28078Y53375D02*
G03*
X28078Y53375I-203J0D01*
G01*
X26203Y59900D02*
G03*
X26203Y59900I-203J0D01*
G01*
X32603Y56700D02*
G03*
X32603Y56700I-203J0D01*
G01*
X35153Y54125D02*
G03*
X35153Y54125I-203J0D01*
G01*
X36203Y54934D02*
G03*
X36203Y54934I-203J0D01*
G01*
X36603Y55900D02*
G03*
X36603Y55900I-203J0D01*
G01*
X34203Y56700D02*
G03*
X34203Y56700I-203J0D01*
G01*
X35803D02*
G03*
X35803Y56700I-203J0D01*
G01*
X35003D02*
G03*
X35003Y56700I-203J0D01*
G01*
X34203Y55900D02*
G03*
X34203Y55900I-203J0D01*
G01*
X34203Y67900D02*
G03*
X34203Y67900I-203J0D01*
G01*
X27003Y60700D02*
G03*
X27003Y60700I-203J0D01*
G01*
X26203Y63100D02*
G03*
X26203Y63100I-203J0D01*
G01*
X27003Y64700D02*
G03*
X27003Y64700I-203J0D01*
G01*
X26203D02*
G03*
X26203Y64700I-203J0D01*
G01*
X25403Y67100D02*
G03*
X25403Y67100I-203J0D01*
G01*
X37403Y57500D02*
G03*
X37403Y57500I-203J0D01*
G01*
X31003Y56700D02*
G03*
X31003Y56700I-203J0D01*
G01*
X29403D02*
G03*
X29403Y56700I-203J0D01*
G01*
X24653Y55200D02*
G03*
X24653Y55200I-203J0D01*
G01*
X25403Y59100D02*
G03*
X25403Y59100I-203J0D01*
G01*
X35803Y68700D02*
G03*
X35803Y68700I-203J0D01*
G01*
X42333Y77620D02*
G03*
X42333Y77620I-203J0D01*
G01*
X54493Y52020D02*
G03*
X54493Y52020I-203J0D01*
G01*
X36993Y52680D02*
G03*
X36993Y52680I-203J0D01*
G01*
X39233Y51280D02*
G03*
X39233Y51280I-203J0D01*
G01*
X38433D02*
G03*
X38433Y51280I-203J0D01*
G01*
X42333Y78400D02*
G03*
X42333Y78400I-203J0D01*
G01*
X56583Y73000D02*
G03*
X56583Y73000I-203J0D01*
G01*
X52203Y53150D02*
G03*
X52203Y53150I-203J0D01*
G01*
X54203D02*
G03*
X54203Y53150I-203J0D01*
G01*
X56303D02*
G03*
X56303Y53150I-203J0D01*
G01*
X58353D02*
G03*
X58353Y53150I-203J0D01*
G01*
X60953D02*
G03*
X60953Y53150I-203J0D01*
G01*
X55363Y52020D02*
G03*
X55363Y52020I-203J0D01*
G01*
X55473Y58050D02*
G03*
X55473Y58050I-203J0D01*
G01*
X57833Y73000D02*
G03*
X57833Y73000I-203J0D01*
G01*
X53703D02*
G03*
X53703Y73000I-203J0D01*
G01*
X69513Y58650D02*
G03*
X69513Y58650I-203J0D01*
G01*
X69503Y60800D02*
G03*
X69503Y60800I-203J0D01*
G01*
Y63050D02*
G03*
X69503Y63050I-203J0D01*
G01*
Y65090D02*
G03*
X69503Y65090I-203J0D01*
G01*
X39903Y59500D02*
G03*
X39903Y59500I-203J0D01*
G01*
X39803Y60700D02*
G03*
X39803Y60700I-203J0D01*
G01*
X55253Y59600D02*
G03*
X55253Y59600I-203J0D01*
G01*
X38203Y60700D02*
G03*
X38203Y60700I-203J0D01*
G01*
X53653Y60400D02*
G03*
X53653Y60400I-203J0D01*
G01*
X38203Y62300D02*
G03*
X38203Y62300I-203J0D01*
G01*
X54453Y60400D02*
G03*
X54453Y60400I-203J0D01*
G01*
X37403Y62300D02*
G03*
X37403Y62300I-203J0D01*
G01*
X54453Y61200D02*
G03*
X54453Y61200I-203J0D01*
G01*
X39003Y62300D02*
G03*
X39003Y62300I-203J0D01*
G01*
X57253Y63500D02*
G03*
X57253Y63500I-203J0D01*
G01*
X38203Y63100D02*
G03*
X38203Y63100I-203J0D01*
G01*
X56603Y63490D02*
G03*
X56603Y63490I-203J0D01*
G01*
X39003Y65500D02*
G03*
X39003Y65500I-203J0D01*
G01*
X53653Y64400D02*
G03*
X53653Y64400I-203J0D01*
G01*
X38203Y64700D02*
G03*
X38203Y64700I-203J0D01*
G01*
X53653Y65200D02*
G03*
X53653Y65200I-203J0D01*
G01*
X37403Y67100D02*
G03*
X37403Y67100I-203J0D01*
G01*
X52053Y65200D02*
G03*
X52053Y65200I-203J0D01*
G01*
X37403Y66300D02*
G03*
X37403Y66300I-203J0D01*
G01*
X51153Y65530D02*
G03*
X51153Y65530I-203J0D01*
G01*
X42203Y64900D02*
G03*
X42203Y64900I-203J0D01*
G01*
X50683Y56550D02*
G03*
X50683Y56550I-203J0D01*
G01*
X62053Y66100D02*
G03*
X62053Y66100I-203J0D01*
G01*
X52053Y58750D02*
G03*
X52053Y58750I-203J0D01*
G01*
X51273D02*
G03*
X51273Y58750I-203J0D01*
G01*
X51303Y66120D02*
G03*
X51303Y66120I-203J0D01*
G01*
X53413D02*
G03*
X53413Y66120I-203J0D01*
G01*
X54133D02*
G03*
X54133Y66120I-203J0D01*
G01*
X58853Y58700D02*
G03*
X58853Y58700I-203J0D01*
G01*
X56853Y58750D02*
G03*
X56853Y58750I-203J0D01*
G01*
X51953Y66120D02*
G03*
X51953Y66120I-203J0D01*
G01*
X37403Y68700D02*
G03*
X37403Y68700I-203J0D01*
G01*
X35803Y64700D02*
G03*
X35803Y64700I-203J0D01*
G01*
X40553Y62050D02*
G03*
X40553Y62050I-203J0D01*
G01*
Y62550D02*
G03*
X40553Y62550I-203J0D01*
G01*
X39003Y59900D02*
G03*
X39003Y59900I-203J0D01*
G01*
Y60700D02*
G03*
X39003Y60700I-203J0D01*
G01*
X38203Y59900D02*
G03*
X38203Y59900I-203J0D01*
G01*
Y58300D02*
G03*
X38203Y58300I-203J0D01*
G01*
X37403Y59900D02*
G03*
X37403Y59900I-203J0D01*
G01*
X38203Y59100D02*
G03*
X38203Y59100I-203J0D01*
G01*
Y65500D02*
G03*
X38203Y65500I-203J0D01*
G01*
X39883Y69860D02*
G03*
X39883Y69860I-203J0D01*
G01*
X51143Y60200D02*
G03*
X51143Y60200I-203J0D01*
G01*
X58053Y66100D02*
G03*
X58053Y66100I-203J0D01*
G01*
X58853Y66100D02*
G03*
X58853Y66100I-203J0D01*
G01*
X59653D02*
G03*
X59653Y66100I-203J0D01*
G01*
X58453Y61200D02*
G03*
X58453Y61200I-203J0D01*
G01*
X61213Y66100D02*
G03*
X61213Y66100I-203J0D01*
G01*
X63523D02*
G03*
X63523Y66100I-203J0D01*
G01*
X62793D02*
G03*
X62793Y66100I-203J0D01*
G01*
X60453D02*
G03*
X60453Y66100I-203J0D01*
G01*
X52853Y65200D02*
G03*
X52853Y65200I-203J0D01*
G01*
X60853Y59600D02*
G03*
X60853Y59600I-203J0D01*
G01*
X54853Y66120D02*
G03*
X54853Y66120I-203J0D01*
G01*
X62753Y57870D02*
G03*
X62753Y57870I-203J0D01*
G01*
X59653Y58700D02*
G03*
X59653Y58700I-203J0D01*
G01*
X62453Y64400D02*
G03*
X62453Y64400I-203J0D01*
G01*
X53253Y57870D02*
G03*
X53253Y57870I-203J0D01*
G01*
X52453D02*
G03*
X52453Y57870I-203J0D01*
G01*
X62063D02*
G03*
X62063Y57870I-203J0D01*
G01*
X62453Y63600D02*
G03*
X62453Y63600I-203J0D01*
G01*
X57653Y60400D02*
G03*
X57653Y60400I-203J0D01*
G01*
X51693Y57850D02*
G03*
X51693Y57850I-203J0D01*
G01*
X52853Y58750D02*
G03*
X52853Y58750I-203J0D01*
G01*
X50693Y59950D02*
G03*
X50693Y59950I-203J0D01*
G01*
X56453Y58090D02*
G03*
X56453Y58090I-203J0D01*
G01*
X54053Y57870D02*
G03*
X54053Y57870I-203J0D01*
G01*
X53633Y58630D02*
G03*
X53633Y58630I-203J0D01*
G01*
X39763Y55140D02*
G03*
X39763Y55140I-203J0D01*
G01*
X35803Y67100D02*
G03*
X35803Y67100I-203J0D01*
G01*
Y63900D02*
G03*
X35803Y63900I-203J0D01*
G01*
Y62300D02*
G03*
X35803Y62300I-203J0D01*
G01*
Y61500D02*
G03*
X35803Y61500I-203J0D01*
G01*
Y60700D02*
G03*
X35803Y60700I-203J0D01*
G01*
Y59100D02*
G03*
X35803Y59100I-203J0D01*
G01*
Y58300D02*
G03*
X35803Y58300I-203J0D01*
G01*
X37403D02*
G03*
X37403Y58300I-203J0D01*
G01*
X58053Y58700D02*
G03*
X58053Y58700I-203J0D01*
G01*
X60853Y58800D02*
G03*
X60853Y58800I-203J0D01*
G01*
X39003Y63900D02*
G03*
X39003Y63900I-203J0D01*
G01*
X56053Y64400D02*
G03*
X56053Y64400I-203J0D01*
G01*
X38203Y63900D02*
G03*
X38203Y63900I-203J0D01*
G01*
X55953Y63500D02*
G03*
X55953Y63500I-203J0D01*
G01*
X40053Y64020D02*
G03*
X40053Y64020I-203J0D01*
G01*
X56053Y65200D02*
G03*
X56053Y65200I-203J0D01*
G01*
X37403Y63900D02*
G03*
X37403Y63900I-203J0D01*
G01*
X55253Y64400D02*
G03*
X55253Y64400I-203J0D01*
G01*
X40053Y64760D02*
G03*
X40053Y64760I-203J0D01*
G01*
X55253Y65200D02*
G03*
X55253Y65200I-203J0D01*
G01*
X39003Y64700D02*
G03*
X39003Y64700I-203J0D01*
G01*
X54453Y64400D02*
G03*
X54453Y64400I-203J0D01*
G01*
X39803Y65500D02*
G03*
X39803Y65500I-203J0D01*
G01*
X54453Y65200D02*
G03*
X54453Y65200I-203J0D01*
G01*
X34203Y59100D02*
G03*
X34203Y59100I-203J0D01*
G01*
Y58300D02*
G03*
X34203Y58300I-203J0D01*
G01*
Y59900D02*
G03*
X34203Y59900I-203J0D01*
G01*
Y60700D02*
G03*
X34203Y60700I-203J0D01*
G01*
Y62300D02*
G03*
X34203Y62300I-203J0D01*
G01*
Y63100D02*
G03*
X34203Y63100I-203J0D01*
G01*
Y63900D02*
G03*
X34203Y63900I-203J0D01*
G01*
Y64700D02*
G03*
X34203Y64700I-203J0D01*
G01*
Y65500D02*
G03*
X34203Y65500I-203J0D01*
G01*
Y66300D02*
G03*
X34203Y66300I-203J0D01*
G01*
Y67100D02*
G03*
X34203Y67100I-203J0D01*
G01*
X32603Y60700D02*
G03*
X32603Y60700I-203J0D01*
G01*
Y61500D02*
G03*
X32603Y61500I-203J0D01*
G01*
Y62300D02*
G03*
X32603Y62300I-203J0D01*
G01*
Y63910D02*
G03*
X32603Y63910I-203J0D01*
G01*
Y64700D02*
G03*
X32603Y64700I-203J0D01*
G01*
Y66300D02*
G03*
X32603Y66300I-203J0D01*
G01*
X35803D02*
G03*
X35803Y66300I-203J0D01*
G01*
Y63100D02*
G03*
X35803Y63100I-203J0D01*
G01*
Y59900D02*
G03*
X35803Y59900I-203J0D01*
G01*
X37403Y59100D02*
G03*
X37403Y59100I-203J0D01*
G01*
X32603Y59100D02*
G03*
X32603Y59100I-203J0D01*
G01*
Y58300D02*
G03*
X32603Y58300I-203J0D01*
G01*
X31003D02*
G03*
X31003Y58300I-203J0D01*
G01*
Y59100D02*
G03*
X31003Y59100I-203J0D01*
G01*
Y67100D02*
G03*
X31003Y67100I-203J0D01*
G01*
Y66300D02*
G03*
X31003Y66300I-203J0D01*
G01*
Y65500D02*
G03*
X31003Y65500I-203J0D01*
G01*
Y63900D02*
G03*
X31003Y63900I-203J0D01*
G01*
Y63100D02*
G03*
X31003Y63100I-203J0D01*
G01*
Y62300D02*
G03*
X31003Y62300I-203J0D01*
G01*
Y60700D02*
G03*
X31003Y60700I-203J0D01*
G01*
Y59900D02*
G03*
X31003Y59900I-203J0D01*
G01*
X29403Y58300D02*
G03*
X29403Y58300I-203J0D01*
G01*
X29403Y59100D02*
G03*
X29403Y59100I-203J0D01*
G01*
Y67100D02*
G03*
X29403Y67100I-203J0D01*
G01*
X29403Y65500D02*
G03*
X29403Y65500I-203J0D01*
G01*
X29403Y64700D02*
G03*
X29403Y64700I-203J0D01*
G01*
X29403Y63900D02*
G03*
X29403Y63900I-203J0D01*
G01*
X29403Y63100D02*
G03*
X29403Y63100I-203J0D01*
G01*
Y62300D02*
G03*
X29403Y62300I-203J0D01*
G01*
X29403Y61500D02*
G03*
X29403Y61500I-203J0D01*
G01*
X29403Y60700D02*
G03*
X29403Y60700I-203J0D01*
G01*
X29403Y59900D02*
G03*
X29403Y59900I-203J0D01*
G01*
X27803Y58330D02*
G03*
X27803Y58330I-203J0D01*
G01*
Y59100D02*
G03*
X27803Y59100I-203J0D01*
G01*
Y66300D02*
G03*
X27803Y66300I-203J0D01*
G01*
Y65500D02*
G03*
X27803Y65500I-203J0D01*
G01*
Y63910D02*
G03*
X27803Y63910I-203J0D01*
G01*
Y64700D02*
G03*
X27803Y64700I-203J0D01*
G01*
Y63100D02*
G03*
X27803Y63100I-203J0D01*
G01*
Y62300D02*
G03*
X27803Y62300I-203J0D01*
G01*
Y61500D02*
G03*
X27803Y61500I-203J0D01*
G01*
Y60700D02*
G03*
X27803Y60700I-203J0D01*
G01*
Y59890D02*
G03*
X27803Y59890I-203J0D01*
G01*
X35803Y65500D02*
G03*
X35803Y65500I-203J0D01*
G01*
X35003Y59850D02*
G03*
X35003Y59850I-203J0D01*
G01*
Y64700D02*
G03*
X35003Y64700I-203J0D01*
G01*
X27803Y67900D02*
G03*
X27803Y67900I-203J0D01*
G01*
Y67100D02*
G03*
X27803Y67100I-203J0D01*
G01*
X34203Y61500D02*
G03*
X34203Y61500I-203J0D01*
G01*
X32603Y63100D02*
G03*
X32603Y63100I-203J0D01*
G01*
X29403Y66300D02*
G03*
X29403Y66300I-203J0D01*
G01*
X31003Y64700D02*
G03*
X31003Y64700I-203J0D01*
G01*
X32603Y65500D02*
G03*
X32603Y65500I-203J0D01*
G01*
X31003Y61500D02*
G03*
X31003Y61500I-203J0D01*
G01*
X32603Y59900D02*
G03*
X32603Y59900I-203J0D01*
G01*
X37003Y72850D02*
G03*
X37003Y72850I-203J0D01*
G01*
X33793D02*
G03*
X33793Y72850I-203J0D01*
G01*
X32653Y52630D02*
G03*
X32653Y52630I-203J0D01*
G01*
X33573Y52620D02*
G03*
X33573Y52620I-203J0D01*
G01*
X33403Y56700D02*
G03*
X33403Y56700I-203J0D01*
G01*
X66953Y72680D02*
G03*
X66953Y72680I-203J0D01*
G01*
X64903Y68890D02*
G03*
X64903Y68890I-203J0D01*
G01*
X55773Y73000D02*
G03*
X55773Y73000I-203J0D01*
G01*
X66983Y53230D02*
G03*
X66983Y53230I-203J0D01*
G01*
X32053Y83450D02*
G03*
X32053Y83450I-203J0D01*
G01*
X28878Y91475D02*
G03*
X28878Y91475I-203J0D01*
G01*
X22203Y86800D02*
G03*
X22203Y86800I-203J0D01*
G01*
Y84300D02*
G03*
X22203Y84300I-203J0D01*
G01*
X33553Y79440D02*
G03*
X33553Y79440I-203J0D01*
G01*
X33328Y81100D02*
G03*
X33328Y81100I-203J0D01*
G01*
X27853Y89450D02*
G03*
X27853Y89450I-203J0D01*
G01*
X30278Y88475D02*
G03*
X30278Y88475I-203J0D01*
G01*
X27953Y88425D02*
G03*
X27953Y88425I-203J0D01*
G01*
X30353Y91450D02*
G03*
X30353Y91450I-203J0D01*
G01*
X29878Y85925D02*
G03*
X29878Y85925I-203J0D01*
G01*
X29103D02*
G03*
X29103Y85925I-203J0D01*
G01*
X36703Y85650D02*
G03*
X36703Y85650I-203J0D01*
G01*
X30278Y86975D02*
G03*
X30278Y86975I-203J0D01*
G01*
X29103D02*
G03*
X29103Y86975I-203J0D01*
G01*
X21703Y84300D02*
G03*
X21703Y84300I-203J0D01*
G01*
X21703Y87800D02*
G03*
X21703Y87800I-203J0D01*
G01*
X30203Y89575D02*
G03*
X30203Y89575I-203J0D01*
G01*
X50683Y52600D02*
G03*
X50683Y52600I-203J0D01*
G01*
X21378Y73425D02*
G03*
X21378Y73425I-203J0D01*
G01*
X32603Y67100D02*
G03*
X32603Y67100I-203J0D01*
G01*
X31028Y68675D02*
G03*
X31028Y68675I-203J0D01*
G01*
X29403Y69500D02*
G03*
X29403Y69500I-203J0D01*
G01*
X29253Y83925D02*
G03*
X29253Y83925I-203J0D01*
G01*
X29603Y83450D02*
G03*
X29603Y83450I-203J0D01*
G01*
X30553Y72950D02*
G03*
X30553Y72950I-203J0D01*
G01*
X30053Y72400D02*
G03*
X30053Y72400I-203J0D01*
G01*
X31028Y67875D02*
G03*
X31028Y67875I-203J0D01*
G01*
X56853Y60400D02*
G03*
X56853Y60400I-203J0D01*
G01*
Y61200D02*
G03*
X56853Y61200I-203J0D01*
G01*
X27003Y61500D02*
G03*
X27003Y61500I-203J0D01*
G01*
X26203Y63900D02*
G03*
X26203Y63900I-203J0D01*
G01*
X23528Y58800D02*
G03*
X23528Y58800I-203J0D01*
G01*
X23878Y64225D02*
G03*
X23878Y64225I-203J0D01*
G01*
X34163Y69460D02*
G03*
X34163Y69460I-203J0D01*
G01*
X33603Y70600D02*
G03*
X33603Y70600I-203J0D01*
G01*
X17003Y83775D02*
G03*
X17003Y83775I-203J0D01*
G01*
X15028Y75750D02*
G03*
X15028Y75750I-203J0D01*
G01*
X15478Y77250D02*
G03*
X15478Y77250I-203J0D01*
G01*
Y77800D02*
G03*
X15478Y77800I-203J0D01*
G01*
X11478Y86200D02*
G03*
X11478Y86200I-203J0D01*
G01*
X11453Y85000D02*
G03*
X11453Y85000I-203J0D01*
G01*
X11478Y83800D02*
G03*
X11478Y83800I-203J0D01*
G01*
X13178Y86200D02*
G03*
X13178Y86200I-203J0D01*
G01*
Y85025D02*
G03*
X13178Y85025I-203J0D01*
G01*
Y83800D02*
G03*
X13178Y83800I-203J0D01*
G01*
X14928Y86200D02*
G03*
X14928Y86200I-203J0D01*
G01*
Y85025D02*
G03*
X14928Y85025I-203J0D01*
G01*
Y83800D02*
G03*
X14928Y83800I-203J0D01*
G01*
X19053Y86400D02*
G03*
X19053Y86400I-203J0D01*
G01*
X12803Y78350D02*
G03*
X12803Y78350I-203J0D01*
G01*
X12303D02*
G03*
X12303Y78350I-203J0D01*
G01*
X9453Y92825D02*
G03*
X9453Y92825I-203J0D01*
G01*
Y92075D02*
G03*
X9453Y92075I-203J0D01*
G01*
X9703Y87850D02*
G03*
X9703Y87850I-203J0D01*
G01*
X9203Y90700D02*
G03*
X9203Y90700I-203J0D01*
G01*
X7903D02*
G03*
X7903Y90700I-203J0D01*
G01*
X12753Y92575D02*
G03*
X12753Y92575I-203J0D01*
G01*
X12853Y91825D02*
G03*
X12853Y91825I-203J0D01*
G01*
X12253D02*
G03*
X12253Y91825I-203J0D01*
G01*
X12403Y89050D02*
G03*
X12403Y89050I-203J0D01*
G01*
X11003Y77550D02*
G03*
X11003Y77550I-203J0D01*
G01*
X12403Y81250D02*
G03*
X12403Y81250I-203J0D01*
G01*
X8403Y83950D02*
G03*
X8403Y83950I-203J0D01*
G01*
Y83050D02*
G03*
X8403Y83050I-203J0D01*
G01*
X13003Y81150D02*
G03*
X13003Y81150I-203J0D01*
G01*
X9203Y78200D02*
G03*
X9203Y78200I-203J0D01*
G01*
X9303Y81050D02*
G03*
X9303Y81050I-203J0D01*
G01*
X7303Y80850D02*
G03*
X7303Y80850I-203J0D01*
G01*
X11903Y88550D02*
G03*
X11903Y88550I-203J0D01*
G01*
X17153Y86000D02*
G03*
X17153Y86000I-203J0D01*
G01*
X17503Y84750D02*
G03*
X17503Y84750I-203J0D01*
G01*
X14203Y81550D02*
G03*
X14203Y81550I-203J0D01*
G01*
X12553Y77750D02*
G03*
X12553Y77750I-203J0D01*
G01*
X7303Y78825D02*
G03*
X7303Y78825I-203J0D01*
G01*
X19628Y84725D02*
G03*
X19628Y84725I-203J0D01*
G01*
X12553Y77200D02*
G03*
X12553Y77200I-203J0D01*
G01*
X8403Y87950D02*
G03*
X8403Y87950I-203J0D01*
G01*
X12153Y92825D02*
G03*
X12153Y92825I-203J0D01*
G01*
X11528Y93425D02*
G03*
X11528Y93425I-203J0D01*
G01*
X15428Y92650D02*
G03*
X15428Y92650I-203J0D01*
G01*
Y92150D02*
G03*
X15428Y92150I-203J0D01*
G01*
X13803Y88250D02*
G03*
X13803Y88250I-203J0D01*
G01*
X17953Y82825D02*
G03*
X17953Y82825I-203J0D01*
G01*
X19453Y82000D02*
G03*
X19453Y82000I-203J0D01*
G01*
X19153Y75900D02*
G03*
X19153Y75900I-203J0D01*
G01*
X6303Y85850D02*
G03*
X6303Y85850I-203J0D01*
G01*
X6728Y88400D02*
G03*
X6728Y88400I-203J0D01*
G01*
X5628Y86375D02*
G03*
X5628Y86375I-203J0D01*
G01*
X5728Y87125D02*
G03*
X5728Y87125I-203J0D01*
G01*
M02*
