G04 Layer_Physical_Order=4*
G04 Layer_Color=16711680*
%FSLAX43Y43*%
%MOMM*%
G71*
G01*
G75*
%ADD10R,0.700X0.510*%
%ADD11R,0.510X0.700*%
%ADD12R,0.560X0.510*%
%ADD14R,0.640X0.890*%
%ADD15R,0.510X0.560*%
%ADD18C,0.400*%
%ADD19R,0.890X0.640*%
%ADD24C,0.120*%
%ADD25C,0.300*%
%ADD26C,0.200*%
%ADD27C,0.175*%
%ADD30C,0.100*%
%ADD31C,0.500*%
%ADD33C,0.130*%
%ADD34C,0.400*%
%ADD36C,0.090*%
%ADD38C,0.250*%
%ADD39C,0.600*%
%ADD40R,0.950X0.800*%
%ADD41C,0.800*%
G36*
X85592Y408D02*
X408D01*
Y119592D01*
X85592D01*
Y408D01*
D02*
G37*
%LPC*%
G36*
X33400Y70906D02*
X33283Y70883D01*
X33184Y70816D01*
X33117Y70717D01*
X33094Y70600D01*
X33117Y70483D01*
X33184Y70384D01*
X33283Y70317D01*
X33400Y70294D01*
X33517Y70317D01*
X33616Y70384D01*
X33683Y70483D01*
X33706Y70600D01*
X33683Y70717D01*
X33616Y70816D01*
X33517Y70883D01*
X33400Y70906D01*
D02*
G37*
G36*
X34325Y99085D02*
X11350D01*
X11155Y99046D01*
X10990Y98935D01*
X5340Y93285D01*
X5229Y93120D01*
X5190Y92925D01*
Y89225D01*
X5229Y89030D01*
X5340Y88865D01*
X6165Y88040D01*
X6330Y87929D01*
X6525Y87890D01*
X6720Y87929D01*
X6800Y87830D01*
X5727Y86757D01*
X5450D01*
X5313Y86730D01*
X5198Y86652D01*
X5173Y86627D01*
X5095Y86512D01*
X5068Y86375D01*
X5095Y86238D01*
X5173Y86123D01*
X5288Y86045D01*
X5425Y86018D01*
X5551Y86043D01*
X5875D01*
X6012Y86070D01*
X6127Y86148D01*
X7627Y87648D01*
X7705Y87763D01*
X7732Y87900D01*
Y89550D01*
X7705Y89687D01*
X7627Y89802D01*
X7032Y90398D01*
Y92077D01*
X11773Y96818D01*
X33052D01*
X50853Y79017D01*
X50804Y78900D01*
X43074D01*
X42093Y77918D01*
X42013Y77903D01*
X41914Y77836D01*
X41847Y77737D01*
X41832Y77657D01*
X36500Y72326D01*
X36500Y67645D01*
X35840D01*
Y67602D01*
X35790Y67494D01*
X35712Y67478D01*
X35646Y67434D01*
X35615Y67403D01*
X35600Y67406D01*
X35531Y67392D01*
X35404Y67471D01*
Y68220D01*
X35404Y68220D01*
X35388Y68298D01*
X35344Y68364D01*
X34263Y69445D01*
X34266Y69460D01*
X34243Y69577D01*
X34176Y69676D01*
X34077Y69743D01*
X33960Y69766D01*
X33843Y69743D01*
X33744Y69676D01*
X33677Y69577D01*
X33654Y69460D01*
X33677Y69343D01*
X33744Y69244D01*
X33843Y69177D01*
X33960Y69154D01*
X33975Y69157D01*
X34996Y68136D01*
Y66025D01*
X34980Y65905D01*
X34220D01*
Y65804D01*
X34100D01*
X34100Y65804D01*
X34055Y65795D01*
X34000Y65806D01*
X33883Y65783D01*
X33784Y65716D01*
X33717Y65617D01*
X33707Y65565D01*
X33580Y65577D01*
Y65975D01*
X32820D01*
Y65704D01*
X32625D01*
X32616Y65716D01*
X32517Y65783D01*
X32400Y65806D01*
X32371Y65800D01*
X32358Y65808D01*
X32280Y65824D01*
X31980D01*
Y65975D01*
X31220D01*
Y65704D01*
X31025D01*
X31016Y65716D01*
X30917Y65783D01*
X30800Y65806D01*
X30771Y65800D01*
X30758Y65808D01*
X30680Y65824D01*
X30380D01*
Y65975D01*
X29620D01*
Y65704D01*
X29425D01*
X29416Y65716D01*
X29317Y65783D01*
X29200Y65806D01*
X29083Y65783D01*
X28984Y65716D01*
X28975Y65704D01*
X28780D01*
Y65975D01*
X28020D01*
Y65704D01*
X27825D01*
X27816Y65716D01*
X27717Y65783D01*
X27600Y65806D01*
X27483Y65783D01*
X27384Y65716D01*
X27317Y65617D01*
X27294Y65500D01*
X27317Y65383D01*
X27384Y65284D01*
X27396Y65275D01*
Y64925D01*
X27384Y64916D01*
X27317Y64817D01*
X27294Y64700D01*
X27317Y64583D01*
X27384Y64484D01*
X27483Y64417D01*
X27600Y64394D01*
X27717Y64417D01*
X27816Y64484D01*
X27883Y64583D01*
X27906Y64700D01*
X27883Y64817D01*
X27816Y64916D01*
X27804Y64925D01*
Y65275D01*
X27816Y65284D01*
X27825Y65296D01*
X28020D01*
Y65265D01*
X28780D01*
Y65296D01*
X28975D01*
X28984Y65284D01*
X29083Y65217D01*
X29200Y65194D01*
X29317Y65217D01*
X29416Y65284D01*
X29425Y65296D01*
X29620D01*
Y65265D01*
X30380D01*
Y65416D01*
X30511D01*
X30517Y65383D01*
X30584Y65284D01*
X30683Y65217D01*
X30800Y65194D01*
X30917Y65217D01*
X31016Y65284D01*
X31025Y65296D01*
X31220D01*
Y65265D01*
X31980D01*
Y65416D01*
X32111D01*
X32117Y65383D01*
X32184Y65284D01*
X32283Y65217D01*
X32400Y65194D01*
X32517Y65217D01*
X32616Y65284D01*
X32625Y65296D01*
X32820D01*
Y65265D01*
X33580D01*
Y65423D01*
X33707Y65435D01*
X33717Y65383D01*
X33784Y65284D01*
X33883Y65217D01*
X34000Y65194D01*
X34093Y65213D01*
X34220Y65195D01*
Y65195D01*
X34220Y65195D01*
X34980D01*
X34996Y65075D01*
Y65071D01*
X34869Y64992D01*
X34800Y65006D01*
X34683Y64983D01*
X34584Y64916D01*
X34517Y64817D01*
X34494Y64700D01*
X34517Y64583D01*
X34584Y64484D01*
X34596Y64475D01*
Y64305D01*
X34220D01*
Y64267D01*
X34179Y64233D01*
X34093Y64187D01*
X34000Y64206D01*
X33883Y64183D01*
X33784Y64116D01*
X33775Y64104D01*
X33580D01*
Y64325D01*
X32820D01*
Y64114D01*
X32625D01*
X32616Y64126D01*
X32517Y64193D01*
X32400Y64216D01*
X32283Y64193D01*
X32184Y64126D01*
X32175Y64114D01*
X31980D01*
Y64325D01*
X31220D01*
Y64104D01*
X31025D01*
X31016Y64116D01*
X30917Y64183D01*
X30800Y64206D01*
X30683Y64183D01*
X30584Y64116D01*
X30575Y64104D01*
X30380D01*
Y64325D01*
X29620D01*
Y64104D01*
X29425D01*
X29416Y64116D01*
X29317Y64183D01*
X29200Y64206D01*
X29083Y64183D01*
X28984Y64116D01*
X28917Y64017D01*
X28894Y63900D01*
X28917Y63783D01*
X28984Y63684D01*
X29083Y63617D01*
X29200Y63594D01*
X29317Y63617D01*
X29416Y63684D01*
X29425Y63696D01*
X29620D01*
Y63615D01*
X30380D01*
Y63696D01*
X30575D01*
X30584Y63684D01*
X30683Y63617D01*
X30800Y63594D01*
X30917Y63617D01*
X31016Y63684D01*
X31025Y63696D01*
X31220D01*
Y63615D01*
X31980D01*
Y63706D01*
X32175D01*
X32184Y63694D01*
X32283Y63627D01*
X32400Y63604D01*
X32517Y63627D01*
X32616Y63694D01*
X32625Y63706D01*
X32820D01*
Y63615D01*
X33580D01*
Y63696D01*
X33775D01*
X33784Y63684D01*
X33883Y63617D01*
X34000Y63594D01*
X34093Y63613D01*
X34220Y63595D01*
Y63595D01*
X34220Y63595D01*
X34980D01*
X34996Y63475D01*
Y61125D01*
X34980Y61005D01*
X34869Y61005D01*
X34220D01*
X34220Y61005D01*
X34093Y60987D01*
X34000Y61006D01*
X33883Y60983D01*
X33784Y60916D01*
X33775Y60904D01*
X33580D01*
Y61015D01*
X32820D01*
Y60904D01*
X32625D01*
X32616Y60916D01*
X32517Y60983D01*
X32400Y61006D01*
X32283Y60983D01*
X32184Y60916D01*
X32117Y60817D01*
X32107Y60765D01*
X31980Y60777D01*
Y61015D01*
X31220D01*
Y60864D01*
X31051D01*
X31016Y60916D01*
X30917Y60983D01*
X30800Y61006D01*
X30683Y60983D01*
X30584Y60916D01*
X30575Y60904D01*
X30380D01*
Y61015D01*
X29620D01*
Y60864D01*
X29451D01*
X29416Y60916D01*
X29317Y60983D01*
X29200Y61006D01*
X29083Y60983D01*
X28984Y60916D01*
X28949Y60864D01*
X28780D01*
Y61015D01*
X28020D01*
Y60864D01*
X27851D01*
X27816Y60916D01*
X27717Y60983D01*
X27600Y61006D01*
X27483Y60983D01*
X27384Y60916D01*
X27317Y60817D01*
X27294Y60700D01*
X27317Y60583D01*
X27384Y60484D01*
X27483Y60417D01*
X27600Y60394D01*
X27717Y60417D01*
X27775Y60456D01*
X28020D01*
Y60305D01*
X28780D01*
Y60456D01*
X29025D01*
X29083Y60417D01*
X29200Y60394D01*
X29317Y60417D01*
X29375Y60456D01*
X29620D01*
Y60305D01*
X30380D01*
Y60496D01*
X30575D01*
X30584Y60484D01*
X30683Y60417D01*
X30800Y60394D01*
X30917Y60417D01*
X30975Y60456D01*
X31220D01*
Y60305D01*
X31980D01*
Y60623D01*
X32107Y60635D01*
X32117Y60583D01*
X32184Y60484D01*
X32283Y60417D01*
X32400Y60394D01*
X32517Y60417D01*
X32616Y60484D01*
X32625Y60496D01*
X32820D01*
Y60305D01*
X33580D01*
Y60496D01*
X33775D01*
X33784Y60484D01*
X33883Y60417D01*
X34000Y60394D01*
X34093Y60413D01*
X34179Y60367D01*
X34220Y60333D01*
Y60295D01*
X34875Y60295D01*
X34882Y60269D01*
X34811Y60171D01*
X34783Y60153D01*
X34683Y60133D01*
X34584Y60066D01*
X34517Y59967D01*
X34494Y59850D01*
X34517Y59733D01*
X34584Y59634D01*
X34596Y59625D01*
Y59505D01*
X34220D01*
Y59467D01*
X34179Y59433D01*
X34093Y59387D01*
X34000Y59406D01*
X33883Y59383D01*
X33784Y59316D01*
X33775Y59304D01*
X33580D01*
Y59325D01*
X32820D01*
Y59177D01*
X32693Y59165D01*
X32683Y59217D01*
X32616Y59316D01*
X32517Y59383D01*
X32400Y59406D01*
X32283Y59383D01*
X32184Y59316D01*
X32175Y59304D01*
X31980D01*
Y59325D01*
X31220D01*
Y59174D01*
X31091D01*
X31083Y59217D01*
X31016Y59316D01*
X30917Y59383D01*
X30800Y59406D01*
X30683Y59383D01*
X30584Y59316D01*
X30575Y59304D01*
X30380D01*
Y59325D01*
X29620D01*
Y59174D01*
X29491D01*
X29483Y59217D01*
X29416Y59316D01*
X29317Y59383D01*
X29200Y59406D01*
X29083Y59383D01*
X28984Y59316D01*
X28975Y59304D01*
X28780D01*
Y59325D01*
X28020D01*
Y58615D01*
X28780D01*
Y58896D01*
X28975D01*
X28984Y58884D01*
X29083Y58817D01*
X29200Y58794D01*
X29226Y58799D01*
X29252Y58782D01*
X29330Y58766D01*
X29330Y58766D01*
X29620D01*
Y58615D01*
X30380D01*
Y58896D01*
X30575D01*
X30584Y58884D01*
X30683Y58817D01*
X30800Y58794D01*
X30826Y58799D01*
X30852Y58782D01*
X30930Y58766D01*
X31220D01*
Y58615D01*
X31980D01*
Y58896D01*
X32175D01*
X32184Y58884D01*
X32283Y58817D01*
X32400Y58794D01*
X32517Y58817D01*
X32616Y58884D01*
X32683Y58983D01*
X32693Y59035D01*
X32820Y59023D01*
Y58615D01*
X33580D01*
Y58896D01*
X33775D01*
X33784Y58884D01*
X33883Y58817D01*
X34000Y58794D01*
X34093Y58813D01*
X34220Y58795D01*
Y58795D01*
X34220Y58795D01*
X34980D01*
X34996Y58675D01*
Y57759D01*
X34841Y57604D01*
X33900D01*
X33822Y57588D01*
X33756Y57544D01*
X33215Y57003D01*
X33200Y57006D01*
X33083Y56983D01*
X32984Y56916D01*
X32917Y56817D01*
X32894Y56700D01*
X32917Y56583D01*
X32984Y56484D01*
X33083Y56417D01*
X33200Y56394D01*
X33306Y56415D01*
X33313Y56409D01*
X33342Y56271D01*
X33335Y56265D01*
X33288Y56150D01*
Y54867D01*
X32383Y53962D01*
X28777D01*
X28741Y54016D01*
X28642Y54083D01*
X28627Y54086D01*
X28639Y54213D01*
X31550D01*
X31665Y54260D01*
X32515Y55110D01*
X32562Y55225D01*
Y56448D01*
X32616Y56484D01*
X32683Y56583D01*
X32706Y56700D01*
X32683Y56817D01*
X32616Y56916D01*
X32517Y56983D01*
X32400Y57006D01*
X32283Y56983D01*
X32184Y56916D01*
X32117Y56817D01*
X32094Y56700D01*
X32117Y56583D01*
X32184Y56484D01*
X32238Y56448D01*
Y55292D01*
X31483Y54537D01*
X28175D01*
X28060Y54490D01*
X27760Y54190D01*
X27713Y54075D01*
Y53627D01*
X27659Y53591D01*
X27592Y53492D01*
X27569Y53375D01*
X27592Y53258D01*
X27659Y53159D01*
X27758Y53092D01*
X27875Y53069D01*
X27992Y53092D01*
X28091Y53159D01*
X28158Y53258D01*
X28181Y53375D01*
X28158Y53492D01*
X28091Y53591D01*
X28037Y53627D01*
Y54008D01*
X28242Y54213D01*
X28411D01*
X28423Y54086D01*
X28408Y54083D01*
X28309Y54016D01*
X28242Y53917D01*
X28219Y53800D01*
X28242Y53683D01*
X28309Y53584D01*
X28408Y53517D01*
X28525Y53494D01*
X28642Y53517D01*
X28741Y53584D01*
X28777Y53638D01*
X32450D01*
X32565Y53685D01*
X33565Y54685D01*
X33612Y54800D01*
Y56083D01*
X33936Y56407D01*
X34000Y56394D01*
X34117Y56417D01*
X34216Y56484D01*
X34283Y56583D01*
X34306Y56700D01*
X34283Y56817D01*
X34216Y56916D01*
X34117Y56983D01*
X34000Y57006D01*
X33985Y57003D01*
X33927Y57114D01*
X33993Y57196D01*
X34925D01*
X35003Y57212D01*
X35069Y57256D01*
X35344Y57531D01*
X35388Y57597D01*
X35404Y57675D01*
Y58729D01*
X35531Y58808D01*
X35600Y58794D01*
X35713Y58817D01*
X35717Y58817D01*
X35840Y58747D01*
Y58615D01*
X36500D01*
X36500Y55362D01*
X39088Y51704D01*
X39053Y51633D01*
X39017Y51583D01*
X38913Y51563D01*
X38814Y51496D01*
X38747Y51397D01*
X38724Y51280D01*
X38747Y51163D01*
X38814Y51064D01*
X38913Y50997D01*
X39030Y50974D01*
X39147Y50997D01*
X39246Y51064D01*
X39313Y51163D01*
X39313Y51165D01*
X39448Y51194D01*
X41000Y49000D01*
X52650D01*
Y51875D01*
X51625Y52900D01*
X50786D01*
Y53929D01*
X50870Y54032D01*
X51610D01*
X51646Y54047D01*
X52334D01*
X52370Y54032D01*
X66480D01*
X66557Y54063D01*
X68387Y55893D01*
X68418Y55970D01*
X68418Y58310D01*
X68413Y58322D01*
Y59058D01*
X68418Y59070D01*
X68418Y60430D01*
X68413Y60442D01*
Y61178D01*
X68418Y61190D01*
X68418Y62680D01*
X68413Y62692D01*
Y63428D01*
X68418Y63440D01*
X68418Y64700D01*
X68413Y64712D01*
Y65448D01*
X68418Y65460D01*
X68418Y69936D01*
X68418Y69938D01*
X68418Y69939D01*
X68402Y69976D01*
X68387Y70013D01*
X68385Y70014D01*
X68385Y70015D01*
X66249Y72048D01*
X66211Y72063D01*
X66174Y72078D01*
X62950Y72078D01*
X61010Y72078D01*
Y72400D01*
X60971Y72595D01*
X60860Y72760D01*
X34685Y98935D01*
X34520Y99046D01*
X34325Y99085D01*
D02*
G37*
G36*
X33580Y67645D02*
X32820D01*
Y67304D01*
X32625D01*
X32616Y67316D01*
X32517Y67383D01*
X32400Y67406D01*
X32283Y67383D01*
X32184Y67316D01*
X32175Y67304D01*
X31980D01*
Y67645D01*
X31220D01*
Y67304D01*
X31025D01*
X31016Y67316D01*
X30917Y67383D01*
X30800Y67406D01*
X30683Y67383D01*
X30584Y67316D01*
X30575Y67304D01*
X30380D01*
Y67645D01*
X29620D01*
Y67304D01*
X29425D01*
X29416Y67316D01*
X29317Y67383D01*
X29200Y67406D01*
X29083Y67383D01*
X28984Y67316D01*
X28975Y67304D01*
X28780D01*
Y67645D01*
X28020D01*
Y66935D01*
X28477D01*
X28512Y66912D01*
X28590Y66896D01*
X28975D01*
X28984Y66884D01*
X29083Y66817D01*
X29200Y66794D01*
X29317Y66817D01*
X29416Y66884D01*
X29425Y66896D01*
X29810D01*
X29888Y66912D01*
X29923Y66935D01*
X30077D01*
X30112Y66912D01*
X30190Y66896D01*
X30575D01*
X30584Y66884D01*
X30683Y66817D01*
X30800Y66794D01*
X30917Y66817D01*
X31016Y66884D01*
X31025Y66896D01*
X31410D01*
X31488Y66912D01*
X31523Y66935D01*
X31677D01*
X31712Y66912D01*
X31790Y66896D01*
X32175D01*
X32184Y66884D01*
X32283Y66817D01*
X32400Y66794D01*
X32517Y66817D01*
X32616Y66884D01*
X32625Y66896D01*
X33010D01*
X33088Y66912D01*
X33123Y66935D01*
X33277D01*
X33312Y66912D01*
X33390Y66896D01*
X33775D01*
X33784Y66884D01*
X33883Y66817D01*
X34000Y66794D01*
X34117Y66817D01*
X34216Y66884D01*
X34283Y66983D01*
X34306Y67100D01*
X34283Y67217D01*
X34216Y67316D01*
X34117Y67383D01*
X34000Y67406D01*
X33883Y67383D01*
X33784Y67316D01*
X33775Y67304D01*
X33580D01*
Y67645D01*
D02*
G37*
G36*
X30350Y73256D02*
X30233Y73233D01*
X30134Y73166D01*
X30067Y73067D01*
X30044Y72950D01*
X30067Y72833D01*
X30105Y72776D01*
X30106Y72742D01*
X30061Y72704D01*
X29977Y72681D01*
X29967Y72683D01*
X29850Y72706D01*
X29733Y72683D01*
X29634Y72616D01*
X29567Y72517D01*
X29544Y72400D01*
X29567Y72283D01*
X29634Y72184D01*
X29687Y72148D01*
Y71925D01*
X29687Y71925D01*
X29699Y71863D01*
X29735Y71810D01*
X30212Y71332D01*
Y68325D01*
X30212Y68325D01*
X30224Y68263D01*
X30260Y68210D01*
X30532Y67938D01*
X30519Y67875D01*
X30542Y67758D01*
X30609Y67659D01*
X30708Y67592D01*
X30825Y67569D01*
X30942Y67592D01*
X31041Y67659D01*
X31108Y67758D01*
X31131Y67875D01*
X31108Y67992D01*
X31041Y68091D01*
X30942Y68158D01*
X30825Y68181D01*
X30781Y68172D01*
X30691Y68262D01*
X30692Y68268D01*
X30825Y68369D01*
X30942Y68392D01*
X31041Y68459D01*
X31108Y68558D01*
X31131Y68675D01*
X31108Y68792D01*
X31041Y68891D01*
X30993Y68923D01*
Y71600D01*
X30980Y71664D01*
X30944Y71719D01*
X30518Y72145D01*
Y72702D01*
X30566Y72734D01*
X30633Y72833D01*
X30656Y72950D01*
X30633Y73067D01*
X30566Y73166D01*
X30467Y73233D01*
X30350Y73256D01*
D02*
G37*
G36*
X15275Y78106D02*
X15158Y78083D01*
X15059Y78016D01*
X14992Y77917D01*
X14969Y77800D01*
X14992Y77683D01*
X15042Y77608D01*
X15052Y77525D01*
X15042Y77442D01*
X14992Y77367D01*
X14969Y77250D01*
X14992Y77133D01*
X15059Y77034D01*
X15158Y76967D01*
X15275Y76944D01*
X15392Y76967D01*
X15491Y77034D01*
X15558Y77133D01*
X15581Y77250D01*
X15558Y77367D01*
X15508Y77442D01*
X15498Y77525D01*
X15508Y77608D01*
X15558Y77683D01*
X15581Y77800D01*
X15558Y77917D01*
X15491Y78016D01*
X15392Y78083D01*
X15275Y78106D01*
D02*
G37*
G36*
X18950Y76206D02*
X18833Y76183D01*
X18734Y76116D01*
X18667Y76017D01*
X18644Y75900D01*
X18667Y75783D01*
X18734Y75684D01*
X18833Y75617D01*
X18950Y75594D01*
X19067Y75617D01*
X19166Y75684D01*
X19233Y75783D01*
X19256Y75900D01*
X19233Y76017D01*
X19166Y76116D01*
X19067Y76183D01*
X18950Y76206D01*
D02*
G37*
G36*
X21175Y73731D02*
X21058Y73708D01*
X20959Y73641D01*
X20892Y73542D01*
X20869Y73425D01*
X20892Y73308D01*
X20959Y73209D01*
X21058Y73142D01*
X21175Y73119D01*
X21292Y73142D01*
X21391Y73209D01*
X21458Y73308D01*
X21481Y73425D01*
X21458Y73542D01*
X21391Y73641D01*
X21292Y73708D01*
X21175Y73731D01*
D02*
G37*
G36*
X25630Y64605D02*
X24920D01*
Y63845D01*
X25295D01*
X25420Y63720D01*
X25502Y63665D01*
X25600Y63645D01*
X25841D01*
X25883Y63617D01*
X26000Y63594D01*
X26117Y63617D01*
X26216Y63684D01*
X26283Y63783D01*
X26306Y63900D01*
X26283Y64017D01*
X26216Y64116D01*
X26117Y64183D01*
X26000Y64206D01*
X25883Y64183D01*
X25841Y64155D01*
X25706D01*
X25630Y64230D01*
Y64605D01*
D02*
G37*
G36*
X36000Y55240D02*
X35883Y55217D01*
X35784Y55151D01*
X35717Y55051D01*
X35694Y54934D01*
X35717Y54817D01*
X35784Y54718D01*
X35883Y54652D01*
X36000Y54628D01*
X36117Y54652D01*
X36216Y54718D01*
X36283Y54817D01*
X36306Y54934D01*
X36283Y55051D01*
X36216Y55151D01*
X36117Y55217D01*
X36000Y55240D01*
D02*
G37*
G36*
X34950Y54431D02*
X34833Y54408D01*
X34734Y54341D01*
X34667Y54242D01*
X34644Y54125D01*
X34667Y54008D01*
X34734Y53909D01*
X34833Y53842D01*
X34950Y53819D01*
X35067Y53842D01*
X35166Y53909D01*
X35233Y54008D01*
X35256Y54125D01*
X35233Y54242D01*
X35166Y54341D01*
X35067Y54408D01*
X34950Y54431D01*
D02*
G37*
G36*
X54290Y52326D02*
X54173Y52303D01*
X54074Y52236D01*
X54007Y52137D01*
X53984Y52020D01*
X54007Y51903D01*
X54074Y51804D01*
X54173Y51737D01*
X54290Y51714D01*
X54407Y51737D01*
X54506Y51804D01*
X54573Y51903D01*
X54596Y52020D01*
X54573Y52137D01*
X54506Y52236D01*
X54407Y52303D01*
X54290Y52326D01*
D02*
G37*
G36*
X23575Y60225D02*
X22425D01*
Y59225D01*
X23273D01*
X23285Y59098D01*
X23208Y59083D01*
X23109Y59016D01*
X23042Y58917D01*
X23019Y58800D01*
X23042Y58683D01*
X23109Y58584D01*
X23208Y58517D01*
X23302Y58499D01*
X23338Y58463D01*
X23412Y58413D01*
X23500Y58396D01*
X23825D01*
Y58270D01*
X24725D01*
Y58980D01*
X23825D01*
Y58854D01*
X23620D01*
X23608Y58917D01*
X23541Y59016D01*
X23442Y59083D01*
X23365Y59098D01*
X23377Y59225D01*
X23575D01*
Y59270D01*
X23825D01*
Y59170D01*
X24725D01*
Y59880D01*
X23825D01*
Y59780D01*
X23575D01*
Y60225D01*
D02*
G37*
G36*
X28780Y63425D02*
X28020D01*
Y63304D01*
X27825D01*
X27816Y63316D01*
X27717Y63383D01*
X27600Y63406D01*
X27483Y63383D01*
X27384Y63316D01*
X27317Y63217D01*
X27294Y63100D01*
X27317Y62983D01*
X27384Y62884D01*
X27396Y62875D01*
Y62525D01*
X27384Y62516D01*
X27317Y62417D01*
X27294Y62300D01*
X27317Y62183D01*
X27384Y62084D01*
X27483Y62017D01*
X27600Y61994D01*
X27717Y62017D01*
X27816Y62084D01*
X27825Y62096D01*
X28020D01*
Y61965D01*
X28780D01*
Y62096D01*
X28975D01*
X28984Y62084D01*
X29083Y62017D01*
X29200Y61994D01*
X29317Y62017D01*
X29416Y62084D01*
X29483Y62183D01*
X29493Y62235D01*
X29620Y62223D01*
Y61965D01*
X30380D01*
Y62116D01*
X30562D01*
X30584Y62084D01*
X30683Y62017D01*
X30800Y61994D01*
X30917Y62017D01*
X31016Y62084D01*
X31025Y62096D01*
X31220D01*
Y61965D01*
X31980D01*
Y62116D01*
X32162D01*
X32184Y62084D01*
X32283Y62017D01*
X32400Y61994D01*
X32517Y62017D01*
X32616Y62084D01*
X32625Y62096D01*
X32820D01*
Y61965D01*
X33580D01*
Y62116D01*
X33762D01*
X33784Y62084D01*
X33883Y62017D01*
X34000Y61994D01*
X34117Y62017D01*
X34216Y62084D01*
X34283Y62183D01*
X34306Y62300D01*
X34283Y62417D01*
X34216Y62516D01*
X34117Y62583D01*
X34000Y62606D01*
X33883Y62583D01*
X33795Y62524D01*
X33580D01*
Y62675D01*
X32820D01*
Y62504D01*
X32625D01*
X32616Y62516D01*
X32517Y62583D01*
X32400Y62606D01*
X32283Y62583D01*
X32195Y62524D01*
X31980D01*
Y62675D01*
X31220D01*
Y62504D01*
X31025D01*
X31016Y62516D01*
X30917Y62583D01*
X30800Y62606D01*
X30683Y62583D01*
X30595Y62524D01*
X30380D01*
Y62675D01*
X29620D01*
Y62377D01*
X29493Y62365D01*
X29483Y62417D01*
X29416Y62516D01*
X29317Y62583D01*
X29200Y62606D01*
X29083Y62583D01*
X28984Y62516D01*
X28975Y62504D01*
X28780D01*
Y62675D01*
X28780D01*
Y62715D01*
X28780D01*
Y63425D01*
D02*
G37*
G36*
X6125Y80330D02*
X5225D01*
Y79620D01*
X5420D01*
Y70825D01*
X5440Y70727D01*
X5495Y70645D01*
X14820Y61320D01*
X14902Y61265D01*
X15000Y61245D01*
X22425D01*
Y60825D01*
X23575D01*
Y61245D01*
X23825D01*
Y61120D01*
X24725D01*
Y61245D01*
X25720D01*
Y61145D01*
X26480D01*
Y61245D01*
X26641D01*
X26683Y61217D01*
X26800Y61194D01*
X26917Y61217D01*
X27016Y61284D01*
X27083Y61383D01*
X27106Y61500D01*
X27083Y61617D01*
X27016Y61716D01*
X26917Y61783D01*
X26800Y61806D01*
X26683Y61783D01*
X26642Y61755D01*
X26480D01*
Y61855D01*
X25720D01*
Y61755D01*
X24725D01*
Y61830D01*
X23825D01*
Y61755D01*
X23575D01*
Y61825D01*
X22425D01*
Y61755D01*
X15106D01*
X5930Y70931D01*
Y79620D01*
X6125D01*
Y80330D01*
D02*
G37*
G36*
X24725Y60930D02*
X23825D01*
Y60220D01*
X24342D01*
X24456Y60106D01*
X24522Y60062D01*
X24600Y60046D01*
X24600Y60046D01*
X24870D01*
Y59670D01*
X25630D01*
Y59696D01*
X25775D01*
X25784Y59684D01*
X25883Y59617D01*
X26000Y59594D01*
X26117Y59617D01*
X26216Y59684D01*
X26283Y59783D01*
X26306Y59900D01*
X26283Y60017D01*
X26216Y60116D01*
X26117Y60183D01*
X26000Y60206D01*
X25883Y60183D01*
X25784Y60116D01*
X25775Y60104D01*
X25630D01*
Y60380D01*
X25183D01*
X25169Y60394D01*
X25103Y60438D01*
X25025Y60454D01*
X24725D01*
Y60930D01*
D02*
G37*
G36*
X7100Y81156D02*
X6983Y81133D01*
X6884Y81066D01*
X6817Y80967D01*
X6794Y80850D01*
X6817Y80733D01*
X6884Y80634D01*
X6983Y80567D01*
X7100Y80544D01*
X7217Y80567D01*
X7316Y80634D01*
X7383Y80733D01*
X7406Y80850D01*
X7383Y80967D01*
X7316Y81066D01*
X7217Y81133D01*
X7100Y81156D01*
D02*
G37*
G36*
X8200Y88256D02*
X8083Y88233D01*
X7984Y88166D01*
X7917Y88067D01*
X7894Y87950D01*
X7917Y87833D01*
X7984Y87734D01*
X8083Y87667D01*
X8200Y87644D01*
X8317Y87667D01*
X8416Y87734D01*
X8483Y87833D01*
X8506Y87950D01*
X8483Y88067D01*
X8416Y88166D01*
X8317Y88233D01*
X8200Y88256D01*
D02*
G37*
G36*
X31470Y90320D02*
X30380D01*
Y90155D01*
X30325D01*
X30227Y90135D01*
X30145Y90080D01*
X29932Y89867D01*
X29883Y89858D01*
X29784Y89791D01*
X29717Y89692D01*
X29694Y89575D01*
X29717Y89458D01*
X29784Y89359D01*
X29883Y89292D01*
X29932Y89283D01*
X30345Y88869D01*
Y87930D01*
X29980D01*
X28280Y89630D01*
X28198Y89685D01*
X28100Y89705D01*
X27809D01*
X27767Y89733D01*
X27650Y89756D01*
X27533Y89733D01*
X27491Y89705D01*
X27345D01*
Y89995D01*
X26255D01*
Y89390D01*
X23445Y86580D01*
X23390Y86498D01*
X23370Y86400D01*
Y85381D01*
X22403Y84413D01*
X22260Y84450D01*
X22216Y84516D01*
X22162Y84552D01*
Y86548D01*
X22216Y86584D01*
X22283Y86683D01*
X22306Y86800D01*
X22283Y86917D01*
X22216Y87016D01*
X22117Y87083D01*
X22000Y87106D01*
X21883Y87083D01*
X21789Y87020D01*
X21757Y87027D01*
X21662Y87063D01*
Y87548D01*
X21716Y87584D01*
X21783Y87683D01*
X21806Y87800D01*
X21783Y87917D01*
X21716Y88016D01*
X21617Y88083D01*
X21500Y88106D01*
X21383Y88083D01*
X21284Y88016D01*
X21217Y87917D01*
X21194Y87800D01*
X21217Y87683D01*
X21284Y87584D01*
X21338Y87548D01*
Y84552D01*
X21284Y84516D01*
X21217Y84417D01*
X21194Y84300D01*
X21217Y84183D01*
X21284Y84084D01*
X21383Y84017D01*
X21445Y84005D01*
X21454Y83993D01*
X21486Y83872D01*
X19419Y81805D01*
X15731D01*
X15230Y82305D01*
X15148Y82360D01*
X15050Y82380D01*
X11925D01*
X11827Y82360D01*
X11745Y82305D01*
X10620Y81180D01*
X10564Y81098D01*
X10545Y81000D01*
Y77709D01*
X10517Y77667D01*
X10494Y77550D01*
X10517Y77433D01*
X10584Y77334D01*
X10683Y77267D01*
X10800Y77244D01*
X10917Y77267D01*
X10958Y77295D01*
X11325D01*
X11423Y77315D01*
X11505Y77370D01*
X11705Y77570D01*
X11760Y77652D01*
X11780Y77750D01*
Y80469D01*
X12268Y80958D01*
X12317Y80967D01*
X12391Y81017D01*
X12448Y81024D01*
X12543Y80995D01*
X12584Y80934D01*
X12683Y80867D01*
X12800Y80844D01*
X12917Y80867D01*
X13016Y80934D01*
X13083Y81033D01*
X13106Y81150D01*
X13083Y81267D01*
X13016Y81366D01*
X12917Y81433D01*
X12800Y81456D01*
X12683Y81433D01*
X12609Y81383D01*
X12552Y81376D01*
X12457Y81405D01*
X12416Y81466D01*
X12317Y81533D01*
X12200Y81556D01*
X12083Y81533D01*
X11984Y81466D01*
X11917Y81367D01*
X11908Y81318D01*
X11345Y80755D01*
X11290Y80673D01*
X11270Y80575D01*
Y77856D01*
X11219Y77805D01*
X11055D01*
Y80894D01*
X12031Y81870D01*
X13712D01*
X13741Y81827D01*
X13768Y81743D01*
X13717Y81667D01*
X13694Y81550D01*
X13717Y81433D01*
X13784Y81334D01*
X13796Y81325D01*
Y76575D01*
X13812Y76497D01*
X13856Y76431D01*
X14522Y75765D01*
X14519Y75750D01*
X14542Y75633D01*
X14609Y75534D01*
X14708Y75467D01*
X14825Y75444D01*
X14942Y75467D01*
X15041Y75534D01*
X15108Y75633D01*
X15131Y75750D01*
X15108Y75867D01*
X15041Y75966D01*
X14942Y76033D01*
X14825Y76056D01*
X14810Y76053D01*
X14204Y76659D01*
Y81325D01*
X14216Y81334D01*
X14283Y81433D01*
X14306Y81550D01*
X14283Y81667D01*
X14232Y81743D01*
X14259Y81827D01*
X14288Y81870D01*
X14944D01*
X15445Y81370D01*
X15527Y81315D01*
X15625Y81295D01*
X19525D01*
X19623Y81315D01*
X19705Y81370D01*
X21806Y83470D01*
X22075D01*
X22173Y83490D01*
X22255Y83545D01*
X23805Y85095D01*
X23860Y85177D01*
X23880Y85275D01*
Y86294D01*
X26740Y89155D01*
X27345D01*
Y89195D01*
X27491D01*
X27533Y89167D01*
X27650Y89144D01*
X27767Y89167D01*
X27809Y89195D01*
X27994D01*
X29645Y87545D01*
Y87170D01*
X29745D01*
Y87050D01*
X29764Y86952D01*
X29777Y86933D01*
X29792Y86858D01*
X29827Y86807D01*
X29765Y86680D01*
X29400D01*
X29302Y86660D01*
X29220Y86605D01*
X28832Y86217D01*
X28783Y86208D01*
X28684Y86141D01*
X28617Y86042D01*
X28594Y85925D01*
X28608Y85857D01*
X28528Y85730D01*
X28470D01*
Y84970D01*
X29180D01*
Y85730D01*
X29180Y85730D01*
X29191Y85852D01*
X29192Y85857D01*
X29506Y86170D01*
X30225D01*
X30323Y86190D01*
X30405Y86245D01*
X30780Y86620D01*
X30835Y86702D01*
X30855Y86800D01*
Y88975D01*
X30835Y89073D01*
X30780Y89155D01*
X30573Y89363D01*
X30621Y89480D01*
X31470D01*
Y90320D01*
D02*
G37*
G36*
X16950Y86306D02*
X16833Y86283D01*
X16734Y86216D01*
X16667Y86117D01*
X16644Y86000D01*
X16667Y85883D01*
X16734Y85784D01*
X16833Y85717D01*
X16950Y85694D01*
X17067Y85717D01*
X17166Y85784D01*
X17233Y85883D01*
X17256Y86000D01*
X17233Y86117D01*
X17166Y86216D01*
X17067Y86283D01*
X16950Y86306D01*
D02*
G37*
G36*
X9500Y88156D02*
X9383Y88133D01*
X9284Y88066D01*
X9217Y87967D01*
X9194Y87850D01*
X9217Y87733D01*
X9284Y87634D01*
X9383Y87567D01*
X9500Y87544D01*
X9617Y87567D01*
X9716Y87634D01*
X9783Y87733D01*
X9806Y87850D01*
X9783Y87967D01*
X9716Y88066D01*
X9617Y88133D01*
X9500Y88156D01*
D02*
G37*
G36*
X13600Y88556D02*
X13483Y88533D01*
X13384Y88466D01*
X13317Y88367D01*
X13294Y88250D01*
X13317Y88133D01*
X13384Y88034D01*
X13483Y87967D01*
X13600Y87944D01*
X13717Y87967D01*
X13816Y88034D01*
X13883Y88133D01*
X13906Y88250D01*
X13883Y88367D01*
X13816Y88466D01*
X13717Y88533D01*
X13600Y88556D01*
D02*
G37*
G36*
X11950Y93131D02*
X11833Y93108D01*
X11734Y93041D01*
X11667Y92942D01*
X11644Y92825D01*
X11667Y92708D01*
X11734Y92609D01*
X11833Y92542D01*
X11950Y92519D01*
X12067Y92542D01*
X12166Y92609D01*
X12233Y92708D01*
X12256Y92825D01*
X12233Y92942D01*
X12166Y93041D01*
X12067Y93108D01*
X11950Y93131D01*
D02*
G37*
G36*
X11325Y93731D02*
X11208Y93708D01*
X11109Y93641D01*
X11042Y93542D01*
X11019Y93425D01*
X11042Y93308D01*
X11109Y93209D01*
X11208Y93142D01*
X11325Y93119D01*
X11442Y93142D01*
X11541Y93209D01*
X11608Y93308D01*
X11631Y93425D01*
X11608Y93542D01*
X11541Y93641D01*
X11442Y93708D01*
X11325Y93731D01*
D02*
G37*
G36*
X12200Y89356D02*
X12083Y89333D01*
X11984Y89266D01*
X11917Y89167D01*
X11894Y89050D01*
X11917Y88933D01*
X11935Y88906D01*
X11844Y88815D01*
X11817Y88833D01*
X11700Y88856D01*
X11583Y88833D01*
X11484Y88766D01*
X11417Y88667D01*
X11394Y88550D01*
X11417Y88433D01*
X11484Y88334D01*
X11583Y88267D01*
X11700Y88244D01*
X11817Y88267D01*
X11916Y88334D01*
X11983Y88433D01*
X12006Y88550D01*
X11983Y88667D01*
X11965Y88694D01*
X12056Y88785D01*
X12083Y88767D01*
X12200Y88744D01*
X12317Y88767D01*
X12416Y88834D01*
X12483Y88933D01*
X12506Y89050D01*
X12483Y89167D01*
X12416Y89266D01*
X12317Y89333D01*
X12200Y89356D01*
D02*
G37*
G36*
X15225Y92956D02*
X15108Y92933D01*
X15009Y92866D01*
X14942Y92767D01*
X14919Y92650D01*
X14942Y92533D01*
X14969Y92493D01*
X14998Y92400D01*
X14969Y92307D01*
X14942Y92267D01*
X14919Y92150D01*
X14942Y92033D01*
X15009Y91934D01*
X15108Y91867D01*
X15225Y91844D01*
X15342Y91867D01*
X15441Y91934D01*
X15508Y92033D01*
X15531Y92150D01*
X15508Y92267D01*
X15481Y92307D01*
X15452Y92400D01*
X15481Y92493D01*
X15508Y92533D01*
X15531Y92650D01*
X15508Y92767D01*
X15441Y92866D01*
X15342Y92933D01*
X15225Y92956D01*
D02*
G37*
G36*
X9100Y81356D02*
X8983Y81333D01*
X8884Y81266D01*
X8817Y81167D01*
X8794Y81050D01*
X8817Y80933D01*
X8884Y80834D01*
X8983Y80767D01*
X9100Y80744D01*
X9217Y80767D01*
X9316Y80834D01*
X9383Y80933D01*
X9406Y81050D01*
X9383Y81167D01*
X9316Y81266D01*
X9217Y81333D01*
X9100Y81356D01*
D02*
G37*
G36*
X8200Y83356D02*
X8083Y83333D01*
X8041Y83305D01*
X7375D01*
X7277Y83285D01*
X7195Y83230D01*
X5495Y81530D01*
X5440Y81448D01*
X5420Y81350D01*
Y81230D01*
X5225D01*
Y80520D01*
X6125D01*
Y81230D01*
X6095D01*
X6042Y81357D01*
X7481Y82795D01*
X8041D01*
X8083Y82767D01*
X8200Y82744D01*
X8317Y82767D01*
X8416Y82834D01*
X8483Y82933D01*
X8506Y83050D01*
X8483Y83167D01*
X8416Y83266D01*
X8317Y83333D01*
X8200Y83356D01*
D02*
G37*
G36*
X17750Y83131D02*
X17633Y83108D01*
X17534Y83041D01*
X17467Y82942D01*
X17444Y82825D01*
X17467Y82708D01*
X17534Y82609D01*
X17633Y82542D01*
X17750Y82519D01*
X17867Y82542D01*
X17966Y82609D01*
X18033Y82708D01*
X18056Y82825D01*
X18033Y82942D01*
X17966Y83041D01*
X17867Y83108D01*
X17750Y83131D01*
D02*
G37*
G36*
X16800Y84081D02*
X16683Y84058D01*
X16584Y83991D01*
X16517Y83892D01*
X16494Y83775D01*
X16517Y83658D01*
X16584Y83559D01*
X16683Y83492D01*
X16800Y83469D01*
X16917Y83492D01*
X17016Y83559D01*
X17083Y83658D01*
X17106Y83775D01*
X17083Y83892D01*
X17016Y83991D01*
X16917Y84058D01*
X16800Y84081D01*
D02*
G37*
G36*
X17300Y85056D02*
X17183Y85033D01*
X17084Y84966D01*
X17017Y84867D01*
X16994Y84750D01*
X17017Y84633D01*
X17084Y84534D01*
X17183Y84467D01*
X17300Y84444D01*
X17417Y84467D01*
X17516Y84534D01*
X17583Y84633D01*
X17606Y84750D01*
X17583Y84867D01*
X17516Y84966D01*
X17417Y85033D01*
X17300Y85056D01*
D02*
G37*
G36*
X8200Y84256D02*
X8083Y84233D01*
X7984Y84166D01*
X7917Y84067D01*
X7894Y83950D01*
X7917Y83833D01*
X7984Y83734D01*
X8083Y83667D01*
X8200Y83644D01*
X8317Y83667D01*
X8416Y83734D01*
X8483Y83833D01*
X8506Y83950D01*
X8483Y84067D01*
X8416Y84166D01*
X8317Y84233D01*
X8200Y84256D01*
D02*
G37*
G36*
X31850Y83756D02*
X31733Y83733D01*
X31634Y83666D01*
X31594Y83607D01*
X29656D01*
X29616Y83666D01*
X29517Y83733D01*
X29400Y83756D01*
X29283Y83733D01*
X29184Y83666D01*
X29117Y83567D01*
X29094Y83450D01*
X29117Y83333D01*
X29184Y83234D01*
X29283Y83167D01*
X29400Y83144D01*
X29517Y83167D01*
X29616Y83234D01*
X29656Y83293D01*
X31594D01*
X31634Y83234D01*
X31733Y83167D01*
X31850Y83144D01*
X31967Y83167D01*
X32066Y83234D01*
X32133Y83333D01*
X32156Y83450D01*
X32133Y83567D01*
X32066Y83666D01*
X31967Y83733D01*
X31850Y83756D01*
D02*
G37*
%LPD*%
G36*
X59974Y72205D02*
X59951Y72078D01*
X59410D01*
X52427D01*
X52300Y72189D01*
X52300Y77404D01*
X52417Y77453D01*
X55173Y74698D01*
X55288Y74620D01*
X55425Y74593D01*
X56164D01*
X56194Y74573D01*
X56350Y74542D01*
X56506Y74573D01*
X56638Y74662D01*
X56727Y74794D01*
X56758Y74950D01*
X56727Y75106D01*
X56638Y75238D01*
X56506Y75327D01*
X56350Y75358D01*
X56194Y75327D01*
X56164Y75307D01*
X55573D01*
X52300Y78580D01*
Y78900D01*
X51980D01*
X33452Y97427D01*
X33337Y97505D01*
X33200Y97532D01*
X11625D01*
X11488Y97505D01*
X11373Y97427D01*
X6423Y92477D01*
X6345Y92362D01*
X6337Y92319D01*
X6210Y92331D01*
Y92714D01*
X11561Y98065D01*
X34114D01*
X59974Y72205D01*
D02*
G37*
G36*
X62950Y71970D02*
X66174Y71970D01*
X68310Y69936D01*
X68310Y65460D01*
X68305D01*
Y64700D01*
X68310D01*
X68310Y63440D01*
X68305D01*
Y62680D01*
X68310D01*
X68310Y61190D01*
X68305D01*
Y60430D01*
X68310D01*
X68310Y59070D01*
X68305D01*
Y58310D01*
X68310D01*
X68310Y55970D01*
X66480Y54140D01*
X52370D01*
Y54155D01*
X51610D01*
Y54140D01*
X50870D01*
Y54970D01*
Y56200D01*
X61690D01*
X65475Y56200D01*
X66270Y56995D01*
Y57112D01*
X66275Y57116D01*
X66275Y67068D01*
X66274Y67069D01*
X66275Y68325D01*
X64745Y69845D01*
X63260Y69845D01*
X62620Y69845D01*
X61150Y69845D01*
X52340D01*
Y71970D01*
X59410D01*
X61135Y71970D01*
X62950Y71970D01*
D02*
G37*
%LPC*%
G36*
X56380Y73306D02*
X56263Y73283D01*
X56164Y73216D01*
X56097Y73117D01*
X56074Y73000D01*
X56097Y72883D01*
X56164Y72784D01*
X56263Y72717D01*
X56380Y72694D01*
X56497Y72717D01*
X56596Y72784D01*
X56663Y72883D01*
X56686Y73000D01*
X56663Y73117D01*
X56596Y73216D01*
X56497Y73283D01*
X56380Y73306D01*
D02*
G37*
%LPD*%
D10*
X52970Y70350D02*
D03*
Y69450D02*
D03*
X53990Y70350D02*
D03*
Y69450D02*
D03*
X55020Y70350D02*
D03*
Y69450D02*
D03*
X57080Y70350D02*
D03*
Y69450D02*
D03*
X58110Y70350D02*
D03*
Y69450D02*
D03*
X51450Y55710D02*
D03*
Y56610D02*
D03*
X52480Y55710D02*
D03*
Y56610D02*
D03*
X53500Y55710D02*
D03*
Y56610D02*
D03*
X54530Y55710D02*
D03*
Y56610D02*
D03*
X55570Y57470D02*
D03*
Y56570D02*
D03*
X56610Y55710D02*
D03*
Y56610D02*
D03*
X57640Y55710D02*
D03*
Y56610D02*
D03*
X58670Y55710D02*
D03*
Y56610D02*
D03*
X59700Y55710D02*
D03*
Y56610D02*
D03*
X60730Y55710D02*
D03*
Y56610D02*
D03*
X61760Y55710D02*
D03*
Y56610D02*
D03*
X62790Y55710D02*
D03*
Y56610D02*
D03*
X56050Y70350D02*
D03*
Y69450D02*
D03*
X59850Y61320D02*
D03*
Y60420D02*
D03*
X24275Y60575D02*
D03*
X24275Y61475D02*
D03*
Y59525D02*
D03*
Y58625D02*
D03*
X5675Y79975D02*
D03*
Y80875D02*
D03*
D11*
X66750Y58250D02*
D03*
X65850D02*
D03*
X66750Y59310D02*
D03*
X65850D02*
D03*
X66750Y60370D02*
D03*
X65850D02*
D03*
X66750Y61430D02*
D03*
X65850D02*
D03*
X66750Y62490D02*
D03*
X65850D02*
D03*
X66750Y63550D02*
D03*
X65850D02*
D03*
X66750Y64610D02*
D03*
X65850D02*
D03*
X66750Y65670D02*
D03*
X65850D02*
D03*
D12*
X53480Y72400D02*
D03*
Y71500D02*
D03*
X55550Y72400D02*
D03*
Y71500D02*
D03*
X57610Y72400D02*
D03*
Y71500D02*
D03*
X51990Y53800D02*
D03*
Y54700D02*
D03*
X54010Y53760D02*
D03*
Y54660D02*
D03*
X56090Y53760D02*
D03*
Y54660D02*
D03*
X58140Y53760D02*
D03*
Y54660D02*
D03*
X60730Y53770D02*
D03*
Y54670D02*
D03*
X61330Y58710D02*
D03*
Y59610D02*
D03*
X28400Y58070D02*
D03*
Y58970D02*
D03*
Y59760D02*
D03*
Y60660D02*
D03*
Y61420D02*
D03*
Y62320D02*
D03*
Y63970D02*
D03*
Y63070D02*
D03*
Y65620D02*
D03*
Y64720D02*
D03*
Y67290D02*
D03*
Y66390D02*
D03*
X30000Y58070D02*
D03*
Y58970D02*
D03*
Y59760D02*
D03*
Y60660D02*
D03*
Y61420D02*
D03*
Y62320D02*
D03*
Y63070D02*
D03*
Y63970D02*
D03*
Y64720D02*
D03*
Y65620D02*
D03*
Y66390D02*
D03*
Y67290D02*
D03*
X31600Y58070D02*
D03*
Y58970D02*
D03*
Y59760D02*
D03*
Y60660D02*
D03*
Y61420D02*
D03*
Y62320D02*
D03*
Y63070D02*
D03*
Y63970D02*
D03*
Y64720D02*
D03*
Y65620D02*
D03*
Y66390D02*
D03*
Y67290D02*
D03*
X33200Y58070D02*
D03*
Y58970D02*
D03*
Y59760D02*
D03*
Y60660D02*
D03*
Y61420D02*
D03*
Y62320D02*
D03*
Y63070D02*
D03*
Y63970D02*
D03*
Y64720D02*
D03*
Y65620D02*
D03*
Y66390D02*
D03*
Y67290D02*
D03*
X34600Y58250D02*
D03*
Y59150D02*
D03*
Y61550D02*
D03*
Y60650D02*
D03*
Y63050D02*
D03*
Y63950D02*
D03*
Y65550D02*
D03*
Y66450D02*
D03*
X36220Y58070D02*
D03*
Y58970D02*
D03*
Y59760D02*
D03*
Y60660D02*
D03*
Y61420D02*
D03*
Y62320D02*
D03*
Y63070D02*
D03*
Y63970D02*
D03*
Y64720D02*
D03*
Y65620D02*
D03*
Y66390D02*
D03*
Y67290D02*
D03*
X25250Y60025D02*
D03*
X25250Y60925D02*
D03*
X26100Y60600D02*
D03*
X26100Y61500D02*
D03*
D14*
X52390Y68090D02*
D03*
X50990D02*
D03*
D15*
X58570Y66860D02*
D03*
X57670D02*
D03*
X60270D02*
D03*
X59370D02*
D03*
X61060D02*
D03*
X61960D02*
D03*
X62740D02*
D03*
X63640D02*
D03*
X68660Y58690D02*
D03*
X67760D02*
D03*
X68660Y60810D02*
D03*
X67760D02*
D03*
X68660Y63060D02*
D03*
X67760D02*
D03*
X68660Y65080D02*
D03*
X67760D02*
D03*
X51050Y66910D02*
D03*
X51950D02*
D03*
X30000Y87550D02*
D03*
X29100D02*
D03*
X28825Y85350D02*
D03*
X29725D02*
D03*
X24375Y64225D02*
D03*
X25275D02*
D03*
D18*
X27725Y92800D02*
D03*
X34200Y52605D02*
D03*
X26825Y67875D02*
D03*
X26000Y68700D02*
D03*
X25225Y69475D02*
D03*
X28525Y53800D02*
D03*
X27875Y53375D02*
D03*
X26000Y59900D02*
D03*
X32400Y56700D02*
D03*
X34950Y54125D02*
D03*
X36000Y54934D02*
D03*
X36400Y55900D02*
D03*
X34000Y56700D02*
D03*
X35600D02*
D03*
X34800D02*
D03*
X34000Y55900D02*
D03*
X34000Y67900D02*
D03*
X26800Y60700D02*
D03*
X26000Y63100D02*
D03*
X26800Y64700D02*
D03*
X26000D02*
D03*
X25200Y67100D02*
D03*
X37200Y57500D02*
D03*
X30800Y56700D02*
D03*
X29200D02*
D03*
X24450Y55200D02*
D03*
X25200Y59100D02*
D03*
X35600Y68700D02*
D03*
X42130Y77620D02*
D03*
X54290Y52020D02*
D03*
X36790Y52680D02*
D03*
X39030Y51280D02*
D03*
X38230D02*
D03*
X42130Y78400D02*
D03*
X56380Y73000D02*
D03*
X52000Y53150D02*
D03*
X54000D02*
D03*
X56100D02*
D03*
X58150D02*
D03*
X60750D02*
D03*
X55160Y52020D02*
D03*
X55270Y58050D02*
D03*
X57630Y73000D02*
D03*
X53500D02*
D03*
X69310Y58650D02*
D03*
X69300Y60800D02*
D03*
Y63050D02*
D03*
Y65090D02*
D03*
X39700Y59500D02*
D03*
X39600Y60700D02*
D03*
X55050Y59600D02*
D03*
X38000Y60700D02*
D03*
X53450Y60400D02*
D03*
X38000Y62300D02*
D03*
X54250Y60400D02*
D03*
X37200Y62300D02*
D03*
X54250Y61200D02*
D03*
X38800Y62300D02*
D03*
X57050Y63500D02*
D03*
X38000Y63100D02*
D03*
X56400Y63490D02*
D03*
X38800Y65500D02*
D03*
X53450Y64400D02*
D03*
X38000Y64700D02*
D03*
X53450Y65200D02*
D03*
X37200Y67100D02*
D03*
X51850Y65200D02*
D03*
X37200Y66300D02*
D03*
X50950Y65530D02*
D03*
X42000Y64900D02*
D03*
X50480Y56550D02*
D03*
X61850Y66100D02*
D03*
X51850Y58750D02*
D03*
X51070D02*
D03*
X51100Y66120D02*
D03*
X53210D02*
D03*
X53930D02*
D03*
X58650Y58700D02*
D03*
X56650Y58750D02*
D03*
X51750Y66120D02*
D03*
X37200Y68700D02*
D03*
X35600Y64700D02*
D03*
X40350Y62050D02*
D03*
Y62550D02*
D03*
X38800Y59900D02*
D03*
Y60700D02*
D03*
X38000Y59900D02*
D03*
Y58300D02*
D03*
X37200Y59900D02*
D03*
X38000Y59100D02*
D03*
Y65500D02*
D03*
X39680Y69860D02*
D03*
X50940Y60200D02*
D03*
X57850Y66100D02*
D03*
X58650Y66100D02*
D03*
X59450D02*
D03*
X58250Y61200D02*
D03*
X61010Y66100D02*
D03*
X63320D02*
D03*
X62590D02*
D03*
X60250D02*
D03*
X52650Y65200D02*
D03*
X60650Y59600D02*
D03*
X54650Y66120D02*
D03*
X62550Y57870D02*
D03*
X59450Y58700D02*
D03*
X62250Y64400D02*
D03*
X53050Y57870D02*
D03*
X52250D02*
D03*
X61860D02*
D03*
X62250Y63600D02*
D03*
X57450Y60400D02*
D03*
X51490Y57850D02*
D03*
X52650Y58750D02*
D03*
X50490Y59950D02*
D03*
X56250Y58090D02*
D03*
X53850Y57870D02*
D03*
X53430Y58630D02*
D03*
X39560Y55140D02*
D03*
X35600Y67100D02*
D03*
Y63900D02*
D03*
Y62300D02*
D03*
Y61500D02*
D03*
Y60700D02*
D03*
Y59100D02*
D03*
Y58300D02*
D03*
X37200D02*
D03*
X57850Y58700D02*
D03*
X60650Y58800D02*
D03*
X38800Y63900D02*
D03*
X55850Y64400D02*
D03*
X38000Y63900D02*
D03*
X55750Y63500D02*
D03*
X39850Y64020D02*
D03*
X55850Y65200D02*
D03*
X37200Y63900D02*
D03*
X55050Y64400D02*
D03*
X39850Y64760D02*
D03*
X55050Y65200D02*
D03*
X38800Y64700D02*
D03*
X54250Y64400D02*
D03*
X39600Y65500D02*
D03*
X54250Y65200D02*
D03*
X34000Y59100D02*
D03*
Y58300D02*
D03*
Y59900D02*
D03*
Y60700D02*
D03*
Y62300D02*
D03*
Y63100D02*
D03*
Y63900D02*
D03*
Y64700D02*
D03*
Y65500D02*
D03*
Y66300D02*
D03*
Y67100D02*
D03*
X32400Y60700D02*
D03*
Y61500D02*
D03*
Y62300D02*
D03*
Y63910D02*
D03*
Y64700D02*
D03*
Y66300D02*
D03*
X35600D02*
D03*
Y63100D02*
D03*
Y59900D02*
D03*
X37200Y59100D02*
D03*
X32400Y59100D02*
D03*
Y58300D02*
D03*
X30800D02*
D03*
Y59100D02*
D03*
Y67100D02*
D03*
Y66300D02*
D03*
Y65500D02*
D03*
Y63900D02*
D03*
Y63100D02*
D03*
Y62300D02*
D03*
Y60700D02*
D03*
Y59900D02*
D03*
X29200Y58300D02*
D03*
X29200Y59100D02*
D03*
Y67100D02*
D03*
X29200Y65500D02*
D03*
X29200Y64700D02*
D03*
X29200Y63900D02*
D03*
X29200Y63100D02*
D03*
Y62300D02*
D03*
X29200Y61500D02*
D03*
X29200Y60700D02*
D03*
X29200Y59900D02*
D03*
X27600Y58330D02*
D03*
Y59100D02*
D03*
Y66300D02*
D03*
Y65500D02*
D03*
Y63910D02*
D03*
Y64700D02*
D03*
Y63100D02*
D03*
Y62300D02*
D03*
Y61500D02*
D03*
Y60700D02*
D03*
Y59890D02*
D03*
X35600Y65500D02*
D03*
X34800Y59850D02*
D03*
Y64700D02*
D03*
X27600Y67900D02*
D03*
Y67100D02*
D03*
X34000Y61500D02*
D03*
X32400Y63100D02*
D03*
X29200Y66300D02*
D03*
X30800Y64700D02*
D03*
X32400Y65500D02*
D03*
X30800Y61500D02*
D03*
X32400Y59900D02*
D03*
X36800Y72850D02*
D03*
X33590D02*
D03*
X32450Y52630D02*
D03*
X33370Y52620D02*
D03*
X33200Y56700D02*
D03*
X66750Y72680D02*
D03*
X64700Y68890D02*
D03*
X55570Y73000D02*
D03*
X66780Y53230D02*
D03*
X31850Y83450D02*
D03*
X28675Y91475D02*
D03*
X22000Y86800D02*
D03*
Y84300D02*
D03*
X33350Y79440D02*
D03*
X33125Y81100D02*
D03*
X27650Y89450D02*
D03*
X30075Y88475D02*
D03*
X27750Y88425D02*
D03*
X30150Y91450D02*
D03*
X29675Y85925D02*
D03*
X28900D02*
D03*
X36500Y85650D02*
D03*
X30075Y86975D02*
D03*
X28900D02*
D03*
X21500Y84300D02*
D03*
X21500Y87800D02*
D03*
X30000Y89575D02*
D03*
X50480Y52600D02*
D03*
X21175Y73425D02*
D03*
X32400Y67100D02*
D03*
X30825Y68675D02*
D03*
X29200Y69500D02*
D03*
X29050Y83925D02*
D03*
X29400Y83450D02*
D03*
X30350Y72950D02*
D03*
X29850Y72400D02*
D03*
X30825Y67875D02*
D03*
X56650Y60400D02*
D03*
Y61200D02*
D03*
X26800Y61500D02*
D03*
X26000Y63900D02*
D03*
X23325Y58800D02*
D03*
X23675Y64225D02*
D03*
X33960Y69460D02*
D03*
X33400Y70600D02*
D03*
X16800Y83775D02*
D03*
X14825Y75750D02*
D03*
X15275Y77250D02*
D03*
Y77800D02*
D03*
X11275Y86200D02*
D03*
X11250Y85000D02*
D03*
X11275Y83800D02*
D03*
X12975Y86200D02*
D03*
Y85025D02*
D03*
Y83800D02*
D03*
X14725Y86200D02*
D03*
Y85025D02*
D03*
Y83800D02*
D03*
X18850Y86400D02*
D03*
X12600Y78350D02*
D03*
X12100D02*
D03*
X9250Y92825D02*
D03*
Y92075D02*
D03*
X9500Y87850D02*
D03*
X9000Y90700D02*
D03*
X7700D02*
D03*
X12550Y92575D02*
D03*
X12650Y91825D02*
D03*
X12050D02*
D03*
X12200Y89050D02*
D03*
X10800Y77550D02*
D03*
X12200Y81250D02*
D03*
X8200Y83950D02*
D03*
Y83050D02*
D03*
X12800Y81150D02*
D03*
X9000Y78200D02*
D03*
X9100Y81050D02*
D03*
X7100Y80850D02*
D03*
X11700Y88550D02*
D03*
X16950Y86000D02*
D03*
X17300Y84750D02*
D03*
X14000Y81550D02*
D03*
X12350Y77750D02*
D03*
X7100Y78825D02*
D03*
X19425Y84725D02*
D03*
X12350Y77200D02*
D03*
X8200Y87950D02*
D03*
X11950Y92825D02*
D03*
X11325Y93425D02*
D03*
X15225Y92650D02*
D03*
Y92150D02*
D03*
X13600Y88250D02*
D03*
X17750Y82825D02*
D03*
X19250Y82000D02*
D03*
X18950Y75900D02*
D03*
X6100Y85850D02*
D03*
X6525Y88400D02*
D03*
X5425Y86375D02*
D03*
X5525Y87125D02*
D03*
D19*
X65710Y71150D02*
D03*
Y72550D02*
D03*
X65690Y54880D02*
D03*
Y53480D02*
D03*
X26800Y89575D02*
D03*
Y88175D02*
D03*
X30925Y89900D02*
D03*
Y91300D02*
D03*
D24*
X56610Y56610D02*
X56640Y56640D01*
X56570Y56570D02*
X56610Y56610D01*
X37190Y66290D02*
X37200Y66280D01*
X36840Y66640D02*
X37190Y66290D01*
X50940Y60210D02*
X52790D01*
X38820Y65500D02*
Y66144D01*
X43770Y53610D02*
Y55255D01*
X43675Y55350D02*
X43770Y55255D01*
X43450Y55350D02*
X43675D01*
X43350Y53670D02*
Y55250D01*
X43350D02*
X43450Y55350D01*
X43350Y55250D02*
X43350D01*
X40300Y54740D02*
Y55525D01*
X40055Y55770D02*
X40300Y55525D01*
X48725Y52175D02*
X48975Y52425D01*
X48425Y52175D02*
X48725D01*
X48025Y52575D02*
X48425Y52175D01*
X47789Y52575D02*
X48025D01*
X48975Y52425D02*
Y53275D01*
X49200Y53500D01*
Y58025D01*
X47196Y53148D02*
X47525D01*
X47675Y52689D02*
X47789Y52575D01*
X47675Y52689D02*
Y52998D01*
X47525Y53148D02*
X47675Y52998D01*
X45450Y53880D02*
Y56375D01*
X45870Y54864D02*
Y56380D01*
X45750Y56500D02*
X45870Y56380D01*
X45575Y56500D02*
X45750D01*
X45450Y56375D02*
X45575Y56500D01*
X41670Y54206D02*
Y55180D01*
X40480Y56370D02*
X41670Y55180D01*
X40076Y56370D02*
X40480D01*
X42160Y56825D02*
Y57344D01*
X41740Y56850D02*
Y57600D01*
X42150Y56825D02*
X42160D01*
X42050Y56725D02*
X42150Y56825D01*
X41865Y56725D02*
X42050D01*
X41740Y56850D02*
X41865Y56725D01*
X47850Y50636D02*
Y51025D01*
X47550Y51325D02*
X47850Y51025D01*
X47025Y51325D02*
X47550D01*
X46753Y51053D02*
X47025Y51325D01*
X46753Y50519D02*
Y51053D01*
X45030Y50880D02*
X45100Y50950D01*
X45030Y50150D02*
Y50880D01*
X45449Y50397D02*
Y50875D01*
X45100Y50950D02*
X45374D01*
X45449Y50875D01*
X47850Y50636D02*
X48406Y50080D01*
X43350Y58985D02*
Y59820D01*
X41380Y59990D02*
X42510Y58860D01*
X43225D02*
X43350Y58985D01*
X42510Y58860D02*
X43225D01*
X43057Y60725D02*
X43770Y60012D01*
X42805Y60725D02*
X43057D01*
X42722Y60643D02*
X42805Y60725D01*
X42722Y60447D02*
X43350Y59820D01*
X42722Y60447D02*
Y60643D01*
X43178Y78018D02*
X49157D01*
X50925Y76250D01*
X36840Y71680D02*
X43178Y78018D01*
X49077Y77598D02*
X50575Y76100D01*
X43352Y77598D02*
X49077D01*
X37600Y71846D02*
X43352Y77598D01*
X48493Y77178D02*
X48903D01*
X47381Y77175D02*
X48125D01*
X46422D02*
X47055D01*
X45487D02*
X46088D01*
X44512D02*
X45138D01*
X43523D02*
X44163D01*
X38020Y71672D02*
X43523Y77175D01*
X44163D02*
X44263Y77075D01*
X44044Y76700D02*
X44259Y76484D01*
X43642Y76700D02*
X44044D01*
X38440Y71498D02*
X43642Y76700D01*
X48390Y77075D02*
X48493Y77178D01*
X48903D02*
X50225Y75856D01*
X48586Y76700D02*
X48787D01*
X48400Y76514D02*
X48586Y76700D01*
X48575Y76125D02*
X48768D01*
X48365Y75915D02*
X48575Y76125D01*
X50575Y70175D02*
Y76100D01*
X50925Y69950D02*
Y76250D01*
X50485Y69510D02*
X50925Y69950D01*
X50150Y69750D02*
X50575Y70175D01*
X50150Y65821D02*
Y69750D01*
X50225Y70350D02*
Y75856D01*
X49800Y69925D02*
X50225Y70350D01*
X49800Y65831D02*
Y69925D01*
Y65831D02*
X50701Y64930D01*
X50560Y64690D02*
X51390D01*
X49475Y65775D02*
X50560Y64690D01*
X49475Y65775D02*
Y70200D01*
X49900Y70625D01*
Y75587D01*
X48787Y76700D02*
X49900Y75587D01*
X50298Y64400D02*
X52330D01*
X49175Y65523D02*
X50298Y64400D01*
X49175Y65523D02*
Y70500D01*
X49575Y70900D01*
Y75318D01*
X48768Y76125D02*
X49575Y75318D01*
X50140Y64160D02*
X53181D01*
X48850Y65450D02*
X50140Y64160D01*
X48850Y65450D02*
Y70750D01*
X49225Y71125D01*
Y75074D01*
X48804Y75495D02*
X49225Y75074D01*
X53220Y63810D02*
X53910D01*
X53110Y63920D02*
X53220Y63810D01*
X49980Y63920D02*
X53110D01*
X48550Y65350D02*
X49980Y63920D01*
X48550Y65350D02*
Y70950D01*
X48825Y71225D01*
Y74880D01*
X48630Y75075D02*
X48825Y74880D01*
X48400Y75075D02*
X48630D01*
X54059Y63580D02*
X54640Y64161D01*
X49895Y63580D02*
X54059D01*
X48250Y65225D02*
X49895Y63580D01*
X48250Y65225D02*
Y71200D01*
X48450Y71400D01*
Y74200D01*
X48225Y74425D02*
X48450Y74200D01*
X47660Y74425D02*
X48225D01*
X55050Y64140D02*
Y64400D01*
X54250Y63340D02*
X55050Y64140D01*
X49660Y63340D02*
X54250D01*
X47925Y65075D02*
X49660Y63340D01*
X47925Y65075D02*
Y71475D01*
X48075Y71625D01*
Y73416D01*
X47477Y74014D02*
X48075Y73416D01*
X55450Y64509D02*
X55700Y64759D01*
X55450Y64130D02*
Y64509D01*
X54420Y63100D02*
X55450Y64130D01*
X49478Y63100D02*
X54420D01*
X47575Y65003D02*
X49478Y63100D01*
X47575Y65003D02*
Y71650D01*
X47650Y71725D01*
Y73247D01*
X47322Y73575D02*
X47650Y73247D01*
X47145Y73575D02*
X47322D01*
X45875Y71850D02*
X46445Y71280D01*
Y69391D02*
Y71280D01*
X46200Y69146D02*
X46445Y69391D01*
X46200Y69010D02*
Y69146D01*
Y69010D02*
X46445Y68764D01*
Y67631D02*
Y68764D01*
X46280Y67465D02*
X46445Y67631D01*
X46280Y67300D02*
Y67465D01*
Y67300D02*
X46445Y67134D01*
Y65776D02*
Y67134D01*
X46280Y65610D02*
X46445Y65776D01*
X46280Y65420D02*
Y65610D01*
Y65420D02*
X46445Y65254D01*
Y64501D02*
Y65254D01*
Y64501D02*
X47039Y63908D01*
Y63620D02*
Y63908D01*
Y63620D02*
X47150Y63509D01*
X47438D01*
X48566Y62380D01*
X56100D01*
X55203Y62140D02*
X55533Y61810D01*
X48212Y62140D02*
X55203D01*
X47264Y63089D02*
X48212Y62140D01*
X46731Y63089D02*
X47264D01*
X46619Y63201D02*
X46731Y63089D01*
X46619Y63201D02*
Y63734D01*
X46025Y64327D02*
X46619Y63734D01*
X46025Y64327D02*
Y65080D01*
X45768Y65338D02*
X46025Y65080D01*
X45768Y65338D02*
Y65692D01*
X46025Y65950D01*
Y66960D01*
X45733Y67253D02*
X46025Y66960D01*
X45733Y67253D02*
Y67512D01*
X46025Y67805D01*
Y68580D01*
X45640Y68965D02*
X46025Y68580D01*
X45640Y68965D02*
Y69180D01*
X46025Y69565D01*
Y70700D01*
X45525Y71200D02*
X46025Y70700D01*
X48125Y77175D02*
X48225Y77075D01*
X47281D02*
X47381Y77175D01*
X47055D02*
X47155Y77075D01*
X46322D02*
X46422Y77175D01*
X46088D02*
X46188Y77075D01*
X45387D02*
X45487Y77175D01*
X45138D02*
X45238Y77075D01*
X44412D02*
X44512Y77175D01*
X48145Y75915D02*
X48365D01*
X48225Y77075D02*
X48390D01*
X47155D02*
X47281D01*
X46188D02*
X46322D01*
X45238D02*
X45387D01*
X44263D02*
X44412D01*
X37700Y65950D02*
Y68097D01*
X37525Y65775D02*
X37700Y65950D01*
X37525Y65600D02*
Y65775D01*
Y65600D02*
X37625Y65500D01*
X38000D01*
X45381Y76475D02*
X45606Y76700D01*
X45969D01*
X45244Y76475D02*
X45381D01*
X45019Y76700D02*
X45244Y76475D01*
X47954Y76700D02*
X48139Y76514D01*
X47500Y76700D02*
X47954D01*
X47300Y76500D02*
X47500Y76700D01*
X46936D02*
X47136Y76500D01*
X46541Y76700D02*
X46936D01*
X46346Y76504D02*
X46541Y76700D01*
X45969D02*
X46164Y76504D01*
X44631Y76700D02*
X45019D01*
X44416Y76484D02*
X44631Y76700D01*
X44925Y76200D02*
X45210Y75915D01*
X44725Y76200D02*
X44925D01*
X44440Y75915D02*
X44725Y76200D01*
X48139Y76514D02*
X48400D01*
X47136Y76500D02*
X47300D01*
X46164Y76504D02*
X46346D01*
X44259Y76484D02*
X44416D01*
X38300Y64700D02*
X38400Y64800D01*
X38000Y64700D02*
X38300D01*
X47127Y75915D02*
X47350D01*
X47860Y76200D02*
X48145Y75915D01*
X47635Y76200D02*
X47860D01*
X47350Y75915D02*
X47635Y76200D01*
X46635D02*
X46842D01*
X47127Y75915D01*
X45700Y76200D02*
X45875D01*
X46350Y75915D02*
X46635Y76200D01*
X46160Y75915D02*
X46350D01*
X45875Y76200D02*
X46160Y75915D01*
X45415D02*
X45700Y76200D01*
X45210Y75915D02*
X45415D01*
X44235D02*
X44440D01*
X43950Y76200D02*
X44235Y75915D01*
X43736Y76200D02*
X43950D01*
X38860Y71324D02*
X43736Y76200D01*
X47604Y75075D02*
X47834Y74845D01*
X39280Y67895D02*
Y71150D01*
X38860Y68069D02*
Y71324D01*
X38440Y68243D02*
Y71498D01*
X38020Y68417D02*
Y71672D01*
X37600Y68591D02*
Y71846D01*
X43625Y75495D02*
X48804D01*
X39280Y71150D02*
X43625Y75495D01*
X48170Y74845D02*
X48400Y75075D01*
X47834Y74845D02*
X48170D01*
X47100Y75075D02*
X47604D01*
X47025Y75000D02*
X47100Y75075D01*
X46650Y75000D02*
X47025D01*
X46575Y75075D02*
X46650Y75000D01*
X46030Y75075D02*
X46575D01*
X45950Y74995D02*
X46030Y75075D01*
X45300Y74995D02*
X45950D01*
X45220Y75075D02*
X45300Y74995D01*
X44805Y75075D02*
X45220D01*
X44725Y74995D02*
X44805Y75075D01*
X44275Y74995D02*
X44725D01*
X44195Y75075D02*
X44275Y74995D01*
X43799Y75075D02*
X44195D01*
X39700Y70976D02*
X43799Y75075D01*
X39245Y66907D02*
X39700Y66452D01*
X39245Y67266D02*
X39700Y67721D01*
X39245Y66907D02*
Y67266D01*
X47510Y74575D02*
X47660Y74425D01*
X47091Y74575D02*
X47510D01*
X46950Y74434D02*
X47091Y74575D01*
X46616Y74434D02*
X46950D01*
X46475Y74575D02*
X46616Y74434D01*
X46016Y74575D02*
X46475D01*
X45875Y74434D02*
X46016Y74575D01*
X45475Y74434D02*
X45875D01*
X45334Y74575D02*
X45475Y74434D01*
X44866Y74575D02*
X45334D01*
X44725Y74434D02*
X44866Y74575D01*
X44350Y74434D02*
X44725D01*
X44209Y74575D02*
X44350Y74434D01*
X43893Y74575D02*
X44209D01*
X40120Y70802D02*
X43893Y74575D01*
X39720Y67026D02*
X40120Y66626D01*
X39720Y67147D02*
X40120Y67547D01*
X39720Y67026D02*
Y67147D01*
X43926Y74014D02*
X47477D01*
X40880Y70968D02*
X43926Y74014D01*
X41300Y70794D02*
X44100Y73594D01*
X47025Y73455D02*
X47145Y73575D01*
X46445Y73455D02*
X47025D01*
X46325Y73575D02*
X46445Y73455D01*
X45950Y73575D02*
X46325D01*
X45845Y73470D02*
X45950Y73575D01*
X45380Y73470D02*
X45845D01*
X45275Y73575D02*
X45380Y73470D01*
X45030Y73575D02*
X45275D01*
X44925Y73470D02*
X45030Y73575D01*
X44599Y73470D02*
X44925D01*
X44599Y73470D02*
X44599Y73470D01*
X44500Y73470D02*
X44599D01*
X44376Y73594D02*
X44500Y73470D01*
X44100Y73594D02*
X44376D01*
X47095Y73035D02*
X47250Y72880D01*
Y71775D02*
Y72880D01*
X46520Y72895D02*
X46660Y73035D01*
X47095D01*
X46225Y72895D02*
X46520D01*
X46083Y73037D02*
X46225Y72895D01*
X45812Y73037D02*
X46083D01*
X45670Y72895D02*
X45812Y73037D01*
X45000Y73050D02*
X45275D01*
X45430Y72895D02*
X45670D01*
X45275Y73050D02*
X45430Y72895D01*
X44845D02*
X45000Y73050D01*
X44150Y73050D02*
X44425D01*
X44575Y72895D02*
X44845D01*
X44425Y73045D02*
X44575Y72895D01*
X44425Y73045D02*
Y73050D01*
X41720Y70620D02*
X44150Y73050D01*
X41535Y64360D02*
X41640Y64465D01*
Y66445D01*
X41232Y64360D02*
X41535D01*
X40522Y63650D02*
X41232Y64360D01*
X46775Y72475D02*
X46865Y72385D01*
X46200Y72475D02*
X46775D01*
X46025Y72300D02*
X46200Y72475D01*
X46865Y64675D02*
Y72385D01*
X47200Y71725D02*
X47250Y71775D01*
X47200Y64934D02*
Y71725D01*
Y64934D02*
X49274Y62860D01*
X45725Y72475D02*
X45900Y72300D01*
X45155Y72475D02*
X45725D01*
X44980Y72300D02*
X45155Y72475D01*
X44695D02*
X44870Y72300D01*
X44169Y72475D02*
X44695D01*
X42140Y70446D02*
X44169Y72475D01*
X38593Y63527D02*
X38710Y63410D01*
X38080Y63520D02*
X38586D01*
X38000Y63600D02*
X38080Y63520D01*
X38000Y63600D02*
Y63900D01*
X45900Y72300D02*
X46025D01*
X44138Y71850D02*
X45875D01*
X44870Y72300D02*
X44980D01*
X42560Y70272D02*
X44138Y71850D01*
X36840Y66640D02*
Y71680D01*
X37280Y67430D02*
Y68271D01*
X37200Y67350D02*
X37280Y67430D01*
X37200Y67100D02*
Y67350D01*
X37280Y68271D02*
X37600Y68591D01*
X44350Y69525D02*
X44500Y69375D01*
X44175Y69525D02*
X44350D01*
X44030Y69380D02*
X44175Y69525D01*
X44500Y68620D02*
Y69375D01*
X44030Y68045D02*
Y69380D01*
X44500Y68620D02*
X44700Y68420D01*
X43530Y61330D02*
X44725Y62525D01*
Y62750D01*
X44625Y62850D02*
X44725Y62750D01*
X44419Y62850D02*
X44625D01*
X42889Y61320D02*
X44419Y62850D01*
X47935Y49640D02*
X51965D01*
X47790Y49785D02*
X47935Y49640D01*
X47790Y49785D02*
Y50100D01*
X47175Y50250D02*
X47640D01*
X47000Y50075D02*
X47175Y50250D01*
X47000Y49750D02*
Y50075D01*
X47640Y50250D02*
X47790Y50100D01*
X45114Y49640D02*
X46890D01*
X47000Y49750D01*
X52200Y49875D02*
Y51700D01*
X51965Y49640D02*
X52200Y49875D01*
X51975Y51925D02*
X52200Y51700D01*
X50335Y51925D02*
X51975D01*
X39200Y65575D02*
Y66358D01*
X39275Y65500D02*
X39600D01*
X39200Y65575D02*
X39275Y65500D01*
X38825Y66733D02*
X39200Y66358D01*
X53840Y64140D02*
Y64701D01*
X53740Y64040D02*
X53840Y64140D01*
X53301Y64040D02*
X53740D01*
X54250Y64150D02*
Y64400D01*
X53910Y63810D02*
X54250Y64150D01*
X49400Y60800D02*
X53050D01*
X47700Y60500D02*
X49100D01*
X47546Y55350D02*
Y60346D01*
X49100Y60500D02*
X49400Y60800D01*
X47546Y60346D02*
X47700Y60500D01*
X47966Y59791D02*
X48150Y59975D01*
X49610Y60560D02*
X50910D01*
X48150Y59975D02*
X49025D01*
X49610Y60560D01*
X50080Y60310D02*
X50840D01*
X49569Y59799D02*
X50080Y60310D01*
X47966Y55176D02*
Y59791D01*
X51500Y50350D02*
Y51275D01*
X51230Y50080D02*
X51500Y50350D01*
X48406Y50080D02*
X51230D01*
X51275Y51500D02*
X51500Y51275D01*
X50200Y51500D02*
X51275D01*
X49750Y51950D02*
Y57213D01*
Y51950D02*
X50200Y51500D01*
X50025Y52235D02*
X50335Y51925D01*
X47732Y52144D02*
X48430Y51446D01*
X40282Y60700D02*
X40482Y60500D01*
X40960Y59816D02*
Y60415D01*
X40875Y60500D02*
X40960Y60415D01*
X40482Y60500D02*
X40875D01*
X44700Y67965D02*
Y68420D01*
X44370Y67635D02*
X44700Y67965D01*
X44082Y71200D02*
X45525D01*
X38825Y67440D02*
X39280Y67895D01*
X38825Y66733D02*
Y67440D01*
X53090Y64840D02*
X53450Y65200D01*
X52370Y64840D02*
X53090D01*
X37700Y68097D02*
X38020Y68417D01*
X50150Y65821D02*
X50801Y65170D01*
X50485Y66535D02*
X50740Y66280D01*
X47022Y53568D02*
X48444D01*
X45962Y52140D02*
X46188D01*
X45187Y52915D02*
X45962Y52140D01*
X42160Y53020D02*
X42550D01*
X42690Y52880D01*
X41545Y52880D02*
Y53143D01*
X43648Y53138D02*
X43871Y52915D01*
X43412Y53138D02*
X43648D01*
X43110Y52836D02*
X43412Y53138D01*
X41900Y52760D02*
X42160Y53020D01*
X41665Y52760D02*
X41900D01*
X41545Y52880D02*
X41665Y52760D01*
X40740Y53451D02*
X40935Y53255D01*
X41433D02*
X41545Y53143D01*
X40935Y53255D02*
X41433D01*
X38860Y55331D02*
X40001Y54190D01*
X40740Y53451D02*
Y54050D01*
X40600Y54190D02*
X40740Y54050D01*
X40001Y54190D02*
X40600D01*
X46214Y52760D02*
X47022Y53568D01*
X45936Y52760D02*
X46214D01*
X45361Y53335D02*
X45936Y52760D01*
X44045Y53335D02*
X45361D01*
X43770Y53610D02*
X44045Y53335D01*
X43120Y53440D02*
X43350Y53670D01*
X41842Y53440D02*
X43120D01*
X41250Y54032D02*
Y54390D01*
X41030Y54610D02*
X41250Y54390D01*
X40430Y54610D02*
X41030D01*
X50341Y59587D02*
Y59590D01*
X41250Y54032D02*
X41842Y53440D01*
X40300Y54740D02*
X40430Y54610D01*
X45870Y53420D02*
X46020Y53270D01*
X46130D01*
X46290Y53430D02*
Y53876D01*
X46130Y53270D02*
X46290Y53430D01*
X45870Y53420D02*
Y54160D01*
X45325Y53755D02*
X45450Y53880D01*
X44335Y53755D02*
X45325D01*
X44190Y53900D02*
X44335Y53755D01*
X44190Y53900D02*
Y56130D01*
X40302Y58692D02*
X40480Y58514D01*
X40300Y58690D02*
X40302Y58692D01*
X39700Y59470D02*
Y59500D01*
X39410Y59180D02*
X39700Y59470D01*
X39370Y55770D02*
X40055D01*
X39280Y55860D02*
X39370Y55770D01*
X40504Y57630D02*
X41084Y58210D01*
Y58504D01*
X40120Y59468D02*
X41084Y58504D01*
X45870Y54160D02*
X46070Y54360D01*
Y54664D01*
X45870Y54864D02*
X46070Y54664D01*
X46290Y53876D02*
X46402Y53988D01*
X42930Y54246D02*
Y55905D01*
X39700Y56746D02*
Y57476D01*
X42544Y53860D02*
X42930Y54246D01*
X42016Y53860D02*
X42544D01*
X41670Y54206D02*
X42016Y53860D01*
X39700Y56746D02*
X40076Y56370D01*
X42090Y54380D02*
X42190Y54280D01*
X42370D01*
X42510Y54420D01*
Y56079D01*
X42090Y54380D02*
Y55710D01*
X44610Y54290D02*
X44725Y54175D01*
X44915D02*
X45030Y54290D01*
X44725Y54175D02*
X44915D01*
X45030Y54290D02*
Y56689D01*
X44610Y54290D02*
Y56571D01*
X42866Y56434D02*
Y56624D01*
X42580Y56910D02*
X42866Y56624D01*
X42580Y56910D02*
Y57170D01*
X42510Y56079D02*
X42866Y56434D01*
X41850Y55950D02*
X42090Y55710D01*
X47618Y54828D02*
X47966Y55176D01*
X50921Y59110D02*
X51370D01*
X50710Y58899D02*
X50921Y59110D01*
X50710Y58760D02*
Y58899D01*
X51299Y59350D02*
X51499Y59550D01*
X50525Y59350D02*
X51299D01*
X51089Y59830D02*
X51249Y59990D01*
X50620Y59830D02*
X51089D01*
X50500Y59950D02*
X50620Y59830D01*
X47126Y58260D02*
Y60646D01*
X47006Y58140D02*
X47126Y58260D01*
X38860Y55331D02*
Y59040D01*
X37600Y54769D02*
X40719Y51650D01*
X38440Y55117D02*
Y58660D01*
X38020Y54943D02*
Y58280D01*
X37600Y54769D02*
Y57660D01*
X41310Y56316D02*
Y56630D01*
Y56316D02*
X41676Y55950D01*
X41850D01*
X42930Y55905D02*
X43286Y56261D01*
X44059D01*
X46402Y53988D02*
X47966D01*
X44059Y56261D02*
X44190Y56130D01*
X43105Y57324D02*
X43749Y56681D01*
X44500D01*
X44610Y56571D01*
X45030Y56689D02*
X45625Y57284D01*
X41160Y56780D02*
X41310Y56630D01*
X41160Y56780D02*
Y56790D01*
X41100Y57210D02*
X41320Y57430D01*
Y57774D01*
X40120Y56920D02*
Y57080D01*
Y56920D02*
X40250Y56790D01*
X41160D01*
X40120Y57080D02*
X40120D01*
X40250Y57210D01*
X41100D01*
X39700Y57476D02*
X39854Y57630D01*
X40504D01*
X40330Y58050D02*
X40480Y58200D01*
Y58514D01*
X40120Y59468D02*
Y59674D01*
X46920Y54408D02*
X47792D01*
X46290Y55038D02*
X46920Y54408D01*
X46290Y55038D02*
Y56908D01*
X45914Y57284D02*
X46290Y56908D01*
X45625Y57284D02*
X45914D01*
X42734Y57324D02*
X43105D01*
X42580Y57170D02*
X42734Y57324D01*
X41320Y57774D02*
X41688Y58142D01*
Y58494D01*
X40540Y59642D02*
X41688Y58494D01*
X40540Y59642D02*
Y59848D01*
X43350Y57673D02*
Y58330D01*
Y57673D02*
X43923Y57101D01*
X44848D01*
X45450Y57703D02*
Y60040D01*
X44848Y57101D02*
X45450Y57703D01*
X40960Y59816D02*
X42340Y58436D01*
Y58200D02*
Y58436D01*
X41740Y57600D02*
X42340Y58200D01*
X46710Y55212D02*
Y57082D01*
Y55212D02*
X47094Y54828D01*
X47618D01*
X42930Y57860D02*
Y58330D01*
X42814Y57744D02*
X42930Y57860D01*
X42560Y57744D02*
X42814D01*
X42930Y58330D02*
X43040Y58440D01*
X43240D01*
X43350Y58330D01*
X45198Y60510D02*
X46196D01*
X45030Y60342D02*
X45198Y60510D01*
X45030Y57877D02*
Y60342D01*
X47446Y55250D02*
X47546Y55350D01*
X47130Y55386D02*
X47268Y55248D01*
X47270Y55250D02*
X47446D01*
X47130Y55386D02*
Y57580D01*
X46990Y57720D02*
X47130Y57580D01*
X46666Y57720D02*
X46990D01*
X46290Y58096D02*
X46666Y57720D01*
X44674Y57521D02*
X45030Y57877D01*
X43770Y57847D02*
Y60012D01*
X44097Y57521D02*
X44674D01*
X43770Y57847D02*
X44097Y57521D01*
X44500Y57941D02*
X44610Y58051D01*
Y60516D01*
X44271Y57941D02*
X44500D01*
X44190Y58021D02*
X44271Y57941D01*
X44190Y58021D02*
Y60320D01*
X45870Y57922D02*
Y59960D01*
Y57922D02*
X46710Y57082D01*
X46290Y58096D02*
Y60416D01*
X46710Y58270D02*
Y60590D01*
X46840Y58140D02*
X47006D01*
X46710Y58270D02*
X46840Y58140D01*
X41640Y61330D02*
X41800Y61170D01*
X39810Y61330D02*
X41640D01*
X41800Y60164D02*
Y61170D01*
X40480Y61600D02*
X40650Y61770D01*
X40189Y61600D02*
X40480D01*
X39849Y61940D02*
X40189Y61600D01*
X40516Y61060D02*
X40666Y60910D01*
X38566Y61060D02*
X40516D01*
X38490Y61420D02*
Y61740D01*
Y61420D02*
X38580Y61330D01*
X38850D01*
X39210Y61690D01*
X38651Y61940D02*
X39849D01*
X38440Y62151D02*
X38651Y61940D01*
X38440Y62151D02*
Y62450D01*
X42380Y61320D02*
X42889D01*
X42220Y61160D02*
X42380Y61320D01*
X42220Y60356D02*
Y61160D01*
X40666Y60910D02*
X41120D01*
X41380Y60650D01*
Y59990D02*
Y60650D01*
X41800Y60164D02*
X42684Y59280D01*
X42220Y60356D02*
X42930Y59646D01*
X42684Y59280D02*
X42820D01*
X42930Y59390D01*
Y59646D01*
X43906Y60470D02*
X44040D01*
X44610Y60516D02*
X45024Y60930D01*
X44040Y60470D02*
X44190Y60320D01*
X45450Y60040D02*
X45500Y60090D01*
X45740D01*
X45870Y59960D01*
X46196Y60510D02*
X46290Y60416D01*
X45024Y60930D02*
X46370D01*
X46710Y60590D01*
X49539Y59379D02*
X49749D01*
X51381Y58250D02*
Y58499D01*
X51632Y58750D01*
X51088Y57957D02*
X51381Y58250D01*
X51070Y58533D02*
Y58750D01*
X49750Y57213D02*
X51070Y58533D01*
X51088Y57950D02*
Y57957D01*
X57630Y65740D02*
X65140D01*
X57480Y65890D02*
X57630Y65740D01*
X56960Y65890D02*
X57480D01*
X59050Y58290D02*
X60050Y57290D01*
X60270D01*
X60730Y56830D01*
Y56610D02*
Y56830D01*
X59050Y58290D02*
Y58809D01*
X59700Y56610D02*
Y57090D01*
X58260Y58530D02*
X59700Y57090D01*
X58260Y58530D02*
Y58799D01*
X57999Y59060D02*
X58260Y58799D01*
X58770Y59089D02*
X59050Y58809D01*
X63770Y59310D02*
X65850D01*
X60720Y62360D02*
X63770Y59310D01*
X58390Y62360D02*
X60720D01*
X63390Y60370D02*
X65850D01*
X60980Y62780D02*
X63390Y60370D01*
X58873Y62780D02*
X60980D01*
X63070Y61430D02*
X65850D01*
X61300Y63200D02*
X63070Y61430D01*
X59047Y63200D02*
X61300D01*
X62730Y62490D02*
X65850D01*
X60440Y64780D02*
X62730Y62490D01*
X56270Y64780D02*
X60440D01*
X56390Y64140D02*
X57513D01*
X56257Y64460D02*
X57787D01*
X56197Y64400D02*
X56257Y64460D01*
X57787D02*
X59047Y63200D01*
X57513Y64140D02*
X58873Y62780D01*
X55770Y63520D02*
X56390Y64140D01*
X57199Y63860D02*
X57840Y63219D01*
X56770Y63860D02*
X57199D01*
X56400Y63490D02*
X56770Y63860D01*
X56550Y65100D02*
X60900D01*
X56090Y65560D02*
X56550Y65100D01*
X56830Y65420D02*
X64190D01*
X56460Y65790D02*
X56830Y65420D01*
X55640Y65790D02*
X56460D01*
X55701Y65560D02*
X56090D01*
X55490Y65349D02*
X55701Y65560D01*
X55630Y65780D02*
X55640Y65790D01*
X55610Y65780D02*
X55630D01*
X55270Y65440D02*
X55610Y65780D01*
X55270Y65420D02*
Y65440D01*
X55050Y65200D02*
X55270Y65420D01*
X55569Y66050D02*
X56800D01*
X55079Y65560D02*
X55569Y66050D01*
X54901Y65560D02*
X55079D01*
X54690Y65349D02*
X54901Y65560D01*
X54500Y65760D02*
X54799D01*
X53830Y65510D02*
X54290Y65970D01*
X54250Y65510D02*
X54500Y65760D01*
X54250Y65200D02*
Y65510D01*
X53570Y65971D02*
Y66300D01*
Y65971D02*
X53590Y65951D01*
X53450Y65811D02*
X53590Y65951D01*
X53450Y65200D02*
Y65811D01*
X52650Y66069D02*
X55020Y68439D01*
X52650Y65200D02*
Y66069D01*
X52870Y66629D02*
Y66883D01*
X52350Y66109D02*
X52870Y66629D01*
X52350Y65700D02*
Y66109D01*
X51850Y65200D02*
X52350Y65700D01*
X52450Y66548D02*
Y67057D01*
X52110Y66208D02*
X52450Y66548D01*
X52110Y65900D02*
Y66208D01*
X51770Y65560D02*
X52110Y65900D01*
X51210Y65560D02*
X51770D01*
X55850Y64400D02*
X56197D01*
X55850Y65200D02*
X56270Y64780D01*
X61960Y64040D02*
X65010D01*
X60900Y65100D02*
X61960Y64040D01*
X65000Y64610D02*
X65850D01*
X64190Y65420D02*
X65000Y64610D01*
X65850Y65670D02*
X65850Y65670D01*
X65210Y65670D02*
X65850D01*
X65140Y65740D02*
X65210Y65670D01*
X56800Y66050D02*
X56960Y65890D01*
X59130Y59790D02*
X59730D01*
X62790Y56610D02*
Y56900D01*
X62220Y57470D02*
X62790Y56900D01*
X61471Y57470D02*
X62220D01*
X60290Y58651D02*
X61471Y57470D01*
X60290Y58651D02*
Y59230D01*
X59730Y59790D02*
X60290Y59230D01*
X61220Y57140D02*
X61560D01*
X61760Y56610D02*
Y56940D01*
X61560Y57140D02*
X61760Y56940D01*
X59355Y59335D02*
X59930Y58760D01*
Y58430D02*
X61220Y57140D01*
X59930Y58430D02*
Y58760D01*
X58975Y59335D02*
X59355D01*
X58670Y56610D02*
Y57239D01*
X57640Y56610D02*
X57670Y56640D01*
Y57540D01*
X51450Y56610D02*
Y57140D01*
X51850Y57540D01*
X52480Y56610D02*
X52610Y56740D01*
Y58090D01*
X53410Y56700D02*
X53500Y56610D01*
X53410Y56700D02*
Y58019D01*
X54530Y56610D02*
X54560Y56640D01*
Y57669D01*
X56640Y56640D02*
Y57700D01*
X55570Y56570D02*
X56570D01*
X37200Y62300D02*
X37600Y62700D01*
X38000Y63100D02*
X38020Y63080D01*
X55050Y59600D02*
X55410D01*
X55740Y60180D02*
X56100Y59820D01*
X55151Y60180D02*
X55740D01*
X54931Y60400D02*
X55151Y60180D01*
X54250Y60400D02*
X54931D01*
X54250Y61200D02*
X54520D01*
X56141Y60400D02*
X56501Y60040D01*
X57395Y62675D02*
Y63155D01*
X57050Y63500D02*
X57395Y63155D01*
X56750Y63200D02*
X57050Y63500D01*
X57840Y62910D02*
Y63219D01*
X51820Y65170D02*
X51850Y65200D01*
X50801Y65170D02*
X51820D01*
X50950Y65530D02*
X51180D01*
X52220Y58480D02*
X52610Y58090D01*
X51160Y59590D02*
X51160Y59590D01*
X52650Y58750D02*
X52679D01*
X53410Y58019D01*
X38800Y60700D02*
X39190Y60310D01*
X53430Y58630D02*
X53670Y58390D01*
X58620Y66130D02*
X58650Y66100D01*
X53670Y58390D02*
X53839D01*
X54560Y57669D01*
X51850Y57540D02*
Y58750D01*
X53331Y58630D02*
X53430D01*
X53430Y59240D02*
X53998D01*
X52650Y58750D02*
Y58870D01*
X51160Y59590D02*
X51228D01*
X52680Y59990D02*
X53430Y59240D01*
X50490Y59950D02*
X50500D01*
X51632Y58750D02*
X51850D01*
X50320Y59950D02*
X50490D01*
X51249Y59990D02*
X52680D01*
X38000Y58300D02*
X38020Y58280D01*
X38000Y59100D02*
X38440Y58660D01*
X38000Y59900D02*
X38860Y59040D01*
X38800Y59900D02*
X38810Y59890D01*
X39600Y60700D02*
X40282D01*
X42160Y57344D02*
X42560Y57744D01*
X53290Y59020D02*
X53880D01*
X54420Y58480D01*
X55860D01*
X56250Y58090D01*
X53998Y59240D02*
X54397Y58840D01*
X53450Y64400D02*
Y64650D01*
X51110Y58750D02*
X51321D01*
X51370Y59110D02*
X51590Y59330D01*
X52190D01*
X52650Y58870D01*
X51228Y59590D02*
X51408Y59770D01*
X52540D01*
X53290Y59020D01*
X38460Y66504D02*
Y67669D01*
Y66504D02*
X38820Y66144D01*
X51180Y65530D02*
X51210Y65560D01*
X53450Y64650D02*
X53830Y65030D01*
Y65510D01*
X50740Y65740D02*
X50950Y65530D01*
X53900Y61280D02*
X53980Y61200D01*
X54250D01*
X49749Y59379D02*
X50320Y59950D01*
X52330Y64400D02*
X52373Y64443D01*
X53430D01*
X50740Y65740D02*
Y66280D01*
X55850Y64140D02*
Y64400D01*
X39850Y64020D02*
X40298D01*
X41220Y64942D01*
X55696Y64984D02*
X55850Y65139D01*
Y65200D01*
X37200Y63900D02*
X37600Y64300D01*
X65480Y63570D02*
X65850D01*
X55050Y64400D02*
Y64650D01*
X55440Y65040D01*
Y65089D01*
X55490Y65139D01*
Y65349D01*
X54640Y64551D02*
X55050Y64961D01*
Y65200D01*
X54690Y65090D02*
Y65349D01*
X54250Y65111D02*
Y65200D01*
X40120Y66183D02*
X40380Y65923D01*
Y65290D02*
Y65923D01*
X40540Y66357D02*
X40800Y66097D01*
Y65116D02*
Y66097D01*
X40960Y66531D02*
X41220Y66271D01*
Y64942D02*
Y66271D01*
X41380Y66705D02*
X41640Y66445D01*
X41800Y66879D02*
X42060Y66619D01*
X38040Y66310D02*
X38400Y65950D01*
Y64800D02*
Y65950D01*
X38040Y66310D02*
Y67843D01*
X38460Y67669D02*
X38860Y68069D01*
X38040Y67843D02*
X38440Y68243D01*
X40120Y66183D02*
Y66626D01*
X39700Y70350D02*
X40040Y70010D01*
X40120Y70524D02*
X40460Y70184D01*
X38800Y62300D02*
X39431D01*
X39320Y64970D02*
X39480Y65130D01*
X65010Y64040D02*
X65480Y63570D01*
X50701Y64930D02*
X51590D01*
X51680Y64840D01*
X52000D01*
X52360Y65200D01*
X52650D01*
X55700Y64759D02*
Y64980D01*
X58340Y62400D02*
X58380Y62360D01*
X57840Y62910D02*
X58390Y62360D01*
X58380D02*
X58390D01*
X60376Y61940D02*
X64066Y58250D01*
X58130Y61940D02*
X60376D01*
X64066Y58250D02*
X65850D01*
X57395Y62675D02*
X58130Y61940D01*
X37200Y59900D02*
X37570Y59530D01*
Y57690D02*
Y59530D01*
Y57690D02*
X37600Y57660D01*
X37200Y59900D02*
Y59900D01*
X38000Y60700D02*
X38206D01*
X38000Y62230D02*
Y62300D01*
X56250Y58090D02*
X56640Y57700D01*
X56610Y58239D02*
X56971D01*
X57670Y57540D01*
X55550Y59960D02*
X55940Y59570D01*
X54560Y59160D02*
X55240D01*
X55320Y59080D01*
X56009Y58840D02*
X56610Y58239D01*
X54397Y58840D02*
X56009D01*
X56799Y59110D02*
X58670Y57239D01*
X56501Y59110D02*
X56799D01*
X56471Y59080D02*
X56501Y59110D01*
X55320Y59080D02*
X56471D01*
X55410Y59600D02*
X55680Y59330D01*
X56100Y59820D02*
X58490D01*
X57560Y59060D02*
X57999D01*
X57290Y59330D02*
X57560Y59060D01*
X55680Y59330D02*
X57290D01*
X58551Y59089D02*
X58770D01*
X58230Y59410D02*
X58551Y59089D01*
X57570Y59410D02*
X58230D01*
X57410Y59570D02*
X57570Y59410D01*
X55940Y59570D02*
X57410D01*
X56501Y60040D02*
X58880D01*
X59130Y59790D01*
X58490Y59820D02*
X58975Y59335D01*
X52450Y67057D02*
X52970Y67577D01*
X52870Y66883D02*
X53990Y68003D01*
X53570Y66300D02*
X56050Y68780D01*
X54290Y65970D02*
Y66340D01*
X57080Y69130D01*
X54799Y65760D02*
X58110Y69071D01*
X55750Y63020D02*
Y63500D01*
X42480Y65523D02*
X42780Y65223D01*
Y64516D02*
Y65223D01*
X42480Y65523D02*
Y66793D01*
X42220Y67053D02*
X42480Y66793D01*
X43200Y64342D02*
Y65397D01*
X42900Y65697D02*
X43200Y65397D01*
X42640Y67227D02*
X42900Y66967D01*
Y65697D02*
Y66967D01*
X42220Y68314D02*
X42560Y68654D01*
X41800Y68488D02*
X42140Y68828D01*
X41380Y68662D02*
X41720Y69002D01*
X40960Y68836D02*
X41300Y69176D01*
X40540Y69010D02*
X40880Y69350D01*
X40120Y69184D02*
X40460Y69524D01*
Y70184D01*
X39700Y69358D02*
X40040Y69698D01*
Y70010D01*
X42220Y67053D02*
Y68314D01*
X41800Y66879D02*
Y68488D01*
X41380Y66705D02*
Y68662D01*
X40960Y66531D02*
Y68836D01*
X40540Y66357D02*
Y69010D01*
X40120Y67547D02*
Y69184D01*
X39700Y67721D02*
Y69358D01*
X38800Y64700D02*
X39240D01*
X39320Y64780D01*
Y64970D01*
X39850Y64760D02*
X40380Y65290D01*
X39700Y66009D02*
Y66452D01*
Y66009D02*
X39960Y65749D01*
X42944Y64086D02*
X43200Y64342D01*
X42226Y63330D02*
X42524Y63628D01*
Y64260D01*
X42780Y64516D01*
X41594Y63330D02*
X42226D01*
X42104Y63864D02*
Y64434D01*
X41990Y63750D02*
X42104Y63864D01*
X38206Y60700D02*
X38566Y61060D01*
X41424Y63160D02*
X41594Y63330D01*
X38810Y59890D02*
X39904D01*
X40120Y59674D01*
X39190Y60310D02*
X40078D01*
X40540Y59848D01*
X39480Y65130D02*
X39740D01*
X39960Y65350D01*
Y65749D01*
X38000Y62230D02*
X38490Y61740D01*
X39210Y61690D02*
X39450D01*
X39810Y61330D01*
X39431Y62300D02*
X40041Y62910D01*
X42400D01*
X39670Y63160D02*
X41424D01*
X37600Y64300D02*
X39100D01*
X39200Y64400D01*
X40084D01*
X40800Y65116D01*
X38800Y63900D02*
X39389D01*
X39639Y63650D01*
X40522D01*
X37600Y62700D02*
X38190D01*
X38440Y62450D01*
X38000Y63100D02*
X38470D01*
X38750Y62820D01*
X38710Y63410D02*
X40876D01*
X39330Y62820D02*
X39670Y63160D01*
X38750Y62820D02*
X39330D01*
X56170Y63210D02*
X56170Y63210D01*
Y63260D01*
X56400Y63490D01*
X56100Y62380D02*
X56330Y62610D01*
Y62870D01*
X56170Y63030D02*
X56330Y62870D01*
X56170Y63030D02*
Y63210D01*
X42944Y63454D02*
Y64086D01*
X55533Y61810D02*
X56480D01*
X56750Y62080D01*
Y63200D01*
X42400Y62910D02*
X42944Y63454D01*
X43950Y66132D02*
X44250Y65832D01*
X42640Y68140D02*
X42980Y68480D01*
X42640Y67227D02*
Y68140D01*
X39700Y70350D02*
Y70976D01*
X40120Y70524D02*
Y70802D01*
X40880Y69350D02*
Y70968D01*
X41300Y69176D02*
Y70794D01*
X41720Y69002D02*
Y70620D01*
X42140Y68828D02*
Y70446D01*
X42560Y68654D02*
Y70272D01*
X42980Y68480D02*
Y70098D01*
X40876Y63410D02*
X41406Y63940D01*
X41770Y63750D02*
X41990D01*
X41406Y63940D02*
X41580D01*
X41770Y63750D01*
X42745Y61770D02*
X43994Y63019D01*
Y63651D01*
X44250Y63907D01*
X40650Y61770D02*
X42745D01*
X44250Y63907D02*
Y65832D01*
X44370Y66925D02*
Y67635D01*
Y66925D02*
X44810Y66485D01*
Y66220D02*
Y66485D01*
X44670Y66080D02*
X44810Y66220D01*
X44670Y64950D02*
Y66080D01*
X44795Y64550D02*
Y64825D01*
X44670Y64425D02*
X44795Y64550D01*
X44670Y64950D02*
X44795Y64825D01*
X52220Y58480D02*
Y58910D01*
X53500Y61040D02*
X53760Y60780D01*
X54170D01*
X54250Y60700D01*
Y60400D02*
Y60700D01*
Y64400D02*
Y64650D01*
X54690Y65090D01*
X51390Y64690D02*
X51460Y64620D01*
X52150D01*
X52370Y64840D01*
X53181Y64160D02*
X53301Y64040D01*
X53840Y64701D02*
X54250Y65111D01*
X54640Y64161D02*
Y64551D01*
X54570Y62860D02*
X55850Y64140D01*
X54870Y62620D02*
X55074Y62824D01*
X55554D01*
X55750Y63020D01*
X54520Y61200D02*
X55320Y60400D01*
X56141D01*
X54980Y60040D02*
X55060Y59960D01*
X55550D01*
X53457Y59543D02*
X54177D01*
X54560Y59160D01*
X53790Y60040D02*
X54067Y59763D01*
X54500D01*
X54620Y59643D01*
X55007D01*
X55050Y59600D01*
X53450Y60400D02*
X53741D01*
X54101Y60040D01*
X54980D01*
X51321Y58750D02*
X51681Y59110D01*
X52020D01*
X52220Y58910D01*
X51499Y59550D02*
X52411D01*
X53331Y58630D01*
X50840Y60310D02*
X50940Y60210D01*
X52790D02*
X53457Y59543D01*
X50910Y60560D02*
X50910Y60560D01*
X51089D01*
X51199Y60450D01*
X52890D01*
X53300Y60040D01*
X53790D01*
X53050Y60800D02*
X53450Y60400D01*
X45509Y62904D02*
Y63130D01*
X45220Y62615D02*
X45509Y62904D01*
X45419Y63220D02*
X45509Y63130D01*
X45220Y62426D02*
Y62615D01*
X44670Y63520D02*
Y64425D01*
Y63520D02*
X44970Y63220D01*
X45419D01*
X45160Y61660D02*
X45375D01*
X45685Y61350D01*
X43950Y66132D02*
Y67402D01*
X43810Y67542D02*
Y67825D01*
Y67542D02*
X43950Y67402D01*
X43810Y67825D02*
X44030Y68045D01*
X46755Y61470D02*
X46980D01*
X46635Y61350D02*
X46755Y61470D01*
X45685Y61350D02*
X46635D01*
X43950Y61156D02*
X45220Y62426D01*
X43950Y61020D02*
Y61156D01*
X44080Y60890D02*
X44390D01*
X45160Y61660D01*
X43950Y61020D02*
X44080Y60890D01*
X43530Y60846D02*
Y61330D01*
Y60846D02*
X43906Y60470D01*
X42690Y52010D02*
Y52880D01*
Y52010D02*
X42790Y51910D01*
X41217Y52340D02*
X42130D01*
X43110Y52018D02*
Y52836D01*
X43002Y51910D02*
X43110Y52018D01*
X42790Y51910D02*
X43002D01*
X43530Y52410D02*
X43615Y52495D01*
X45020Y52915D02*
X45187D01*
X44860Y52755D02*
X45020Y52915D01*
X44860Y52084D02*
Y52755D01*
X43615Y52495D02*
X43845D01*
X43950Y52390D01*
X45304Y51934D02*
X45574D01*
X44440Y52020D02*
X44550Y51910D01*
X44686D01*
X44860Y52084D01*
X43871Y52915D02*
X44295D01*
X44440Y52770D01*
Y52020D02*
Y52770D01*
X46188Y52140D02*
X46612Y52564D01*
X46914D01*
X47070Y52720D01*
Y53022D01*
X47196Y53148D01*
X45869Y50571D02*
Y51639D01*
X46290Y50650D02*
Y51648D01*
X45574Y51934D02*
X45869Y51639D01*
X46290Y51648D02*
X46786Y52144D01*
X45869Y50571D02*
X45960Y50480D01*
X46120D01*
X46290Y50650D01*
X48430D02*
Y51446D01*
Y50650D02*
X48580Y50500D01*
X45786Y50060D02*
X46294D01*
X46753Y50519D01*
X45449Y50397D02*
X45786Y50060D01*
X38440Y55117D02*
X39787Y53770D01*
X40160D01*
X40320Y53610D01*
Y53237D02*
Y53610D01*
Y53237D02*
X41217Y52340D01*
X42130D02*
X42270Y52200D01*
Y51836D02*
Y52200D01*
X46786Y52144D02*
X47732D01*
X42270Y51836D02*
X43046Y51060D01*
X44430D02*
X45304Y51934D01*
X43046Y51060D02*
X43390D01*
X43530Y51200D01*
Y52410D01*
X43950Y51160D02*
Y52390D01*
Y51160D02*
X44050Y51060D01*
X44430D01*
X44940Y50060D02*
X45030Y50150D01*
X44730Y50060D02*
X44940D01*
X44150Y50640D02*
X44730Y50060D01*
X42872Y50640D02*
X44150D01*
X38020Y54943D02*
X41290Y51673D01*
X42042Y51470D02*
X42872Y50640D01*
X41810Y51470D02*
X42042D01*
X41710Y51370D02*
X41810Y51470D01*
X41290Y50730D02*
X41390Y50630D01*
X41600D01*
X41710Y50740D01*
X41290Y50730D02*
Y51673D01*
X41710Y50740D02*
Y51370D01*
X42099Y50519D02*
X42399D01*
X43008Y49910D01*
X44556Y49640D02*
X45114D01*
X45114Y49640D01*
X43976Y50220D02*
X44556Y49640D01*
X43008Y49910D02*
X43290D01*
X43600Y50220D01*
X43976D01*
X41540Y49960D02*
X42099Y50519D01*
X40719Y50181D02*
Y51650D01*
Y50181D02*
X40940Y49960D01*
X41540D01*
X58110Y69071D02*
Y69450D01*
X57080Y69130D02*
Y69450D01*
X56050Y68780D02*
Y69450D01*
X55020Y68439D02*
Y69450D01*
X53990Y68003D02*
Y69450D01*
X52970Y67577D02*
Y69450D01*
X39410Y58920D02*
Y59180D01*
Y58920D02*
X39640Y58690D01*
X40300D01*
X39560Y58050D02*
X40330D01*
X39280Y55860D02*
Y57770D01*
X39560Y58050D01*
X42980Y70098D02*
X44082Y71200D01*
X29850Y71925D02*
Y72400D01*
Y71925D02*
X30375Y71400D01*
Y68325D02*
Y71400D01*
Y68325D02*
X30825Y67875D01*
X49274Y62860D02*
X54570D01*
X48920Y62620D02*
X54870D01*
X46865Y64675D02*
X48920Y62620D01*
X47170Y61280D02*
X53900D01*
X46980Y61470D02*
X47170Y61280D01*
X47520Y61040D02*
X53500D01*
X47126Y60646D02*
X47520Y61040D01*
X49424Y59799D02*
X49569D01*
X49729Y58975D02*
X50341Y59587D01*
X49600Y58975D02*
X49729D01*
X50341Y59590D02*
X51160D01*
X48580Y50500D02*
X49100D01*
X50025Y52235D02*
Y56887D01*
X51088Y57950D01*
X47792Y54408D02*
X48300Y54916D01*
Y58675D01*
X49424Y59799D01*
X47966Y53988D02*
X48625Y54647D01*
Y58465D01*
X49539Y59379D01*
X48444Y53568D02*
X48925Y54049D01*
Y58300D01*
X49600Y58975D01*
X49200Y58025D02*
X50525Y59350D01*
X49100Y50500D02*
X49500Y50900D01*
Y57550D01*
X50710Y58760D01*
X50485Y66535D02*
Y69510D01*
X42060Y65390D02*
Y66619D01*
X42104Y64434D02*
X42400Y64730D01*
Y65050D01*
X42060Y65390D02*
X42400Y65050D01*
D25*
X50950Y66910D02*
X51100Y66760D01*
X52000Y53150D02*
Y53790D01*
X60750Y53150D02*
Y53750D01*
X58150Y53150D02*
Y53750D01*
X56100Y53150D02*
Y53750D01*
X54000Y53150D02*
Y53750D01*
X68700Y58650D02*
X69310D01*
X68670Y60800D02*
X69300D01*
X68670Y63050D02*
X69300D01*
X68670Y65090D02*
X69300D01*
X61850Y66100D02*
Y66750D01*
X61960Y66860D01*
X63640Y66390D02*
Y66860D01*
X63350Y66100D02*
X63640Y66390D01*
X62740Y66250D02*
Y66860D01*
X62590Y66100D02*
X62740Y66250D01*
X61010Y66810D02*
X61060Y66860D01*
X61010Y66100D02*
Y66810D01*
X60250Y66840D02*
X60270Y66860D01*
X60250Y66100D02*
Y66840D01*
X59370Y66860D02*
X59450Y66780D01*
Y66100D02*
Y66780D01*
X58570Y66860D02*
X58650Y66780D01*
Y66100D02*
Y66780D01*
X60650Y58800D02*
X61240D01*
X61330Y58710D01*
X60650Y59600D02*
X60660Y59610D01*
X61330D01*
X51750Y66810D02*
X51850Y66910D01*
X51750Y66120D02*
Y66810D01*
X51100Y66120D02*
Y66760D01*
X51950Y66910D02*
Y67650D01*
X52390Y68090D01*
X51050Y66910D02*
Y68030D01*
X50990Y68090D02*
X51050Y68030D01*
X53500Y72420D02*
Y73000D01*
X53480Y72400D02*
X53500Y72420D01*
X55570D02*
Y73000D01*
X55550Y72400D02*
X55570Y72420D01*
X57630Y72420D02*
Y73000D01*
X57610Y72400D02*
X57630Y72420D01*
X65730Y72680D02*
X66750D01*
X65710Y72700D02*
X65730Y72680D01*
X65790Y53230D02*
X66780D01*
X65690Y53330D02*
X65790Y53230D01*
X30000Y89575D02*
X30600Y88975D01*
Y86800D02*
Y88975D01*
X30225Y86425D02*
X30600Y86800D01*
X29400Y86425D02*
X30225D01*
X28100Y89450D02*
X30000Y87550D01*
X27650Y89450D02*
X28100D01*
X23625Y86400D02*
X26800Y89575D01*
X26925Y89450D02*
X27650D01*
X23625Y85275D02*
Y86400D01*
X30000Y89575D02*
X30325Y89900D01*
X30925D01*
X28900Y85925D02*
X29400Y86425D01*
X30150Y91450D02*
X30775D01*
X30000Y87050D02*
Y87550D01*
X28900Y86975D02*
Y87350D01*
X29100Y87550D01*
X26800Y88175D02*
X27500D01*
X27750Y88425D01*
X26800Y61500D02*
X26800Y61500D01*
X23000Y59725D02*
X23200Y59525D01*
X24275D01*
X25250Y60925D02*
X25775D01*
X26100Y60600D01*
X26700D02*
X26800Y60700D01*
X26100Y60600D02*
X26700D01*
X25600Y63900D02*
X26000D01*
X25275Y64225D02*
X25600Y63900D01*
X23675Y64225D02*
X24375D01*
X26100Y61500D02*
X26800D01*
X11525Y80575D02*
X12200Y81250D01*
X11525Y77750D02*
Y80575D01*
X11325Y77550D02*
X11525Y77750D01*
X10800Y77550D02*
X11325D01*
X22075Y83725D02*
X23625Y85275D01*
X21700Y83725D02*
X22075D01*
X19525Y81550D02*
X21700Y83725D01*
X15625Y81550D02*
X19525D01*
X15050Y82125D02*
X15625Y81550D01*
X10800Y77550D02*
Y81000D01*
X11925Y82125D01*
X15050D01*
X5675Y70825D02*
X15000Y61500D01*
X5675Y70825D02*
Y79975D01*
Y80875D02*
Y81350D01*
X7375Y83050D01*
X8200D01*
X15000Y61500D02*
X26100D01*
D26*
X34200Y66500D02*
X34800D01*
X35630Y63070D02*
X35630Y63070D01*
X34000Y63100D02*
X34600D01*
X36200Y61500D02*
X36300Y61400D01*
X34060Y61560D02*
X34600D01*
X36130Y59900D02*
X36270Y59760D01*
X34000Y58300D02*
X34600D01*
X36160Y65500D02*
X36250Y65590D01*
X35600Y62300D02*
X36220D01*
X33150Y63900D02*
X34000D01*
X33140Y63910D02*
X33150Y63900D01*
X34000Y60700D02*
X34600D01*
X34100Y65600D02*
X34800D01*
X27570Y60660D02*
X27640Y60730D01*
X27570Y60660D02*
X28400D01*
X36245Y58045D02*
X36500Y58300D01*
X28400Y63970D02*
Y64720D01*
X28420Y64700D01*
X29200D01*
X51990Y53800D02*
X52000Y53790D01*
X60730Y53770D02*
X60750Y53750D01*
X58140Y53760D02*
X58150Y53750D01*
X56090Y53760D02*
X56100Y53750D01*
X54000Y53750D02*
X54010Y53760D01*
X55570Y57470D02*
Y57750D01*
X55270Y58050D02*
X55570Y57750D01*
X68660Y58690D02*
X68700Y58650D01*
X68660Y60810D02*
X68670Y60800D01*
X68660Y63060D02*
X68670Y63050D01*
X68660Y65080D02*
X68670Y65090D01*
X35600Y67100D02*
X35790Y67290D01*
X35600Y66300D02*
X36130D01*
X35600Y65500D02*
X36160D01*
X35600Y64700D02*
X35620Y64720D01*
X35600Y63100D02*
X35630Y63070D01*
X34000Y63100D02*
X34030Y63070D01*
X33230Y63100D02*
X34000D01*
X33200Y63070D02*
X33230Y63100D01*
X32430Y63070D02*
X33200D01*
X32400Y63100D02*
X32430Y63070D01*
X31630Y63100D02*
X32400D01*
X31600Y63070D02*
X31630Y63100D01*
X30830Y63070D02*
X31600D01*
X30800Y63100D02*
X30830Y63070D01*
X30030Y63100D02*
X30800D01*
X30000Y63070D02*
X30030Y63100D01*
X29230Y63070D02*
X30000D01*
X29200Y63100D02*
X29230Y63070D01*
X30800Y62300D02*
X31580D01*
X31600Y62320D01*
X32380D01*
X32400Y62300D01*
X33180D01*
X33200Y62320D01*
X33980D01*
X34000Y62300D01*
X33280Y61500D02*
X34000D01*
X33200Y61420D02*
X33280Y61500D01*
X32480Y61420D02*
X33200D01*
X32400Y61500D02*
X32480Y61420D01*
X31680Y61500D02*
X32400D01*
X31600Y61420D02*
X31680Y61500D01*
X30000Y61420D02*
X30080Y61500D01*
X30800D01*
X30880Y61420D01*
X31600D01*
X29200Y61500D02*
X29280Y61420D01*
X30000D01*
X28400D02*
X28480Y61500D01*
X29200D01*
X27600D02*
X27680Y61420D01*
X28400D01*
X35600Y59900D02*
X36130D01*
X36500Y58300D02*
X37200D01*
Y59100D01*
X36540Y59760D02*
X37200Y59100D01*
X36270Y59760D02*
X36540D01*
X31730Y59100D02*
X32400D01*
X31600Y58970D02*
X31730Y59100D01*
X30930Y58970D02*
X31600D01*
X30800Y59100D02*
X30930Y58970D01*
X30130Y59100D02*
X30800D01*
X30000Y58970D02*
X30130Y59100D01*
X29330Y58970D02*
X30000D01*
X29200Y59100D02*
X29330Y58970D01*
X28530Y59100D02*
X29200D01*
X28400Y58970D02*
X28530Y59100D01*
X34800Y59350D02*
Y59850D01*
X33240Y60700D02*
X34000D01*
X33200Y60660D02*
X33240Y60700D01*
X32400D02*
X33160D01*
X33200Y60660D01*
X30840D02*
X31600D01*
X30800Y60700D02*
X30840Y60660D01*
X30040Y60700D02*
X30800D01*
X30000Y60660D02*
X30040Y60700D01*
X29240Y60660D02*
X30000D01*
X29200Y60700D02*
X29240Y60660D01*
X29160D02*
X29200Y60700D01*
X27600Y59890D02*
X28270D01*
X28400Y59760D01*
X28540Y59900D02*
X29200D01*
X28400Y59760D02*
X28540Y59900D01*
X29200D02*
X29860D01*
X30000Y59760D01*
X30140Y59900D02*
X30800D01*
X30000Y59760D02*
X30140Y59900D01*
X30800D02*
X31460D01*
X31600Y59760D01*
X31740Y59900D02*
X32400D01*
X31600Y59760D02*
X31740Y59900D01*
X32400D02*
X33060D01*
X33200Y59760D01*
X33340Y59900D02*
X34000D01*
X33200Y59760D02*
X33340Y59900D01*
X30800Y58300D02*
X31030Y58070D01*
X30000D02*
X30570D01*
X30800Y58300D01*
X29430Y58070D02*
X30000D01*
X29200Y58300D02*
X29430Y58070D01*
X28970D02*
X29200Y58300D01*
X27600Y58250D02*
X27780Y58070D01*
X27600Y59100D02*
Y59890D01*
X32170Y58070D02*
X32400Y58300D01*
X27600Y63100D02*
X28370D01*
X28400Y63070D01*
X27600Y62300D02*
X28380D01*
X28400Y62320D01*
X27600Y62300D02*
Y63100D01*
Y63910D02*
X28340D01*
X28400Y63970D01*
X29200Y63900D02*
X29930D01*
X30000Y63970D01*
X30070Y63900D02*
X30800D01*
X30000Y63970D02*
X30070Y63900D01*
X30800D02*
X31530D01*
X31600Y63970D01*
X31660Y63910D02*
X32400D01*
X31600Y63970D02*
X31660Y63910D01*
X32400D02*
X33140D01*
X33200Y63970D01*
X34800Y64700D02*
X34888D01*
X33220D02*
X34000D01*
X33200Y64720D02*
X33220Y64700D01*
X32420Y64720D02*
X33200D01*
X32400Y64700D02*
X32420Y64720D01*
X31620Y64700D02*
X32400D01*
X31600Y64720D02*
X31620Y64700D01*
X30820Y64720D02*
X31600D01*
X30800Y64700D02*
X30820Y64720D01*
X30020Y64700D02*
X30800D01*
X30000Y64720D02*
X30020Y64700D01*
X29220Y64720D02*
X30000D01*
X29200Y64700D02*
X29220Y64720D01*
X29200Y65500D02*
X29880D01*
X30000Y65620D01*
X30680D01*
X30800Y65500D01*
X31480D01*
X31600Y65620D01*
X32280D01*
X32400Y65500D01*
X33080D01*
X33200Y65620D01*
X33390Y67100D02*
X34000D01*
X33200Y67290D02*
X33390Y67100D01*
X33010D02*
X33200Y67290D01*
X31600D02*
X31790Y67100D01*
X30800D02*
X31410D01*
X31600Y67290D01*
X30190Y67100D02*
X30800D01*
X30000Y67290D02*
X30190Y67100D01*
X29200D02*
X29810D01*
X30000Y67290D01*
X29200Y66300D02*
X29910D01*
X30000Y66390D01*
X30710D01*
X30800Y66300D01*
X31510D01*
X31600Y66390D01*
X32310D01*
X32400Y66300D01*
X33110D01*
X33200Y66390D01*
X33910D01*
X34000Y66300D01*
X33330Y59100D02*
X34000D01*
X33200Y58970D02*
X33330Y59100D01*
X32630Y58070D02*
X33200D01*
X32400Y58300D02*
X32630Y58070D01*
X33200D02*
X33770D01*
X34000Y58300D01*
X35600Y63900D02*
X35670Y63970D01*
X34000Y61500D02*
X34060Y61560D01*
X34800Y64150D02*
Y64700D01*
X34000Y65500D02*
X34100Y65600D01*
X34000Y66300D02*
X34200Y66500D01*
X28590Y67100D02*
X29200D01*
X28400Y67290D02*
X28590Y67100D01*
X28490Y66300D02*
X29200D01*
X28400Y66390D02*
X28490Y66300D01*
X28520Y65500D02*
X29200D01*
X28400Y65620D02*
X28520Y65500D01*
X27600D02*
X28280D01*
X28400Y65620D01*
X27600Y64700D02*
Y65500D01*
Y66300D02*
Y67100D01*
Y67900D01*
Y66300D02*
X28310D01*
X28400Y66390D01*
X28420Y62300D02*
X29200D01*
X28400Y62320D02*
X28420Y62300D01*
X30000Y62320D02*
X30780D01*
X30800Y62300D01*
X35600Y59100D02*
X36090D01*
X35630Y63070D02*
X36220D01*
X35670Y63970D02*
X36220D01*
X35620Y64720D02*
X36220D01*
X35790Y67290D02*
X36220D01*
X36130Y66300D02*
X36220Y66390D01*
X35600Y61500D02*
X36200D01*
X35600Y60700D02*
X35640Y60660D01*
X36220D01*
X36090Y59100D02*
X36220Y58970D01*
X35600Y58300D02*
X35990D01*
X36220Y58070D01*
X36245Y58045D01*
X32400Y67100D02*
X33010D01*
X31790D02*
X32400D01*
X25375Y59900D02*
X26000D01*
X24600Y60250D02*
X25025D01*
X24275Y60575D02*
X24600Y60250D01*
X34600Y63950D02*
X34800Y64150D01*
X34600Y59150D02*
X34800Y59350D01*
X33960Y69460D02*
X35200Y68220D01*
Y57675D02*
Y68220D01*
X34925Y57400D02*
X35200Y57675D01*
X33900Y57400D02*
X34925D01*
X33200Y56700D02*
X33900Y57400D01*
X27780Y58070D02*
X28400D01*
X28970D01*
X31030D02*
X31600D01*
X32170D01*
X28400Y60660D02*
X29160D01*
X27600Y58250D02*
Y58330D01*
Y59100D01*
X14000Y76575D02*
X14825Y75750D01*
X14000Y76575D02*
Y81550D01*
X25025Y60250D02*
X25375Y59900D01*
D27*
X28900Y85425D02*
Y85925D01*
X29675Y85400D02*
Y85925D01*
Y85400D02*
X29725Y85350D01*
X30775Y91450D02*
X30925Y91300D01*
X15175Y92100D02*
X15225Y92150D01*
D30*
X45158Y68868D02*
X45615Y68410D01*
Y67975D02*
Y68410D01*
X45010Y67370D02*
X45615Y67975D01*
X45010Y67190D02*
Y67370D01*
Y67190D02*
X45615Y66585D01*
Y66120D02*
Y66585D01*
X45310Y65815D02*
X45615Y66120D01*
X45310Y65215D02*
Y65815D01*
Y65215D02*
X45615Y64910D01*
Y64455D02*
Y64910D01*
X45310Y64150D02*
X45615Y64455D01*
X45310Y63950D02*
Y64150D01*
Y63950D02*
X45400Y63860D01*
X45913D01*
X46209Y63564D01*
Y62699D02*
Y63564D01*
X45860Y62350D02*
X46209Y62699D01*
X45860Y62080D02*
Y62350D01*
Y62080D02*
X45950Y61990D01*
X46370D01*
X46520Y62140D01*
Y62305D01*
X46813Y62599D01*
X47174D01*
X47420Y62353D01*
Y61935D02*
Y62353D01*
Y61935D02*
X47505Y61850D01*
X54775D01*
X55665Y60960D01*
X55570Y60730D02*
X56317D01*
X54680Y61620D02*
X55570Y60730D01*
X54680Y61620D02*
X54680Y61620D01*
X47410Y61620D02*
X54680D01*
X47190Y61840D02*
X47410Y61620D01*
X47190Y61840D02*
Y62257D01*
X47079Y62369D02*
X47190Y62257D01*
X46909Y62369D02*
X47079D01*
X46750Y62210D02*
X46909Y62369D01*
X46750Y62045D02*
Y62210D01*
X46465Y61760D02*
X46750Y62045D01*
X45855Y61760D02*
X46465D01*
X45630Y61985D02*
X45855Y61760D01*
X45630Y61985D02*
Y62445D01*
X45979Y62794D01*
Y63469D01*
X45817Y63630D02*
X45979Y63469D01*
X45305Y63630D02*
X45817D01*
X45080Y63855D02*
X45305Y63630D01*
X45080Y63855D02*
Y64245D01*
X45385Y64550D01*
Y64815D01*
X45080Y65120D02*
X45385Y64815D01*
X45080Y65120D02*
Y65910D01*
X45385Y66215D01*
Y66490D01*
X44780Y67095D02*
X45385Y66490D01*
X44780Y67095D02*
Y67465D01*
X45385Y68070D01*
Y68315D01*
X44928Y68772D02*
X45385Y68315D01*
X44928Y68772D02*
Y69922D01*
X44619Y70556D02*
X45158Y70017D01*
X44524Y70326D02*
X44928Y69922D01*
X44031Y70556D02*
X44619D01*
X32400Y55225D02*
Y56700D01*
X31550Y54375D02*
X32400Y55225D01*
X28175Y54375D02*
X31550D01*
X27875Y54075D02*
X28175Y54375D01*
X27875Y53375D02*
Y54075D01*
X33450Y56150D02*
X34000Y56700D01*
X33450Y54800D02*
Y56150D01*
X32450Y53800D02*
X33450Y54800D01*
X28525Y53800D02*
X32450D01*
X40350Y62550D02*
X40490Y62410D01*
X43310Y65867D02*
X43610Y65567D01*
X43540Y65962D02*
X43840Y65662D01*
X40350Y62050D02*
X40480Y62180D01*
X40490Y62410D02*
X42480D01*
X43354Y63284D01*
Y63916D01*
X43610Y64172D01*
Y65567D01*
X40480Y62180D02*
X42575D01*
X43584Y63189D01*
Y63821D01*
X43840Y64077D01*
Y65662D01*
X43310Y65867D02*
Y67137D01*
X43050Y67397D02*
X43310Y67137D01*
X43050Y67397D02*
Y67970D01*
X43390Y68310D01*
X43280Y67492D02*
X43540Y67232D01*
X43280Y67492D02*
Y67875D01*
X43620Y68215D01*
X43540Y65962D02*
Y67232D01*
X45158Y68868D02*
Y70017D01*
X43620Y68215D02*
Y69820D01*
X43390Y68310D02*
Y69915D01*
X44031Y70556D01*
X43620Y69820D02*
X44126Y70326D01*
X44524D01*
X22000Y84300D02*
Y86800D01*
X21500Y84300D02*
Y87800D01*
X26800Y89575D02*
X26925Y89450D01*
X28825Y85350D02*
X28900Y85425D01*
X30000Y87050D02*
X30075Y86975D01*
X56317Y60730D02*
X56605Y60443D01*
X56980Y60730D02*
X57240D01*
X56650Y60400D02*
X56980Y60730D01*
X58655Y60440D02*
X58955Y60740D01*
X57980Y60440D02*
X58655D01*
X59530Y60740D02*
X59850Y60420D01*
X57240Y60730D02*
X57270Y60760D01*
X57660D02*
X57980Y60440D01*
X57270Y60760D02*
X57660D01*
X58955Y60740D02*
X59530D01*
X55665Y60960D02*
X56410D01*
X56650Y61200D01*
X56700D02*
X56940Y60960D01*
X56650Y61200D02*
X56700D01*
X58075Y60670D02*
X58560D01*
X56940Y60960D02*
X57145D01*
X58560Y60670D02*
X58860Y60970D01*
X59500D01*
X57145Y60960D02*
X57175Y60990D01*
X57755D01*
X58075Y60670D01*
X59500Y60970D02*
X59850Y61320D01*
D31*
X33200Y97175D02*
X55425Y74950D01*
X56350D01*
X11625Y97175D02*
X33200D01*
X6675Y92225D02*
X11625Y97175D01*
X6675Y90250D02*
Y92225D01*
X5425Y86375D02*
X5450Y86400D01*
X5875D01*
X7375Y87900D01*
Y89550D01*
X6675Y90250D02*
X7375Y89550D01*
D33*
X30825Y68675D02*
Y71600D01*
X30350Y72075D02*
X30825Y71600D01*
X30350Y72075D02*
Y72950D01*
D34*
X50480Y52600D02*
Y56550D01*
X57669Y67329D02*
X57670Y66860D01*
X57671Y66279D01*
X57850Y66100D01*
X57669Y67329D02*
X59220Y68883D01*
X64700Y68890D01*
D36*
X29400Y83450D02*
X31850D01*
X12800Y81150D02*
X12800Y81150D01*
D38*
X23500Y58625D02*
X24275D01*
X23325Y58800D02*
X23500Y58625D01*
D39*
X51025Y80700D02*
D03*
X48325Y83275D02*
D03*
X44775Y86800D02*
D03*
X41700Y89875D02*
D03*
X38225Y93300D02*
D03*
X64400Y1425D02*
D03*
X21075Y2425D02*
D03*
X21250Y104175D02*
D03*
X26800Y115375D02*
D03*
X9650Y110500D02*
D03*
X3875Y115700D02*
D03*
X34450Y26150D02*
D03*
X56575Y26425D02*
D03*
X82625Y27975D02*
D03*
X44125Y4175D02*
D03*
X82750Y4725D02*
D03*
X3100Y5150D02*
D03*
X24750Y96500D02*
D03*
X78850Y76925D02*
D03*
X77800Y94450D02*
D03*
X77925Y86425D02*
D03*
X64950Y86775D02*
D03*
X64150Y94525D02*
D03*
X40400Y94900D02*
D03*
X7775Y104275D02*
D03*
X31650Y96525D02*
D03*
X18500Y96500D02*
D03*
X13350D02*
D03*
X6900Y96000D02*
D03*
X3425Y92950D02*
D03*
X4400Y79800D02*
D03*
X14975Y68350D02*
D03*
X15475Y63925D02*
D03*
X16600Y59050D02*
D03*
X40600Y103600D02*
D03*
X40675Y111425D02*
D03*
X51150Y111950D02*
D03*
X64125Y112025D02*
D03*
X76950Y112250D02*
D03*
X51225Y103675D02*
D03*
X64200Y103525D02*
D03*
X77175Y103450D02*
D03*
X51075Y94650D02*
D03*
X77175Y66025D02*
D03*
X77400Y54650D02*
D03*
X77475Y46825D02*
D03*
X64500Y46225D02*
D03*
X51075Y46375D02*
D03*
X40450Y46150D02*
D03*
X15375Y44500D02*
D03*
X26075Y44300D02*
D03*
X4575Y43700D02*
D03*
X5675Y52800D02*
D03*
X6175Y61075D02*
D03*
X6475Y67750D02*
D03*
X25050Y82925D02*
D03*
X1550Y96950D02*
D03*
X56350Y74950D02*
D03*
X13175Y34900D02*
D03*
X18325Y34875D02*
D03*
X19750Y27475D02*
D03*
D40*
X23000Y59725D02*
D03*
Y61325D02*
D03*
D41*
X60500Y71500D02*
Y72400D01*
X11350Y98575D02*
X34325D01*
X60500Y72400D01*
X5700Y92925D02*
X11350Y98575D01*
X5700Y89225D02*
Y92925D01*
Y89225D02*
X6525Y88400D01*
M02*
