G04 Layer_Physical_Order=4*
G04 Layer_Color=16711680*
%FSLAX43Y43*%
%MOMM*%
G71*
G01*
G75*
%ADD10R,0.560X0.510*%
%ADD12R,0.510X0.560*%
%ADD13R,0.640X0.890*%
%ADD15R,0.890X0.640*%
%ADD17R,0.700X0.510*%
%ADD18R,0.510X0.700*%
%ADD23C,0.200*%
%ADD24C,0.090*%
%ADD25C,0.300*%
%ADD26C,0.100*%
%ADD28C,0.175*%
%ADD29C,0.120*%
%ADD31C,0.500*%
%ADD34C,0.130*%
%ADD36C,0.400*%
%ADD37C,0.600*%
%ADD38R,0.950X0.800*%
G36*
X85592Y408D02*
X408D01*
Y119592D01*
X85592D01*
Y408D01*
D02*
G37*
%LPC*%
G36*
X8425Y80706D02*
X8308Y80683D01*
X8209Y80616D01*
X8142Y80517D01*
X8119Y80400D01*
X8142Y80283D01*
X8209Y80184D01*
X8308Y80117D01*
X8425Y80094D01*
X8542Y80117D01*
X8641Y80184D01*
X8708Y80283D01*
X8731Y80400D01*
X8708Y80517D01*
X8641Y80616D01*
X8542Y80683D01*
X8425Y80706D01*
D02*
G37*
G36*
X16600Y77656D02*
X16483Y77633D01*
X16384Y77566D01*
X16317Y77467D01*
X16294Y77350D01*
X16317Y77233D01*
X16321Y77227D01*
X16366Y77075D01*
X16321Y76923D01*
X16317Y76917D01*
X16294Y76800D01*
X16317Y76683D01*
X16384Y76584D01*
X16483Y76517D01*
X16600Y76494D01*
X16717Y76517D01*
X16816Y76584D01*
X16883Y76683D01*
X16906Y76800D01*
X16883Y76917D01*
X16879Y76923D01*
X16834Y77075D01*
X16879Y77227D01*
X16883Y77233D01*
X16906Y77350D01*
X16883Y77467D01*
X16816Y77566D01*
X16717Y77633D01*
X16600Y77656D01*
D02*
G37*
G36*
X10425Y80906D02*
X10308Y80883D01*
X10209Y80816D01*
X10142Y80717D01*
X10119Y80600D01*
X10142Y80483D01*
X10209Y80384D01*
X10308Y80317D01*
X10425Y80294D01*
X10542Y80317D01*
X10641Y80384D01*
X10708Y80483D01*
X10731Y80600D01*
X10708Y80717D01*
X10641Y80816D01*
X10542Y80883D01*
X10425Y80906D01*
D02*
G37*
G36*
X18125Y83631D02*
X18008Y83608D01*
X17909Y83541D01*
X17842Y83442D01*
X17819Y83325D01*
X17842Y83208D01*
X17909Y83109D01*
X18008Y83042D01*
X18125Y83019D01*
X18242Y83042D01*
X18341Y83109D01*
X18408Y83208D01*
X18431Y83325D01*
X18408Y83442D01*
X18341Y83541D01*
X18242Y83608D01*
X18125Y83631D01*
D02*
G37*
G36*
X9525Y82906D02*
X9408Y82883D01*
X9309Y82816D01*
X9242Y82717D01*
X9219Y82600D01*
X9242Y82483D01*
X9309Y82384D01*
X9408Y82317D01*
X9525Y82294D01*
X9642Y82317D01*
X9741Y82384D01*
X9808Y82483D01*
X9831Y82600D01*
X9808Y82717D01*
X9741Y82816D01*
X9642Y82883D01*
X9525Y82906D01*
D02*
G37*
G36*
X30200Y77331D02*
X30083Y77308D01*
X29984Y77241D01*
X29917Y77142D01*
X29894Y77025D01*
X29917Y76908D01*
X29984Y76809D01*
X30032Y76777D01*
Y75900D01*
X29972Y75848D01*
X29822Y75767D01*
X29750Y75781D01*
X29633Y75758D01*
X29534Y75691D01*
X29467Y75592D01*
X29444Y75475D01*
X29467Y75358D01*
X29534Y75259D01*
X29582Y75227D01*
Y73920D01*
X29356Y73694D01*
X29320Y73639D01*
X29307Y73575D01*
Y71970D01*
X29279Y71942D01*
X29136Y71811D01*
X29025Y71857D01*
X28918Y71928D01*
Y72805D01*
X29019Y72906D01*
X29055Y72961D01*
X29068Y73025D01*
Y73400D01*
X29055Y73464D01*
X29019Y73519D01*
X29017Y73536D01*
X29067Y73768D01*
X29091Y73784D01*
X29158Y73883D01*
X29181Y74000D01*
X29158Y74117D01*
X29091Y74216D01*
X28992Y74283D01*
X28875Y74306D01*
X28778Y74287D01*
X28742Y74293D01*
X28568Y74408D01*
Y76552D01*
X28616Y76584D01*
X28683Y76683D01*
X28706Y76800D01*
X28683Y76917D01*
X28616Y77016D01*
X28517Y77083D01*
X28400Y77106D01*
X28283Y77083D01*
X28184Y77016D01*
X28117Y76917D01*
X28094Y76800D01*
X28117Y76683D01*
X28184Y76584D01*
X28232Y76552D01*
Y74767D01*
X28022Y74654D01*
X28017Y74658D01*
X27900Y74681D01*
X27783Y74658D01*
X27684Y74591D01*
X27617Y74492D01*
X27594Y74375D01*
X27617Y74258D01*
X27684Y74159D01*
X27783Y74092D01*
X27900Y74069D01*
X28017Y74092D01*
X28022Y74096D01*
X28232Y73983D01*
Y73900D01*
X28245Y73836D01*
X28281Y73781D01*
X28732Y73330D01*
Y73095D01*
X28631Y72994D01*
X28595Y72939D01*
X28582Y72875D01*
Y72409D01*
X28400Y72257D01*
X28289Y72211D01*
X28243Y72100D01*
Y71749D01*
X28034Y71705D01*
X28011Y71761D01*
X27686Y72086D01*
X27575Y72132D01*
X27464Y72086D01*
X27418Y71975D01*
X27464Y71864D01*
X27626Y71702D01*
X27613Y71620D01*
X27601Y71597D01*
X27400Y71456D01*
X27330Y71442D01*
X26761Y72011D01*
X26650Y72057D01*
X26539Y72011D01*
X26493Y71900D01*
X26539Y71789D01*
X27108Y71220D01*
X27094Y71150D01*
X27117Y71033D01*
X27184Y70934D01*
X27268Y70878D01*
X27276Y70798D01*
X27261Y70645D01*
X27222Y70614D01*
X27214Y70611D01*
X27168Y70500D01*
X27064Y70361D01*
X27018Y70250D01*
X27064Y70139D01*
X27175Y70093D01*
X27473D01*
X27898Y69668D01*
X27894Y69650D01*
X27912Y69562D01*
X27893Y69357D01*
X27883Y69332D01*
X27720Y69264D01*
X27652Y69256D01*
X27632Y69274D01*
X27633Y69283D01*
X27656Y69400D01*
X27633Y69517D01*
X27566Y69616D01*
X27467Y69683D01*
X27350Y69706D01*
X27233Y69683D01*
X27162Y69635D01*
X26936Y69861D01*
X26825Y69907D01*
X26225D01*
X26114Y69861D01*
X26068Y69750D01*
X26114Y69639D01*
X26189Y69511D01*
X26143Y69400D01*
X26018Y69307D01*
X25987Y69230D01*
Y68670D01*
X25978Y68657D01*
X24550D01*
X24439Y68611D01*
X24393Y68500D01*
X24439Y68389D01*
X24497Y68365D01*
X24455Y68155D01*
X23183D01*
X23175Y68158D01*
X22225D01*
X22217Y68155D01*
X21913D01*
Y68225D01*
X21882Y68302D01*
X21805Y68333D01*
X21295D01*
X21218Y68302D01*
X21207Y68274D01*
X20993D01*
X20982Y68302D01*
X20905Y68333D01*
X20395D01*
X20318Y68302D01*
X20287Y68225D01*
Y68055D01*
X19259Y68055D01*
X19217Y68083D01*
X19100Y68106D01*
X18983Y68083D01*
X18884Y68016D01*
X18817Y67917D01*
X18794Y67800D01*
X18817Y67683D01*
X18884Y67584D01*
X18983Y67517D01*
X19100Y67494D01*
X19217Y67517D01*
X19259Y67545D01*
X20287Y67545D01*
Y67525D01*
X20318Y67448D01*
X20395Y67417D01*
X20905D01*
X20982Y67448D01*
X20993Y67476D01*
X21207D01*
X21218Y67448D01*
X21295Y67417D01*
X21805D01*
X21882Y67448D01*
X21913Y67525D01*
X22117Y67509D01*
Y67250D01*
X22148Y67173D01*
X22225Y67142D01*
X23175D01*
X23252Y67173D01*
X23430Y67151D01*
X23498Y67057D01*
X23467Y66980D01*
Y66556D01*
X23257Y66514D01*
X23252Y66527D01*
X23175Y66558D01*
X22225D01*
X22148Y66527D01*
X22117Y66450D01*
Y65650D01*
X22148Y65573D01*
X22225Y65542D01*
X23015D01*
X23108Y65542D01*
X23133Y65333D01*
X23034Y65266D01*
X22967Y65167D01*
X22944Y65050D01*
X22967Y64933D01*
X23034Y64834D01*
X23133Y64767D01*
X23250Y64744D01*
X23298Y64754D01*
X23498Y64718D01*
X23575Y64687D01*
X23701Y64687D01*
X24275D01*
X24352Y64718D01*
X24383Y64795D01*
Y65305D01*
X24352Y65382D01*
X24324Y65393D01*
Y65607D01*
X24352Y65618D01*
X24383Y65695D01*
Y66179D01*
X24383Y66205D01*
X24373Y66280D01*
X24457Y66459D01*
X24862D01*
Y66170D01*
X24893Y66093D01*
X24970Y66062D01*
X25530D01*
X25607Y66093D01*
X25638Y66170D01*
Y66174D01*
X25845Y66287D01*
X26110D01*
X26197Y66077D01*
X25910Y65790D01*
X25863Y65675D01*
X25910Y65560D01*
X26025Y65513D01*
X26140Y65560D01*
X26765Y66186D01*
X27005Y66175D01*
X27100Y66055D01*
X27146Y65944D01*
X27052Y65763D01*
X26972Y65657D01*
X26875D01*
X26764Y65611D01*
X26718Y65500D01*
X26764Y65389D01*
X26875Y65343D01*
X27024D01*
X27128Y65133D01*
X27117Y65117D01*
X27094Y65000D01*
X27117Y64883D01*
X27184Y64784D01*
X27243Y64744D01*
Y63550D01*
X27289Y63439D01*
X27400Y63393D01*
X27511Y63439D01*
X27557Y63550D01*
Y64492D01*
X27675Y64562D01*
X27793Y64492D01*
Y63425D01*
X27839Y63314D01*
X27950Y63268D01*
X27950Y63268D01*
X28070Y63313D01*
X28250Y63293D01*
X28250Y63293D01*
X28361Y63339D01*
X28407Y63450D01*
Y63706D01*
X28617Y63798D01*
X28645Y63787D01*
X29155D01*
X29232Y63818D01*
X29263Y63895D01*
Y64455D01*
X29232Y64532D01*
X29155Y64563D01*
X29141D01*
Y64792D01*
X29166Y64809D01*
X29233Y64908D01*
X29256Y65025D01*
X29233Y65142D01*
X29166Y65241D01*
X29119Y65273D01*
X29066Y65467D01*
X29065Y65522D01*
X29113Y65584D01*
X29270Y65587D01*
X29311Y65587D01*
X29830D01*
X29907Y65618D01*
X30058Y65517D01*
X30175Y65494D01*
X30292Y65517D01*
X30324Y65539D01*
X30435Y65584D01*
X30578Y65587D01*
X30602Y65582D01*
X30788Y65445D01*
X30788Y61100D01*
X30788D01*
X30902Y60937D01*
X30917Y60858D01*
X30984Y60759D01*
X31083Y60692D01*
X31200Y60669D01*
X31317Y60692D01*
X31416Y60759D01*
X31452Y60813D01*
X32325D01*
X32440Y60860D01*
X32661Y61082D01*
X32725Y61069D01*
X32842Y61092D01*
X32853Y61100D01*
X55625D01*
X55625Y75625D01*
X36488D01*
X36384Y75770D01*
X36363Y75835D01*
X36381Y75925D01*
X36358Y76042D01*
X36291Y76141D01*
X36192Y76208D01*
X36075Y76231D01*
X35958Y76208D01*
X35859Y76141D01*
X35792Y76042D01*
X35769Y75925D01*
X35787Y75835D01*
X35766Y75770D01*
X35662Y75625D01*
X30788D01*
X30788Y71315D01*
X30593Y71271D01*
X30577Y71275D01*
X30516Y71366D01*
X30417Y71433D01*
X30300Y71456D01*
X30252Y71495D01*
Y72400D01*
X30206Y72511D01*
X30095Y72557D01*
X30090Y72560D01*
X30070Y72808D01*
X30294Y73031D01*
X30304Y73046D01*
X30319Y73056D01*
X30355Y73111D01*
X30368Y73175D01*
Y76777D01*
X30416Y76809D01*
X30483Y76908D01*
X30506Y77025D01*
X30483Y77142D01*
X30416Y77241D01*
X30317Y77308D01*
X30200Y77331D01*
D02*
G37*
G36*
X21175Y73731D02*
X21058Y73708D01*
X20959Y73641D01*
X20892Y73542D01*
X20869Y73425D01*
X20892Y73308D01*
X20959Y73209D01*
X21058Y73142D01*
X21175Y73119D01*
X21292Y73142D01*
X21391Y73209D01*
X21458Y73308D01*
X21481Y73425D01*
X21458Y73542D01*
X21391Y73641D01*
X21292Y73708D01*
X21175Y73731D01*
D02*
G37*
G36*
X34200Y59556D02*
X34083Y59533D01*
X33984Y59466D01*
X33917Y59367D01*
X33894Y59250D01*
X33917Y59133D01*
X33984Y59034D01*
X34083Y58967D01*
X34200Y58944D01*
X34317Y58967D01*
X34416Y59034D01*
X34483Y59133D01*
X34506Y59250D01*
X34483Y59367D01*
X34416Y59466D01*
X34317Y59533D01*
X34200Y59556D01*
D02*
G37*
G36*
X15325Y81406D02*
X15208Y81383D01*
X15109Y81316D01*
X15042Y81217D01*
X15019Y81100D01*
X15042Y80983D01*
X15109Y80884D01*
X15121Y80875D01*
Y76125D01*
X15137Y76047D01*
X15181Y75981D01*
X15847Y75315D01*
X15844Y75300D01*
X15867Y75183D01*
X15934Y75084D01*
X16033Y75017D01*
X16150Y74994D01*
X16267Y75017D01*
X16366Y75084D01*
X16433Y75183D01*
X16456Y75300D01*
X16433Y75417D01*
X16366Y75516D01*
X16267Y75583D01*
X16150Y75606D01*
X16135Y75603D01*
X15529Y76209D01*
Y80875D01*
X15541Y80884D01*
X15608Y80983D01*
X15631Y81100D01*
X15608Y81217D01*
X15541Y81316D01*
X15442Y81383D01*
X15325Y81406D01*
D02*
G37*
G36*
X13550Y76256D02*
X13433Y76233D01*
X13334Y76166D01*
X13267Y76067D01*
X13244Y75950D01*
X13267Y75833D01*
X13334Y75734D01*
X13433Y75667D01*
X13550Y75644D01*
X13667Y75667D01*
X13766Y75734D01*
X13833Y75833D01*
X13856Y75950D01*
X13833Y76067D01*
X13766Y76166D01*
X13667Y76233D01*
X13550Y76256D01*
D02*
G37*
G36*
X18350Y76231D02*
X18233Y76208D01*
X18134Y76141D01*
X18067Y76042D01*
X18044Y75925D01*
X18067Y75808D01*
X18134Y75709D01*
X18233Y75642D01*
X18350Y75619D01*
X18467Y75642D01*
X18566Y75709D01*
X18633Y75808D01*
X18656Y75925D01*
X18633Y76042D01*
X18566Y76141D01*
X18467Y76208D01*
X18350Y76231D01*
D02*
G37*
G36*
X13525Y88906D02*
X13408Y88883D01*
X13309Y88816D01*
X13242Y88717D01*
X13219Y88600D01*
X13226Y88564D01*
X13221Y88553D01*
X13072Y88404D01*
X13061Y88399D01*
X13025Y88406D01*
X12908Y88383D01*
X12809Y88316D01*
X12742Y88217D01*
X12719Y88100D01*
X12742Y87983D01*
X12809Y87884D01*
X12908Y87817D01*
X13025Y87794D01*
X13142Y87817D01*
X13241Y87884D01*
X13308Y87983D01*
X13331Y88100D01*
X13324Y88136D01*
X13329Y88147D01*
X13478Y88296D01*
X13489Y88301D01*
X13525Y88294D01*
X13642Y88317D01*
X13741Y88384D01*
X13808Y88483D01*
X13831Y88600D01*
X13808Y88717D01*
X13741Y88816D01*
X13642Y88883D01*
X13525Y88906D01*
D02*
G37*
G36*
X31370Y90328D02*
X30480D01*
X30403Y90297D01*
X30372Y90220D01*
Y90155D01*
X30325D01*
X30227Y90135D01*
X30145Y90080D01*
X29932Y89867D01*
X29883Y89858D01*
X29784Y89791D01*
X29717Y89692D01*
X29694Y89575D01*
X29717Y89458D01*
X29784Y89359D01*
X29883Y89292D01*
X29932Y89283D01*
X30345Y88869D01*
Y88128D01*
X30255Y87938D01*
X29972D01*
X28280Y89630D01*
X28198Y89685D01*
X28100Y89705D01*
X27809D01*
X27767Y89733D01*
X27650Y89756D01*
X27563Y89739D01*
X27454Y89783D01*
X27353Y89847D01*
Y89895D01*
X27322Y89972D01*
X27245Y90003D01*
X26355D01*
X26278Y89972D01*
X26247Y89895D01*
Y89382D01*
X23445Y86580D01*
X23390Y86498D01*
X23370Y86400D01*
Y85331D01*
X22900Y84861D01*
X22331D01*
X22162Y85027D01*
Y86548D01*
X22216Y86584D01*
X22283Y86683D01*
X22306Y86800D01*
X22283Y86917D01*
X22216Y87016D01*
X22117Y87083D01*
X22000Y87106D01*
X21883Y87083D01*
X21872Y87076D01*
X21662Y87184D01*
Y87548D01*
X21716Y87584D01*
X21783Y87683D01*
X21806Y87800D01*
X21783Y87917D01*
X21716Y88016D01*
X21617Y88083D01*
X21500Y88106D01*
X21383Y88083D01*
X21284Y88016D01*
X21217Y87917D01*
X21194Y87800D01*
X21217Y87683D01*
X21284Y87584D01*
X21338Y87548D01*
Y84552D01*
X21284Y84516D01*
X21217Y84417D01*
X21194Y84300D01*
X21217Y84183D01*
X21284Y84084D01*
X21310Y83834D01*
X19746Y82270D01*
X19592Y82285D01*
X19431Y82400D01*
X19408Y82517D01*
X19341Y82616D01*
X19242Y82683D01*
X19125Y82706D01*
X19008Y82683D01*
X18909Y82616D01*
X18842Y82517D01*
X18819Y82400D01*
X18821Y82390D01*
X18686Y82192D01*
X18665Y82180D01*
X12650D01*
X12552Y82160D01*
X12470Y82105D01*
X11945Y81580D01*
X11890Y81498D01*
X11870Y81400D01*
Y77259D01*
X11842Y77217D01*
X11819Y77100D01*
X11842Y76983D01*
X11909Y76884D01*
X12008Y76817D01*
X12125Y76794D01*
X12242Y76817D01*
X12284Y76845D01*
X12650D01*
X12748Y76865D01*
X12830Y76920D01*
X13030Y77120D01*
X13085Y77202D01*
X13105Y77300D01*
Y80019D01*
X13593Y80508D01*
X13642Y80517D01*
X13650Y80522D01*
X13777Y80562D01*
X13909Y80484D01*
X13921Y80475D01*
X14008Y80417D01*
X14125Y80394D01*
X14242Y80417D01*
X14341Y80484D01*
X14408Y80583D01*
X14431Y80700D01*
X14408Y80817D01*
X14341Y80916D01*
X14242Y80983D01*
X14125Y81006D01*
X14008Y80983D01*
X14000Y80978D01*
X13873Y80938D01*
X13741Y81016D01*
X13729Y81025D01*
X13642Y81083D01*
X13525Y81106D01*
X13408Y81083D01*
X13309Y81016D01*
X13242Y80917D01*
X13233Y80868D01*
X12670Y80305D01*
X12615Y80223D01*
X12595Y80125D01*
Y77618D01*
X12590Y77615D01*
X12380Y77720D01*
Y81294D01*
X12756Y81670D01*
X19761D01*
X19859Y81690D01*
X19942Y81745D01*
X21792Y83595D01*
X22186D01*
X22284Y83615D01*
X22367Y83670D01*
X22630Y83933D01*
X22685Y84016D01*
X22705Y84114D01*
Y84351D01*
X23006D01*
X23103Y84370D01*
X23186Y84425D01*
X23805Y85045D01*
X23860Y85127D01*
X23880Y85225D01*
Y86294D01*
X26732Y89147D01*
X27245D01*
X27322Y89178D01*
X27522Y89174D01*
X27533Y89167D01*
X27650Y89144D01*
X27767Y89167D01*
X27809Y89195D01*
X27994D01*
X29637Y87553D01*
Y87270D01*
X29668Y87193D01*
X29745Y87162D01*
X29745D01*
Y87050D01*
X29764Y86952D01*
X29777Y86933D01*
X29786Y86890D01*
X29742Y86791D01*
X29659Y86680D01*
X29400D01*
X29302Y86660D01*
X29220Y86605D01*
X28832Y86217D01*
X28783Y86208D01*
X28684Y86141D01*
X28617Y86042D01*
X28594Y85925D01*
X28574Y85773D01*
X28493Y85707D01*
X28462Y85630D01*
Y85070D01*
X28493Y84993D01*
X28570Y84962D01*
X29080D01*
X29157Y84993D01*
X29188Y85070D01*
Y85630D01*
X29157Y85707D01*
X29236Y85901D01*
X29506Y86170D01*
X30225D01*
X30323Y86190D01*
X30405Y86245D01*
X30780Y86620D01*
X30835Y86702D01*
X30855Y86800D01*
Y88975D01*
X30835Y89073D01*
X30780Y89155D01*
X30674Y89262D01*
X30761Y89472D01*
X31370D01*
X31447Y89503D01*
X31478Y89580D01*
Y90220D01*
X31447Y90297D01*
X31370Y90328D01*
D02*
G37*
G36*
X14925Y88106D02*
X14808Y88083D01*
X14709Y88016D01*
X14642Y87917D01*
X14619Y87800D01*
X14642Y87683D01*
X14709Y87584D01*
X14808Y87517D01*
X14925Y87494D01*
X15042Y87517D01*
X15141Y87584D01*
X15208Y87683D01*
X15231Y87800D01*
X15208Y87917D01*
X15141Y88016D01*
X15042Y88083D01*
X14925Y88106D01*
D02*
G37*
G36*
X12650Y93281D02*
X12533Y93258D01*
X12434Y93191D01*
X12367Y93092D01*
X12344Y92975D01*
X12367Y92858D01*
X12434Y92759D01*
X12533Y92692D01*
X12650Y92669D01*
X12767Y92692D01*
X12866Y92759D01*
X12933Y92858D01*
X12956Y92975D01*
X12933Y93092D01*
X12866Y93191D01*
X12767Y93258D01*
X12650Y93281D01*
D02*
G37*
G36*
X13275Y92681D02*
X13158Y92658D01*
X13059Y92591D01*
X12992Y92492D01*
X12969Y92375D01*
X12992Y92258D01*
X13059Y92159D01*
X13158Y92092D01*
X13275Y92069D01*
X13392Y92092D01*
X13491Y92159D01*
X13558Y92258D01*
X13581Y92375D01*
X13558Y92492D01*
X13491Y92591D01*
X13392Y92658D01*
X13275Y92681D01*
D02*
G37*
G36*
X16550Y92506D02*
X16433Y92483D01*
X16334Y92416D01*
X16267Y92317D01*
X16244Y92200D01*
X16267Y92083D01*
X16320Y91950D01*
X16267Y91817D01*
X16244Y91700D01*
X16267Y91583D01*
X16334Y91484D01*
X16433Y91417D01*
X16550Y91394D01*
X16667Y91417D01*
X16766Y91484D01*
X16833Y91583D01*
X16856Y91700D01*
X16833Y91817D01*
X16780Y91950D01*
X16833Y92083D01*
X16856Y92200D01*
X16833Y92317D01*
X16766Y92416D01*
X16667Y92483D01*
X16550Y92506D01*
D02*
G37*
G36*
X18625Y84606D02*
X18508Y84583D01*
X18409Y84516D01*
X18342Y84417D01*
X18319Y84300D01*
X18342Y84183D01*
X18409Y84084D01*
X18508Y84017D01*
X18625Y83994D01*
X18742Y84017D01*
X18841Y84084D01*
X18908Y84183D01*
X18931Y84300D01*
X18908Y84417D01*
X18841Y84516D01*
X18742Y84583D01*
X18625Y84606D01*
D02*
G37*
G36*
X10000Y84256D02*
X9883Y84233D01*
X9784Y84166D01*
X9717Y84067D01*
X9694Y83950D01*
X9717Y83833D01*
X9784Y83734D01*
X9883Y83667D01*
X10000Y83644D01*
X10117Y83667D01*
X10216Y83734D01*
X10283Y83833D01*
X10306Y83950D01*
X10283Y84067D01*
X10216Y84166D01*
X10117Y84233D01*
X10000Y84256D01*
D02*
G37*
G36*
X31850Y83756D02*
X31733Y83733D01*
X31634Y83666D01*
X31594Y83607D01*
X29656D01*
X29616Y83666D01*
X29517Y83733D01*
X29400Y83756D01*
X29283Y83733D01*
X29184Y83666D01*
X29117Y83567D01*
X29094Y83450D01*
X29117Y83333D01*
X29184Y83234D01*
X29283Y83167D01*
X29400Y83144D01*
X29517Y83167D01*
X29616Y83234D01*
X29656Y83293D01*
X31594D01*
X31634Y83234D01*
X31733Y83167D01*
X31850Y83144D01*
X31967Y83167D01*
X32066Y83234D01*
X32133Y83333D01*
X32156Y83450D01*
X32133Y83567D01*
X32066Y83666D01*
X31967Y83733D01*
X31850Y83756D01*
D02*
G37*
G36*
X10825Y87706D02*
X10708Y87683D01*
X10609Y87616D01*
X10542Y87517D01*
X10519Y87400D01*
X10542Y87283D01*
X10609Y87184D01*
X10708Y87117D01*
X10825Y87094D01*
X10942Y87117D01*
X11041Y87184D01*
X11108Y87283D01*
X11131Y87400D01*
X11108Y87517D01*
X11041Y87616D01*
X10942Y87683D01*
X10825Y87706D01*
D02*
G37*
G36*
X9050Y87881D02*
X8933Y87858D01*
X8834Y87791D01*
X8767Y87692D01*
X8744Y87575D01*
X8767Y87458D01*
X8834Y87359D01*
X8933Y87292D01*
X9050Y87269D01*
X9167Y87292D01*
X9266Y87359D01*
X9333Y87458D01*
X9356Y87575D01*
X9333Y87692D01*
X9266Y87791D01*
X9167Y87858D01*
X9050Y87881D01*
D02*
G37*
G36*
X18275Y85856D02*
X18158Y85833D01*
X18059Y85766D01*
X17992Y85667D01*
X17969Y85550D01*
X17992Y85433D01*
X18059Y85334D01*
X18158Y85267D01*
X18275Y85244D01*
X18392Y85267D01*
X18491Y85334D01*
X18558Y85433D01*
X18581Y85550D01*
X18558Y85667D01*
X18491Y85766D01*
X18392Y85833D01*
X18275Y85856D01*
D02*
G37*
%LPD*%
G36*
X29959Y68834D02*
X30058Y68767D01*
X30175Y68744D01*
X30292Y68767D01*
X30317Y68784D01*
X30625D01*
X30781Y68631D01*
X30788Y68618D01*
Y67963D01*
X30595D01*
X30542Y67941D01*
X30408D01*
X30391Y67966D01*
X30292Y68033D01*
X30175Y68056D01*
X30058Y68033D01*
X29959Y67966D01*
X29892Y67867D01*
X29869Y67750D01*
X29892Y67633D01*
X29959Y67534D01*
X30058Y67467D01*
X30175Y67444D01*
X30277Y67464D01*
X30299Y67463D01*
X30487Y67345D01*
X30518Y67268D01*
X30595Y67237D01*
X30788D01*
Y66486D01*
X30657Y66419D01*
X30462Y66543D01*
X30458Y66567D01*
X30391Y66666D01*
X30292Y66733D01*
X30175Y66756D01*
X30125Y66746D01*
X30060Y66810D01*
X29998Y66852D01*
X29938Y66864D01*
Y66955D01*
X29907Y67032D01*
X29830Y67063D01*
X29270D01*
X29193Y67032D01*
X29162Y66955D01*
Y66496D01*
X29162Y66445D01*
X29171Y66325D01*
X29162Y66205D01*
X28974Y66087D01*
X28952Y66086D01*
X28850Y66106D01*
X28733Y66083D01*
X28634Y66016D01*
X28432Y65970D01*
X28382Y65989D01*
X28317Y66033D01*
X28200Y66056D01*
X28151Y66046D01*
X28031Y66166D01*
X27920Y66212D01*
X27868D01*
X27706Y66400D01*
X27683Y66517D01*
X27630Y66650D01*
X27683Y66783D01*
X27706Y66900D01*
X27688Y66992D01*
X27890Y67053D01*
X27893Y67043D01*
X27970Y67012D01*
X28530D01*
X28607Y67043D01*
X28638Y67120D01*
Y67288D01*
X28646Y67303D01*
X28848Y67445D01*
X28850Y67444D01*
X28967Y67467D01*
X29066Y67534D01*
X29133Y67633D01*
X29156Y67750D01*
X29133Y67867D01*
X29066Y67966D01*
X28967Y68033D01*
X28850Y68056D01*
X28733Y68033D01*
X28634Y67966D01*
X28577Y67882D01*
X28552Y67877D01*
X28490Y67835D01*
X28393Y67738D01*
X27970D01*
X27905Y67711D01*
X27893Y67707D01*
X27881Y67700D01*
X27864Y67696D01*
X27849Y67703D01*
X27700Y67873D01*
X27706Y67900D01*
X27683Y68017D01*
X27802Y68174D01*
X27816Y68184D01*
X27883Y68283D01*
X27906Y68400D01*
X27892Y68468D01*
X27912Y68516D01*
X27977Y68605D01*
X28038Y68662D01*
X28530D01*
X28607Y68693D01*
X28721Y68760D01*
X28838Y68746D01*
X28850Y68744D01*
X28967Y68767D01*
X29029Y68809D01*
X29188Y68914D01*
X29270Y68887D01*
X29830D01*
X29903Y68917D01*
X29959Y68834D01*
D02*
G37*
G36*
X26998Y67314D02*
X26966Y67175D01*
X26927Y67099D01*
X26872Y67088D01*
X26806Y67044D01*
X26707Y66946D01*
X26482Y66982D01*
X26405Y67013D01*
X25845D01*
X25768Y66982D01*
X25737Y66905D01*
Y66841D01*
X24383D01*
Y66980D01*
X24352Y67057D01*
X24324Y67068D01*
Y67282D01*
X24352Y67293D01*
X24383Y67370D01*
Y67645D01*
X24900D01*
X24984Y67662D01*
X25530D01*
X25607Y67693D01*
X25638Y67770D01*
Y67871D01*
X26441D01*
X26998Y67314D01*
D02*
G37*
D10*
X25250Y66425D02*
D03*
Y65525D02*
D03*
X26125Y67550D02*
D03*
Y66650D02*
D03*
X32100Y66475D02*
D03*
Y65575D02*
D03*
X29550Y69250D02*
D03*
Y68350D02*
D03*
X28250Y69025D02*
D03*
Y68125D02*
D03*
X30875Y65950D02*
D03*
Y65050D02*
D03*
X28250Y67375D02*
D03*
Y66475D02*
D03*
X34175Y65325D02*
D03*
Y66225D02*
D03*
X29550Y66700D02*
D03*
Y67600D02*
D03*
X30875Y69250D02*
D03*
Y68350D02*
D03*
X30900Y70000D02*
D03*
Y70900D02*
D03*
X32125Y68125D02*
D03*
Y67225D02*
D03*
X30875Y67600D02*
D03*
Y66700D02*
D03*
X29550Y65950D02*
D03*
Y65050D02*
D03*
X32950Y66475D02*
D03*
Y65575D02*
D03*
X25250Y68025D02*
D03*
Y67125D02*
D03*
X32475Y64375D02*
D03*
Y63475D02*
D03*
X47900Y66700D02*
D03*
Y65800D02*
D03*
X46575Y71225D02*
D03*
Y72125D02*
D03*
D12*
X32075Y68950D02*
D03*
X32975D02*
D03*
X30000Y87550D02*
D03*
X29100D02*
D03*
X28825Y85350D02*
D03*
X29725D02*
D03*
X28900Y64175D02*
D03*
X29800D02*
D03*
X32975Y70325D02*
D03*
X32075D02*
D03*
X34150Y68025D02*
D03*
X35050D02*
D03*
X34150Y68875D02*
D03*
X35050D02*
D03*
X26350Y68950D02*
D03*
X25450D02*
D03*
X31500Y64175D02*
D03*
X30600D02*
D03*
X32150Y72700D02*
D03*
X33050D02*
D03*
X31400Y71850D02*
D03*
X30500D02*
D03*
D13*
X52250Y62800D02*
D03*
X53650D02*
D03*
X54030Y73335D02*
D03*
X55430D02*
D03*
D15*
X26800Y89575D02*
D03*
Y88175D02*
D03*
X30925Y89900D02*
D03*
Y91300D02*
D03*
D17*
X23925Y66725D02*
D03*
Y67625D02*
D03*
Y65950D02*
D03*
Y65050D02*
D03*
X53300Y67475D02*
D03*
Y68375D02*
D03*
D18*
X20650Y67875D02*
D03*
X21550D02*
D03*
X33400Y71800D02*
D03*
X32500D02*
D03*
D23*
X25250Y68075D02*
X26525D01*
X25075D02*
X25250D01*
X47125Y65900D02*
X47800D01*
X26125Y66650D02*
X26700D01*
X26950Y66900D01*
X27200Y67400D02*
X27500D01*
X26525Y68075D02*
X27200Y67400D01*
X26950Y66900D02*
X27400D01*
X22700Y66050D02*
X23825D01*
X23925Y65950D01*
X15325Y76125D02*
Y81100D01*
Y76125D02*
X16150Y75300D01*
X46625Y72075D02*
X47225D01*
D24*
X27587Y68387D02*
X27600Y68375D01*
X27550Y68425D02*
X27587Y68387D01*
X27550Y70750D02*
X27800D01*
X28200Y70350D01*
X26700Y68950D02*
X27225Y68425D01*
X28250Y64800D02*
X28450Y65000D01*
X28250Y63450D02*
Y64800D01*
X27950Y63425D02*
Y65000D01*
X27400Y63550D02*
Y65000D01*
X27300Y68000D02*
X27500D01*
X24550Y68500D02*
X26725D01*
X27400Y67825D01*
Y67800D02*
Y67825D01*
X26375Y68950D02*
X26700D01*
X27175D02*
X27350D01*
X26725Y69400D02*
X27175Y68950D01*
X26300Y69400D02*
X26725D01*
X26650Y71900D02*
X27400Y71150D01*
X27900D02*
Y71650D01*
X27575Y71975D02*
X27900Y71650D01*
X28400Y71150D02*
Y72100D01*
X27225Y68425D02*
X27550D01*
X27350Y68950D02*
X27425Y68875D01*
X28500Y65375D02*
X28875Y65750D01*
X28088Y65375D02*
X28500D01*
X27781Y65681D02*
X28088Y65375D01*
X27613Y65850D02*
X27781Y65681D01*
X27275Y65850D02*
X27613D01*
X27920Y66055D02*
X28225Y65750D01*
X27257Y66055D02*
X27920D01*
X26875Y65500D02*
X27475D01*
X26750Y66400D02*
X27400D01*
X27538Y70250D02*
X28138Y69650D01*
X27175Y70250D02*
X27538D01*
X27325Y70500D02*
X27550D01*
X27175Y69400D02*
X27400D01*
X26825Y69750D02*
X27175Y69400D01*
X26225Y69750D02*
X26825D01*
X30095Y71380D02*
Y72400D01*
Y71380D02*
X30300Y71175D01*
X29400Y83450D02*
X31850D01*
X30175Y73150D02*
X30200Y73175D01*
X28950Y71400D02*
X29025Y71475D01*
Y71700D01*
X28950Y70900D02*
Y71400D01*
Y70900D02*
X29575Y70275D01*
X27550Y70500D02*
X28050Y70000D01*
X28550D02*
X28900Y69650D01*
X28300Y70000D02*
X28550D01*
X28050D02*
X28300D01*
X28138Y69650D02*
X28200D01*
D25*
X50390Y73035D02*
X50955Y73600D01*
X50385Y73030D02*
X50390Y73035D01*
X22700Y67900D02*
X23925D01*
X21550D02*
X22700D01*
X23925D02*
X24900D01*
X20650Y67800D02*
X20650D01*
X19100Y67800D02*
X20650Y67800D01*
X24650Y65500D02*
X25225D01*
X46575Y71225D02*
X46650Y71300D01*
X47325D01*
X51525Y62750D02*
X52200D01*
X52250Y62800D01*
X53925Y63775D02*
X54550D01*
X30000Y89575D02*
X30600Y88975D01*
Y86800D02*
Y88975D01*
X30225Y86425D02*
X30600Y86800D01*
X29400Y86425D02*
X30225D01*
X28100Y89450D02*
X30000Y87550D01*
X27650Y89450D02*
X28100D01*
X24600Y67175D02*
X25200D01*
X24900Y67900D02*
X25075Y68075D01*
X26925Y89450D02*
X27650D01*
X30000Y89575D02*
X30325Y89900D01*
X30925D01*
X28900Y85925D02*
X29400Y86425D01*
X30150Y91450D02*
X30775D01*
X30000Y87050D02*
Y87550D01*
X28900Y86975D02*
Y87350D01*
X29100Y87550D01*
X26800Y88175D02*
X27500D01*
X27750Y88425D01*
X23625Y86400D02*
X26800Y89575D01*
X22186Y83850D02*
X22450Y84114D01*
Y84486D01*
X22331Y84606D02*
X22450Y84486D01*
X21686Y83850D02*
X22186D01*
X22331Y84606D02*
X23006D01*
X23625Y85225D01*
Y86400D01*
X19761Y81925D02*
X21686Y83850D01*
X12650Y81925D02*
X19761D01*
X12125Y81400D02*
X12650Y81925D01*
X12125Y77100D02*
Y81400D01*
Y77100D02*
X12650D01*
X12850Y77300D01*
Y80125D01*
X13525Y80800D01*
X51900Y73600D02*
X53275Y72225D01*
X55430Y73335D02*
X55573Y73479D01*
X53275Y63450D02*
Y63775D01*
Y63450D02*
X53650Y63075D01*
Y62800D02*
Y63075D01*
X50955Y73600D02*
X51900D01*
X55250Y73155D02*
X55430Y73335D01*
X55250Y72575D02*
Y73155D01*
D26*
X31475Y64175D02*
Y65000D01*
X28900Y70350D02*
Y70703D01*
Y70275D02*
Y70350D01*
X38005Y67795D02*
Y68130D01*
Y67795D02*
X38250Y67550D01*
X38005Y68130D02*
X38125Y68250D01*
X37775Y67700D02*
X38155Y67320D01*
X37775Y67700D02*
Y68100D01*
X37625Y68250D02*
X37775Y68100D01*
X45890Y67585D02*
X46690D01*
X46875Y67770D01*
X42445Y66195D02*
X42955Y66705D01*
X42030Y66195D02*
X42445D01*
X42725Y66800D02*
Y67150D01*
X42350Y66425D02*
X42725Y66800D01*
X42125Y66425D02*
X42350D01*
X41800Y66750D02*
X42125Y66425D01*
X52625Y68325D02*
X53245D01*
X52625Y67675D02*
X53165D01*
X42955Y66705D02*
Y67245D01*
X41570Y66655D02*
X42030Y66195D01*
X41570Y66655D02*
Y66930D01*
X41800Y66750D02*
Y67025D01*
X41275Y67550D02*
X41800Y67025D01*
X48385Y67140D02*
X48940Y66585D01*
X47215Y67140D02*
X48385D01*
X49035Y66815D02*
X50465D01*
X48480Y67370D02*
X49035Y66815D01*
X47120Y67370D02*
X48480D01*
X48940Y66585D02*
X50465D01*
X45704Y65629D02*
X47215Y67140D01*
X45609Y65859D02*
X47120Y67370D01*
X45985Y67815D02*
X46585D01*
X46770Y68000D02*
X49065D01*
X46585Y67815D02*
X46770Y68000D01*
X46875Y67770D02*
X48950D01*
X43504Y65629D02*
X45704D01*
X43409Y65859D02*
X45609D01*
X49200Y67510D02*
X49365Y67345D01*
X48950Y67770D02*
X49200Y67520D01*
Y67510D02*
Y67520D01*
X49065Y68000D02*
X49490Y67575D01*
X48670Y68820D02*
X49035Y69185D01*
X47080Y68820D02*
X48670D01*
X46575Y69325D02*
X47080Y68820D01*
X48575Y69050D02*
X48940Y69415D01*
X47175Y69050D02*
X48575D01*
X46805Y69420D02*
X47175Y69050D01*
X45470Y68005D02*
X45890Y67585D01*
X45700Y68100D02*
X45985Y67815D01*
X45700Y68100D02*
Y68650D01*
X45470Y68005D02*
Y68555D01*
X45325Y68700D02*
X45470Y68555D01*
X45420Y68930D02*
X45700Y68650D01*
X45100Y68700D02*
X45325D01*
X45005Y68930D02*
X45420D01*
X49365Y67345D02*
X50295D01*
X49490Y67575D02*
X50200D01*
X46805Y69420D02*
Y69945D01*
X46575Y69325D02*
Y69850D01*
X45605Y70095D02*
X46330D01*
X45241Y70459D02*
X45605Y70095D01*
X45700Y70325D02*
X46425D01*
X45471Y70554D02*
X45700Y70325D01*
X50465Y66815D02*
X50675Y67025D01*
X43166Y65383D02*
Y65616D01*
X43409Y65859D01*
X43012Y65229D02*
X43166Y65383D01*
X50465Y66585D02*
X50675Y66375D01*
X43396Y65379D02*
X43550Y65225D01*
X43396Y65521D02*
X43504Y65629D01*
X43396Y65379D02*
Y65521D01*
X46425Y70325D02*
X46805Y69945D01*
X48940Y69415D02*
X50465D01*
X45471Y70946D02*
X45625Y71100D01*
X50465Y69415D02*
X50675Y69625D01*
X45471Y70554D02*
Y70946D01*
X46330Y70095D02*
X46575Y69850D01*
X49035Y69185D02*
X50465D01*
X50675Y68975D01*
X45087Y71104D02*
X45241Y70950D01*
Y70459D02*
Y70950D01*
X23925Y66725D02*
X24000Y66650D01*
X33550Y69225D02*
X33550D01*
X26025Y65675D02*
X26750Y66400D01*
X31500Y70950D02*
Y71750D01*
X31400Y71850D02*
X31500Y71750D01*
X31975Y63525D02*
Y65000D01*
X31800Y63350D02*
X31975Y63525D01*
Y72525D02*
X32150Y72700D01*
X31200Y60975D02*
X32325D01*
X32725Y61375D01*
X26800Y89575D02*
X26925Y89450D01*
X28825Y85350D02*
X28900Y85425D01*
X28750Y70853D02*
Y71700D01*
X30000Y87050D02*
X30075Y86975D01*
X22000Y84300D02*
Y86800D01*
X21500Y84300D02*
Y87800D01*
X28750Y70853D02*
X28900Y70703D01*
X28900Y70275D02*
X28900Y70275D01*
X44925Y68525D02*
X45100Y68700D01*
X44925Y67000D02*
Y68525D01*
X44695Y68620D02*
X45005Y68930D01*
X44695Y67095D02*
Y68620D01*
X44525Y66925D02*
X44695Y67095D01*
X44620Y66695D02*
X44925Y67000D01*
X44050Y66925D02*
X44525D01*
X43955Y66695D02*
X44620D01*
X43825Y67150D02*
X44050Y66925D01*
X43595Y67055D02*
X43955Y66695D01*
X43595Y67055D02*
Y68530D01*
X43825Y67150D02*
Y68625D01*
X43470Y68980D02*
X43825Y68625D01*
X43375Y68750D02*
X43595Y68530D01*
X42400Y68750D02*
X43375D01*
X42305Y68980D02*
X43470D01*
X42200Y68550D02*
X42400Y68750D01*
X41970Y68645D02*
X42305Y68980D01*
X42200Y68000D02*
Y68550D01*
X41970Y67905D02*
Y68645D01*
X42200Y68000D02*
X42955Y67245D01*
X41970Y67905D02*
X42725Y67150D01*
X41180Y67320D02*
X41570Y66930D01*
X38250Y67550D02*
X41275D01*
X50295Y67345D02*
X50395Y67445D01*
X51670D01*
X52110Y67885D01*
X52415D01*
X52625Y67675D01*
X50200Y67575D02*
X50300Y67675D01*
X51575D01*
X52015Y68115D01*
X52375D01*
X52585Y68325D01*
X52625D01*
X38155Y67320D02*
X41180D01*
D28*
X32475Y71050D02*
Y71800D01*
X31513Y64188D02*
X31525Y64175D01*
X31500Y64200D02*
X31513Y64188D01*
X25250Y66650D02*
X26125D01*
X24000D02*
X25250D01*
X30163Y66438D02*
X30200Y66400D01*
X29925Y66675D02*
X30163Y66438D01*
X29550Y66675D02*
X29925D01*
X28850Y67700D02*
X28900D01*
X28625D02*
X28850D01*
X34025Y68975D02*
X34138Y68863D01*
X32800Y69650D02*
X32975Y69825D01*
X32800Y68950D02*
Y69125D01*
Y68400D02*
Y68950D01*
Y67525D02*
Y68400D01*
Y67100D02*
Y67525D01*
Y66625D02*
Y67100D01*
X32950Y66475D02*
X33425Y66000D01*
X32800Y66625D02*
X32950Y66475D01*
X32125Y69700D02*
Y70275D01*
Y68975D02*
Y69700D01*
X32088Y68938D02*
X32125Y68975D01*
X32075Y68925D02*
X32088Y68938D01*
X31513Y68363D02*
X32075Y68925D01*
X31500Y68350D02*
X31513Y68363D01*
X30875Y66700D02*
X31275Y67100D01*
X30850Y66675D02*
X30875Y66700D01*
X30150Y67075D02*
X30175Y67050D01*
X29625Y67600D02*
X30150Y67075D01*
X29550Y68400D02*
X29552Y68400D01*
X28850Y68400D02*
X29550D01*
X29525Y67625D02*
X29550Y67650D01*
X29538Y67613D02*
X29550Y67625D01*
X28975Y67050D02*
X29538Y67613D01*
X28900Y67050D02*
X28925Y67075D01*
X30200Y65050D02*
X30875D01*
X29575D02*
X30200D01*
Y64525D02*
X30575Y64150D01*
X29825D02*
X30200Y64525D01*
X28900Y66450D02*
Y67050D01*
X28825Y66975D02*
X28900Y67050D01*
X29562Y65037D02*
X29575Y65050D01*
X29550Y65025D02*
X29562Y65037D01*
X28850Y66400D02*
X28925D01*
X28300D02*
X28850D01*
X25175Y67075D02*
X25191Y67140D01*
X29975Y65950D02*
X30150Y65775D01*
X31487Y69062D02*
X31525Y69025D01*
X31300Y69250D02*
X31487Y69062D01*
X30887Y69238D02*
X30900Y69250D01*
X30625Y68975D02*
X30887Y69238D01*
X31475Y66475D02*
X32100D01*
X30150Y69025D02*
X30225Y68950D01*
X29925Y69250D02*
X30150Y69025D01*
X28900Y69000D02*
X29150Y69250D01*
X28850Y69000D02*
X28900D01*
X28325D02*
X28850D01*
X25225Y65500D02*
X25250Y65525D01*
X25150Y69250D02*
X25450Y68950D01*
X25150Y69250D02*
Y69575D01*
X47870Y66670D02*
X47900Y66700D01*
X47250Y66670D02*
X47870D01*
X35050Y68025D02*
Y68875D01*
X35200Y68175D02*
X35600D01*
X35050Y68025D02*
X35200Y68175D01*
X34175Y65325D02*
Y65425D01*
X33600Y66000D02*
X34175Y65425D01*
X33550Y66000D02*
X33600D01*
X53650Y62800D02*
X53650Y62800D01*
X25200Y67175D02*
X25575Y67550D01*
X25191Y67140D02*
X25200Y67175D01*
X31200Y69700D02*
X31450D01*
X30900Y70900D02*
X31450Y70350D01*
X31475D01*
X30900Y70000D02*
X31200Y69700D01*
X32125Y68975D02*
X32150Y69000D01*
X32125Y70275D02*
X32150Y70250D01*
X32075Y70325D02*
X32125Y70275D01*
X32975Y69825D02*
Y70325D01*
X32125Y68125D02*
X32400Y68400D01*
X32775D01*
X33425Y66000D02*
X33550D01*
X30875Y65950D02*
X31025D01*
X31475Y66400D01*
Y66450D01*
X31275Y67100D02*
X31475D01*
X32000D02*
X32125Y67225D01*
X31475Y67100D02*
X32000D01*
X30875Y67600D02*
X31025Y67750D01*
X31475D01*
X30725D02*
X30875Y67600D01*
X30175Y67750D02*
X30725D01*
X30875Y68350D02*
X30925Y68400D01*
X31475D01*
X30825D02*
X30875Y68350D01*
X30175Y68400D02*
X30825D01*
X29552Y68400D02*
X30175Y68400D01*
X28250Y68125D02*
X28525Y68400D01*
X29550Y68350D02*
Y68400D01*
Y67650D02*
Y68350D01*
X28525Y68400D02*
X28850D01*
X31500Y70300D02*
X32050D01*
X32800Y69125D02*
X32975Y68950D01*
X25191Y67140D02*
Y67140D01*
X25575Y67550D02*
X26125D01*
X25075Y67175D02*
X25200Y67175D01*
X25250Y67125D01*
X29550Y69250D02*
X29925D01*
X30200Y68975D02*
X30625D01*
X30875Y69250D02*
X30900D01*
X31300D01*
X29550Y67600D02*
X29625D01*
X30200Y67050D02*
X30525D01*
X30800Y66775D01*
X29550Y65950D02*
X29975D01*
X28950Y64225D02*
Y65025D01*
X28925Y64200D02*
X28950Y64225D01*
X33550Y67525D02*
X33650D01*
X34150Y68025D01*
X33550Y68725D02*
X34000D01*
X34138Y68863D02*
X34138D01*
X34150Y68850D01*
X34000Y68725D02*
X34138Y68863D01*
X34150Y68875D01*
X30200Y64525D02*
Y65025D01*
Y65050D01*
X30725Y71075D02*
Y71500D01*
X30475Y71750D02*
X30725Y71500D01*
X29150Y69250D02*
X29550D01*
X28900Y67050D02*
X28975D01*
X28275Y66425D02*
X28300Y66400D01*
X28300Y69025D02*
X28325Y69000D01*
X32475Y64375D02*
Y65000D01*
Y63100D02*
Y63475D01*
X31975Y62600D02*
X32475Y63100D01*
X32075Y68925D02*
Y68950D01*
X31400Y65575D02*
X32100D01*
X30875Y65050D02*
X31400Y65575D01*
X32100D02*
Y65625D01*
X33200Y68725D02*
X33550D01*
X32975Y68950D02*
X33200Y68725D01*
X33075Y70225D02*
X33550D01*
X32975Y70325D02*
X33075Y70225D01*
X32800Y69125D02*
Y69650D01*
X32050Y70300D02*
X32075Y70325D01*
X31975Y71150D02*
Y72525D01*
X33050Y72700D02*
X33400Y72350D01*
Y71800D02*
Y72350D01*
X33200Y71150D02*
Y71600D01*
X33400Y71800D01*
X33550Y66500D02*
X33900D01*
X34175Y66225D01*
X33025Y65500D02*
X33550D01*
X32950Y65575D02*
X33025Y65500D01*
X32100Y65575D02*
X32950D01*
X32800Y67525D02*
X33550D01*
X28900Y85425D02*
Y85925D01*
X29675Y85400D02*
Y85925D01*
Y85400D02*
X29725Y85350D01*
X23250Y65050D02*
X23925D01*
X28300Y67375D02*
X28625Y67700D01*
X30775Y91450D02*
X30925Y91300D01*
X30725Y71075D02*
X30900Y70900D01*
D29*
X25250Y66425D02*
Y66650D01*
X47800Y65900D02*
X47900Y65800D01*
X51150Y68525D02*
X51450Y68825D01*
X51150Y68175D02*
Y68525D01*
X38310Y71835D02*
Y72495D01*
X38100Y71625D02*
X38310Y71835D01*
X37675Y71625D02*
X38100D01*
X37475Y71825D02*
X37675Y71625D01*
X38005Y72800D02*
Y73774D01*
Y72800D02*
X38310Y72495D01*
X38425Y74200D02*
X38900Y74675D01*
X38005Y73774D02*
X38428Y74197D01*
X37475Y71825D02*
Y72319D01*
X37074Y72720D02*
X37475Y72319D01*
X36595Y72720D02*
X37074D01*
X35950Y72075D02*
X36595Y72720D01*
X37050Y70800D02*
X37350Y70500D01*
X37050Y70800D02*
Y72150D01*
X36769Y72300D02*
X36900D01*
X37050Y72150D01*
X36250Y69525D02*
X36475Y69750D01*
Y72006D02*
X36769Y72300D01*
X36475Y69750D02*
Y72006D01*
X35950Y70300D02*
Y72075D01*
X38900Y74675D02*
X48900D01*
X50000Y73575D01*
X38730Y70705D02*
Y72700D01*
X38425Y73600D02*
X39080Y74255D01*
X38425Y73005D02*
X38730Y72700D01*
X38425Y73005D02*
Y73600D01*
X39080Y74255D02*
X48670D01*
X37350Y70500D02*
X38525D01*
X38730Y70705D01*
X39150Y71525D02*
X39500Y71875D01*
Y72075D01*
Y70563D02*
Y70950D01*
X39150Y71300D02*
X39500Y70950D01*
X39150Y71300D02*
Y71525D01*
Y72425D02*
X39500Y72075D01*
X39150Y72425D02*
Y72900D01*
X39400Y73150D01*
X41435Y73835D02*
X48223D01*
X41205Y73605D02*
X41435Y73835D01*
X41205Y72755D02*
Y73605D01*
X39400Y73500D02*
X39700Y73800D01*
X39400Y73150D02*
Y73500D01*
X40475Y72620D02*
X41070D01*
X40200Y72895D02*
X40475Y72620D01*
X41070D02*
X41205Y72755D01*
X37850Y70025D02*
X38275Y69600D01*
X38537D02*
X39500Y70563D01*
X38275Y69600D02*
X38537D01*
X49250Y71856D02*
Y72834D01*
X49243Y72841D02*
X49250Y72834D01*
X48223Y73835D02*
X49230Y72828D01*
X48855Y71250D02*
Y72609D01*
X48024Y73415D02*
X48830Y72609D01*
X41865Y73415D02*
X48024D01*
X49250Y71856D02*
X49815Y71285D01*
X50836D01*
X47850Y72995D02*
X48435Y72410D01*
Y70590D02*
Y72410D01*
X50135Y71590D02*
X51240D01*
X49650Y72075D02*
X50135Y71590D01*
X49650Y72075D02*
Y73275D01*
X50000Y72800D02*
Y73575D01*
Y72800D02*
X50935Y71865D01*
X51685D01*
X51240Y71590D02*
X51905Y70925D01*
X46100Y72575D02*
X47546D01*
X47710Y72411D01*
Y71636D02*
Y72411D01*
Y71636D02*
X47835Y71511D01*
Y70015D02*
Y71511D01*
X48670Y74255D02*
X49650Y73275D01*
X49750Y70550D02*
X51135D01*
X51390Y70295D01*
X52125D01*
X52338Y70082D01*
X49550Y70750D02*
X49750Y70550D01*
X51465Y69460D02*
X52169D01*
X50900Y70025D02*
X51465Y69460D01*
X48875Y70025D02*
X50900D01*
X48705Y69855D02*
X48875Y70025D01*
X41625Y71825D02*
Y73175D01*
X41500Y71700D02*
X41625Y71825D01*
X41100Y71700D02*
X41500D01*
X40600Y72200D02*
X41100Y71700D01*
X40000Y71850D02*
X40350Y72200D01*
X40000Y71125D02*
Y71850D01*
Y71125D02*
X40225Y70900D01*
X40850D01*
X40350Y72200D02*
X40600D01*
Y72200D02*
Y72200D01*
X39806Y70275D02*
X40850D01*
X39305Y69774D02*
X39806Y70275D01*
X39305Y69530D02*
Y69774D01*
X38592Y68817D02*
X39305Y69530D01*
X37932Y68817D02*
X38592D01*
X37775Y68975D02*
X37932Y68817D01*
X37775Y68975D02*
Y69350D01*
X39875Y69200D02*
X40600D01*
X39875Y69750D02*
X41200D01*
X39725Y69350D02*
X39875Y69200D01*
X39725Y69350D02*
Y69600D01*
X39875Y69750D01*
X42725Y72000D02*
X43350D01*
X41200Y69750D02*
X42230Y70780D01*
Y71505D02*
X42725Y72000D01*
X42230Y70780D02*
Y71505D01*
X49355Y70750D02*
X49550D01*
X48855Y71250D02*
X49355Y70750D01*
X48435Y70590D02*
X48750Y70275D01*
X42220Y72995D02*
X47850D01*
X42650Y71025D02*
Y71300D01*
Y71025D02*
X42875Y70800D01*
Y70475D02*
Y70800D01*
X42650Y70250D02*
X42875Y70475D01*
X42650Y69825D02*
Y70250D01*
X45075Y72575D02*
X45525Y72125D01*
X44850Y72575D02*
X45075D01*
X45525Y72125D02*
X45650D01*
X46100Y72575D01*
X47995Y69855D02*
X48705D01*
X47835Y70015D02*
X47995Y69855D01*
X42925Y71575D02*
X44500D01*
X42650Y71300D02*
X42925Y71575D01*
X41825Y69650D02*
X42475D01*
X41500Y69325D02*
X41825Y69650D01*
X41500Y68475D02*
Y69325D01*
X42475Y69650D02*
X42650Y69825D01*
X44500Y71575D02*
X44700Y71775D01*
X48705Y69855D02*
X48725D01*
X39225Y68675D02*
X40650D01*
X40800Y68825D01*
Y69000D01*
X40600Y69200D02*
X40800Y69000D01*
X36525Y65269D02*
Y66225D01*
Y65269D02*
X38219Y63575D01*
X39122Y63822D02*
Y65528D01*
X38875Y63575D02*
X39122Y63822D01*
X38219Y63575D02*
X38875D01*
X39122Y65528D02*
X39524Y65930D01*
X49594Y64800D02*
X51300D01*
X48803Y63400D02*
X49239Y63836D01*
Y64445D02*
X49594Y64800D01*
X49239Y63836D02*
Y64445D01*
X40285Y63665D02*
Y65665D01*
Y63665D02*
X40550Y63400D01*
X48803D01*
X40020Y65930D02*
X40285Y65665D01*
X39524Y65930D02*
X40020D01*
X37570Y65505D02*
X38505D01*
X37405Y65670D02*
X37570Y65505D01*
X37405Y65670D02*
Y66345D01*
X39350Y66350D02*
X40405D01*
X38505Y65505D02*
X39350Y66350D01*
X43545Y64305D02*
X44030Y63820D01*
X42125Y64305D02*
X43545D01*
X41276Y64655D02*
X41775D01*
X40705Y65226D02*
X41276Y64655D01*
X40705Y65226D02*
Y66050D01*
X40405Y66350D02*
X40705Y66050D01*
X36525Y67225D02*
X37405Y66345D01*
X36525Y67225D02*
Y67675D01*
X38225Y65925D02*
X38425Y66125D01*
X37975Y65925D02*
X38225D01*
X37825Y66075D02*
X37975Y65925D01*
X38425Y66125D02*
Y66625D01*
X37825Y66075D02*
Y66775D01*
X38575D02*
X40850D01*
X38425Y66625D02*
X38575Y66775D01*
X41450Y65075D02*
X42125D01*
X37140Y67460D02*
X37825Y66775D01*
X37140Y67460D02*
Y68660D01*
X41125Y65400D02*
X41450Y65075D01*
X41125Y65400D02*
Y66500D01*
X40850Y66775D02*
X41125Y66500D01*
X36070Y69105D02*
X36695D01*
X37140Y68660D01*
X41775Y64655D02*
X42125Y64305D01*
X42475Y64725D02*
X44800D01*
X42125Y65075D02*
X42475Y64725D01*
X44800D02*
X45285Y64240D01*
X44030Y63820D02*
X46945D01*
X49325Y62140D02*
X50410Y63225D01*
X37510Y62140D02*
X49325D01*
X35975Y63675D02*
X37510Y62140D01*
X49151Y62560D02*
X50236Y63645D01*
X38046Y62560D02*
X49151D01*
X36511Y64095D02*
X38046Y62560D01*
X48977Y62980D02*
X50062Y64065D01*
X38220Y62980D02*
X48977D01*
X36105Y65095D02*
X38220Y62980D01*
X46215Y64240D02*
X46900Y64925D01*
X45285Y64240D02*
X46215D01*
X46945Y63820D02*
X47275Y64150D01*
X46675Y65350D02*
X48362D01*
X46125Y64800D02*
X46675Y65350D01*
X46900Y64925D02*
X48531D01*
X48362Y65350D02*
X49187Y66175D01*
X48531Y64925D02*
X49361Y65755D01*
X49187Y66175D02*
X50200D01*
X49361Y65755D02*
X50026D01*
X49535Y65335D02*
X49852D01*
X48350Y64150D02*
X49535Y65335D01*
X47275Y64150D02*
X48350D01*
X50012Y65175D02*
X51263D01*
X51575Y65075D02*
X51975D01*
X51300Y64800D02*
X51575Y65075D01*
X51744Y64650D02*
X52200D01*
X51474Y64380D02*
X51744Y64650D01*
X51125Y64380D02*
X51474D01*
X51035Y64290D02*
X51125Y64380D01*
X51035Y64276D02*
Y64290D01*
X50824Y64065D02*
X51035Y64276D01*
X52289Y64230D02*
X53275Y65216D01*
X51918Y64230D02*
X52289D01*
X51648Y63960D02*
X51918Y64230D01*
X51313Y63960D02*
X51648D01*
X50998Y63645D02*
X51313Y63960D01*
X52378Y63810D02*
X53925Y65357D01*
X52092Y63810D02*
X52378D01*
X51822Y63540D02*
X52092Y63810D01*
X51487Y63540D02*
X51822D01*
X51172Y63225D02*
X51487Y63540D01*
X51263Y65175D02*
X51583Y65495D01*
X51024Y65530D02*
X51409Y65915D01*
X50251Y65530D02*
X51024D01*
X51100Y66200D02*
Y66700D01*
X50850Y65950D02*
X51100Y66200D01*
X50425Y65950D02*
X50850D01*
X50026Y65755D02*
X50251Y65530D01*
X50200Y66175D02*
X50425Y65950D01*
X49852Y65335D02*
X50012Y65175D01*
X45635Y69685D02*
X46910Y68410D01*
X49390D02*
X49850Y67950D01*
X46910Y68410D02*
X49390D01*
X43875Y71100D02*
X45290Y69685D01*
X45635D01*
X33550Y69225D02*
X33642D01*
X34192Y69775D02*
X34675D01*
X33642Y69225D02*
X34192Y69775D01*
X35025Y69425D02*
X35300D01*
X34675Y69775D02*
X35025Y69425D01*
X36525Y67675D02*
X36720Y67870D01*
Y68349D01*
X35300Y69425D02*
X36103Y68622D01*
X36446D01*
X34425Y70750D02*
X36070Y69105D01*
X36446Y68622D02*
X36720Y68349D01*
X36105Y67980D02*
X36300Y68175D01*
X36105Y65095D02*
Y67980D01*
X35049Y64095D02*
X36511D01*
X35355Y67200D02*
X35675Y66880D01*
X34675Y67200D02*
X35355D01*
X34500Y67025D02*
X34675Y67200D01*
X35675Y66625D02*
Y66880D01*
X35525Y66475D02*
X35675Y66625D01*
X33375Y67025D02*
X34500D01*
X34850Y64294D02*
Y66350D01*
X34975Y66475D01*
X35525D01*
X34850Y64294D02*
X35049Y64095D01*
X43575Y71100D02*
X43875D01*
X49850Y67950D02*
X50925D01*
X51150Y68175D01*
X53463Y70713D02*
X53750Y70425D01*
Y70050D02*
Y70425D01*
X52755Y69755D02*
X53275Y70275D01*
X52468Y69755D02*
X52755D01*
X33575Y70750D02*
X34425D01*
X33550Y70725D02*
X33575Y70750D01*
X51680Y70020D02*
X51825Y69875D01*
X53063Y70713D02*
X53463D01*
X52915Y70565D02*
X53063Y70713D01*
X53270Y70280D02*
X53275Y70275D01*
X52343Y69880D02*
Y70087D01*
X52285Y70145D02*
X52343Y70087D01*
X51685Y71865D02*
X52625Y70925D01*
X52343Y69880D02*
X52468Y69755D01*
X41275Y68250D02*
X41500Y68475D01*
X39400Y68250D02*
X41275D01*
X38800D02*
X39225Y68675D01*
X42075Y72675D02*
X42225Y72525D01*
X37600Y69525D02*
X37775Y69350D01*
X40850Y70275D02*
X41025Y70450D01*
Y70725D01*
X40850Y70900D02*
X41025Y70725D01*
X36900Y69525D02*
X37400Y70025D01*
X37850D01*
X42225Y72525D02*
X43350D01*
X43450Y72425D01*
X43350Y72000D02*
X43450Y72100D01*
Y72425D01*
X33550Y65000D02*
X34875Y63675D01*
X35975D01*
X53300Y69600D02*
X53750Y70050D01*
X52200Y64650D02*
X52625Y65075D01*
X50062Y64065D02*
X50824D01*
X50236Y63645D02*
X50998D01*
X50410Y63225D02*
X51172D01*
X52169Y69460D02*
X52294Y69335D01*
X52915D01*
X53300Y68950D01*
X51583Y65495D02*
X52395D01*
X53275Y66375D01*
X51409Y65915D02*
X52165D01*
X52625Y66375D01*
X51100Y66700D02*
X51400Y67000D01*
X53275Y65216D02*
Y65725D01*
X53925Y65357D02*
Y69625D01*
X48750Y70275D02*
X51025D01*
X51280Y70020D01*
X51680D01*
X50836Y71285D02*
X51556Y70565D01*
X52915D01*
X44700Y71775D02*
Y72425D01*
X44850Y72575D01*
X42075Y72850D02*
X42220Y72995D01*
X42075Y72675D02*
Y72850D01*
X41625Y73175D02*
X41865Y73415D01*
X40062Y73800D02*
X40200Y73662D01*
X39700Y73800D02*
X40062D01*
X40200Y72895D02*
Y73662D01*
D31*
X50775Y62000D02*
X51000Y61775D01*
X54550Y62225D02*
Y63775D01*
X51000Y61775D02*
X54100D01*
X54550Y62225D01*
X53275Y72225D02*
X53675D01*
X53275D02*
X54030Y72980D01*
Y73335D01*
X54550Y63775D02*
X55150Y64375D01*
Y70750D01*
X53675Y72225D02*
X55150Y70750D01*
D34*
X29825Y71150D02*
Y72800D01*
X29750Y73850D02*
Y75475D01*
X30200Y73175D02*
Y77025D01*
X29825Y72800D02*
X30175Y73150D01*
X29300Y71725D02*
X29475Y71900D01*
Y73575D01*
X29300Y71150D02*
Y71725D01*
X29475Y73575D02*
X29750Y73850D01*
X28750Y72875D02*
X28900Y73025D01*
X28750Y71700D02*
Y72875D01*
X28400Y73900D02*
Y76800D01*
Y73900D02*
X28900Y73400D01*
Y73025D02*
Y73400D01*
D36*
X44200Y64250D02*
D03*
X24650Y65500D02*
D03*
X38275Y78500D02*
D03*
X47425Y63775D02*
D03*
X46125Y64800D02*
D03*
X47350Y64525D02*
D03*
X46275Y68250D02*
D03*
X50375Y73850D02*
D03*
X57950Y69650D02*
D03*
X50675Y67025D02*
D03*
X43012Y65229D02*
D03*
X50675Y66375D02*
D03*
X43550Y65225D02*
D03*
X50675Y69625D02*
D03*
X45625Y71100D02*
D03*
X50675Y68975D02*
D03*
X43575Y71100D02*
D03*
X51700Y68350D02*
D03*
X51750Y66300D02*
D03*
X51525Y62750D02*
D03*
X44225Y72200D02*
D03*
X44225Y70150D02*
D03*
X44200Y66275D02*
D03*
X46650Y70650D02*
D03*
X47250Y70175D02*
D03*
X47125Y65900D02*
D03*
X50025Y72225D02*
D03*
X53300Y68950D02*
D03*
X36900Y69525D02*
D03*
X37600D02*
D03*
X35950Y70300D02*
D03*
X42775Y68250D02*
D03*
X36250Y69525D02*
D03*
X47325Y69400D02*
D03*
Y71300D02*
D03*
X48075Y72225D02*
D03*
X50000Y68350D02*
D03*
X10000Y83950D02*
D03*
X30175Y68400D02*
D03*
X31475Y69050D02*
D03*
Y70350D02*
D03*
X14925Y87800D02*
D03*
X16550Y91700D02*
D03*
Y92200D02*
D03*
X12650Y92975D02*
D03*
X13275Y92375D02*
D03*
X9050Y87575D02*
D03*
X13675Y76750D02*
D03*
X20750Y84275D02*
D03*
X20675Y81725D02*
D03*
X8375Y78375D02*
D03*
X13675Y77300D02*
D03*
X15325Y81100D02*
D03*
X18625Y84300D02*
D03*
X18275Y85550D02*
D03*
X13025Y88100D02*
D03*
X8425Y80400D02*
D03*
X10425Y80600D02*
D03*
X10325Y77750D02*
D03*
X19125Y82400D02*
D03*
X14125Y80700D02*
D03*
X9525Y82600D02*
D03*
X13525Y80800D02*
D03*
X12125Y77100D02*
D03*
X13525Y88600D02*
D03*
X13375Y91375D02*
D03*
X13975D02*
D03*
X13875Y92125D02*
D03*
X9025Y90250D02*
D03*
X10325D02*
D03*
X10825Y87400D02*
D03*
X10575Y91625D02*
D03*
Y92375D02*
D03*
X13425Y77900D02*
D03*
X13925D02*
D03*
X20175Y85950D02*
D03*
X16050Y83350D02*
D03*
Y84575D02*
D03*
Y85750D02*
D03*
X14300Y83350D02*
D03*
Y84575D02*
D03*
Y85750D02*
D03*
X12600Y83350D02*
D03*
X12575Y84550D02*
D03*
X12600Y85750D02*
D03*
X28400Y76800D02*
D03*
X31850Y83450D02*
D03*
X29050Y83925D02*
D03*
X28675Y91475D02*
D03*
X22000Y86800D02*
D03*
Y84300D02*
D03*
X23250Y65050D02*
D03*
X24600Y67175D02*
D03*
X31975Y71150D02*
D03*
X21175Y73425D02*
D03*
X82750Y4725D02*
D03*
X33550Y70225D02*
D03*
X31450Y69700D02*
D03*
X35250Y72875D02*
D03*
X28850Y67100D02*
D03*
Y69050D02*
D03*
X28200Y65750D02*
D03*
X28950Y65025D02*
D03*
X30150Y70350D02*
D03*
X30175Y69700D02*
D03*
X32475Y65000D02*
D03*
X31975D02*
D03*
X31475D02*
D03*
X33550Y65500D02*
D03*
Y66000D02*
D03*
Y66500D02*
D03*
X31475Y68400D02*
D03*
X33550Y68025D02*
D03*
Y67525D02*
D03*
Y69725D02*
D03*
X32150Y69700D02*
D03*
X33375Y67025D02*
D03*
X28450Y65000D02*
D03*
X27400D02*
D03*
Y66400D02*
D03*
X31500Y70950D02*
D03*
X31475Y67100D02*
D03*
X27400Y66900D02*
D03*
X27950Y65000D02*
D03*
X28850Y65800D02*
D03*
X33550Y69225D02*
D03*
X35200Y63200D02*
D03*
X35600Y65575D02*
D03*
X33550Y65000D02*
D03*
X30200Y65025D02*
D03*
X30175Y65800D02*
D03*
X31475Y66450D02*
D03*
X36075Y75925D02*
D03*
X36625D02*
D03*
X33700Y59275D02*
D03*
X59425Y79400D02*
D03*
X30175Y69050D02*
D03*
Y67750D02*
D03*
Y67100D02*
D03*
X28850Y66450D02*
D03*
X30175D02*
D03*
X28850Y67750D02*
D03*
X27400Y71150D02*
D03*
X28200Y70350D02*
D03*
X31475Y67750D02*
D03*
X28850Y68400D02*
D03*
X31975Y62600D02*
D03*
X25150Y69575D02*
D03*
X25575Y72675D02*
D03*
X25675Y63300D02*
D03*
X28000Y62375D02*
D03*
X33550Y68725D02*
D03*
X35600Y68175D02*
D03*
X29500Y70350D02*
D03*
X28850D02*
D03*
X27350Y69900D02*
D03*
X27900Y71150D02*
D03*
X33500Y60525D02*
D03*
X27475Y65500D02*
D03*
X29800Y71150D02*
D03*
X28400D02*
D03*
X30300D02*
D03*
X27500Y67400D02*
D03*
X27400Y67900D02*
D03*
X27350Y69400D02*
D03*
X27600Y68400D02*
D03*
X27400Y68900D02*
D03*
X28200Y69650D02*
D03*
X29300Y71150D02*
D03*
X34200Y59250D02*
D03*
X32975Y65000D02*
D03*
X31200Y60975D02*
D03*
X32725Y61375D02*
D03*
X32775Y67100D02*
D03*
X33200Y71150D02*
D03*
X33550Y70725D02*
D03*
X32775Y69675D02*
D03*
Y68400D02*
D03*
X33125Y81100D02*
D03*
X27650Y89450D02*
D03*
X30075Y88475D02*
D03*
X27750Y88425D02*
D03*
X30150Y91450D02*
D03*
X29675Y85925D02*
D03*
X28900D02*
D03*
X36500Y85650D02*
D03*
X30075Y86975D02*
D03*
X28900D02*
D03*
X21500Y84300D02*
D03*
X21500Y87800D02*
D03*
X30000Y89575D02*
D03*
X29400Y83450D02*
D03*
X28525Y73250D02*
D03*
X29750Y75475D02*
D03*
X30200Y77025D02*
D03*
X27900Y74375D02*
D03*
X28875Y74000D02*
D03*
X16600Y77350D02*
D03*
Y76800D02*
D03*
X16150Y75300D02*
D03*
X18350Y75925D02*
D03*
X18125Y83325D02*
D03*
X19100Y67800D02*
D03*
X28850Y69650D02*
D03*
X37000Y82950D02*
D03*
X7425Y85475D02*
D03*
X6900Y86650D02*
D03*
X7025Y89250D02*
D03*
X7125Y91550D02*
D03*
X8675Y93175D02*
D03*
X11125Y94575D02*
D03*
X15200Y94600D02*
D03*
X20375D02*
D03*
X25075D02*
D03*
X29175Y94575D02*
D03*
X33050D02*
D03*
X35650D02*
D03*
X37000Y93125D02*
D03*
X39125Y90950D02*
D03*
X40900Y89175D02*
D03*
X32475Y71050D02*
D03*
X17300Y79200D02*
D03*
X15875Y71625D02*
D03*
X20975Y66675D02*
D03*
X16100Y73150D02*
D03*
X13550Y75950D02*
D03*
X9300Y80600D02*
D03*
X49800Y58000D02*
D03*
X51125Y73000D02*
D03*
X50375Y73050D02*
D03*
X51925Y70925D02*
D03*
X51325Y72225D02*
D03*
X48075Y63775D02*
D03*
X53275Y65725D02*
D03*
X53925Y70925D02*
D03*
X53275Y71575D02*
D03*
X52625Y72225D02*
D03*
X54350Y70250D02*
D03*
X53275Y72225D02*
D03*
X53925Y63775D02*
D03*
X53275Y63775D02*
D03*
X54300Y66375D02*
D03*
X52625Y66375D02*
D03*
X53275D02*
D03*
X52625Y70925D02*
D03*
X53275Y70275D02*
D03*
X50675Y64425D02*
D03*
X50025D02*
D03*
X47250Y66670D02*
D03*
X50025Y70925D02*
D03*
X51400Y67000D02*
D03*
X52625Y65075D02*
D03*
X51975D02*
D03*
X52625Y67025D02*
D03*
X50675Y68325D02*
D03*
X51825Y69875D02*
D03*
X51450Y68825D02*
D03*
X50675Y70925D02*
D03*
X54300Y67425D02*
D03*
Y68000D02*
D03*
X50775Y62000D02*
D03*
X57900Y66625D02*
D03*
X51950Y60600D02*
D03*
X55250Y72575D02*
D03*
X39400Y68250D02*
D03*
X38800D02*
D03*
X36525Y66225D02*
D03*
X36300Y68175D02*
D03*
X37625Y68250D02*
D03*
X52625Y67675D02*
D03*
X38125Y68250D02*
D03*
X52625Y68325D02*
D03*
X53300Y69600D02*
D03*
X45087Y71104D02*
D03*
X50025Y62100D02*
D03*
X53925Y69625D02*
D03*
X54300Y65075D02*
D03*
Y65600D02*
D03*
X47225Y72075D02*
D03*
D37*
X22800Y89350D02*
D03*
X64400Y1425D02*
D03*
X3650Y26550D02*
D03*
X21075Y2425D02*
D03*
X21250Y104175D02*
D03*
X26800Y115375D02*
D03*
X9650Y110500D02*
D03*
X3875Y115700D02*
D03*
X56575Y26425D02*
D03*
X82625Y27975D02*
D03*
X44125Y4175D02*
D03*
X3100Y5150D02*
D03*
X49150Y82200D02*
D03*
X44800Y82050D02*
D03*
X54750Y82075D02*
D03*
X24750Y96475D02*
D03*
X78850Y76925D02*
D03*
X77800Y94450D02*
D03*
X77925Y86425D02*
D03*
X65000Y78725D02*
D03*
X63500Y81900D02*
D03*
X64950Y86775D02*
D03*
X58950Y82000D02*
D03*
X64150Y94525D02*
D03*
X40400Y94900D02*
D03*
X7775Y104275D02*
D03*
X19925Y89075D02*
D03*
X31650Y96425D02*
D03*
X18500Y96475D02*
D03*
X13350Y96500D02*
D03*
X6900Y96000D02*
D03*
X3425Y92950D02*
D03*
X4300Y85825D02*
D03*
X4400Y73375D02*
D03*
X8550Y73150D02*
D03*
X12325Y72975D02*
D03*
X17700Y72600D02*
D03*
X14925Y68325D02*
D03*
X15475Y63925D02*
D03*
X16600Y59050D02*
D03*
X26100D02*
D03*
X31475D02*
D03*
X40600Y103600D02*
D03*
X40675Y111425D02*
D03*
X51150Y111950D02*
D03*
X64125Y112025D02*
D03*
X76950Y112250D02*
D03*
X51225Y103675D02*
D03*
X64200Y103525D02*
D03*
X77175Y103450D02*
D03*
X51075Y94650D02*
D03*
X77175Y66025D02*
D03*
X77400Y54650D02*
D03*
X77475Y46825D02*
D03*
X64500Y46225D02*
D03*
X51075Y46375D02*
D03*
X40450Y46150D02*
D03*
X15375Y44500D02*
D03*
X26075Y44300D02*
D03*
X4575Y43700D02*
D03*
X5675Y52800D02*
D03*
X6175Y61075D02*
D03*
X6475Y67750D02*
D03*
X64400Y57275D02*
D03*
X64625Y67225D02*
D03*
X25050Y82925D02*
D03*
Y78200D02*
D03*
X1550Y96950D02*
D03*
X15350Y52750D02*
D03*
X26200Y52650D02*
D03*
X15850Y26325D02*
D03*
X25975D02*
D03*
X40275Y26275D02*
D03*
X70050Y26425D02*
D03*
D38*
X22700Y66050D02*
D03*
Y67650D02*
D03*
M02*
