G04 Layer_Color=16711935*
%FSLAX43Y43*%
%MOMM*%
G71*
G01*
G75*
%ADD40R,0.660X0.610*%
%ADD42R,0.610X0.660*%
%ADD43R,0.740X0.990*%
%ADD45R,0.990X0.740*%
%ADD47R,0.800X0.610*%
%ADD48R,0.610X0.800*%
%ADD52C,0.500*%
%ADD53R,1.050X0.900*%
D40*
X25250Y66425D02*
D03*
Y65525D02*
D03*
X26125Y67550D02*
D03*
Y66650D02*
D03*
X32100Y66475D02*
D03*
Y65575D02*
D03*
X29550Y69250D02*
D03*
Y68350D02*
D03*
X28250Y69025D02*
D03*
Y68125D02*
D03*
X30875Y65950D02*
D03*
Y65050D02*
D03*
X28250Y67375D02*
D03*
Y66475D02*
D03*
X34175Y65325D02*
D03*
Y66225D02*
D03*
X29550Y66700D02*
D03*
Y67600D02*
D03*
X30875Y69250D02*
D03*
Y68350D02*
D03*
X30900Y70000D02*
D03*
Y70900D02*
D03*
X32125Y68125D02*
D03*
Y67225D02*
D03*
X30875Y67600D02*
D03*
Y66700D02*
D03*
X29550Y65950D02*
D03*
Y65050D02*
D03*
X32950Y66475D02*
D03*
Y65575D02*
D03*
X25250Y68025D02*
D03*
Y67125D02*
D03*
X32475Y64375D02*
D03*
Y63475D02*
D03*
X47900Y66700D02*
D03*
Y65800D02*
D03*
X46575Y71225D02*
D03*
Y72125D02*
D03*
D42*
X32075Y68950D02*
D03*
X32975D02*
D03*
X30000Y87550D02*
D03*
X29100D02*
D03*
X28825Y85350D02*
D03*
X29725D02*
D03*
X28900Y64175D02*
D03*
X29800D02*
D03*
X32975Y70325D02*
D03*
X32075D02*
D03*
X34150Y68025D02*
D03*
X35050D02*
D03*
X34150Y68875D02*
D03*
X35050D02*
D03*
X26350Y68950D02*
D03*
X25450D02*
D03*
X31500Y64175D02*
D03*
X30600D02*
D03*
X32150Y72700D02*
D03*
X33050D02*
D03*
X31400Y71850D02*
D03*
X30500D02*
D03*
D43*
X52250Y62800D02*
D03*
X53650D02*
D03*
X54030Y73335D02*
D03*
X55430D02*
D03*
D45*
X26800Y89575D02*
D03*
Y88175D02*
D03*
X30925Y89900D02*
D03*
Y91300D02*
D03*
D47*
X23925Y66725D02*
D03*
Y67625D02*
D03*
Y65950D02*
D03*
Y65050D02*
D03*
X53300Y67475D02*
D03*
Y68375D02*
D03*
D48*
X20650Y67875D02*
D03*
X21550D02*
D03*
X33400Y71800D02*
D03*
X32500D02*
D03*
D52*
X38275Y78500D02*
D03*
X47425Y63775D02*
D03*
X50375Y73850D02*
D03*
D53*
X22700Y66050D02*
D03*
Y67650D02*
D03*
M02*
