G04 Layer_Physical_Order=3*
G04 Layer_Color=16440176*
%FSLAX43Y43*%
%MOMM*%
G71*
G01*
G75*
%ADD23C,0.200*%
%ADD24C,0.090*%
%ADD25C,0.300*%
%ADD26C,0.100*%
%ADD28C,0.175*%
%ADD36C,0.400*%
%ADD37C,0.600*%
G36*
X85575Y425D02*
X408D01*
Y119592D01*
X85575D01*
Y425D01*
D02*
G37*
%LPC*%
G36*
X30700Y96141D02*
X12325D01*
X12252Y96127D01*
X12190Y96085D01*
X11740Y95635D01*
X11698Y95573D01*
X11684Y95500D01*
Y89250D01*
X11698Y89177D01*
X11740Y89115D01*
X12452Y88402D01*
X12372Y88208D01*
X9350Y88208D01*
X9350Y88208D01*
X9273Y88177D01*
X9273Y88177D01*
X9248Y88152D01*
X9248Y88152D01*
X9233Y88113D01*
X9233Y88113D01*
X9217Y88076D01*
X9217Y88076D01*
X9217Y88058D01*
X9050Y87881D01*
X8933Y87858D01*
X8834Y87791D01*
X8767Y87692D01*
X8744Y87575D01*
X8767Y87458D01*
X8795Y87416D01*
Y84150D01*
X8815Y84052D01*
X8870Y83970D01*
X9805Y83035D01*
X9668Y82875D01*
X9663Y82876D01*
X9642Y82883D01*
X9622Y82887D01*
X9525Y82906D01*
X9408Y82883D01*
X9309Y82816D01*
X9242Y82717D01*
X9233Y82668D01*
X7370Y80805D01*
X7315Y80723D01*
X7295Y80625D01*
Y79889D01*
X7315Y79791D01*
X7370Y79708D01*
X8595Y78483D01*
Y77800D01*
X8615Y77702D01*
X8670Y77620D01*
X18670Y67620D01*
X18752Y67565D01*
X18850Y67545D01*
X18941D01*
X18983Y67517D01*
X19100Y67494D01*
X19217Y67517D01*
X19316Y67584D01*
X19383Y67683D01*
X19406Y67800D01*
X19383Y67917D01*
X19316Y68016D01*
X19217Y68083D01*
X19100Y68106D01*
X18983Y68083D01*
X18950Y68061D01*
X9105Y77906D01*
Y78589D01*
X9085Y78686D01*
X9030Y78769D01*
X7805Y79994D01*
Y80519D01*
X9593Y82308D01*
X9642Y82317D01*
X9741Y82384D01*
X9808Y82483D01*
X9831Y82600D01*
X9829Y82608D01*
X9996Y82735D01*
X10017Y82740D01*
X10045Y82724D01*
Y82056D01*
X9795Y81805D01*
X9740Y81723D01*
X9720Y81625D01*
Y80400D01*
X9740Y80302D01*
X9795Y80220D01*
X12695Y77319D01*
Y76550D01*
X12715Y76452D01*
X12770Y76370D01*
X13258Y75882D01*
X13267Y75833D01*
X13334Y75734D01*
X13433Y75667D01*
X13550Y75644D01*
X13667Y75667D01*
X13766Y75734D01*
X13833Y75833D01*
X13856Y75950D01*
X13833Y76067D01*
X13766Y76166D01*
X13667Y76233D01*
X13618Y76242D01*
X13205Y76656D01*
Y77425D01*
X13185Y77523D01*
X13130Y77605D01*
X10663Y80073D01*
X10743Y80267D01*
X17057Y80267D01*
X17137Y80073D01*
X15420Y78355D01*
X15365Y78273D01*
X15345Y78175D01*
Y72550D01*
X15365Y72452D01*
X15420Y72370D01*
X20270Y67519D01*
Y65925D01*
X20289Y65827D01*
X20345Y65745D01*
X24545Y61545D01*
X24627Y61490D01*
X24725Y61470D01*
X29525D01*
X29623Y61490D01*
X29705Y61545D01*
X31941Y63781D01*
X32135Y63700D01*
Y62738D01*
X32147Y62709D01*
X32153Y62678D01*
X32156Y62675D01*
X32171Y62600D01*
X32156Y62525D01*
X32153Y62522D01*
X32147Y62491D01*
X32135Y62462D01*
X32135Y59000D01*
X32167Y58923D01*
X32243Y58892D01*
X33405D01*
X33421Y58898D01*
X33439Y58897D01*
X33458Y58914D01*
X33482Y58923D01*
X33489Y58940D01*
X33497Y58947D01*
X33502Y58951D01*
X33502Y58951D01*
X33553Y59051D01*
X33554Y59066D01*
X33562Y59079D01*
X33557Y59106D01*
X33559Y59134D01*
X33559Y59134D01*
X33549Y59145D01*
X33546Y59160D01*
X33519Y59200D01*
X33504Y59275D01*
X33519Y59350D01*
X33562Y59413D01*
X33625Y59456D01*
X33700Y59471D01*
X33775Y59456D01*
X33838Y59413D01*
X33881Y59350D01*
X33896Y59275D01*
X33881Y59200D01*
X33854Y59160D01*
X33851Y59145D01*
X33841Y59134D01*
X33841Y59134D01*
X33843Y59106D01*
X33838Y59079D01*
X33846Y59066D01*
X33847Y59051D01*
X33898Y58951D01*
X33898Y58951D01*
X33903Y58947D01*
X33911Y58940D01*
X33918Y58923D01*
X33942Y58914D01*
X33961Y58897D01*
X33979Y58898D01*
X33995Y58892D01*
X55750D01*
X55827Y58923D01*
X55858Y59000D01*
Y75850D01*
X55827Y75927D01*
X55750Y75958D01*
X39716D01*
Y81550D01*
X39702Y81623D01*
X39660Y81685D01*
X37079Y84267D01*
Y89762D01*
X37064Y89836D01*
X37023Y89898D01*
X30835Y96085D01*
X30773Y96127D01*
X30700Y96141D01*
D02*
G37*
G36*
X8425Y80706D02*
X8308Y80683D01*
X8209Y80616D01*
X8142Y80517D01*
X8119Y80400D01*
X8142Y80283D01*
X8209Y80184D01*
X8308Y80117D01*
X8357Y80108D01*
X9607Y78857D01*
X11545Y76920D01*
X11627Y76865D01*
X11725Y76845D01*
X11966D01*
X12008Y76817D01*
X12125Y76794D01*
X12242Y76817D01*
X12341Y76884D01*
X12408Y76983D01*
X12431Y77100D01*
X12408Y77217D01*
X12341Y77316D01*
X12242Y77383D01*
X12125Y77406D01*
X12008Y77383D01*
X11966Y77355D01*
X11831D01*
X9968Y79218D01*
X8717Y80468D01*
X8708Y80517D01*
X8641Y80616D01*
X8542Y80683D01*
X8425Y80706D01*
D02*
G37*
G36*
X31200Y61281D02*
X31083Y61258D01*
X30984Y61191D01*
X30917Y61092D01*
X30894Y60975D01*
X30917Y60858D01*
X30984Y60759D01*
X31083Y60692D01*
X31200Y60669D01*
X31317Y60692D01*
X31416Y60759D01*
X31483Y60858D01*
X31506Y60975D01*
X31483Y61092D01*
X31416Y61191D01*
X31317Y61258D01*
X31200Y61281D01*
D02*
G37*
%LPD*%
G36*
X29375Y89400D02*
X29929Y88846D01*
X29909Y88725D01*
X29859Y88691D01*
X29792Y88592D01*
X29769Y88475D01*
X29792Y88358D01*
X29859Y88259D01*
X29958Y88192D01*
X30075Y88169D01*
X30192Y88192D01*
X30291Y88259D01*
X30324Y88308D01*
X30446Y88328D01*
X31750Y87024D01*
X31750Y83736D01*
X31733Y83733D01*
X31634Y83666D01*
X31567Y83567D01*
X31544Y83450D01*
X31567Y83333D01*
X31634Y83234D01*
X31733Y83167D01*
X31750Y83164D01*
X31750Y71353D01*
X31709Y71292D01*
X31656Y71257D01*
X31585Y71239D01*
X31500Y71256D01*
X31383Y71233D01*
X31284Y71166D01*
X31217Y71067D01*
X31194Y70950D01*
X31217Y70833D01*
X31284Y70734D01*
X31309Y70717D01*
X31306Y70598D01*
X31259Y70566D01*
X31192Y70467D01*
X31169Y70350D01*
X31192Y70233D01*
X31259Y70134D01*
X31332Y70084D01*
X31333Y70015D01*
X31329Y69986D01*
X31326Y69978D01*
X31234Y69916D01*
X31167Y69817D01*
X31144Y69700D01*
X31167Y69583D01*
X31234Y69484D01*
X31333Y69417D01*
X31384Y69407D01*
X31709Y69082D01*
Y68725D01*
X31609Y68671D01*
X31592Y68683D01*
X31475Y68706D01*
X31358Y68683D01*
X31259Y68616D01*
X31192Y68517D01*
X31169Y68400D01*
X31192Y68283D01*
X31259Y68184D01*
X31358Y68117D01*
X31475Y68094D01*
X31592Y68117D01*
X31609Y68129D01*
X31709Y68075D01*
Y67425D01*
X31609Y67371D01*
X31592Y67383D01*
X31475Y67406D01*
X31358Y67383D01*
X31259Y67316D01*
X31192Y67217D01*
X31169Y67100D01*
X31192Y66983D01*
X31259Y66884D01*
X31358Y66817D01*
X31475Y66794D01*
X31592Y66817D01*
X31609Y66829D01*
X31709Y66775D01*
Y66329D01*
X31546Y66166D01*
X30718D01*
X30647Y66237D01*
X30647Y66823D01*
X30647Y66824D01*
X30647Y66826D01*
X30631Y66862D01*
X30616Y66899D01*
X30614Y66900D01*
X30613Y66901D01*
X30541Y66970D01*
X30537Y66971D01*
X30535Y66975D01*
X30499Y66986D01*
X30463Y66999D01*
X30461Y67001D01*
X30481Y67100D01*
X30458Y67217D01*
X30391Y67316D01*
X30292Y67383D01*
X30175Y67406D01*
X30167Y67404D01*
X30075Y67397D01*
X30061Y67431D01*
X30050Y67466D01*
X30045Y67469D01*
X30043Y67474D01*
X29565Y67952D01*
X29540Y67962D01*
X29518Y67979D01*
X29357Y68024D01*
X29153Y68209D01*
X29138Y68309D01*
X29156Y68400D01*
X29133Y68517D01*
X29066Y68616D01*
X28967Y68683D01*
X28850Y68706D01*
X28733Y68683D01*
X28634Y68616D01*
X28567Y68517D01*
X28544Y68400D01*
X28553Y68353D01*
X28467Y68274D01*
X27959Y68416D01*
X27956Y68416D01*
X27955Y68417D01*
X27916Y68411D01*
X27904Y68409D01*
X27883Y68517D01*
X27816Y68616D01*
X27730Y68674D01*
X27705Y68709D01*
X27677Y68775D01*
X27683Y68783D01*
X27706Y68900D01*
X27683Y69017D01*
X27616Y69116D01*
X27606Y69243D01*
X27633Y69283D01*
X27656Y69400D01*
X27633Y69517D01*
X27591Y69580D01*
X27574Y69650D01*
X27591Y69720D01*
X27633Y69783D01*
X27656Y69900D01*
X27633Y70017D01*
X27566Y70116D01*
X27467Y70183D01*
X27350Y70206D01*
X27233Y70183D01*
X27134Y70116D01*
X27067Y70017D01*
X27044Y69900D01*
X27067Y69783D01*
X27109Y69720D01*
X27126Y69650D01*
X27109Y69580D01*
X27067Y69517D01*
X27044Y69400D01*
X27067Y69283D01*
X27134Y69184D01*
X27144Y69057D01*
X27117Y69017D01*
X27094Y68900D01*
X27117Y68783D01*
X27140Y68749D01*
X27077Y68663D01*
X26225Y68901D01*
Y84050D01*
X20800Y89475D01*
X19964D01*
X19925Y89483D01*
X19886Y89475D01*
X16125Y89475D01*
X16125Y92365D01*
X16206Y92445D01*
X26330D01*
X29375Y89400D01*
D02*
G37*
G36*
X39334Y81471D02*
Y75958D01*
X36916D01*
X36887Y75946D01*
X36856Y75940D01*
X36850Y75931D01*
X36839Y75927D01*
X36827Y75897D01*
X36810Y75871D01*
X36806Y75850D01*
X36763Y75787D01*
X36700Y75744D01*
X36625Y75729D01*
X36550Y75744D01*
X36487Y75787D01*
X36444Y75850D01*
X36429Y75925D01*
X36444Y76000D01*
X36487Y76063D01*
X36510Y76079D01*
X36516Y76088D01*
X36527Y76092D01*
X36539Y76121D01*
X36556Y76148D01*
X36554Y76159D01*
X36558Y76169D01*
X36558Y83965D01*
X36701Y84029D01*
X36768Y84036D01*
X39334Y81471D01*
D02*
G37*
G36*
X17983Y85482D02*
X17992Y85433D01*
X18059Y85334D01*
X18158Y85267D01*
X18207Y85258D01*
X18655Y84810D01*
X18645Y84745D01*
X18572Y84595D01*
X18508Y84583D01*
X18409Y84516D01*
X18342Y84417D01*
X18319Y84300D01*
X18342Y84183D01*
X18409Y84084D01*
X18508Y84017D01*
X18557Y84008D01*
X19012Y83552D01*
X18932Y83358D01*
X18424D01*
X18408Y83442D01*
X18341Y83541D01*
X18242Y83608D01*
X18125Y83631D01*
X18008Y83608D01*
X17909Y83541D01*
X17842Y83442D01*
X17826Y83358D01*
X17358D01*
X17358Y85832D01*
X17552Y85912D01*
X17983Y85482D01*
D02*
G37*
G36*
X19970Y81913D02*
Y81531D01*
X16420Y77980D01*
X16365Y77898D01*
X16345Y77800D01*
Y77733D01*
X15855D01*
Y78069D01*
X19755Y81970D01*
X19760Y81977D01*
X19970Y81913D01*
D02*
G37*
G36*
X36450Y89675D02*
X36450Y85946D01*
X36383Y85933D01*
X36284Y85866D01*
X36217Y85767D01*
X36194Y85650D01*
X36217Y85533D01*
X36284Y85434D01*
X36383Y85367D01*
X36450Y85354D01*
X36450Y76169D01*
X36409Y76141D01*
X36342Y76042D01*
X36319Y75925D01*
X36342Y75808D01*
X36409Y75709D01*
X36508Y75642D01*
X36625Y75619D01*
X36742Y75642D01*
X36841Y75709D01*
X36908Y75808D01*
X36916Y75850D01*
X55750D01*
Y59000D01*
X33995D01*
X33944Y59100D01*
X33983Y59158D01*
X34006Y59275D01*
X33983Y59392D01*
X33916Y59491D01*
X33817Y59558D01*
X33700Y59581D01*
X33583Y59558D01*
X33484Y59491D01*
X33417Y59392D01*
X33394Y59275D01*
X33417Y59158D01*
X33456Y59100D01*
X33405Y59000D01*
X32243D01*
X32243Y62462D01*
X32258Y62483D01*
X32281Y62600D01*
X32258Y62717D01*
X32243Y62738D01*
Y64083D01*
X32655Y64495D01*
X32710Y64577D01*
X32730Y64675D01*
Y64683D01*
X32830Y64736D01*
X32858Y64717D01*
X32975Y64694D01*
X33092Y64717D01*
X33191Y64784D01*
X33202Y64800D01*
X33323D01*
X33334Y64784D01*
X33433Y64717D01*
X33550Y64694D01*
X33667Y64717D01*
X33766Y64784D01*
X33833Y64883D01*
X33856Y65000D01*
X33833Y65117D01*
X33791Y65180D01*
X33774Y65250D01*
X33791Y65320D01*
X33833Y65383D01*
X33856Y65500D01*
X33833Y65617D01*
X33766Y65716D01*
X33667Y65783D01*
X33550Y65806D01*
X33433Y65783D01*
X33334Y65716D01*
X33267Y65617D01*
X33244Y65500D01*
X33267Y65383D01*
X33309Y65320D01*
X33314Y65300D01*
X33285Y65256D01*
X33265Y65247D01*
X33161Y65236D01*
X33092Y65283D01*
X32975Y65306D01*
X32858Y65283D01*
X32795Y65241D01*
X32725Y65224D01*
X32655Y65241D01*
X32592Y65283D01*
X32475Y65306D01*
X32358Y65283D01*
X32343Y65273D01*
X32243Y65326D01*
Y65798D01*
X32360Y65915D01*
X32402Y65977D01*
X32416Y66050D01*
Y69000D01*
X32402Y69073D01*
X32382Y69103D01*
Y69137D01*
X32336Y69248D01*
X32268Y69316D01*
X32268Y69357D01*
X32279Y69426D01*
X32366Y69484D01*
X32433Y69583D01*
X32456Y69700D01*
X32433Y69817D01*
X32366Y69916D01*
X32267Y69983D01*
X32243Y69987D01*
X32243Y70724D01*
X32343Y70777D01*
X32358Y70767D01*
X32475Y70744D01*
X32592Y70767D01*
X32691Y70834D01*
X32758Y70933D01*
X32781Y71050D01*
X32758Y71167D01*
X32691Y71266D01*
X32592Y71333D01*
X32475Y71356D01*
X32358Y71333D01*
X32343Y71323D01*
X32243Y71376D01*
Y71376D01*
X32199D01*
X32177Y71402D01*
X32150Y82075D01*
X32192Y87808D01*
X30231Y89769D01*
X30216Y89791D01*
X30194Y89806D01*
X28857Y91143D01*
X28867Y91242D01*
X28891Y91259D01*
X28958Y91358D01*
X28981Y91475D01*
X28958Y91592D01*
X28891Y91691D01*
X28792Y91758D01*
X28675Y91781D01*
X28558Y91758D01*
X28459Y91691D01*
X28442Y91667D01*
X28343Y91657D01*
X27200Y92800D01*
X26886D01*
X26805Y92880D01*
X26723Y92935D01*
X26625Y92955D01*
X16100D01*
X16002Y92935D01*
X15920Y92880D01*
X15840Y92800D01*
X14125Y92800D01*
X13682Y92357D01*
X13659Y92341D01*
X13643Y92318D01*
X13300Y91975D01*
X12275D01*
Y95575D01*
X30550D01*
X36450Y89675D01*
D02*
G37*
G36*
X16150Y74994D02*
X16165Y74997D01*
X16396Y74766D01*
Y72500D01*
X16412Y72422D01*
X16456Y72356D01*
X21196Y67616D01*
Y65975D01*
X21212Y65897D01*
X21214Y65894D01*
X21051Y65760D01*
X20780Y66031D01*
Y67625D01*
X20760Y67723D01*
X20705Y67805D01*
X15855Y72656D01*
Y74884D01*
X15966Y74967D01*
X16065Y75011D01*
X16150Y74994D01*
D02*
G37*
G36*
X23148Y65547D02*
X23145Y65503D01*
X23069Y65290D01*
X23034Y65266D01*
X22967Y65167D01*
X22944Y65050D01*
X22952Y65008D01*
X22759Y64904D01*
X21604Y66059D01*
Y67424D01*
X21814Y67489D01*
X23148Y65547D01*
D02*
G37*
G36*
X31278Y65229D02*
X31259Y65216D01*
X31192Y65117D01*
X31169Y65000D01*
X31192Y64883D01*
X31259Y64784D01*
X31358Y64717D01*
X31475Y64694D01*
X31592Y64717D01*
X31668Y64747D01*
X31847Y64665D01*
X31895Y64456D01*
X29419Y61980D01*
X24831D01*
X23135Y63676D01*
X23269Y63839D01*
X23272Y63837D01*
X23350Y63821D01*
X24369D01*
X24373Y63819D01*
X24383Y63821D01*
X24393Y63817D01*
X30539Y63817D01*
X30616Y63848D01*
X30647Y63925D01*
X30647Y64812D01*
X30637Y64837D01*
X30635Y64864D01*
X30635Y64864D01*
X30622Y64874D01*
X30616Y64889D01*
X30591Y64899D01*
X30571Y64916D01*
Y65134D01*
X30591Y65151D01*
X30616Y65161D01*
X30622Y65176D01*
X30635Y65186D01*
X30637Y65213D01*
X30647Y65237D01*
Y65281D01*
X30660Y65290D01*
X30809Y65439D01*
X31214D01*
X31278Y65229D01*
D02*
G37*
G36*
X21129Y88021D02*
X21209Y87874D01*
X21194Y87800D01*
X21217Y87683D01*
X21284Y87584D01*
X21383Y87517D01*
X21500Y87494D01*
X21617Y87517D01*
X21716Y87584D01*
X21739Y87618D01*
X21943Y87667D01*
X21993Y87662D01*
X25809Y83846D01*
Y72125D01*
X25823Y72052D01*
X25865Y71990D01*
X26117Y71738D01*
Y69105D01*
X25949Y68979D01*
X23991Y69527D01*
X21217Y72940D01*
X21282Y73116D01*
X21312Y73156D01*
X21391Y73209D01*
X21458Y73308D01*
X21481Y73425D01*
X21458Y73542D01*
X21391Y73641D01*
X21292Y73708D01*
X21175Y73731D01*
X21058Y73708D01*
X20959Y73641D01*
X20940Y73613D01*
X20730Y73579D01*
X20690Y73588D01*
X17354Y77693D01*
X17349Y77696D01*
X17346Y77702D01*
X17313Y77715D01*
X17281Y77733D01*
X17275Y77731D01*
X17270Y77733D01*
X17168D01*
X17088Y77927D01*
X20405Y81245D01*
X20461Y81327D01*
X20480Y81425D01*
Y83600D01*
X20461Y83698D01*
X20405Y83780D01*
X18567Y85618D01*
X18558Y85667D01*
X18491Y85766D01*
X18392Y85833D01*
X18343Y85842D01*
X17080Y87105D01*
X16998Y87160D01*
X16900Y87180D01*
X15102D01*
X14989Y87319D01*
X15052Y87524D01*
X15141Y87584D01*
X15208Y87683D01*
X15231Y87800D01*
X15225Y87830D01*
X15479Y88084D01*
X21076D01*
X21129Y88021D01*
D02*
G37*
G36*
X20976Y68710D02*
X20814Y68575D01*
X16804Y72584D01*
Y74430D01*
X17004Y74493D01*
X20976Y68710D01*
D02*
G37*
G36*
X23928Y69432D02*
X27311Y68485D01*
X27294Y68400D01*
X27317Y68283D01*
X27323Y68275D01*
X27284Y68183D01*
X27283Y68183D01*
X27184Y68116D01*
X27117Y68017D01*
X27094Y67900D01*
X27117Y67783D01*
X27184Y67684D01*
X27207Y67668D01*
X27283Y67617D01*
X27233Y67540D01*
X27217Y67517D01*
X27194Y67400D01*
X27217Y67283D01*
X27233Y67260D01*
X27283Y67183D01*
X27207Y67132D01*
X27184Y67116D01*
X27117Y67017D01*
X27094Y66900D01*
X27117Y66783D01*
X27159Y66720D01*
X27176Y66650D01*
X27159Y66580D01*
X27117Y66517D01*
X27094Y66400D01*
X27117Y66283D01*
X27184Y66184D01*
X27283Y66117D01*
X27400Y66094D01*
X27517Y66117D01*
X27616Y66184D01*
X27683Y66283D01*
X27706Y66400D01*
X27683Y66517D01*
X27641Y66580D01*
X27624Y66650D01*
X27641Y66720D01*
X27683Y66783D01*
X27706Y66900D01*
X27683Y67017D01*
X27667Y67040D01*
X27617Y67117D01*
X27693Y67168D01*
X27716Y67184D01*
X27783Y67283D01*
X27806Y67400D01*
X27783Y67517D01*
X27716Y67616D01*
X27693Y67632D01*
X27617Y67683D01*
X27667Y67760D01*
X27683Y67783D01*
X27706Y67900D01*
X27683Y68017D01*
X27677Y68025D01*
X27716Y68117D01*
X27717Y68117D01*
X27816Y68184D01*
X27883Y68283D01*
X27929Y68312D01*
X29489Y67875D01*
X29967Y67397D01*
X29959Y67316D01*
X29892Y67217D01*
X29869Y67100D01*
X29892Y66983D01*
X29959Y66884D01*
X30058Y66817D01*
X30175Y66794D01*
X30292Y66817D01*
X30391Y66884D01*
X30466Y66891D01*
X30539Y66823D01*
X30539Y66166D01*
X30425D01*
X30352Y66152D01*
X30290Y66110D01*
X30267Y66088D01*
X30175Y66106D01*
X30058Y66083D01*
X29959Y66016D01*
X29892Y65917D01*
X29869Y65800D01*
X29892Y65683D01*
X29959Y65584D01*
X30058Y65517D01*
X30175Y65494D01*
X30292Y65517D01*
X30391Y65584D01*
X30439Y65655D01*
X30539Y65625D01*
X30539Y65237D01*
X30439Y65207D01*
X30416Y65241D01*
X30317Y65308D01*
X30200Y65331D01*
X30083Y65308D01*
X29984Y65241D01*
X29917Y65142D01*
X29894Y65025D01*
X29917Y64908D01*
X29984Y64809D01*
X30083Y64742D01*
X30200Y64719D01*
X30317Y64742D01*
X30416Y64809D01*
X30439Y64843D01*
X30539Y64812D01*
X30539Y63925D01*
X24393Y63925D01*
X15855Y76358D01*
Y77625D01*
X17270D01*
X23928Y69432D01*
D02*
G37*
G36*
X32084Y87763D02*
X32068Y85655D01*
X31858Y85656D01*
Y87024D01*
X31841Y87064D01*
X31827Y87100D01*
X31827Y87100D01*
X31827Y87100D01*
X31827Y87100D01*
X30522Y88405D01*
X30514Y88408D01*
X30509Y88416D01*
X30477Y88424D01*
X30446Y88437D01*
X30437Y88433D01*
X30428Y88435D01*
X30307Y88415D01*
X30305Y88414D01*
X30303Y88415D01*
X30270Y88392D01*
X30237Y88372D01*
X30236Y88370D01*
X30235Y88369D01*
X30213Y88337D01*
X30150Y88294D01*
X30075Y88279D01*
X30000Y88294D01*
X29937Y88337D01*
X29894Y88400D01*
X29879Y88475D01*
X29894Y88550D01*
X29937Y88613D01*
X29969Y88635D01*
X29970Y88636D01*
X29972Y88637D01*
X29993Y88670D01*
X30015Y88703D01*
X30014Y88705D01*
X30015Y88707D01*
X30035Y88828D01*
X30033Y88837D01*
X30037Y88846D01*
X30024Y88877D01*
X30017Y88909D01*
X30009Y88914D01*
X30005Y88922D01*
X29840Y89088D01*
X29945Y89280D01*
X30000Y89269D01*
X30117Y89292D01*
X30216Y89359D01*
X30465Y89382D01*
X32084Y87763D01*
D02*
G37*
G36*
X14470Y88606D02*
X14245Y88380D01*
X14190Y88298D01*
X14170Y88200D01*
Y87450D01*
X14190Y87352D01*
X14245Y87270D01*
X14770Y86745D01*
X14852Y86690D01*
X14950Y86670D01*
X16794D01*
X17250Y86215D01*
X17250Y83250D01*
X19315D01*
X19320Y83244D01*
Y82256D01*
X17439Y80375D01*
X10360Y80375D01*
X10230Y80506D01*
Y81519D01*
X10480Y81770D01*
X10535Y81852D01*
X10555Y81950D01*
Y82900D01*
X10535Y82998D01*
X10480Y83080D01*
X9323Y84238D01*
X9319Y87000D01*
X9322Y87441D01*
X9333Y87458D01*
X9356Y87575D01*
X9333Y87692D01*
X9323Y87706D01*
X9325Y88075D01*
X9350Y88100D01*
X12675D01*
X12734Y88024D01*
X12742Y87983D01*
X12809Y87884D01*
X12908Y87817D01*
X13025Y87794D01*
X13142Y87817D01*
X13241Y87884D01*
X13308Y87983D01*
X13331Y88100D01*
X13308Y88217D01*
X13241Y88316D01*
X13142Y88383D01*
X13025Y88406D01*
X12995Y88400D01*
X12675Y88720D01*
Y88875D01*
X14470Y88875D01*
Y88606D01*
D02*
G37*
G36*
X16017Y91982D02*
X16017Y89475D01*
X16048Y89398D01*
X16125Y89367D01*
X19886Y89367D01*
X19896Y89371D01*
X19907Y89369D01*
X19925Y89372D01*
X19943Y89369D01*
X19954Y89371D01*
X19964Y89367D01*
X20755D01*
X21446Y88676D01*
X21359Y88466D01*
X15400D01*
X15327Y88452D01*
X15265Y88410D01*
X15124Y88270D01*
X14960Y88402D01*
X14980Y88500D01*
Y91219D01*
X15823Y92062D01*
X16017Y91982D01*
D02*
G37*
G36*
X15457Y92692D02*
X15537Y92498D01*
X14545Y91505D01*
X14490Y91423D01*
X14470Y91325D01*
Y88983D01*
X12675Y88983D01*
X12598Y88952D01*
X12392Y89003D01*
X12066Y89329D01*
Y91756D01*
X12275Y91867D01*
X13300D01*
X13300Y91867D01*
X13377Y91898D01*
X13720Y92242D01*
X13724Y92252D01*
X13733Y92258D01*
X13737Y92263D01*
X13742Y92267D01*
X13748Y92276D01*
X13758Y92280D01*
X14170Y92692D01*
X15457Y92692D01*
D02*
G37*
%LPC*%
G36*
X27650Y89756D02*
X27533Y89733D01*
X27434Y89666D01*
X27367Y89567D01*
X27344Y89450D01*
X27367Y89333D01*
X27434Y89234D01*
X27533Y89167D01*
X27650Y89144D01*
X27767Y89167D01*
X27866Y89234D01*
X27933Y89333D01*
X27956Y89450D01*
X27933Y89567D01*
X27866Y89666D01*
X27767Y89733D01*
X27650Y89756D01*
D02*
G37*
G36*
X30175Y70006D02*
X30058Y69983D01*
X29959Y69916D01*
X29892Y69817D01*
X29869Y69700D01*
X29892Y69583D01*
X29959Y69484D01*
X30058Y69417D01*
X30175Y69394D01*
X30292Y69417D01*
X30391Y69484D01*
X30458Y69583D01*
X30481Y69700D01*
X30458Y69817D01*
X30391Y69916D01*
X30292Y69983D01*
X30175Y70006D01*
D02*
G37*
G36*
Y68706D02*
X30058Y68683D01*
X29959Y68616D01*
X29892Y68517D01*
X29869Y68400D01*
X29892Y68283D01*
X29959Y68184D01*
X30058Y68117D01*
X30175Y68094D01*
X30292Y68117D01*
X30391Y68184D01*
X30458Y68283D01*
X30481Y68400D01*
X30458Y68517D01*
X30391Y68616D01*
X30292Y68683D01*
X30175Y68706D01*
D02*
G37*
G36*
X27750Y88731D02*
X27633Y88708D01*
X27534Y88641D01*
X27467Y88542D01*
X27444Y88425D01*
X27467Y88308D01*
X27534Y88209D01*
X27633Y88142D01*
X27750Y88119D01*
X27867Y88142D01*
X27966Y88209D01*
X28033Y88308D01*
X28056Y88425D01*
X28033Y88542D01*
X27966Y88641D01*
X27867Y88708D01*
X27750Y88731D01*
D02*
G37*
G36*
X29750Y75781D02*
X29633Y75758D01*
X29534Y75691D01*
X29467Y75592D01*
X29444Y75475D01*
X29467Y75358D01*
X29534Y75259D01*
X29633Y75192D01*
X29750Y75169D01*
X29867Y75192D01*
X29966Y75259D01*
X30033Y75358D01*
X30056Y75475D01*
X30033Y75592D01*
X29966Y75691D01*
X29867Y75758D01*
X29750Y75781D01*
D02*
G37*
G36*
X27900Y74681D02*
X27783Y74658D01*
X27684Y74591D01*
X27617Y74492D01*
X27594Y74375D01*
X27617Y74258D01*
X27684Y74159D01*
X27783Y74092D01*
X27900Y74069D01*
X28017Y74092D01*
X28116Y74159D01*
X28183Y74258D01*
X28206Y74375D01*
X28183Y74492D01*
X28116Y74591D01*
X28017Y74658D01*
X27900Y74681D01*
D02*
G37*
G36*
X30075Y87281D02*
X29958Y87258D01*
X29859Y87191D01*
X29792Y87092D01*
X29769Y86975D01*
X29792Y86858D01*
X29859Y86759D01*
X29958Y86692D01*
X30075Y86669D01*
X30192Y86692D01*
X30291Y86759D01*
X30358Y86858D01*
X30381Y86975D01*
X30358Y87092D01*
X30291Y87191D01*
X30192Y87258D01*
X30075Y87281D01*
D02*
G37*
G36*
X30200Y77331D02*
X30083Y77308D01*
X29984Y77241D01*
X29917Y77142D01*
X29894Y77025D01*
X29917Y76908D01*
X29984Y76809D01*
X30083Y76742D01*
X30200Y76719D01*
X30317Y76742D01*
X30416Y76809D01*
X30483Y76908D01*
X30506Y77025D01*
X30483Y77142D01*
X30416Y77241D01*
X30317Y77308D01*
X30200Y77331D01*
D02*
G37*
G36*
X28400Y77106D02*
X28283Y77083D01*
X28184Y77016D01*
X28117Y76917D01*
X28094Y76800D01*
X28117Y76683D01*
X28184Y76584D01*
X28283Y76517D01*
X28400Y76494D01*
X28517Y76517D01*
X28616Y76584D01*
X28683Y76683D01*
X28706Y76800D01*
X28683Y76917D01*
X28616Y77016D01*
X28517Y77083D01*
X28400Y77106D01*
D02*
G37*
G36*
X29675Y86231D02*
X29558Y86208D01*
X29459Y86141D01*
X29392Y86042D01*
X29369Y85925D01*
X29392Y85808D01*
X29459Y85709D01*
X29558Y85642D01*
X29675Y85619D01*
X29792Y85642D01*
X29891Y85709D01*
X29958Y85808D01*
X29981Y85925D01*
X29958Y86042D01*
X29891Y86141D01*
X29792Y86208D01*
X29675Y86231D01*
D02*
G37*
G36*
X28900D02*
X28783Y86208D01*
X28684Y86141D01*
X28617Y86042D01*
X28594Y85925D01*
X28617Y85808D01*
X28684Y85709D01*
X28783Y85642D01*
X28900Y85619D01*
X29017Y85642D01*
X29116Y85709D01*
X29183Y85808D01*
X29206Y85925D01*
X29183Y86042D01*
X29116Y86141D01*
X29017Y86208D01*
X28900Y86231D01*
D02*
G37*
G36*
Y87281D02*
X28783Y87258D01*
X28684Y87191D01*
X28617Y87092D01*
X28594Y86975D01*
X28617Y86858D01*
X28684Y86759D01*
X28783Y86692D01*
X28900Y86669D01*
X29017Y86692D01*
X29116Y86759D01*
X29183Y86858D01*
X29206Y86975D01*
X29183Y87092D01*
X29116Y87191D01*
X29017Y87258D01*
X28900Y87281D01*
D02*
G37*
G36*
X29050Y84231D02*
X28933Y84208D01*
X28834Y84141D01*
X28767Y84042D01*
X28744Y83925D01*
X28767Y83808D01*
X28834Y83709D01*
X28933Y83642D01*
X29034Y83622D01*
X29059Y83606D01*
X29110Y83529D01*
X29094Y83450D01*
X29117Y83333D01*
X29184Y83234D01*
X29283Y83167D01*
X29400Y83144D01*
X29517Y83167D01*
X29616Y83234D01*
X29683Y83333D01*
X29706Y83450D01*
X29683Y83567D01*
X29616Y83666D01*
X29517Y83733D01*
X29416Y83753D01*
X29391Y83769D01*
X29340Y83846D01*
X29356Y83925D01*
X29333Y84042D01*
X29266Y84141D01*
X29167Y84208D01*
X29050Y84231D01*
D02*
G37*
G36*
X28875Y74306D02*
X28758Y74283D01*
X28659Y74216D01*
X28592Y74117D01*
X28569Y74000D01*
X28592Y73883D01*
X28659Y73784D01*
X28758Y73717D01*
X28875Y73694D01*
X28992Y73717D01*
X29091Y73784D01*
X29158Y73883D01*
X29181Y74000D01*
X29158Y74117D01*
X29091Y74216D01*
X28992Y74283D01*
X28875Y74306D01*
D02*
G37*
G36*
X22800Y89758D02*
X22644Y89727D01*
X22512Y89638D01*
X22423Y89506D01*
X22392Y89350D01*
X22423Y89194D01*
X22512Y89062D01*
X22644Y88973D01*
X22800Y88942D01*
X22956Y88973D01*
X23088Y89062D01*
X23177Y89194D01*
X23208Y89350D01*
X23177Y89506D01*
X23088Y89638D01*
X22956Y89727D01*
X22800Y89758D01*
D02*
G37*
G36*
X29500Y70656D02*
X29383Y70633D01*
X29284Y70566D01*
X29231Y70487D01*
X29186Y70478D01*
X29164D01*
X29119Y70487D01*
X29066Y70566D01*
X28967Y70633D01*
X28850Y70656D01*
X28733Y70633D01*
X28634Y70566D01*
X28581Y70487D01*
X28536Y70478D01*
X28514D01*
X28469Y70487D01*
X28416Y70566D01*
X28317Y70633D01*
X28200Y70656D01*
X28083Y70633D01*
X27984Y70566D01*
X27917Y70467D01*
X27894Y70350D01*
X27917Y70233D01*
X27984Y70134D01*
X28083Y70067D01*
X28137Y70057D01*
X28166Y70051D01*
Y69949D01*
X28137Y69943D01*
X28083Y69933D01*
X27984Y69866D01*
X27917Y69767D01*
X27894Y69650D01*
X27917Y69533D01*
X27984Y69434D01*
X28083Y69367D01*
X28200Y69344D01*
X28317Y69367D01*
X28416Y69434D01*
X28469Y69513D01*
X28514Y69522D01*
X28536D01*
X28581Y69513D01*
X28634Y69434D01*
X28733Y69367D01*
X28850Y69344D01*
X28967Y69367D01*
X29066Y69434D01*
X29133Y69533D01*
X29156Y69650D01*
X29133Y69767D01*
X29066Y69866D01*
X28967Y69933D01*
X28913Y69943D01*
X28884Y69949D01*
Y70051D01*
X28913Y70057D01*
X28967Y70067D01*
X29066Y70134D01*
X29119Y70213D01*
X29164Y70222D01*
X29186D01*
X29231Y70213D01*
X29284Y70134D01*
X29383Y70067D01*
X29500Y70044D01*
X29617Y70067D01*
X29716Y70134D01*
X29783Y70233D01*
X29806Y70350D01*
X29783Y70467D01*
X29716Y70566D01*
X29617Y70633D01*
X29500Y70656D01*
D02*
G37*
G36*
X28525Y73556D02*
X28408Y73533D01*
X28309Y73466D01*
X28242Y73367D01*
X28219Y73250D01*
X28242Y73133D01*
X28309Y73034D01*
X28408Y72967D01*
X28525Y72944D01*
X28642Y72967D01*
X28741Y73034D01*
X28808Y73133D01*
X28831Y73250D01*
X28808Y73367D01*
X28741Y73466D01*
X28642Y73533D01*
X28525Y73556D01*
D02*
G37*
G36*
X28400Y71456D02*
X28283Y71433D01*
X28220Y71391D01*
X28150Y71374D01*
X28080Y71391D01*
X28017Y71433D01*
X27900Y71456D01*
X27783Y71433D01*
X27720Y71391D01*
X27650Y71374D01*
X27580Y71391D01*
X27517Y71433D01*
X27400Y71456D01*
X27283Y71433D01*
X27184Y71366D01*
X27117Y71267D01*
X27094Y71150D01*
X27117Y71033D01*
X27184Y70934D01*
X27283Y70867D01*
X27400Y70844D01*
X27517Y70867D01*
X27580Y70909D01*
X27650Y70926D01*
X27720Y70909D01*
X27783Y70867D01*
X27900Y70844D01*
X28017Y70867D01*
X28080Y70909D01*
X28150Y70926D01*
X28220Y70909D01*
X28283Y70867D01*
X28400Y70844D01*
X28517Y70867D01*
X28616Y70934D01*
X28683Y71033D01*
X28706Y71150D01*
X28683Y71267D01*
X28616Y71366D01*
X28517Y71433D01*
X28400Y71456D01*
D02*
G37*
G36*
X30300D02*
X30183Y71433D01*
X30120Y71391D01*
X30050Y71374D01*
X29980Y71391D01*
X29917Y71433D01*
X29800Y71456D01*
X29683Y71433D01*
X29620Y71391D01*
X29550Y71374D01*
X29480Y71391D01*
X29417Y71433D01*
X29300Y71456D01*
X29183Y71433D01*
X29084Y71366D01*
X29017Y71267D01*
X28994Y71150D01*
X29017Y71033D01*
X29084Y70934D01*
X29183Y70867D01*
X29300Y70844D01*
X29417Y70867D01*
X29480Y70909D01*
X29550Y70926D01*
X29620Y70909D01*
X29683Y70867D01*
X29800Y70844D01*
X29917Y70867D01*
X29980Y70909D01*
X30050Y70926D01*
X30120Y70909D01*
X30183Y70867D01*
X30300Y70844D01*
X30417Y70867D01*
X30516Y70934D01*
X30583Y71033D01*
X30606Y71150D01*
X30583Y71267D01*
X30516Y71366D01*
X30417Y71433D01*
X30300Y71456D01*
D02*
G37*
G36*
X54300Y68306D02*
X54183Y68283D01*
X54084Y68216D01*
X54017Y68117D01*
X53994Y68000D01*
X54017Y67883D01*
X54084Y67784D01*
X54183Y67717D01*
X54300Y67694D01*
X54417Y67717D01*
X54516Y67784D01*
X54583Y67883D01*
X54606Y68000D01*
X54583Y68117D01*
X54516Y68216D01*
X54417Y68283D01*
X54300Y68306D01*
D02*
G37*
G36*
X51750Y66606D02*
X51633Y66583D01*
X51534Y66516D01*
X51467Y66417D01*
X51444Y66300D01*
X51467Y66183D01*
X51534Y66084D01*
X51633Y66017D01*
X51750Y65994D01*
X51867Y66017D01*
X51966Y66084D01*
X52033Y66183D01*
X52056Y66300D01*
X52033Y66417D01*
X51966Y66516D01*
X51867Y66583D01*
X51750Y66606D01*
D02*
G37*
G36*
X42775Y68556D02*
X42658Y68533D01*
X42559Y68466D01*
X42492Y68367D01*
X42469Y68250D01*
X42492Y68133D01*
X42559Y68034D01*
X42658Y67967D01*
X42775Y67944D01*
X42892Y67967D01*
X42991Y68034D01*
X43058Y68133D01*
X43081Y68250D01*
X43058Y68367D01*
X42991Y68466D01*
X42892Y68533D01*
X42775Y68556D01*
D02*
G37*
G36*
X33550Y68331D02*
X33433Y68308D01*
X33334Y68241D01*
X33267Y68142D01*
X33244Y68025D01*
X33267Y67908D01*
X33334Y67809D01*
X33433Y67742D01*
X33550Y67719D01*
X33667Y67742D01*
X33766Y67809D01*
X33833Y67908D01*
X33856Y68025D01*
X33833Y68142D01*
X33766Y68241D01*
X33667Y68308D01*
X33550Y68331D01*
D02*
G37*
G36*
X33375Y67331D02*
X33258Y67308D01*
X33159Y67241D01*
X33092Y67142D01*
X33069Y67025D01*
X33092Y66908D01*
X33159Y66809D01*
X33258Y66742D01*
X33280Y66636D01*
X33267Y66617D01*
X33244Y66500D01*
X33267Y66383D01*
X33334Y66284D01*
X33433Y66217D01*
X33550Y66194D01*
X33667Y66217D01*
X33766Y66284D01*
X33833Y66383D01*
X33856Y66500D01*
X33833Y66617D01*
X33766Y66716D01*
X33667Y66783D01*
X33645Y66889D01*
X33658Y66908D01*
X33681Y67025D01*
X33658Y67142D01*
X33591Y67241D01*
X33492Y67308D01*
X33375Y67331D01*
D02*
G37*
G36*
X30150Y91756D02*
X30033Y91733D01*
X29934Y91666D01*
X29867Y91567D01*
X29844Y91450D01*
X29867Y91333D01*
X29934Y91234D01*
X30033Y91167D01*
X30150Y91144D01*
X30267Y91167D01*
X30366Y91234D01*
X30433Y91333D01*
X30456Y91450D01*
X30433Y91567D01*
X30366Y91666D01*
X30267Y91733D01*
X30150Y91756D01*
D02*
G37*
G36*
X47250Y66976D02*
X47133Y66953D01*
X47034Y66886D01*
X46967Y66787D01*
X46944Y66670D01*
X46967Y66553D01*
X47034Y66454D01*
X47133Y66388D01*
X47250Y66364D01*
X47367Y66388D01*
X47466Y66454D01*
X47533Y66553D01*
X47556Y66670D01*
X47533Y66787D01*
X47466Y66886D01*
X47367Y66953D01*
X47250Y66976D01*
D02*
G37*
G36*
X51400Y67306D02*
X51283Y67283D01*
X51184Y67216D01*
X51117Y67117D01*
X51094Y67000D01*
X51117Y66883D01*
X51184Y66784D01*
X51283Y66718D01*
X51400Y66694D01*
X51517Y66718D01*
X51616Y66784D01*
X51683Y66883D01*
X51706Y67000D01*
X51683Y67117D01*
X51616Y67216D01*
X51517Y67283D01*
X51400Y67306D01*
D02*
G37*
G36*
X50675Y67331D02*
X50558Y67308D01*
X50459Y67241D01*
X50393Y67142D01*
X50369Y67025D01*
X50393Y66908D01*
X50459Y66809D01*
X50538Y66756D01*
X50547Y66712D01*
Y66689D01*
X50538Y66645D01*
X50459Y66591D01*
X50393Y66492D01*
X50369Y66375D01*
X50393Y66258D01*
X50459Y66159D01*
X50558Y66093D01*
X50675Y66069D01*
X50792Y66093D01*
X50891Y66159D01*
X50958Y66258D01*
X50981Y66375D01*
X50958Y66492D01*
X50891Y66591D01*
X50812Y66645D01*
X50803Y66689D01*
Y66712D01*
X50812Y66756D01*
X50891Y66809D01*
X50958Y66908D01*
X50981Y67025D01*
X50958Y67142D01*
X50891Y67241D01*
X50792Y67308D01*
X50675Y67331D01*
D02*
G37*
G36*
X33550Y70031D02*
X33433Y70008D01*
X33334Y69941D01*
X33267Y69842D01*
X33244Y69725D01*
X33267Y69608D01*
X33309Y69545D01*
X33326Y69475D01*
X33309Y69405D01*
X33267Y69342D01*
X33244Y69225D01*
X33267Y69108D01*
X33334Y69009D01*
X33433Y68942D01*
X33550Y68919D01*
X33667Y68942D01*
X33766Y69009D01*
X33833Y69108D01*
X33856Y69225D01*
X33833Y69342D01*
X33791Y69405D01*
X33774Y69475D01*
X33791Y69545D01*
X33833Y69608D01*
X33856Y69725D01*
X33833Y69842D01*
X33766Y69941D01*
X33667Y70008D01*
X33550Y70031D01*
D02*
G37*
G36*
X50675Y69931D02*
X50558Y69908D01*
X50459Y69841D01*
X50392Y69742D01*
X50369Y69625D01*
X50392Y69508D01*
X50459Y69409D01*
X50538Y69356D01*
X50547Y69311D01*
Y69289D01*
X50538Y69245D01*
X50459Y69191D01*
X50392Y69092D01*
X50369Y68975D01*
X50392Y68858D01*
X50459Y68759D01*
X50558Y68692D01*
X50675Y68669D01*
X50792Y68692D01*
X50891Y68759D01*
X50958Y68858D01*
X50981Y68975D01*
X50958Y69092D01*
X50891Y69191D01*
X50812Y69245D01*
X50803Y69289D01*
Y69311D01*
X50812Y69356D01*
X50891Y69409D01*
X50958Y69508D01*
X50981Y69625D01*
X50958Y69742D01*
X50891Y69841D01*
X50792Y69908D01*
X50675Y69931D01*
D02*
G37*
G36*
X53275Y70581D02*
X53158Y70558D01*
X53059Y70491D01*
X52993Y70392D01*
X52969Y70275D01*
X52993Y70158D01*
X53059Y70059D01*
X53158Y69993D01*
X53190Y69986D01*
Y69884D01*
X53183Y69883D01*
X53084Y69816D01*
X53017Y69717D01*
X52994Y69600D01*
X53017Y69483D01*
X53084Y69384D01*
X53163Y69330D01*
X53172Y69287D01*
X53172Y69264D01*
X53163Y69219D01*
X53084Y69166D01*
X53018Y69067D01*
X52994Y68950D01*
X53018Y68833D01*
X53084Y68734D01*
X53183Y68667D01*
X53300Y68644D01*
X53417Y68667D01*
X53516Y68734D01*
X53583Y68833D01*
X53606Y68950D01*
X53583Y69067D01*
X53516Y69166D01*
X53437Y69220D01*
X53428Y69263D01*
X53428Y69286D01*
X53437Y69331D01*
X53516Y69384D01*
X53561Y69450D01*
X53661Y69461D01*
X53676Y69457D01*
X53709Y69409D01*
X53808Y69342D01*
X53925Y69319D01*
X54042Y69342D01*
X54141Y69409D01*
X54208Y69508D01*
X54231Y69625D01*
X54208Y69742D01*
X54141Y69841D01*
X54042Y69908D01*
X53925Y69931D01*
X53808Y69908D01*
X53709Y69841D01*
X53664Y69775D01*
X53564Y69764D01*
X53549Y69768D01*
X53516Y69816D01*
X53417Y69883D01*
X53385Y69889D01*
Y69991D01*
X53392Y69993D01*
X53491Y70059D01*
X53558Y70158D01*
X53581Y70275D01*
X53558Y70392D01*
X53491Y70491D01*
X53392Y70558D01*
X53275Y70581D01*
D02*
G37*
G36*
X47325Y69706D02*
X47208Y69683D01*
X47109Y69616D01*
X47042Y69517D01*
X47019Y69400D01*
X47042Y69283D01*
X47109Y69184D01*
X47208Y69117D01*
X47325Y69094D01*
X47442Y69117D01*
X47541Y69184D01*
X47608Y69283D01*
X47631Y69400D01*
X47608Y69517D01*
X47541Y69616D01*
X47442Y69683D01*
X47325Y69706D01*
D02*
G37*
G36*
X51450Y69131D02*
X51333Y69108D01*
X51234Y69041D01*
X51167Y68942D01*
X51144Y68825D01*
X51167Y68708D01*
X51234Y68609D01*
X51333Y68542D01*
X51346Y68540D01*
X51417Y68467D01*
X51411Y68433D01*
X51394Y68350D01*
X51417Y68233D01*
X51484Y68134D01*
X51583Y68067D01*
X51700Y68044D01*
X51817Y68067D01*
X51916Y68134D01*
X51983Y68233D01*
X52006Y68350D01*
X51983Y68467D01*
X51916Y68566D01*
X51817Y68633D01*
X51804Y68635D01*
X51733Y68708D01*
X51739Y68742D01*
X51756Y68825D01*
X51733Y68942D01*
X51666Y69041D01*
X51567Y69108D01*
X51450Y69131D01*
D02*
G37*
G36*
X50000Y68656D02*
X49883Y68633D01*
X49784Y68566D01*
X49717Y68467D01*
X49694Y68350D01*
X49717Y68233D01*
X49784Y68134D01*
X49883Y68067D01*
X50000Y68044D01*
X50117Y68067D01*
X50216Y68134D01*
X50283Y68233D01*
X50306Y68350D01*
X50283Y68467D01*
X50216Y68566D01*
X50117Y68633D01*
X50000Y68656D01*
D02*
G37*
G36*
X46275Y68556D02*
X46158Y68533D01*
X46059Y68466D01*
X45992Y68367D01*
X45969Y68250D01*
X45992Y68133D01*
X46059Y68034D01*
X46158Y67967D01*
X46275Y67944D01*
X46392Y67967D01*
X46491Y68034D01*
X46558Y68133D01*
X46581Y68250D01*
X46558Y68367D01*
X46491Y68466D01*
X46392Y68533D01*
X46275Y68556D01*
D02*
G37*
G36*
X39400D02*
X39283Y68533D01*
X39184Y68466D01*
X39160Y68431D01*
X39040D01*
X39016Y68466D01*
X38917Y68533D01*
X38800Y68556D01*
X38683Y68533D01*
X38584Y68466D01*
X38517Y68367D01*
X38513Y68347D01*
X38412D01*
X38408Y68367D01*
X38341Y68466D01*
X38242Y68533D01*
X38125Y68556D01*
X38008Y68533D01*
X37945Y68491D01*
X37875Y68474D01*
X37805Y68491D01*
X37742Y68533D01*
X37625Y68556D01*
X37508Y68533D01*
X37409Y68466D01*
X37342Y68367D01*
X37319Y68250D01*
X37342Y68133D01*
X37409Y68034D01*
X37508Y67967D01*
X37625Y67944D01*
X37742Y67967D01*
X37841Y68034D01*
X37909D01*
X38008Y67967D01*
X38125Y67944D01*
X38242Y67967D01*
X38341Y68034D01*
X38408Y68133D01*
X38412Y68153D01*
X38513D01*
X38517Y68133D01*
X38584Y68034D01*
X38683Y67967D01*
X38800Y67944D01*
X38917Y67967D01*
X39016Y68034D01*
X39040Y68069D01*
X39160D01*
X39184Y68034D01*
X39283Y67967D01*
X39400Y67944D01*
X39517Y67967D01*
X39616Y68034D01*
X39683Y68133D01*
X39706Y68250D01*
X39683Y68367D01*
X39616Y68466D01*
X39517Y68533D01*
X39400Y68556D01*
D02*
G37*
G36*
X36300Y68481D02*
X36183Y68458D01*
X36084Y68391D01*
X36017Y68292D01*
X36007Y68238D01*
X36001Y68209D01*
X35899D01*
X35893Y68238D01*
X35883Y68292D01*
X35816Y68391D01*
X35717Y68458D01*
X35600Y68481D01*
X35483Y68458D01*
X35384Y68391D01*
X35317Y68292D01*
X35294Y68175D01*
X35317Y68058D01*
X35384Y67959D01*
X35483Y67892D01*
X35600Y67869D01*
X35717Y67892D01*
X35816Y67959D01*
X35883Y68058D01*
X35893Y68112D01*
X35899Y68141D01*
X36001D01*
X36007Y68112D01*
X36017Y68058D01*
X36084Y67959D01*
X36183Y67892D01*
X36300Y67869D01*
X36417Y67892D01*
X36516Y67959D01*
X36583Y68058D01*
X36606Y68175D01*
X36583Y68292D01*
X36516Y68391D01*
X36417Y68458D01*
X36300Y68481D01*
D02*
G37*
G36*
X36525Y66531D02*
X36408Y66508D01*
X36309Y66441D01*
X36242Y66342D01*
X36219Y66225D01*
X36242Y66108D01*
X36309Y66009D01*
X36408Y65942D01*
X36525Y65919D01*
X36642Y65942D01*
X36741Y66009D01*
X36808Y66108D01*
X36831Y66225D01*
X36808Y66342D01*
X36741Y66441D01*
X36642Y66508D01*
X36525Y66531D01*
D02*
G37*
G36*
X48075Y64081D02*
X47958Y64058D01*
X47859Y63991D01*
X47792Y63892D01*
X47769Y63775D01*
X47792Y63658D01*
X47859Y63559D01*
X47958Y63493D01*
X48075Y63469D01*
X48192Y63493D01*
X48291Y63559D01*
X48358Y63658D01*
X48381Y63775D01*
X48358Y63892D01*
X48291Y63991D01*
X48192Y64058D01*
X48075Y64081D01*
D02*
G37*
G36*
X35200Y63506D02*
X35083Y63483D01*
X34984Y63416D01*
X34917Y63317D01*
X34894Y63200D01*
X34917Y63083D01*
X34984Y62984D01*
X35083Y62917D01*
X35200Y62894D01*
X35317Y62917D01*
X35416Y62984D01*
X35483Y63083D01*
X35506Y63200D01*
X35483Y63317D01*
X35416Y63416D01*
X35317Y63483D01*
X35200Y63506D01*
D02*
G37*
G36*
X50025Y62406D02*
X49908Y62383D01*
X49809Y62316D01*
X49742Y62217D01*
X49719Y62100D01*
X49742Y61983D01*
X49809Y61884D01*
X49908Y61817D01*
X50025Y61794D01*
X50142Y61817D01*
X50241Y61884D01*
X50308Y61983D01*
X50331Y62100D01*
X50308Y62217D01*
X50241Y62316D01*
X50142Y62383D01*
X50025Y62406D01*
D02*
G37*
G36*
X44200Y64556D02*
X44083Y64533D01*
X43984Y64466D01*
X43917Y64367D01*
X43894Y64250D01*
X43917Y64133D01*
X43984Y64034D01*
X44083Y63967D01*
X44200Y63944D01*
X44317Y63967D01*
X44416Y64034D01*
X44483Y64133D01*
X44506Y64250D01*
X44483Y64367D01*
X44416Y64466D01*
X44317Y64533D01*
X44200Y64556D01*
D02*
G37*
G36*
X53925Y64081D02*
X53808Y64058D01*
X53709Y63991D01*
X53656Y63912D01*
X53612Y63903D01*
X53589Y63903D01*
X53544Y63912D01*
X53491Y63991D01*
X53392Y64058D01*
X53275Y64081D01*
X53158Y64058D01*
X53059Y63991D01*
X52993Y63892D01*
X52969Y63775D01*
X52993Y63658D01*
X53059Y63559D01*
X53158Y63492D01*
X53275Y63469D01*
X53392Y63492D01*
X53491Y63559D01*
X53545Y63638D01*
X53588Y63647D01*
X53611Y63647D01*
X53656Y63638D01*
X53709Y63559D01*
X53808Y63493D01*
X53925Y63469D01*
X54042Y63493D01*
X54141Y63559D01*
X54208Y63658D01*
X54231Y63775D01*
X54208Y63892D01*
X54141Y63991D01*
X54042Y64058D01*
X53925Y64081D01*
D02*
G37*
G36*
X15200Y94906D02*
X15083Y94883D01*
X14984Y94816D01*
X14917Y94717D01*
X14894Y94600D01*
X14917Y94483D01*
X14984Y94384D01*
X15083Y94317D01*
X15200Y94294D01*
X15317Y94317D01*
X15416Y94384D01*
X15483Y94483D01*
X15506Y94600D01*
X15483Y94717D01*
X15416Y94816D01*
X15317Y94883D01*
X15200Y94906D01*
D02*
G37*
G36*
X51950Y60906D02*
X51833Y60883D01*
X51734Y60816D01*
X51667Y60717D01*
X51644Y60600D01*
X51667Y60483D01*
X51734Y60384D01*
X51833Y60317D01*
X51950Y60294D01*
X52067Y60317D01*
X52166Y60384D01*
X52233Y60483D01*
X52256Y60600D01*
X52233Y60717D01*
X52166Y60816D01*
X52067Y60883D01*
X51950Y60906D01*
D02*
G37*
G36*
X33500Y60831D02*
X33383Y60808D01*
X33284Y60741D01*
X33217Y60642D01*
X33194Y60525D01*
X33217Y60408D01*
X33284Y60309D01*
X33383Y60242D01*
X33500Y60219D01*
X33617Y60242D01*
X33716Y60309D01*
X33783Y60408D01*
X33806Y60525D01*
X33783Y60642D01*
X33716Y60741D01*
X33617Y60808D01*
X33500Y60831D01*
D02*
G37*
G36*
X25075Y94906D02*
X24958Y94883D01*
X24859Y94816D01*
X24792Y94717D01*
X24769Y94600D01*
X24792Y94483D01*
X24859Y94384D01*
X24958Y94317D01*
X25075Y94294D01*
X25192Y94317D01*
X25291Y94384D01*
X25358Y94483D01*
X25381Y94600D01*
X25358Y94717D01*
X25291Y94816D01*
X25192Y94883D01*
X25075Y94906D01*
D02*
G37*
G36*
X50775Y62306D02*
X50658Y62283D01*
X50559Y62216D01*
X50493Y62117D01*
X50469Y62000D01*
X50493Y61883D01*
X50559Y61784D01*
X50658Y61718D01*
X50775Y61694D01*
X50892Y61718D01*
X50991Y61784D01*
X51058Y61883D01*
X51081Y62000D01*
X51058Y62117D01*
X50991Y62216D01*
X50892Y62283D01*
X50775Y62306D01*
D02*
G37*
G36*
X32725Y61681D02*
X32608Y61658D01*
X32509Y61591D01*
X32442Y61492D01*
X32419Y61375D01*
X32442Y61258D01*
X32509Y61159D01*
X32608Y61092D01*
X32725Y61069D01*
X32842Y61092D01*
X32941Y61159D01*
X33008Y61258D01*
X33031Y61375D01*
X33008Y61492D01*
X32941Y61591D01*
X32842Y61658D01*
X32725Y61681D01*
D02*
G37*
G36*
X20375Y94906D02*
X20258Y94883D01*
X20159Y94816D01*
X20092Y94717D01*
X20069Y94600D01*
X20092Y94483D01*
X20159Y94384D01*
X20258Y94317D01*
X20375Y94294D01*
X20492Y94317D01*
X20591Y94384D01*
X20658Y94483D01*
X20681Y94600D01*
X20658Y94717D01*
X20591Y94816D01*
X20492Y94883D01*
X20375Y94906D01*
D02*
G37*
G36*
X35600Y65881D02*
X35483Y65858D01*
X35384Y65791D01*
X35317Y65692D01*
X35294Y65575D01*
X35317Y65458D01*
X35384Y65359D01*
X35483Y65292D01*
X35600Y65269D01*
X35717Y65292D01*
X35816Y65359D01*
X35883Y65458D01*
X35906Y65575D01*
X35883Y65692D01*
X35816Y65791D01*
X35717Y65858D01*
X35600Y65881D01*
D02*
G37*
G36*
X52625Y65381D02*
X52508Y65358D01*
X52409Y65291D01*
X52356Y65212D01*
X52312Y65203D01*
X52289D01*
X52245Y65212D01*
X52191Y65291D01*
X52092Y65358D01*
X51975Y65381D01*
X51858Y65358D01*
X51759Y65291D01*
X51693Y65192D01*
X51669Y65075D01*
X51693Y64958D01*
X51759Y64859D01*
X51858Y64793D01*
X51975Y64769D01*
X52092Y64793D01*
X52191Y64859D01*
X52245Y64938D01*
X52289Y64947D01*
X52312D01*
X52356Y64938D01*
X52409Y64859D01*
X52508Y64793D01*
X52625Y64769D01*
X52742Y64793D01*
X52841Y64859D01*
X52908Y64958D01*
X52931Y65075D01*
X52908Y65192D01*
X52841Y65291D01*
X52742Y65358D01*
X52625Y65381D01*
D02*
G37*
G36*
Y68631D02*
X52508Y68608D01*
X52409Y68541D01*
X52342Y68442D01*
X52319Y68325D01*
X52342Y68208D01*
X52409Y68109D01*
X52488Y68056D01*
X52497Y68012D01*
Y67989D01*
X52488Y67945D01*
X52409Y67891D01*
X52342Y67792D01*
X52319Y67675D01*
X52342Y67558D01*
X52409Y67459D01*
X52488Y67406D01*
X52497Y67361D01*
X52497Y67339D01*
X52488Y67295D01*
X52409Y67241D01*
X52342Y67142D01*
X52319Y67025D01*
X52342Y66908D01*
X52409Y66809D01*
X52488Y66756D01*
X52497Y66712D01*
X52497Y66688D01*
X52488Y66644D01*
X52409Y66591D01*
X52342Y66492D01*
X52319Y66375D01*
X52342Y66258D01*
X52409Y66159D01*
X52508Y66093D01*
X52625Y66069D01*
X52742Y66093D01*
X52841Y66159D01*
X52895Y66238D01*
X52939Y66247D01*
X52962D01*
X53006Y66238D01*
X53059Y66159D01*
X53138Y66106D01*
X53147Y66062D01*
Y66039D01*
X53138Y65995D01*
X53059Y65941D01*
X52993Y65842D01*
X52969Y65725D01*
X52993Y65608D01*
X53059Y65509D01*
X53158Y65443D01*
X53275Y65419D01*
X53392Y65443D01*
X53491Y65509D01*
X53558Y65608D01*
X53581Y65725D01*
X53558Y65842D01*
X53491Y65941D01*
X53412Y65995D01*
X53403Y66039D01*
Y66062D01*
X53412Y66106D01*
X53491Y66159D01*
X53558Y66258D01*
X53581Y66375D01*
X53558Y66492D01*
X53491Y66591D01*
X53392Y66658D01*
X53275Y66681D01*
X53158Y66658D01*
X53059Y66591D01*
X53006Y66512D01*
X52962Y66503D01*
X52939D01*
X52895Y66512D01*
X52841Y66591D01*
X52762Y66645D01*
X52753Y66688D01*
X52753Y66712D01*
X52762Y66756D01*
X52841Y66809D01*
X52908Y66908D01*
X52931Y67025D01*
X52908Y67142D01*
X52841Y67241D01*
X52762Y67294D01*
X52753Y67339D01*
X52753Y67361D01*
X52762Y67406D01*
X52841Y67459D01*
X52908Y67558D01*
X52931Y67675D01*
X52908Y67792D01*
X52841Y67891D01*
X52762Y67945D01*
X52753Y67989D01*
Y68012D01*
X52762Y68056D01*
X52841Y68109D01*
X52908Y68208D01*
X52931Y68325D01*
X52908Y68442D01*
X52841Y68541D01*
X52742Y68608D01*
X52625Y68631D01*
D02*
G37*
G36*
X54300Y65906D02*
X54183Y65883D01*
X54084Y65816D01*
X54017Y65717D01*
X53994Y65600D01*
X54017Y65483D01*
X54084Y65384D01*
X54183Y65317D01*
X54300Y65294D01*
X54417Y65317D01*
X54516Y65384D01*
X54583Y65483D01*
X54606Y65600D01*
X54583Y65717D01*
X54516Y65816D01*
X54417Y65883D01*
X54300Y65906D01*
D02*
G37*
G36*
X46125Y65106D02*
X46008Y65083D01*
X45909Y65016D01*
X45842Y64917D01*
X45819Y64800D01*
X45842Y64683D01*
X45909Y64584D01*
X46008Y64517D01*
X46125Y64494D01*
X46242Y64517D01*
X46341Y64584D01*
X46408Y64683D01*
X46431Y64800D01*
X46408Y64917D01*
X46341Y65016D01*
X46242Y65083D01*
X46125Y65106D01*
D02*
G37*
G36*
X47350Y64831D02*
X47233Y64808D01*
X47134Y64741D01*
X47067Y64642D01*
X47044Y64525D01*
X47067Y64408D01*
X47134Y64309D01*
X47233Y64242D01*
X47350Y64219D01*
X47467Y64242D01*
X47566Y64309D01*
X47633Y64408D01*
X47656Y64525D01*
X47633Y64642D01*
X47566Y64741D01*
X47467Y64808D01*
X47350Y64831D01*
D02*
G37*
G36*
X50675Y64731D02*
X50558Y64708D01*
X50459Y64641D01*
X50393Y64542D01*
X50369Y64425D01*
X50393Y64308D01*
X50459Y64209D01*
X50558Y64142D01*
X50675Y64119D01*
X50792Y64142D01*
X50891Y64209D01*
X50958Y64308D01*
X50981Y64425D01*
X50958Y64542D01*
X50891Y64641D01*
X50792Y64708D01*
X50675Y64731D01*
D02*
G37*
G36*
X43012Y65535D02*
X42895Y65512D01*
X42796Y65446D01*
X42729Y65346D01*
X42706Y65229D01*
X42729Y65112D01*
X42796Y65013D01*
X42895Y64947D01*
X43012Y64923D01*
X43129Y64947D01*
X43216Y65005D01*
X43256Y65015D01*
X43329D01*
X43334Y65009D01*
X43433Y64942D01*
X43550Y64919D01*
X43667Y64942D01*
X43766Y65009D01*
X43833Y65108D01*
X43856Y65225D01*
X43833Y65342D01*
X43766Y65441D01*
X43667Y65508D01*
X43550Y65531D01*
X43433Y65508D01*
X43334Y65441D01*
X43332Y65439D01*
X43252D01*
X43220Y65451D01*
X43129Y65512D01*
X43012Y65535D01*
D02*
G37*
G36*
X29175Y94881D02*
X29058Y94858D01*
X28959Y94791D01*
X28892Y94692D01*
X28869Y94575D01*
X28892Y94458D01*
X28959Y94359D01*
X29058Y94292D01*
X29175Y94269D01*
X29292Y94292D01*
X29391Y94359D01*
X29458Y94458D01*
X29481Y94575D01*
X29458Y94692D01*
X29391Y94791D01*
X29292Y94858D01*
X29175Y94881D01*
D02*
G37*
G36*
X33125Y81406D02*
X33008Y81383D01*
X32909Y81316D01*
X32842Y81217D01*
X32819Y81100D01*
X32842Y80983D01*
X32909Y80884D01*
X33008Y80817D01*
X33125Y80794D01*
X33242Y80817D01*
X33341Y80884D01*
X33408Y80983D01*
X33431Y81100D01*
X33408Y81217D01*
X33341Y81316D01*
X33242Y81383D01*
X33125Y81406D01*
D02*
G37*
G36*
X50025Y71231D02*
X49908Y71208D01*
X49809Y71141D01*
X49743Y71042D01*
X49719Y70925D01*
X49743Y70808D01*
X49809Y70709D01*
X49908Y70643D01*
X50025Y70619D01*
X50142Y70643D01*
X50241Y70709D01*
X50308Y70808D01*
X50331Y70925D01*
X50308Y71042D01*
X50241Y71141D01*
X50142Y71208D01*
X50025Y71231D01*
D02*
G37*
G36*
X52625D02*
X52508Y71208D01*
X52409Y71141D01*
X52342Y71042D01*
X52332Y70988D01*
X52326Y70960D01*
X52224D01*
X52218Y70988D01*
X52208Y71042D01*
X52141Y71141D01*
X52042Y71208D01*
X51925Y71231D01*
X51808Y71208D01*
X51709Y71141D01*
X51643Y71042D01*
X51619Y70925D01*
X51643Y70808D01*
X51709Y70709D01*
X51808Y70643D01*
X51925Y70619D01*
X52042Y70643D01*
X52141Y70709D01*
X52208Y70808D01*
X52218Y70862D01*
X52224Y70891D01*
X52326D01*
X52332Y70862D01*
X52342Y70808D01*
X52409Y70709D01*
X52508Y70643D01*
X52625Y70619D01*
X52742Y70643D01*
X52841Y70709D01*
X52908Y70808D01*
X52931Y70925D01*
X52908Y71042D01*
X52841Y71141D01*
X52742Y71208D01*
X52625Y71231D01*
D02*
G37*
G36*
X45087Y71410D02*
X44970Y71387D01*
X44870Y71321D01*
X44804Y71221D01*
X44781Y71104D01*
X44804Y70987D01*
X44870Y70888D01*
X44970Y70822D01*
X45087Y70798D01*
X45204Y70822D01*
X45291Y70880D01*
X45331Y70890D01*
X45404D01*
X45409Y70884D01*
X45508Y70817D01*
X45625Y70794D01*
X45742Y70817D01*
X45841Y70884D01*
X45908Y70983D01*
X45931Y71100D01*
X45908Y71217D01*
X45841Y71316D01*
X45742Y71383D01*
X45625Y71406D01*
X45508Y71383D01*
X45421Y71324D01*
X45381Y71314D01*
X45307D01*
X45303Y71321D01*
X45204Y71387D01*
X45087Y71410D01*
D02*
G37*
G36*
X43575Y71406D02*
X43458Y71383D01*
X43359Y71316D01*
X43292Y71217D01*
X43269Y71100D01*
X43292Y70983D01*
X43359Y70884D01*
X43458Y70817D01*
X43575Y70794D01*
X43692Y70817D01*
X43791Y70884D01*
X43858Y70983D01*
X43881Y71100D01*
X43858Y71217D01*
X43791Y71316D01*
X43692Y71383D01*
X43575Y71406D01*
D02*
G37*
G36*
X54350Y70556D02*
X54233Y70533D01*
X54134Y70466D01*
X54068Y70367D01*
X54044Y70250D01*
X54068Y70133D01*
X54134Y70034D01*
X54233Y69968D01*
X54350Y69944D01*
X54467Y69968D01*
X54566Y70034D01*
X54633Y70133D01*
X54656Y70250D01*
X54633Y70367D01*
X54566Y70466D01*
X54467Y70533D01*
X54350Y70556D01*
D02*
G37*
G36*
X51825Y70181D02*
X51708Y70158D01*
X51609Y70091D01*
X51542Y69992D01*
X51519Y69875D01*
X51542Y69758D01*
X51609Y69659D01*
X51708Y69593D01*
X51825Y69569D01*
X51942Y69593D01*
X52041Y69659D01*
X52108Y69758D01*
X52131Y69875D01*
X52108Y69992D01*
X52041Y70091D01*
X51942Y70158D01*
X51825Y70181D01*
D02*
G37*
G36*
X37600Y69831D02*
X37483Y69808D01*
X37384Y69741D01*
X37317Y69642D01*
X37307Y69588D01*
X37301Y69559D01*
X37199D01*
X37193Y69588D01*
X37183Y69642D01*
X37116Y69741D01*
X37017Y69808D01*
X36900Y69831D01*
X36783Y69808D01*
X36684Y69741D01*
X36631Y69662D01*
X36586Y69653D01*
X36564D01*
X36519Y69662D01*
X36466Y69741D01*
X36367Y69808D01*
X36250Y69831D01*
X36133Y69808D01*
X36034Y69741D01*
X35967Y69642D01*
X35944Y69525D01*
X35967Y69408D01*
X36034Y69309D01*
X36133Y69242D01*
X36250Y69219D01*
X36367Y69242D01*
X36466Y69309D01*
X36519Y69388D01*
X36564Y69397D01*
X36586D01*
X36631Y69388D01*
X36684Y69309D01*
X36783Y69242D01*
X36900Y69219D01*
X37017Y69242D01*
X37116Y69309D01*
X37183Y69408D01*
X37193Y69462D01*
X37199Y69491D01*
X37301D01*
X37307Y69462D01*
X37317Y69408D01*
X37384Y69309D01*
X37483Y69242D01*
X37600Y69219D01*
X37717Y69242D01*
X37816Y69309D01*
X37883Y69408D01*
X37906Y69525D01*
X37883Y69642D01*
X37816Y69741D01*
X37717Y69808D01*
X37600Y69831D01*
D02*
G37*
G36*
X33200Y71456D02*
X33083Y71433D01*
X32984Y71366D01*
X32917Y71267D01*
X32894Y71150D01*
X32917Y71033D01*
X32984Y70934D01*
X33083Y70867D01*
X33200Y70844D01*
X33249Y70752D01*
X33244Y70725D01*
X33267Y70608D01*
X33334Y70509D01*
X33433Y70442D01*
X33550Y70419D01*
X33667Y70442D01*
X33766Y70509D01*
X33833Y70608D01*
X33856Y70725D01*
X33833Y70842D01*
X33766Y70941D01*
X33667Y71008D01*
X33550Y71031D01*
X33500Y71123D01*
X33506Y71150D01*
X33483Y71267D01*
X33416Y71366D01*
X33317Y71433D01*
X33200Y71456D01*
D02*
G37*
G36*
X46650Y70956D02*
X46533Y70933D01*
X46434Y70866D01*
X46367Y70767D01*
X46344Y70650D01*
X46367Y70533D01*
X46434Y70434D01*
X46533Y70367D01*
X46650Y70344D01*
X46767Y70367D01*
X46866Y70434D01*
X46933Y70533D01*
X46956Y70650D01*
X46933Y70767D01*
X46866Y70866D01*
X46767Y70933D01*
X46650Y70956D01*
D02*
G37*
G36*
X35950Y70606D02*
X35833Y70583D01*
X35734Y70516D01*
X35667Y70417D01*
X35644Y70300D01*
X35667Y70183D01*
X35734Y70084D01*
X35833Y70017D01*
X35950Y69994D01*
X36067Y70017D01*
X36166Y70084D01*
X36233Y70183D01*
X36256Y70300D01*
X36233Y70417D01*
X36166Y70516D01*
X36067Y70583D01*
X35950Y70606D01*
D02*
G37*
G36*
X35250Y73181D02*
X35133Y73158D01*
X35034Y73091D01*
X34967Y72992D01*
X34944Y72875D01*
X34967Y72758D01*
X35034Y72659D01*
X35133Y72592D01*
X35250Y72569D01*
X35367Y72592D01*
X35466Y72659D01*
X35533Y72758D01*
X35556Y72875D01*
X35533Y72992D01*
X35466Y73091D01*
X35367Y73158D01*
X35250Y73181D01*
D02*
G37*
G36*
X53275Y72531D02*
X53158Y72508D01*
X53059Y72441D01*
X53006Y72362D01*
X52962Y72353D01*
X52939D01*
X52895Y72362D01*
X52841Y72441D01*
X52742Y72508D01*
X52625Y72531D01*
X52508Y72508D01*
X52409Y72441D01*
X52342Y72342D01*
X52319Y72225D01*
X52342Y72108D01*
X52409Y72009D01*
X52508Y71943D01*
X52625Y71919D01*
X52742Y71943D01*
X52841Y72009D01*
X52895Y72088D01*
X52939Y72097D01*
X52962D01*
X53006Y72088D01*
X53059Y72009D01*
X53138Y71956D01*
X53147Y71912D01*
Y71889D01*
X53138Y71845D01*
X53059Y71791D01*
X52993Y71692D01*
X52969Y71575D01*
X52993Y71458D01*
X53059Y71359D01*
X53158Y71293D01*
X53275Y71269D01*
X53392Y71293D01*
X53491Y71359D01*
X53558Y71458D01*
X53581Y71575D01*
X53558Y71692D01*
X53491Y71791D01*
X53412Y71845D01*
X53403Y71889D01*
Y71912D01*
X53412Y71956D01*
X53491Y72009D01*
X53558Y72108D01*
X53581Y72225D01*
X53558Y72342D01*
X53491Y72441D01*
X53392Y72508D01*
X53275Y72531D01*
D02*
G37*
G36*
X55250Y72881D02*
X55133Y72858D01*
X55034Y72791D01*
X54967Y72692D01*
X54944Y72575D01*
X54967Y72458D01*
X55034Y72359D01*
X55133Y72292D01*
X55250Y72269D01*
X55367Y72292D01*
X55466Y72359D01*
X55533Y72458D01*
X55556Y72575D01*
X55533Y72692D01*
X55466Y72791D01*
X55367Y72858D01*
X55250Y72881D01*
D02*
G37*
G36*
X50375Y74156D02*
X50258Y74133D01*
X50159Y74066D01*
X50092Y73967D01*
X50069Y73850D01*
X50092Y73733D01*
X50159Y73634D01*
X50258Y73567D01*
X50375Y73544D01*
X50492Y73567D01*
X50591Y73634D01*
X50658Y73733D01*
X50681Y73850D01*
X50658Y73967D01*
X50591Y74066D01*
X50492Y74133D01*
X50375Y74156D01*
D02*
G37*
G36*
X50375Y73356D02*
X50258Y73333D01*
X50159Y73266D01*
X50092Y73167D01*
X50069Y73050D01*
X50092Y72933D01*
X50159Y72834D01*
X50258Y72768D01*
X50375Y72744D01*
X50492Y72768D01*
X50591Y72834D01*
X50658Y72933D01*
X50681Y73050D01*
X50658Y73167D01*
X50591Y73266D01*
X50492Y73333D01*
X50375Y73356D01*
D02*
G37*
G36*
X47325Y71606D02*
X47208Y71583D01*
X47109Y71516D01*
X47042Y71417D01*
X47019Y71300D01*
X47042Y71183D01*
X47109Y71084D01*
X47208Y71017D01*
X47325Y70994D01*
X47442Y71017D01*
X47541Y71084D01*
X47608Y71183D01*
X47631Y71300D01*
X47608Y71417D01*
X47541Y71516D01*
X47442Y71583D01*
X47325Y71606D01*
D02*
G37*
G36*
X51325Y72531D02*
X51208Y72508D01*
X51109Y72441D01*
X51042Y72342D01*
X51019Y72225D01*
X51042Y72108D01*
X51109Y72009D01*
X51208Y71943D01*
X51325Y71919D01*
X51442Y71943D01*
X51541Y72009D01*
X51608Y72108D01*
X51631Y72225D01*
X51608Y72342D01*
X51541Y72441D01*
X51442Y72508D01*
X51325Y72531D01*
D02*
G37*
G36*
X48075Y72531D02*
X47958Y72508D01*
X47859Y72441D01*
X47792Y72342D01*
X47769Y72225D01*
X47792Y72108D01*
X47859Y72009D01*
X47958Y71942D01*
X48075Y71919D01*
X48192Y71942D01*
X48291Y72009D01*
X48358Y72108D01*
X48381Y72225D01*
X48358Y72342D01*
X48291Y72441D01*
X48192Y72508D01*
X48075Y72531D01*
D02*
G37*
G36*
X44225Y72506D02*
X44108Y72483D01*
X44009Y72416D01*
X43942Y72317D01*
X43919Y72200D01*
X43942Y72083D01*
X44009Y71984D01*
X44108Y71917D01*
X44225Y71894D01*
X44342Y71917D01*
X44441Y71984D01*
X44508Y72083D01*
X44531Y72200D01*
X44508Y72317D01*
X44441Y72416D01*
X44342Y72483D01*
X44225Y72506D01*
D02*
G37*
G36*
X22000Y87106D02*
X21883Y87083D01*
X21784Y87016D01*
X21717Y86917D01*
X21694Y86800D01*
X21717Y86683D01*
X21784Y86584D01*
X21883Y86517D01*
X22000Y86494D01*
X22117Y86517D01*
X22216Y86584D01*
X22283Y86683D01*
X22306Y86800D01*
X22283Y86917D01*
X22216Y87016D01*
X22117Y87083D01*
X22000Y87106D01*
D02*
G37*
G36*
Y84606D02*
X21883Y84583D01*
X21750Y84530D01*
X21617Y84583D01*
X21500Y84606D01*
X21383Y84583D01*
X21284Y84516D01*
X21217Y84417D01*
X21194Y84300D01*
X21217Y84183D01*
X21284Y84084D01*
X21383Y84017D01*
X21500Y83994D01*
X21617Y84017D01*
X21750Y84070D01*
X21883Y84017D01*
X22000Y83994D01*
X22117Y84017D01*
X22216Y84084D01*
X22283Y84183D01*
X22306Y84300D01*
X22283Y84417D01*
X22216Y84516D01*
X22117Y84583D01*
X22000Y84606D01*
D02*
G37*
G36*
X24600Y67481D02*
X24483Y67458D01*
X24384Y67391D01*
X24317Y67292D01*
X24294Y67175D01*
X24317Y67058D01*
X24384Y66959D01*
X24483Y66892D01*
X24600Y66869D01*
X24717Y66892D01*
X24816Y66959D01*
X24883Y67058D01*
X24906Y67175D01*
X24883Y67292D01*
X24816Y67391D01*
X24717Y67458D01*
X24600Y67481D01*
D02*
G37*
G36*
X24650Y65806D02*
X24533Y65783D01*
X24434Y65716D01*
X24367Y65617D01*
X24344Y65500D01*
X24367Y65383D01*
X24434Y65284D01*
X24533Y65217D01*
X24650Y65194D01*
X24767Y65217D01*
X24866Y65284D01*
X24933Y65383D01*
X24956Y65500D01*
X24933Y65617D01*
X24866Y65716D01*
X24767Y65783D01*
X24650Y65806D01*
D02*
G37*
G36*
X28850Y67406D02*
X28733Y67383D01*
X28634Y67316D01*
X28567Y67217D01*
X28544Y67100D01*
X28567Y66983D01*
X28634Y66884D01*
X28713Y66831D01*
X28722Y66786D01*
Y66764D01*
X28713Y66719D01*
X28634Y66666D01*
X28567Y66567D01*
X28544Y66450D01*
X28567Y66333D01*
X28634Y66234D01*
X28713Y66181D01*
X28722Y66136D01*
Y66114D01*
X28713Y66069D01*
X28634Y66016D01*
X28567Y65917D01*
X28567Y65916D01*
X28462Y65898D01*
X28416Y65966D01*
X28317Y66033D01*
X28200Y66056D01*
X28083Y66033D01*
X27984Y65966D01*
X27917Y65867D01*
X27894Y65750D01*
X27917Y65633D01*
X27984Y65534D01*
X28083Y65467D01*
X28200Y65444D01*
X28317Y65467D01*
X28416Y65534D01*
X28483Y65633D01*
X28483Y65634D01*
X28588Y65652D01*
X28634Y65584D01*
X28733Y65517D01*
X28850Y65494D01*
X28967Y65517D01*
X29066Y65584D01*
X29133Y65683D01*
X29156Y65800D01*
X29133Y65917D01*
X29066Y66016D01*
X28987Y66069D01*
X28978Y66114D01*
Y66136D01*
X28987Y66181D01*
X29066Y66234D01*
X29133Y66333D01*
X29156Y66450D01*
X29133Y66567D01*
X29066Y66666D01*
X28987Y66719D01*
X28978Y66764D01*
Y66786D01*
X28987Y66831D01*
X29066Y66884D01*
X29133Y66983D01*
X29156Y67100D01*
X29133Y67217D01*
X29066Y67316D01*
X28967Y67383D01*
X28850Y67406D01*
D02*
G37*
G36*
X27475Y65806D02*
X27358Y65783D01*
X27259Y65716D01*
X27192Y65617D01*
X27169Y65500D01*
X27192Y65383D01*
X27213Y65352D01*
X27189Y65219D01*
X27184Y65216D01*
X27117Y65117D01*
X27094Y65000D01*
X27117Y64883D01*
X27184Y64784D01*
X27283Y64717D01*
X27400Y64694D01*
X27517Y64717D01*
X27616Y64784D01*
X27625Y64797D01*
X27725D01*
X27734Y64784D01*
X27833Y64717D01*
X27950Y64694D01*
X28067Y64717D01*
X28130Y64759D01*
X28200Y64776D01*
X28270Y64759D01*
X28333Y64717D01*
X28450Y64694D01*
X28567Y64717D01*
X28666Y64784D01*
X28733Y64883D01*
X28756Y65000D01*
X28733Y65117D01*
X28666Y65216D01*
X28567Y65283D01*
X28450Y65306D01*
X28333Y65283D01*
X28270Y65241D01*
X28200Y65224D01*
X28130Y65241D01*
X28067Y65283D01*
X27950Y65306D01*
X27833Y65283D01*
X27793Y65256D01*
X27721Y65328D01*
X27758Y65383D01*
X27781Y65500D01*
X27758Y65617D01*
X27691Y65716D01*
X27592Y65783D01*
X27475Y65806D01*
D02*
G37*
G36*
X15325Y81406D02*
X15208Y81383D01*
X15109Y81316D01*
X15042Y81217D01*
X15019Y81100D01*
X15042Y80983D01*
X15109Y80884D01*
X15208Y80817D01*
X15325Y80794D01*
X15442Y80817D01*
X15541Y80884D01*
X15608Y80983D01*
X15631Y81100D01*
X15608Y81217D01*
X15541Y81316D01*
X15442Y81383D01*
X15325Y81406D01*
D02*
G37*
G36*
X13525Y81106D02*
X13408Y81083D01*
X13309Y81016D01*
X13242Y80917D01*
X13219Y80800D01*
X13242Y80683D01*
X13309Y80584D01*
X13408Y80517D01*
X13525Y80494D01*
X13642Y80517D01*
X13741Y80584D01*
X13808Y80683D01*
X13831Y80800D01*
X13808Y80917D01*
X13741Y81016D01*
X13642Y81083D01*
X13525Y81106D01*
D02*
G37*
G36*
X16050Y83656D02*
X15933Y83633D01*
X15834Y83566D01*
X15767Y83467D01*
X15744Y83350D01*
X15767Y83233D01*
X15834Y83134D01*
X15933Y83067D01*
X16050Y83044D01*
X16167Y83067D01*
X16266Y83134D01*
X16333Y83233D01*
X16356Y83350D01*
X16333Y83467D01*
X16266Y83566D01*
X16167Y83633D01*
X16050Y83656D01*
D02*
G37*
G36*
X14300D02*
X14183Y83633D01*
X14084Y83566D01*
X14017Y83467D01*
X13994Y83350D01*
X14017Y83233D01*
X14084Y83134D01*
X14183Y83067D01*
X14300Y83044D01*
X14417Y83067D01*
X14516Y83134D01*
X14583Y83233D01*
X14606Y83350D01*
X14583Y83467D01*
X14516Y83566D01*
X14417Y83633D01*
X14300Y83656D01*
D02*
G37*
G36*
X12600D02*
X12483Y83633D01*
X12384Y83566D01*
X12317Y83467D01*
X12294Y83350D01*
X12317Y83233D01*
X12384Y83134D01*
X12483Y83067D01*
X12600Y83044D01*
X12717Y83067D01*
X12816Y83134D01*
X12883Y83233D01*
X12906Y83350D01*
X12883Y83467D01*
X12816Y83566D01*
X12717Y83633D01*
X12600Y83656D01*
D02*
G37*
G36*
X16050Y86056D02*
X15933Y86033D01*
X15834Y85966D01*
X15767Y85867D01*
X15744Y85750D01*
X15767Y85633D01*
X15834Y85534D01*
X15933Y85467D01*
X16050Y85444D01*
X16167Y85467D01*
X16266Y85534D01*
X16333Y85633D01*
X16356Y85750D01*
X16333Y85867D01*
X16266Y85966D01*
X16167Y86033D01*
X16050Y86056D01*
D02*
G37*
G36*
X14300D02*
X14183Y86033D01*
X14084Y85966D01*
X14017Y85867D01*
X13994Y85750D01*
X14017Y85633D01*
X14084Y85534D01*
X14183Y85467D01*
X14300Y85444D01*
X14417Y85467D01*
X14516Y85534D01*
X14583Y85633D01*
X14606Y85750D01*
X14583Y85867D01*
X14516Y85966D01*
X14417Y86033D01*
X14300Y86056D01*
D02*
G37*
G36*
X12600D02*
X12483Y86033D01*
X12384Y85966D01*
X12317Y85867D01*
X12294Y85750D01*
X12317Y85633D01*
X12384Y85534D01*
X12483Y85467D01*
X12600Y85444D01*
X12717Y85467D01*
X12816Y85534D01*
X12883Y85633D01*
X12906Y85750D01*
X12883Y85867D01*
X12816Y85966D01*
X12717Y86033D01*
X12600Y86056D01*
D02*
G37*
G36*
X12575Y84856D02*
X12458Y84833D01*
X12359Y84766D01*
X12292Y84667D01*
X12269Y84550D01*
X12292Y84433D01*
X12359Y84334D01*
X12458Y84267D01*
X12575Y84244D01*
X12692Y84267D01*
X12791Y84334D01*
X12858Y84433D01*
X12881Y84550D01*
X12858Y84667D01*
X12791Y84766D01*
X12692Y84833D01*
X12575Y84856D01*
D02*
G37*
G36*
X16050Y84881D02*
X15933Y84858D01*
X15834Y84791D01*
X15767Y84692D01*
X15744Y84575D01*
X15767Y84458D01*
X15834Y84359D01*
X15933Y84292D01*
X16050Y84269D01*
X16167Y84292D01*
X16266Y84359D01*
X16333Y84458D01*
X16356Y84575D01*
X16333Y84692D01*
X16266Y84791D01*
X16167Y84858D01*
X16050Y84881D01*
D02*
G37*
G36*
X14300D02*
X14183Y84858D01*
X14084Y84791D01*
X14017Y84692D01*
X13994Y84575D01*
X14017Y84458D01*
X14084Y84359D01*
X14183Y84292D01*
X14300Y84269D01*
X14417Y84292D01*
X14516Y84359D01*
X14583Y84458D01*
X14606Y84575D01*
X14583Y84692D01*
X14516Y84791D01*
X14417Y84858D01*
X14300Y84881D01*
D02*
G37*
%LPD*%
D23*
X23350Y64025D02*
X24675D01*
X21400Y65975D02*
X23350Y64025D01*
X21400Y65975D02*
Y67700D01*
X16600Y72500D02*
X21400Y67700D01*
X16600Y72500D02*
Y74850D01*
X16150Y75300D02*
X16600Y74850D01*
D24*
X31450Y69563D02*
Y69700D01*
X31900Y69100D02*
Y69113D01*
X31450Y69563D02*
X31900Y69113D01*
X32225Y69000D02*
Y69137D01*
X31802Y69560D02*
X32225Y69137D01*
X31802Y69560D02*
Y69948D01*
D25*
X16100Y92700D02*
X26625D01*
X14725Y91325D02*
X16100Y92700D01*
X14725Y88500D02*
Y91325D01*
X11725Y77100D02*
X12125D01*
X9788Y79037D02*
X11725Y77100D01*
X8425Y80400D02*
X9788Y79037D01*
X18625Y84300D02*
X19575Y83350D01*
X14950Y86925D02*
X16900D01*
X18275Y85550D01*
X14425Y87450D02*
X14950Y86925D01*
X14425Y87450D02*
Y88200D01*
X14725Y88500D01*
X18275Y85550D02*
X20225Y83600D01*
X26625Y92700D02*
X29750Y89575D01*
X20725Y72975D02*
X21175Y73425D01*
X23250Y65050D02*
X23700Y65500D01*
X24725Y61725D02*
X29525D01*
X32475Y64675D01*
Y65000D01*
X29750Y89575D02*
X30000D01*
X7550Y80625D02*
X9525Y82600D01*
X20525Y65925D02*
Y67625D01*
X15600Y72550D02*
X20525Y67625D01*
Y65925D02*
X24725Y61725D01*
X15600Y72550D02*
Y78175D01*
X19575Y82150D01*
Y83350D01*
X16600Y77350D02*
Y77800D01*
X20225Y81425D01*
Y83600D01*
X9050Y84150D02*
Y87575D01*
Y84150D02*
X10300Y82900D01*
Y81950D02*
Y82900D01*
X7550Y79889D02*
Y80625D01*
Y79889D02*
X8850Y78589D01*
X18850Y67800D02*
X19100D01*
X8850Y77800D02*
X18850Y67800D01*
X8850Y77800D02*
Y78589D01*
X12950Y76550D02*
X13550Y75950D01*
X12950Y76550D02*
Y77425D01*
X9975Y80400D02*
X12950Y77425D01*
X9975Y80400D02*
Y81625D01*
X10300Y81950D01*
D26*
X28950Y65025D02*
X28975Y65050D01*
X29200Y65400D02*
X30525D01*
X30200Y65775D02*
X30225D01*
D28*
X30163Y66438D02*
X30200Y66400D01*
X28900Y67700D02*
X30163Y66438D01*
X28975Y65025D02*
Y65050D01*
X31802Y69948D02*
X31975Y70120D01*
X29200Y65400D02*
X30200Y66400D01*
X28975Y65175D02*
X29200Y65400D01*
X21650Y88275D02*
X26000Y83925D01*
X15400Y88275D02*
X21650D01*
X14925Y87800D02*
X15400Y88275D01*
X30200Y66400D02*
X30250Y66350D01*
X28975Y65050D02*
Y65175D01*
X30525Y65425D02*
X30730Y65630D01*
X31975Y70120D02*
Y71150D01*
X30730Y65630D02*
X31805D01*
X32225Y66050D02*
Y69000D01*
X31805Y65630D02*
X32225Y66050D01*
X31900Y66250D02*
Y69100D01*
X31625Y65975D02*
X31900Y66250D01*
X30425Y65975D02*
X31625D01*
X30225Y65775D02*
X30425Y65975D01*
X30700Y95950D02*
X36888Y89762D01*
Y84188D02*
Y89762D01*
X39525Y75250D02*
Y81550D01*
X36888Y84188D02*
X39525Y81550D01*
X26000Y72125D02*
X26450Y71675D01*
X26000Y72125D02*
Y83925D01*
X12325Y95950D02*
X30700D01*
X11875Y89250D02*
X13025Y88100D01*
X11875Y89250D02*
Y95500D01*
X12325Y95950D01*
D36*
X44200Y64250D02*
D03*
X24650Y65500D02*
D03*
X38275Y78500D02*
D03*
X47425Y63775D02*
D03*
X46125Y64800D02*
D03*
X47350Y64525D02*
D03*
X46275Y68250D02*
D03*
X50375Y73850D02*
D03*
X57950Y69650D02*
D03*
X50675Y67025D02*
D03*
X43012Y65229D02*
D03*
X50675Y66375D02*
D03*
X43550Y65225D02*
D03*
X50675Y69625D02*
D03*
X45625Y71100D02*
D03*
X50675Y68975D02*
D03*
X43575Y71100D02*
D03*
X51700Y68350D02*
D03*
X51750Y66300D02*
D03*
X51525Y62750D02*
D03*
X44225Y72200D02*
D03*
X44225Y70150D02*
D03*
X44200Y66275D02*
D03*
X46650Y70650D02*
D03*
X47250Y70175D02*
D03*
X47125Y65900D02*
D03*
X50025Y72225D02*
D03*
X53300Y68950D02*
D03*
X36900Y69525D02*
D03*
X37600D02*
D03*
X35950Y70300D02*
D03*
X42775Y68250D02*
D03*
X36250Y69525D02*
D03*
X47325Y69400D02*
D03*
Y71300D02*
D03*
X48075Y72225D02*
D03*
X50000Y68350D02*
D03*
X10000Y83950D02*
D03*
X30175Y68400D02*
D03*
X31475Y69050D02*
D03*
Y70350D02*
D03*
X14925Y87800D02*
D03*
X16550Y91700D02*
D03*
Y92200D02*
D03*
X12650Y92975D02*
D03*
X13275Y92375D02*
D03*
X9050Y87575D02*
D03*
X13675Y76750D02*
D03*
X20750Y84275D02*
D03*
X20675Y81725D02*
D03*
X8375Y78375D02*
D03*
X13675Y77300D02*
D03*
X15325Y81100D02*
D03*
X18625Y84300D02*
D03*
X18275Y85550D02*
D03*
X13025Y88100D02*
D03*
X8425Y80400D02*
D03*
X10425Y80600D02*
D03*
X10325Y77750D02*
D03*
X19125Y82400D02*
D03*
X14125Y80700D02*
D03*
X9525Y82600D02*
D03*
X13525Y80800D02*
D03*
X12125Y77100D02*
D03*
X13525Y88600D02*
D03*
X13375Y91375D02*
D03*
X13975D02*
D03*
X13875Y92125D02*
D03*
X9025Y90250D02*
D03*
X10325D02*
D03*
X10825Y87400D02*
D03*
X10575Y91625D02*
D03*
Y92375D02*
D03*
X13425Y77900D02*
D03*
X13925D02*
D03*
X20175Y85950D02*
D03*
X16050Y83350D02*
D03*
Y84575D02*
D03*
Y85750D02*
D03*
X14300Y83350D02*
D03*
Y84575D02*
D03*
Y85750D02*
D03*
X12600Y83350D02*
D03*
X12575Y84550D02*
D03*
X12600Y85750D02*
D03*
X28400Y76800D02*
D03*
X31850Y83450D02*
D03*
X29050Y83925D02*
D03*
X28675Y91475D02*
D03*
X22000Y86800D02*
D03*
Y84300D02*
D03*
X23250Y65050D02*
D03*
X24600Y67175D02*
D03*
X31975Y71150D02*
D03*
X21175Y73425D02*
D03*
X82750Y4725D02*
D03*
X33550Y70225D02*
D03*
X31450Y69700D02*
D03*
X35250Y72875D02*
D03*
X28850Y67100D02*
D03*
Y69050D02*
D03*
X28200Y65750D02*
D03*
X28950Y65025D02*
D03*
X30150Y70350D02*
D03*
X30175Y69700D02*
D03*
X32475Y65000D02*
D03*
X31975D02*
D03*
X31475D02*
D03*
X33550Y65500D02*
D03*
Y66000D02*
D03*
Y66500D02*
D03*
X31475Y68400D02*
D03*
X33550Y68025D02*
D03*
Y67525D02*
D03*
Y69725D02*
D03*
X32150Y69700D02*
D03*
X33375Y67025D02*
D03*
X28450Y65000D02*
D03*
X27400D02*
D03*
Y66400D02*
D03*
X31500Y70950D02*
D03*
X31475Y67100D02*
D03*
X27400Y66900D02*
D03*
X27950Y65000D02*
D03*
X28850Y65800D02*
D03*
X33550Y69225D02*
D03*
X35200Y63200D02*
D03*
X35600Y65575D02*
D03*
X33550Y65000D02*
D03*
X30200Y65025D02*
D03*
X30175Y65800D02*
D03*
X31475Y66450D02*
D03*
X36075Y75925D02*
D03*
X36625D02*
D03*
X33700Y59275D02*
D03*
X59425Y79400D02*
D03*
X30175Y69050D02*
D03*
Y67750D02*
D03*
Y67100D02*
D03*
X28850Y66450D02*
D03*
X30175D02*
D03*
X28850Y67750D02*
D03*
X27400Y71150D02*
D03*
X28200Y70350D02*
D03*
X31475Y67750D02*
D03*
X28850Y68400D02*
D03*
X31975Y62600D02*
D03*
X25150Y69575D02*
D03*
X25575Y72675D02*
D03*
X25675Y63300D02*
D03*
X28000Y62375D02*
D03*
X33550Y68725D02*
D03*
X35600Y68175D02*
D03*
X29500Y70350D02*
D03*
X28850D02*
D03*
X27350Y69900D02*
D03*
X27900Y71150D02*
D03*
X33500Y60525D02*
D03*
X27475Y65500D02*
D03*
X29800Y71150D02*
D03*
X28400D02*
D03*
X30300D02*
D03*
X27500Y67400D02*
D03*
X27400Y67900D02*
D03*
X27350Y69400D02*
D03*
X27600Y68400D02*
D03*
X27400Y68900D02*
D03*
X28200Y69650D02*
D03*
X29300Y71150D02*
D03*
X34200Y59250D02*
D03*
X32975Y65000D02*
D03*
X31200Y60975D02*
D03*
X32725Y61375D02*
D03*
X32775Y67100D02*
D03*
X33200Y71150D02*
D03*
X33550Y70725D02*
D03*
X32775Y69675D02*
D03*
Y68400D02*
D03*
X33125Y81100D02*
D03*
X27650Y89450D02*
D03*
X30075Y88475D02*
D03*
X27750Y88425D02*
D03*
X30150Y91450D02*
D03*
X29675Y85925D02*
D03*
X28900D02*
D03*
X36500Y85650D02*
D03*
X30075Y86975D02*
D03*
X28900D02*
D03*
X21500Y84300D02*
D03*
X21500Y87800D02*
D03*
X30000Y89575D02*
D03*
X29400Y83450D02*
D03*
X28525Y73250D02*
D03*
X29750Y75475D02*
D03*
X30200Y77025D02*
D03*
X27900Y74375D02*
D03*
X28875Y74000D02*
D03*
X16600Y77350D02*
D03*
Y76800D02*
D03*
X16150Y75300D02*
D03*
X18350Y75925D02*
D03*
X18125Y83325D02*
D03*
X19100Y67800D02*
D03*
X28850Y69650D02*
D03*
X37000Y82950D02*
D03*
X7425Y85475D02*
D03*
X6900Y86650D02*
D03*
X7025Y89250D02*
D03*
X7125Y91550D02*
D03*
X8675Y93175D02*
D03*
X11125Y94575D02*
D03*
X15200Y94600D02*
D03*
X20375D02*
D03*
X25075D02*
D03*
X29175Y94575D02*
D03*
X33050D02*
D03*
X35650D02*
D03*
X37000Y93125D02*
D03*
X39125Y90950D02*
D03*
X40900Y89175D02*
D03*
X32475Y71050D02*
D03*
X17300Y79200D02*
D03*
X15875Y71625D02*
D03*
X20975Y66675D02*
D03*
X16100Y73150D02*
D03*
X13550Y75950D02*
D03*
X9300Y80600D02*
D03*
X49800Y58000D02*
D03*
X51125Y73000D02*
D03*
X50375Y73050D02*
D03*
X51925Y70925D02*
D03*
X51325Y72225D02*
D03*
X48075Y63775D02*
D03*
X53275Y65725D02*
D03*
X53925Y70925D02*
D03*
X53275Y71575D02*
D03*
X52625Y72225D02*
D03*
X54350Y70250D02*
D03*
X53275Y72225D02*
D03*
X53925Y63775D02*
D03*
X53275Y63775D02*
D03*
X54300Y66375D02*
D03*
X52625Y66375D02*
D03*
X53275D02*
D03*
X52625Y70925D02*
D03*
X53275Y70275D02*
D03*
X50675Y64425D02*
D03*
X50025D02*
D03*
X47250Y66670D02*
D03*
X50025Y70925D02*
D03*
X51400Y67000D02*
D03*
X52625Y65075D02*
D03*
X51975D02*
D03*
X52625Y67025D02*
D03*
X50675Y68325D02*
D03*
X51825Y69875D02*
D03*
X51450Y68825D02*
D03*
X50675Y70925D02*
D03*
X54300Y67425D02*
D03*
Y68000D02*
D03*
X50775Y62000D02*
D03*
X57900Y66625D02*
D03*
X51950Y60600D02*
D03*
X55250Y72575D02*
D03*
X39400Y68250D02*
D03*
X38800D02*
D03*
X36525Y66225D02*
D03*
X36300Y68175D02*
D03*
X37625Y68250D02*
D03*
X52625Y67675D02*
D03*
X38125Y68250D02*
D03*
X52625Y68325D02*
D03*
X53300Y69600D02*
D03*
X45087Y71104D02*
D03*
X50025Y62100D02*
D03*
X53925Y69625D02*
D03*
X54300Y65075D02*
D03*
Y65600D02*
D03*
X47225Y72075D02*
D03*
D37*
X22800Y89350D02*
D03*
X64400Y1425D02*
D03*
X3650Y26550D02*
D03*
X21075Y2425D02*
D03*
X21250Y104175D02*
D03*
X26800Y115375D02*
D03*
X9650Y110500D02*
D03*
X3875Y115700D02*
D03*
X56575Y26425D02*
D03*
X82625Y27975D02*
D03*
X44125Y4175D02*
D03*
X3100Y5150D02*
D03*
X49150Y82200D02*
D03*
X44800Y82050D02*
D03*
X54750Y82075D02*
D03*
X24750Y96475D02*
D03*
X78850Y76925D02*
D03*
X77800Y94450D02*
D03*
X77925Y86425D02*
D03*
X65000Y78725D02*
D03*
X63500Y81900D02*
D03*
X64950Y86775D02*
D03*
X58950Y82000D02*
D03*
X64150Y94525D02*
D03*
X40400Y94900D02*
D03*
X7775Y104275D02*
D03*
X19925Y89075D02*
D03*
X31650Y96425D02*
D03*
X18500Y96475D02*
D03*
X13350Y96500D02*
D03*
X6900Y96000D02*
D03*
X3425Y92950D02*
D03*
X4300Y85825D02*
D03*
X4400Y73375D02*
D03*
X8550Y73150D02*
D03*
X12325Y72975D02*
D03*
X17700Y72600D02*
D03*
X14925Y68325D02*
D03*
X15475Y63925D02*
D03*
X16600Y59050D02*
D03*
X26100D02*
D03*
X31475D02*
D03*
X40600Y103600D02*
D03*
X40675Y111425D02*
D03*
X51150Y111950D02*
D03*
X64125Y112025D02*
D03*
X76950Y112250D02*
D03*
X51225Y103675D02*
D03*
X64200Y103525D02*
D03*
X77175Y103450D02*
D03*
X51075Y94650D02*
D03*
X77175Y66025D02*
D03*
X77400Y54650D02*
D03*
X77475Y46825D02*
D03*
X64500Y46225D02*
D03*
X51075Y46375D02*
D03*
X40450Y46150D02*
D03*
X15375Y44500D02*
D03*
X26075Y44300D02*
D03*
X4575Y43700D02*
D03*
X5675Y52800D02*
D03*
X6175Y61075D02*
D03*
X6475Y67750D02*
D03*
X64400Y57275D02*
D03*
X64625Y67225D02*
D03*
X25050Y82925D02*
D03*
Y78200D02*
D03*
X1550Y96950D02*
D03*
X15350Y52750D02*
D03*
X26200Y52650D02*
D03*
X15850Y26325D02*
D03*
X25975D02*
D03*
X40275Y26275D02*
D03*
X70050Y26425D02*
D03*
M02*
