G04 Layer_Physical_Order=2*
G04 Layer_Color=36540*
%FSLAX43Y43*%
%MOMM*%
G71*
G01*
G75*
%ADD25C,0.300*%
%ADD36C,0.400*%
%ADD37C,0.600*%
G36*
X85592Y408D02*
X408D01*
Y119592D01*
X85592D01*
Y408D01*
D02*
G37*
%LPC*%
G36*
X32775Y68706D02*
X32658Y68683D01*
X32559Y68616D01*
X32492Y68517D01*
X32469Y68400D01*
X32492Y68283D01*
X32559Y68184D01*
X32658Y68117D01*
X32775Y68094D01*
X32892Y68117D01*
X32991Y68184D01*
X33058Y68283D01*
X33081Y68400D01*
X33058Y68517D01*
X32991Y68616D01*
X32892Y68683D01*
X32775Y68706D01*
D02*
G37*
G36*
X50675Y69931D02*
X50558Y69908D01*
X50459Y69841D01*
X50392Y69742D01*
X50369Y69625D01*
X50392Y69508D01*
X50459Y69409D01*
X50538Y69356D01*
X50547Y69311D01*
Y69289D01*
X50538Y69245D01*
X50459Y69191D01*
X50392Y69092D01*
X50369Y68975D01*
X50392Y68858D01*
X50459Y68759D01*
X50538Y68706D01*
X50547Y68662D01*
X50547Y68638D01*
X50538Y68594D01*
X50459Y68541D01*
X50393Y68442D01*
X50369Y68325D01*
X50393Y68208D01*
X50459Y68109D01*
X50465Y68105D01*
X50434Y68005D01*
X49831D01*
X49655Y68180D01*
X49573Y68235D01*
X49475Y68255D01*
X46631D01*
X46567Y68318D01*
X46558Y68367D01*
X46491Y68466D01*
X46392Y68533D01*
X46275Y68556D01*
X46158Y68533D01*
X46059Y68466D01*
X45992Y68367D01*
X45969Y68250D01*
X45992Y68133D01*
X46059Y68034D01*
X46158Y67967D01*
X46207Y67958D01*
X46345Y67820D01*
X46427Y67765D01*
X46525Y67745D01*
X49369D01*
X49545Y67570D01*
X49627Y67515D01*
X49725Y67495D01*
X51194D01*
X51312Y67378D01*
X51292Y67313D01*
X51272Y67276D01*
X51184Y67216D01*
X51117Y67117D01*
X51094Y67000D01*
X51117Y66883D01*
X51184Y66784D01*
X51283Y66718D01*
X51400Y66694D01*
X51517Y66718D01*
X51616Y66784D01*
X51676Y66873D01*
X51713Y66892D01*
X51778Y66912D01*
X51845Y66845D01*
X51927Y66790D01*
X52025Y66770D01*
X52441D01*
X52496Y66682D01*
X52488Y66644D01*
X52409Y66591D01*
X52342Y66492D01*
X52319Y66375D01*
X52342Y66258D01*
X52409Y66159D01*
X52508Y66093D01*
X52625Y66069D01*
X52742Y66093D01*
X52841Y66159D01*
X52895Y66238D01*
X52939Y66247D01*
X52962D01*
X53006Y66238D01*
X53059Y66159D01*
X53138Y66106D01*
X53147Y66062D01*
Y66039D01*
X53138Y65995D01*
X53059Y65941D01*
X52993Y65842D01*
X52969Y65725D01*
X52993Y65608D01*
X53059Y65509D01*
X53158Y65443D01*
X53275Y65419D01*
X53392Y65443D01*
X53491Y65509D01*
X53558Y65608D01*
X53581Y65725D01*
X53558Y65842D01*
X53491Y65941D01*
X53412Y65995D01*
X53403Y66039D01*
Y66062D01*
X53412Y66106D01*
X53491Y66159D01*
X53558Y66258D01*
X53581Y66375D01*
X53558Y66492D01*
X53491Y66591D01*
X53392Y66658D01*
X53275Y66681D01*
X53158Y66658D01*
X53059Y66591D01*
X53006Y66512D01*
X52962Y66503D01*
X52939D01*
X52895Y66512D01*
X52841Y66591D01*
X52762Y66645D01*
X52753Y66688D01*
X52753Y66712D01*
X52762Y66756D01*
X52841Y66809D01*
X52908Y66908D01*
X52931Y67025D01*
X52908Y67142D01*
X52841Y67241D01*
X52762Y67294D01*
X52753Y67339D01*
X52753Y67361D01*
X52762Y67406D01*
X52841Y67459D01*
X52908Y67558D01*
X52931Y67675D01*
X52908Y67792D01*
X52841Y67891D01*
X52762Y67945D01*
X52753Y67989D01*
Y68012D01*
X52762Y68056D01*
X52841Y68109D01*
X52908Y68208D01*
X52931Y68325D01*
X52908Y68442D01*
X52841Y68541D01*
X52742Y68608D01*
X52625Y68631D01*
X52508Y68608D01*
X52409Y68541D01*
X52342Y68442D01*
X52319Y68325D01*
X52342Y68208D01*
X52409Y68109D01*
X52488Y68056D01*
X52497Y68012D01*
Y67989D01*
X52488Y67945D01*
X52409Y67891D01*
X52342Y67792D01*
X52319Y67675D01*
X52342Y67558D01*
X52409Y67459D01*
X52488Y67406D01*
X52496Y67368D01*
X52440Y67280D01*
X52131D01*
X51480Y67930D01*
X51398Y67985D01*
X51300Y68005D01*
X50916D01*
X50886Y68105D01*
X50891Y68109D01*
X50958Y68208D01*
X50981Y68325D01*
X50958Y68442D01*
X50891Y68541D01*
X50812Y68595D01*
X50803Y68638D01*
X50803Y68662D01*
X50812Y68706D01*
X50891Y68759D01*
X50958Y68858D01*
X50981Y68975D01*
X50958Y69092D01*
X50891Y69191D01*
X50812Y69245D01*
X50803Y69289D01*
Y69311D01*
X50812Y69356D01*
X50891Y69409D01*
X50958Y69508D01*
X50981Y69625D01*
X50958Y69742D01*
X50891Y69841D01*
X50792Y69908D01*
X50675Y69931D01*
D02*
G37*
G36*
X36300Y68481D02*
X36183Y68458D01*
X36084Y68391D01*
X36017Y68292D01*
X35994Y68175D01*
X36017Y68058D01*
X36084Y67959D01*
X36183Y67892D01*
X36300Y67869D01*
X36417Y67892D01*
X36516Y67959D01*
X36583Y68058D01*
X36606Y68175D01*
X36583Y68292D01*
X36516Y68391D01*
X36417Y68458D01*
X36300Y68481D01*
D02*
G37*
G36*
X51450Y69131D02*
X51333Y69108D01*
X51234Y69041D01*
X51167Y68942D01*
X51144Y68825D01*
X51167Y68708D01*
X51234Y68609D01*
X51333Y68542D01*
X51450Y68519D01*
X51567Y68542D01*
X51666Y68609D01*
X51733Y68708D01*
X51756Y68825D01*
X51733Y68942D01*
X51666Y69041D01*
X51567Y69108D01*
X51450Y69131D01*
D02*
G37*
G36*
X39400Y68556D02*
X39283Y68533D01*
X39184Y68466D01*
X39160Y68431D01*
X39040D01*
X39016Y68466D01*
X38917Y68533D01*
X38800Y68556D01*
X38683Y68533D01*
X38584Y68466D01*
X38517Y68367D01*
X38513Y68347D01*
X38412D01*
X38408Y68367D01*
X38341Y68466D01*
X38242Y68533D01*
X38125Y68556D01*
X38008Y68533D01*
X37945Y68491D01*
X37875Y68474D01*
X37805Y68491D01*
X37742Y68533D01*
X37625Y68556D01*
X37508Y68533D01*
X37409Y68466D01*
X37342Y68367D01*
X37319Y68250D01*
X37342Y68133D01*
X37409Y68034D01*
X37508Y67967D01*
X37625Y67944D01*
X37742Y67967D01*
X37805Y68009D01*
X37875Y68026D01*
X37945Y68009D01*
X38008Y67967D01*
X38125Y67944D01*
X38242Y67967D01*
X38341Y68034D01*
X38408Y68133D01*
X38412Y68153D01*
X38513D01*
X38517Y68133D01*
X38584Y68034D01*
X38683Y67967D01*
X38800Y67944D01*
X38917Y67967D01*
X39016Y68034D01*
X39040Y68069D01*
X39160D01*
X39184Y68034D01*
X39283Y67967D01*
X39400Y67944D01*
X39517Y67967D01*
X39616Y68034D01*
X39683Y68133D01*
X39706Y68250D01*
X39683Y68367D01*
X39616Y68466D01*
X39517Y68533D01*
X39400Y68556D01*
D02*
G37*
G36*
X33550Y69531D02*
X33433Y69508D01*
X33334Y69441D01*
X33267Y69342D01*
X33244Y69225D01*
X33267Y69108D01*
X33309Y69045D01*
X33326Y68975D01*
X33309Y68905D01*
X33267Y68842D01*
X33244Y68725D01*
X33267Y68608D01*
X33334Y68509D01*
X33433Y68442D01*
X33550Y68419D01*
X33667Y68442D01*
X33766Y68509D01*
X33833Y68608D01*
X33856Y68725D01*
X33833Y68842D01*
X33791Y68905D01*
X33774Y68975D01*
X33791Y69045D01*
X33833Y69108D01*
X33856Y69225D01*
X33833Y69342D01*
X33766Y69441D01*
X33667Y69508D01*
X33550Y69531D01*
D02*
G37*
G36*
X28850Y68056D02*
X28733Y68033D01*
X28634Y67966D01*
X28567Y67867D01*
X28544Y67750D01*
X28567Y67633D01*
X28634Y67534D01*
X28733Y67467D01*
X28850Y67444D01*
X28967Y67467D01*
X29066Y67534D01*
X29133Y67633D01*
X29156Y67750D01*
X29133Y67867D01*
X29066Y67966D01*
X28967Y68033D01*
X28850Y68056D01*
D02*
G37*
G36*
X33550Y67831D02*
X33433Y67808D01*
X33334Y67741D01*
X33267Y67642D01*
X33244Y67525D01*
X33267Y67411D01*
X33274Y67347D01*
X33258Y67308D01*
X33159Y67241D01*
X33156Y67237D01*
X33127Y67231D01*
X33040Y67243D01*
X32991Y67316D01*
X32892Y67383D01*
X32775Y67406D01*
X32658Y67383D01*
X32559Y67316D01*
X32492Y67217D01*
X32469Y67100D01*
X32492Y66983D01*
X32559Y66884D01*
X32658Y66817D01*
X32775Y66794D01*
X32892Y66817D01*
X32991Y66884D01*
X32994Y66888D01*
X33023Y66894D01*
X33110Y66882D01*
X33159Y66809D01*
X33258Y66742D01*
X33375Y66719D01*
X33492Y66742D01*
X33591Y66809D01*
X33658Y66908D01*
X33681Y67025D01*
X33658Y67139D01*
X33651Y67203D01*
X33667Y67242D01*
X33766Y67309D01*
X33833Y67408D01*
X33856Y67525D01*
X33833Y67642D01*
X33766Y67741D01*
X33667Y67808D01*
X33550Y67831D01*
D02*
G37*
G36*
X54300Y67731D02*
X54183Y67708D01*
X54084Y67641D01*
X54017Y67542D01*
X53994Y67425D01*
X54017Y67308D01*
X54084Y67209D01*
X54183Y67142D01*
X54300Y67119D01*
X54417Y67142D01*
X54516Y67209D01*
X54583Y67308D01*
X54606Y67425D01*
X54583Y67542D01*
X54516Y67641D01*
X54417Y67708D01*
X54300Y67731D01*
D02*
G37*
G36*
X19100Y68106D02*
X18983Y68083D01*
X18884Y68016D01*
X18817Y67917D01*
X18794Y67800D01*
X18817Y67683D01*
X18884Y67584D01*
X18983Y67517D01*
X19100Y67494D01*
X19217Y67517D01*
X19316Y67584D01*
X19383Y67683D01*
X19406Y67800D01*
X19383Y67917D01*
X19316Y68016D01*
X19217Y68083D01*
X19100Y68106D01*
D02*
G37*
G36*
X31475Y68056D02*
X31358Y68033D01*
X31259Y67966D01*
X31192Y67867D01*
X31169Y67750D01*
X31192Y67633D01*
X31259Y67534D01*
X31358Y67467D01*
X31475Y67444D01*
X31592Y67467D01*
X31691Y67534D01*
X31758Y67633D01*
X31781Y67750D01*
X31758Y67867D01*
X31691Y67966D01*
X31592Y68033D01*
X31475Y68056D01*
D02*
G37*
G36*
X30175D02*
X30058Y68033D01*
X29959Y67966D01*
X29892Y67867D01*
X29869Y67750D01*
X29892Y67633D01*
X29959Y67534D01*
X30058Y67467D01*
X30175Y67444D01*
X30292Y67467D01*
X30391Y67534D01*
X30458Y67633D01*
X30481Y67750D01*
X30458Y67867D01*
X30391Y67966D01*
X30292Y68033D01*
X30175Y68056D01*
D02*
G37*
G36*
X33550Y71031D02*
X33433Y71008D01*
X33334Y70941D01*
X33267Y70842D01*
X33244Y70725D01*
X33267Y70608D01*
X33309Y70545D01*
X33326Y70475D01*
X33309Y70405D01*
X33267Y70342D01*
X33244Y70225D01*
X33267Y70108D01*
X33334Y70009D01*
X33433Y69942D01*
X33550Y69919D01*
X33667Y69942D01*
X33766Y70009D01*
X33833Y70108D01*
X33856Y70225D01*
X33833Y70342D01*
X33791Y70405D01*
X33774Y70475D01*
X33791Y70545D01*
X33833Y70608D01*
X33856Y70725D01*
X33833Y70842D01*
X33766Y70941D01*
X33667Y71008D01*
X33550Y71031D01*
D02*
G37*
G36*
X47250Y70481D02*
X47133Y70458D01*
X47034Y70391D01*
X46967Y70292D01*
X46944Y70175D01*
X46967Y70058D01*
X47034Y69959D01*
X47133Y69892D01*
X47250Y69869D01*
X47367Y69892D01*
X47466Y69959D01*
X47533Y70058D01*
X47556Y70175D01*
X47533Y70292D01*
X47466Y70391D01*
X47367Y70458D01*
X47250Y70481D01*
D02*
G37*
G36*
X44225Y70456D02*
X44108Y70433D01*
X44009Y70366D01*
X43942Y70267D01*
X43919Y70150D01*
X43942Y70033D01*
X44009Y69934D01*
X44108Y69867D01*
X44225Y69844D01*
X44342Y69867D01*
X44441Y69934D01*
X44508Y70033D01*
X44531Y70150D01*
X44508Y70267D01*
X44441Y70366D01*
X44342Y70433D01*
X44225Y70456D01*
D02*
G37*
G36*
X50675Y71231D02*
X50558Y71208D01*
X50459Y71141D01*
X50393Y71042D01*
X50369Y70925D01*
X50393Y70808D01*
X50459Y70709D01*
X50558Y70643D01*
X50675Y70619D01*
X50792Y70643D01*
X50891Y70709D01*
X50958Y70808D01*
X50981Y70925D01*
X50958Y71042D01*
X50891Y71141D01*
X50792Y71208D01*
X50675Y71231D01*
D02*
G37*
G36*
X30150Y70656D02*
X30033Y70633D01*
X29934Y70566D01*
X29881Y70487D01*
X29836Y70478D01*
X29814D01*
X29769Y70487D01*
X29716Y70566D01*
X29617Y70633D01*
X29500Y70656D01*
X29383Y70633D01*
X29284Y70566D01*
X29231Y70487D01*
X29186Y70478D01*
X29164D01*
X29119Y70487D01*
X29066Y70566D01*
X28967Y70633D01*
X28850Y70656D01*
X28733Y70633D01*
X28634Y70566D01*
X28581Y70487D01*
X28536Y70478D01*
X28514D01*
X28469Y70487D01*
X28416Y70566D01*
X28317Y70633D01*
X28200Y70656D01*
X28083Y70633D01*
X27984Y70566D01*
X27917Y70467D01*
X27894Y70350D01*
X27917Y70233D01*
X27984Y70134D01*
X28083Y70067D01*
X28137Y70057D01*
X28166Y70051D01*
Y69949D01*
X28137Y69943D01*
X28083Y69933D01*
X27984Y69866D01*
X27917Y69767D01*
X27894Y69650D01*
X27917Y69533D01*
X27984Y69434D01*
X28083Y69367D01*
X28200Y69344D01*
X28317Y69367D01*
X28416Y69434D01*
X28469Y69513D01*
X28514Y69522D01*
X28536D01*
X28581Y69513D01*
X28634Y69434D01*
X28669Y69410D01*
Y69290D01*
X28634Y69266D01*
X28567Y69167D01*
X28544Y69050D01*
X28567Y68933D01*
X28634Y68834D01*
X28733Y68767D01*
X28850Y68744D01*
X28967Y68767D01*
X29066Y68834D01*
X29133Y68933D01*
X29156Y69050D01*
X29133Y69167D01*
X29066Y69266D01*
X29031Y69290D01*
Y69410D01*
X29066Y69434D01*
X29133Y69533D01*
X29156Y69650D01*
X29133Y69767D01*
X29066Y69866D01*
X28967Y69933D01*
X28913Y69943D01*
X28884Y69949D01*
Y70051D01*
X28913Y70057D01*
X28967Y70067D01*
X29066Y70134D01*
X29119Y70213D01*
X29164Y70222D01*
X29186D01*
X29231Y70213D01*
X29284Y70134D01*
X29383Y70067D01*
X29500Y70044D01*
X29617Y70067D01*
X29716Y70134D01*
X29769Y70213D01*
X29814Y70222D01*
X29836D01*
X29881Y70213D01*
X29934Y70134D01*
X30033Y70067D01*
X30150Y70044D01*
X30267Y70067D01*
X30366Y70134D01*
X30433Y70233D01*
X30456Y70350D01*
X30433Y70467D01*
X30366Y70566D01*
X30267Y70633D01*
X30150Y70656D01*
D02*
G37*
G36*
X35950Y70606D02*
X35833Y70583D01*
X35734Y70516D01*
X35667Y70417D01*
X35644Y70300D01*
X35667Y70183D01*
X35734Y70084D01*
X35833Y70017D01*
X35950Y69994D01*
X36067Y70017D01*
X36166Y70084D01*
X36233Y70183D01*
X36256Y70300D01*
X36233Y70417D01*
X36166Y70516D01*
X36067Y70583D01*
X35950Y70606D01*
D02*
G37*
G36*
X53275Y70581D02*
X53158Y70558D01*
X53059Y70491D01*
X52993Y70392D01*
X52969Y70275D01*
X52993Y70158D01*
X53059Y70059D01*
X53158Y69993D01*
X53190Y69986D01*
Y69884D01*
X53183Y69883D01*
X53084Y69816D01*
X53017Y69717D01*
X52994Y69600D01*
X53017Y69483D01*
X53084Y69384D01*
X53163Y69330D01*
X53172Y69287D01*
X53172Y69264D01*
X53163Y69219D01*
X53084Y69166D01*
X53018Y69067D01*
X52994Y68950D01*
X53018Y68833D01*
X53084Y68734D01*
X53183Y68667D01*
X53300Y68644D01*
X53417Y68667D01*
X53516Y68734D01*
X53583Y68833D01*
X53606Y68950D01*
X53583Y69067D01*
X53516Y69166D01*
X53437Y69220D01*
X53428Y69263D01*
X53428Y69286D01*
X53437Y69331D01*
X53516Y69384D01*
X53561Y69450D01*
X53661Y69461D01*
X53676Y69457D01*
X53709Y69409D01*
X53808Y69342D01*
X53925Y69319D01*
X54042Y69342D01*
X54141Y69409D01*
X54208Y69508D01*
X54231Y69625D01*
X54208Y69742D01*
X54141Y69841D01*
X54042Y69908D01*
X53925Y69931D01*
X53808Y69908D01*
X53709Y69841D01*
X53664Y69775D01*
X53564Y69764D01*
X53549Y69768D01*
X53516Y69816D01*
X53417Y69883D01*
X53385Y69889D01*
Y69991D01*
X53392Y69993D01*
X53491Y70059D01*
X53558Y70158D01*
X53581Y70275D01*
X53558Y70392D01*
X53491Y70491D01*
X53392Y70558D01*
X53275Y70581D01*
D02*
G37*
G36*
X31450Y70006D02*
X31333Y69983D01*
X31234Y69916D01*
X31167Y69817D01*
X31144Y69700D01*
X31167Y69583D01*
X31234Y69484D01*
X31326Y69422D01*
X31329Y69414D01*
X31333Y69385D01*
X31332Y69316D01*
X31259Y69266D01*
X31192Y69167D01*
X31169Y69050D01*
X31192Y68933D01*
X31259Y68834D01*
X31358Y68767D01*
X31475Y68744D01*
X31592Y68767D01*
X31691Y68834D01*
X31758Y68933D01*
X31781Y69050D01*
X31758Y69167D01*
X31691Y69266D01*
X31599Y69328D01*
X31596Y69336D01*
X31592Y69365D01*
X31593Y69434D01*
X31666Y69484D01*
X31733Y69583D01*
X31756Y69700D01*
X31733Y69817D01*
X31666Y69916D01*
X31567Y69983D01*
X31450Y70006D01*
D02*
G37*
G36*
X30175Y69356D02*
X30058Y69333D01*
X29959Y69266D01*
X29892Y69167D01*
X29869Y69050D01*
X29892Y68933D01*
X29959Y68834D01*
X30058Y68767D01*
X30175Y68744D01*
X30292Y68767D01*
X30391Y68834D01*
X30458Y68933D01*
X30481Y69050D01*
X30458Y69167D01*
X30391Y69266D01*
X30292Y69333D01*
X30175Y69356D01*
D02*
G37*
G36*
X51825Y70181D02*
X51708Y70158D01*
X51609Y70091D01*
X51542Y69992D01*
X51519Y69875D01*
X51542Y69758D01*
X51609Y69659D01*
X51708Y69593D01*
X51825Y69569D01*
X51942Y69593D01*
X52041Y69659D01*
X52108Y69758D01*
X52131Y69875D01*
X52108Y69992D01*
X52041Y70091D01*
X51942Y70158D01*
X51825Y70181D01*
D02*
G37*
G36*
X37600Y69831D02*
X37483Y69808D01*
X37384Y69741D01*
X37317Y69642D01*
X37307Y69588D01*
X37301Y69559D01*
X37199D01*
X37193Y69588D01*
X37183Y69642D01*
X37116Y69741D01*
X37017Y69808D01*
X36900Y69831D01*
X36783Y69808D01*
X36684Y69741D01*
X36631Y69662D01*
X36586Y69653D01*
X36564D01*
X36519Y69662D01*
X36466Y69741D01*
X36367Y69808D01*
X36250Y69831D01*
X36133Y69808D01*
X36034Y69741D01*
X35967Y69642D01*
X35944Y69525D01*
X35967Y69408D01*
X36034Y69309D01*
X36133Y69242D01*
X36250Y69219D01*
X36367Y69242D01*
X36466Y69309D01*
X36519Y69388D01*
X36564Y69397D01*
X36586D01*
X36631Y69388D01*
X36684Y69309D01*
X36783Y69242D01*
X36900Y69219D01*
X37017Y69242D01*
X37116Y69309D01*
X37183Y69408D01*
X37193Y69462D01*
X37199Y69491D01*
X37301D01*
X37307Y69462D01*
X37317Y69408D01*
X37384Y69309D01*
X37483Y69242D01*
X37600Y69219D01*
X37717Y69242D01*
X37816Y69309D01*
X37883Y69408D01*
X37906Y69525D01*
X37883Y69642D01*
X37816Y69741D01*
X37717Y69808D01*
X37600Y69831D01*
D02*
G37*
G36*
X32775Y69981D02*
X32658Y69958D01*
X32559Y69891D01*
X32492Y69792D01*
X32469Y69675D01*
X32492Y69558D01*
X32559Y69459D01*
X32658Y69392D01*
X32775Y69369D01*
X32892Y69392D01*
X32991Y69459D01*
X33058Y69558D01*
X33081Y69675D01*
X33058Y69792D01*
X32991Y69891D01*
X32892Y69958D01*
X32775Y69981D01*
D02*
G37*
G36*
X31475Y66756D02*
X31358Y66733D01*
X31259Y66666D01*
X31192Y66567D01*
X31169Y66450D01*
X31192Y66333D01*
X31259Y66234D01*
X31358Y66167D01*
X31475Y66144D01*
X31592Y66167D01*
X31691Y66234D01*
X31758Y66333D01*
X31781Y66450D01*
X31758Y66567D01*
X31691Y66666D01*
X31592Y66733D01*
X31475Y66756D01*
D02*
G37*
G36*
X46125Y65106D02*
X46008Y65083D01*
X45909Y65016D01*
X45842Y64917D01*
X45819Y64800D01*
X45842Y64683D01*
X45909Y64584D01*
X46008Y64517D01*
X46125Y64494D01*
X46242Y64517D01*
X46341Y64584D01*
X46408Y64683D01*
X46431Y64800D01*
X46408Y64917D01*
X46341Y65016D01*
X46242Y65083D01*
X46125Y65106D01*
D02*
G37*
G36*
X50025Y64731D02*
X49908Y64708D01*
X49809Y64641D01*
X49743Y64542D01*
X49719Y64425D01*
X49743Y64308D01*
X49809Y64209D01*
X49908Y64142D01*
X50025Y64119D01*
X50142Y64142D01*
X50241Y64209D01*
X50308Y64308D01*
X50331Y64425D01*
X50308Y64542D01*
X50241Y64641D01*
X50142Y64708D01*
X50025Y64731D01*
D02*
G37*
G36*
X53925Y64081D02*
X53808Y64058D01*
X53709Y63991D01*
X53643Y63892D01*
X53619Y63775D01*
X53643Y63658D01*
X53709Y63559D01*
X53808Y63493D01*
X53925Y63469D01*
X54042Y63493D01*
X54141Y63559D01*
X54208Y63658D01*
X54231Y63775D01*
X54208Y63892D01*
X54141Y63991D01*
X54042Y64058D01*
X53925Y64081D01*
D02*
G37*
G36*
X54300Y65381D02*
X54183Y65358D01*
X54084Y65291D01*
X54017Y65192D01*
X53994Y65075D01*
X54017Y64958D01*
X54084Y64859D01*
X54183Y64792D01*
X54300Y64769D01*
X54417Y64792D01*
X54516Y64859D01*
X54583Y64958D01*
X54606Y65075D01*
X54583Y65192D01*
X54516Y65291D01*
X54417Y65358D01*
X54300Y65381D01*
D02*
G37*
G36*
X23250Y65356D02*
X23133Y65333D01*
X23034Y65266D01*
X22967Y65167D01*
X22944Y65050D01*
X22967Y64933D01*
X23034Y64834D01*
X23133Y64767D01*
X23250Y64744D01*
X23367Y64767D01*
X23466Y64834D01*
X23533Y64933D01*
X23556Y65050D01*
X23533Y65167D01*
X23466Y65266D01*
X23367Y65333D01*
X23250Y65356D01*
D02*
G37*
G36*
X27475Y65806D02*
X27358Y65783D01*
X27259Y65716D01*
X27192Y65617D01*
X27169Y65500D01*
X27192Y65383D01*
X27213Y65352D01*
X27189Y65219D01*
X27184Y65216D01*
X27117Y65117D01*
X27094Y65000D01*
X27117Y64883D01*
X27184Y64784D01*
X27283Y64717D01*
X27400Y64694D01*
X27517Y64717D01*
X27616Y64784D01*
X27625Y64797D01*
X27725D01*
X27734Y64784D01*
X27833Y64717D01*
X27950Y64694D01*
X28067Y64717D01*
X28130Y64759D01*
X28200Y64776D01*
X28270Y64759D01*
X28333Y64717D01*
X28450Y64694D01*
X28567Y64717D01*
X28641Y64767D01*
X28677Y64783D01*
X28782Y64777D01*
X28833Y64742D01*
X28950Y64719D01*
X29067Y64742D01*
X29166Y64809D01*
X29233Y64908D01*
X29256Y65025D01*
X29233Y65142D01*
X29166Y65241D01*
X29067Y65308D01*
X28950Y65331D01*
X28833Y65308D01*
X28759Y65258D01*
X28723Y65242D01*
X28618Y65248D01*
X28567Y65283D01*
X28450Y65306D01*
X28333Y65283D01*
X28234Y65216D01*
X28166D01*
X28067Y65283D01*
X27950Y65306D01*
X27833Y65283D01*
X27793Y65256D01*
X27721Y65328D01*
X27758Y65383D01*
X27781Y65500D01*
X27758Y65617D01*
X27691Y65716D01*
X27592Y65783D01*
X27475Y65806D01*
D02*
G37*
G36*
X32725Y61681D02*
X32608Y61658D01*
X32509Y61591D01*
X32442Y61492D01*
X32419Y61375D01*
X32442Y61258D01*
X32509Y61159D01*
X32608Y61092D01*
X32725Y61069D01*
X32842Y61092D01*
X32941Y61159D01*
X33008Y61258D01*
X33031Y61375D01*
X33008Y61492D01*
X32941Y61591D01*
X32842Y61658D01*
X32725Y61681D01*
D02*
G37*
G36*
X31200Y61281D02*
X31083Y61258D01*
X30984Y61191D01*
X30917Y61092D01*
X30894Y60975D01*
X30917Y60858D01*
X30984Y60759D01*
X31083Y60692D01*
X31200Y60669D01*
X31317Y60692D01*
X31416Y60759D01*
X31483Y60858D01*
X31506Y60975D01*
X31483Y61092D01*
X31416Y61191D01*
X31317Y61258D01*
X31200Y61281D01*
D02*
G37*
G36*
X34200Y59556D02*
X34083Y59533D01*
X33984Y59466D01*
X33917Y59367D01*
X33894Y59250D01*
X33917Y59133D01*
X33984Y59034D01*
X34083Y58967D01*
X34200Y58944D01*
X34317Y58967D01*
X34416Y59034D01*
X34483Y59133D01*
X34506Y59250D01*
X34483Y59367D01*
X34416Y59466D01*
X34317Y59533D01*
X34200Y59556D01*
D02*
G37*
G36*
X47425Y64081D02*
X47308Y64058D01*
X47209Y63991D01*
X47142Y63892D01*
X47119Y63775D01*
X47142Y63658D01*
X47209Y63559D01*
X47308Y63492D01*
X47425Y63469D01*
X47542Y63492D01*
X47641Y63559D01*
X47708Y63658D01*
X47731Y63775D01*
X47708Y63892D01*
X47641Y63991D01*
X47542Y64058D01*
X47425Y64081D01*
D02*
G37*
G36*
X51525Y63056D02*
X51408Y63033D01*
X51309Y62966D01*
X51242Y62867D01*
X51219Y62750D01*
X51242Y62633D01*
X51309Y62534D01*
X51408Y62467D01*
X51525Y62444D01*
X51642Y62467D01*
X51741Y62534D01*
X51808Y62633D01*
X51831Y62750D01*
X51808Y62867D01*
X51741Y62966D01*
X51642Y63033D01*
X51525Y63056D01*
D02*
G37*
G36*
X50775Y62306D02*
X50658Y62283D01*
X50559Y62216D01*
X50493Y62117D01*
X50469Y62000D01*
X50493Y61883D01*
X50559Y61784D01*
X50658Y61718D01*
X50775Y61694D01*
X50892Y61718D01*
X50991Y61784D01*
X51058Y61883D01*
X51081Y62000D01*
X51058Y62117D01*
X50991Y62216D01*
X50892Y62283D01*
X50775Y62306D01*
D02*
G37*
G36*
X44200Y66581D02*
X44083Y66558D01*
X43984Y66491D01*
X43917Y66392D01*
X43894Y66275D01*
X43917Y66158D01*
X43984Y66059D01*
X44083Y65992D01*
X44200Y65969D01*
X44317Y65992D01*
X44416Y66059D01*
X44483Y66158D01*
X44506Y66275D01*
X44483Y66392D01*
X44416Y66491D01*
X44317Y66558D01*
X44200Y66581D01*
D02*
G37*
G36*
X36525Y66531D02*
X36408Y66508D01*
X36309Y66441D01*
X36242Y66342D01*
X36219Y66225D01*
X36242Y66108D01*
X36309Y66009D01*
X36408Y65942D01*
X36525Y65919D01*
X36642Y65942D01*
X36741Y66009D01*
X36808Y66108D01*
X36831Y66225D01*
X36808Y66342D01*
X36741Y66441D01*
X36642Y66508D01*
X36525Y66531D01*
D02*
G37*
G36*
X28850Y66106D02*
X28733Y66083D01*
X28634Y66016D01*
X28567Y65917D01*
X28567Y65916D01*
X28462Y65898D01*
X28416Y65966D01*
X28317Y66033D01*
X28200Y66056D01*
X28083Y66033D01*
X27984Y65966D01*
X27917Y65867D01*
X27894Y65750D01*
X27917Y65633D01*
X27984Y65534D01*
X28083Y65467D01*
X28200Y65444D01*
X28317Y65467D01*
X28416Y65534D01*
X28483Y65633D01*
X28483Y65634D01*
X28588Y65652D01*
X28634Y65584D01*
X28733Y65517D01*
X28850Y65494D01*
X28967Y65517D01*
X29066Y65584D01*
X29133Y65683D01*
X29156Y65800D01*
X29133Y65917D01*
X29066Y66016D01*
X28967Y66083D01*
X28850Y66106D01*
D02*
G37*
G36*
X27350Y69706D02*
X27233Y69683D01*
X27134Y69616D01*
X27067Y69517D01*
X27044Y69400D01*
X27067Y69283D01*
X27134Y69184D01*
X27144Y69057D01*
X27117Y69017D01*
X27094Y68900D01*
X27117Y68783D01*
X27184Y68684D01*
X27270Y68626D01*
X27295Y68591D01*
X27323Y68525D01*
X27317Y68517D01*
X27294Y68400D01*
X27317Y68283D01*
X27323Y68275D01*
X27284Y68183D01*
X27283Y68183D01*
X27184Y68116D01*
X27117Y68017D01*
X27094Y67900D01*
X27117Y67783D01*
X27184Y67684D01*
X27207Y67668D01*
X27283Y67617D01*
X27233Y67540D01*
X27217Y67517D01*
X27194Y67400D01*
X27217Y67283D01*
X27233Y67260D01*
X27283Y67183D01*
X27207Y67132D01*
X27184Y67116D01*
X27117Y67017D01*
X27094Y66900D01*
X27117Y66783D01*
X27159Y66720D01*
X27176Y66650D01*
X27159Y66580D01*
X27117Y66517D01*
X27094Y66400D01*
X27117Y66283D01*
X27184Y66184D01*
X27283Y66117D01*
X27400Y66094D01*
X27517Y66117D01*
X27616Y66184D01*
X27683Y66283D01*
X27706Y66400D01*
X27683Y66517D01*
X27641Y66580D01*
X27624Y66650D01*
X27641Y66720D01*
X27683Y66783D01*
X27706Y66900D01*
X27683Y67017D01*
X27667Y67040D01*
X27617Y67117D01*
X27693Y67168D01*
X27716Y67184D01*
X27783Y67283D01*
X27806Y67400D01*
X27783Y67517D01*
X27716Y67616D01*
X27693Y67632D01*
X27617Y67683D01*
X27667Y67760D01*
X27683Y67783D01*
X27706Y67900D01*
X27683Y68017D01*
X27677Y68025D01*
X27716Y68117D01*
X27717Y68117D01*
X27816Y68184D01*
X27883Y68283D01*
X27906Y68400D01*
X27883Y68517D01*
X27816Y68616D01*
X27730Y68674D01*
X27705Y68709D01*
X27677Y68775D01*
X27683Y68783D01*
X27706Y68900D01*
X27683Y69017D01*
X27616Y69116D01*
X27606Y69243D01*
X27633Y69283D01*
X27656Y69400D01*
X27633Y69517D01*
X27566Y69616D01*
X27467Y69683D01*
X27350Y69706D01*
D02*
G37*
G36*
X50675Y67331D02*
X50558Y67308D01*
X50459Y67241D01*
X50393Y67142D01*
X50369Y67025D01*
X50393Y66908D01*
X50459Y66809D01*
X50538Y66756D01*
X50547Y66712D01*
Y66689D01*
X50538Y66645D01*
X50459Y66591D01*
X50393Y66492D01*
X50369Y66375D01*
X50393Y66258D01*
X50459Y66159D01*
X50558Y66093D01*
X50675Y66069D01*
X50792Y66093D01*
X50891Y66159D01*
X50958Y66258D01*
X50981Y66375D01*
X50958Y66492D01*
X50891Y66591D01*
X50812Y66645D01*
X50803Y66689D01*
Y66712D01*
X50812Y66756D01*
X50891Y66809D01*
X50958Y66908D01*
X50981Y67025D01*
X50958Y67142D01*
X50891Y67241D01*
X50792Y67308D01*
X50675Y67331D01*
D02*
G37*
G36*
X54300Y66681D02*
X54183Y66658D01*
X54084Y66591D01*
X54017Y66492D01*
X53994Y66375D01*
X54017Y66258D01*
X54084Y66159D01*
X54183Y66092D01*
X54300Y66069D01*
X54417Y66092D01*
X54516Y66159D01*
X54583Y66258D01*
X54606Y66375D01*
X54583Y66492D01*
X54516Y66591D01*
X54417Y66658D01*
X54300Y66681D01*
D02*
G37*
G36*
X52625Y65381D02*
X52508Y65358D01*
X52409Y65291D01*
X52356Y65212D01*
X52312Y65203D01*
X52289D01*
X52245Y65212D01*
X52191Y65291D01*
X52092Y65358D01*
X51975Y65381D01*
X51858Y65358D01*
X51759Y65291D01*
X51693Y65192D01*
X51669Y65075D01*
X51693Y64958D01*
X51759Y64859D01*
X51858Y64793D01*
X51975Y64769D01*
X52092Y64793D01*
X52191Y64859D01*
X52245Y64938D01*
X52289Y64947D01*
X52312D01*
X52356Y64938D01*
X52409Y64859D01*
X52508Y64793D01*
X52625Y64769D01*
X52742Y64793D01*
X52841Y64859D01*
X52908Y64958D01*
X52931Y65075D01*
X52908Y65192D01*
X52841Y65291D01*
X52742Y65358D01*
X52625Y65381D01*
D02*
G37*
G36*
X33550Y65306D02*
X33433Y65283D01*
X33334Y65216D01*
X33323Y65200D01*
X33202D01*
X33191Y65216D01*
X33092Y65283D01*
X32975Y65306D01*
X32858Y65283D01*
X32795Y65241D01*
X32725Y65224D01*
X32655Y65241D01*
X32592Y65283D01*
X32475Y65306D01*
X32358Y65283D01*
X32295Y65241D01*
X32225Y65224D01*
X32155Y65241D01*
X32092Y65283D01*
X31975Y65306D01*
X31858Y65283D01*
X31795Y65241D01*
X31725Y65224D01*
X31655Y65241D01*
X31592Y65283D01*
X31475Y65306D01*
X31358Y65283D01*
X31259Y65216D01*
X31192Y65117D01*
X31169Y65000D01*
X31192Y64883D01*
X31259Y64784D01*
X31358Y64717D01*
X31475Y64694D01*
X31592Y64717D01*
X31655Y64759D01*
X31725Y64776D01*
X31795Y64759D01*
X31858Y64717D01*
X31975Y64694D01*
X32092Y64717D01*
X32155Y64759D01*
X32225Y64776D01*
X32295Y64759D01*
X32358Y64717D01*
X32475Y64694D01*
X32592Y64717D01*
X32655Y64759D01*
X32725Y64776D01*
X32795Y64759D01*
X32858Y64717D01*
X32975Y64694D01*
X33092Y64717D01*
X33191Y64784D01*
X33202Y64800D01*
X33323D01*
X33334Y64784D01*
X33433Y64717D01*
X33550Y64694D01*
X33667Y64717D01*
X33766Y64784D01*
X33833Y64883D01*
X33856Y65000D01*
X33833Y65117D01*
X33766Y65216D01*
X33667Y65283D01*
X33550Y65306D01*
D02*
G37*
G36*
X43012Y65535D02*
X42895Y65512D01*
X42796Y65446D01*
X42729Y65346D01*
X42706Y65229D01*
X42729Y65112D01*
X42796Y65013D01*
X42895Y64947D01*
X43012Y64923D01*
X43129Y64947D01*
X43216Y65005D01*
X43256Y65015D01*
X43329D01*
X43334Y65009D01*
X43433Y64942D01*
X43550Y64919D01*
X43667Y64942D01*
X43766Y65009D01*
X43833Y65108D01*
X43856Y65225D01*
X43833Y65342D01*
X43766Y65441D01*
X43667Y65508D01*
X43550Y65531D01*
X43433Y65508D01*
X43346Y65449D01*
X43306Y65439D01*
X43232D01*
X43228Y65446D01*
X43129Y65512D01*
X43012Y65535D01*
D02*
G37*
G36*
X33550Y66306D02*
X33433Y66283D01*
X33334Y66216D01*
X33267Y66117D01*
X33244Y66000D01*
X33267Y65883D01*
X33334Y65784D01*
X33433Y65717D01*
X33550Y65694D01*
X33667Y65717D01*
X33766Y65784D01*
X33833Y65883D01*
X33856Y66000D01*
X33833Y66117D01*
X33766Y66216D01*
X33667Y66283D01*
X33550Y66306D01*
D02*
G37*
G36*
X47125Y66206D02*
X47008Y66183D01*
X46909Y66116D01*
X46842Y66017D01*
X46819Y65900D01*
X46842Y65783D01*
X46909Y65684D01*
X47008Y65617D01*
X47125Y65594D01*
X47242Y65617D01*
X47341Y65684D01*
X47408Y65783D01*
X47431Y65900D01*
X47408Y66017D01*
X47341Y66116D01*
X47242Y66183D01*
X47125Y66206D01*
D02*
G37*
G36*
X30175Y66756D02*
X30058Y66733D01*
X29959Y66666D01*
X29892Y66567D01*
X29869Y66450D01*
X29892Y66333D01*
X29959Y66234D01*
X30038Y66181D01*
X30047Y66136D01*
Y66114D01*
X30038Y66069D01*
X29959Y66016D01*
X29892Y65917D01*
X29869Y65800D01*
X29892Y65683D01*
X29959Y65584D01*
X30058Y65517D01*
X30175Y65494D01*
X30292Y65517D01*
X30391Y65584D01*
X30458Y65683D01*
X30481Y65800D01*
X30458Y65917D01*
X30391Y66016D01*
X30312Y66069D01*
X30303Y66114D01*
Y66136D01*
X30312Y66181D01*
X30391Y66234D01*
X30458Y66333D01*
X30481Y66450D01*
X30458Y66567D01*
X30391Y66666D01*
X30292Y66733D01*
X30175Y66756D01*
D02*
G37*
G36*
X53925Y71231D02*
X53808Y71208D01*
X53709Y71141D01*
X53643Y71042D01*
X53619Y70925D01*
X53643Y70808D01*
X53709Y70709D01*
X53808Y70643D01*
X53925Y70619D01*
X54042Y70643D01*
X54141Y70709D01*
X54208Y70808D01*
X54231Y70925D01*
X54208Y71042D01*
X54141Y71141D01*
X54042Y71208D01*
X53925Y71231D01*
D02*
G37*
G36*
X18625Y84606D02*
X18508Y84583D01*
X18409Y84516D01*
X18342Y84417D01*
X18319Y84300D01*
X18342Y84183D01*
X18409Y84084D01*
X18508Y84017D01*
X18625Y83994D01*
X18742Y84017D01*
X18841Y84084D01*
X18908Y84183D01*
X18931Y84300D01*
X18908Y84417D01*
X18841Y84516D01*
X18742Y84583D01*
X18625Y84606D01*
D02*
G37*
G36*
X10000Y84256D02*
X9883Y84233D01*
X9784Y84166D01*
X9717Y84067D01*
X9694Y83950D01*
X9717Y83833D01*
X9784Y83734D01*
X9883Y83667D01*
X10000Y83644D01*
X10117Y83667D01*
X10216Y83734D01*
X10283Y83833D01*
X10306Y83950D01*
X10283Y84067D01*
X10216Y84166D01*
X10117Y84233D01*
X10000Y84256D01*
D02*
G37*
G36*
X31850Y83756D02*
X31733Y83733D01*
X31634Y83666D01*
X31567Y83567D01*
X31544Y83450D01*
X31567Y83333D01*
X31634Y83234D01*
X31733Y83167D01*
X31850Y83144D01*
X31967Y83167D01*
X32066Y83234D01*
X32133Y83333D01*
X32156Y83450D01*
X32133Y83567D01*
X32066Y83666D01*
X31967Y83733D01*
X31850Y83756D01*
D02*
G37*
G36*
X28900Y86231D02*
X28783Y86208D01*
X28684Y86141D01*
X28617Y86042D01*
X28594Y85925D01*
X28617Y85808D01*
X28684Y85709D01*
X28783Y85642D01*
X28900Y85619D01*
X29017Y85642D01*
X29116Y85709D01*
X29183Y85808D01*
X29206Y85925D01*
X29183Y86042D01*
X29116Y86141D01*
X29017Y86208D01*
X28900Y86231D01*
D02*
G37*
G36*
X18275Y85856D02*
X18158Y85833D01*
X18059Y85766D01*
X17992Y85667D01*
X17969Y85550D01*
X17992Y85433D01*
X18059Y85334D01*
X18158Y85267D01*
X18275Y85244D01*
X18392Y85267D01*
X18491Y85334D01*
X18558Y85433D01*
X18581Y85550D01*
X18558Y85667D01*
X18491Y85766D01*
X18392Y85833D01*
X18275Y85856D01*
D02*
G37*
G36*
X22000Y84606D02*
X21883Y84583D01*
X21784Y84516D01*
X21716D01*
X21617Y84583D01*
X21500Y84606D01*
X21383Y84583D01*
X21284Y84516D01*
X21217Y84417D01*
X21194Y84300D01*
X21217Y84183D01*
X21284Y84084D01*
X21383Y84017D01*
X21500Y83994D01*
X21617Y84017D01*
X21680Y84059D01*
X21750Y84076D01*
X21820Y84059D01*
X21883Y84017D01*
X22000Y83994D01*
X22117Y84017D01*
X22216Y84084D01*
X22283Y84183D01*
X22306Y84300D01*
X22283Y84417D01*
X22216Y84516D01*
X22117Y84583D01*
X22000Y84606D01*
D02*
G37*
G36*
X19125Y82706D02*
X19008Y82683D01*
X18909Y82616D01*
X18842Y82517D01*
X18819Y82400D01*
X18842Y82283D01*
X18909Y82184D01*
X19008Y82117D01*
X19125Y82094D01*
X19242Y82117D01*
X19341Y82184D01*
X19408Y82283D01*
X19431Y82400D01*
X19408Y82517D01*
X19341Y82616D01*
X19242Y82683D01*
X19125Y82706D01*
D02*
G37*
G36*
X15325Y81406D02*
X15208Y81383D01*
X15109Y81316D01*
X15042Y81217D01*
X15019Y81100D01*
X15042Y80983D01*
X15109Y80884D01*
X15208Y80817D01*
X15325Y80794D01*
X15442Y80817D01*
X15541Y80884D01*
X15608Y80983D01*
X15631Y81100D01*
X15608Y81217D01*
X15541Y81316D01*
X15442Y81383D01*
X15325Y81406D01*
D02*
G37*
G36*
X13525Y81106D02*
X13408Y81083D01*
X13309Y81016D01*
X13242Y80917D01*
X13219Y80800D01*
X13242Y80683D01*
X13309Y80584D01*
X13408Y80517D01*
X13525Y80494D01*
X13642Y80517D01*
X13741Y80584D01*
X13785Y80583D01*
X13852Y80569D01*
X13909Y80484D01*
X14008Y80417D01*
X14125Y80394D01*
X14242Y80417D01*
X14341Y80484D01*
X14408Y80583D01*
X14431Y80700D01*
X14408Y80817D01*
X14341Y80916D01*
X14242Y80983D01*
X14125Y81006D01*
X14008Y80983D01*
X13909Y80916D01*
X13866Y80917D01*
X13798Y80931D01*
X13741Y81016D01*
X13642Y81083D01*
X13525Y81106D01*
D02*
G37*
G36*
X29400Y83756D02*
X29283Y83733D01*
X29184Y83666D01*
X29117Y83567D01*
X29094Y83450D01*
X29117Y83333D01*
X29184Y83234D01*
X29283Y83167D01*
X29400Y83144D01*
X29517Y83167D01*
X29616Y83234D01*
X29683Y83333D01*
X29706Y83450D01*
X29683Y83567D01*
X29616Y83666D01*
X29517Y83733D01*
X29400Y83756D01*
D02*
G37*
G36*
X18125Y83631D02*
X18008Y83608D01*
X17909Y83541D01*
X17842Y83442D01*
X17819Y83325D01*
X17842Y83208D01*
X17909Y83109D01*
X18008Y83042D01*
X18125Y83019D01*
X18242Y83042D01*
X18341Y83109D01*
X18408Y83208D01*
X18431Y83325D01*
X18408Y83442D01*
X18341Y83541D01*
X18242Y83608D01*
X18125Y83631D01*
D02*
G37*
G36*
X9525Y82906D02*
X9408Y82883D01*
X9309Y82816D01*
X9242Y82717D01*
X9219Y82600D01*
X9242Y82483D01*
X9309Y82384D01*
X9408Y82317D01*
X9525Y82294D01*
X9642Y82317D01*
X9741Y82384D01*
X9808Y82483D01*
X9831Y82600D01*
X9808Y82717D01*
X9741Y82816D01*
X9642Y82883D01*
X9525Y82906D01*
D02*
G37*
G36*
X22000Y87106D02*
X21883Y87083D01*
X21784Y87016D01*
X21717Y86917D01*
X21694Y86800D01*
X21717Y86683D01*
X21784Y86584D01*
X21883Y86517D01*
X22000Y86494D01*
X22117Y86517D01*
X22216Y86584D01*
X22283Y86683D01*
X22306Y86800D01*
X22283Y86917D01*
X22216Y87016D01*
X22117Y87083D01*
X22000Y87106D01*
D02*
G37*
G36*
X30000Y89881D02*
X29883Y89858D01*
X29784Y89791D01*
X29717Y89692D01*
X29694Y89575D01*
X29717Y89458D01*
X29784Y89359D01*
X29883Y89292D01*
X30000Y89269D01*
X30117Y89292D01*
X30216Y89359D01*
X30283Y89458D01*
X30306Y89575D01*
X30283Y89692D01*
X30216Y89791D01*
X30117Y89858D01*
X30000Y89881D01*
D02*
G37*
G36*
X27650Y89756D02*
X27533Y89733D01*
X27434Y89666D01*
X27367Y89567D01*
X27344Y89450D01*
X27367Y89333D01*
X27434Y89234D01*
X27533Y89167D01*
X27650Y89144D01*
X27767Y89167D01*
X27866Y89234D01*
X27933Y89333D01*
X27956Y89450D01*
X27933Y89567D01*
X27866Y89666D01*
X27767Y89733D01*
X27650Y89756D01*
D02*
G37*
G36*
X13525Y88906D02*
X13408Y88883D01*
X13309Y88816D01*
X13242Y88717D01*
X13219Y88600D01*
X13242Y88483D01*
X13309Y88384D01*
X13408Y88317D01*
X13525Y88294D01*
X13642Y88317D01*
X13741Y88384D01*
X13808Y88483D01*
X13831Y88600D01*
X13808Y88717D01*
X13741Y88816D01*
X13642Y88883D01*
X13525Y88906D01*
D02*
G37*
G36*
X12650Y93281D02*
X12533Y93258D01*
X12434Y93191D01*
X12367Y93092D01*
X12344Y92975D01*
X12367Y92858D01*
X12434Y92759D01*
X12533Y92692D01*
X12650Y92669D01*
X12767Y92692D01*
X12866Y92759D01*
X12933Y92858D01*
X12956Y92975D01*
X12933Y93092D01*
X12866Y93191D01*
X12767Y93258D01*
X12650Y93281D01*
D02*
G37*
G36*
X13275Y92681D02*
X13158Y92658D01*
X13059Y92591D01*
X12992Y92492D01*
X12969Y92375D01*
X12992Y92258D01*
X13059Y92159D01*
X13158Y92092D01*
X13275Y92069D01*
X13392Y92092D01*
X13491Y92159D01*
X13558Y92258D01*
X13581Y92375D01*
X13558Y92492D01*
X13491Y92591D01*
X13392Y92658D01*
X13275Y92681D01*
D02*
G37*
G36*
X16550Y92506D02*
X16433Y92483D01*
X16334Y92416D01*
X16267Y92317D01*
X16244Y92200D01*
X16267Y92083D01*
X16309Y92020D01*
X16326Y91950D01*
X16309Y91880D01*
X16267Y91817D01*
X16244Y91700D01*
X16267Y91583D01*
X16334Y91484D01*
X16433Y91417D01*
X16550Y91394D01*
X16667Y91417D01*
X16766Y91484D01*
X16833Y91583D01*
X16856Y91700D01*
X16833Y91817D01*
X16791Y91880D01*
X16774Y91950D01*
X16791Y92020D01*
X16833Y92083D01*
X16856Y92200D01*
X16833Y92317D01*
X16766Y92416D01*
X16667Y92483D01*
X16550Y92506D01*
D02*
G37*
G36*
X9050Y87881D02*
X8933Y87858D01*
X8834Y87791D01*
X8767Y87692D01*
X8744Y87575D01*
X8767Y87458D01*
X8834Y87359D01*
X8933Y87292D01*
X9050Y87269D01*
X9167Y87292D01*
X9266Y87359D01*
X9333Y87458D01*
X9356Y87575D01*
X9333Y87692D01*
X9266Y87791D01*
X9167Y87858D01*
X9050Y87881D01*
D02*
G37*
G36*
X10825Y87706D02*
X10708Y87683D01*
X10609Y87616D01*
X10542Y87517D01*
X10519Y87400D01*
X10542Y87283D01*
X10609Y87184D01*
X10708Y87117D01*
X10825Y87094D01*
X10942Y87117D01*
X11041Y87184D01*
X11108Y87283D01*
X11131Y87400D01*
X11108Y87517D01*
X11041Y87616D01*
X10942Y87683D01*
X10825Y87706D01*
D02*
G37*
G36*
X30075Y87281D02*
X29958Y87258D01*
X29859Y87191D01*
X29792Y87092D01*
X29769Y86975D01*
X29792Y86858D01*
X29859Y86759D01*
X29958Y86692D01*
X30075Y86669D01*
X30192Y86692D01*
X30291Y86759D01*
X30358Y86858D01*
X30381Y86975D01*
X30358Y87092D01*
X30291Y87191D01*
X30192Y87258D01*
X30075Y87281D01*
D02*
G37*
G36*
X13025Y88406D02*
X12908Y88383D01*
X12809Y88316D01*
X12742Y88217D01*
X12719Y88100D01*
X12742Y87983D01*
X12809Y87884D01*
X12908Y87817D01*
X13025Y87794D01*
X13142Y87817D01*
X13241Y87884D01*
X13308Y87983D01*
X13331Y88100D01*
X13308Y88217D01*
X13241Y88316D01*
X13142Y88383D01*
X13025Y88406D01*
D02*
G37*
G36*
X21500Y88106D02*
X21383Y88083D01*
X21284Y88016D01*
X21217Y87917D01*
X21194Y87800D01*
X21217Y87683D01*
X21284Y87584D01*
X21383Y87517D01*
X21500Y87494D01*
X21617Y87517D01*
X21716Y87584D01*
X21783Y87683D01*
X21806Y87800D01*
X21783Y87917D01*
X21716Y88016D01*
X21617Y88083D01*
X21500Y88106D01*
D02*
G37*
G36*
X14925Y88106D02*
X14808Y88083D01*
X14709Y88016D01*
X14642Y87917D01*
X14619Y87800D01*
X14642Y87683D01*
X14709Y87584D01*
X14808Y87517D01*
X14925Y87494D01*
X15042Y87517D01*
X15141Y87584D01*
X15208Y87683D01*
X15231Y87800D01*
X15208Y87917D01*
X15141Y88016D01*
X15042Y88083D01*
X14925Y88106D01*
D02*
G37*
G36*
X53275Y72531D02*
X53158Y72508D01*
X53059Y72441D01*
X52993Y72342D01*
X52969Y72225D01*
X52993Y72108D01*
X53059Y72009D01*
X53158Y71943D01*
X53275Y71919D01*
X53392Y71943D01*
X53491Y72009D01*
X53558Y72108D01*
X53581Y72225D01*
X53558Y72342D01*
X53491Y72441D01*
X53392Y72508D01*
X53275Y72531D01*
D02*
G37*
G36*
X50025Y72531D02*
X49908Y72508D01*
X49809Y72441D01*
X49742Y72342D01*
X49719Y72225D01*
X49742Y72108D01*
X49809Y72009D01*
X49908Y71942D01*
X50025Y71919D01*
X50142Y71942D01*
X50241Y72009D01*
X50308Y72108D01*
X50331Y72225D01*
X50308Y72342D01*
X50241Y72441D01*
X50142Y72508D01*
X50025Y72531D01*
D02*
G37*
G36*
X47225Y72381D02*
X47108Y72358D01*
X47009Y72291D01*
X46942Y72192D01*
X46919Y72075D01*
X46942Y71958D01*
X47009Y71859D01*
X47108Y71792D01*
X47225Y71769D01*
X47342Y71792D01*
X47441Y71859D01*
X47508Y71958D01*
X47531Y72075D01*
X47508Y72192D01*
X47441Y72291D01*
X47342Y72358D01*
X47225Y72381D01*
D02*
G37*
G36*
X21175Y73731D02*
X21058Y73708D01*
X20959Y73641D01*
X20892Y73542D01*
X20869Y73425D01*
X20892Y73308D01*
X20959Y73209D01*
X21058Y73142D01*
X21175Y73119D01*
X21292Y73142D01*
X21391Y73209D01*
X21458Y73308D01*
X21481Y73425D01*
X21458Y73542D01*
X21391Y73641D01*
X21292Y73708D01*
X21175Y73731D01*
D02*
G37*
G36*
X50375Y73356D02*
X50258Y73333D01*
X50159Y73266D01*
X50092Y73167D01*
X50069Y73050D01*
X50092Y72933D01*
X50159Y72834D01*
X50258Y72768D01*
X50375Y72744D01*
X50492Y72768D01*
X50591Y72834D01*
X50658Y72933D01*
X50681Y73050D01*
X50658Y73167D01*
X50591Y73266D01*
X50492Y73333D01*
X50375Y73356D01*
D02*
G37*
G36*
X51125Y73306D02*
X51008Y73283D01*
X50909Y73216D01*
X50842Y73117D01*
X50819Y73000D01*
X50842Y72883D01*
X50909Y72784D01*
X51008Y72718D01*
X51125Y72694D01*
X51242Y72718D01*
X51341Y72784D01*
X51408Y72883D01*
X51431Y73000D01*
X51408Y73117D01*
X51341Y73216D01*
X51242Y73283D01*
X51125Y73306D01*
D02*
G37*
G36*
X52625Y71231D02*
X52508Y71208D01*
X52409Y71141D01*
X52342Y71042D01*
X52332Y70988D01*
X52326Y70960D01*
X52224D01*
X52218Y70988D01*
X52208Y71042D01*
X52141Y71141D01*
X52042Y71208D01*
X51925Y71231D01*
X51808Y71208D01*
X51709Y71141D01*
X51643Y71042D01*
X51619Y70925D01*
X51643Y70808D01*
X51709Y70709D01*
X51808Y70643D01*
X51925Y70619D01*
X52042Y70643D01*
X52141Y70709D01*
X52208Y70808D01*
X52218Y70862D01*
X52224Y70891D01*
X52326D01*
X52332Y70862D01*
X52342Y70808D01*
X52409Y70709D01*
X52508Y70643D01*
X52625Y70619D01*
X52742Y70643D01*
X52841Y70709D01*
X52908Y70808D01*
X52931Y70925D01*
X52908Y71042D01*
X52841Y71141D01*
X52742Y71208D01*
X52625Y71231D01*
D02*
G37*
G36*
X45087Y71410D02*
X44970Y71387D01*
X44870Y71321D01*
X44804Y71221D01*
X44781Y71104D01*
X44804Y70987D01*
X44870Y70888D01*
X44970Y70822D01*
X45087Y70798D01*
X45204Y70822D01*
X45291Y70880D01*
X45331Y70890D01*
X45404D01*
X45409Y70884D01*
X45508Y70817D01*
X45625Y70794D01*
X45742Y70817D01*
X45841Y70884D01*
X45908Y70983D01*
X45931Y71100D01*
X45908Y71217D01*
X45841Y71316D01*
X45742Y71383D01*
X45625Y71406D01*
X45508Y71383D01*
X45421Y71324D01*
X45381Y71314D01*
X45307D01*
X45303Y71321D01*
X45204Y71387D01*
X45087Y71410D01*
D02*
G37*
G36*
X43575Y71406D02*
X43458Y71383D01*
X43359Y71316D01*
X43292Y71217D01*
X43269Y71100D01*
X43292Y70983D01*
X43359Y70884D01*
X43458Y70817D01*
X43575Y70794D01*
X43692Y70817D01*
X43791Y70884D01*
X43858Y70983D01*
X43881Y71100D01*
X43858Y71217D01*
X43791Y71316D01*
X43692Y71383D01*
X43575Y71406D01*
D02*
G37*
G36*
X28400Y71456D02*
X28283Y71433D01*
X28220Y71391D01*
X28150Y71374D01*
X28080Y71391D01*
X28017Y71433D01*
X27900Y71456D01*
X27783Y71433D01*
X27720Y71391D01*
X27650Y71374D01*
X27580Y71391D01*
X27517Y71433D01*
X27400Y71456D01*
X27283Y71433D01*
X27184Y71366D01*
X27117Y71267D01*
X27094Y71150D01*
X27117Y71033D01*
X27184Y70934D01*
X27283Y70867D01*
X27400Y70844D01*
X27517Y70867D01*
X27580Y70909D01*
X27650Y70926D01*
X27720Y70909D01*
X27783Y70867D01*
X27900Y70844D01*
X28017Y70867D01*
X28080Y70909D01*
X28150Y70926D01*
X28220Y70909D01*
X28283Y70867D01*
X28400Y70844D01*
X28517Y70867D01*
X28616Y70934D01*
X28683Y71033D01*
X28706Y71150D01*
X28683Y71267D01*
X28616Y71366D01*
X28517Y71433D01*
X28400Y71456D01*
D02*
G37*
G36*
X30300D02*
X30183Y71433D01*
X30120Y71391D01*
X30050Y71374D01*
X29980Y71391D01*
X29917Y71433D01*
X29800Y71456D01*
X29683Y71433D01*
X29620Y71391D01*
X29550Y71374D01*
X29480Y71391D01*
X29417Y71433D01*
X29300Y71456D01*
X29183Y71433D01*
X29084Y71366D01*
X29017Y71267D01*
X28994Y71150D01*
X29017Y71033D01*
X29084Y70934D01*
X29183Y70867D01*
X29300Y70844D01*
X29417Y70867D01*
X29480Y70909D01*
X29550Y70926D01*
X29620Y70909D01*
X29683Y70867D01*
X29800Y70844D01*
X29917Y70867D01*
X29980Y70909D01*
X30050Y70926D01*
X30120Y70909D01*
X30183Y70867D01*
X30300Y70844D01*
X30417Y70867D01*
X30516Y70934D01*
X30583Y71033D01*
X30606Y71150D01*
X30583Y71267D01*
X30516Y71366D01*
X30417Y71433D01*
X30300Y71456D01*
D02*
G37*
G36*
X31975D02*
X31858Y71433D01*
X31759Y71366D01*
X31709Y71292D01*
X31617Y71233D01*
X31500Y71256D01*
X31383Y71233D01*
X31284Y71166D01*
X31217Y71067D01*
X31194Y70950D01*
X31217Y70833D01*
X31284Y70734D01*
X31383Y70667D01*
X31500Y70644D01*
X31617Y70667D01*
X31716Y70734D01*
X31766Y70808D01*
X31858Y70867D01*
X31975Y70844D01*
X32092Y70867D01*
X32115Y70883D01*
X32192Y70933D01*
X32243Y70857D01*
X32259Y70834D01*
X32358Y70767D01*
X32475Y70744D01*
X32592Y70767D01*
X32691Y70834D01*
X32758Y70933D01*
X32781Y71050D01*
X32758Y71167D01*
X32691Y71266D01*
X32592Y71333D01*
X32475Y71356D01*
X32358Y71333D01*
X32335Y71317D01*
X32258Y71267D01*
X32207Y71343D01*
X32191Y71366D01*
X32092Y71433D01*
X31975Y71456D01*
D02*
G37*
G36*
X28875Y74306D02*
X28758Y74283D01*
X28659Y74216D01*
X28592Y74117D01*
X28569Y74000D01*
X28592Y73883D01*
X28659Y73784D01*
X28758Y73717D01*
X28875Y73694D01*
X28992Y73717D01*
X29091Y73784D01*
X29158Y73883D01*
X29181Y74000D01*
X29158Y74117D01*
X29091Y74216D01*
X28992Y74283D01*
X28875Y74306D01*
D02*
G37*
G36*
X30200Y77331D02*
X30083Y77308D01*
X29984Y77241D01*
X29917Y77142D01*
X29894Y77025D01*
X29917Y76908D01*
X29984Y76809D01*
X30083Y76742D01*
X30200Y76719D01*
X30317Y76742D01*
X30416Y76809D01*
X30483Y76908D01*
X30506Y77025D01*
X30483Y77142D01*
X30416Y77241D01*
X30317Y77308D01*
X30200Y77331D01*
D02*
G37*
G36*
X28400Y77106D02*
X28283Y77083D01*
X28184Y77016D01*
X28117Y76917D01*
X28094Y76800D01*
X28117Y76683D01*
X28184Y76584D01*
X28283Y76517D01*
X28400Y76494D01*
X28517Y76517D01*
X28616Y76584D01*
X28683Y76683D01*
X28706Y76800D01*
X28683Y76917D01*
X28616Y77016D01*
X28517Y77083D01*
X28400Y77106D01*
D02*
G37*
G36*
X16600Y77656D02*
X16483Y77633D01*
X16384Y77566D01*
X16317Y77467D01*
X16294Y77350D01*
X16317Y77233D01*
X16382Y77136D01*
X16397Y77111D01*
Y77039D01*
X16382Y77014D01*
X16317Y76917D01*
X16294Y76800D01*
X16317Y76683D01*
X16384Y76584D01*
X16483Y76517D01*
X16600Y76494D01*
X16717Y76517D01*
X16816Y76584D01*
X16883Y76683D01*
X16906Y76800D01*
X16883Y76917D01*
X16818Y77014D01*
X16803Y77039D01*
Y77111D01*
X16818Y77136D01*
X16883Y77233D01*
X16906Y77350D01*
X16883Y77467D01*
X16816Y77566D01*
X16717Y77633D01*
X16600Y77656D01*
D02*
G37*
G36*
X10425Y80906D02*
X10308Y80883D01*
X10209Y80816D01*
X10142Y80717D01*
X10119Y80600D01*
X10142Y80483D01*
X10209Y80384D01*
X10308Y80317D01*
X10425Y80294D01*
X10542Y80317D01*
X10641Y80384D01*
X10708Y80483D01*
X10731Y80600D01*
X10708Y80717D01*
X10641Y80816D01*
X10542Y80883D01*
X10425Y80906D01*
D02*
G37*
G36*
X8425Y80706D02*
X8308Y80683D01*
X8209Y80616D01*
X8142Y80517D01*
X8119Y80400D01*
X8142Y80283D01*
X8209Y80184D01*
X8308Y80117D01*
X8425Y80094D01*
X8542Y80117D01*
X8641Y80184D01*
X8708Y80283D01*
X8731Y80400D01*
X8708Y80517D01*
X8641Y80616D01*
X8542Y80683D01*
X8425Y80706D01*
D02*
G37*
G36*
X12125Y77406D02*
X12008Y77383D01*
X11909Y77316D01*
X11842Y77217D01*
X11819Y77100D01*
X11842Y76983D01*
X11909Y76884D01*
X12008Y76817D01*
X12125Y76794D01*
X12242Y76817D01*
X12341Y76884D01*
X12408Y76983D01*
X12431Y77100D01*
X12408Y77217D01*
X12341Y77316D01*
X12242Y77383D01*
X12125Y77406D01*
D02*
G37*
G36*
X29750Y75781D02*
X29633Y75758D01*
X29534Y75691D01*
X29467Y75592D01*
X29444Y75475D01*
X29467Y75358D01*
X29534Y75259D01*
X29633Y75192D01*
X29750Y75169D01*
X29867Y75192D01*
X29966Y75259D01*
X30033Y75358D01*
X30056Y75475D01*
X30033Y75592D01*
X29966Y75691D01*
X29867Y75758D01*
X29750Y75781D01*
D02*
G37*
G36*
X16150Y75606D02*
X16033Y75583D01*
X15934Y75516D01*
X15867Y75417D01*
X15844Y75300D01*
X15867Y75183D01*
X15934Y75084D01*
X16033Y75017D01*
X16150Y74994D01*
X16267Y75017D01*
X16366Y75084D01*
X16433Y75183D01*
X16456Y75300D01*
X16433Y75417D01*
X16366Y75516D01*
X16267Y75583D01*
X16150Y75606D01*
D02*
G37*
G36*
X27900Y74681D02*
X27783Y74658D01*
X27684Y74591D01*
X27617Y74492D01*
X27594Y74375D01*
X27617Y74258D01*
X27684Y74159D01*
X27783Y74092D01*
X27900Y74069D01*
X28017Y74092D01*
X28116Y74159D01*
X28183Y74258D01*
X28206Y74375D01*
X28183Y74492D01*
X28116Y74591D01*
X28017Y74658D01*
X27900Y74681D01*
D02*
G37*
G36*
X13550Y76256D02*
X13433Y76233D01*
X13334Y76166D01*
X13267Y76067D01*
X13244Y75950D01*
X13267Y75833D01*
X13334Y75734D01*
X13433Y75667D01*
X13550Y75644D01*
X13667Y75667D01*
X13766Y75734D01*
X13833Y75833D01*
X13856Y75950D01*
X13833Y76067D01*
X13766Y76166D01*
X13667Y76233D01*
X13550Y76256D01*
D02*
G37*
G36*
X36075Y76231D02*
X35958Y76208D01*
X35859Y76141D01*
X35792Y76042D01*
X35769Y75925D01*
X35792Y75808D01*
X35859Y75709D01*
X35958Y75642D01*
X36075Y75619D01*
X36192Y75642D01*
X36291Y75709D01*
X36358Y75808D01*
X36381Y75925D01*
X36358Y76042D01*
X36291Y76141D01*
X36192Y76208D01*
X36075Y76231D01*
D02*
G37*
G36*
X18350D02*
X18233Y76208D01*
X18134Y76141D01*
X18067Y76042D01*
X18044Y75925D01*
X18067Y75808D01*
X18134Y75709D01*
X18233Y75642D01*
X18350Y75619D01*
X18467Y75642D01*
X18566Y75709D01*
X18633Y75808D01*
X18656Y75925D01*
X18633Y76042D01*
X18566Y76141D01*
X18467Y76208D01*
X18350Y76231D01*
D02*
G37*
%LPD*%
D25*
X46275Y68250D02*
X46525Y68000D01*
X49475D02*
X49725Y67750D01*
X46525Y68000D02*
X49475D01*
X49725Y67750D02*
X51300D01*
X52025Y67025D01*
X52625D01*
D36*
X44200Y64250D02*
D03*
X24650Y65500D02*
D03*
X38275Y78500D02*
D03*
X47425Y63775D02*
D03*
X46125Y64800D02*
D03*
X47350Y64525D02*
D03*
X46275Y68250D02*
D03*
X50375Y73850D02*
D03*
X57950Y69650D02*
D03*
X50675Y67025D02*
D03*
X43012Y65229D02*
D03*
X50675Y66375D02*
D03*
X43550Y65225D02*
D03*
X50675Y69625D02*
D03*
X45625Y71100D02*
D03*
X50675Y68975D02*
D03*
X43575Y71100D02*
D03*
X51700Y68350D02*
D03*
X51750Y66300D02*
D03*
X51525Y62750D02*
D03*
X44225Y72200D02*
D03*
X44225Y70150D02*
D03*
X44200Y66275D02*
D03*
X46650Y70650D02*
D03*
X47250Y70175D02*
D03*
X47125Y65900D02*
D03*
X50025Y72225D02*
D03*
X53300Y68950D02*
D03*
X36900Y69525D02*
D03*
X37600D02*
D03*
X35950Y70300D02*
D03*
X42775Y68250D02*
D03*
X36250Y69525D02*
D03*
X47325Y69400D02*
D03*
Y71300D02*
D03*
X48075Y72225D02*
D03*
X50000Y68350D02*
D03*
X10000Y83950D02*
D03*
X30175Y68400D02*
D03*
X31475Y69050D02*
D03*
Y70350D02*
D03*
X14925Y87800D02*
D03*
X16550Y91700D02*
D03*
Y92200D02*
D03*
X12650Y92975D02*
D03*
X13275Y92375D02*
D03*
X9050Y87575D02*
D03*
X13675Y76750D02*
D03*
X20750Y84275D02*
D03*
X20675Y81725D02*
D03*
X8375Y78375D02*
D03*
X13675Y77300D02*
D03*
X15325Y81100D02*
D03*
X18625Y84300D02*
D03*
X18275Y85550D02*
D03*
X13025Y88100D02*
D03*
X8425Y80400D02*
D03*
X10425Y80600D02*
D03*
X10325Y77750D02*
D03*
X19125Y82400D02*
D03*
X14125Y80700D02*
D03*
X9525Y82600D02*
D03*
X7425Y83500D02*
D03*
Y82600D02*
D03*
X13525Y80800D02*
D03*
X12125Y77100D02*
D03*
X13525Y88600D02*
D03*
X13375Y91375D02*
D03*
X13975D02*
D03*
X13875Y92125D02*
D03*
X9025Y90250D02*
D03*
X10325D02*
D03*
X10825Y87400D02*
D03*
X10575Y91625D02*
D03*
Y92375D02*
D03*
X13425Y77900D02*
D03*
X13925D02*
D03*
X20175Y85950D02*
D03*
X16050Y83350D02*
D03*
Y84575D02*
D03*
Y85750D02*
D03*
X14300Y83350D02*
D03*
Y84575D02*
D03*
Y85750D02*
D03*
X12600Y83350D02*
D03*
X12575Y84550D02*
D03*
X12600Y85750D02*
D03*
X28400Y76800D02*
D03*
X31850Y83450D02*
D03*
X29050Y83925D02*
D03*
X28675Y91475D02*
D03*
X22000Y86800D02*
D03*
Y84300D02*
D03*
X23250Y65050D02*
D03*
X24600Y67175D02*
D03*
X31975Y71150D02*
D03*
X21175Y73425D02*
D03*
X82750Y4725D02*
D03*
X33550Y70225D02*
D03*
X31450Y69700D02*
D03*
X35250Y72875D02*
D03*
X28850Y67100D02*
D03*
Y69050D02*
D03*
X28200Y65750D02*
D03*
X28950Y65025D02*
D03*
X30150Y70350D02*
D03*
X30175Y69700D02*
D03*
X32475Y65000D02*
D03*
X31975D02*
D03*
X31475D02*
D03*
X33550Y65500D02*
D03*
Y66000D02*
D03*
Y66500D02*
D03*
X31475Y68400D02*
D03*
X33550Y68025D02*
D03*
Y67525D02*
D03*
Y69725D02*
D03*
X32150Y69700D02*
D03*
X33375Y67025D02*
D03*
X28450Y65000D02*
D03*
X27400D02*
D03*
Y66400D02*
D03*
X31500Y70950D02*
D03*
X31475Y67100D02*
D03*
X27400Y66900D02*
D03*
X27950Y65000D02*
D03*
X28850Y65800D02*
D03*
X33550Y69225D02*
D03*
X35200Y63200D02*
D03*
X35600Y65575D02*
D03*
X33550Y65000D02*
D03*
X30200Y65025D02*
D03*
X30175Y65800D02*
D03*
X31475Y66450D02*
D03*
X36075Y75925D02*
D03*
X36625D02*
D03*
X33700Y59275D02*
D03*
X59425Y79400D02*
D03*
X30175Y69050D02*
D03*
Y67750D02*
D03*
Y67100D02*
D03*
X28850Y66450D02*
D03*
X30175D02*
D03*
X28850Y67750D02*
D03*
X27400Y71150D02*
D03*
X28200Y70350D02*
D03*
X31475Y67750D02*
D03*
X28850Y68400D02*
D03*
X31975Y62600D02*
D03*
X25150Y69575D02*
D03*
X25575Y72675D02*
D03*
X25675Y63300D02*
D03*
X28000Y62375D02*
D03*
X33550Y68725D02*
D03*
X35600Y68175D02*
D03*
X29500Y70350D02*
D03*
X28850D02*
D03*
X27350Y69900D02*
D03*
X27900Y71150D02*
D03*
X33500Y60525D02*
D03*
X27475Y65500D02*
D03*
X29800Y71150D02*
D03*
X28400D02*
D03*
X30300D02*
D03*
X27500Y67400D02*
D03*
X27400Y67900D02*
D03*
X27350Y69400D02*
D03*
X27600Y68400D02*
D03*
X27400Y68900D02*
D03*
X28200Y69650D02*
D03*
X29300Y71150D02*
D03*
X34200Y59250D02*
D03*
X32975Y65000D02*
D03*
X31200Y60975D02*
D03*
X32725Y61375D02*
D03*
X32775Y67100D02*
D03*
X33200Y71150D02*
D03*
X33550Y70725D02*
D03*
X32775Y69675D02*
D03*
Y68400D02*
D03*
X33125Y81100D02*
D03*
X27650Y89450D02*
D03*
X30075Y88475D02*
D03*
X27750Y88425D02*
D03*
X30150Y91450D02*
D03*
X29675Y85925D02*
D03*
X28900D02*
D03*
X36500Y85650D02*
D03*
X30075Y86975D02*
D03*
X28900D02*
D03*
X21500Y84300D02*
D03*
X21500Y87800D02*
D03*
X30000Y89575D02*
D03*
X29400Y83450D02*
D03*
X28525Y73250D02*
D03*
X29750Y75475D02*
D03*
X30200Y77025D02*
D03*
X27900Y74375D02*
D03*
X28875Y74000D02*
D03*
X16600Y77350D02*
D03*
Y76800D02*
D03*
X16150Y75300D02*
D03*
X18350Y75925D02*
D03*
X18125Y83325D02*
D03*
X19100Y67800D02*
D03*
X28850Y69650D02*
D03*
X37000Y82950D02*
D03*
X7425Y85475D02*
D03*
X6900Y86650D02*
D03*
X7025Y89250D02*
D03*
X7125Y91550D02*
D03*
X8675Y93175D02*
D03*
X11125Y94575D02*
D03*
X15200Y94600D02*
D03*
X20375D02*
D03*
X25075D02*
D03*
X29175Y94575D02*
D03*
X33050D02*
D03*
X35650D02*
D03*
X37000Y93125D02*
D03*
X39125Y90950D02*
D03*
X40900Y89175D02*
D03*
X32475Y71050D02*
D03*
X17300Y79200D02*
D03*
X15875Y71625D02*
D03*
X20975Y66675D02*
D03*
X16100Y73150D02*
D03*
X13550Y75950D02*
D03*
X9300Y80600D02*
D03*
X49800Y58000D02*
D03*
X51125Y73000D02*
D03*
X50375Y73050D02*
D03*
X51925Y70925D02*
D03*
X51325Y72225D02*
D03*
X48075Y63775D02*
D03*
X53275Y65725D02*
D03*
X53925Y70925D02*
D03*
X53275Y71575D02*
D03*
X52625Y72225D02*
D03*
X54350Y70250D02*
D03*
X53275Y72225D02*
D03*
X53925Y63775D02*
D03*
X53275Y63775D02*
D03*
X54300Y66375D02*
D03*
X52625Y66375D02*
D03*
X53275D02*
D03*
X52625Y70925D02*
D03*
X53275Y70275D02*
D03*
X50675Y64425D02*
D03*
X50025D02*
D03*
X47250Y66670D02*
D03*
X50025Y70925D02*
D03*
X51400Y67000D02*
D03*
X52625Y65075D02*
D03*
X51975D02*
D03*
X52625Y67025D02*
D03*
X50675Y68325D02*
D03*
X51825Y69875D02*
D03*
X51450Y68825D02*
D03*
X50675Y70925D02*
D03*
X54300Y67425D02*
D03*
Y68000D02*
D03*
X50775Y62000D02*
D03*
X57900Y66625D02*
D03*
X51950Y60600D02*
D03*
X55250Y72575D02*
D03*
X39400Y68250D02*
D03*
X38800D02*
D03*
X36525Y66225D02*
D03*
X36300Y68175D02*
D03*
X37625Y68250D02*
D03*
X52625Y67675D02*
D03*
X38125Y68250D02*
D03*
X52625Y68325D02*
D03*
X53300Y69600D02*
D03*
X45087Y71104D02*
D03*
X50025Y62100D02*
D03*
X53925Y69625D02*
D03*
X54300Y65075D02*
D03*
Y65600D02*
D03*
X47225Y72075D02*
D03*
D37*
X22800Y89350D02*
D03*
X64400Y1425D02*
D03*
X3650Y26550D02*
D03*
X21075Y2425D02*
D03*
X21250Y104175D02*
D03*
X26800Y115375D02*
D03*
X9650Y110500D02*
D03*
X3875Y115700D02*
D03*
X56575Y26425D02*
D03*
X82625Y27975D02*
D03*
X44125Y4175D02*
D03*
X3100Y5150D02*
D03*
X49150Y82200D02*
D03*
X44800Y82050D02*
D03*
X54750Y82075D02*
D03*
X24750Y96475D02*
D03*
X78850Y76925D02*
D03*
X77800Y94450D02*
D03*
X77925Y86425D02*
D03*
X65000Y78725D02*
D03*
X63500Y81900D02*
D03*
X64950Y86775D02*
D03*
X58950Y82000D02*
D03*
X64150Y94525D02*
D03*
X40400Y94900D02*
D03*
X7775Y104275D02*
D03*
X19925Y89075D02*
D03*
X31650Y96425D02*
D03*
X18500Y96475D02*
D03*
X13350Y96500D02*
D03*
X6900Y96000D02*
D03*
X3425Y92950D02*
D03*
X4300Y85825D02*
D03*
X4400Y73375D02*
D03*
X8550Y73150D02*
D03*
X12325Y72975D02*
D03*
X17700Y72600D02*
D03*
X14925Y68325D02*
D03*
X15475Y63925D02*
D03*
X16600Y59050D02*
D03*
X26100D02*
D03*
X31475D02*
D03*
X40600Y103600D02*
D03*
X40675Y111425D02*
D03*
X51150Y111950D02*
D03*
X64125Y112025D02*
D03*
X76950Y112250D02*
D03*
X51225Y103675D02*
D03*
X64200Y103525D02*
D03*
X77175Y103450D02*
D03*
X51075Y94650D02*
D03*
X77175Y66025D02*
D03*
X77400Y54650D02*
D03*
X77475Y46825D02*
D03*
X64500Y46225D02*
D03*
X51075Y46375D02*
D03*
X40450Y46150D02*
D03*
X15375Y44500D02*
D03*
X26075Y44300D02*
D03*
X4575Y43700D02*
D03*
X5675Y52800D02*
D03*
X6175Y61075D02*
D03*
X6475Y67750D02*
D03*
X64400Y57275D02*
D03*
X64625Y67225D02*
D03*
X25050Y82925D02*
D03*
Y78200D02*
D03*
X1550Y96950D02*
D03*
X15350Y52750D02*
D03*
X26200Y52650D02*
D03*
X15850Y26325D02*
D03*
X25975D02*
D03*
X40275Y26275D02*
D03*
X70050Y26425D02*
D03*
M02*
