M48
;Layer_Color=9474304
;FILE_FORMAT=4:3
METRIC,LZ
;TYPE=PLATED
T1F00S00C0.200
T2F00S00C0.300
%
T01
X008275Y0004725
X00342Y005925
X00337Y0059275
X00335Y0060525
X0032725Y0061375
X00312Y0060975
X0031975Y00626
Y0065
X0032475
X0032975
X003355
Y00655
Y0066
Y00665
X0033375Y0067025
X003355Y0067525
Y0068025
Y0068725
Y0069225
Y0069725
Y0070225
Y0070725
X00332Y007115
X0032475Y007105
X0031975Y007115
X00315Y007095
X0031475Y007035
X003145Y00697
X0031475Y006905
Y00684
Y006775
Y00671
Y006645
X0030175
Y00658
X00302Y0065025
X002895
X002845Y0065
X002795
X00274
X0027475Y00655
X00274Y00664
Y00669
X00275Y00674
X00274Y00679
X00276Y00684
X00274Y00689
X002735Y00694
Y00699
X00282Y006965
X002885
Y006905
Y00684
Y006775
Y00671
Y006645
Y00658
X00282Y006575
X0030175Y00671
Y006775
Y00684
Y006905
Y00697
X003015Y007035
X00295
X002885
X00282
X00284Y007115
X00279
X00274
X00293
X00298
X00303
X003215Y00697
X0032775Y0069675
Y00684
Y00671
X0031475Y0065
X00356Y0065575
Y0068175
X003595Y00703
X003525Y0072875
X0036075Y0075925
X002975Y0075475
X00302Y0077025
X00284Y00768
X00279Y0074375
X0028875Y0074
X0028525Y007325
X0025575Y0072675
X002515Y0069575
X00246Y0067175
X002465Y00655
X002325Y006505
X0020975Y0066675
X00191Y00678
X0015875Y0071625
X00161Y007315
X001615Y00753
X00166Y00768
Y007735
X00173Y00792
X0015325Y00811
X0014125Y00807
X0013525Y00808
X0013425Y00779
X0013925
X0013675Y00773
Y007675
X001355Y007595
X0012125Y00771
X0010325Y007775
X0008375Y0078375
X0008425Y00804
X00093Y00806
X0010425Y00806
X0009525Y00826
X00126Y008335
X00143
X001605
X0018125Y0083325
X0019125Y00824
X0020675Y0081725
X001835Y0075925
X0021175Y0073425
X0025675Y00633
X0028Y0062375
X00352Y00632
X0033125Y00811
X003185Y008345
X00294
X0037Y008295
X0038275Y00785
X0036625Y0075925
X00369Y0069525
X003625
X00376
X0037625Y006825
X0038125
X00388
X00394
X00363Y0068175
X0036525Y0066225
X0043012Y0065229
X004355Y0065225
X00442Y006425
Y0066275
X0047125Y00659
X004725Y006667
X004735Y0064525
X0047425Y0063775
X0048075Y0063775
X0050025Y0064425
X0050675
Y0066375
Y0067025
X00514Y0067
X005175Y00663
X0052625Y0066375
X0052625Y0067025
X0052625Y0067675
Y0068325
X00517Y006835
X005145Y0068825
X0050675Y0068975
X0050675Y0068325
X005Y006835
X0050675Y0069625
X0050675Y0070925
X0050025
X0050025Y0072225
X0050375Y007305
X0050375Y007385
X0051125Y0073
X0051325Y0072225
X0052625
X0053275
Y0071575
X0053925Y0070925
X005435Y007025
X0053925Y0069625
X00533Y00696
X00533Y006895
X0053275Y0070275
X0052625Y0070925
X0051925
X0051825Y0069875
X00543Y0068
Y0067425
Y0066375
Y00656
Y0065075
X0053925Y0063775
X0053275Y0063775
Y0065725
Y0066375
X0052625Y0065075
X0051975
X0051525Y006275
X0050775Y0062
X0050025Y00621
X005195Y00606
X00498Y0058
X0046125Y00648
X0046275Y006825
X0047325Y00694
X004725Y0070175
X004665Y007065
X0047325Y00713
X0047225Y0072075
X0048075Y0072225
X0045625Y00711
X0045087Y0071104
X0043575Y00711
X0044225Y007015
X0044225Y00722
X0042775Y006825
X005795Y006965
X00579Y0066625
X005525Y0072575
X0059425Y00794
X00409Y0089175
X0039125Y009095
X0037Y0093125
X00365Y008565
X0029675Y0085925
X00289
Y0086975
X0030075
Y0088475
X003Y0089575
X003015Y009145
X0028675Y0091475
X002765Y008945
X002775Y0088425
X002905Y0083925
X0022Y00843
X00215
X002075Y0084275
X0018625Y00843
X0018275Y008555
X0020175Y008595
X0022Y00868
X00215Y00878
X0014925Y00878
X0013025Y00881
X0013525Y00886
X0013375Y0091375
X0013975
X0013875Y0092125
X0013275Y0092375
X001265Y0092975
X0010575Y0092375
Y0091625
X0010325Y009025
X0009025
X000905Y0087575
X0010825Y00874
X00126Y008575
X0012575Y008455
X00143Y0084575
Y008575
X001605
Y0084575
X001Y008395
X0007425Y0085475
X00069Y008665
X0007025Y008925
X0007125Y009155
X0008675Y0093175
X0011125Y0094575
X00152Y00946
X001655Y00922
Y00917
X0020375Y00946
X0025075
X0029175Y0094575
X003305
X003565
T02
X0021075Y0002425
X0044125Y0004175
X00644Y0001425
X0082625Y0027975
X007005Y0026425
X0056575
X0040275Y0026275
X0025975Y0026325
X001585
X000365Y002655
X0004575Y00437
X00031Y000515
X0005675Y00528
X0006175Y0061075
X0006475Y006775
X000855Y007315
X0012325Y0072975
X00177Y00726
X0014925Y0068325
X0015475Y0063925
X00166Y005905
X001535Y005275
X0015375Y00445
X0026075Y00443
X00262Y005265
X00261Y005905
X0031475
X002505Y00782
Y0082925
X00044Y0073375
X00448Y008205
X004915Y00822
X005475Y0082075
X005895Y0082
X00635Y00819
X0065Y0078725
X0064625Y0067225
X00644Y0057275
X00645Y0046225
X0051075Y0046375
X004045Y004615
X0077475Y0046825
X00774Y005465
X0077175Y0066025
X007885Y0076925
X0077925Y0086425
X00778Y009445
X0077175Y010345
X007695Y011225
X0064125Y0112025
X00642Y0103525
X006415Y0094525
X006495Y0086775
X0051075Y009465
X0051225Y0103675
X005115Y011195
X0040675Y0111425
X00406Y01036
X00404Y00949
X003165Y0096425
X002475Y0096475
X00185Y0096475
X001335Y00965
X00069Y0096
X000155Y009695
X0003425Y009295
X00043Y0085825
X0019925Y0089075
X00228Y008935
X002125Y0104175
X0007775Y0104275
X000965Y01105
X0003875Y01157
X00268Y0115375
M30
