G04 Layer_Color=2752767*
%FSLAX43Y43*%
%MOMM*%
G71*
G01*
G75*
%ADD57C,0.051*%
%ADD58C,0.068*%
D57*
X80897Y47047D02*
Y47453D01*
X81303D01*
Y47047D01*
X80897D01*
Y47547D02*
Y47953D01*
X81303D01*
Y47547D01*
X80897D01*
X77122Y72047D02*
Y72453D01*
X77528D01*
Y72047D01*
X77122D01*
X75697Y54897D02*
Y55303D01*
X76103D01*
Y54897D01*
X75697D01*
X62022Y68047D02*
Y68453D01*
X62428D01*
Y68047D01*
X62022D01*
X53297Y67122D02*
Y67528D01*
X53703D01*
Y67122D01*
X53297D01*
X70822Y72047D02*
Y72453D01*
X71228D01*
Y72047D01*
X70822D01*
X74722D02*
Y72453D01*
X75128D01*
Y72047D01*
X74722D01*
X54122Y60497D02*
Y60903D01*
X54528D01*
Y60497D01*
X54122D01*
X53322Y60497D02*
Y60903D01*
X53728D01*
Y60497D01*
X53322D01*
X56562Y53737D02*
Y54143D01*
X56968D01*
Y53737D01*
X56562D01*
X53652Y53747D02*
Y54153D01*
X54058D01*
Y53747D01*
X53652D01*
X54322D02*
Y54153D01*
X54728D01*
Y53747D01*
X54322D01*
X55122D02*
Y54153D01*
X55528D01*
Y53747D01*
X55122D01*
X52562Y62157D02*
Y62563D01*
X52968D01*
Y62157D01*
X52562D01*
X58652Y53737D02*
Y54143D01*
X59058D01*
Y53737D01*
X58652D01*
X50902Y53877D02*
Y54283D01*
X51308D01*
Y53877D01*
X50902D01*
X57542Y53737D02*
Y54143D01*
X57948D01*
Y53737D01*
X57542D01*
X62122Y59697D02*
Y60103D01*
X62528D01*
Y59697D01*
X62122D01*
X61722Y53747D02*
Y54153D01*
X62128D01*
Y53747D01*
X61722D01*
X51512Y53817D02*
Y54223D01*
X51918D01*
Y53817D01*
X51512D01*
X53012Y53747D02*
Y54153D01*
X53418D01*
Y53747D01*
X53012D01*
X62122Y60497D02*
Y60903D01*
X62528D01*
Y60497D01*
X62122D01*
X59722Y55697D02*
Y56103D01*
X60128D01*
Y55697D01*
X59722D01*
X59842Y53727D02*
Y54133D01*
X60248D01*
Y53727D01*
X59842D01*
X62522Y53922D02*
Y54328D01*
X62928D01*
Y53922D01*
X62522D01*
X54072Y62247D02*
Y62653D01*
X54478D01*
Y62247D01*
X54072D01*
X60522Y55697D02*
Y56103D01*
X60928D01*
Y55697D01*
X60522D01*
X51322Y62597D02*
Y63003D01*
X51728D01*
Y62597D01*
X51322D01*
X58922Y60497D02*
Y60903D01*
X59328D01*
Y60497D01*
X58922D01*
X60122Y62347D02*
Y62753D01*
X60528D01*
Y62347D01*
X60122D01*
X61722D02*
Y62753D01*
X62128D01*
Y62347D01*
X61722D01*
X62422D02*
Y62753D01*
X62828D01*
Y62347D01*
X62422D01*
X63182D02*
Y62753D01*
X63588D01*
Y62347D01*
X63182D01*
X60882D02*
Y62753D01*
X61288D01*
Y62347D01*
X60882D01*
X58122Y57297D02*
Y57703D01*
X58528D01*
Y57297D01*
X58122D01*
X59322Y62347D02*
Y62753D01*
X59728D01*
Y62347D01*
X59322D01*
X58472D02*
Y62753D01*
X58878D01*
Y62347D01*
X58472D01*
X57752D02*
Y62753D01*
X58158D01*
Y62347D01*
X57752D01*
X56522Y60497D02*
Y60903D01*
X56928D01*
Y60497D01*
X56522D01*
X60542Y59297D02*
Y59703D01*
X60948D01*
Y59297D01*
X60542D01*
X52972Y62547D02*
Y62953D01*
X53378D01*
Y62547D01*
X52972D01*
X63832Y56387D02*
Y56793D01*
X64238D01*
Y56387D01*
X63832D01*
X53302Y54727D02*
Y55133D01*
X53708D01*
Y54727D01*
X53302D01*
X56122Y54677D02*
Y55083D01*
X56528D01*
Y54677D01*
X56122D01*
X54922Y55697D02*
Y56103D01*
X55328D01*
Y55697D01*
X54922D01*
Y60497D02*
Y60903D01*
X55328D01*
Y60497D01*
X54922D01*
X53322Y61297D02*
Y61703D01*
X53728D01*
Y61297D01*
X53322D01*
Y56497D02*
Y56903D01*
X53728D01*
Y56497D01*
X53322D01*
X54122D02*
Y56903D01*
X54528D01*
Y56497D01*
X54122D01*
X55722Y61297D02*
Y61703D01*
X56128D01*
Y61297D01*
X55722D01*
Y60497D02*
Y60903D01*
X56128D01*
Y60497D01*
X55722D01*
X50192Y56047D02*
Y56453D01*
X50598D01*
Y56047D01*
X50192D01*
X51702Y54797D02*
Y55203D01*
X52108D01*
Y54797D01*
X51702D01*
X52422Y54697D02*
Y55103D01*
X52828D01*
Y54697D01*
X52422D01*
X50932Y54607D02*
Y55013D01*
X51338D01*
Y54607D01*
X50932D01*
X54122Y61297D02*
Y61703D01*
X54528D01*
Y61297D01*
X54122D01*
X54922D02*
Y61703D01*
X55328D01*
Y61297D01*
X54922D01*
X56522Y59697D02*
Y60103D01*
X56928D01*
Y59697D01*
X56522D01*
X52522Y61297D02*
Y61703D01*
X52928D01*
Y61297D01*
X52522D01*
X55722Y59697D02*
Y60103D01*
X56128D01*
Y59697D01*
X55722D01*
X50562Y61407D02*
Y61813D01*
X50968D01*
Y61407D01*
X50562D01*
X50922Y62237D02*
Y62643D01*
X51328D01*
Y62237D01*
X50922D01*
X51702D02*
Y62643D01*
X52108D01*
Y62237D01*
X51702D01*
X57322Y59697D02*
Y60103D01*
X57728D01*
Y59697D01*
X57322D01*
X50812Y56287D02*
Y56693D01*
X51218D01*
Y56287D01*
X50812D01*
X79147Y66472D02*
Y66878D01*
X79553D01*
Y66472D01*
X79147D01*
X78347Y66512D02*
Y66918D01*
X78753D01*
Y66512D01*
X78347D01*
X76387Y67472D02*
Y67878D01*
X76793D01*
Y67472D01*
X76387D01*
X76347Y65522D02*
Y65928D01*
X76753D01*
Y65522D01*
X76347D01*
Y64722D02*
Y65128D01*
X76753D01*
Y64722D01*
X76347D01*
X74797Y58142D02*
Y58548D01*
X75203D01*
Y58142D01*
X74797D01*
X73567Y58472D02*
Y58878D01*
X73973D01*
Y58472D01*
X73567D01*
X83147Y58372D02*
Y58778D01*
X83553D01*
Y58372D01*
X83147D01*
X77277Y58022D02*
Y58428D01*
X77683D01*
Y58022D01*
X77277D01*
X78457Y58122D02*
Y58528D01*
X78863D01*
Y58122D01*
X78457D01*
X77947Y60722D02*
Y61128D01*
X78353D01*
Y60722D01*
X77947D01*
X71937Y67072D02*
Y67478D01*
X72343D01*
Y67072D01*
X71937D01*
X72747Y66462D02*
Y66868D01*
X73153D01*
Y66462D01*
X72747D01*
X80747Y66472D02*
Y66878D01*
X81153D01*
Y66472D01*
X80747D01*
X72757Y58202D02*
Y58608D01*
X73163D01*
Y58202D01*
X72757D01*
X71967Y58172D02*
Y58578D01*
X72373D01*
Y58172D01*
X71967D01*
X70737Y58092D02*
Y58498D01*
X71143D01*
Y58092D01*
X70737D01*
X71137Y67072D02*
Y67478D01*
X71543D01*
Y67072D01*
X71137D01*
X80557Y58142D02*
Y58548D01*
X80963D01*
Y58142D01*
X80557D01*
X73547Y66562D02*
Y66968D01*
X73953D01*
Y66562D01*
X73547D01*
X75457Y67472D02*
Y67878D01*
X75863D01*
Y67472D01*
X75457D01*
X74347Y66852D02*
Y67258D01*
X74753D01*
Y66852D01*
X74347D01*
X79947Y66472D02*
Y66878D01*
X80353D01*
Y66472D01*
X79947D01*
X83647Y60512D02*
Y60918D01*
X84053D01*
Y60512D01*
X83647D01*
X82742Y63912D02*
Y64318D01*
X83148D01*
Y63912D01*
X82742D01*
X81097Y58112D02*
Y58518D01*
X81503D01*
Y58112D01*
X81097D01*
X76687Y58482D02*
Y58888D01*
X77093D01*
Y58482D01*
X76687D01*
X81547Y66472D02*
Y66878D01*
X81953D01*
Y66472D01*
X81547D01*
X82347D02*
Y66878D01*
X82753D01*
Y66472D01*
X82347D01*
X83087D02*
Y66878D01*
X83493D01*
Y66472D01*
X83087D01*
X73947Y65522D02*
Y65928D01*
X74353D01*
Y65522D01*
X73947D01*
X77147Y63922D02*
Y64328D01*
X77553D01*
Y63922D01*
X77147D01*
X75547Y65522D02*
Y65928D01*
X75953D01*
Y65522D01*
X75547D01*
X70507Y65542D02*
Y65948D01*
X70913D01*
Y65542D01*
X70507D01*
X76347Y63922D02*
Y64328D01*
X76753D01*
Y63922D01*
X76347D01*
X75547D02*
Y64328D01*
X75953D01*
Y63922D01*
X75547D01*
X74747Y64722D02*
Y65128D01*
X75153D01*
Y64722D01*
X74747D01*
X73947D02*
Y65128D01*
X74353D01*
Y64722D01*
X73947D01*
X73147Y65522D02*
Y65928D01*
X73553D01*
Y65522D01*
X73147D01*
X70647Y60499D02*
Y60905D01*
X71053D01*
Y60499D01*
X70647D01*
X70787Y58772D02*
Y59178D01*
X71193D01*
Y58772D01*
X70787D01*
X72347Y65522D02*
Y65928D01*
X72753D01*
Y65522D01*
X72347D01*
X70767Y66732D02*
Y67138D01*
X71173D01*
Y66732D01*
X70767D01*
X75947Y58642D02*
Y59048D01*
X76353D01*
Y58642D01*
X75947D01*
X71547Y66322D02*
Y66728D01*
X71953D01*
Y66322D01*
X71547D01*
X75547Y64722D02*
Y65128D01*
X75953D01*
Y64722D01*
X75547D01*
X74747Y65522D02*
Y65928D01*
X75153D01*
Y65522D01*
X74747D01*
X73947Y60722D02*
Y61128D01*
X74353D01*
Y60722D01*
X73947D01*
X72337Y58892D02*
Y59298D01*
X72743D01*
Y58892D01*
X72337D01*
X74747Y59922D02*
Y60328D01*
X75153D01*
Y59922D01*
X74747D01*
X73147Y60722D02*
Y61128D01*
X73553D01*
Y60722D01*
X73147D01*
X71557Y59002D02*
Y59408D01*
X71963D01*
Y59002D01*
X71557D01*
X73187Y58972D02*
Y59378D01*
X73593D01*
Y58972D01*
X73187D01*
X70237Y60202D02*
Y60608D01*
X70643D01*
Y60202D01*
X70237D01*
X34797Y69497D02*
Y69903D01*
X35203D01*
Y69497D01*
X34797D01*
X20122Y60997D02*
Y61403D01*
X20528D01*
Y60997D01*
X20122D01*
X22647D02*
Y61403D01*
X23053D01*
Y60997D01*
X22647D01*
X29172Y79897D02*
Y80303D01*
X29578D01*
Y79897D01*
X29172D01*
X29097Y86747D02*
Y87153D01*
X29503D01*
Y86747D01*
X29097D01*
X29397Y83722D02*
Y84128D01*
X29803D01*
Y83722D01*
X29397D01*
X30422Y86197D02*
Y86603D01*
X30828D01*
Y86197D01*
X30422D01*
X31372Y82672D02*
Y83078D01*
X31778D01*
Y82672D01*
X31372D01*
X33872Y80922D02*
Y81328D01*
X34278D01*
Y80922D01*
X33872D01*
X6822Y97072D02*
Y97478D01*
X7228D01*
Y97072D01*
X6822D01*
X1972Y97272D02*
Y97678D01*
X2378D01*
Y97272D01*
X1972D01*
X21434Y51822D02*
Y52228D01*
X21841D01*
Y51822D01*
X21434D01*
X21084Y52372D02*
Y52778D01*
X21491D01*
Y52372D01*
X21084D01*
X35972Y52847D02*
Y53253D01*
X36378D01*
Y52847D01*
X35972D01*
X32697Y52922D02*
Y53328D01*
X33103D01*
Y52922D01*
X32697D01*
X32297Y55497D02*
Y55903D01*
X32703D01*
Y55497D01*
X32297D01*
X33047Y69622D02*
Y70028D01*
X33453D01*
Y69622D01*
X33047D01*
X21822Y52872D02*
Y53278D01*
X22228D01*
Y52872D01*
X21822D01*
X35547Y55572D02*
Y55978D01*
X35953D01*
Y55572D01*
X35547D01*
X24687Y62737D02*
Y63143D01*
X25093D01*
Y62737D01*
X24687D01*
X20597Y62747D02*
Y63153D01*
X21003D01*
Y62747D01*
X20597D01*
X20622Y54472D02*
Y54878D01*
X21028D01*
Y54472D01*
X20622D01*
X27547D02*
Y54878D01*
X27953D01*
Y54472D01*
X27547D01*
X21922Y62147D02*
Y62553D01*
X22328D01*
Y62147D01*
X21922D01*
X28322Y61522D02*
Y61928D01*
X28728D01*
Y61522D01*
X28322D01*
X34047Y58847D02*
Y59253D01*
X34453D01*
Y58847D01*
X34047D01*
X35972Y53497D02*
Y53903D01*
X36378D01*
Y53497D01*
X35972D01*
X18822Y78372D02*
Y78778D01*
X19228D01*
Y78372D01*
X18822D01*
X11497Y88247D02*
Y88653D01*
X11903D01*
Y88247D01*
X11497D01*
X8872Y90447D02*
Y90853D01*
X9278D01*
Y90447D01*
X8872D01*
X9050Y86897D02*
X8847Y87303D01*
X9253D01*
X9050Y86897D01*
X8950Y85897D02*
X8747Y86303D01*
X9153D01*
X8950Y85897D01*
X5075Y88447D02*
X4872Y88853D01*
X5278D01*
X5075Y88447D01*
X4575Y85897D02*
X4372Y86303D01*
X4778D01*
X4575Y85897D01*
X7278Y93197D02*
X7075Y93603D01*
X7481D01*
X7278Y93197D01*
X17225Y74272D02*
X17022Y74678D01*
X17428D01*
X17225Y74272D01*
X16450Y74422D02*
X16247Y74828D01*
X16653D01*
X16450Y74422D01*
X6075Y88372D02*
X5872Y88778D01*
X6278D01*
X6075Y88372D01*
Y88997D02*
X5872Y89403D01*
X6278D01*
X6075Y88997D01*
X18575Y90847D02*
X18372Y91253D01*
X18778D01*
X18575Y90847D01*
X18600Y90147D02*
X18397Y90553D01*
X18803D01*
X18600Y90147D01*
X18575Y91547D02*
X18372Y91953D01*
X18778D01*
X18575Y91547D01*
X2547Y81547D02*
Y81953D01*
X2953D01*
Y81547D01*
X2547D01*
X4047Y83598D02*
Y84004D01*
X4453D01*
Y83598D01*
X4047D01*
X3547Y85547D02*
Y85953D01*
X3953D01*
Y85547D01*
X3547D01*
X3047Y89297D02*
Y89703D01*
X3453D01*
Y89297D01*
X3047D01*
X4047Y90297D02*
Y90703D01*
X4453D01*
Y90297D01*
X4047D01*
X1272Y92772D02*
Y93178D01*
X1678D01*
Y92772D01*
X1272D01*
X18575Y82922D02*
X18372Y83328D01*
X18778D01*
X18575Y82922D01*
X19350Y83372D02*
X19147Y83778D01*
X19553D01*
X19350Y83372D01*
X12647Y84272D02*
Y84678D01*
X13053D01*
Y84272D01*
X12647D01*
X6075Y89622D02*
X5872Y90028D01*
X6278D01*
X6075Y89622D01*
X18650Y86822D02*
X18447Y87228D01*
X18853D01*
X18650Y86822D01*
X3525Y90072D02*
X3322Y90478D01*
X3728D01*
X3525Y90072D01*
X22347Y78697D02*
Y79103D01*
X22753D01*
Y78697D01*
X22347D01*
Y80897D02*
Y81303D01*
X22753D01*
Y80897D01*
X22347D01*
X21797Y76572D02*
Y76978D01*
X22203D01*
Y76572D01*
X21797D01*
X22347Y83047D02*
Y83453D01*
X22753D01*
Y83047D01*
X22347D01*
X12255Y91437D02*
X12052Y91843D01*
X12458D01*
X12255Y91437D01*
X16950Y85372D02*
X16747Y85778D01*
X17153D01*
X16950Y85372D01*
X10200Y74697D02*
X9997Y75103D01*
X10403D01*
X10200Y74697D01*
X10900D02*
X10697Y75103D01*
X11103D01*
X10900Y74697D01*
X11575D02*
X11372Y75103D01*
X11778D01*
X11575Y74697D01*
X11850Y89697D02*
X11647Y90103D01*
X12053D01*
X11850Y89697D01*
X12550D02*
X12347Y90103D01*
X12753D01*
X12550Y89697D01*
X9697Y90047D02*
Y90453D01*
X10103D01*
Y90047D01*
X9697D01*
X16872Y88497D02*
Y88903D01*
X17278D01*
Y88497D01*
X16872D01*
X10947Y85447D02*
Y85853D01*
X11353D01*
Y85447D01*
X10947D01*
X10922Y84247D02*
Y84653D01*
X11328D01*
Y84247D01*
X10922D01*
Y83022D02*
Y83428D01*
X11328D01*
Y83022D01*
X10922D01*
X14397D02*
Y83428D01*
X14803D01*
Y83022D01*
X14397D01*
Y84272D02*
Y84678D01*
X14803D01*
Y84272D01*
X14397D01*
Y85447D02*
Y85853D01*
X14803D01*
Y85447D01*
X14397D01*
X12672D02*
Y85853D01*
X13078D01*
Y85447D01*
X12672D01*
Y83022D02*
Y83428D01*
X13078D01*
Y83022D01*
X12672D01*
X4725Y82947D02*
X4522Y83353D01*
X4928D01*
X4725Y82947D01*
X5350D02*
X5147Y83353D01*
X5553D01*
X5350Y82947D01*
X5972Y81972D02*
Y82378D01*
X6378D01*
Y81972D01*
X5972D01*
Y79872D02*
Y80278D01*
X6378D01*
Y79872D01*
X5972D01*
X8300Y80047D02*
X8097Y80453D01*
X8503D01*
X8300Y80047D01*
X7550Y81397D02*
X7347Y81803D01*
X7753D01*
X7550Y81397D01*
X5897Y83072D02*
Y83478D01*
X6303D01*
Y83072D01*
X5897D01*
X8797Y78572D02*
Y78978D01*
X9203D01*
Y78572D01*
X8797D01*
X7872D02*
Y78978D01*
X8278D01*
Y78572D01*
X7872D01*
X8347D02*
Y78978D01*
X8753D01*
Y78572D01*
X8347D01*
X11797Y83672D02*
Y84078D01*
X12203D01*
Y83672D01*
X11797D01*
Y84872D02*
Y85278D01*
X12203D01*
Y84872D01*
X11797D01*
X13522D02*
Y85278D01*
X13928D01*
Y84872D01*
X13522D01*
Y83672D02*
Y84078D01*
X13928D01*
Y83672D01*
X13522D01*
X13997Y78522D02*
Y78928D01*
X14403D01*
Y78522D01*
X13997D01*
X13522Y78522D02*
Y78928D01*
X13928D01*
Y78522D01*
X13522D01*
X13022D02*
Y78928D01*
X13428D01*
Y78522D01*
X13022D01*
X9247Y90047D02*
Y90453D01*
X9653D01*
Y90047D01*
X9247D01*
X18575Y81247D02*
X18372Y81653D01*
X18778D01*
X18575Y81247D01*
Y82047D02*
X18372Y82453D01*
X18778D01*
X18575Y82047D01*
X35047Y71697D02*
Y72103D01*
X35453D01*
Y71697D01*
X35047D01*
X33047D02*
Y72103D01*
X33453D01*
Y71697D01*
X33047D01*
X34922Y63247D02*
Y63653D01*
X35328D01*
Y63247D01*
X34922D01*
X35422Y63822D02*
Y64228D01*
X35828D01*
Y63822D01*
X35422D01*
X34822Y61022D02*
Y61428D01*
X35228D01*
Y61022D01*
X34822D01*
X34072Y65372D02*
Y65778D01*
X34478D01*
Y65372D01*
X34072D01*
X35422Y65797D02*
Y66203D01*
X35828D01*
Y65797D01*
X35422D01*
X35022Y65472D02*
Y65878D01*
X35428D01*
Y65472D01*
X35022D01*
X35372Y65097D02*
Y65503D01*
X35778D01*
Y65097D01*
X35372D01*
X34922Y63972D02*
Y64378D01*
X35328D01*
Y63972D01*
X34922D01*
X35422Y63297D02*
Y63703D01*
X35828D01*
Y63297D01*
X35422D01*
X35372Y62022D02*
Y62428D01*
X35778D01*
Y62022D01*
X35372D01*
Y61522D02*
Y61928D01*
X35778D01*
Y61522D01*
X35372D01*
Y61022D02*
Y61428D01*
X35778D01*
Y61022D01*
X35372D01*
X35347Y60522D02*
Y60928D01*
X35753D01*
Y60522D01*
X35347D01*
X34672Y59672D02*
Y60078D01*
X35078D01*
Y59672D01*
X34672D01*
X35422Y59197D02*
Y59603D01*
X35828D01*
Y59197D01*
X35422D01*
X32297Y53447D02*
Y53853D01*
X32703D01*
Y53447D01*
X32297D01*
X29022Y91272D02*
Y91678D01*
X29428D01*
Y91272D01*
X29022D01*
X64400Y1222D02*
X64197Y1628D01*
X64603D01*
X64400Y1222D01*
X3650Y26347D02*
X3447Y26753D01*
X3853D01*
X3650Y26347D01*
X21250Y103972D02*
X21047Y104378D01*
X21453D01*
X21250Y103972D01*
X26800Y115172D02*
X26597Y115578D01*
X27003D01*
X26800Y115172D01*
X9650Y110297D02*
X9447Y110703D01*
X9853D01*
X9650Y110297D01*
X3875Y115497D02*
X3672Y115903D01*
X4078D01*
X3875Y115497D01*
X56575Y26222D02*
X56372Y26628D01*
X56778D01*
X56575Y26222D01*
X82625Y27772D02*
X82422Y28178D01*
X82828D01*
X82625Y27772D01*
X44125Y3972D02*
X43922Y4378D01*
X44328D01*
X44125Y3972D01*
X82750Y4522D02*
X82547Y4928D01*
X82953D01*
X82750Y4522D01*
X3100Y4947D02*
X2897Y5353D01*
X3303D01*
X3100Y4947D01*
X24750Y96272D02*
X24547Y96678D01*
X24953D01*
X24750Y96272D01*
X72100Y83647D02*
X71897Y84053D01*
X72303D01*
X72100Y83647D01*
X77800Y94247D02*
X77597Y94653D01*
X78003D01*
X77800Y94247D01*
X81725Y91697D02*
X81522Y92103D01*
X81928D01*
X81725Y91697D01*
X64950Y86572D02*
X64747Y86978D01*
X65153D01*
X64950Y86572D01*
X64150Y94322D02*
X63947Y94728D01*
X64353D01*
X64150Y94322D01*
X40400Y94697D02*
X40197Y95103D01*
X40603D01*
X40400Y94697D01*
X7775Y104072D02*
X7572Y104478D01*
X7978D01*
X7775Y104072D01*
X31650Y96222D02*
X31447Y96628D01*
X31853D01*
X31650Y96222D01*
X33872Y79247D02*
Y79653D01*
X34278D01*
Y79247D01*
X33872D01*
X14325Y68122D02*
X14122Y68528D01*
X14528D01*
X14325Y68122D01*
X14225Y63797D02*
X14022Y64203D01*
X14428D01*
X14225Y63797D01*
X16600Y58847D02*
X16397Y59253D01*
X16803D01*
X16600Y58847D01*
X40600Y103397D02*
X40397Y103803D01*
X40803D01*
X40600Y103397D01*
X40675Y111222D02*
X40472Y111628D01*
X40878D01*
X40675Y111222D01*
X51150Y111747D02*
X50947Y112153D01*
X51353D01*
X51150Y111747D01*
X64125Y111822D02*
X63922Y112228D01*
X64328D01*
X64125Y111822D01*
X76950Y112047D02*
X76747Y112453D01*
X77153D01*
X76950Y112047D01*
X51225Y103472D02*
X51022Y103878D01*
X51428D01*
X51225Y103472D01*
X64200Y103322D02*
X63997Y103728D01*
X64403D01*
X64200Y103322D01*
X77175Y103247D02*
X76972Y103653D01*
X77378D01*
X77175Y103247D01*
X51075Y94447D02*
X50872Y94853D01*
X51278D01*
X51075Y94447D01*
X77475Y46622D02*
X77272Y47028D01*
X77678D01*
X77475Y46622D01*
X15375Y44297D02*
X15172Y44703D01*
X15578D01*
X15375Y44297D01*
X26075Y44097D02*
X25872Y44503D01*
X26278D01*
X26075Y44097D01*
X4575Y43497D02*
X4372Y43903D01*
X4778D01*
X4575Y43497D01*
X5675Y52597D02*
X5472Y53003D01*
X5878D01*
X5675Y52597D01*
X6175Y60872D02*
X5972Y61278D01*
X6378D01*
X6175Y60872D01*
X6475Y67547D02*
X6272Y67953D01*
X6678D01*
X6475Y67547D01*
X25500Y82722D02*
X25297Y83128D01*
X25703D01*
X25500Y82722D01*
X27997Y89247D02*
Y89653D01*
X28403D01*
Y89247D01*
X27997D01*
X30422Y88272D02*
Y88678D01*
X30828D01*
Y88272D01*
X30422D01*
X28097Y88222D02*
Y88628D01*
X28503D01*
Y88222D01*
X28097D01*
X30497Y91247D02*
Y91653D01*
X30903D01*
Y91247D01*
X30497D01*
X29747Y85722D02*
Y86128D01*
X30153D01*
Y85722D01*
X29747D01*
X36847Y85447D02*
Y85853D01*
X37253D01*
Y85447D01*
X36847D01*
X30422Y86772D02*
Y87178D01*
X30828D01*
Y86772D01*
X30422D01*
Y87297D02*
Y87703D01*
X30828D01*
Y87297D01*
X30422D01*
X30347Y89372D02*
Y89778D01*
X30753D01*
Y89372D01*
X30347D01*
X34547Y64922D02*
Y65328D01*
X34953D01*
Y64922D01*
X34547D01*
X32122Y64772D02*
Y65178D01*
X32528D01*
Y64772D01*
X32122D01*
X30822Y61522D02*
Y61928D01*
X31228D01*
Y61522D01*
X30822D01*
Y60222D02*
Y60628D01*
X31228D01*
Y60222D01*
X30822D01*
X34772Y62047D02*
Y62453D01*
X35178D01*
Y62047D01*
X34772D01*
X33447Y65397D02*
Y65803D01*
X33853D01*
Y65397D01*
X33447D01*
X33422Y64122D02*
Y64528D01*
X33828D01*
Y64122D01*
X33422D01*
Y62172D02*
Y62578D01*
X33828D01*
Y62172D01*
X33422D01*
Y60222D02*
Y60628D01*
X33828D01*
Y60222D01*
X33422D01*
Y60872D02*
Y61278D01*
X33828D01*
Y60872D01*
X33422D01*
Y59572D02*
Y59978D01*
X33828D01*
Y59572D01*
X33422D01*
X32122Y65422D02*
Y65828D01*
X32528D01*
Y65422D01*
X32122D01*
Y63472D02*
Y63878D01*
X32528D01*
Y63472D01*
X32122D01*
Y62822D02*
Y63228D01*
X32528D01*
Y62822D01*
X32122D01*
Y62172D02*
Y62578D01*
X32528D01*
Y62172D01*
X32122D01*
Y60872D02*
Y61278D01*
X32528D01*
Y60872D01*
X32122D01*
Y60222D02*
Y60628D01*
X32528D01*
Y60222D01*
X32122D01*
Y59572D02*
Y59978D01*
X32528D01*
Y59572D01*
X32122D01*
X30822Y63472D02*
Y63878D01*
X31228D01*
Y63472D01*
X30822D01*
Y64122D02*
Y64528D01*
X31228D01*
Y64122D01*
X30822D01*
Y65422D02*
Y65828D01*
X31228D01*
Y65422D01*
X30822D01*
X29522D02*
Y65828D01*
X29928D01*
Y65422D01*
X29522D01*
Y64772D02*
Y65178D01*
X29928D01*
Y64772D01*
X29522D01*
Y61522D02*
Y61928D01*
X29928D01*
Y61522D01*
X29522D01*
Y60222D02*
Y60628D01*
X29928D01*
Y60222D01*
X29522D01*
Y59572D02*
Y59978D01*
X29928D01*
Y59572D01*
X29522D01*
X30822D02*
Y59978D01*
X31228D01*
Y59572D01*
X30822D01*
Y64772D02*
Y65178D01*
X31228D01*
Y64772D01*
X30822D01*
X32122Y64122D02*
Y64528D01*
X32528D01*
Y64122D01*
X32122D01*
X29522Y62822D02*
Y63228D01*
X29928D01*
Y62822D01*
X29522D01*
X30822Y60872D02*
Y61278D01*
X31228D01*
Y60872D01*
X30822D01*
X33422Y63472D02*
Y63878D01*
X33828D01*
Y63472D01*
X33422D01*
Y61522D02*
Y61928D01*
X33828D01*
Y61522D01*
X33422D01*
Y62822D02*
Y63228D01*
X33828D01*
Y62822D01*
X33422D01*
X34722Y61522D02*
Y61928D01*
X35128D01*
Y61522D01*
X34722D01*
X34697Y62797D02*
Y63203D01*
X35103D01*
Y62797D01*
X34697D01*
X34822Y60522D02*
Y60928D01*
X35228D01*
Y60522D01*
X34822D01*
X29522Y64122D02*
Y64528D01*
X29928D01*
Y64122D01*
X29522D01*
X30822Y62822D02*
Y63228D01*
X31228D01*
Y62822D01*
X30822D01*
X32122Y61522D02*
Y61928D01*
X32528D01*
Y61522D01*
X32122D01*
X29522Y62172D02*
Y62578D01*
X29928D01*
Y62172D01*
X29522D01*
Y60872D02*
Y61278D01*
X29928D01*
Y60872D01*
X29522D01*
Y63472D02*
Y63878D01*
X29928D01*
Y63472D01*
X29522D01*
X30822Y62172D02*
Y62578D01*
X31228D01*
Y62172D01*
X30822D01*
X38322Y52947D02*
Y53353D01*
X38728D01*
Y52947D01*
X38322D01*
X28322Y62147D02*
Y62553D01*
X28728D01*
Y62147D01*
X28322D01*
X35047Y58847D02*
Y59253D01*
X35453D01*
Y58847D01*
X35047D01*
X35397Y59697D02*
Y60103D01*
X35803D01*
Y59697D01*
X35397D01*
X38872Y60722D02*
Y61128D01*
X39278D01*
Y60722D01*
X38872D01*
X40297Y61597D02*
Y62003D01*
X40703D01*
Y61597D01*
X40297D01*
X41047Y63722D02*
Y64128D01*
X41453D01*
Y63722D01*
X41047D01*
X41647Y63097D02*
Y63503D01*
X42053D01*
Y63097D01*
X41647D01*
X41022Y62597D02*
Y63003D01*
X41428D01*
Y62597D01*
X41022D01*
X73147Y64722D02*
Y65128D01*
X73553D01*
Y64722D01*
X73147D01*
X78222Y68572D02*
Y68978D01*
X78628D01*
Y68572D01*
X78222D01*
X56647Y51272D02*
Y51678D01*
X57053D01*
Y51272D01*
X56647D01*
X38422Y68622D02*
Y69028D01*
X38828D01*
Y68622D01*
X38422D01*
X41822Y61797D02*
Y62203D01*
X42228D01*
Y61797D01*
X41822D01*
X39797Y62472D02*
Y62878D01*
X40203D01*
Y62472D01*
X39797D01*
X40697Y60622D02*
Y61028D01*
X41103D01*
Y60622D01*
X40697D01*
X39972D02*
Y61028D01*
X40378D01*
Y60622D01*
X39972D01*
X41872Y63872D02*
Y64278D01*
X42278D01*
Y63872D01*
X41872D01*
X39572Y61597D02*
Y62003D01*
X39978D01*
Y61597D01*
X39572D01*
X56522Y57297D02*
Y57703D01*
X56928D01*
Y57297D01*
X56522D01*
X76347Y61522D02*
Y61928D01*
X76753D01*
Y61522D01*
X76347D01*
X38872Y61597D02*
Y62003D01*
X39278D01*
Y61597D01*
X38872D01*
X56522Y56497D02*
Y56903D01*
X56928D01*
Y56497D01*
X56522D01*
X76347Y60722D02*
Y61128D01*
X76753D01*
Y60722D01*
X76347D01*
X85000Y70047D02*
X84797Y70453D01*
X85203D01*
X85000Y70047D01*
Y71047D02*
X84797Y71453D01*
X85203D01*
X85000Y71047D01*
X69700Y70422D02*
X69497Y70828D01*
X69903D01*
X69700Y70422D01*
X82050Y72397D02*
X81847Y72803D01*
X82253D01*
X82050Y72397D01*
X84097Y62072D02*
Y62478D01*
X84503D01*
Y62072D01*
X84097D01*
X83947Y59597D02*
Y60003D01*
X84353D01*
Y59597D01*
X83947D01*
X71797Y53472D02*
Y53878D01*
X72203D01*
Y53472D01*
X71797D01*
X73047Y53697D02*
Y54103D01*
X73453D01*
Y53697D01*
X73047D01*
X75047D02*
Y54103D01*
X75453D01*
Y53697D01*
X75047D01*
X77797D02*
Y54103D01*
X78203D01*
Y53697D01*
X77797D01*
X79797D02*
Y54103D01*
X80203D01*
Y53697D01*
X79797D01*
X81797Y53197D02*
Y53603D01*
X82203D01*
Y53197D01*
X81797D01*
X75047Y51172D02*
Y51578D01*
X75453D01*
Y51172D01*
X75047D01*
X83297Y72097D02*
Y72503D01*
X83703D01*
Y72097D01*
X83297D01*
X72797Y52047D02*
Y52453D01*
X73203D01*
Y52047D01*
X72797D01*
X52472Y76347D02*
Y76753D01*
X52878D01*
Y76347D01*
X52472D01*
X60397Y77247D02*
Y77653D01*
X60803D01*
Y77247D01*
X60397D01*
X70147D02*
Y77653D01*
X70553D01*
Y77247D01*
X70147D01*
X80897Y76547D02*
Y76953D01*
X81303D01*
Y76547D01*
X80897D01*
Y77047D02*
Y77453D01*
X81303D01*
Y77047D01*
X80897D01*
X49500Y80547D02*
X49297Y80953D01*
X49703D01*
X49500Y80547D01*
X43000Y86797D02*
X42797Y87203D01*
X43203D01*
X43000Y86797D01*
X42750Y81297D02*
X42547Y81703D01*
X42953D01*
X42750Y81297D01*
X88000Y71297D02*
X87797Y71703D01*
X88203D01*
X88000Y71297D01*
Y64547D02*
X87797Y64953D01*
X88203D01*
X88000Y64547D01*
Y57297D02*
X87797Y57703D01*
X88203D01*
X88000Y57297D01*
X36997Y75822D02*
Y76228D01*
X37403D01*
Y75822D01*
X36997D01*
Y75322D02*
Y75728D01*
X37403D01*
Y75322D01*
X36997D01*
X36197Y48372D02*
Y48778D01*
X36603D01*
Y48372D01*
X36197D01*
Y47872D02*
Y48278D01*
X36603D01*
Y47872D01*
X36197D01*
D58*
X35453Y58450D02*
G03*
X35453Y58450I-203J0D01*
G01*
X32453Y57950D02*
G03*
X32453Y57950I-203J0D01*
G01*
M02*
