G04 Layer_Physical_Order=2*
G04 Layer_Color=36540*
%FSLAX43Y43*%
%MOMM*%
G71*
G01*
G75*
%ADD16C,0.400*%
%ADD25C,0.200*%
%ADD27C,0.100*%
%ADD38C,0.250*%
%ADD39C,0.600*%
G36*
X88592Y408D02*
X408D01*
Y119592D01*
X88592D01*
Y408D01*
D02*
G37*
%LPC*%
G36*
X62325Y61006D02*
X62208Y60983D01*
X62109Y60916D01*
X62042Y60817D01*
X62019Y60700D01*
X62042Y60583D01*
X62109Y60484D01*
X62208Y60417D01*
X62325Y60394D01*
X62442Y60417D01*
X62541Y60484D01*
X62608Y60583D01*
X62631Y60700D01*
X62608Y60817D01*
X62541Y60916D01*
X62442Y60983D01*
X62325Y61006D01*
D02*
G37*
G36*
X83850Y61021D02*
X83733Y60998D01*
X83634Y60931D01*
X83567Y60832D01*
X83544Y60715D01*
X83567Y60598D01*
X83634Y60499D01*
X83733Y60432D01*
X83850Y60409D01*
X83967Y60432D01*
X84066Y60499D01*
X84133Y60598D01*
X84156Y60715D01*
X84133Y60832D01*
X84066Y60931D01*
X83967Y60998D01*
X83850Y61021D01*
D02*
G37*
G36*
X56725Y61006D02*
X56608Y60983D01*
X56509Y60916D01*
X56442Y60817D01*
X56419Y60700D01*
X56442Y60583D01*
X56509Y60484D01*
X56608Y60417D01*
X56725Y60394D01*
X56842Y60417D01*
X56941Y60484D01*
X57008Y60583D01*
X57031Y60700D01*
X57008Y60817D01*
X56941Y60916D01*
X56842Y60983D01*
X56725Y61006D01*
D02*
G37*
G36*
X55125D02*
X55008Y60983D01*
X54909Y60916D01*
X54842Y60817D01*
X54819Y60700D01*
X54842Y60583D01*
X54909Y60484D01*
X55008Y60417D01*
X55125Y60394D01*
X55242Y60417D01*
X55341Y60484D01*
X55408Y60583D01*
X55431Y60700D01*
X55408Y60817D01*
X55341Y60916D01*
X55242Y60983D01*
X55125Y61006D01*
D02*
G37*
G36*
X55925D02*
X55808Y60983D01*
X55709Y60916D01*
X55642Y60817D01*
X55619Y60700D01*
X55642Y60583D01*
X55709Y60484D01*
X55808Y60417D01*
X55925Y60394D01*
X56042Y60417D01*
X56141Y60484D01*
X56208Y60583D01*
X56231Y60700D01*
X56208Y60817D01*
X56141Y60916D01*
X56042Y60983D01*
X55925Y61006D01*
D02*
G37*
G36*
X73350Y61231D02*
X73233Y61208D01*
X73134Y61141D01*
X73067Y61042D01*
X73044Y60925D01*
X73067Y60808D01*
X73134Y60709D01*
X73233Y60642D01*
X73350Y60619D01*
X73467Y60642D01*
X73566Y60709D01*
X73633Y60808D01*
X73656Y60925D01*
X73633Y61042D01*
X73566Y61141D01*
X73467Y61208D01*
X73350Y61231D01*
D02*
G37*
G36*
X74150D02*
X74033Y61208D01*
X73934Y61141D01*
X73867Y61042D01*
X73844Y60925D01*
X73867Y60808D01*
X73934Y60709D01*
X74033Y60642D01*
X74150Y60619D01*
X74267Y60642D01*
X74366Y60709D01*
X74433Y60808D01*
X74456Y60925D01*
X74433Y61042D01*
X74366Y61141D01*
X74267Y61208D01*
X74150Y61231D01*
D02*
G37*
G36*
X39075Y61231D02*
X38958Y61208D01*
X38859Y61141D01*
X38792Y61042D01*
X38769Y60925D01*
X38792Y60808D01*
X38859Y60709D01*
X38958Y60642D01*
X39075Y60619D01*
X39192Y60642D01*
X39291Y60709D01*
X39358Y60808D01*
X39381Y60925D01*
X39358Y61042D01*
X39291Y61141D01*
X39192Y61208D01*
X39075Y61231D01*
D02*
G37*
G36*
X40175Y61131D02*
X40058Y61108D01*
X39959Y61041D01*
X39892Y60942D01*
X39869Y60825D01*
X39892Y60708D01*
X39959Y60609D01*
X40058Y60542D01*
X40175Y60519D01*
X40292Y60542D01*
X40391Y60609D01*
X40458Y60708D01*
X40481Y60825D01*
X40458Y60942D01*
X40391Y61041D01*
X40292Y61108D01*
X40175Y61131D01*
D02*
G37*
G36*
X40900D02*
X40783Y61108D01*
X40684Y61041D01*
X40617Y60942D01*
X40594Y60825D01*
X40617Y60708D01*
X40684Y60609D01*
X40783Y60542D01*
X40900Y60519D01*
X41017Y60542D01*
X41116Y60609D01*
X41183Y60708D01*
X41206Y60825D01*
X41183Y60942D01*
X41116Y61041D01*
X41017Y61108D01*
X40900Y61131D01*
D02*
G37*
G36*
X57525Y60206D02*
X57408Y60183D01*
X57309Y60116D01*
X57242Y60017D01*
X57219Y59900D01*
X57242Y59783D01*
X57309Y59684D01*
X57408Y59617D01*
X57525Y59594D01*
X57642Y59617D01*
X57741Y59684D01*
X57808Y59783D01*
X57831Y59900D01*
X57808Y60017D01*
X57741Y60116D01*
X57642Y60183D01*
X57525Y60206D01*
D02*
G37*
G36*
X74950Y60431D02*
X74833Y60408D01*
X74734Y60341D01*
X74667Y60242D01*
X74644Y60125D01*
X74667Y60008D01*
X74734Y59909D01*
X74833Y59842D01*
X74950Y59819D01*
X75067Y59842D01*
X75166Y59909D01*
X75233Y60008D01*
X75256Y60125D01*
X75233Y60242D01*
X75166Y60341D01*
X75067Y60408D01*
X74950Y60431D01*
D02*
G37*
G36*
X56725Y60206D02*
X56608Y60183D01*
X56509Y60116D01*
X56442Y60017D01*
X56419Y59900D01*
X56442Y59783D01*
X56509Y59684D01*
X56608Y59617D01*
X56725Y59594D01*
X56842Y59617D01*
X56941Y59684D01*
X57008Y59783D01*
X57031Y59900D01*
X57008Y60017D01*
X56941Y60116D01*
X56842Y60183D01*
X56725Y60206D01*
D02*
G37*
G36*
X34875Y60181D02*
X34758Y60158D01*
X34659Y60091D01*
X34592Y59992D01*
X34569Y59875D01*
X34592Y59758D01*
X34659Y59659D01*
X34758Y59592D01*
X34875Y59569D01*
X34992Y59592D01*
X35091Y59659D01*
X35158Y59758D01*
X35181Y59875D01*
X35158Y59992D01*
X35091Y60091D01*
X34992Y60158D01*
X34875Y60181D01*
D02*
G37*
G36*
X55925Y60206D02*
X55808Y60183D01*
X55709Y60116D01*
X55642Y60017D01*
X55619Y59900D01*
X55642Y59783D01*
X55709Y59684D01*
X55808Y59617D01*
X55925Y59594D01*
X56042Y59617D01*
X56141Y59684D01*
X56208Y59783D01*
X56231Y59900D01*
X56208Y60017D01*
X56141Y60116D01*
X56042Y60183D01*
X55925Y60206D01*
D02*
G37*
G36*
X54325Y61006D02*
X54208Y60982D01*
X54109Y60916D01*
X54042Y60817D01*
X54019Y60700D01*
X54042Y60583D01*
X54109Y60484D01*
X54208Y60417D01*
X54325Y60394D01*
X54442Y60417D01*
X54541Y60484D01*
X54608Y60583D01*
X54631Y60700D01*
X54608Y60817D01*
X54541Y60916D01*
X54442Y60982D01*
X54325Y61006D01*
D02*
G37*
G36*
X53525Y61006D02*
X53408Y60983D01*
X53309Y60916D01*
X53242Y60817D01*
X53219Y60700D01*
X53242Y60583D01*
X53309Y60484D01*
X53408Y60417D01*
X53525Y60394D01*
X53642Y60417D01*
X53741Y60484D01*
X53808Y60583D01*
X53831Y60700D01*
X53808Y60817D01*
X53741Y60916D01*
X53642Y60983D01*
X53525Y61006D01*
D02*
G37*
G36*
X33625Y60731D02*
X33508Y60708D01*
X33409Y60641D01*
X33342Y60542D01*
X33319Y60425D01*
X33342Y60308D01*
X33409Y60209D01*
X33508Y60142D01*
X33625Y60119D01*
X33742Y60142D01*
X33841Y60209D01*
X33908Y60308D01*
X33931Y60425D01*
X33908Y60542D01*
X33841Y60641D01*
X33742Y60708D01*
X33625Y60731D01*
D02*
G37*
G36*
X31025D02*
X30908Y60708D01*
X30809Y60641D01*
X30742Y60542D01*
X30719Y60425D01*
X30742Y60308D01*
X30809Y60209D01*
X30908Y60142D01*
X31025Y60119D01*
X31142Y60142D01*
X31241Y60209D01*
X31308Y60308D01*
X31331Y60425D01*
X31308Y60542D01*
X31241Y60641D01*
X31142Y60708D01*
X31025Y60731D01*
D02*
G37*
G36*
X32325D02*
X32208Y60708D01*
X32109Y60641D01*
X32042Y60542D01*
X32019Y60425D01*
X32042Y60308D01*
X32109Y60209D01*
X32208Y60142D01*
X32325Y60119D01*
X32442Y60142D01*
X32541Y60209D01*
X32608Y60308D01*
X32631Y60425D01*
X32608Y60542D01*
X32541Y60641D01*
X32442Y60708D01*
X32325Y60731D01*
D02*
G37*
G36*
X76550Y61231D02*
X76433Y61208D01*
X76334Y61141D01*
X76267Y61042D01*
X76244Y60925D01*
X76267Y60808D01*
X76334Y60709D01*
X76433Y60642D01*
X76550Y60619D01*
X76667Y60642D01*
X76766Y60709D01*
X76833Y60808D01*
X76856Y60925D01*
X76833Y61042D01*
X76766Y61141D01*
X76667Y61208D01*
X76550Y61231D01*
D02*
G37*
G36*
X32325Y62031D02*
X32208Y62008D01*
X32109Y61941D01*
X32042Y61842D01*
X32019Y61725D01*
X32042Y61608D01*
X32109Y61509D01*
X32208Y61442D01*
X32325Y61419D01*
X32442Y61442D01*
X32541Y61509D01*
X32608Y61608D01*
X32631Y61725D01*
X32608Y61842D01*
X32541Y61941D01*
X32442Y62008D01*
X32325Y62031D01*
D02*
G37*
G36*
X33625D02*
X33508Y62008D01*
X33409Y61941D01*
X33342Y61842D01*
X33319Y61725D01*
X33342Y61608D01*
X33409Y61509D01*
X33508Y61442D01*
X33625Y61419D01*
X33742Y61442D01*
X33841Y61509D01*
X33908Y61608D01*
X33931Y61725D01*
X33908Y61842D01*
X33841Y61941D01*
X33742Y62008D01*
X33625Y62031D01*
D02*
G37*
G36*
X31025D02*
X30908Y62008D01*
X30809Y61941D01*
X30742Y61842D01*
X30719Y61725D01*
X30742Y61608D01*
X30809Y61509D01*
X30908Y61442D01*
X31025Y61419D01*
X31142Y61442D01*
X31241Y61509D01*
X31308Y61608D01*
X31331Y61725D01*
X31308Y61842D01*
X31241Y61941D01*
X31142Y62008D01*
X31025Y62031D01*
D02*
G37*
G36*
X28525Y62656D02*
X28408Y62633D01*
X28309Y62566D01*
X28242Y62467D01*
X28219Y62350D01*
X28242Y62233D01*
X28309Y62134D01*
X28368Y62094D01*
Y61981D01*
X28309Y61941D01*
X28242Y61842D01*
X28219Y61725D01*
X28242Y61608D01*
X28309Y61509D01*
X28408Y61442D01*
X28525Y61419D01*
X28642Y61442D01*
X28741Y61509D01*
X28808Y61608D01*
X28831Y61725D01*
X28808Y61842D01*
X28741Y61941D01*
X28682Y61981D01*
Y62094D01*
X28741Y62134D01*
X28808Y62233D01*
X28831Y62350D01*
X28808Y62467D01*
X28741Y62566D01*
X28642Y62633D01*
X28525Y62656D01*
D02*
G37*
G36*
X29725Y62031D02*
X29608Y62008D01*
X29509Y61941D01*
X29442Y61842D01*
X29419Y61725D01*
X29442Y61608D01*
X29509Y61509D01*
X29608Y61442D01*
X29725Y61419D01*
X29842Y61442D01*
X29941Y61509D01*
X30008Y61608D01*
X30031Y61725D01*
X30008Y61842D01*
X29941Y61941D01*
X29842Y62008D01*
X29725Y62031D01*
D02*
G37*
G36*
X39775Y62106D02*
X39658Y62083D01*
X39559Y62016D01*
X39492Y61917D01*
X39482Y61863D01*
X39476Y61834D01*
X39374D01*
X39368Y61863D01*
X39358Y61917D01*
X39291Y62016D01*
X39192Y62083D01*
X39075Y62106D01*
X38958Y62083D01*
X38859Y62016D01*
X38792Y61917D01*
X38769Y61800D01*
X38792Y61683D01*
X38859Y61584D01*
X38958Y61517D01*
X39075Y61494D01*
X39192Y61517D01*
X39291Y61584D01*
X39358Y61683D01*
X39368Y61737D01*
X39374Y61766D01*
X39476D01*
X39482Y61737D01*
X39492Y61683D01*
X39559Y61584D01*
X39658Y61517D01*
X39775Y61494D01*
X39892Y61517D01*
X39991Y61584D01*
X40058Y61683D01*
X40081Y61800D01*
X40058Y61917D01*
X39991Y62016D01*
X39892Y62083D01*
X39775Y62106D01*
D02*
G37*
G36*
X35575Y62531D02*
X35458Y62508D01*
X35359Y62441D01*
X35292Y62342D01*
X35269Y62225D01*
X35292Y62108D01*
X35334Y62045D01*
X35351Y61975D01*
X35334Y61905D01*
X35306Y61862D01*
X35261Y61853D01*
X35239D01*
X35194Y61862D01*
X35141Y61941D01*
X35042Y62008D01*
X34925Y62031D01*
X34808Y62008D01*
X34709Y61941D01*
X34642Y61842D01*
X34619Y61725D01*
X34642Y61608D01*
X34709Y61509D01*
X34808Y61442D01*
X34925Y61419D01*
X35042Y61442D01*
X35141Y61509D01*
X35194Y61588D01*
X35239Y61597D01*
X35261D01*
X35306Y61588D01*
X35334Y61545D01*
X35351Y61475D01*
X35334Y61405D01*
X35292Y61342D01*
X35269Y61225D01*
X35292Y61108D01*
X35327Y61057D01*
X35328Y61041D01*
X35250Y60951D01*
X35233Y60947D01*
X35142Y61008D01*
X35025Y61031D01*
X34908Y61008D01*
X34809Y60941D01*
X34742Y60842D01*
X34719Y60725D01*
X34742Y60608D01*
X34809Y60509D01*
X34908Y60442D01*
X35025Y60419D01*
X35142Y60442D01*
X35241Y60509D01*
X35334D01*
X35433Y60442D01*
X35550Y60419D01*
X35667Y60442D01*
X35766Y60509D01*
X35833Y60608D01*
X35856Y60725D01*
X35833Y60842D01*
X35798Y60893D01*
X35792Y60998D01*
X35808Y61034D01*
X35858Y61108D01*
X35881Y61225D01*
X35858Y61342D01*
X35816Y61405D01*
X35799Y61475D01*
X35816Y61545D01*
X35858Y61608D01*
X35881Y61725D01*
X35858Y61842D01*
X35816Y61905D01*
X35799Y61975D01*
X35816Y62045D01*
X35858Y62108D01*
X35881Y62225D01*
X35858Y62342D01*
X35791Y62441D01*
X35692Y62508D01*
X35575Y62531D01*
D02*
G37*
G36*
X42025Y62306D02*
X41908Y62283D01*
X41809Y62216D01*
X41742Y62117D01*
X41719Y62000D01*
X41742Y61883D01*
X41809Y61784D01*
X41908Y61717D01*
X42025Y61694D01*
X42142Y61717D01*
X42241Y61784D01*
X42308Y61883D01*
X42331Y62000D01*
X42308Y62117D01*
X42241Y62216D01*
X42142Y62283D01*
X42025Y62306D01*
D02*
G37*
G36*
X76550Y62031D02*
X76433Y62008D01*
X76334Y61941D01*
X76267Y61842D01*
X76244Y61725D01*
X76267Y61608D01*
X76334Y61509D01*
X76433Y61442D01*
X76550Y61419D01*
X76667Y61442D01*
X76766Y61509D01*
X76833Y61608D01*
X76856Y61725D01*
X76833Y61842D01*
X76766Y61941D01*
X76667Y62008D01*
X76550Y62031D01*
D02*
G37*
G36*
X40500Y62106D02*
X40383Y62083D01*
X40284Y62016D01*
X40217Y61917D01*
X40194Y61800D01*
X40217Y61683D01*
X40284Y61584D01*
X40383Y61517D01*
X40500Y61494D01*
X40617Y61517D01*
X40716Y61584D01*
X40783Y61683D01*
X40806Y61800D01*
X40783Y61917D01*
X40716Y62016D01*
X40617Y62083D01*
X40500Y62106D01*
D02*
G37*
G36*
X22850Y61506D02*
X22733Y61483D01*
X22634Y61416D01*
X22567Y61317D01*
X22544Y61200D01*
X22567Y61083D01*
X22634Y60984D01*
X22733Y60917D01*
X22850Y60894D01*
X22967Y60917D01*
X23066Y60984D01*
X23133Y61083D01*
X23156Y61200D01*
X23133Y61317D01*
X23066Y61416D01*
X22967Y61483D01*
X22850Y61506D01*
D02*
G37*
G36*
X52725Y61806D02*
X52608Y61783D01*
X52509Y61716D01*
X52442Y61617D01*
X52419Y61500D01*
X52442Y61383D01*
X52509Y61284D01*
X52608Y61217D01*
X52725Y61194D01*
X52842Y61217D01*
X52941Y61284D01*
X53008Y61383D01*
X53031Y61500D01*
X53008Y61617D01*
X52941Y61716D01*
X52842Y61783D01*
X52725Y61806D01*
D02*
G37*
G36*
X20325Y61506D02*
X20208Y61483D01*
X20109Y61416D01*
X20042Y61317D01*
X20019Y61200D01*
X20042Y61083D01*
X20109Y60984D01*
X20208Y60917D01*
X20325Y60894D01*
X20442Y60917D01*
X20541Y60984D01*
X20608Y61083D01*
X20631Y61200D01*
X20608Y61317D01*
X20541Y61416D01*
X20442Y61483D01*
X20325Y61506D01*
D02*
G37*
G36*
X78150Y61231D02*
X78033Y61208D01*
X77934Y61141D01*
X77867Y61042D01*
X77844Y60925D01*
X77867Y60808D01*
X77934Y60709D01*
X78033Y60642D01*
X78150Y60619D01*
X78267Y60642D01*
X78366Y60709D01*
X78433Y60808D01*
X78456Y60925D01*
X78433Y61042D01*
X78366Y61141D01*
X78267Y61208D01*
X78150Y61231D01*
D02*
G37*
G36*
X70850Y61008D02*
X70733Y60985D01*
X70634Y60918D01*
X70567Y60819D01*
X70561Y60789D01*
X70449Y60709D01*
X70440Y60711D01*
X70323Y60688D01*
X70224Y60621D01*
X70157Y60522D01*
X70134Y60405D01*
X70157Y60288D01*
X70224Y60189D01*
X70323Y60122D01*
X70440Y60099D01*
X70557Y60122D01*
X70656Y60189D01*
X70723Y60288D01*
X70729Y60322D01*
X70841Y60398D01*
X70850Y60396D01*
X70967Y60419D01*
X71066Y60486D01*
X71133Y60585D01*
X71156Y60702D01*
X71133Y60819D01*
X71066Y60918D01*
X70967Y60985D01*
X70850Y61008D01*
D02*
G37*
G36*
X55925Y61806D02*
X55808Y61783D01*
X55709Y61716D01*
X55642Y61617D01*
X55619Y61500D01*
X55642Y61383D01*
X55709Y61284D01*
X55808Y61217D01*
X55925Y61194D01*
X56042Y61217D01*
X56141Y61284D01*
X56208Y61383D01*
X56231Y61500D01*
X56208Y61617D01*
X56141Y61716D01*
X56042Y61783D01*
X55925Y61806D01*
D02*
G37*
G36*
X50765Y61916D02*
X50648Y61893D01*
X50549Y61826D01*
X50482Y61727D01*
X50459Y61610D01*
X50482Y61493D01*
X50549Y61394D01*
X50648Y61327D01*
X50765Y61304D01*
X50882Y61327D01*
X50981Y61394D01*
X51048Y61493D01*
X51071Y61610D01*
X51048Y61727D01*
X50981Y61826D01*
X50882Y61893D01*
X50765Y61916D01*
D02*
G37*
G36*
X55125Y61806D02*
X55008Y61783D01*
X54909Y61716D01*
X54842Y61617D01*
X54819Y61500D01*
X54842Y61383D01*
X54909Y61284D01*
X55008Y61217D01*
X55125Y61194D01*
X55242Y61217D01*
X55341Y61284D01*
X55408Y61383D01*
X55431Y61500D01*
X55408Y61617D01*
X55341Y61716D01*
X55242Y61783D01*
X55125Y61806D01*
D02*
G37*
G36*
X53525D02*
X53408Y61783D01*
X53309Y61716D01*
X53242Y61617D01*
X53219Y61500D01*
X53242Y61383D01*
X53309Y61284D01*
X53408Y61217D01*
X53525Y61194D01*
X53642Y61217D01*
X53741Y61284D01*
X53808Y61383D01*
X53831Y61500D01*
X53808Y61617D01*
X53741Y61716D01*
X53642Y61783D01*
X53525Y61806D01*
D02*
G37*
G36*
X54325D02*
X54208Y61783D01*
X54109Y61716D01*
X54042Y61617D01*
X54019Y61500D01*
X54042Y61383D01*
X54109Y61284D01*
X54208Y61217D01*
X54325Y61194D01*
X54442Y61217D01*
X54541Y61284D01*
X54608Y61383D01*
X54631Y61500D01*
X54608Y61617D01*
X54541Y61716D01*
X54442Y61783D01*
X54325Y61806D01*
D02*
G37*
G36*
X51135Y55116D02*
X51018Y55093D01*
X50919Y55026D01*
X50852Y54927D01*
X50829Y54810D01*
X50852Y54693D01*
X50919Y54594D01*
X51018Y54527D01*
X51135Y54504D01*
X51252Y54527D01*
X51351Y54594D01*
X51418Y54693D01*
X51441Y54810D01*
X51418Y54927D01*
X51351Y55026D01*
X51252Y55093D01*
X51135Y55116D01*
D02*
G37*
G36*
X56325Y55186D02*
X56208Y55163D01*
X56109Y55096D01*
X56042Y54997D01*
X56019Y54880D01*
X56042Y54763D01*
X56109Y54664D01*
X56208Y54597D01*
X56325Y54574D01*
X56442Y54597D01*
X56541Y54664D01*
X56608Y54763D01*
X56631Y54880D01*
X56608Y54997D01*
X56541Y55096D01*
X56442Y55163D01*
X56325Y55186D01*
D02*
G37*
G36*
X27750Y54981D02*
X27633Y54958D01*
X27534Y54891D01*
X27467Y54792D01*
X27444Y54675D01*
X27467Y54558D01*
X27534Y54459D01*
X27633Y54392D01*
X27750Y54369D01*
X27867Y54392D01*
X27966Y54459D01*
X28033Y54558D01*
X28056Y54675D01*
X28033Y54792D01*
X27966Y54891D01*
X27867Y54958D01*
X27750Y54981D01*
D02*
G37*
G36*
X54525Y54256D02*
X54408Y54233D01*
X54309Y54166D01*
X54242Y54067D01*
X54241Y54060D01*
X54139D01*
X54138Y54067D01*
X54071Y54166D01*
X53972Y54233D01*
X53855Y54256D01*
X53738Y54233D01*
X53639Y54166D01*
X53572Y54067D01*
X53549Y53950D01*
X53572Y53833D01*
X53639Y53734D01*
X53738Y53667D01*
X53855Y53644D01*
X53972Y53667D01*
X54071Y53734D01*
X54138Y53833D01*
X54139Y53840D01*
X54241D01*
X54242Y53833D01*
X54309Y53734D01*
X54408Y53667D01*
X54525Y53644D01*
X54642Y53667D01*
X54741Y53734D01*
X54808Y53833D01*
X54831Y53950D01*
X54808Y54067D01*
X54741Y54166D01*
X54642Y54233D01*
X54525Y54256D01*
D02*
G37*
G36*
X20825Y54981D02*
X20708Y54958D01*
X20609Y54891D01*
X20542Y54792D01*
X20519Y54675D01*
X20542Y54558D01*
X20609Y54459D01*
X20708Y54392D01*
X20825Y54369D01*
X20942Y54392D01*
X21041Y54459D01*
X21108Y54558D01*
X21131Y54675D01*
X21108Y54792D01*
X21041Y54891D01*
X20942Y54958D01*
X20825Y54981D01*
D02*
G37*
G36*
X75900Y55406D02*
X75783Y55383D01*
X75684Y55316D01*
X75617Y55217D01*
X75594Y55100D01*
X75617Y54983D01*
X75684Y54884D01*
X75783Y54817D01*
X75900Y54794D01*
X76017Y54817D01*
X76116Y54884D01*
X76183Y54983D01*
X76206Y55100D01*
X76183Y55217D01*
X76116Y55316D01*
X76017Y55383D01*
X75900Y55406D01*
D02*
G37*
G36*
X32500Y56006D02*
X32383Y55983D01*
X32284Y55916D01*
X32217Y55817D01*
X32194Y55700D01*
X32217Y55583D01*
X32284Y55484D01*
X32383Y55417D01*
X32500Y55394D01*
X32617Y55417D01*
X32716Y55484D01*
X32783Y55583D01*
X32806Y55700D01*
X32783Y55817D01*
X32716Y55916D01*
X32617Y55983D01*
X32500Y56006D01*
D02*
G37*
G36*
X51905Y55306D02*
X51788Y55282D01*
X51688Y55216D01*
X51622Y55117D01*
X51599Y55000D01*
X51622Y54883D01*
X51688Y54784D01*
X51788Y54717D01*
X51905Y54694D01*
X52022Y54717D01*
X52121Y54784D01*
X52187Y54883D01*
X52211Y55000D01*
X52187Y55117D01*
X52121Y55216D01*
X52022Y55282D01*
X51905Y55306D01*
D02*
G37*
G36*
X52625Y55206D02*
X52508Y55183D01*
X52409Y55116D01*
X52342Y55017D01*
X52319Y54900D01*
X52342Y54783D01*
X52409Y54684D01*
X52508Y54617D01*
X52625Y54594D01*
X52742Y54617D01*
X52841Y54684D01*
X52908Y54783D01*
X52931Y54900D01*
X52908Y55017D01*
X52841Y55116D01*
X52742Y55183D01*
X52625Y55206D01*
D02*
G37*
G36*
X53505Y55236D02*
X53388Y55213D01*
X53289Y55146D01*
X53222Y55047D01*
X53199Y54930D01*
X53222Y54813D01*
X53289Y54714D01*
X53388Y54647D01*
X53505Y54624D01*
X53622Y54647D01*
X53721Y54714D01*
X53788Y54813D01*
X53811Y54930D01*
X53788Y55047D01*
X53721Y55146D01*
X53622Y55213D01*
X53505Y55236D01*
D02*
G37*
G36*
X21288Y52881D02*
X21170Y52858D01*
X21071Y52791D01*
X21005Y52692D01*
X20982Y52575D01*
X21005Y52458D01*
X21071Y52359D01*
X21170Y52292D01*
X21288Y52269D01*
X21324Y52276D01*
X21385Y52186D01*
X21355Y52142D01*
X21332Y52025D01*
X21355Y51908D01*
X21421Y51809D01*
X21520Y51742D01*
X21638Y51719D01*
X21755Y51742D01*
X21854Y51809D01*
X21920Y51908D01*
X21943Y52025D01*
X21920Y52142D01*
X21854Y52241D01*
X21755Y52308D01*
X21638Y52331D01*
X21601Y52324D01*
X21540Y52414D01*
X21570Y52458D01*
X21593Y52575D01*
X21570Y52692D01*
X21504Y52791D01*
X21405Y52858D01*
X21288Y52881D01*
D02*
G37*
G36*
X32900Y53431D02*
X32783Y53408D01*
X32684Y53341D01*
X32617Y53242D01*
X32594Y53125D01*
X32617Y53008D01*
X32684Y52909D01*
X32783Y52842D01*
X32900Y52819D01*
X33017Y52842D01*
X33116Y52909D01*
X33183Y53008D01*
X33206Y53125D01*
X33183Y53242D01*
X33116Y53341D01*
X33017Y53408D01*
X32900Y53431D01*
D02*
G37*
G36*
X56850Y51781D02*
X56733Y51758D01*
X56634Y51691D01*
X56567Y51592D01*
X56544Y51475D01*
X56567Y51358D01*
X56634Y51259D01*
X56733Y51192D01*
X56850Y51169D01*
X56967Y51192D01*
X57066Y51259D01*
X57133Y51358D01*
X57156Y51475D01*
X57133Y51592D01*
X57066Y51691D01*
X56967Y51758D01*
X56850Y51781D01*
D02*
G37*
G36*
X81100Y47556D02*
X80983Y47533D01*
X80884Y47466D01*
X80817Y47367D01*
X80794Y47250D01*
X80817Y47133D01*
X80884Y47034D01*
X80983Y46967D01*
X81100Y46944D01*
X81217Y46967D01*
X81316Y47034D01*
X81383Y47133D01*
X81406Y47250D01*
X81383Y47367D01*
X81316Y47466D01*
X81217Y47533D01*
X81100Y47556D01*
D02*
G37*
G36*
X36400Y48381D02*
X36283Y48358D01*
X36184Y48291D01*
X36117Y48192D01*
X36094Y48075D01*
X36117Y47958D01*
X36184Y47859D01*
X36283Y47792D01*
X36400Y47769D01*
X36517Y47792D01*
X36616Y47859D01*
X36683Y47958D01*
X36706Y48075D01*
X36683Y48192D01*
X36616Y48291D01*
X36517Y48358D01*
X36400Y48381D01*
D02*
G37*
G36*
X61925Y54256D02*
X61808Y54233D01*
X61709Y54166D01*
X61642Y54067D01*
X61619Y53950D01*
X61642Y53833D01*
X61709Y53734D01*
X61808Y53667D01*
X61925Y53644D01*
X62042Y53667D01*
X62141Y53734D01*
X62208Y53833D01*
X62231Y53950D01*
X62208Y54067D01*
X62141Y54166D01*
X62042Y54233D01*
X61925Y54256D01*
D02*
G37*
G36*
X51715Y54326D02*
X51598Y54303D01*
X51499Y54236D01*
X51432Y54137D01*
X51409Y54020D01*
X51432Y53903D01*
X51499Y53804D01*
X51598Y53737D01*
X51715Y53714D01*
X51832Y53737D01*
X51931Y53804D01*
X51998Y53903D01*
X52021Y54020D01*
X51998Y54137D01*
X51931Y54236D01*
X51832Y54303D01*
X51715Y54326D01*
D02*
G37*
G36*
X58855Y54246D02*
X58738Y54223D01*
X58639Y54156D01*
X58572Y54057D01*
X58549Y53940D01*
X58572Y53823D01*
X58639Y53724D01*
X58738Y53657D01*
X58855Y53634D01*
X58972Y53657D01*
X59071Y53724D01*
X59138Y53823D01*
X59161Y53940D01*
X59138Y54057D01*
X59071Y54156D01*
X58972Y54223D01*
X58855Y54246D01*
D02*
G37*
G36*
X38525Y53456D02*
X38408Y53433D01*
X38309Y53366D01*
X38242Y53267D01*
X38219Y53150D01*
X38242Y53033D01*
X38309Y52934D01*
X38408Y52867D01*
X38525Y52844D01*
X38642Y52867D01*
X38741Y52934D01*
X38808Y53033D01*
X38831Y53150D01*
X38808Y53267D01*
X38741Y53366D01*
X38642Y53433D01*
X38525Y53456D01*
D02*
G37*
G36*
X56765Y54246D02*
X56648Y54223D01*
X56549Y54156D01*
X56482Y54057D01*
X56459Y53940D01*
X56482Y53823D01*
X56549Y53724D01*
X56648Y53657D01*
X56765Y53634D01*
X56882Y53657D01*
X56981Y53724D01*
X57048Y53823D01*
X57071Y53940D01*
X57048Y54057D01*
X56981Y54156D01*
X56882Y54223D01*
X56765Y54246D01*
D02*
G37*
G36*
X35600Y60206D02*
X35483Y60183D01*
X35384Y60116D01*
X35317Y60017D01*
X35294Y59900D01*
X35317Y59783D01*
X35367Y59709D01*
X35383Y59673D01*
X35377Y59568D01*
X35342Y59517D01*
X35328Y59442D01*
X35250Y59356D01*
X35133Y59333D01*
X35034Y59266D01*
X34967Y59167D01*
X34944Y59050D01*
X34967Y58933D01*
X35034Y58834D01*
X35133Y58767D01*
X35156Y58763D01*
X35162Y58673D01*
X35160Y58660D01*
X35088Y58612D01*
X35038Y58538D01*
X35021Y58450D01*
X35038Y58362D01*
X35088Y58288D01*
Y53975D01*
X35135Y53860D01*
X35882Y53114D01*
X35869Y53050D01*
X35892Y52933D01*
X35959Y52834D01*
X36058Y52767D01*
X36175Y52744D01*
X36292Y52767D01*
X36391Y52834D01*
X36458Y52933D01*
X36481Y53050D01*
X36458Y53167D01*
X36391Y53266D01*
X36292Y53333D01*
X36175Y53356D01*
X36111Y53343D01*
X35412Y54042D01*
Y55560D01*
X35512Y55591D01*
X35534Y55559D01*
X35633Y55492D01*
X35750Y55469D01*
X35867Y55492D01*
X35966Y55559D01*
X36033Y55658D01*
X36056Y55775D01*
X36033Y55892D01*
X35966Y55991D01*
X35867Y56058D01*
X35750Y56081D01*
X35633Y56058D01*
X35534Y55991D01*
X35512Y55959D01*
X35412Y55990D01*
Y58288D01*
X35462Y58362D01*
X35479Y58450D01*
X35462Y58538D01*
X35412Y58612D01*
X35340Y58660D01*
X35338Y58673D01*
X35344Y58763D01*
X35367Y58767D01*
X35466Y58834D01*
X35533Y58933D01*
X35547Y59008D01*
X35625Y59094D01*
X35742Y59117D01*
X35841Y59184D01*
X35908Y59283D01*
X35931Y59400D01*
X35908Y59517D01*
X35858Y59591D01*
X35842Y59627D01*
X35848Y59732D01*
X35883Y59783D01*
X35906Y59900D01*
X35883Y60017D01*
X35816Y60116D01*
X35717Y60183D01*
X35600Y60206D01*
D02*
G37*
G36*
X76890Y58991D02*
X76773Y58968D01*
X76674Y58901D01*
X76607Y58802D01*
X76584Y58685D01*
X76607Y58568D01*
X76674Y58469D01*
X76773Y58402D01*
X76890Y58379D01*
X77007Y58402D01*
X77106Y58469D01*
X77173Y58568D01*
X77196Y58685D01*
X77173Y58802D01*
X77106Y58901D01*
X77007Y58968D01*
X76890Y58991D01*
D02*
G37*
G36*
X76150Y59151D02*
X76033Y59128D01*
X75934Y59061D01*
X75867Y58962D01*
X75844Y58845D01*
X75867Y58728D01*
X75934Y58629D01*
X76033Y58562D01*
X76150Y58539D01*
X76267Y58562D01*
X76366Y58629D01*
X76433Y58728D01*
X76456Y58845D01*
X76433Y58962D01*
X76366Y59061D01*
X76267Y59128D01*
X76150Y59151D01*
D02*
G37*
G36*
X73390Y59481D02*
X73273Y59458D01*
X73174Y59391D01*
X73107Y59292D01*
X73084Y59175D01*
X73107Y59058D01*
X73174Y58959D01*
X73273Y58892D01*
X73390Y58869D01*
X73423Y58876D01*
X73487Y58792D01*
X73464Y58675D01*
X73487Y58558D01*
X73554Y58459D01*
X73653Y58392D01*
X73770Y58369D01*
X73887Y58392D01*
X73986Y58459D01*
X74053Y58558D01*
X74076Y58675D01*
X74053Y58792D01*
X73986Y58891D01*
X73887Y58958D01*
X73770Y58981D01*
X73737Y58974D01*
X73673Y59058D01*
X73696Y59175D01*
X73673Y59292D01*
X73606Y59391D01*
X73507Y59458D01*
X73390Y59481D01*
D02*
G37*
G36*
X78660Y58631D02*
X78543Y58608D01*
X78444Y58541D01*
X78377Y58442D01*
X78354Y58325D01*
X78377Y58208D01*
X78444Y58109D01*
X78543Y58042D01*
X78660Y58019D01*
X78777Y58042D01*
X78876Y58109D01*
X78943Y58208D01*
X78966Y58325D01*
X78943Y58442D01*
X78876Y58541D01*
X78777Y58608D01*
X78660Y58631D01*
D02*
G37*
G36*
X72170Y58681D02*
X72053Y58658D01*
X71954Y58591D01*
X71887Y58492D01*
X71864Y58375D01*
X71887Y58258D01*
X71954Y58159D01*
X72053Y58092D01*
X72170Y58069D01*
X72287Y58092D01*
X72386Y58159D01*
X72453Y58258D01*
X72476Y58375D01*
X72453Y58492D01*
X72386Y58591D01*
X72287Y58658D01*
X72170Y58681D01*
D02*
G37*
G36*
X71760Y59511D02*
X71643Y59488D01*
X71544Y59421D01*
X71477Y59322D01*
X71454Y59205D01*
X71477Y59088D01*
X71544Y58989D01*
X71643Y58922D01*
X71760Y58899D01*
X71877Y58922D01*
X71976Y58989D01*
X72043Y59088D01*
X72066Y59205D01*
X72043Y59322D01*
X71976Y59421D01*
X71877Y59488D01*
X71760Y59511D01*
D02*
G37*
G36*
X29725Y60731D02*
X29608Y60708D01*
X29509Y60641D01*
X29442Y60542D01*
X29419Y60425D01*
X29442Y60308D01*
X29509Y60209D01*
X29588Y60156D01*
X29597Y60111D01*
Y60089D01*
X29588Y60044D01*
X29509Y59991D01*
X29442Y59892D01*
X29419Y59775D01*
X29442Y59658D01*
X29509Y59559D01*
X29608Y59492D01*
X29725Y59469D01*
X29842Y59492D01*
X29941Y59559D01*
X30008Y59658D01*
X30031Y59775D01*
X30008Y59892D01*
X29941Y59991D01*
X29862Y60044D01*
X29853Y60089D01*
Y60111D01*
X29862Y60156D01*
X29941Y60209D01*
X30008Y60308D01*
X30031Y60425D01*
X30008Y60542D01*
X29941Y60641D01*
X29842Y60708D01*
X29725Y60731D01*
D02*
G37*
G36*
X72540Y59401D02*
X72423Y59378D01*
X72324Y59311D01*
X72257Y59212D01*
X72234Y59095D01*
X72257Y58978D01*
X72324Y58879D01*
X72423Y58812D01*
X72540Y58789D01*
X72657Y58812D01*
X72756Y58879D01*
X72823Y58978D01*
X72846Y59095D01*
X72823Y59212D01*
X72756Y59311D01*
X72657Y59378D01*
X72540Y59401D01*
D02*
G37*
G36*
X70990Y59281D02*
X70873Y59258D01*
X70774Y59191D01*
X70707Y59092D01*
X70684Y58975D01*
X70707Y58858D01*
X70774Y58759D01*
X70873Y58692D01*
X70990Y58669D01*
X71107Y58692D01*
X71206Y58759D01*
X71273Y58858D01*
X71296Y58975D01*
X71273Y59092D01*
X71206Y59191D01*
X71107Y59258D01*
X70990Y59281D01*
D02*
G37*
G36*
X34250Y59356D02*
X34133Y59333D01*
X34034Y59266D01*
X33967Y59167D01*
X33944Y59050D01*
X33967Y58933D01*
X34034Y58834D01*
X34133Y58767D01*
X34250Y58744D01*
X34367Y58767D01*
X34466Y58834D01*
X34533Y58933D01*
X34556Y59050D01*
X34533Y59167D01*
X34466Y59266D01*
X34367Y59333D01*
X34250Y59356D01*
D02*
G37*
G36*
X53525Y57006D02*
X53408Y56983D01*
X53309Y56916D01*
X53242Y56817D01*
X53219Y56700D01*
X53242Y56583D01*
X53309Y56484D01*
X53408Y56417D01*
X53525Y56394D01*
X53642Y56417D01*
X53741Y56484D01*
X53808Y56583D01*
X53831Y56700D01*
X53808Y56817D01*
X53741Y56916D01*
X53642Y56983D01*
X53525Y57006D01*
D02*
G37*
G36*
X54325D02*
X54208Y56983D01*
X54109Y56916D01*
X54042Y56817D01*
X54019Y56700D01*
X54042Y56583D01*
X54109Y56484D01*
X54208Y56417D01*
X54325Y56394D01*
X54442Y56417D01*
X54541Y56484D01*
X54608Y56583D01*
X54631Y56700D01*
X54608Y56817D01*
X54541Y56916D01*
X54442Y56983D01*
X54325Y57006D01*
D02*
G37*
G36*
X64035Y56896D02*
X63918Y56872D01*
X63818Y56806D01*
X63752Y56707D01*
X63729Y56590D01*
X63752Y56473D01*
X63818Y56374D01*
X63918Y56307D01*
X64035Y56284D01*
X64152Y56307D01*
X64251Y56374D01*
X64317Y56473D01*
X64341Y56590D01*
X64317Y56707D01*
X64251Y56806D01*
X64152Y56872D01*
X64035Y56896D01*
D02*
G37*
G36*
X55125Y56206D02*
X55008Y56183D01*
X54909Y56116D01*
X54842Y56017D01*
X54819Y55900D01*
X54842Y55783D01*
X54909Y55684D01*
X55008Y55617D01*
X55125Y55594D01*
X55242Y55617D01*
X55341Y55684D01*
X55408Y55783D01*
X55431Y55900D01*
X55408Y56017D01*
X55341Y56116D01*
X55242Y56183D01*
X55125Y56206D01*
D02*
G37*
G36*
X60725D02*
X60608Y56183D01*
X60509Y56116D01*
X60442Y56017D01*
X60419Y55900D01*
X60442Y55783D01*
X60509Y55684D01*
X60608Y55617D01*
X60725Y55594D01*
X60842Y55617D01*
X60941Y55684D01*
X61008Y55783D01*
X61031Y55900D01*
X61008Y56017D01*
X60941Y56116D01*
X60842Y56183D01*
X60725Y56206D01*
D02*
G37*
G36*
X58325Y57806D02*
X58208Y57783D01*
X58109Y57716D01*
X58042Y57617D01*
X58019Y57500D01*
X58042Y57383D01*
X58109Y57284D01*
X58208Y57217D01*
X58325Y57194D01*
X58442Y57217D01*
X58541Y57284D01*
X58608Y57383D01*
X58631Y57500D01*
X58608Y57617D01*
X58541Y57716D01*
X58442Y57783D01*
X58325Y57806D01*
D02*
G37*
G36*
X81300Y58621D02*
X81183Y58598D01*
X81084Y58531D01*
X81017Y58432D01*
X80994Y58315D01*
X81017Y58198D01*
X81084Y58099D01*
X81183Y58032D01*
X81300Y58009D01*
X81417Y58032D01*
X81516Y58099D01*
X81583Y58198D01*
X81606Y58315D01*
X81583Y58432D01*
X81516Y58531D01*
X81417Y58598D01*
X81300Y58621D01*
D02*
G37*
G36*
X56725Y57806D02*
X56608Y57783D01*
X56509Y57716D01*
X56442Y57617D01*
X56419Y57500D01*
X56442Y57383D01*
X56509Y57284D01*
X56608Y57217D01*
X56725Y57194D01*
X56842Y57217D01*
X56941Y57284D01*
X57008Y57383D01*
X57031Y57500D01*
X57008Y57617D01*
X56941Y57716D01*
X56842Y57783D01*
X56725Y57806D01*
D02*
G37*
G36*
Y57006D02*
X56608Y56983D01*
X56509Y56916D01*
X56442Y56817D01*
X56419Y56700D01*
X56442Y56583D01*
X56509Y56484D01*
X56608Y56417D01*
X56725Y56394D01*
X56842Y56417D01*
X56941Y56484D01*
X57008Y56583D01*
X57031Y56700D01*
X57008Y56817D01*
X56941Y56916D01*
X56842Y56983D01*
X56725Y57006D01*
D02*
G37*
G36*
X51015Y56796D02*
X50898Y56773D01*
X50799Y56706D01*
X50732Y56607D01*
X50711Y56498D01*
X50687Y56484D01*
X50612Y56465D01*
X50611Y56466D01*
X50512Y56533D01*
X50395Y56556D01*
X50278Y56533D01*
X50179Y56466D01*
X50112Y56367D01*
X50089Y56250D01*
X50112Y56133D01*
X50179Y56034D01*
X50278Y55967D01*
X50395Y55944D01*
X50512Y55967D01*
X50611Y56034D01*
X50678Y56133D01*
X50699Y56242D01*
X50723Y56256D01*
X50798Y56275D01*
X50799Y56274D01*
X50898Y56207D01*
X51015Y56184D01*
X51132Y56207D01*
X51231Y56274D01*
X51298Y56373D01*
X51321Y56490D01*
X51298Y56607D01*
X51231Y56706D01*
X51132Y56773D01*
X51015Y56796D01*
D02*
G37*
G36*
X51125Y62746D02*
X51008Y62723D01*
X50909Y62656D01*
X50842Y62557D01*
X50819Y62440D01*
X50842Y62323D01*
X50909Y62224D01*
X51008Y62157D01*
X51125Y62134D01*
X51242Y62157D01*
X51341Y62224D01*
X51408Y62323D01*
X51431Y62440D01*
X51408Y62557D01*
X51341Y62656D01*
X51242Y62723D01*
X51125Y62746D01*
D02*
G37*
G36*
X37200Y75831D02*
X37083Y75808D01*
X36984Y75741D01*
X36917Y75642D01*
X36894Y75525D01*
X36917Y75408D01*
X36984Y75309D01*
X37083Y75242D01*
X37200Y75219D01*
X37317Y75242D01*
X37416Y75309D01*
X37483Y75408D01*
X37506Y75525D01*
X37483Y75642D01*
X37416Y75741D01*
X37317Y75808D01*
X37200Y75831D01*
D02*
G37*
G36*
X12250Y81679D02*
X12162Y81662D01*
X12088Y81612D01*
X12038Y81538D01*
X12021Y81450D01*
X12038Y81362D01*
X12046Y81350D01*
Y75659D01*
X11675Y75288D01*
X11575Y75308D01*
X11419Y75277D01*
X11302Y75199D01*
X11243Y75188D01*
X11232D01*
X11173Y75199D01*
X11056Y75277D01*
X10900Y75308D01*
X10744Y75277D01*
X10612Y75188D01*
X10600Y75171D01*
X10500D01*
X10488Y75188D01*
X10356Y75277D01*
X10200Y75308D01*
X10044Y75277D01*
X9912Y75188D01*
X9823Y75056D01*
X9792Y74900D01*
X9823Y74744D01*
X9912Y74612D01*
X10044Y74523D01*
X10200Y74492D01*
X10356Y74523D01*
X10488Y74612D01*
X10500Y74629D01*
X10600D01*
X10612Y74612D01*
X10744Y74523D01*
X10900Y74492D01*
X11056Y74523D01*
X11173Y74601D01*
X11232Y74612D01*
X11243D01*
X11302Y74601D01*
X11419Y74523D01*
X11575Y74492D01*
X11731Y74523D01*
X11863Y74612D01*
X11952Y74744D01*
X11983Y74900D01*
X11963Y75000D01*
X12394Y75431D01*
X12394Y75431D01*
X12438Y75497D01*
X12454Y75575D01*
Y81350D01*
X12462Y81362D01*
X12479Y81450D01*
X12462Y81538D01*
X12412Y81612D01*
X12338Y81662D01*
X12250Y81679D01*
D02*
G37*
G36*
X16450Y75033D02*
X16294Y75002D01*
X16162Y74913D01*
X16073Y74781D01*
X16042Y74625D01*
X16073Y74469D01*
X16162Y74337D01*
X16294Y74248D01*
X16450Y74217D01*
X16606Y74248D01*
X16738Y74337D01*
X16748Y74351D01*
X16846Y74331D01*
X16848Y74319D01*
X16937Y74187D01*
X17069Y74098D01*
X17225Y74067D01*
X17381Y74098D01*
X17513Y74187D01*
X17602Y74319D01*
X17633Y74475D01*
X17602Y74631D01*
X17513Y74763D01*
X17381Y74852D01*
X17225Y74883D01*
X17069Y74852D01*
X16937Y74763D01*
X16927Y74749D01*
X16829Y74769D01*
X16827Y74781D01*
X16738Y74913D01*
X16606Y75002D01*
X16450Y75033D01*
D02*
G37*
G36*
X85000Y70658D02*
X84844Y70627D01*
X84712Y70538D01*
X84623Y70406D01*
X84592Y70250D01*
X84623Y70094D01*
X84712Y69962D01*
X84844Y69873D01*
X85000Y69842D01*
X85156Y69873D01*
X85288Y69962D01*
X85377Y70094D01*
X85408Y70250D01*
X85377Y70406D01*
X85288Y70538D01*
X85156Y70627D01*
X85000Y70658D01*
D02*
G37*
G36*
Y71658D02*
X84844Y71627D01*
X84712Y71538D01*
X84623Y71406D01*
X84592Y71250D01*
X84623Y71094D01*
X84712Y70962D01*
X84844Y70873D01*
X85000Y70842D01*
X85156Y70873D01*
X85288Y70962D01*
X85377Y71094D01*
X85408Y71250D01*
X85377Y71406D01*
X85288Y71538D01*
X85156Y71627D01*
X85000Y71658D01*
D02*
G37*
G36*
X9000Y79081D02*
X8883Y79058D01*
X8784Y78991D01*
X8766D01*
X8667Y79058D01*
X8550Y79081D01*
X8433Y79058D01*
X8334Y78991D01*
X8291D01*
X8192Y79058D01*
X8075Y79081D01*
X7958Y79058D01*
X7859Y78991D01*
X7792Y78892D01*
X7769Y78775D01*
X7792Y78658D01*
X7859Y78559D01*
X7958Y78492D01*
X8075Y78469D01*
X8192Y78492D01*
X8291Y78559D01*
X8334D01*
X8433Y78492D01*
X8550Y78469D01*
X8667Y78492D01*
X8766Y78559D01*
X8784D01*
X8883Y78492D01*
X9000Y78469D01*
X9117Y78492D01*
X9216Y78559D01*
X9283Y78658D01*
X9306Y78775D01*
X9283Y78892D01*
X9216Y78991D01*
X9117Y79058D01*
X9000Y79081D01*
D02*
G37*
G36*
X29375Y80406D02*
X29258Y80383D01*
X29159Y80316D01*
X29092Y80217D01*
X29069Y80100D01*
X29092Y79983D01*
X29159Y79884D01*
X29258Y79817D01*
X29375Y79794D01*
X29492Y79817D01*
X29591Y79884D01*
X29658Y79983D01*
X29681Y80100D01*
X29658Y80217D01*
X29591Y80316D01*
X29492Y80383D01*
X29375Y80406D01*
D02*
G37*
G36*
X14200Y79031D02*
X14083Y79008D01*
X13984Y78941D01*
X13887Y78977D01*
X13842Y79008D01*
X13725Y79031D01*
X13608Y79008D01*
X13545Y78966D01*
X13475Y78949D01*
X13405Y78966D01*
X13342Y79008D01*
X13225Y79031D01*
X13108Y79008D01*
X13009Y78941D01*
X12942Y78842D01*
X12919Y78725D01*
X12942Y78608D01*
X13009Y78509D01*
X13108Y78442D01*
X13225Y78419D01*
X13342Y78442D01*
X13405Y78484D01*
X13475Y78501D01*
X13545Y78484D01*
X13608Y78442D01*
X13725Y78419D01*
X13842Y78442D01*
X13941Y78509D01*
X14038Y78473D01*
X14083Y78442D01*
X14200Y78419D01*
X14317Y78442D01*
X14416Y78509D01*
X14483Y78608D01*
X14506Y78725D01*
X14483Y78842D01*
X14416Y78941D01*
X14317Y79008D01*
X14200Y79031D01*
D02*
G37*
G36*
X81100Y77056D02*
X80983Y77033D01*
X80884Y76966D01*
X80817Y76867D01*
X80794Y76750D01*
X80817Y76633D01*
X80884Y76534D01*
X80983Y76467D01*
X81100Y76444D01*
X81217Y76467D01*
X81316Y76534D01*
X81383Y76633D01*
X81406Y76750D01*
X81383Y76867D01*
X81316Y76966D01*
X81217Y77033D01*
X81100Y77056D01*
D02*
G37*
G36*
X19025Y78881D02*
X18908Y78858D01*
X18809Y78791D01*
X18742Y78692D01*
X18719Y78575D01*
X18742Y78458D01*
X18809Y78359D01*
X18908Y78292D01*
X19025Y78269D01*
X19142Y78292D01*
X19241Y78359D01*
X19308Y78458D01*
X19331Y78575D01*
X19308Y78692D01*
X19241Y78791D01*
X19142Y78858D01*
X19025Y78881D01*
D02*
G37*
G36*
X70970Y67241D02*
X70853Y67218D01*
X70754Y67151D01*
X70687Y67052D01*
X70664Y66935D01*
X70687Y66818D01*
X70754Y66719D01*
X70853Y66652D01*
X70970Y66629D01*
X71087Y66652D01*
X71186Y66719D01*
X71253Y66818D01*
X71276Y66935D01*
X71253Y67052D01*
X71186Y67151D01*
X71087Y67218D01*
X70970Y67241D01*
D02*
G37*
G36*
X72140Y67581D02*
X72023Y67558D01*
X71924Y67491D01*
X71857Y67392D01*
X71834Y67275D01*
X71857Y67158D01*
X71924Y67059D01*
X72023Y66992D01*
X72140Y66969D01*
X72257Y66992D01*
X72356Y67059D01*
X72423Y67158D01*
X72446Y67275D01*
X72423Y67392D01*
X72356Y67491D01*
X72257Y67558D01*
X72140Y67581D01*
D02*
G37*
G36*
X73750Y67071D02*
X73633Y67048D01*
X73534Y66981D01*
X73467Y66882D01*
X73444Y66765D01*
X73467Y66648D01*
X73534Y66549D01*
X73633Y66482D01*
X73750Y66459D01*
X73867Y66482D01*
X73966Y66549D01*
X74033Y66648D01*
X74056Y66765D01*
X74033Y66882D01*
X73966Y66981D01*
X73867Y67048D01*
X73750Y67071D01*
D02*
G37*
G36*
X81750Y66981D02*
X81633Y66958D01*
X81534Y66891D01*
X81467Y66792D01*
X81444Y66675D01*
X81467Y66558D01*
X81534Y66459D01*
X81633Y66392D01*
X81750Y66369D01*
X81867Y66392D01*
X81966Y66459D01*
X82033Y66558D01*
X82056Y66675D01*
X82033Y66792D01*
X81966Y66891D01*
X81867Y66958D01*
X81750Y66981D01*
D02*
G37*
G36*
X83290D02*
X83173Y66958D01*
X83074Y66891D01*
X83007Y66792D01*
X82984Y66675D01*
X83007Y66558D01*
X83074Y66459D01*
X83173Y66392D01*
X83290Y66369D01*
X83407Y66392D01*
X83506Y66459D01*
X83573Y66558D01*
X83596Y66675D01*
X83573Y66792D01*
X83506Y66891D01*
X83407Y66958D01*
X83290Y66981D01*
D02*
G37*
G36*
X35000Y70006D02*
X34883Y69983D01*
X34784Y69916D01*
X34717Y69817D01*
X34694Y69700D01*
X34717Y69583D01*
X34784Y69484D01*
X34883Y69417D01*
X35000Y69394D01*
X35117Y69417D01*
X35216Y69484D01*
X35283Y69583D01*
X35306Y69700D01*
X35283Y69817D01*
X35216Y69916D01*
X35117Y69983D01*
X35000Y70006D01*
D02*
G37*
G36*
X33250Y70131D02*
X33133Y70108D01*
X33034Y70041D01*
X32967Y69942D01*
X32944Y69825D01*
X32967Y69708D01*
X33034Y69609D01*
X33133Y69542D01*
X33250Y69519D01*
X33367Y69542D01*
X33466Y69609D01*
X33533Y69708D01*
X33556Y69825D01*
X33533Y69942D01*
X33466Y70041D01*
X33367Y70108D01*
X33250Y70131D01*
D02*
G37*
G36*
X38625Y69131D02*
X38508Y69108D01*
X38409Y69041D01*
X38342Y68942D01*
X38319Y68825D01*
X38342Y68708D01*
X38409Y68609D01*
X38508Y68542D01*
X38625Y68519D01*
X38742Y68542D01*
X38841Y68609D01*
X38908Y68708D01*
X38931Y68825D01*
X38908Y68942D01*
X38841Y69041D01*
X38742Y69108D01*
X38625Y69131D01*
D02*
G37*
G36*
X76590Y67981D02*
X76473Y67958D01*
X76374Y67891D01*
X76307Y67792D01*
X76284Y67675D01*
X76307Y67558D01*
X76374Y67459D01*
X76473Y67392D01*
X76590Y67369D01*
X76707Y67392D01*
X76806Y67459D01*
X76873Y67558D01*
X76896Y67675D01*
X76873Y67792D01*
X76806Y67891D01*
X76707Y67958D01*
X76590Y67981D01*
D02*
G37*
G36*
X78425Y69081D02*
X78308Y69058D01*
X78209Y68991D01*
X78142Y68892D01*
X78119Y68775D01*
X78142Y68658D01*
X78209Y68559D01*
X78308Y68492D01*
X78425Y68469D01*
X78542Y68492D01*
X78641Y68559D01*
X78708Y68658D01*
X78731Y68775D01*
X78708Y68892D01*
X78641Y68991D01*
X78542Y69058D01*
X78425Y69081D01*
D02*
G37*
G36*
X8300Y80658D02*
X8144Y80627D01*
X8012Y80538D01*
X7923Y80406D01*
X7892Y80250D01*
X7923Y80094D01*
X8012Y79962D01*
X8144Y79873D01*
X8300Y79842D01*
X8456Y79873D01*
X8588Y79962D01*
X8677Y80094D01*
X8708Y80250D01*
X8677Y80406D01*
X8588Y80538D01*
X8456Y80627D01*
X8300Y80658D01*
D02*
G37*
G36*
X17075Y89006D02*
X16958Y88983D01*
X16859Y88916D01*
X16792Y88817D01*
X16769Y88700D01*
X16792Y88583D01*
X16859Y88484D01*
X16958Y88417D01*
X17075Y88394D01*
X17192Y88417D01*
X17291Y88484D01*
X17358Y88583D01*
X17381Y88700D01*
X17358Y88817D01*
X17291Y88916D01*
X17192Y88983D01*
X17075Y89006D01*
D02*
G37*
G36*
X28200Y89756D02*
X28083Y89733D01*
X27984Y89666D01*
X27917Y89567D01*
X27894Y89450D01*
X27917Y89333D01*
X27984Y89234D01*
X28083Y89167D01*
X28200Y89144D01*
X28317Y89167D01*
X28416Y89234D01*
X28483Y89333D01*
X28506Y89450D01*
X28483Y89567D01*
X28416Y89666D01*
X28317Y89733D01*
X28200Y89756D01*
D02*
G37*
G36*
X6075Y90233D02*
X5919Y90202D01*
X5787Y90113D01*
X5698Y89981D01*
X5667Y89825D01*
X5698Y89669D01*
X5753Y89586D01*
X5778Y89512D01*
X5753Y89439D01*
X5698Y89356D01*
X5667Y89200D01*
X5698Y89044D01*
X5753Y88961D01*
X5778Y88887D01*
X5753Y88814D01*
X5698Y88731D01*
X5667Y88575D01*
X5698Y88419D01*
X5787Y88287D01*
X5919Y88198D01*
X6075Y88167D01*
X6231Y88198D01*
X6363Y88287D01*
X6452Y88419D01*
X6483Y88575D01*
X6452Y88731D01*
X6397Y88814D01*
X6372Y88887D01*
X6397Y88961D01*
X6452Y89044D01*
X6483Y89200D01*
X6452Y89356D01*
X6397Y89439D01*
X6372Y89512D01*
X6397Y89586D01*
X6452Y89669D01*
X6483Y89825D01*
X6452Y89981D01*
X6363Y90113D01*
X6231Y90202D01*
X6075Y90233D01*
D02*
G37*
G36*
X9050Y87508D02*
X8894Y87477D01*
X8762Y87388D01*
X8673Y87256D01*
X8642Y87100D01*
X8673Y86944D01*
X8762Y86812D01*
X8894Y86723D01*
X9050Y86692D01*
X9206Y86723D01*
X9338Y86812D01*
X9427Y86944D01*
X9458Y87100D01*
X9427Y87256D01*
X9338Y87388D01*
X9206Y87477D01*
X9050Y87508D01*
D02*
G37*
G36*
X11700Y88756D02*
X11583Y88733D01*
X11484Y88666D01*
X11417Y88567D01*
X11394Y88450D01*
X11417Y88333D01*
X11484Y88234D01*
X11583Y88167D01*
X11700Y88144D01*
X11817Y88167D01*
X11916Y88234D01*
X11983Y88333D01*
X12006Y88450D01*
X11983Y88567D01*
X11916Y88666D01*
X11817Y88733D01*
X11700Y88756D01*
D02*
G37*
G36*
X12550Y90308D02*
X12394Y90277D01*
X12262Y90188D01*
X12250Y90171D01*
X12150D01*
X12138Y90188D01*
X12006Y90277D01*
X11850Y90308D01*
X11694Y90277D01*
X11562Y90188D01*
X11473Y90056D01*
X11442Y89900D01*
X11473Y89744D01*
X11562Y89612D01*
X11694Y89523D01*
X11850Y89492D01*
X12006Y89523D01*
X12138Y89612D01*
X12150Y89629D01*
X12250D01*
X12262Y89612D01*
X12394Y89523D01*
X12550Y89492D01*
X12706Y89523D01*
X12838Y89612D01*
X12927Y89744D01*
X12958Y89900D01*
X12927Y90056D01*
X12838Y90188D01*
X12706Y90277D01*
X12550Y90308D01*
D02*
G37*
G36*
X7278Y93808D02*
X7122Y93777D01*
X6990Y93688D01*
X6901Y93556D01*
X6870Y93400D01*
X6901Y93244D01*
X6990Y93112D01*
X7122Y93023D01*
X7278Y92992D01*
X7434Y93023D01*
X7567Y93112D01*
X7655Y93244D01*
X7686Y93400D01*
X7655Y93556D01*
X7567Y93688D01*
X7434Y93777D01*
X7278Y93808D01*
D02*
G37*
G36*
X9075Y90956D02*
X8958Y90933D01*
X8859Y90866D01*
X8792Y90767D01*
X8769Y90650D01*
X8792Y90533D01*
X8859Y90434D01*
X8958Y90367D01*
X9075Y90344D01*
X9078Y90345D01*
X9149Y90274D01*
X9144Y90250D01*
X9167Y90133D01*
X9234Y90034D01*
X9333Y89967D01*
X9450Y89944D01*
X9567Y89967D01*
X9595Y89986D01*
X9675Y90029D01*
X9755Y89986D01*
X9783Y89967D01*
X9900Y89944D01*
X10017Y89967D01*
X10116Y90034D01*
X10183Y90133D01*
X10206Y90250D01*
X10183Y90367D01*
X10116Y90466D01*
X10017Y90533D01*
X9900Y90556D01*
X9783Y90533D01*
X9684Y90466D01*
X9666D01*
X9567Y90533D01*
X9450Y90556D01*
X9447Y90555D01*
X9376Y90626D01*
X9381Y90650D01*
X9358Y90767D01*
X9291Y90866D01*
X9192Y90933D01*
X9075Y90956D01*
D02*
G37*
G36*
X30550Y89881D02*
X30433Y89858D01*
X30334Y89791D01*
X30267Y89692D01*
X30244Y89575D01*
X30267Y89458D01*
X30334Y89359D01*
X30433Y89292D01*
X30550Y89269D01*
X30667Y89292D01*
X30766Y89359D01*
X30833Y89458D01*
X30856Y89575D01*
X30833Y89692D01*
X30766Y89791D01*
X30667Y89858D01*
X30550Y89881D01*
D02*
G37*
G36*
X18575Y92158D02*
X18419Y92127D01*
X18287Y92038D01*
X18198Y91906D01*
X18167Y91750D01*
X18198Y91594D01*
X18287Y91462D01*
X18304Y91450D01*
Y91350D01*
X18287Y91338D01*
X18198Y91206D01*
X18167Y91050D01*
X18198Y90894D01*
X18287Y90762D01*
X18316Y90742D01*
Y90642D01*
X18312Y90638D01*
X18223Y90506D01*
X18192Y90350D01*
X18223Y90194D01*
X18312Y90062D01*
X18444Y89973D01*
X18600Y89942D01*
X18756Y89973D01*
X18888Y90062D01*
X18977Y90194D01*
X19008Y90350D01*
X18977Y90506D01*
X18888Y90638D01*
X18858Y90658D01*
Y90758D01*
X18863Y90762D01*
X18952Y90894D01*
X18983Y91050D01*
X18952Y91206D01*
X18863Y91338D01*
X18846Y91350D01*
Y91450D01*
X18863Y91462D01*
X18952Y91594D01*
X18983Y91750D01*
X18952Y91906D01*
X18863Y92038D01*
X18731Y92127D01*
X18575Y92158D01*
D02*
G37*
G36*
X19350Y83983D02*
X19194Y83952D01*
X19062Y83863D01*
X18973Y83731D01*
X18942Y83575D01*
X18973Y83419D01*
X18887Y83378D01*
X18863Y83413D01*
X18731Y83502D01*
X18575Y83533D01*
X18419Y83502D01*
X18287Y83413D01*
X18198Y83281D01*
X18167Y83125D01*
X18198Y82969D01*
X18287Y82837D01*
X18419Y82748D01*
X18575Y82717D01*
X18731Y82748D01*
X18863Y82837D01*
X18952Y82969D01*
X18983Y83125D01*
X18952Y83281D01*
X19038Y83322D01*
X19062Y83287D01*
X19194Y83198D01*
X19350Y83167D01*
X19506Y83198D01*
X19638Y83287D01*
X19727Y83419D01*
X19758Y83575D01*
X19727Y83731D01*
X19638Y83863D01*
X19506Y83952D01*
X19350Y83983D01*
D02*
G37*
G36*
X5350Y83558D02*
X5194Y83527D01*
X5111Y83472D01*
X5037Y83447D01*
X4964Y83472D01*
X4881Y83527D01*
X4725Y83558D01*
X4569Y83527D01*
X4437Y83438D01*
X4348Y83306D01*
X4317Y83150D01*
X4348Y82994D01*
X4437Y82862D01*
X4569Y82773D01*
X4725Y82742D01*
X4881Y82773D01*
X4964Y82828D01*
X5037Y82853D01*
X5111Y82828D01*
X5194Y82773D01*
X5350Y82742D01*
X5506Y82773D01*
X5638Y82862D01*
X5727Y82994D01*
X5758Y83150D01*
X5727Y83306D01*
X5638Y83438D01*
X5506Y83527D01*
X5350Y83558D01*
D02*
G37*
G36*
X31575Y83181D02*
X31458Y83158D01*
X31359Y83091D01*
X31292Y82992D01*
X31269Y82875D01*
X31292Y82758D01*
X31359Y82659D01*
X31458Y82592D01*
X31575Y82569D01*
X31692Y82592D01*
X31791Y82659D01*
X31858Y82758D01*
X31881Y82875D01*
X31858Y82992D01*
X31791Y83091D01*
X31692Y83158D01*
X31575Y83181D01*
D02*
G37*
G36*
X18575Y81858D02*
X18419Y81827D01*
X18287Y81738D01*
X18198Y81606D01*
X18167Y81450D01*
X18198Y81294D01*
X18287Y81162D01*
X18419Y81073D01*
X18575Y81042D01*
X18731Y81073D01*
X18863Y81162D01*
X18952Y81294D01*
X18983Y81450D01*
X18952Y81606D01*
X18863Y81738D01*
X18731Y81827D01*
X18575Y81858D01*
D02*
G37*
G36*
X7550Y82008D02*
X7394Y81977D01*
X7262Y81888D01*
X7173Y81756D01*
X7142Y81600D01*
X7173Y81444D01*
X7262Y81312D01*
X7394Y81223D01*
X7550Y81192D01*
X7706Y81223D01*
X7838Y81312D01*
X7927Y81444D01*
X7958Y81600D01*
X7927Y81756D01*
X7838Y81888D01*
X7706Y81977D01*
X7550Y82008D01*
D02*
G37*
G36*
X18650Y87433D02*
X18494Y87402D01*
X18362Y87313D01*
X18273Y87181D01*
X18242Y87025D01*
X18273Y86869D01*
X18362Y86737D01*
X18494Y86648D01*
X18650Y86617D01*
X18806Y86648D01*
X18938Y86737D01*
X19027Y86869D01*
X19058Y87025D01*
X19027Y87181D01*
X18938Y87313D01*
X18806Y87402D01*
X18650Y87433D01*
D02*
G37*
G36*
X30625Y87281D02*
X30508Y87258D01*
X30409Y87191D01*
X30342Y87092D01*
X30319Y86975D01*
X30342Y86858D01*
X30409Y86759D01*
X30508Y86692D01*
X30625Y86669D01*
X30742Y86692D01*
X30841Y86759D01*
X30908Y86858D01*
X30931Y86975D01*
X30908Y87092D01*
X30841Y87191D01*
X30742Y87258D01*
X30625Y87281D01*
D02*
G37*
G36*
X8950Y86508D02*
X8794Y86477D01*
X8662Y86388D01*
X8573Y86256D01*
X8542Y86100D01*
X8573Y85944D01*
X8662Y85812D01*
X8794Y85723D01*
X8950Y85692D01*
X9106Y85723D01*
X9238Y85812D01*
X9327Y85944D01*
X9358Y86100D01*
X9327Y86256D01*
X9238Y86388D01*
X9106Y86477D01*
X8950Y86508D01*
D02*
G37*
G36*
X16950Y85983D02*
X16794Y85952D01*
X16662Y85863D01*
X16573Y85731D01*
X16542Y85575D01*
X16573Y85419D01*
X16662Y85287D01*
X16794Y85198D01*
X16950Y85167D01*
X17106Y85198D01*
X17238Y85287D01*
X17327Y85419D01*
X17358Y85575D01*
X17327Y85731D01*
X17238Y85863D01*
X17106Y85952D01*
X16950Y85983D01*
D02*
G37*
G36*
X29950Y86231D02*
X29833Y86208D01*
X29734Y86141D01*
X29667Y86042D01*
X29644Y85925D01*
X29667Y85808D01*
X29734Y85709D01*
X29833Y85642D01*
X29950Y85619D01*
X30067Y85642D01*
X30166Y85709D01*
X30233Y85808D01*
X30256Y85925D01*
X30233Y86042D01*
X30166Y86141D01*
X30067Y86208D01*
X29950Y86231D01*
D02*
G37*
G36*
X79350Y66981D02*
X79233Y66958D01*
X79134Y66891D01*
X79067Y66792D01*
X79044Y66675D01*
X79067Y66558D01*
X79134Y66459D01*
X79233Y66392D01*
X79350Y66369D01*
X79467Y66392D01*
X79566Y66459D01*
X79633Y66558D01*
X79656Y66675D01*
X79633Y66792D01*
X79566Y66891D01*
X79467Y66958D01*
X79350Y66981D01*
D02*
G37*
G36*
X33625Y63331D02*
X33508Y63308D01*
X33409Y63241D01*
X33342Y63142D01*
X33319Y63025D01*
X33342Y62908D01*
X33409Y62809D01*
X33508Y62742D01*
X33625Y62719D01*
X33742Y62742D01*
X33841Y62809D01*
X33908Y62908D01*
X33931Y63025D01*
X33908Y63142D01*
X33841Y63241D01*
X33742Y63308D01*
X33625Y63331D01*
D02*
G37*
G36*
X41850Y63606D02*
X41733Y63583D01*
X41634Y63516D01*
X41567Y63417D01*
X41544Y63300D01*
X41567Y63183D01*
X41634Y63084D01*
X41733Y63017D01*
X41850Y62994D01*
X41967Y63017D01*
X42066Y63084D01*
X42133Y63183D01*
X42156Y63300D01*
X42133Y63417D01*
X42066Y63516D01*
X41967Y63583D01*
X41850Y63606D01*
D02*
G37*
G36*
X32325Y63331D02*
X32208Y63308D01*
X32109Y63241D01*
X32042Y63142D01*
X32019Y63025D01*
X32042Y62908D01*
X32109Y62809D01*
X32208Y62742D01*
X32325Y62719D01*
X32442Y62742D01*
X32541Y62809D01*
X32608Y62908D01*
X32631Y63025D01*
X32608Y63142D01*
X32541Y63241D01*
X32442Y63308D01*
X32325Y63331D01*
D02*
G37*
G36*
X29725D02*
X29608Y63308D01*
X29509Y63241D01*
X29442Y63142D01*
X29419Y63025D01*
X29442Y62908D01*
X29509Y62809D01*
X29608Y62742D01*
X29725Y62719D01*
X29842Y62742D01*
X29941Y62809D01*
X30008Y62908D01*
X30031Y63025D01*
X30008Y63142D01*
X29941Y63241D01*
X29842Y63308D01*
X29725Y63331D01*
D02*
G37*
G36*
X31025D02*
X30908Y63308D01*
X30809Y63241D01*
X30742Y63142D01*
X30719Y63025D01*
X30742Y62908D01*
X30809Y62809D01*
X30908Y62742D01*
X31025Y62719D01*
X31142Y62742D01*
X31241Y62809D01*
X31308Y62908D01*
X31331Y63025D01*
X31308Y63142D01*
X31241Y63241D01*
X31142Y63308D01*
X31025Y63331D01*
D02*
G37*
G36*
X76550Y64431D02*
X76433Y64408D01*
X76334Y64341D01*
X76267Y64242D01*
X76244Y64125D01*
X76267Y64008D01*
X76334Y63909D01*
X76433Y63842D01*
X76550Y63819D01*
X76667Y63842D01*
X76766Y63909D01*
X76833Y64008D01*
X76856Y64125D01*
X76833Y64242D01*
X76766Y64341D01*
X76667Y64408D01*
X76550Y64431D01*
D02*
G37*
G36*
X77350D02*
X77233Y64408D01*
X77134Y64341D01*
X77067Y64242D01*
X77044Y64125D01*
X77067Y64008D01*
X77134Y63909D01*
X77233Y63842D01*
X77350Y63819D01*
X77467Y63842D01*
X77566Y63909D01*
X77633Y64008D01*
X77656Y64125D01*
X77633Y64242D01*
X77566Y64341D01*
X77467Y64408D01*
X77350Y64431D01*
D02*
G37*
G36*
X75750D02*
X75633Y64408D01*
X75534Y64341D01*
X75467Y64242D01*
X75444Y64125D01*
X75467Y64008D01*
X75534Y63909D01*
X75633Y63842D01*
X75750Y63819D01*
X75867Y63842D01*
X75966Y63909D01*
X76033Y64008D01*
X76056Y64125D01*
X76033Y64242D01*
X75966Y64341D01*
X75867Y64408D01*
X75750Y64431D01*
D02*
G37*
G36*
X35125Y64481D02*
X35008Y64458D01*
X34909Y64391D01*
X34842Y64292D01*
X34819Y64175D01*
X34842Y64058D01*
X34909Y63959D01*
X35008Y63892D01*
X35125Y63869D01*
X35242Y63892D01*
X35250Y63898D01*
X35368Y63870D01*
X35391Y63835D01*
X35378Y63730D01*
X35306Y63690D01*
X35242Y63733D01*
X35125Y63756D01*
X35008Y63733D01*
X34909Y63666D01*
X34842Y63567D01*
X34819Y63450D01*
X34830Y63394D01*
X34785Y63286D01*
X34764Y63270D01*
X34684Y63216D01*
X34617Y63117D01*
X34594Y63000D01*
X34617Y62883D01*
X34684Y62784D01*
X34783Y62717D01*
X34900Y62694D01*
X35017Y62717D01*
X35116Y62784D01*
X35183Y62883D01*
X35206Y63000D01*
X35195Y63056D01*
X35240Y63164D01*
X35261Y63180D01*
X35341Y63234D01*
X35342Y63235D01*
X35409Y63284D01*
X35508Y63217D01*
X35625Y63194D01*
X35742Y63217D01*
X35841Y63284D01*
X35908Y63383D01*
X35931Y63500D01*
X35908Y63617D01*
X35854Y63697D01*
X35847Y63763D01*
X35854Y63828D01*
X35908Y63908D01*
X35931Y64025D01*
X35908Y64142D01*
X35841Y64241D01*
X35742Y64308D01*
X35625Y64331D01*
X35508Y64308D01*
X35455Y64272D01*
X35408Y64292D01*
X35341Y64391D01*
X35242Y64458D01*
X35125Y64481D01*
D02*
G37*
G36*
X42075Y64381D02*
X41958Y64358D01*
X41859Y64291D01*
X41792Y64192D01*
X41769Y64075D01*
X41792Y63958D01*
X41859Y63859D01*
X41958Y63792D01*
X42075Y63769D01*
X42192Y63792D01*
X42291Y63859D01*
X42358Y63958D01*
X42381Y64075D01*
X42358Y64192D01*
X42291Y64291D01*
X42192Y64358D01*
X42075Y64381D01*
D02*
G37*
G36*
X61925Y62856D02*
X61808Y62833D01*
X61709Y62766D01*
X61642Y62667D01*
X61619Y62550D01*
X61642Y62433D01*
X61709Y62334D01*
X61808Y62267D01*
X61925Y62244D01*
X62042Y62267D01*
X62141Y62334D01*
X62208Y62433D01*
X62231Y62550D01*
X62208Y62667D01*
X62141Y62766D01*
X62042Y62833D01*
X61925Y62856D01*
D02*
G37*
G36*
X63385D02*
X63268Y62833D01*
X63169Y62766D01*
X63102Y62667D01*
X63079Y62550D01*
X63102Y62433D01*
X63169Y62334D01*
X63268Y62267D01*
X63385Y62244D01*
X63502Y62267D01*
X63601Y62334D01*
X63668Y62433D01*
X63691Y62550D01*
X63668Y62667D01*
X63601Y62766D01*
X63502Y62833D01*
X63385Y62856D01*
D02*
G37*
G36*
X59525D02*
X59408Y62833D01*
X59309Y62766D01*
X59242Y62667D01*
X59219Y62550D01*
X59242Y62433D01*
X59309Y62334D01*
X59408Y62267D01*
X59525Y62244D01*
X59642Y62267D01*
X59741Y62334D01*
X59808Y62433D01*
X59831Y62550D01*
X59808Y62667D01*
X59741Y62766D01*
X59642Y62833D01*
X59525Y62856D01*
D02*
G37*
G36*
X51905Y62746D02*
X51788Y62723D01*
X51689Y62656D01*
X51622Y62557D01*
X51599Y62440D01*
X51622Y62323D01*
X51689Y62224D01*
X51788Y62157D01*
X51905Y62134D01*
X52022Y62157D01*
X52121Y62224D01*
X52188Y62323D01*
X52211Y62440D01*
X52188Y62557D01*
X52121Y62656D01*
X52022Y62723D01*
X51905Y62746D01*
D02*
G37*
G36*
X57955Y62856D02*
X57838Y62833D01*
X57739Y62766D01*
X57672Y62667D01*
X57649Y62550D01*
X57672Y62433D01*
X57739Y62334D01*
X57838Y62267D01*
X57955Y62244D01*
X58072Y62267D01*
X58171Y62334D01*
X58238Y62433D01*
X58261Y62550D01*
X58238Y62667D01*
X58171Y62766D01*
X58072Y62833D01*
X57955Y62856D01*
D02*
G37*
G36*
X24890Y63246D02*
X24773Y63223D01*
X24674Y63156D01*
X24607Y63057D01*
X24584Y62940D01*
X24607Y62823D01*
X24674Y62724D01*
X24773Y62657D01*
X24890Y62634D01*
X25007Y62657D01*
X25106Y62724D01*
X25173Y62823D01*
X25196Y62940D01*
X25173Y63057D01*
X25106Y63156D01*
X25007Y63223D01*
X24890Y63246D01*
D02*
G37*
G36*
X20800Y63256D02*
X20683Y63233D01*
X20584Y63166D01*
X20517Y63067D01*
X20494Y62950D01*
X20517Y62833D01*
X20584Y62734D01*
X20683Y62667D01*
X20800Y62644D01*
X20917Y62667D01*
X21016Y62734D01*
X21083Y62833D01*
X21106Y62950D01*
X21083Y63067D01*
X21016Y63166D01*
X20917Y63233D01*
X20800Y63256D01*
D02*
G37*
G36*
X41225Y63106D02*
X41108Y63083D01*
X41009Y63016D01*
X40942Y62917D01*
X40919Y62800D01*
X40942Y62683D01*
X41009Y62584D01*
X41108Y62517D01*
X41225Y62494D01*
X41342Y62517D01*
X41441Y62584D01*
X41508Y62683D01*
X41531Y62800D01*
X41508Y62917D01*
X41441Y63016D01*
X41342Y63083D01*
X41225Y63106D01*
D02*
G37*
G36*
X40000Y62981D02*
X39883Y62958D01*
X39784Y62891D01*
X39717Y62792D01*
X39694Y62675D01*
X39717Y62558D01*
X39784Y62459D01*
X39883Y62392D01*
X40000Y62369D01*
X40117Y62392D01*
X40216Y62459D01*
X40283Y62558D01*
X40306Y62675D01*
X40283Y62792D01*
X40216Y62891D01*
X40117Y62958D01*
X40000Y62981D01*
D02*
G37*
G36*
X53175Y63056D02*
X53058Y63033D01*
X52959Y62966D01*
X52892Y62867D01*
X52869Y62750D01*
X52892Y62633D01*
X52959Y62534D01*
X53058Y62467D01*
X53175Y62444D01*
X53292Y62467D01*
X53391Y62534D01*
X53458Y62633D01*
X53481Y62750D01*
X53458Y62867D01*
X53391Y62966D01*
X53292Y63033D01*
X53175Y63056D01*
D02*
G37*
G36*
X29725Y64631D02*
X29608Y64608D01*
X29509Y64541D01*
X29442Y64442D01*
X29419Y64325D01*
X29442Y64208D01*
X29509Y64109D01*
X29608Y64042D01*
X29725Y64019D01*
X29842Y64042D01*
X29941Y64109D01*
X30008Y64208D01*
X30031Y64325D01*
X30008Y64442D01*
X29941Y64541D01*
X29842Y64608D01*
X29725Y64631D01*
D02*
G37*
G36*
X74150Y66031D02*
X74033Y66008D01*
X73934Y65941D01*
X73867Y65842D01*
X73844Y65725D01*
X73867Y65608D01*
X73934Y65509D01*
X74033Y65442D01*
X74150Y65419D01*
X74267Y65442D01*
X74366Y65509D01*
X74433Y65608D01*
X74456Y65725D01*
X74433Y65842D01*
X74366Y65941D01*
X74267Y66008D01*
X74150Y66031D01*
D02*
G37*
G36*
X74950D02*
X74833Y66008D01*
X74734Y65941D01*
X74667Y65842D01*
X74644Y65725D01*
X74667Y65608D01*
X74734Y65509D01*
X74833Y65442D01*
X74950Y65419D01*
X75067Y65442D01*
X75166Y65509D01*
X75233Y65608D01*
X75256Y65725D01*
X75233Y65842D01*
X75166Y65941D01*
X75067Y66008D01*
X74950Y66031D01*
D02*
G37*
G36*
X73350D02*
X73233Y66008D01*
X73134Y65941D01*
X73067Y65842D01*
X73044Y65725D01*
X73067Y65608D01*
X73134Y65509D01*
X73233Y65442D01*
X73350Y65419D01*
X73467Y65442D01*
X73566Y65509D01*
X73633Y65608D01*
X73656Y65725D01*
X73633Y65842D01*
X73566Y65941D01*
X73467Y66008D01*
X73350Y66031D01*
D02*
G37*
G36*
X32325Y65931D02*
X32208Y65908D01*
X32109Y65841D01*
X32042Y65742D01*
X32019Y65625D01*
X32042Y65508D01*
X32109Y65409D01*
X32208Y65342D01*
X32325Y65319D01*
X32442Y65342D01*
X32541Y65409D01*
X32608Y65508D01*
X32631Y65625D01*
X32608Y65742D01*
X32541Y65841D01*
X32442Y65908D01*
X32325Y65931D01*
D02*
G37*
G36*
X72550Y66031D02*
X72433Y66008D01*
X72334Y65941D01*
X72267Y65842D01*
X72244Y65725D01*
X72267Y65608D01*
X72334Y65509D01*
X72433Y65442D01*
X72550Y65419D01*
X72667Y65442D01*
X72766Y65509D01*
X72833Y65608D01*
X72856Y65725D01*
X72833Y65842D01*
X72766Y65941D01*
X72667Y66008D01*
X72550Y66031D01*
D02*
G37*
G36*
X35625Y66306D02*
X35508Y66283D01*
X35409Y66216D01*
X35342Y66117D01*
X35319Y66000D01*
X35288Y65968D01*
X35225Y65981D01*
X35108Y65958D01*
X35009Y65891D01*
X34942Y65792D01*
X34919Y65675D01*
X34942Y65558D01*
X35009Y65459D01*
X35108Y65392D01*
X35225Y65369D01*
X35274Y65277D01*
X35292Y65183D01*
X35359Y65084D01*
X35458Y65017D01*
X35575Y64994D01*
X35692Y65017D01*
X35791Y65084D01*
X35858Y65183D01*
X35881Y65300D01*
X35858Y65417D01*
X35791Y65516D01*
X35692Y65583D01*
X35615Y65598D01*
X35625Y65694D01*
X35742Y65717D01*
X35841Y65784D01*
X35908Y65883D01*
X35931Y66000D01*
X35908Y66117D01*
X35841Y66216D01*
X35742Y66283D01*
X35625Y66306D01*
D02*
G37*
G36*
X71750Y66831D02*
X71633Y66808D01*
X71534Y66741D01*
X71467Y66642D01*
X71444Y66525D01*
X71467Y66408D01*
X71534Y66309D01*
X71633Y66242D01*
X71750Y66219D01*
X71867Y66242D01*
X71966Y66309D01*
X72033Y66408D01*
X72056Y66525D01*
X72033Y66642D01*
X71966Y66741D01*
X71867Y66808D01*
X71750Y66831D01*
D02*
G37*
G36*
X70710Y66051D02*
X70593Y66028D01*
X70494Y65961D01*
X70427Y65862D01*
X70404Y65745D01*
X70427Y65628D01*
X70494Y65529D01*
X70593Y65462D01*
X70710Y65439D01*
X70827Y65462D01*
X70926Y65529D01*
X70993Y65628D01*
X71016Y65745D01*
X70993Y65862D01*
X70926Y65961D01*
X70827Y66028D01*
X70710Y66051D01*
D02*
G37*
G36*
X75750Y66031D02*
X75633Y66008D01*
X75534Y65941D01*
X75467Y65842D01*
X75444Y65725D01*
X75467Y65608D01*
X75534Y65509D01*
X75633Y65442D01*
X75750Y65419D01*
X75867Y65442D01*
X75966Y65509D01*
X76033Y65608D01*
X76056Y65725D01*
X76033Y65842D01*
X75966Y65941D01*
X75867Y66008D01*
X75750Y66031D01*
D02*
G37*
G36*
X76550D02*
X76433Y66008D01*
X76334Y65941D01*
X76267Y65842D01*
X76244Y65725D01*
X76267Y65608D01*
X76334Y65509D01*
X76433Y65442D01*
X76550Y65419D01*
X76667Y65442D01*
X76766Y65509D01*
X76833Y65608D01*
X76856Y65725D01*
X76833Y65842D01*
X76766Y65941D01*
X76667Y66008D01*
X76550Y66031D01*
D02*
G37*
G36*
X73350Y65231D02*
X73233Y65208D01*
X73134Y65141D01*
X73067Y65042D01*
X73044Y64925D01*
X73067Y64808D01*
X73134Y64709D01*
X73233Y64642D01*
X73350Y64619D01*
X73467Y64642D01*
X73566Y64709D01*
X73633Y64808D01*
X73656Y64925D01*
X73633Y65042D01*
X73566Y65141D01*
X73467Y65208D01*
X73350Y65231D01*
D02*
G37*
G36*
X74150D02*
X74033Y65208D01*
X73934Y65141D01*
X73867Y65042D01*
X73844Y64925D01*
X73867Y64808D01*
X73934Y64709D01*
X74033Y64642D01*
X74150Y64619D01*
X74267Y64642D01*
X74366Y64709D01*
X74433Y64808D01*
X74456Y64925D01*
X74433Y65042D01*
X74366Y65141D01*
X74267Y65208D01*
X74150Y65231D01*
D02*
G37*
G36*
X33625Y64631D02*
X33508Y64608D01*
X33409Y64541D01*
X33342Y64442D01*
X33319Y64325D01*
X33342Y64208D01*
X33409Y64109D01*
X33508Y64042D01*
X33625Y64019D01*
X33742Y64042D01*
X33841Y64109D01*
X33908Y64208D01*
X33931Y64325D01*
X33908Y64442D01*
X33841Y64541D01*
X33742Y64608D01*
X33625Y64631D01*
D02*
G37*
G36*
X31025D02*
X30908Y64608D01*
X30809Y64541D01*
X30742Y64442D01*
X30719Y64325D01*
X30742Y64208D01*
X30809Y64109D01*
X30908Y64042D01*
X31025Y64019D01*
X31142Y64042D01*
X31241Y64109D01*
X31308Y64208D01*
X31331Y64325D01*
X31308Y64442D01*
X31241Y64541D01*
X31142Y64608D01*
X31025Y64631D01*
D02*
G37*
G36*
X32325D02*
X32208Y64608D01*
X32109Y64541D01*
X32042Y64442D01*
X32019Y64325D01*
X32042Y64208D01*
X32109Y64109D01*
X32208Y64042D01*
X32325Y64019D01*
X32442Y64042D01*
X32541Y64109D01*
X32608Y64208D01*
X32631Y64325D01*
X32608Y64442D01*
X32541Y64541D01*
X32442Y64608D01*
X32325Y64631D01*
D02*
G37*
G36*
X29725Y65931D02*
X29608Y65908D01*
X29509Y65841D01*
X29442Y65742D01*
X29419Y65625D01*
X29442Y65508D01*
X29509Y65409D01*
X29608Y65342D01*
X29725Y65319D01*
X29842Y65342D01*
X29941Y65409D01*
X30008Y65508D01*
X30031Y65625D01*
X30008Y65742D01*
X29941Y65841D01*
X29842Y65908D01*
X29725Y65931D01*
D02*
G37*
G36*
X31025D02*
X30908Y65908D01*
X30809Y65841D01*
X30742Y65742D01*
X30719Y65625D01*
X30742Y65508D01*
X30809Y65409D01*
X30908Y65342D01*
X31025Y65319D01*
X31142Y65342D01*
X31241Y65409D01*
X31308Y65508D01*
X31331Y65625D01*
X31308Y65742D01*
X31241Y65841D01*
X31142Y65908D01*
X31025Y65931D01*
D02*
G37*
G36*
X34275Y65881D02*
X34158Y65858D01*
X34059Y65791D01*
X33992Y65692D01*
X33969Y65575D01*
X33992Y65458D01*
X34059Y65359D01*
X34158Y65292D01*
X34275Y65269D01*
X34383Y65291D01*
X34408Y65276D01*
X34463Y65219D01*
X34444Y65125D01*
X34467Y65008D01*
X34534Y64909D01*
X34633Y64842D01*
X34750Y64819D01*
X34867Y64842D01*
X34966Y64909D01*
X35033Y65008D01*
X35056Y65125D01*
X35033Y65242D01*
X34966Y65341D01*
X34867Y65408D01*
X34750Y65431D01*
X34642Y65409D01*
X34617Y65424D01*
X34562Y65481D01*
X34581Y65575D01*
X34558Y65692D01*
X34491Y65791D01*
X34392Y65858D01*
X34275Y65881D01*
D02*
G37*
G36*
X74950Y65231D02*
X74833Y65208D01*
X74734Y65141D01*
X74667Y65042D01*
X74644Y64925D01*
X74667Y64808D01*
X74734Y64709D01*
X74833Y64642D01*
X74950Y64619D01*
X75067Y64642D01*
X75166Y64709D01*
X75233Y64808D01*
X75256Y64925D01*
X75233Y65042D01*
X75166Y65141D01*
X75067Y65208D01*
X74950Y65231D01*
D02*
G37*
G36*
X75750D02*
X75633Y65208D01*
X75534Y65141D01*
X75467Y65042D01*
X75444Y64925D01*
X75467Y64808D01*
X75534Y64709D01*
X75633Y64642D01*
X75750Y64619D01*
X75867Y64642D01*
X75966Y64709D01*
X76033Y64808D01*
X76056Y64925D01*
X76033Y65042D01*
X75966Y65141D01*
X75867Y65208D01*
X75750Y65231D01*
D02*
G37*
%LPD*%
D16*
X81100Y47250D02*
D03*
Y47750D02*
D03*
X77325Y72250D02*
D03*
X75900Y55100D02*
D03*
X62225Y68250D02*
D03*
X53500Y67325D02*
D03*
X71025Y72250D02*
D03*
X74925D02*
D03*
X54325Y60700D02*
D03*
X53525Y60700D02*
D03*
X56765Y53940D02*
D03*
X53855Y53950D02*
D03*
X54525D02*
D03*
X55325D02*
D03*
X52765Y62360D02*
D03*
X58855Y53940D02*
D03*
X51105Y54080D02*
D03*
X57745Y53940D02*
D03*
X62325Y59900D02*
D03*
X61925Y53950D02*
D03*
X51715Y54020D02*
D03*
X53215Y53950D02*
D03*
X62325Y60700D02*
D03*
X59925Y55900D02*
D03*
X60045Y53930D02*
D03*
X62725Y54125D02*
D03*
X54275Y62450D02*
D03*
X60725Y55900D02*
D03*
X51525Y62800D02*
D03*
X59125Y60700D02*
D03*
X60325Y62550D02*
D03*
X61925D02*
D03*
X62625D02*
D03*
X63385D02*
D03*
X61085D02*
D03*
X58325Y57500D02*
D03*
X59525Y62550D02*
D03*
X58675D02*
D03*
X57955D02*
D03*
X56725Y60700D02*
D03*
X60745Y59500D02*
D03*
X53175Y62750D02*
D03*
X64035Y56590D02*
D03*
X53505Y54930D02*
D03*
X56325Y54880D02*
D03*
X55125Y55900D02*
D03*
Y60700D02*
D03*
X53525Y61500D02*
D03*
Y56700D02*
D03*
X54325D02*
D03*
X55925Y61500D02*
D03*
Y60700D02*
D03*
X50395Y56250D02*
D03*
X51905Y55000D02*
D03*
X52625Y54900D02*
D03*
X51135Y54810D02*
D03*
X54325Y61500D02*
D03*
X55125D02*
D03*
X56725Y59900D02*
D03*
X52725Y61500D02*
D03*
X55925Y59900D02*
D03*
X50765Y61610D02*
D03*
X51125Y62440D02*
D03*
X51905D02*
D03*
X57525Y59900D02*
D03*
X51015Y56490D02*
D03*
X79350Y66675D02*
D03*
X78550Y66715D02*
D03*
X76590Y67675D02*
D03*
X76550Y65725D02*
D03*
Y64925D02*
D03*
X75000Y58345D02*
D03*
X73770Y58675D02*
D03*
X83350Y58575D02*
D03*
X77480Y58225D02*
D03*
X78660Y58325D02*
D03*
X78150Y60925D02*
D03*
X72140Y67275D02*
D03*
X72950Y66665D02*
D03*
X80950Y66675D02*
D03*
X72960Y58405D02*
D03*
X72170Y58375D02*
D03*
X70940Y58295D02*
D03*
X71340Y67275D02*
D03*
X80760Y58345D02*
D03*
X73750Y66765D02*
D03*
X75660Y67675D02*
D03*
X74550Y67055D02*
D03*
X80150Y66675D02*
D03*
X83850Y60715D02*
D03*
X82945Y64115D02*
D03*
X81300Y58315D02*
D03*
X76890Y58685D02*
D03*
X81750Y66675D02*
D03*
X82550D02*
D03*
X83290D02*
D03*
X74150Y65725D02*
D03*
X77350Y64125D02*
D03*
X75750Y65725D02*
D03*
X70710Y65745D02*
D03*
X76550Y64125D02*
D03*
X75750D02*
D03*
X74950Y64925D02*
D03*
X74150D02*
D03*
X73350Y65725D02*
D03*
X70850Y60702D02*
D03*
X70990Y58975D02*
D03*
X72550Y65725D02*
D03*
X70970Y66935D02*
D03*
X76150Y58845D02*
D03*
X71750Y66525D02*
D03*
X75750Y64925D02*
D03*
X74950Y65725D02*
D03*
X74150Y60925D02*
D03*
X72540Y59095D02*
D03*
X74950Y60125D02*
D03*
X73350Y60925D02*
D03*
X71760Y59205D02*
D03*
X73390Y59175D02*
D03*
X70440Y60405D02*
D03*
X35000Y69700D02*
D03*
X20325Y61200D02*
D03*
X22850D02*
D03*
X29375Y80100D02*
D03*
X29300Y86950D02*
D03*
X29600Y83925D02*
D03*
X30625Y86400D02*
D03*
X31575Y82875D02*
D03*
X34075Y81125D02*
D03*
X7025Y97275D02*
D03*
X2175Y97475D02*
D03*
X21638Y52025D02*
D03*
X21288Y52575D02*
D03*
X36175Y53050D02*
D03*
X32900Y53125D02*
D03*
X32500Y55700D02*
D03*
X33250Y69825D02*
D03*
X22025Y53075D02*
D03*
X35750Y55775D02*
D03*
X24890Y62940D02*
D03*
X20800Y62950D02*
D03*
X20825Y54675D02*
D03*
X27750D02*
D03*
X22125Y62350D02*
D03*
X28525Y61725D02*
D03*
X34250Y59050D02*
D03*
X36175Y53700D02*
D03*
X19025Y78575D02*
D03*
X11700Y88450D02*
D03*
X9075Y90650D02*
D03*
X2750Y81750D02*
D03*
X4250Y83801D02*
D03*
X3750Y85750D02*
D03*
X3250Y89500D02*
D03*
X4250Y90500D02*
D03*
X1475Y92975D02*
D03*
X12850Y84475D02*
D03*
X22550Y78900D02*
D03*
Y81100D02*
D03*
X22000Y76775D02*
D03*
X22550Y83250D02*
D03*
X9900Y90250D02*
D03*
X17075Y88700D02*
D03*
X11150Y85650D02*
D03*
X11125Y84450D02*
D03*
Y83225D02*
D03*
X14600D02*
D03*
Y84475D02*
D03*
Y85650D02*
D03*
X12875D02*
D03*
Y83225D02*
D03*
X6175Y82175D02*
D03*
Y80075D02*
D03*
X6100Y83275D02*
D03*
X9000Y78775D02*
D03*
X8075D02*
D03*
X8550D02*
D03*
X12000Y83875D02*
D03*
Y85075D02*
D03*
X13725D02*
D03*
Y83875D02*
D03*
X14200Y78725D02*
D03*
X13725Y78725D02*
D03*
X13225D02*
D03*
X9450Y90250D02*
D03*
X35250Y71900D02*
D03*
X33250D02*
D03*
X35125Y63450D02*
D03*
X35625Y64025D02*
D03*
X35025Y61225D02*
D03*
X34275Y65575D02*
D03*
X35625Y66000D02*
D03*
X35225Y65675D02*
D03*
X35575Y65300D02*
D03*
X35125Y64175D02*
D03*
X35625Y63500D02*
D03*
X35575Y62225D02*
D03*
Y61725D02*
D03*
Y61225D02*
D03*
X35550Y60725D02*
D03*
X34875Y59875D02*
D03*
X35625Y59400D02*
D03*
X32500Y53650D02*
D03*
X29225Y91475D02*
D03*
X34075Y79450D02*
D03*
X28200Y89450D02*
D03*
X30625Y88475D02*
D03*
X28300Y88425D02*
D03*
X30700Y91450D02*
D03*
X29950Y85925D02*
D03*
X37050Y85650D02*
D03*
X30625Y86975D02*
D03*
Y87500D02*
D03*
X30550Y89575D02*
D03*
X34750Y65125D02*
D03*
X32325Y64975D02*
D03*
X31025Y61725D02*
D03*
Y60425D02*
D03*
X34975Y62250D02*
D03*
X33650Y65600D02*
D03*
X33625Y64325D02*
D03*
Y62375D02*
D03*
Y60425D02*
D03*
Y61075D02*
D03*
Y59775D02*
D03*
X32325Y65625D02*
D03*
Y63675D02*
D03*
Y63025D02*
D03*
Y62375D02*
D03*
Y61075D02*
D03*
Y60425D02*
D03*
Y59775D02*
D03*
X31025Y63675D02*
D03*
Y64325D02*
D03*
Y65625D02*
D03*
X29725D02*
D03*
Y64975D02*
D03*
Y61725D02*
D03*
Y60425D02*
D03*
Y59775D02*
D03*
X31025D02*
D03*
Y64975D02*
D03*
X32325Y64325D02*
D03*
X29725Y63025D02*
D03*
X31025Y61075D02*
D03*
X33625Y63675D02*
D03*
Y61725D02*
D03*
Y63025D02*
D03*
X34925Y61725D02*
D03*
X34900Y63000D02*
D03*
X35025Y60725D02*
D03*
X29725Y64325D02*
D03*
X31025Y63025D02*
D03*
X32325Y61725D02*
D03*
X29725Y62375D02*
D03*
Y61075D02*
D03*
Y63675D02*
D03*
X31025Y62375D02*
D03*
X38525Y53150D02*
D03*
X28525Y62350D02*
D03*
X35250Y59050D02*
D03*
X35600Y59900D02*
D03*
X39075Y60925D02*
D03*
X40500Y61800D02*
D03*
X41250Y63925D02*
D03*
X41850Y63300D02*
D03*
X41225Y62800D02*
D03*
X73350Y64925D02*
D03*
X78425Y68775D02*
D03*
X56850Y51475D02*
D03*
X38625Y68825D02*
D03*
X42025Y62000D02*
D03*
X40000Y62675D02*
D03*
X40900Y60825D02*
D03*
X40175D02*
D03*
X42075Y64075D02*
D03*
X39775Y61800D02*
D03*
X56725Y57500D02*
D03*
X76550Y61725D02*
D03*
X39075Y61800D02*
D03*
X56725Y56700D02*
D03*
X76550Y60925D02*
D03*
X84300Y62275D02*
D03*
X84150Y59800D02*
D03*
X72000Y53675D02*
D03*
X73250Y53900D02*
D03*
X75250D02*
D03*
X78000D02*
D03*
X80000D02*
D03*
X82000Y53400D02*
D03*
X75250Y51375D02*
D03*
X83500Y72300D02*
D03*
X73000Y52250D02*
D03*
X52675Y76550D02*
D03*
X60600Y77450D02*
D03*
X70350D02*
D03*
X81100Y76750D02*
D03*
Y77250D02*
D03*
X37200Y76025D02*
D03*
Y75525D02*
D03*
X36400Y48575D02*
D03*
Y48075D02*
D03*
D25*
X11575Y74900D02*
X12250Y75575D01*
Y81450D01*
D27*
X35250Y53975D02*
X36175Y53050D01*
X35250Y53975D02*
Y58450D01*
D38*
X30250D02*
D03*
X27750Y64950D02*
D03*
X35250Y58450D02*
D03*
X32250Y57950D02*
D03*
X14250Y81450D02*
D03*
X13075Y87500D02*
D03*
X16325Y85075D02*
D03*
X6275Y78800D02*
D03*
Y77950D02*
D03*
X8350Y76500D02*
D03*
X7325D02*
D03*
X9250Y85475D02*
D03*
X8882Y85482D02*
D03*
X19150Y85700D02*
D03*
X19053Y84500D02*
D03*
X11850Y81450D02*
D03*
X12250D02*
D03*
X13450D02*
D03*
X9175Y77850D02*
D03*
X10325D02*
D03*
X9400Y76450D02*
D03*
X10300D02*
D03*
X8911Y80125D02*
D03*
X6214Y86375D02*
D03*
X6144Y86744D02*
D03*
X6200Y87775D02*
D03*
X8475Y89375D02*
D03*
X7450Y89800D02*
D03*
X6850Y90350D02*
D03*
X7050Y91925D02*
D03*
X3400Y91825D02*
D03*
X11650Y90650D02*
D03*
X13525Y91125D02*
D03*
X12825Y90650D02*
D03*
X14800Y88425D02*
D03*
Y90000D02*
D03*
X18050Y82825D02*
D03*
X14825Y78625D02*
D03*
X16325D02*
D03*
X11050Y78650D02*
D03*
X13375Y77200D02*
D03*
X14050D02*
D03*
X12375Y74700D02*
D03*
X14325Y74825D02*
D03*
X6775Y77075D02*
D03*
X8825Y78175D02*
D03*
X7675Y77625D02*
D03*
X7550Y79400D02*
D03*
X6800D02*
D03*
X15750Y75600D02*
D03*
X17050Y80150D02*
D03*
X7700Y91175D02*
D03*
X6375Y91550D02*
D03*
X6325Y90850D02*
D03*
X7900Y89375D02*
D03*
X11450Y87500D02*
D03*
Y87850D02*
D03*
X34275Y60450D02*
D03*
Y64325D02*
D03*
X36250Y65950D02*
D03*
X36750Y66950D02*
D03*
Y63450D02*
D03*
Y61950D02*
D03*
Y59950D02*
D03*
Y58450D02*
D03*
X27750Y58950D02*
D03*
X26225Y56950D02*
D03*
X37750D02*
D03*
X26225Y68450D02*
D03*
X28250Y58450D02*
D03*
Y66950D02*
D03*
X29250Y67450D02*
D03*
X31750Y67450D02*
D03*
X33750Y67450D02*
D03*
X37775Y68450D02*
D03*
X14225Y91950D02*
D03*
X34250Y57950D02*
D03*
X27750Y61950D02*
D03*
D39*
X9050Y87100D02*
D03*
X8950Y86100D02*
D03*
X5075Y88650D02*
D03*
X4575Y86100D02*
D03*
X7278Y93400D02*
D03*
X17225Y74475D02*
D03*
X16450Y74625D02*
D03*
X6075Y88575D02*
D03*
Y89200D02*
D03*
X18575Y91050D02*
D03*
X18600Y90350D02*
D03*
X18575Y91750D02*
D03*
Y83125D02*
D03*
X19350Y83575D02*
D03*
X6075Y89825D02*
D03*
X18650Y87025D02*
D03*
X3525Y90275D02*
D03*
X12255Y91640D02*
D03*
X16950Y85575D02*
D03*
X10200Y74900D02*
D03*
X10900D02*
D03*
X11575D02*
D03*
X11850Y89900D02*
D03*
X12550D02*
D03*
X4725Y83150D02*
D03*
X5350D02*
D03*
X8300Y80250D02*
D03*
X7550Y81600D02*
D03*
X18575Y81450D02*
D03*
Y82250D02*
D03*
X64400Y1425D02*
D03*
X3650Y26550D02*
D03*
X21250Y104175D02*
D03*
X26800Y115375D02*
D03*
X9650Y110500D02*
D03*
X3875Y115700D02*
D03*
X56575Y26425D02*
D03*
X82625Y27975D02*
D03*
X44125Y4175D02*
D03*
X82750Y4725D02*
D03*
X3100Y5150D02*
D03*
X24750Y96475D02*
D03*
X72100Y83850D02*
D03*
X77800Y94450D02*
D03*
X81725Y91900D02*
D03*
X64950Y86775D02*
D03*
X64150Y94525D02*
D03*
X40400Y94900D02*
D03*
X7775Y104275D02*
D03*
X31650Y96425D02*
D03*
X14325Y68325D02*
D03*
X14225Y64000D02*
D03*
X16600Y59050D02*
D03*
X40600Y103600D02*
D03*
X40675Y111425D02*
D03*
X51150Y111950D02*
D03*
X64125Y112025D02*
D03*
X76950Y112250D02*
D03*
X51225Y103675D02*
D03*
X64200Y103525D02*
D03*
X77175Y103450D02*
D03*
X51075Y94650D02*
D03*
X77475Y46825D02*
D03*
X15375Y44500D02*
D03*
X26075Y44300D02*
D03*
X4575Y43700D02*
D03*
X5675Y52800D02*
D03*
X6175Y61075D02*
D03*
X6475Y67750D02*
D03*
X25500Y82925D02*
D03*
X85000Y70250D02*
D03*
Y71250D02*
D03*
X69700Y70625D02*
D03*
X82050Y72600D02*
D03*
X49500Y80750D02*
D03*
X43000Y87000D02*
D03*
X42750Y81500D02*
D03*
X88000Y71500D02*
D03*
Y64750D02*
D03*
Y57500D02*
D03*
M02*
