G04 Layer_Color=2752767*
%FSLAX43Y43*%
%MOMM*%
G71*
G01*
G75*
%ADD56C,0.051*%
%ADD57C,0.068*%
D56*
X16797Y34147D02*
Y34553D01*
X17203D01*
Y34147D01*
X16797D01*
X40497Y33547D02*
Y33953D01*
X40903D01*
Y33547D01*
X40497D01*
X25922Y22947D02*
Y23353D01*
X26328D01*
Y22947D01*
X25922D01*
X45072Y44072D02*
Y44478D01*
X45478D01*
Y44072D01*
X45072D01*
X64772Y38272D02*
Y38678D01*
X65178D01*
Y38272D01*
X64772D01*
X64822Y52422D02*
Y52828D01*
X65228D01*
Y52422D01*
X64822D01*
X64747Y60922D02*
Y61328D01*
X65153D01*
Y60922D01*
X64747D01*
Y69347D02*
Y69753D01*
X65153D01*
Y69347D01*
X64747D01*
X51572Y80722D02*
Y81128D01*
X51978D01*
Y80722D01*
X51572D01*
X46997Y88022D02*
Y88428D01*
X47403D01*
Y88022D01*
X46997D01*
X7447Y84547D02*
Y84953D01*
X7853D01*
Y84547D01*
X7447D01*
X40249Y52272D02*
Y52678D01*
X40655D01*
Y52272D01*
X40249D01*
X47394Y52477D02*
Y52884D01*
X47800D01*
Y52477D01*
X47394D01*
X55397Y54597D02*
Y55003D01*
X55803D01*
Y54597D01*
X55397D01*
X4522Y82947D02*
Y83353D01*
X4928D01*
Y82947D01*
X4522D01*
X5147D02*
Y83353D01*
X5553D01*
Y82947D01*
X5147D01*
X5872Y89622D02*
Y90028D01*
X6278D01*
Y89622D01*
X5872D01*
Y88997D02*
Y89403D01*
X6278D01*
Y88997D01*
X5872D01*
X11647Y89697D02*
Y90103D01*
X12053D01*
Y89697D01*
X11647D01*
X12347D02*
Y90103D01*
X12753D01*
Y89697D01*
X12347D01*
X18372Y82922D02*
Y83328D01*
X18778D01*
Y82922D01*
X18372D01*
X5472Y52597D02*
Y53003D01*
X5878D01*
Y52597D01*
X5472D01*
X6272Y67547D02*
Y67953D01*
X6678D01*
Y67547D01*
X6272D01*
X15172Y44297D02*
Y44703D01*
X15578D01*
Y44297D01*
X15172D01*
X16397Y58847D02*
Y59253D01*
X16803D01*
Y58847D01*
X16397D01*
X25872Y44097D02*
Y44503D01*
X26278D01*
Y44097D01*
X25872D01*
X14022Y63797D02*
Y64203D01*
X14428D01*
Y63797D01*
X14022D01*
X18372Y82047D02*
Y82453D01*
X18778D01*
Y82047D01*
X18372D01*
X25297Y82722D02*
Y83128D01*
X25703D01*
Y82722D01*
X25297D01*
X4872Y88447D02*
Y88853D01*
X5278D01*
Y88447D01*
X4872D01*
X3322Y90072D02*
Y90478D01*
X3728D01*
Y90072D01*
X3322D01*
X12052Y91437D02*
Y91843D01*
X12458D01*
Y91437D01*
X12052D01*
X31447Y96247D02*
Y96653D01*
X31853D01*
Y96247D01*
X31447D01*
X40197Y94697D02*
Y95103D01*
X40603D01*
Y94697D01*
X40197D01*
X42797Y86797D02*
Y87203D01*
X43203D01*
Y86797D01*
X42797D01*
X63947Y94322D02*
Y94728D01*
X64353D01*
Y94322D01*
X63947D01*
X64747Y86572D02*
Y86978D01*
X65153D01*
Y86572D01*
X64747D01*
X50872Y94447D02*
Y94853D01*
X51278D01*
Y94447D01*
X50872D01*
X71897Y83647D02*
Y84053D01*
X72303D01*
Y83647D01*
X71897D01*
X81522Y91697D02*
Y92103D01*
X81928D01*
Y91697D01*
X81522D01*
X77597Y94247D02*
Y94653D01*
X78003D01*
Y94247D01*
X77597D01*
X7347Y81397D02*
Y81803D01*
X7753D01*
Y81397D01*
X7347D01*
X8847Y86897D02*
Y87303D01*
X9253D01*
Y86897D01*
X8847D01*
X19147Y83372D02*
Y83778D01*
X19553D01*
Y83372D01*
X19147D01*
X18447Y86822D02*
Y87228D01*
X18853D01*
Y86822D01*
X18447D01*
X18372Y90847D02*
Y91253D01*
X18778D01*
Y90847D01*
X18372D01*
X10697Y74697D02*
Y75103D01*
X11103D01*
Y74697D01*
X10697D01*
X11372D02*
Y75103D01*
X11778D01*
Y74697D01*
X11372D01*
X42547Y81297D02*
Y81703D01*
X42953D01*
Y81297D01*
X42547D01*
X49297Y80547D02*
Y80953D01*
X49703D01*
Y80547D01*
X49297D01*
X5972Y60872D02*
Y61278D01*
X6378D01*
Y60872D01*
X5972D01*
X14122Y68122D02*
Y68528D01*
X14528D01*
Y68122D01*
X14122D01*
X24547Y96272D02*
Y96678D01*
X24953D01*
Y96272D01*
X24547D01*
X18372Y81247D02*
Y81653D01*
X18778D01*
Y81247D01*
X18372D01*
X8097Y80047D02*
Y80453D01*
X8503D01*
Y80047D01*
X8097D01*
X9997Y74697D02*
Y75103D01*
X10403D01*
Y74697D01*
X9997D01*
X16747Y85372D02*
Y85778D01*
X17153D01*
Y85372D01*
X16747D01*
X18372Y91547D02*
Y91953D01*
X18778D01*
Y91547D01*
X18372D01*
X18397Y90147D02*
Y90553D01*
X18803D01*
Y90147D01*
X18397D01*
X5872Y88372D02*
Y88778D01*
X6278D01*
Y88372D01*
X5872D01*
X16247Y74422D02*
Y74828D01*
X16653D01*
Y74422D01*
X16247D01*
X17022Y74272D02*
Y74678D01*
X17428D01*
Y74272D01*
X17022D01*
X8747Y85897D02*
Y86303D01*
X9153D01*
Y85897D01*
X8747D01*
X4372Y43497D02*
Y43903D01*
X4778D01*
Y43497D01*
X4372D01*
X21047Y103972D02*
Y104378D01*
X21453D01*
Y103972D01*
X21047D01*
X26597Y115172D02*
Y115578D01*
X27003D01*
Y115172D01*
X26597D01*
X87797Y57297D02*
Y57703D01*
X88203D01*
Y57297D01*
X87797D01*
Y71297D02*
Y71703D01*
X88203D01*
Y71297D01*
X87797D01*
X40397Y103397D02*
Y103803D01*
X40803D01*
Y103397D01*
X40397D01*
X50947Y111747D02*
Y112153D01*
X51353D01*
Y111747D01*
X50947D01*
X51022Y103472D02*
Y103878D01*
X51428D01*
Y103472D01*
X51022D01*
X63922Y111822D02*
Y112228D01*
X64328D01*
Y111822D01*
X63922D01*
X76747Y112047D02*
Y112453D01*
X77153D01*
Y112047D01*
X76747D01*
X87797Y64547D02*
Y64953D01*
X88203D01*
Y64547D01*
X87797D01*
X76972Y103247D02*
Y103653D01*
X77378D01*
Y103247D01*
X76972D01*
X63997Y103322D02*
Y103728D01*
X64403D01*
Y103322D01*
X63997D01*
X40472Y111222D02*
Y111628D01*
X40878D01*
Y111222D01*
X40472D01*
X7572Y104072D02*
Y104478D01*
X7978D01*
Y104072D01*
X7572D01*
X2897Y4947D02*
Y5353D01*
X3303D01*
Y4947D01*
X2897D01*
X82547Y4522D02*
Y4928D01*
X82953D01*
Y4522D01*
X82547D01*
X43922Y3972D02*
Y4378D01*
X44328D01*
Y3972D01*
X43922D01*
X82422Y27772D02*
Y28178D01*
X82828D01*
Y27772D01*
X82422D01*
X56372Y26222D02*
Y26628D01*
X56778D01*
Y26222D01*
X56372D01*
X3672Y115497D02*
Y115903D01*
X4078D01*
Y115497D01*
X3672D01*
X9447Y110297D02*
Y110703D01*
X9853D01*
Y110297D01*
X9447D01*
X3447Y26347D02*
Y26753D01*
X3853D01*
Y26347D01*
X3447D01*
X64197Y1222D02*
Y1628D01*
X64603D01*
Y1222D01*
X64197D01*
X76947Y69322D02*
Y69728D01*
X77353D01*
Y69322D01*
X76947D01*
X75197Y60922D02*
Y61328D01*
X75603D01*
Y60922D01*
X75197D01*
Y51847D02*
Y52253D01*
X75603D01*
Y51847D01*
X75197D01*
X16272Y65097D02*
Y65503D01*
X16678D01*
Y65097D01*
X16272D01*
X19272Y79197D02*
Y79603D01*
X19678D01*
Y79197D01*
X19272D01*
X4097Y84972D02*
Y85378D01*
X4503D01*
Y84972D01*
X4097D01*
X2547Y73222D02*
Y73628D01*
X2953D01*
Y73222D01*
X2547D01*
X60922Y80572D02*
Y80978D01*
X61328D01*
Y80572D01*
X60922D01*
X60847Y73372D02*
Y73778D01*
X61253D01*
Y73372D01*
X60847D01*
X51597Y73022D02*
Y73428D01*
X52003D01*
Y73022D01*
X51597D01*
X43797Y72847D02*
Y73253D01*
X44203D01*
Y72847D01*
X43797D01*
X39997Y72672D02*
Y73078D01*
X40403D01*
Y72672D01*
X39997D01*
X72522Y72847D02*
Y73253D01*
X72928D01*
Y72847D01*
X72522D01*
X81497Y83172D02*
Y83578D01*
X81903D01*
Y83172D01*
X81497D01*
X25422Y6447D02*
Y6853D01*
X25828D01*
Y6447D01*
X25422D01*
D57*
X48703Y55000D02*
G03*
X48703Y55000I-203J0D01*
G01*
X48203D02*
G03*
X48203Y55000I-203J0D01*
G01*
X38453Y54900D02*
G03*
X38453Y54900I-203J0D01*
G01*
X38978D02*
G03*
X38978Y54900I-203J0D01*
G01*
X35103Y64325D02*
G03*
X35103Y64325I-203J0D01*
G01*
X35128Y61725D02*
G03*
X35128Y61725I-203J0D01*
G01*
Y63025D02*
G03*
X35128Y63025I-203J0D01*
G01*
X52078Y70100D02*
G03*
X52078Y70100I-203J0D01*
G01*
X37503Y98100D02*
G03*
X37503Y98100I-203J0D01*
G01*
X27578Y98125D02*
G03*
X27578Y98125I-203J0D01*
G01*
X19403Y98150D02*
G03*
X19403Y98150I-203J0D01*
G01*
X11278Y98125D02*
G03*
X11278Y98125I-203J0D01*
G01*
X53328Y66875D02*
G03*
X53328Y66875I-203J0D01*
G01*
X46028Y65325D02*
G03*
X46028Y65325I-203J0D01*
G01*
X49265Y65975D02*
G03*
X49265Y65975I-203J0D01*
G01*
X51878Y59475D02*
G03*
X51878Y59475I-203J0D01*
G01*
X36378Y53050D02*
G03*
X36378Y53050I-203J0D01*
G01*
X35928Y55625D02*
G03*
X35928Y55625I-203J0D01*
G01*
X36428Y55725D02*
G03*
X36428Y55725I-203J0D01*
G01*
X37018Y71410D02*
G03*
X37018Y71410I-203J0D01*
G01*
X39480Y62500D02*
G03*
X39480Y62500I-203J0D01*
G01*
X48628Y61425D02*
G03*
X48628Y61425I-203J0D01*
G01*
X44668Y57710D02*
G03*
X44668Y57710I-203J0D01*
G01*
X39253Y57900D02*
G03*
X39253Y57900I-203J0D01*
G01*
X39583Y56610D02*
G03*
X39583Y56610I-203J0D01*
G01*
X46678Y58825D02*
G03*
X46678Y58825I-203J0D01*
G01*
X39583Y56110D02*
G03*
X39583Y56110I-203J0D01*
G01*
X47328Y58825D02*
G03*
X47328Y58825I-203J0D01*
G01*
X43920Y56794D02*
G03*
X43920Y56794I-203J0D01*
G01*
X44501Y56989D02*
G03*
X44501Y56989I-203J0D01*
G01*
X39993Y57035D02*
G03*
X39993Y57035I-203J0D01*
G01*
X47328Y60130D02*
G03*
X47328Y60130I-203J0D01*
G01*
X47978Y58175D02*
G03*
X47978Y58175I-203J0D01*
G01*
X49268Y59475D02*
G03*
X49268Y59475I-203J0D01*
G01*
X41108Y65710D02*
G03*
X41108Y65710I-203J0D01*
G01*
X49278Y64025D02*
G03*
X49278Y64025I-203J0D01*
G01*
X41118Y65205D02*
G03*
X41118Y65205I-203J0D01*
G01*
X48628Y64025D02*
G03*
X48628Y64025I-203J0D01*
G01*
X44696Y69230D02*
G03*
X44696Y69230I-203J0D01*
G01*
X46678Y65975D02*
G03*
X46678Y65975I-203J0D01*
G01*
X44698Y68720D02*
G03*
X44698Y68720I-203J0D01*
G01*
X47328Y65975D02*
G03*
X47328Y65975I-203J0D01*
G01*
X49263Y66620D02*
G03*
X49263Y66620I-203J0D01*
G01*
X46109Y68628D02*
G03*
X46109Y68628I-203J0D01*
G01*
X42668Y59880D02*
G03*
X42668Y59880I-203J0D01*
G01*
X50578Y59475D02*
G03*
X50578Y59475I-203J0D01*
G01*
X49928Y60775D02*
G03*
X49928Y60775I-203J0D01*
G01*
X43983Y60085D02*
G03*
X43983Y60085I-203J0D01*
G01*
X48628Y60775D02*
G03*
X48628Y60775I-203J0D01*
G01*
X43983Y60585D02*
G03*
X43983Y60585I-203J0D01*
G01*
X49153Y68775D02*
G03*
X49153Y68775I-203J0D01*
G01*
X35828Y61950D02*
G03*
X35828Y61950I-203J0D01*
G01*
X37918Y71410D02*
G03*
X37918Y71410I-203J0D01*
G01*
X49063Y67385D02*
G03*
X49063Y67385I-203J0D01*
G01*
X50626Y54387D02*
G03*
X50626Y54387I-203J0D01*
G01*
X48328Y67450D02*
G03*
X48328Y67450I-203J0D01*
G01*
X35853Y64475D02*
G03*
X35853Y64475I-203J0D01*
G01*
X35128Y60425D02*
G03*
X35128Y60425I-203J0D01*
G01*
Y62375D02*
G03*
X35128Y62375I-203J0D01*
G01*
X35103Y63675D02*
G03*
X35103Y63675I-203J0D01*
G01*
X35853Y60935D02*
G03*
X35853Y60935I-203J0D01*
G01*
X50578Y60125D02*
G03*
X50578Y60125I-203J0D01*
G01*
X35853Y64975D02*
G03*
X35853Y64975I-203J0D01*
G01*
X51878Y65325D02*
G03*
X51878Y65325I-203J0D01*
G01*
X50578Y66625D02*
G03*
X50578Y66625I-203J0D01*
G01*
X52003Y64650D02*
G03*
X52003Y64650I-203J0D01*
G01*
X51228Y66625D02*
G03*
X51228Y66625I-203J0D01*
G01*
X51878Y58175D02*
G03*
X51878Y58175I-203J0D01*
G01*
X51228Y58825D02*
G03*
X51228Y58825I-203J0D01*
G01*
X51903Y60125D02*
G03*
X51903Y60125I-203J0D01*
G01*
X37248Y55945D02*
G03*
X37248Y55945I-203J0D01*
G01*
X38628Y56105D02*
G03*
X38628Y56105I-203J0D01*
G01*
X37784Y55294D02*
G03*
X37784Y55294I-203J0D01*
G01*
X38283Y55735D02*
G03*
X38283Y55735I-203J0D01*
G01*
X38348Y56525D02*
G03*
X38348Y56525I-203J0D01*
G01*
X51978Y60775D02*
G03*
X51978Y60775I-203J0D01*
G01*
X35803Y65945D02*
G03*
X35803Y65945I-203J0D01*
G01*
X35853Y63950D02*
G03*
X35853Y63950I-203J0D01*
G01*
X50578Y60775D02*
G03*
X50578Y60775I-203J0D01*
G01*
X35828Y62950D02*
G03*
X35828Y62950I-203J0D01*
G01*
X51228Y64025D02*
G03*
X51228Y64025I-203J0D01*
G01*
X50578Y65325D02*
G03*
X50578Y65325I-203J0D01*
G01*
X51878Y64025D02*
G03*
X51878Y64025I-203J0D01*
G01*
X35488Y59605D02*
G03*
X35488Y59605I-203J0D01*
G01*
X48628Y59475D02*
G03*
X48628Y59475I-203J0D01*
G01*
X35863Y59950D02*
G03*
X35863Y59950I-203J0D01*
G01*
X40258Y57495D02*
G03*
X40258Y57495I-203J0D01*
G01*
X50578Y62075D02*
G03*
X50578Y62075I-203J0D01*
G01*
X48628Y58825D02*
G03*
X48628Y58825I-203J0D01*
G01*
X47978Y59475D02*
G03*
X47978Y59475I-203J0D01*
G01*
Y58825D02*
G03*
X47978Y58825I-203J0D01*
G01*
X39663Y58270D02*
G03*
X39663Y58270I-203J0D01*
G01*
X46678Y65325D02*
G03*
X46678Y65325I-203J0D01*
G01*
X38724Y62821D02*
G03*
X38724Y62821I-203J0D01*
G01*
X45178Y64675D02*
G03*
X45178Y64675I-203J0D01*
G01*
X44653Y62775D02*
G03*
X44653Y62775I-203J0D01*
G01*
X46678Y62725D02*
G03*
X46678Y62725I-203J0D01*
G01*
X47328Y65325D02*
G03*
X47328Y65325I-203J0D01*
G01*
Y64675D02*
G03*
X47328Y64675I-203J0D01*
G01*
X47978Y65325D02*
G03*
X47978Y65325I-203J0D01*
G01*
X46678Y64675D02*
G03*
X46678Y64675I-203J0D01*
G01*
X45383Y57525D02*
G03*
X45383Y57525I-203J0D01*
G01*
X49928Y59475D02*
G03*
X49928Y59475I-203J0D01*
G01*
X47278Y67325D02*
G03*
X47278Y67325I-203J0D01*
G01*
X47978Y62725D02*
G03*
X47978Y62725I-203J0D01*
G01*
X48628D02*
G03*
X48628Y62725I-203J0D01*
G01*
X49333Y62725D02*
G03*
X49333Y62725I-203J0D01*
G01*
X47328Y62725D02*
G03*
X47328Y62725I-203J0D01*
G01*
X45978Y62775D02*
G03*
X45978Y62775I-203J0D01*
G01*
X45228D02*
G03*
X45228Y62775I-203J0D01*
G01*
X45303Y58175D02*
G03*
X45303Y58175I-203J0D01*
G01*
X39903Y63775D02*
G03*
X39903Y63775I-203J0D01*
G01*
X39480Y61994D02*
G03*
X39480Y61994I-203J0D01*
G01*
X39558Y64175D02*
G03*
X39558Y64175I-203J0D01*
G01*
X39103Y63596D02*
G03*
X39103Y63596I-203J0D01*
G01*
X39978Y66710D02*
G03*
X39978Y66710I-203J0D01*
G01*
X40503Y66195D02*
G03*
X40503Y66195I-203J0D01*
G01*
X40128Y65830D02*
G03*
X40128Y65830I-203J0D01*
G01*
X39598Y66330D02*
G03*
X39598Y66330I-203J0D01*
G01*
X40368Y64810D02*
G03*
X40368Y64810I-203J0D01*
G01*
X39958Y64505D02*
G03*
X39958Y64505I-203J0D01*
G01*
X35788Y59130D02*
G03*
X35788Y59130I-203J0D01*
G01*
X50578Y62725D02*
G03*
X50578Y62725I-203J0D01*
G01*
X52053Y61800D02*
G03*
X52053Y61800I-203J0D01*
G01*
X52048Y62400D02*
G03*
X52048Y62400I-203J0D01*
G01*
X48728Y56400D02*
G03*
X48728Y56400I-203J0D01*
G01*
X51228Y57525D02*
G03*
X51228Y57525I-203J0D01*
G01*
X55853Y61025D02*
G03*
X55853Y61025I-203J0D01*
G01*
X55903Y62700D02*
G03*
X55903Y62700I-203J0D01*
G01*
X44678Y64675D02*
G03*
X44678Y64675I-203J0D01*
G01*
X49803Y64220D02*
G03*
X49803Y64220I-203J0D01*
G01*
X49773Y65070D02*
G03*
X49773Y65070I-203J0D01*
G01*
X50578Y64025D02*
G03*
X50578Y64025I-203J0D01*
G01*
X49803Y63644D02*
G03*
X49803Y63644I-203J0D01*
G01*
X49333Y62085D02*
G03*
X49333Y62085I-203J0D01*
G01*
X38373Y63200D02*
G03*
X38373Y63200I-203J0D01*
G01*
X8278Y78775D02*
G03*
X8278Y78775I-203J0D01*
G01*
X9203D02*
G03*
X9203Y78775I-203J0D01*
G01*
X13428Y78725D02*
G03*
X13428Y78725I-203J0D01*
G01*
X14403Y78725D02*
G03*
X14403Y78725I-203J0D01*
G01*
X28728Y62350D02*
G03*
X28728Y62350I-203J0D01*
G01*
X6378Y80075D02*
G03*
X6378Y80075I-203J0D01*
G01*
Y82175D02*
G03*
X6378Y82175I-203J0D01*
G01*
X6303Y83275D02*
G03*
X6303Y83275I-203J0D01*
G01*
X4453Y83801D02*
G03*
X4453Y83801I-203J0D01*
G01*
X12203Y83875D02*
G03*
X12203Y83875I-203J0D01*
G01*
X13053Y84475D02*
G03*
X13053Y84475I-203J0D01*
G01*
X13078Y83225D02*
G03*
X13078Y83225I-203J0D01*
G01*
X22328Y62350D02*
G03*
X22328Y62350I-203J0D01*
G01*
X22753Y78900D02*
G03*
X22753Y78900I-203J0D01*
G01*
Y81100D02*
G03*
X22753Y81100I-203J0D01*
G01*
Y83250D02*
G03*
X22753Y83250I-203J0D01*
G01*
X3953Y85750D02*
G03*
X3953Y85750I-203J0D01*
G01*
X7228Y97275D02*
G03*
X7228Y97275I-203J0D01*
G01*
X13078Y85650D02*
G03*
X13078Y85650I-203J0D01*
G01*
X28503Y88425D02*
G03*
X28503Y88425I-203J0D01*
G01*
X29928Y61075D02*
G03*
X29928Y61075I-203J0D01*
G01*
X31228D02*
G03*
X31228Y61075I-203J0D01*
G01*
Y62375D02*
G03*
X31228Y62375I-203J0D01*
G01*
X32528D02*
G03*
X32528Y62375I-203J0D01*
G01*
Y63675D02*
G03*
X32528Y63675I-203J0D01*
G01*
X33828Y62375D02*
G03*
X33828Y62375I-203J0D01*
G01*
X31228Y63675D02*
G03*
X31228Y63675I-203J0D01*
G01*
X29928Y64975D02*
G03*
X29928Y64975I-203J0D01*
G01*
X30828Y86400D02*
G03*
X30828Y86400I-203J0D01*
G01*
Y88475D02*
G03*
X30828Y88475I-203J0D01*
G01*
X33828Y63675D02*
G03*
X33828Y63675I-203J0D01*
G01*
X34278Y79450D02*
G03*
X34278Y79450I-203J0D01*
G01*
X35453Y71900D02*
G03*
X35453Y71900I-203J0D01*
G01*
X37253Y85650D02*
G03*
X37253Y85650I-203J0D01*
G01*
X21003Y62950D02*
G03*
X21003Y62950I-203J0D01*
G01*
X25093Y62940D02*
G03*
X25093Y62940I-203J0D01*
G01*
X28728Y61725D02*
G03*
X28728Y61725I-203J0D01*
G01*
X9278Y90650D02*
G03*
X9278Y90650I-203J0D01*
G01*
X9653Y90250D02*
G03*
X9653Y90250I-203J0D01*
G01*
X10103D02*
G03*
X10103Y90250I-203J0D01*
G01*
X21028Y54675D02*
G03*
X21028Y54675I-203J0D01*
G01*
X33103Y53125D02*
G03*
X33103Y53125I-203J0D01*
G01*
X34453Y59050D02*
G03*
X34453Y59050I-203J0D01*
G01*
X29928Y59775D02*
G03*
X29928Y59775I-203J0D01*
G01*
Y61725D02*
G03*
X29928Y61725I-203J0D01*
G01*
X30753Y89575D02*
G03*
X30753Y89575I-203J0D01*
G01*
X35203Y69700D02*
G03*
X35203Y69700I-203J0D01*
G01*
X23053Y61200D02*
G03*
X23053Y61200I-203J0D01*
G01*
X29928Y64325D02*
G03*
X29928Y64325I-203J0D01*
G01*
Y65625D02*
G03*
X29928Y65625I-203J0D01*
G01*
X32528Y61725D02*
G03*
X32528Y61725I-203J0D01*
G01*
X31228Y63025D02*
G03*
X31228Y63025I-203J0D01*
G01*
X32528D02*
G03*
X32528Y63025I-203J0D01*
G01*
X31228Y65625D02*
G03*
X31228Y65625I-203J0D01*
G01*
X32528D02*
G03*
X32528Y65625I-203J0D01*
G01*
X32703Y55700D02*
G03*
X32703Y55700I-203J0D01*
G01*
X33453Y69825D02*
G03*
X33453Y69825I-203J0D01*
G01*
X31778Y82875D02*
G03*
X31778Y82875I-203J0D01*
G01*
X30828Y86975D02*
G03*
X30828Y86975I-203J0D01*
G01*
X29928Y63675D02*
G03*
X29928Y63675I-203J0D01*
G01*
Y62375D02*
G03*
X29928Y62375I-203J0D01*
G01*
X33828Y63025D02*
G03*
X33828Y63025I-203J0D01*
G01*
Y61725D02*
G03*
X33828Y61725I-203J0D01*
G01*
X29928Y63025D02*
G03*
X29928Y63025I-203J0D01*
G01*
X32528Y64325D02*
G03*
X32528Y64325I-203J0D01*
G01*
X31228Y64975D02*
G03*
X31228Y64975I-203J0D01*
G01*
Y59775D02*
G03*
X31228Y59775I-203J0D01*
G01*
X29928Y60425D02*
G03*
X29928Y60425I-203J0D01*
G01*
X31228Y64325D02*
G03*
X31228Y64325I-203J0D01*
G01*
X32528Y59775D02*
G03*
X32528Y59775I-203J0D01*
G01*
Y60425D02*
G03*
X32528Y60425I-203J0D01*
G01*
Y61075D02*
G03*
X32528Y61075I-203J0D01*
G01*
X33828Y59775D02*
G03*
X33828Y59775I-203J0D01*
G01*
Y61075D02*
G03*
X33828Y61075I-203J0D01*
G01*
Y60425D02*
G03*
X33828Y60425I-203J0D01*
G01*
Y64325D02*
G03*
X33828Y64325I-203J0D01*
G01*
X33853Y65600D02*
G03*
X33853Y65600I-203J0D01*
G01*
X31228Y60425D02*
G03*
X31228Y60425I-203J0D01*
G01*
Y61725D02*
G03*
X31228Y61725I-203J0D01*
G01*
X32528Y64975D02*
G03*
X32528Y64975I-203J0D01*
G01*
X30828Y87500D02*
G03*
X30828Y87500I-203J0D01*
G01*
X30153Y85925D02*
G03*
X30153Y85925I-203J0D01*
G01*
X30903Y91450D02*
G03*
X30903Y91450I-203J0D01*
G01*
X28403Y89450D02*
G03*
X28403Y89450I-203J0D01*
G01*
X29428Y91475D02*
G03*
X29428Y91475I-203J0D01*
G01*
X34478Y65575D02*
G03*
X34478Y65575I-203J0D01*
G01*
X33453Y71900D02*
G03*
X33453Y71900I-203J0D01*
G01*
X13928Y78725D02*
G03*
X13928Y78725I-203J0D01*
G01*
Y83875D02*
G03*
X13928Y83875I-203J0D01*
G01*
Y85075D02*
G03*
X13928Y85075I-203J0D01*
G01*
X12203D02*
G03*
X12203Y85075I-203J0D01*
G01*
X8753Y78775D02*
G03*
X8753Y78775I-203J0D01*
G01*
X14803Y85650D02*
G03*
X14803Y85650I-203J0D01*
G01*
Y84475D02*
G03*
X14803Y84475I-203J0D01*
G01*
Y83225D02*
G03*
X14803Y83225I-203J0D01*
G01*
X11328D02*
G03*
X11328Y83225I-203J0D01*
G01*
Y84450D02*
G03*
X11328Y84450I-203J0D01*
G01*
X11353Y85650D02*
G03*
X11353Y85650I-203J0D01*
G01*
X17278Y88700D02*
G03*
X17278Y88700I-203J0D01*
G01*
X22203Y76775D02*
G03*
X22203Y76775I-203J0D01*
G01*
X4453Y90500D02*
G03*
X4453Y90500I-203J0D01*
G01*
X3453Y89500D02*
G03*
X3453Y89500I-203J0D01*
G01*
X2953Y81750D02*
G03*
X2953Y81750I-203J0D01*
G01*
X11828Y88450D02*
G03*
X11828Y88450I-203J0D01*
G01*
X19228Y78575D02*
G03*
X19228Y78575I-203J0D01*
G01*
X34278Y81125D02*
G03*
X34278Y81125I-203J0D01*
G01*
X29803Y83925D02*
G03*
X29803Y83925I-203J0D01*
G01*
X29503Y86950D02*
G03*
X29503Y86950I-203J0D01*
G01*
X29578Y80100D02*
G03*
X29578Y80100I-203J0D01*
G01*
X20528Y61200D02*
G03*
X20528Y61200I-203J0D01*
G01*
X32703Y53650D02*
G03*
X32703Y53650I-203J0D01*
G01*
X27953Y54675D02*
G03*
X27953Y54675I-203J0D01*
G01*
X22228Y53150D02*
G03*
X22228Y53150I-203J0D01*
G01*
X21491Y52800D02*
G03*
X21491Y52800I-203J0D01*
G01*
X21841Y52025D02*
G03*
X21841Y52025I-203J0D01*
G01*
X2378Y97475D02*
G03*
X2378Y97475I-203J0D01*
G01*
X1678Y92975D02*
G03*
X1678Y92975I-203J0D01*
G01*
X6928Y77000D02*
G03*
X6928Y77000I-203J0D01*
G01*
X7653Y89800D02*
G03*
X7653Y89800I-203J0D01*
G01*
X8578Y76450D02*
G03*
X8578Y76450I-203J0D01*
G01*
X8353Y93100D02*
G03*
X8353Y93100I-203J0D01*
G01*
X12303Y96500D02*
G03*
X12303Y96500I-203J0D01*
G01*
X6253Y93475D02*
G03*
X6253Y93475I-203J0D01*
G01*
X52678Y61400D02*
G03*
X52678Y61400I-203J0D01*
G01*
X49353Y57475D02*
G03*
X49353Y57475I-203J0D01*
G01*
X48128Y56350D02*
G03*
X48128Y56350I-203J0D01*
G01*
X36553Y53700D02*
G03*
X36553Y53700I-203J0D01*
G01*
X49753Y68775D02*
G03*
X49753Y68775I-203J0D01*
G01*
X29378Y52375D02*
G03*
X29378Y52375I-203J0D01*
G01*
M02*
