M48
;Layer_Color=9474304
;FILE_FORMAT=4:3
METRIC,LZ
;TYPE=PLATED
T2F00S00C0.200
T3F00S00C0.300
%
T02
X0021638Y0052025
X0021288Y00528
X0022025Y005315
X0020825Y0054675
X002775
X0029175Y0052375
X00329Y0053125
X00325Y005365
Y00557
X0035725Y0055625
X0035585Y005913
X0035285Y0059605
X003566Y005995
X003565Y0060935
X0035625Y006195
X0034925Y0061725
Y0062375
Y0063025
X00349Y0063675
Y0064325
X003565Y0064475
Y0064975
X00356Y0065945
X0034275Y0065575
X003365Y00656
X0033625Y0064325
Y0063675
Y0063025
Y0062375
Y0061725
Y0061075
Y0060425
Y0059775
X0032325
Y0060425
Y0061075
Y0061725
Y0062375
Y0063025
Y0063675
Y0064325
Y0064975
Y0065625
X0031025
Y0064975
Y0064325
Y0063675
Y0063025
Y0062375
Y0061725
Y0061075
Y0060425
Y0059775
X0029725
Y0060425
Y0061075
Y0061725
Y0062375
Y0063025
Y0063675
Y0064325
Y0064975
Y0065625
X0028525Y006235
Y0061725
X002489Y006294
X0022125Y006235
X002285Y00612
X0020325
X00208Y006295
X0035625
X003565Y006395
X0034925Y0060425
X003425Y005905
X0035Y00697
X003325Y0069825
Y00719
X003525
X0034075Y007945
Y0081125
X0031575Y0082875
X0029375Y00801
X002255Y00811
Y008325
Y00789
X0022Y0076775
X0019025Y0078575
X00142Y0078725
X0013725Y0078725
X0013225
X0009Y0078775
X000855
X0008075
X0008375Y007645
X0006725Y0077
X0006175Y0080075
Y0082175
X00061Y0083275
X000425Y0083801
X000275Y008175
X0011125Y0083225
X0012Y0083875
X0012875Y0083225
X0013725Y0083875
X00146Y0083225
X0036815Y007141
X0037715
X0039395Y006633
X0039775Y006671
X0039925Y006583
X00403Y0066195
X0040905Y006571
X0040915Y0065205
X0040165Y006481
X0039755Y0064505
X0039355Y0064175
X00397Y0063775
X00389Y0063596
X003817Y00632
X0038521Y0062821
X0039277Y00625
Y0061994
X003946Y005827
X003905Y00579
X0040055Y0057495
X003979Y0057035
X003938Y005661
Y005611
X0038425Y0056105
X0038145Y0056525
X003808Y0055735
X0037581Y0055294
X003825Y00549
X0038775
X0037045Y0055945
X0036225Y0055725
X003635Y00537
X0036175Y005305
X0043716Y0056794
X0044298Y0056989
X0044465Y005771
X004518Y0057525
X00451Y0058175
X0046475Y0058825
X0047125
X0047775
X0047775Y0058175
X0048425Y0058825
Y0059475
X0049065Y0059475
X0049725Y0059475
X0050375
X0050375Y0060125
Y0060775
X0049725
X0048425
Y0061425
Y0062725
X0047775
X0047125
X0046475
X0045775Y0062775
X0045025
X004445
X0044475Y0064675
X0044975Y0064675
X0045825Y0065325
X0046475
X0047125
Y0064675
X0046475
Y0065975
X0047125
X0047775Y0065325
X0049062Y0065975
X004906Y006662
X004886Y0067385
X0048125Y006745
X0047075Y0067325
X0045906Y0068628
X0044495Y006872
X0044492Y006923
X004895Y0068775
X004955
X0050375Y0066625
X0051025Y0066625
X0051675Y0065325
X00518Y006465
X0051675Y0064025
X0051025Y0064025
X0050375
X00496Y006422
Y0063644
X0049075Y0064025
X0048425
X004913Y0062725
Y0062085
X0050375Y0062075
Y0062725
X0051845Y00624
X005185Y00618
X0052475Y00614
X0051775Y0060775
X00517Y0060125
X0051675Y0059475
Y0058175
X0051025Y0057525
X0051025Y0058825
X004915Y0057475
X0048525Y00564
X0047925Y005635
X0048Y0055
X00485
X0050423Y0054387
X0047775Y0059475
X0047125Y006013
X004378Y0060085
Y0060585
X0042465Y005988
X004957Y006507
X0050375Y0065325
X0053125Y0066875
X0051875Y00701
X00557Y00627
X005565Y0061025
X003705Y008565
X00373Y00981
X0027375Y0098125
X00192Y009815
X0011075Y0098125
X00121Y00965
X0007025Y0097275
X000605Y0093475
X000815Y00931
X0009075Y009065
X000945Y009025
X00099
X000745Y00898
X000425Y00905
X000325Y00895
X000375Y008575
X001115Y008565
X0011125Y008445
X0012Y0085075
X0012875Y008565
X001285Y0084475
X0013725Y0085075
X00146Y008565
Y0084475
X0017075Y00887
X0011625Y008845
X0001475Y0092975
X0002175Y0097475
X0029225Y0091475
X00307Y009145
X003055Y0089575
X0030625Y0088475
Y00875
Y0086975
Y00864
X002995Y0085925
X00293Y008695
X00283Y0088425
X00282Y008945
X00296Y0083925
T03
X0044125Y0004175
X00644Y0001425
X008275Y0004725
X0082625Y0027975
X0056575Y0026425
X0064975Y0038475
X00407Y003375
X0017Y003435
X0026125Y002315
X0025625Y000665
X00031Y000515
X000365Y002655
X0004575Y00437
X0005675Y00528
X0006175Y0061075
X0006475Y006775
X0014325Y0068325
X0014225Y0064
X0016475Y00653
X00166Y005905
X001645Y0074625
X0017225Y0074475
X0011575Y00749
X00109
X00102
X00083Y008025
X000755Y00816
X000535Y008315
X0004725
X000275Y0073425
X0019475Y00794
X0018575Y008145
Y008225
Y0083125
X001935Y0083575
X00255Y0082925
X0026075Y00443
X0015375Y00445
X0045275Y0044275
X0047597Y0052681
X0040452Y0052475
X00556Y00548
X0065025Y0052625
X006495Y0061125
Y006955
X006105Y0073575
X0061125Y0080775
X0051775Y0080925
X00495Y008075
X004275Y00815
X0044Y007305
X00402Y0072875
X00518Y0073225
X0072725Y007305
X00721Y008385
X00754Y0061125
Y005205
X0088Y00575
Y006475
Y00715
X007715Y0069525
X00817Y0083375
X0081725Y00919
X00778Y009445
X0077175Y010345
X007695Y011225
X0064125Y0112025
X00642Y0103525
X006415Y0094525
X006495Y0086775
X00472Y0088225
X0043Y0087
X00404Y00949
X00406Y01036
X0040675Y0111425
X005115Y011195
X0051225Y0103675
X0051075Y009465
X003165Y009645
X002475Y0096475
X0018575Y009175
Y009105
X00186Y009035
X001865Y0087025
X001695Y0085575
X000895Y00861
X000905Y00871
X000765Y008475
X00043Y0085175
X0005075Y008865
X0006075Y0088575
Y00892
Y0089825
X0003525Y0090275
X001185Y00899
X001255
X0012255Y009164
X0007775Y0104275
X000965Y01105
X0003875Y01157
X00268Y0115375
X002125Y0104175
M30
