G04 Layer_Physical_Order=1*
G04 Layer_Color=255*
%FSLAX43Y43*%
%MOMM*%
G71*
G01*
G75*
%ADD10R,0.510X0.560*%
%ADD11R,0.510X0.700*%
%ADD12C,0.300*%
%ADD13R,0.700X0.510*%
%ADD14R,0.560X0.510*%
%ADD15R,0.800X0.200*%
%ADD16R,0.200X0.800*%
%ADD17R,4.600X3.600*%
%ADD18R,2.000X0.800*%
%ADD19R,0.800X2.000*%
%ADD20R,0.890X0.640*%
%ADD21R,0.640X0.890*%
%ADD22R,0.750X1.000*%
%ADD23C,0.230*%
%ADD24C,0.120*%
%ADD25C,0.200*%
%ADD26C,0.175*%
%ADD27C,0.100*%
%ADD28C,0.090*%
%ADD29C,0.150*%
%ADD30C,0.300*%
%ADD31C,0.400*%
%ADD32C,0.500*%
%ADD33C,0.127*%
%ADD34C,0.130*%
%ADD35C,0.450*%
%ADD36C,0.600*%
%ADD37C,0.250*%
%ADD38C,0.700*%
%ADD39C,0.600*%
%ADD40C,0.400*%
%ADD41C,0.250*%
G36*
X88592Y65100D02*
X88592Y65000D01*
X88392Y65000D01*
X88388Y65000D01*
X86455Y65000D01*
X55300Y65000D01*
Y71325D01*
X38075Y71325D01*
X35512Y68762D01*
X35412Y68780D01*
Y69208D01*
X35465Y69260D01*
X35512Y69375D01*
Y69945D01*
X35558Y70041D01*
X35575Y70055D01*
X35607Y70068D01*
X35638Y70145D01*
Y70655D01*
X35607Y70732D01*
X35530Y70763D01*
X34970D01*
X34893Y70732D01*
X34862Y70655D01*
Y70145D01*
X34887Y70085D01*
X34885Y70038D01*
X34866Y69971D01*
X34784Y69916D01*
X34717Y69817D01*
X34694Y69700D01*
X34717Y69583D01*
X34784Y69484D01*
X34843Y69444D01*
Y68750D01*
X34000D01*
X33750Y69000D01*
Y72000D01*
X34250Y72500D01*
Y85000D01*
X33780Y85470D01*
X33818Y85563D01*
X35162D01*
Y85445D01*
X35193Y85368D01*
X35270Y85337D01*
X35363D01*
Y85178D01*
X35280D01*
X35203Y85147D01*
X35172Y85070D01*
Y84180D01*
X35203Y84103D01*
X35280Y84072D01*
X35920D01*
X35997Y84103D01*
X36028Y84180D01*
Y85070D01*
X35997Y85147D01*
X35920Y85178D01*
X35687D01*
Y85337D01*
X35780D01*
X35857Y85368D01*
X35888Y85445D01*
Y86005D01*
X35857Y86082D01*
X35780Y86113D01*
X35270D01*
X35193Y86082D01*
X35162Y86005D01*
Y85887D01*
X33363D01*
X32750Y86500D01*
Y88568D01*
X35117D01*
Y88470D01*
X35148Y88393D01*
X35225Y88362D01*
X35925D01*
X36002Y88393D01*
X36033Y88470D01*
Y88980D01*
X36002Y89057D01*
X35925Y89088D01*
X35225D01*
X35148Y89057D01*
X35117Y88980D01*
Y88882D01*
X32750D01*
Y89044D01*
X32773Y89048D01*
X32835Y89090D01*
X33179Y89434D01*
X35117D01*
Y89370D01*
X35148Y89293D01*
X35225Y89262D01*
X35925D01*
X36002Y89293D01*
X36033Y89370D01*
Y89880D01*
X36002Y89957D01*
X35925Y89988D01*
X35225D01*
X35148Y89957D01*
X35117Y89880D01*
Y89816D01*
X33100D01*
X33027Y89802D01*
X32965Y89760D01*
X32842Y89638D01*
X32750Y89676D01*
Y91500D01*
X32500Y91750D01*
X25250D01*
X25000Y91500D01*
Y83750D01*
X28250D01*
X28250Y70250D01*
X29250Y69250D01*
Y68750D01*
X25750D01*
X25500Y68500D01*
Y63097D01*
X25146D01*
X25106Y63156D01*
X25007Y63223D01*
X24890Y63246D01*
X24773Y63223D01*
X24674Y63156D01*
X24607Y63057D01*
X24584Y62940D01*
X24607Y62823D01*
X24674Y62724D01*
X24773Y62657D01*
X24890Y62634D01*
X25007Y62657D01*
X25106Y62724D01*
X25146Y62783D01*
X25500D01*
Y61357D01*
X23106D01*
X23066Y61416D01*
X22967Y61483D01*
X22850Y61506D01*
X22733Y61483D01*
X22634Y61416D01*
X22567Y61317D01*
X22544Y61200D01*
X22567Y61083D01*
X22634Y60984D01*
X22733Y60917D01*
X22850Y60894D01*
X22967Y60917D01*
X23066Y60984D01*
X23106Y61043D01*
X25500D01*
Y56750D01*
X25775Y56475D01*
X27593D01*
Y54931D01*
X27534Y54891D01*
X27467Y54792D01*
X27444Y54675D01*
X27467Y54558D01*
X27534Y54459D01*
X27633Y54392D01*
X27750Y54369D01*
X27867Y54392D01*
X27966Y54459D01*
X28033Y54558D01*
X28056Y54675D01*
X28033Y54792D01*
X27966Y54891D01*
X27907Y54931D01*
Y56475D01*
X32922D01*
X32961Y56383D01*
X32570Y55992D01*
X32500Y56006D01*
X32383Y55983D01*
X32284Y55916D01*
X32217Y55817D01*
X32194Y55700D01*
X32212Y55610D01*
X32215Y55578D01*
X32160Y55488D01*
X32143Y55482D01*
X32112Y55405D01*
Y54895D01*
X32143Y54818D01*
X32220Y54787D01*
X32780D01*
X32857Y54818D01*
X32858Y54823D01*
X32967D01*
X32968Y54818D01*
X33045Y54787D01*
X33605D01*
X33682Y54818D01*
X33713Y54895D01*
Y55405D01*
X33682Y55482D01*
X33605Y55513D01*
X33490D01*
X33485Y55613D01*
X33611Y55739D01*
X33657Y55850D01*
Y56475D01*
X35225D01*
X35250Y56500D01*
X35593Y56157D01*
Y55898D01*
X35509Y55841D01*
X35442Y55742D01*
X35419Y55625D01*
X35442Y55508D01*
X35509Y55409D01*
X35608Y55342D01*
X35725Y55319D01*
X35842Y55342D01*
X35862Y55356D01*
X35962Y55302D01*
Y54895D01*
X35993Y54818D01*
X36070Y54787D01*
X36630D01*
X36707Y54818D01*
X36731Y54878D01*
X36831Y54919D01*
X37800Y53950D01*
X38605D01*
X38618Y53918D01*
X38695Y53887D01*
X39205D01*
X39282Y53918D01*
X39295Y53950D01*
X55300Y53950D01*
X55300Y64999D01*
X86455Y65000D01*
X88292Y65000D01*
X88488Y65000D01*
X88492Y65000D01*
X88592D01*
Y408D01*
X408D01*
Y119592D01*
X88592D01*
Y65100D01*
D02*
G37*
%LPC*%
G36*
X37080Y72388D02*
X36570D01*
X36493Y72357D01*
X36462Y72280D01*
Y71720D01*
X36493Y71643D01*
X36533Y71527D01*
X36509Y71410D01*
X36533Y71293D01*
X36599Y71194D01*
X36698Y71127D01*
X36815Y71104D01*
X36932Y71127D01*
X37031Y71194D01*
X37098Y71293D01*
X37121Y71410D01*
X37098Y71527D01*
X37144Y71638D01*
X37157Y71643D01*
X37188Y71720D01*
Y72280D01*
X37157Y72357D01*
X37080Y72388D01*
D02*
G37*
G36*
X10625Y78258D02*
X10548Y78227D01*
X10517Y78150D01*
X10517Y75945D01*
X10405Y75833D01*
X9725Y75833D01*
X9725Y75833D01*
X9648Y75802D01*
X9644Y75790D01*
X9617Y75725D01*
X9617Y74675D01*
X9617Y74675D01*
X9648Y74598D01*
X9648Y74598D01*
X9773Y74473D01*
X9850Y74442D01*
X11750D01*
X11750Y74442D01*
X11827Y74473D01*
X11827Y74473D01*
X12802Y75448D01*
X12833Y75525D01*
X12833Y78150D01*
X12802Y78227D01*
X12802Y78227D01*
X12725Y78258D01*
X10625Y78258D01*
D02*
G37*
G36*
X17250Y78208D02*
X14550D01*
X14473Y78177D01*
X14442Y78100D01*
Y75950D01*
X14473Y75873D01*
X14550Y75842D01*
X15992D01*
Y74500D01*
X16023Y74423D01*
X16023Y74423D01*
X16523Y73923D01*
X16600Y73892D01*
X17525D01*
X17525Y73892D01*
X17602Y73923D01*
X17602Y73923D01*
X17952Y74273D01*
X17983Y74350D01*
Y77475D01*
X17983Y77475D01*
X17952Y77552D01*
X17952Y77552D01*
X17327Y78177D01*
X17250Y78208D01*
D02*
G37*
G36*
X36175Y53356D02*
X36058Y53333D01*
X35959Y53266D01*
X35892Y53167D01*
X35869Y53050D01*
X35892Y52933D01*
X35959Y52834D01*
X36058Y52767D01*
X36175Y52744D01*
X36292Y52767D01*
X36391Y52834D01*
X36458Y52933D01*
X36481Y53050D01*
X36458Y53167D01*
X36391Y53266D01*
X36292Y53333D01*
X36175Y53356D01*
D02*
G37*
G36*
X8050Y96458D02*
X7300D01*
X7223Y96427D01*
X7192Y96350D01*
Y96012D01*
X3708D01*
Y96350D01*
X3677Y96427D01*
X3600Y96458D01*
X2850D01*
X2773Y96427D01*
X2742Y96350D01*
Y96012D01*
X2563D01*
Y96305D01*
X2532Y96382D01*
X2455Y96413D01*
X1895D01*
X1818Y96382D01*
X1787Y96305D01*
Y95916D01*
X985Y95115D01*
X938Y95000D01*
Y87250D01*
X985Y87135D01*
X3560Y84560D01*
X3675Y84513D01*
X6508D01*
X6835Y84185D01*
X6950Y84138D01*
X7925D01*
X8040Y84185D01*
X8367Y84513D01*
X9354D01*
X9407Y84413D01*
X9392Y84375D01*
Y84175D01*
X9323Y84079D01*
X8920D01*
X8873Y84110D01*
X8775Y84130D01*
X8250D01*
X8152Y84110D01*
X8070Y84055D01*
X7728Y83713D01*
X7445D01*
X7368Y83682D01*
X7337Y83605D01*
Y83199D01*
X7208Y83071D01*
X5862D01*
X5752Y83181D01*
X5727Y83306D01*
X5638Y83438D01*
X5506Y83527D01*
X5350Y83558D01*
X5194Y83527D01*
X5088Y83456D01*
X4987D01*
X4881Y83527D01*
X4725Y83558D01*
X4569Y83527D01*
X4437Y83438D01*
X4348Y83306D01*
X4317Y83150D01*
X4348Y82994D01*
X4437Y82862D01*
X4569Y82773D01*
X4725Y82742D01*
X4881Y82773D01*
X4987Y82844D01*
X5088D01*
X5194Y82773D01*
X5319Y82748D01*
X5519Y82549D01*
X5519Y82549D01*
X5618Y82482D01*
X5735Y82459D01*
X7244D01*
X7335Y82455D01*
X7337Y82365D01*
Y82244D01*
X7334Y82241D01*
X7267Y82142D01*
X7244Y82025D01*
X7244Y82025D01*
Y81862D01*
X7173Y81756D01*
X7142Y81600D01*
X7173Y81444D01*
X7262Y81312D01*
X7394Y81223D01*
X7550Y81192D01*
X7706Y81223D01*
X7838Y81312D01*
X7927Y81444D01*
X7958Y81600D01*
X7941Y81687D01*
X7953Y81773D01*
X8010Y81810D01*
X8032Y81818D01*
X8063Y81895D01*
Y82178D01*
X8455Y82570D01*
X8510Y82652D01*
X8530Y82750D01*
Y82767D01*
X8730Y82968D01*
X8745Y82989D01*
X8976Y83220D01*
X9075D01*
X9173Y83240D01*
X9220Y83271D01*
X9323D01*
X9392Y83175D01*
Y82975D01*
X9423Y82898D01*
X9423Y82852D01*
X9392Y82775D01*
Y82601D01*
X9389Y82598D01*
X9389Y82597D01*
X8419Y81626D01*
X8352Y81527D01*
X8329Y81410D01*
X8329Y81410D01*
Y80937D01*
X7856Y80463D01*
X7445D01*
X7368Y80432D01*
X7337Y80355D01*
Y79795D01*
X7368Y79718D01*
X7445Y79687D01*
X7955D01*
X8032Y79718D01*
X8063Y79795D01*
Y79821D01*
X8142Y79874D01*
X8144Y79873D01*
X8300Y79842D01*
X8456Y79873D01*
X8588Y79962D01*
X8677Y80094D01*
X8708Y80250D01*
X8677Y80406D01*
X8672Y80414D01*
X8851Y80594D01*
X8851Y80594D01*
X8918Y80693D01*
X8941Y80810D01*
X8941Y80810D01*
Y81283D01*
X9941Y82284D01*
X9950Y82297D01*
X9978Y82302D01*
X10044Y82346D01*
X10088Y82413D01*
X10099Y82467D01*
X10300D01*
X10361Y82492D01*
X10447Y82439D01*
X10442Y82425D01*
X10442Y81625D01*
X10473Y81548D01*
X10550Y81517D01*
X10691D01*
X10731Y81417D01*
X9676Y80416D01*
X9675Y80415D01*
X9673Y80414D01*
X9658Y80377D01*
X9642Y80341D01*
X9642Y80339D01*
X9642Y80338D01*
X9642Y79929D01*
X9571Y79858D01*
X9438Y79858D01*
X9401Y79843D01*
X9363Y79828D01*
X9100Y79578D01*
X9100Y79577D01*
X9098Y79577D01*
X8780Y79258D01*
X7900Y79258D01*
X7823Y79227D01*
X7823Y79227D01*
X7698Y79102D01*
X7698Y79102D01*
X7698Y79102D01*
X7667Y79025D01*
X7667Y78650D01*
X7667Y78650D01*
X7667Y78650D01*
X7684Y78609D01*
X7698Y78573D01*
X7698Y78573D01*
X7698Y78573D01*
X7873Y78398D01*
X7873Y78398D01*
X7873Y78398D01*
X7950Y78367D01*
X10500Y78367D01*
X10577Y78398D01*
X10608Y78475D01*
Y78986D01*
X10625Y79007D01*
X10708Y79067D01*
X12675Y79067D01*
X12675Y79067D01*
X12752Y79098D01*
X12794Y79114D01*
X12892Y79053D01*
X12892Y78550D01*
X12892Y78550D01*
X12892Y78550D01*
X12909Y78508D01*
X12923Y78473D01*
X12923Y78473D01*
X12923Y78473D01*
X12998Y78398D01*
X13038Y78382D01*
X13075Y78367D01*
X14325Y78367D01*
X14402Y78398D01*
X14402Y78398D01*
X14502Y78498D01*
X14502Y78498D01*
X14522Y78549D01*
X14533Y78575D01*
X14533Y78976D01*
X14574Y79065D01*
X14575Y79067D01*
X15125Y79067D01*
X16575Y79067D01*
X16575Y79067D01*
X16575Y79067D01*
X16575D01*
X16608Y79081D01*
X16652Y79098D01*
X16702Y79148D01*
X16702Y79148D01*
X16702Y79148D01*
X16717Y79187D01*
X16733Y79225D01*
X16733Y79225D01*
X16733Y79225D01*
X16733Y80496D01*
X16833Y80537D01*
X18732Y78639D01*
X18719Y78575D01*
X18742Y78458D01*
X18809Y78359D01*
X18908Y78292D01*
X19025Y78269D01*
X19142Y78292D01*
X19241Y78359D01*
X19308Y78458D01*
X19331Y78575D01*
X19308Y78692D01*
X19241Y78791D01*
X19142Y78858D01*
X19025Y78881D01*
X18961Y78868D01*
X17284Y80546D01*
X17325Y80646D01*
X19167D01*
Y80595D01*
X19198Y80518D01*
X19275Y80487D01*
X19975D01*
X20038Y80445D01*
Y65042D01*
X19610Y64615D01*
X19563Y64500D01*
Y55775D01*
X19610Y55660D01*
X20532Y54739D01*
X20519Y54675D01*
X20542Y54558D01*
X20609Y54459D01*
X20708Y54392D01*
X20825Y54369D01*
X20942Y54392D01*
X21025Y54448D01*
X21086Y54430D01*
X21125Y54404D01*
Y53052D01*
X21071Y53016D01*
X21005Y52917D01*
X20982Y52800D01*
X21005Y52683D01*
X21071Y52584D01*
X21170Y52517D01*
X21288Y52494D01*
X21375Y52512D01*
X21475Y52453D01*
Y52277D01*
X21421Y52241D01*
X21355Y52142D01*
X21332Y52025D01*
X21355Y51908D01*
X21421Y51809D01*
X21520Y51742D01*
X21638Y51719D01*
X21755Y51742D01*
X21854Y51809D01*
X21920Y51908D01*
X21943Y52025D01*
X21920Y52142D01*
X21854Y52241D01*
X21800Y52277D01*
Y88412D01*
X21752Y88527D01*
X20925Y89355D01*
X20810Y89402D01*
X19600D01*
X19485Y89355D01*
X19294Y89163D01*
X18675D01*
X18598Y89132D01*
X18570Y89062D01*
X18150D01*
X18035Y89015D01*
X17337Y88317D01*
X17245Y88355D01*
X17242Y88451D01*
X17291Y88484D01*
X17358Y88583D01*
X17381Y88700D01*
X17358Y88817D01*
X17291Y88916D01*
X17192Y88983D01*
X17075Y89006D01*
X16958Y88983D01*
X16859Y88916D01*
X16792Y88817D01*
X16769Y88700D01*
X16792Y88583D01*
X16859Y88484D01*
X16913Y88448D01*
Y88317D01*
X16833Y88237D01*
X16183D01*
Y90225D01*
X16152Y90302D01*
X16116Y90316D01*
X16136Y90416D01*
X17392D01*
X17392Y89950D01*
X17392Y89950D01*
X17423Y89873D01*
X17424Y89873D01*
X17598Y89698D01*
X17636Y89683D01*
X17675Y89667D01*
X18900Y89667D01*
X18900Y89667D01*
X18977Y89698D01*
X18977Y89698D01*
X19127Y89848D01*
X19158Y89925D01*
Y91825D01*
X19158Y91825D01*
X19127Y91902D01*
X19127Y91902D01*
X18825Y92203D01*
X18748Y92235D01*
X18063D01*
X18063Y92235D01*
X17987Y92203D01*
X17987Y92203D01*
X17423Y91640D01*
X17392Y91564D01*
X17392Y91405D01*
X17321Y91334D01*
X16053D01*
Y91595D01*
X16022Y91672D01*
X15945Y91703D01*
X15305D01*
X15228Y91672D01*
X15197Y91595D01*
Y90705D01*
X15228Y90628D01*
X15243Y90622D01*
Y90320D01*
X15198Y90302D01*
X15167Y90225D01*
Y88237D01*
X14446D01*
X14407Y88337D01*
X14433Y88400D01*
Y90350D01*
X14402Y90427D01*
X14402Y90427D01*
X14227Y90602D01*
X14150Y90633D01*
X13250D01*
X13250Y90633D01*
X13173Y90602D01*
X13023Y90452D01*
X12992Y90375D01*
X12928Y90332D01*
X12925Y90333D01*
X12703D01*
X12695Y90330D01*
X11805D01*
X11797Y90333D01*
X11675D01*
X11598Y90302D01*
X11423Y90127D01*
X11392Y90050D01*
Y89517D01*
X11299Y89479D01*
X11252Y89527D01*
X11175Y89558D01*
X9200D01*
X9200Y89558D01*
X9123Y89527D01*
X9123Y89527D01*
X9023Y89427D01*
X8992Y89350D01*
Y89005D01*
X8899Y88969D01*
X8754Y89124D01*
X8752Y89125D01*
X8752Y89127D01*
X8715Y89142D01*
X8679Y89158D01*
X8677Y89157D01*
X8675Y89158D01*
X7626D01*
X6583Y90002D01*
Y90150D01*
X6552Y90227D01*
X6475Y90258D01*
X5700Y90258D01*
X5623Y90227D01*
X5592Y90150D01*
X5592Y88458D01*
X5623Y88381D01*
X5623Y88381D01*
X5806Y88198D01*
X5883Y88167D01*
X7722Y88167D01*
X7792Y88075D01*
Y87175D01*
X7792Y87175D01*
X7823Y87098D01*
X7846Y87076D01*
X7833Y86974D01*
X7828Y86964D01*
X7798Y86952D01*
X7798Y86952D01*
X7623Y86777D01*
X7592Y86700D01*
Y85950D01*
X7592Y85950D01*
X7597Y85938D01*
X7530Y85838D01*
X7395D01*
X7318Y85807D01*
X7287Y85730D01*
Y85170D01*
X7318Y85093D01*
X7324Y84983D01*
X7273Y84906D01*
X7242Y84750D01*
X7273Y84594D01*
X7302Y84551D01*
X7255Y84462D01*
X7017D01*
X6690Y84790D01*
X6575Y84837D01*
X3742D01*
X1262Y87317D01*
Y94933D01*
X2016Y95687D01*
X2455D01*
X2457Y95688D01*
X2742D01*
Y95350D01*
X2773Y95273D01*
X2850Y95242D01*
X3600D01*
X3677Y95273D01*
X3708Y95350D01*
Y95688D01*
X7192D01*
Y95350D01*
X7223Y95273D01*
X7300Y95242D01*
X8050D01*
X8127Y95273D01*
X8158Y95350D01*
Y96350D01*
X8127Y96427D01*
X8050Y96458D01*
D02*
G37*
G36*
X8200Y91858D02*
X8123Y91827D01*
X7898Y91602D01*
X7867Y91525D01*
Y90528D01*
X7898Y90452D01*
X7975Y90420D01*
X8673D01*
X8689Y90414D01*
X8695Y90398D01*
Y90025D01*
X8714Y89980D01*
X8727Y89948D01*
X8803Y89917D01*
X8803Y89917D01*
X9525Y89917D01*
X10800Y89917D01*
X10800Y89917D01*
X10800Y89917D01*
X10839Y89933D01*
X10876Y89948D01*
X10876Y89948D01*
X10876Y89948D01*
X11377Y90448D01*
X11408Y90525D01*
X11408Y91300D01*
X11377Y91377D01*
X10927Y91827D01*
X10850Y91858D01*
X8200D01*
X8200Y91858D01*
D02*
G37*
G36*
X32900Y53431D02*
X32783Y53408D01*
X32684Y53341D01*
X32617Y53242D01*
X32594Y53125D01*
X32617Y53008D01*
X32684Y52909D01*
X32783Y52842D01*
X32900Y52819D01*
X33017Y52842D01*
X33116Y52909D01*
X33183Y53008D01*
X33206Y53125D01*
X33183Y53242D01*
X33116Y53341D01*
X33017Y53408D01*
X32900Y53431D01*
D02*
G37*
%LPD*%
G36*
X12725Y78150D02*
X12725Y75525D01*
X11750Y74550D01*
X9850D01*
X9725Y74675D01*
X9725Y75725D01*
X10450Y75725D01*
X10625Y75900D01*
X10625Y78150D01*
X12725Y78150D01*
D02*
G37*
G36*
X17875Y77475D02*
Y74350D01*
X17525Y74000D01*
X16600D01*
X16100Y74500D01*
Y75950D01*
X14550D01*
Y78100D01*
X17250D01*
X17875Y77475D01*
D02*
G37*
G36*
X11575Y81575D02*
Y81300D01*
X12725Y80153D01*
X12725Y79225D01*
X12675Y79175D01*
X10675Y79175D01*
X10625Y79225D01*
X10625Y79975D01*
X11325Y80675D01*
Y81575D01*
X11350Y81600D01*
Y81600D01*
X11550D01*
X11575Y81575D01*
D02*
G37*
G36*
X13175Y81575D02*
X13175Y81425D01*
X13239Y81361D01*
X13288Y81288D01*
X13361Y81239D01*
X13375Y81225D01*
X13428D01*
X13450Y81221D01*
X13472Y81225D01*
X13775Y81225D01*
X14400Y80600D01*
X16575Y80600D01*
X16625Y80550D01*
X16625Y79225D01*
X16575Y79175D01*
X15125Y79175D01*
X14575Y79175D01*
X14525Y79225D01*
X14525Y79750D01*
X12925Y81350D01*
X12925Y81575D01*
X12950Y81600D01*
X13150D01*
X13175Y81575D01*
D02*
G37*
G36*
X12775Y81575D02*
X12775Y81293D01*
X14417Y79665D01*
X14417Y79225D01*
X14417Y79225D01*
X14417Y79225D01*
X14425Y79205D01*
X14425Y78575D01*
X14325Y78475D01*
X13075Y78475D01*
X13000Y78550D01*
X13000Y80075D01*
X12525Y80550D01*
X12525Y81575D01*
X12550Y81600D01*
X12750Y81600D01*
X12775Y81575D01*
D02*
G37*
G36*
X11175D02*
X11175Y80725D01*
X10500Y80050D01*
Y78475D01*
X7950Y78475D01*
X7775Y78650D01*
X7775Y79025D01*
X7900Y79150D01*
X8825Y79150D01*
X9175Y79500D01*
X9438Y79750D01*
X9701Y79750D01*
X9750Y79801D01*
X9750Y80338D01*
X10925Y81451D01*
Y81575D01*
X10950Y81600D01*
X11150D01*
X11175Y81575D01*
D02*
G37*
G36*
X11325Y89300D02*
Y88480D01*
X11319Y88450D01*
X11325Y88420D01*
Y88037D01*
X11288Y88012D01*
X11238Y87938D01*
X11221Y87850D01*
X11238Y87762D01*
X11246Y87750D01*
Y87642D01*
X11150Y87450D01*
Y87375D01*
X10950D01*
Y87450D01*
X9950Y88450D01*
X9225D01*
X9100Y88575D01*
Y89350D01*
X9200Y89450D01*
X11175D01*
X11325Y89300D01*
D02*
G37*
G36*
X14325Y90350D02*
Y88400D01*
X14050Y88125D01*
X13300D01*
X12750Y87575D01*
Y87100D01*
X12550D01*
Y88425D01*
X13100Y88975D01*
Y90375D01*
X13250Y90525D01*
X14150D01*
X14325Y90350D01*
D02*
G37*
G36*
X19050Y91825D02*
Y89925D01*
X18900Y89775D01*
X17675Y89775D01*
X17500Y89950D01*
X17500Y91564D01*
X18063Y92127D01*
X18748D01*
X19050Y91825D01*
D02*
G37*
G36*
X12992Y90158D02*
Y89042D01*
X12350Y88400D01*
Y88125D01*
X12150D01*
Y88450D01*
X11500Y89100D01*
Y90050D01*
X11675Y90225D01*
X11797D01*
X11805Y90222D01*
X12695D01*
X12703Y90225D01*
X12925D01*
X12992Y90158D01*
D02*
G37*
G36*
X9075Y86450D02*
X9421Y86104D01*
X9423Y86098D01*
X9429Y86096D01*
X9550Y85975D01*
X9700D01*
Y85775D01*
X7995D01*
X7982Y85807D01*
X7905Y85838D01*
X7812D01*
X7700Y85950D01*
Y86700D01*
X7875Y86875D01*
X8650Y86875D01*
X9075Y86450D01*
D02*
G37*
G36*
X20038Y85008D02*
Y82155D01*
X19975Y82113D01*
X19275D01*
X19198Y82082D01*
X19167Y82005D01*
Y81705D01*
X18886D01*
X18863Y81738D01*
X18731Y81827D01*
X18575Y81858D01*
X18419Y81827D01*
X18351Y81781D01*
X17514D01*
X17031Y82264D01*
Y82468D01*
X17032Y82468D01*
X17063Y82545D01*
Y83105D01*
X17058Y83119D01*
X17124Y83219D01*
X17940D01*
X18215Y82944D01*
X18287Y82837D01*
X18419Y82748D01*
X18575Y82717D01*
X18731Y82748D01*
X18863Y82837D01*
X18952Y82969D01*
X18983Y83125D01*
X18972Y83179D01*
X19043Y83250D01*
X19075Y83244D01*
X19126D01*
X19194Y83198D01*
X19350Y83167D01*
X19506Y83198D01*
X19638Y83287D01*
X19727Y83419D01*
X19758Y83575D01*
X19727Y83731D01*
X19638Y83863D01*
X19506Y83952D01*
X19350Y83983D01*
X19194Y83952D01*
X19178Y83941D01*
X18859Y84259D01*
X18752Y84331D01*
X18625Y84356D01*
X18546D01*
X18351Y84551D01*
X18351Y84551D01*
X18293Y84609D01*
X18293Y84609D01*
X18138Y84764D01*
Y85005D01*
X18107Y85082D01*
X18093Y85087D01*
Y85196D01*
X18115Y85205D01*
X18147Y85282D01*
Y85842D01*
X18161Y85863D01*
X19183D01*
X20038Y85008D01*
D02*
G37*
G36*
X10300Y86450D02*
Y86175D01*
X9500D01*
X9498Y86180D01*
X9152Y86527D01*
X9152Y86527D01*
X8727Y86952D01*
X8727D01*
X8727Y86952D01*
X8679Y86971D01*
X8525Y87125D01*
X7950D01*
X7900Y87175D01*
Y88075D01*
X7975Y88150D01*
X8600D01*
X10300Y86450D01*
D02*
G37*
G36*
X6475Y89950D02*
X7588Y89050D01*
X8675D01*
X8992Y88710D01*
Y88575D01*
X9023Y88498D01*
X9023Y88498D01*
X9148Y88373D01*
X9225Y88342D01*
X9334D01*
X9350Y88325D01*
X9875D01*
X10750Y87450D01*
X10750Y86525D01*
X10377Y86525D01*
X10377Y86527D01*
X8677Y88227D01*
X8629Y88246D01*
X8600Y88275D01*
X5883Y88275D01*
X5700Y88458D01*
X5700Y90150D01*
X6475Y90150D01*
Y89950D01*
D02*
G37*
G36*
X11625Y88144D02*
X11688Y88093D01*
Y87407D01*
X11673Y87402D01*
X11642Y87325D01*
Y86525D01*
X11673Y86448D01*
X11750Y86417D01*
X11950D01*
X11974Y86427D01*
X12050Y86443D01*
X12126Y86427D01*
X12150Y86417D01*
X12350D01*
X12374Y86427D01*
X12450Y86443D01*
X12526Y86427D01*
X12550Y86417D01*
X12750D01*
X12827Y86448D01*
X12858Y86525D01*
Y87325D01*
X12858Y87325D01*
Y87530D01*
X13345Y88017D01*
X13869D01*
X13908Y87924D01*
X13417Y87433D01*
X13350D01*
X13273Y87402D01*
X13242Y87325D01*
Y86525D01*
X13273Y86448D01*
X13350Y86417D01*
X13550D01*
X13574Y86427D01*
X13650Y86443D01*
X13726Y86427D01*
X13750Y86417D01*
X13950D01*
X13974Y86427D01*
X14050Y86443D01*
X14126Y86427D01*
X14150Y86417D01*
X14350D01*
X14374Y86427D01*
X14450Y86443D01*
X14526Y86427D01*
X14550Y86417D01*
X14750D01*
X14774Y86427D01*
X14850Y86443D01*
X14926Y86427D01*
X14950Y86417D01*
X15150D01*
X15211Y86442D01*
X15297Y86389D01*
X15292Y86375D01*
Y86175D01*
X15323Y86098D01*
X15323Y86052D01*
X15292Y85975D01*
Y85775D01*
X15323Y85698D01*
X15323Y85652D01*
X15292Y85575D01*
Y85375D01*
X15323Y85298D01*
X15400Y85267D01*
X16200D01*
X16210Y85271D01*
X16685D01*
X16794Y85198D01*
X16900Y85177D01*
X16934Y85070D01*
X16743Y84879D01*
X16210D01*
X16200Y84883D01*
X15400D01*
X15323Y84852D01*
X15292Y84775D01*
Y84575D01*
X15323Y84498D01*
X15323Y84452D01*
X15292Y84375D01*
Y84175D01*
X15323Y84098D01*
X15323Y84052D01*
X15292Y83975D01*
Y83775D01*
X15302Y83751D01*
X15318Y83675D01*
X15302Y83599D01*
X15292Y83575D01*
Y83375D01*
X15323Y83298D01*
X15323Y83252D01*
X15292Y83175D01*
Y82975D01*
X15323Y82898D01*
X15323Y82852D01*
X15292Y82775D01*
Y82575D01*
X15297Y82561D01*
X15211Y82508D01*
X15150Y82533D01*
X14950D01*
X14926Y82523D01*
X14850Y82507D01*
X14774Y82523D01*
X14750Y82533D01*
X14550D01*
X14473Y82502D01*
X14442Y82425D01*
Y81625D01*
X14446Y81615D01*
Y81561D01*
X14462Y81483D01*
X14506Y81416D01*
X14691Y81231D01*
X14691Y81231D01*
X14758Y81187D01*
X14744Y81087D01*
X14392D01*
X14029Y81450D01*
X14027Y81548D01*
X14058Y81625D01*
Y82425D01*
X14027Y82502D01*
X13950Y82533D01*
X13750D01*
X13673Y82502D01*
X13642Y82425D01*
Y81625D01*
X13673Y81548D01*
X13688Y81543D01*
Y81400D01*
X13643Y81333D01*
X13472Y81333D01*
X13462Y81329D01*
X13451Y81331D01*
X13450Y81331D01*
X13449Y81331D01*
X13438Y81329D01*
X13428Y81333D01*
X13415D01*
X13366Y81366D01*
X13329Y81422D01*
X13319Y81428D01*
X13315Y81438D01*
X13283Y81470D01*
X13283Y81575D01*
X13267Y81614D01*
X13258Y81635D01*
Y82425D01*
X13227Y82502D01*
X13150Y82533D01*
X12950D01*
X12926Y82523D01*
X12850Y82507D01*
X12774Y82523D01*
X12750Y82533D01*
X12550D01*
X12526Y82523D01*
X12450Y82507D01*
X12374Y82523D01*
X12350Y82533D01*
X12150D01*
X12073Y82502D01*
X12042Y82425D01*
Y81625D01*
X12063Y81575D01*
X12038Y81538D01*
X12021Y81450D01*
X12038Y81362D01*
X12088Y81288D01*
X12162Y81238D01*
X12250Y81221D01*
X12317Y81234D01*
X12388Y81196D01*
X12417Y81171D01*
X12417Y80744D01*
X12324Y80706D01*
X11683Y81345D01*
Y81575D01*
X11683Y81575D01*
X11658Y81635D01*
Y82425D01*
X11627Y82502D01*
X11550Y82533D01*
X11350D01*
X11326Y82523D01*
X11250Y82507D01*
X11174Y82523D01*
X11150Y82533D01*
X10950D01*
X10926Y82523D01*
X10850Y82507D01*
X10774Y82523D01*
X10750Y82533D01*
X10550D01*
X10489Y82508D01*
X10403Y82561D01*
X10408Y82575D01*
X10408Y82775D01*
X10377Y82852D01*
X10377Y82898D01*
X10408Y82975D01*
Y83175D01*
X10377Y83252D01*
X10377Y83298D01*
X10408Y83375D01*
Y83575D01*
X10377Y83652D01*
X10377Y83698D01*
X10408Y83775D01*
Y83975D01*
X10377Y84052D01*
X10377Y84098D01*
X10408Y84175D01*
Y84375D01*
X10377Y84452D01*
X10377Y84498D01*
X10408Y84575D01*
Y84775D01*
X10377Y84852D01*
X10377Y84898D01*
X10408Y84975D01*
Y85175D01*
X10377Y85252D01*
X10300Y85283D01*
X9500D01*
X9490Y85279D01*
X8732D01*
X8444Y85567D01*
X8485Y85667D01*
X9500D01*
X9500Y85667D01*
X10300D01*
X10377Y85698D01*
X10408Y85775D01*
Y85975D01*
X10377Y86052D01*
X10377Y86098D01*
X10408Y86175D01*
Y86375D01*
X10497Y86417D01*
X10634Y86417D01*
X10750D01*
X10827Y86448D01*
X10830Y86448D01*
X10926Y86427D01*
X10950Y86417D01*
X11150D01*
X11227Y86448D01*
X11258Y86525D01*
Y87325D01*
X11254Y87335D01*
Y87365D01*
X11258Y87375D01*
Y87424D01*
X11343Y87594D01*
X11345Y87619D01*
X11354Y87642D01*
Y87750D01*
X11343Y87777D01*
X11344Y87783D01*
X11331Y87850D01*
X11340Y87896D01*
X11366Y87934D01*
X11385Y87947D01*
X11391Y87956D01*
X11402Y87961D01*
X11414Y87990D01*
X11431Y88016D01*
X11429Y88027D01*
X11433Y88037D01*
Y88106D01*
X11533Y88162D01*
X11625Y88144D01*
D02*
G37*
G36*
X11300Y91300D02*
X11300Y90525D01*
X10800Y90025D01*
X9525Y90025D01*
X8803Y90025D01*
Y90420D01*
X8772Y90497D01*
X8695Y90528D01*
X7975D01*
Y91525D01*
X8200Y91750D01*
X10850D01*
X11300Y91300D01*
D02*
G37*
D10*
X6750Y85450D02*
D03*
X7650D02*
D03*
X36425Y85725D02*
D03*
X35525D02*
D03*
X48675Y69400D02*
D03*
X49575D02*
D03*
X48675Y54375D02*
D03*
X47775D02*
D03*
X38950Y54275D02*
D03*
X38050D02*
D03*
X36825Y72000D02*
D03*
X37725D02*
D03*
X17784Y85562D02*
D03*
X18684D02*
D03*
X6800Y83325D02*
D03*
X7700D02*
D03*
X6800Y80075D02*
D03*
X7700D02*
D03*
X18675Y84725D02*
D03*
X17775D02*
D03*
X17600Y82825D02*
D03*
X16700D02*
D03*
X6800Y82175D02*
D03*
X7700D02*
D03*
X51225Y68925D02*
D03*
X50325D02*
D03*
X54850Y61675D02*
D03*
X55750D02*
D03*
X48875Y55750D02*
D03*
X47975D02*
D03*
D11*
X40275Y63775D02*
D03*
X41175D02*
D03*
X55750Y63400D02*
D03*
X54850D02*
D03*
D12*
X51350Y57200D02*
D03*
X50700D02*
D03*
X46150D02*
D03*
X45500D02*
D03*
X51350Y57850D02*
D03*
X50700D02*
D03*
X50050D02*
D03*
X48750D02*
D03*
X48100D02*
D03*
X47450D02*
D03*
X46800D02*
D03*
X46150D02*
D03*
X45500D02*
D03*
X51350Y58500D02*
D03*
X50700D02*
D03*
X50050D02*
D03*
X48750D02*
D03*
X48100D02*
D03*
X47450D02*
D03*
X46800D02*
D03*
X46150D02*
D03*
X45500D02*
D03*
X51350Y59150D02*
D03*
X50700D02*
D03*
X50050D02*
D03*
X48100D02*
D03*
X47450D02*
D03*
X46800D02*
D03*
X48750D02*
D03*
X46150D02*
D03*
X45500D02*
D03*
Y59800D02*
D03*
X46150D02*
D03*
X48750D02*
D03*
X46800D02*
D03*
X47450D02*
D03*
X48100D02*
D03*
X50050D02*
D03*
X50700D02*
D03*
X51350D02*
D03*
Y62400D02*
D03*
X50700D02*
D03*
X50050D02*
D03*
X48100D02*
D03*
X47450D02*
D03*
X46800D02*
D03*
X48750D02*
D03*
X46150D02*
D03*
X48750Y61750D02*
D03*
X48100D02*
D03*
X50050D02*
D03*
X50700D02*
D03*
X51350D02*
D03*
X45500Y61100D02*
D03*
X46150D02*
D03*
X46800D02*
D03*
X47450D02*
D03*
X48100D02*
D03*
X48750D02*
D03*
X50050D02*
D03*
X50700D02*
D03*
X51350D02*
D03*
X45500Y60450D02*
D03*
X46150D02*
D03*
X46800D02*
D03*
X47450D02*
D03*
X48100D02*
D03*
X48750D02*
D03*
X50050D02*
D03*
X50700D02*
D03*
X51350D02*
D03*
Y65000D02*
D03*
X50700D02*
D03*
X50050D02*
D03*
X48100D02*
D03*
X47450D02*
D03*
X46800D02*
D03*
X48750D02*
D03*
X46150D02*
D03*
X45500D02*
D03*
Y64350D02*
D03*
X46150D02*
D03*
X48750D02*
D03*
X46800D02*
D03*
X47450D02*
D03*
X48100D02*
D03*
X50050D02*
D03*
X50700D02*
D03*
X51350D02*
D03*
X45500Y63700D02*
D03*
X46150D02*
D03*
X46800D02*
D03*
X47450D02*
D03*
X48100D02*
D03*
X48750D02*
D03*
X50050D02*
D03*
X50700D02*
D03*
X51350D02*
D03*
X48100Y63050D02*
D03*
X48750D02*
D03*
X50050D02*
D03*
X50700D02*
D03*
X51350D02*
D03*
Y67600D02*
D03*
X50700D02*
D03*
X46150D02*
D03*
X45500D02*
D03*
Y66950D02*
D03*
X46150D02*
D03*
X48750D02*
D03*
X46800D02*
D03*
X47450D02*
D03*
X48100D02*
D03*
X50050D02*
D03*
X50700D02*
D03*
X51350D02*
D03*
X45500Y66300D02*
D03*
X46150D02*
D03*
X46800D02*
D03*
X47450D02*
D03*
X48100D02*
D03*
X48750D02*
D03*
X50050D02*
D03*
X50700D02*
D03*
X51350D02*
D03*
X45500Y65650D02*
D03*
X46150D02*
D03*
X46800D02*
D03*
X47450D02*
D03*
X48100D02*
D03*
X48750D02*
D03*
X50050D02*
D03*
X50700D02*
D03*
X51350D02*
D03*
D13*
X50375Y54975D02*
D03*
Y55875D02*
D03*
X19625Y80850D02*
D03*
Y81750D02*
D03*
X20074Y87913D02*
D03*
Y88813D02*
D03*
X19025Y87900D02*
D03*
Y88800D02*
D03*
X35575Y88725D02*
D03*
Y89625D02*
D03*
D14*
X36350Y55150D02*
D03*
Y54250D02*
D03*
X54875Y59750D02*
D03*
Y60650D02*
D03*
X2175Y96050D02*
D03*
Y96950D02*
D03*
X32500Y54250D02*
D03*
Y55150D02*
D03*
X33250Y71300D02*
D03*
Y70400D02*
D03*
X35250Y71300D02*
D03*
Y70400D02*
D03*
X33325Y54250D02*
D03*
Y55150D02*
D03*
X54875Y65450D02*
D03*
Y64550D02*
D03*
Y58125D02*
D03*
Y59025D02*
D03*
D15*
X9900Y84675D02*
D03*
Y84275D02*
D03*
Y83875D02*
D03*
Y83475D02*
D03*
Y83075D02*
D03*
Y82675D02*
D03*
Y85075D02*
D03*
Y85475D02*
D03*
Y85875D02*
D03*
Y86275D02*
D03*
X15800D02*
D03*
Y85875D02*
D03*
Y85475D02*
D03*
Y85075D02*
D03*
Y84675D02*
D03*
Y82675D02*
D03*
Y83075D02*
D03*
Y83475D02*
D03*
Y83875D02*
D03*
Y84275D02*
D03*
D16*
X15050Y86925D02*
D03*
X12650Y82025D02*
D03*
X13050D02*
D03*
X13450D02*
D03*
X13850D02*
D03*
X14250D02*
D03*
X14650D02*
D03*
X12250D02*
D03*
X11850D02*
D03*
X11450D02*
D03*
X11050D02*
D03*
X10650D02*
D03*
X11050Y86925D02*
D03*
X11450D02*
D03*
X11850D02*
D03*
X12250D02*
D03*
X12650D02*
D03*
X14650D02*
D03*
X14250D02*
D03*
X13850D02*
D03*
X13450D02*
D03*
X13050D02*
D03*
X10650D02*
D03*
X15050Y82025D02*
D03*
D17*
X12850Y84475D02*
D03*
D18*
X11675Y79625D02*
D03*
Y77625D02*
D03*
X15575Y79625D02*
D03*
Y77625D02*
D03*
X10275Y88900D02*
D03*
Y90900D02*
D03*
D19*
X13675Y89225D02*
D03*
X15675D02*
D03*
D20*
X13625Y77850D02*
D03*
Y79250D02*
D03*
X8250Y90100D02*
D03*
Y88700D02*
D03*
X9750Y77850D02*
D03*
Y79250D02*
D03*
X12250Y90650D02*
D03*
Y89250D02*
D03*
D21*
X7050Y91175D02*
D03*
X8450D02*
D03*
X6875Y87625D02*
D03*
X8275D02*
D03*
X9850Y76450D02*
D03*
X11250D02*
D03*
X13750Y76450D02*
D03*
X15150D02*
D03*
X14225Y91150D02*
D03*
X15625D02*
D03*
X8275Y86350D02*
D03*
X6875D02*
D03*
X37000Y84625D02*
D03*
X35600D02*
D03*
D22*
X3225Y95850D02*
D03*
Y97350D02*
D03*
X7675Y95850D02*
D03*
Y97350D02*
D03*
D23*
X26500Y68200D02*
D03*
X27000D02*
D03*
X27500D02*
D03*
X28000D02*
D03*
X28500D02*
D03*
X29500D02*
D03*
X30000D02*
D03*
X31000D02*
D03*
X31500D02*
D03*
X32500D02*
D03*
X33000D02*
D03*
X34000D02*
D03*
X34500D02*
D03*
X35500D02*
D03*
X36000D02*
D03*
X36500D02*
D03*
X37000D02*
D03*
X37500D02*
D03*
X26500Y67700D02*
D03*
X27000D02*
D03*
X27500D02*
D03*
X28000D02*
D03*
X28500D02*
D03*
X29000D02*
D03*
X29500D02*
D03*
X30000D02*
D03*
X30500D02*
D03*
X31000D02*
D03*
X31500D02*
D03*
X32000D02*
D03*
X32500D02*
D03*
X33000D02*
D03*
X33500D02*
D03*
X34000D02*
D03*
X34500D02*
D03*
X35000D02*
D03*
X35500D02*
D03*
X36000D02*
D03*
X36500D02*
D03*
X37000D02*
D03*
X37500D02*
D03*
X26500Y67200D02*
D03*
X27000D02*
D03*
X27500D02*
D03*
X28000D02*
D03*
X28500D02*
D03*
X29000D02*
D03*
X29500D02*
D03*
X30000D02*
D03*
X30500D02*
D03*
X31000D02*
D03*
X31500D02*
D03*
X32000D02*
D03*
X32500D02*
D03*
X33000D02*
D03*
X33500D02*
D03*
X34000D02*
D03*
X34500D02*
D03*
X35000D02*
D03*
X35500D02*
D03*
X36000D02*
D03*
X36500D02*
D03*
X37000D02*
D03*
X37500D02*
D03*
X26500Y66700D02*
D03*
X27000D02*
D03*
X27500D02*
D03*
X28000D02*
D03*
X28500D02*
D03*
X29000D02*
D03*
X29500D02*
D03*
X30000D02*
D03*
X30500D02*
D03*
X31000D02*
D03*
X31500D02*
D03*
X32000D02*
D03*
X32500D02*
D03*
X33000D02*
D03*
X33500D02*
D03*
X34000D02*
D03*
X34500D02*
D03*
X35000D02*
D03*
X35500D02*
D03*
X36000D02*
D03*
X36500D02*
D03*
X37000D02*
D03*
X37500D02*
D03*
X26500Y66200D02*
D03*
X27000D02*
D03*
X27500D02*
D03*
X28000D02*
D03*
X36000D02*
D03*
X36500D02*
D03*
X37000D02*
D03*
X37500D02*
D03*
X27000Y65700D02*
D03*
X27500D02*
D03*
X28000D02*
D03*
X36000D02*
D03*
X36500D02*
D03*
X37000D02*
D03*
X26500Y65200D02*
D03*
X27000D02*
D03*
X27500D02*
D03*
X28000D02*
D03*
X36000D02*
D03*
X36500D02*
D03*
X37000D02*
D03*
X37500D02*
D03*
X26500Y64700D02*
D03*
X27000D02*
D03*
X27500D02*
D03*
X28000D02*
D03*
X30050Y65300D02*
D03*
X30700D02*
D03*
X31350D02*
D03*
X32000D02*
D03*
X32650D02*
D03*
X33300D02*
D03*
X33950D02*
D03*
X36000Y64700D02*
D03*
X36500D02*
D03*
X37000D02*
D03*
X37500D02*
D03*
X27000Y64200D02*
D03*
X27500D02*
D03*
X28000D02*
D03*
X29400Y64650D02*
D03*
X30050D02*
D03*
X30700D02*
D03*
X31350D02*
D03*
X32000D02*
D03*
X32650D02*
D03*
X33300D02*
D03*
X33950D02*
D03*
X34600D02*
D03*
X36000Y64200D02*
D03*
X36500D02*
D03*
X37000D02*
D03*
X26500Y63700D02*
D03*
X27000D02*
D03*
X27500D02*
D03*
X28000D02*
D03*
X29400Y64000D02*
D03*
X30050D02*
D03*
X30700D02*
D03*
X31350D02*
D03*
X32000D02*
D03*
X32650D02*
D03*
X33300D02*
D03*
X33950D02*
D03*
X34600D02*
D03*
X36000Y63700D02*
D03*
X36500D02*
D03*
X37000D02*
D03*
X37500D02*
D03*
X26500Y63200D02*
D03*
X27000D02*
D03*
X27500D02*
D03*
X28000D02*
D03*
X29400Y63350D02*
D03*
X30050D02*
D03*
X30700D02*
D03*
X31350D02*
D03*
X32000D02*
D03*
X32650D02*
D03*
X33300D02*
D03*
X33950D02*
D03*
X34600D02*
D03*
X36000Y63200D02*
D03*
X36500D02*
D03*
X37000D02*
D03*
X37500D02*
D03*
X27000Y62700D02*
D03*
X27500D02*
D03*
X28000D02*
D03*
X29400D02*
D03*
X30050D02*
D03*
X30700D02*
D03*
X31350D02*
D03*
X32000D02*
D03*
X32650D02*
D03*
X33300D02*
D03*
X33950D02*
D03*
X34600D02*
D03*
X36000D02*
D03*
X36500D02*
D03*
X37000D02*
D03*
X26500Y62200D02*
D03*
X27000D02*
D03*
X27500D02*
D03*
X28000D02*
D03*
X29400Y62050D02*
D03*
X30050D02*
D03*
X30700D02*
D03*
X31350D02*
D03*
X32000D02*
D03*
X32650D02*
D03*
X33300D02*
D03*
X33950D02*
D03*
X34600D02*
D03*
X36000Y62200D02*
D03*
X36500D02*
D03*
X37000D02*
D03*
X37500D02*
D03*
X26500Y61700D02*
D03*
X27000D02*
D03*
X27500D02*
D03*
X28000D02*
D03*
X29400Y61400D02*
D03*
X30050D02*
D03*
X30700D02*
D03*
X31350D02*
D03*
X32000D02*
D03*
X32650D02*
D03*
X33300D02*
D03*
X33950D02*
D03*
X34600D02*
D03*
X36000Y61700D02*
D03*
X36500D02*
D03*
X37000D02*
D03*
X37500D02*
D03*
X27000Y61200D02*
D03*
X27500D02*
D03*
X28000D02*
D03*
X29400Y60750D02*
D03*
X30050D02*
D03*
X30700D02*
D03*
X31350D02*
D03*
X32000D02*
D03*
X32650D02*
D03*
X33300D02*
D03*
X33950D02*
D03*
X34600D02*
D03*
X36000Y61200D02*
D03*
X36500D02*
D03*
X37000D02*
D03*
X26500Y60700D02*
D03*
X27000D02*
D03*
X27500D02*
D03*
X28000D02*
D03*
X30050Y60100D02*
D03*
X30700D02*
D03*
X31350D02*
D03*
X32000D02*
D03*
X32650D02*
D03*
X33300D02*
D03*
X33950D02*
D03*
X36000Y60700D02*
D03*
X36500D02*
D03*
X37000D02*
D03*
X37500D02*
D03*
X26500Y60200D02*
D03*
X27000D02*
D03*
X27500D02*
D03*
X28000D02*
D03*
X36000D02*
D03*
X36500D02*
D03*
X37000D02*
D03*
X37500D02*
D03*
X27000Y59700D02*
D03*
X27500D02*
D03*
X28000D02*
D03*
X36000D02*
D03*
X36500D02*
D03*
X37000D02*
D03*
X26500Y59200D02*
D03*
X27000D02*
D03*
X27500D02*
D03*
X28000D02*
D03*
X36000D02*
D03*
X36500D02*
D03*
X37000D02*
D03*
X37500D02*
D03*
X26500Y58700D02*
D03*
X27000D02*
D03*
X27500D02*
D03*
X28000D02*
D03*
X28500D02*
D03*
X29000D02*
D03*
X29500D02*
D03*
X30000D02*
D03*
X30500D02*
D03*
X31000D02*
D03*
X31500D02*
D03*
X32000D02*
D03*
X32500D02*
D03*
X33000D02*
D03*
X33500D02*
D03*
X34000D02*
D03*
X34500D02*
D03*
X35000D02*
D03*
X35500D02*
D03*
X36000D02*
D03*
X36500D02*
D03*
X37000D02*
D03*
X37500D02*
D03*
X26500Y58200D02*
D03*
X27000D02*
D03*
X27500D02*
D03*
X28000D02*
D03*
X28500D02*
D03*
X29000D02*
D03*
X29500D02*
D03*
X30000D02*
D03*
X30500D02*
D03*
X31000D02*
D03*
X31500D02*
D03*
X32000D02*
D03*
X32500D02*
D03*
X33000D02*
D03*
X33500D02*
D03*
X34000D02*
D03*
X34500D02*
D03*
X35000D02*
D03*
X35500D02*
D03*
X36000D02*
D03*
X36500D02*
D03*
X37000D02*
D03*
X37500D02*
D03*
X26500Y57700D02*
D03*
X27000D02*
D03*
X27500D02*
D03*
X28000D02*
D03*
X28500D02*
D03*
X29000D02*
D03*
X29500D02*
D03*
X30000D02*
D03*
X30500D02*
D03*
X31000D02*
D03*
X31500D02*
D03*
X32000D02*
D03*
X32500D02*
D03*
X33000D02*
D03*
X33500D02*
D03*
X34000D02*
D03*
X34500D02*
D03*
X35000D02*
D03*
X35500D02*
D03*
X36000D02*
D03*
X36500D02*
D03*
X37000D02*
D03*
X37500D02*
D03*
X26500Y57200D02*
D03*
X27000D02*
D03*
X27500D02*
D03*
X28000D02*
D03*
X28500D02*
D03*
X29500D02*
D03*
X30000D02*
D03*
X31000D02*
D03*
X31500D02*
D03*
X32500D02*
D03*
X33000D02*
D03*
X34000D02*
D03*
X34500D02*
D03*
X35500D02*
D03*
X36000D02*
D03*
X36500D02*
D03*
X37000D02*
D03*
X37500D02*
D03*
X25700Y90975D02*
D03*
X26200D02*
D03*
X26700D02*
D03*
X27200D02*
D03*
X27700D02*
D03*
X28200D02*
D03*
X28700D02*
D03*
X29200D02*
D03*
X29700D02*
D03*
X30200D02*
D03*
X30700D02*
D03*
X31200D02*
D03*
X31700D02*
D03*
X32200D02*
D03*
X25700Y90475D02*
D03*
X26200D02*
D03*
X26700D02*
D03*
X27200D02*
D03*
X27700D02*
D03*
X28200D02*
D03*
X28700D02*
D03*
X29200D02*
D03*
X29700D02*
D03*
X30200D02*
D03*
X30700D02*
D03*
X31200D02*
D03*
X31700D02*
D03*
X32200D02*
D03*
X25700Y89975D02*
D03*
X26200D02*
D03*
X26700D02*
D03*
X27200D02*
D03*
X27700D02*
D03*
X28200D02*
D03*
X28700D02*
D03*
X29200D02*
D03*
X29700D02*
D03*
X30200D02*
D03*
X30700D02*
D03*
X31200D02*
D03*
X31700D02*
D03*
X32200D02*
D03*
X25700Y89475D02*
D03*
X26200D02*
D03*
X26700D02*
D03*
X31200D02*
D03*
X31700D02*
D03*
X32200D02*
D03*
X25700Y88975D02*
D03*
X26200D02*
D03*
X26700D02*
D03*
X27700D02*
D03*
X28200D02*
D03*
X28700D02*
D03*
X29200D02*
D03*
X29700D02*
D03*
X30200D02*
D03*
X31200D02*
D03*
X31700D02*
D03*
X32200D02*
D03*
X25700Y88475D02*
D03*
X26200D02*
D03*
X26700D02*
D03*
X27700D02*
D03*
X30200D02*
D03*
X31200D02*
D03*
X31700D02*
D03*
X32200D02*
D03*
X25700Y87975D02*
D03*
X26200D02*
D03*
X26700D02*
D03*
X27700D02*
D03*
X30200D02*
D03*
X31200D02*
D03*
X31700D02*
D03*
X32200D02*
D03*
X25700Y87475D02*
D03*
X26200D02*
D03*
X26700D02*
D03*
X27700D02*
D03*
X30200D02*
D03*
X31200D02*
D03*
X31700D02*
D03*
X32200D02*
D03*
X25700Y86975D02*
D03*
X26200D02*
D03*
X26700D02*
D03*
X27700D02*
D03*
X30200D02*
D03*
X31200D02*
D03*
X31700D02*
D03*
X32200D02*
D03*
X25700Y86475D02*
D03*
X26200D02*
D03*
X26700D02*
D03*
X27700D02*
D03*
X28200D02*
D03*
X28700D02*
D03*
X29200D02*
D03*
X29700D02*
D03*
X30200D02*
D03*
X31200D02*
D03*
X31700D02*
D03*
X32200D02*
D03*
X25700Y85975D02*
D03*
X26200D02*
D03*
X26700D02*
D03*
X30700D02*
D03*
X31200D02*
D03*
X31700D02*
D03*
X32200D02*
D03*
X25700Y85475D02*
D03*
X26200D02*
D03*
X26700D02*
D03*
X27200D02*
D03*
X27700D02*
D03*
X28200D02*
D03*
X28700D02*
D03*
X29200D02*
D03*
X29700D02*
D03*
X30200D02*
D03*
X30700D02*
D03*
X31200D02*
D03*
X31700D02*
D03*
X32200D02*
D03*
X25700Y84975D02*
D03*
X26200D02*
D03*
X26700D02*
D03*
X27200D02*
D03*
X27700D02*
D03*
X28200D02*
D03*
X28700D02*
D03*
X29200D02*
D03*
X29700D02*
D03*
X30200D02*
D03*
X30700D02*
D03*
X31200D02*
D03*
X31700D02*
D03*
X32200D02*
D03*
X25700Y84475D02*
D03*
X26200D02*
D03*
X26700D02*
D03*
X27200D02*
D03*
X27700D02*
D03*
X28200D02*
D03*
X28700D02*
D03*
X29200D02*
D03*
X29700D02*
D03*
X30200D02*
D03*
X30700D02*
D03*
X31200D02*
D03*
X31700D02*
D03*
X32200D02*
D03*
D24*
X40275Y63775D02*
X40362Y63862D01*
X39723Y63223D02*
X40275Y63775D01*
X35605Y62950D02*
Y62998D01*
X49605Y64220D02*
Y64555D01*
Y64220D02*
Y64220D01*
X50364Y64036D02*
X50678Y64350D01*
X50346Y64017D02*
X50364Y64036D01*
X50375Y60775D02*
X50700Y61100D01*
X50370Y60770D02*
X50375Y60775D01*
X35670Y64455D02*
X35915Y64700D01*
X35645Y64430D02*
X35670Y64455D01*
X38521Y62821D02*
X38571D01*
X37121D02*
X38521D01*
X45023Y62776D02*
X45416Y63170D01*
X45020Y62773D02*
X45023Y62776D01*
X46480Y64670D02*
X46485Y64675D01*
X46160Y64350D02*
X46480Y64670D01*
X48098Y64351D02*
X48101Y64353D01*
X47775Y64027D02*
X48098Y64351D01*
X46470Y62729D02*
X46866Y63125D01*
X46464Y62722D02*
X46470Y62729D01*
X46150Y60448D02*
X46174D01*
X46077D02*
X46150D01*
X49130Y62721D02*
X49133D01*
X49078D02*
X49130D01*
Y62089D02*
X49137D01*
X49089D02*
X49130D01*
X42465Y59876D02*
X42475D01*
X42169D02*
X42465D01*
X51675Y60125D02*
Y60125D01*
X31025Y61725D02*
X31350Y61400D01*
X30700Y62050D02*
X31025Y61725D01*
Y60425D02*
X31350Y60100D01*
X30700Y60750D02*
X31025Y60425D01*
X48120Y67454D02*
X48124Y67459D01*
X48100Y67434D02*
X48120Y67454D01*
X45177Y57525D02*
Y57529D01*
Y57159D02*
Y57525D01*
X44296Y56989D02*
Y56990D01*
Y56676D02*
Y56989D01*
X48750Y59800D02*
X49066Y59484D01*
X48750Y59800D02*
X48750Y59800D01*
X46797Y58500D02*
Y58516D01*
Y58475D02*
Y58500D01*
X48101Y64998D02*
X48442Y65339D01*
X48096Y64994D02*
X48101Y64998D01*
X36755Y56660D02*
X37110Y56305D01*
X36755Y56660D02*
Y56770D01*
X37250Y68340D02*
X37761Y68838D01*
X38199D01*
X37000Y68403D02*
X37763Y69166D01*
X37000Y68200D02*
Y68403D01*
X45825Y65325D02*
Y65325D01*
X44480Y64610D02*
X44775Y64315D01*
X44951D01*
X45040Y64226D01*
X44984Y68626D02*
X45898D01*
X47480Y65655D02*
Y65892D01*
X45083Y69007D02*
X45197Y69121D01*
X45295D01*
X45409Y69007D01*
X41819Y61961D02*
Y62331D01*
Y61961D02*
X41950Y61830D01*
X42079D01*
X41399Y61730D02*
X41719Y61410D01*
X41027Y61398D02*
X41136D01*
X41249Y61286D01*
Y60965D02*
Y61286D01*
X41719Y61410D02*
X42255D01*
X41399Y61730D02*
Y61962D01*
X38940Y59615D02*
X38995Y59560D01*
X40525D01*
X44219Y58609D02*
X44840Y59229D01*
X43455Y58609D02*
X44219D01*
X43261Y58415D02*
X43455Y58609D01*
X43261Y57650D02*
Y58415D01*
X42715Y57104D02*
X43261Y57650D01*
X44045Y59029D02*
X44420Y59403D01*
X43200Y59029D02*
X44045D01*
X41961Y57524D02*
X42442D01*
X42841Y58669D02*
X43200Y59029D01*
X42841Y57923D02*
Y58669D01*
X42442Y57524D02*
X42841Y57923D01*
X44840Y59229D02*
Y59348D01*
X44420Y59403D02*
Y59545D01*
X44000Y59577D02*
Y59719D01*
X43871Y59449D02*
X44000Y59577D01*
X43026Y59449D02*
X43871D01*
X42421Y58180D02*
Y58843D01*
X42284Y58043D02*
X42421Y58180D01*
X42042Y58043D02*
X42284D01*
X42421Y58843D02*
X43026Y59449D01*
X41915Y58169D02*
X42042Y58043D01*
X42925Y56683D02*
X45072Y58830D01*
X39659Y58638D02*
X41613Y56684D01*
X42924D01*
X41495Y57990D02*
X41961Y57524D01*
X41075Y57816D02*
X41787Y57104D01*
X42715D01*
X41075Y57816D02*
Y58462D01*
X40971Y58567D02*
X41075Y58462D01*
X40330Y58567D02*
X40971D01*
X39937Y58960D02*
X40330Y58567D01*
X38875Y58960D02*
X39937D01*
X38965Y59280D02*
X40211D01*
X40504Y58987D01*
X41375D01*
X41495Y58866D01*
Y57990D02*
Y58866D01*
X38860Y58640D02*
X39659D01*
X40525Y59560D02*
X40678Y59407D01*
X38010Y60450D02*
X38330Y60770D01*
X40666D01*
X45072Y58830D02*
X45618D01*
X48750Y63050D02*
X49078Y62721D01*
X46304Y55631D02*
X46722Y56048D01*
Y57450D01*
X46510Y57662D02*
X46722Y57450D01*
X44658Y55987D02*
X45015Y55630D01*
X46303D01*
X45078Y56163D02*
Y57059D01*
Y56163D02*
X45184Y56057D01*
X45435D01*
X46510Y58187D02*
X46797Y58475D01*
X46510Y57662D02*
Y58187D01*
X45921Y56126D02*
Y56710D01*
Y56126D02*
X45990Y56057D01*
X46112D01*
X46440Y56385D01*
Y57320D01*
X45831Y56800D02*
X45921Y56710D01*
X45582Y56800D02*
X45831D01*
X45502Y56720D02*
X45582Y56800D01*
X45502Y56124D02*
Y56720D01*
X45435Y56057D02*
X45502Y56124D01*
X44470Y57710D02*
X44658Y57522D01*
Y55988D02*
Y57522D01*
X37110Y56305D02*
X37220D01*
X45227Y55210D02*
X45483D01*
X44897Y54880D02*
X45227Y55210D01*
X44497Y54880D02*
X44897D01*
X43712Y55071D02*
Y56788D01*
X44323Y54460D02*
X46323D01*
X43712Y55071D02*
X44323Y54460D01*
X44132Y55245D02*
Y56512D01*
Y55245D02*
X44497Y54880D01*
X45483Y55210D02*
X45813Y54880D01*
X46149D01*
Y54882D02*
X47042Y55774D01*
X47462Y55598D02*
Y57818D01*
X46323Y54460D02*
X47462Y55598D01*
X47042Y55774D02*
Y57619D01*
X46150Y57610D02*
X46440Y57320D01*
X44132Y56512D02*
X44296Y56676D01*
X46150Y57610D02*
Y57850D01*
X38983Y57042D02*
X39789D01*
X47121Y60989D02*
X47448Y60663D01*
X47121Y60989D02*
Y61216D01*
X45610Y60760D02*
X45950Y61100D01*
X45041Y60760D02*
X45610D01*
X46465Y59465D02*
X46800Y59800D01*
X46005Y59465D02*
X46465D01*
X45810Y59270D02*
X46005Y59465D01*
X42120Y59827D02*
X42169Y59876D01*
X40850Y59827D02*
X42120D01*
X40777Y59899D02*
X40850Y59827D01*
X40666Y60770D02*
X40799Y60903D01*
X38800Y61710D02*
X38900Y61610D01*
X47450Y59791D02*
X47763Y59478D01*
X37787Y55738D02*
X38072D01*
X37813Y67200D02*
X39063Y68450D01*
X47922Y67923D02*
Y68268D01*
Y67923D02*
X48018Y67827D01*
X48363D01*
X39065Y68450D02*
X42039D01*
X42117Y68373D01*
X42208D01*
X42286Y68450D01*
X43336D01*
X43432Y68354D01*
Y67860D02*
Y68354D01*
X44302Y69650D02*
X44800D01*
X44900Y69551D01*
X44152Y69500D02*
X44302Y69650D01*
X43581Y70440D02*
X46202D01*
X49009Y67745D02*
X49220Y67534D01*
Y66972D02*
Y67534D01*
X48495Y67281D02*
Y67695D01*
X48363Y67827D02*
X48495Y67695D01*
X47437Y68753D02*
X47922Y68268D01*
X47318Y68753D02*
X47437D01*
X47179Y68613D02*
X47318Y68753D01*
X46933Y68613D02*
X47179D01*
X46846Y68700D02*
X46933Y68613D01*
X46846Y68700D02*
Y68880D01*
X47022Y69057D01*
Y69167D01*
X46069Y70120D02*
X47022Y69167D01*
X45524Y70120D02*
X46069D01*
X38985Y68030D02*
X41863D01*
X43432Y67860D02*
X43508Y67783D01*
X43787D01*
X43871Y67990D02*
Y68232D01*
X43871Y67867D02*
Y67990D01*
X43787Y67783D02*
X43871Y67867D01*
X43779Y67260D02*
X43882Y67363D01*
X44108D01*
X43420Y67278D02*
X43503Y67361D01*
X43588D01*
X43690Y67259D01*
X43772D01*
X44108Y67363D02*
X44403Y67658D01*
X43519Y66650D02*
Y66827D01*
X43420Y66926D02*
X43519Y66827D01*
X43420Y66926D02*
Y67278D01*
X43420Y66552D02*
X43519Y66650D01*
X44238Y66899D02*
X44808Y67470D01*
X44919D01*
X44359Y66427D02*
X44982Y67050D01*
X45134D01*
X45114Y68267D02*
X46374D01*
X46526Y68568D02*
Y69065D01*
X46526Y68567D02*
X46890Y68202D01*
X46374Y68267D02*
X46841Y67800D01*
X47140D01*
X46890Y68202D02*
X47454D01*
X47532Y68125D01*
Y67860D02*
Y68125D01*
Y67860D02*
X47760Y67632D01*
X48440Y65753D02*
Y66459D01*
X48337Y65650D02*
X48440Y65753D01*
X48100Y65650D02*
X48337D01*
X38016Y69166D02*
X38188Y69339D01*
X37763Y69166D02*
X38016Y69166D01*
X48351Y66681D02*
X48439Y66769D01*
X48351Y66547D02*
Y66681D01*
Y66547D02*
X48440Y66459D01*
Y66762D02*
Y67226D01*
X40729Y66216D02*
Y66376D01*
Y66216D02*
X40835Y66110D01*
X41070D01*
X41025Y64514D02*
Y64677D01*
Y64514D02*
X41102Y64437D01*
X41429D01*
X41325Y64977D02*
Y65855D01*
X41025Y64677D02*
X41325Y64977D01*
X45681Y67915D02*
X45764Y67832D01*
X45358Y67915D02*
X45681D01*
X45777Y67833D02*
X45918D01*
X46001Y67915D01*
X46272D01*
X43939Y66825D02*
X44013Y66899D01*
X43939Y65897D02*
Y66825D01*
X41414Y66953D02*
Y67052D01*
Y66953D02*
X41758Y66610D01*
X41160Y67388D02*
Y67547D01*
X41090Y67318D02*
X41160Y67388D01*
Y67547D02*
X41223Y67610D01*
X41745Y64715D02*
Y66029D01*
X42053Y64407D02*
X42937D01*
X41429Y64437D02*
X41621Y64245D01*
Y63431D02*
Y64245D01*
X41745Y64715D02*
X42053Y64407D01*
X42165Y64889D02*
Y65220D01*
Y64889D02*
X42227Y64827D01*
X43145D01*
X42390Y67389D02*
Y67960D01*
Y67389D02*
X42478Y67301D01*
Y67177D02*
Y67301D01*
X42332Y67030D02*
X42478Y67177D01*
X42840Y67549D02*
Y67667D01*
Y67549D02*
X43008Y67381D01*
Y67175D02*
Y67381D01*
X43012Y67839D02*
Y67934D01*
X42840Y67667D02*
X43012Y67839D01*
X44746Y67895D02*
X45016Y68167D01*
X44485Y67895D02*
X44746D01*
X47140Y67800D02*
X47450Y67490D01*
Y66950D02*
Y67490D01*
X44403Y67658D02*
Y67813D01*
X44485Y67895D01*
X44654Y68295D02*
X44984Y68626D01*
X43938Y68295D02*
X44654D01*
X44918Y67471D02*
X45358Y67915D01*
X45139Y67055D02*
X45359Y67275D01*
X46460Y66640D02*
Y67078D01*
Y66640D02*
X46800Y66300D01*
X45368Y67286D02*
X46251D01*
X46460Y67078D01*
X45158Y66630D02*
X46044D01*
X44013Y66899D02*
X44238D01*
X46680Y67070D02*
Y67508D01*
Y67070D02*
X46800Y66950D01*
X46272Y67915D02*
X46680Y67508D01*
X43418Y66435D02*
X43519Y66334D01*
Y66071D02*
Y66334D01*
X42999Y66250D02*
X43282Y65967D01*
X43415D01*
X43519Y66071D01*
X43025Y63786D02*
Y64319D01*
Y63786D02*
X43092Y63718D01*
X43903D01*
X43871Y68232D02*
X43933Y68294D01*
X44060Y64436D02*
Y64830D01*
X44335Y65105D02*
X44682D01*
X44060Y64830D02*
X44335Y65105D01*
X43640Y64728D02*
Y65004D01*
X43220Y65178D02*
X43939Y65897D01*
X43220Y64902D02*
Y65178D01*
X41967Y67089D02*
Y67927D01*
Y67089D02*
X42026Y67030D01*
X42332D01*
X41758Y66610D02*
X42523D01*
X41244Y66530D02*
X41745Y66029D01*
X43483Y64418D02*
X43977Y63925D01*
X43483Y64571D02*
X43640Y64728D01*
X43483Y64418D02*
Y64571D01*
X42460Y68030D02*
X42916D01*
X42390Y67960D02*
X42460Y68030D01*
X42916D02*
X43012Y67934D01*
X42831Y66999D02*
X43008Y67175D01*
X42831Y66896D02*
Y66999D01*
X42523Y66610D02*
X42579Y66555D01*
X42831Y66896D02*
X42999Y66729D01*
Y66250D02*
Y66729D01*
X41863Y68030D02*
X41967Y67927D01*
X38007Y66700D02*
X38983Y67675D01*
X40622D01*
X37660Y66950D02*
X37905D01*
X38984Y68029D01*
X42238Y65752D02*
X42903D01*
X42985Y65670D01*
Y65573D02*
Y65670D01*
X42165Y66133D02*
X42222Y66190D01*
X42165Y65826D02*
Y66133D01*
Y65826D02*
X42238Y65752D01*
X42165Y65220D02*
X42227Y65282D01*
X42694D01*
X42985Y65573D01*
X43145Y64827D02*
X43220Y64902D01*
X42937Y64407D02*
X43025Y64319D01*
X44335Y63452D02*
X44445Y63562D01*
X44622D01*
X44688Y63628D01*
X44335Y63275D02*
Y63452D01*
X44214Y63154D02*
X44335Y63275D01*
X44019Y63154D02*
X44214D01*
X44688Y63628D02*
Y63807D01*
X44060Y64436D02*
X44688Y63807D01*
X42549Y63679D02*
X42605Y63735D01*
X42549Y63361D02*
Y63679D01*
Y63361D02*
X42612Y63298D01*
X42116Y63987D02*
X42531D01*
X42605Y63913D01*
Y63735D02*
Y63913D01*
X42041Y63767D02*
Y63912D01*
X42116Y63987D01*
X42043Y63767D02*
X42130Y63679D01*
Y63387D02*
Y63679D01*
X42041Y63298D02*
X42130Y63387D01*
X42612Y63298D02*
X43875D01*
X41753D02*
X42041D01*
X46044Y66630D02*
X46151Y66737D01*
X44780Y65208D02*
Y66253D01*
X46150Y66745D02*
Y66950D01*
X40623Y67675D02*
X40981Y67317D01*
X41082D01*
X38591Y70340D02*
X43481D01*
X43581Y70440D01*
X45250Y69847D02*
X45524Y70120D01*
X45139Y69847D02*
X45250D01*
X44184Y70120D02*
X44865D01*
X45139Y69847D01*
X45579Y69670D02*
X45709Y69800D01*
X45579Y69067D02*
Y69670D01*
X45518Y69007D02*
X45579Y69067D01*
X46007Y69141D02*
Y69654D01*
Y69141D02*
X46075Y69073D01*
X46222D01*
X45860Y69800D02*
X46007Y69654D01*
X46313Y69164D02*
X46427D01*
X46222Y69073D02*
X46313Y69164D01*
X46427D02*
X46526Y69065D01*
X49642Y65680D02*
Y67452D01*
X45709Y69800D02*
X45860D01*
X49220Y66972D02*
X49422Y66770D01*
Y65785D02*
Y66770D01*
X48961Y64999D02*
X49642Y65680D01*
X48752Y64999D02*
X48961D01*
X43983Y69919D02*
X44184Y70120D01*
X38818Y69920D02*
X43978D01*
X48977Y65339D02*
X49422Y65785D01*
X37500Y66700D02*
X38007D01*
X39053Y65988D02*
X39395Y66330D01*
X38150Y66455D02*
X39035Y67340D01*
X40356D01*
X39185Y67070D02*
X40039D01*
X40727Y66383D01*
X45015Y68168D02*
X45114Y68267D01*
X44780Y66253D02*
X45155Y66629D01*
X43903Y63718D02*
X43977Y63792D01*
Y63925D01*
X45163Y64036D02*
X45813D01*
X45040Y64159D02*
X45163Y64036D01*
X45040Y64159D02*
Y64226D01*
X40364Y67340D02*
X41174Y66530D01*
X41244D01*
X48750Y61750D02*
X49089Y62089D01*
X38752Y63223D02*
X39723D01*
X38275Y63700D02*
X38752Y63223D01*
X38165Y63700D02*
X38275D01*
X50375Y59475D02*
X50700Y59800D01*
X44972Y61430D02*
X46469D01*
X46470Y61430D02*
X46800Y61100D01*
X45810Y59021D02*
Y59270D01*
X49727Y60772D02*
X50050Y60450D01*
X36500Y56490D02*
Y57200D01*
X37260Y56925D02*
X37660Y56525D01*
X36500Y56490D02*
X37045Y55945D01*
X48749Y64350D02*
X48750D01*
X48709D02*
X48749D01*
X48750D02*
Y64385D01*
X49725Y59475D02*
X50050Y59800D01*
X47110Y64010D02*
X47450Y64350D01*
X49605Y64555D02*
X50050Y65000D01*
X37000Y56874D02*
X37599Y56275D01*
X35750Y63950D02*
X36000Y64200D01*
X35915Y64700D02*
X36000D01*
X36500Y67185D02*
Y67200D01*
X36500Y65700D02*
X36500D01*
X38335Y63895D02*
X38600D01*
X46800Y64350D02*
X47125Y64675D01*
X36500Y58200D02*
X36545D01*
X46800Y62365D02*
Y62400D01*
X37000Y56880D02*
Y57200D01*
X37660Y56525D02*
X38145D01*
X46588Y63700D02*
X46800D01*
X45500Y64350D02*
Y64350D01*
X47140Y65310D02*
X47450Y65000D01*
X48100Y59150D02*
X48425Y58825D01*
X50085Y64350D02*
X50375Y64640D01*
X37850Y56275D02*
X38020Y56105D01*
X38425D01*
X46600Y60450D02*
X46800D01*
X48100Y59800D02*
X48425Y59475D01*
X35765Y60935D02*
X36000Y60700D01*
X35650Y60935D02*
X35765D01*
X50700Y58500D02*
X50700D01*
X35645Y59590D02*
X36000Y59235D01*
X35300Y59590D02*
X35645D01*
X51350Y65650D02*
Y65650D01*
X47450Y59150D02*
X47775Y58825D01*
X46475Y65325D02*
X46800Y65000D01*
X37500Y67200D02*
X37813D01*
X37690Y66455D02*
X38150D01*
X37940Y63450D02*
X38170Y63220D01*
X39775Y66195D02*
X40300D01*
X37599Y56275D02*
X37850D01*
X39760Y65665D02*
X39925Y65830D01*
X35585Y59130D02*
X36000Y58715D01*
X48750Y66300D02*
Y66300D01*
X51350Y65650D02*
X51350D01*
X45950Y61100D02*
X46150D01*
X50275Y68835D02*
X50310Y68870D01*
X50375Y64640D02*
Y65325D01*
X35775Y64975D02*
X36000Y65200D01*
X37220Y56305D02*
X37787Y55738D01*
X47776Y60773D02*
X48100Y60450D01*
X46260Y60110D02*
X46600Y60450D01*
X45264Y59460D02*
X45598D01*
X45618Y58830D02*
X45810Y59021D01*
X44840Y59348D02*
X44952Y59460D01*
X45264D01*
X44420Y59545D02*
X45010Y60135D01*
X44000Y59719D02*
X45039Y60758D01*
X38544Y59899D02*
X40777D01*
X41915Y58169D02*
Y59318D01*
X41826Y59407D02*
X41915Y59318D01*
X40678Y59407D02*
X41826D01*
X40398Y63198D02*
X41260D01*
X39712Y62512D02*
X40398Y63198D01*
X39711Y61878D02*
Y62511D01*
X41260Y63198D02*
X41579Y62878D01*
X47450Y60450D02*
Y60661D01*
X47776Y60773D02*
Y61513D01*
X41579Y62878D02*
X43701D01*
X43699Y62878D02*
X44487Y62090D01*
X43525Y62458D02*
X44113Y61870D01*
X40553Y62163D02*
X40747Y62358D01*
X40912D01*
X40553Y61518D02*
Y62163D01*
X43351Y62038D02*
X43939Y61450D01*
X44395D01*
X43954Y60996D02*
X44254Y60696D01*
X44383D01*
X44772Y61085D01*
Y61230D01*
X44972Y61430D01*
X43177Y61618D02*
X43258Y61537D01*
X42255Y61410D02*
X42882Y62037D01*
X42836Y61398D02*
X43056Y61618D01*
X43177D01*
X42882Y62038D02*
X43351D01*
X42375Y62458D02*
X43525D01*
X41406D02*
X41691D01*
X41819Y62331D01*
X41086Y62778D02*
X41406Y62458D01*
X42079Y61830D02*
X42246Y61996D01*
Y62329D01*
X42375Y62458D01*
X41323Y62038D02*
X41399Y61962D01*
X41232Y62038D02*
X41323D01*
X40912Y62358D02*
X41232Y62038D01*
X40801Y60905D02*
Y61172D01*
X43359Y60996D02*
X43954D01*
X43258Y61097D02*
X43359Y60996D01*
X43258Y61097D02*
Y61537D01*
X42764Y60870D02*
X42836Y60942D01*
Y61398D01*
X40801Y61172D02*
X41027Y61398D01*
X41249Y60965D02*
X41344Y60870D01*
X41509D01*
X41628Y60990D01*
X41778D02*
X41897Y60870D01*
X41628Y60990D02*
X41778D01*
X42078Y60870D02*
X42197Y60990D01*
X42384D01*
X42503Y60870D01*
X42764D01*
X41897D02*
X42078D01*
X41621Y63431D02*
X41753Y63298D01*
X46928Y61410D02*
X47121Y61216D01*
X46801Y61410D02*
X46928D01*
X46561Y61650D02*
X46801Y61410D01*
X44595Y61650D02*
X46558D01*
X44395Y61450D02*
X44595Y61650D01*
X47449Y61100D02*
Y61367D01*
X47775Y62725D02*
Y64027D01*
X45813Y64036D02*
X46150Y63700D01*
X43875Y63298D02*
X44019Y63154D01*
X41070Y66110D02*
X41325Y65855D01*
X48440Y67226D02*
X48495Y67281D01*
X44682Y65105D02*
X44779Y65202D01*
X42222Y66190D02*
X42514D01*
X42579Y66254D01*
Y66555D01*
X39487Y65907D02*
X39775Y66195D01*
X39284Y65907D02*
X39487D01*
X39117Y65740D02*
X39284Y65907D01*
X38432Y66317D02*
X39185Y67070D01*
X39231Y66710D02*
X39775D01*
X38631Y66110D02*
X39231Y66710D01*
X47267Y63125D02*
X47450Y63308D01*
Y63698D01*
X47199Y62090D02*
X47776Y61513D01*
X40131Y61704D02*
Y62336D01*
X40573Y62778D01*
X41086D01*
X44900Y69099D02*
Y69551D01*
Y69099D02*
X44992Y69007D01*
X36500Y68249D02*
X38591Y70340D01*
X38199Y68838D02*
X38543Y69182D01*
X44992Y69007D02*
X45083D01*
X45409D02*
X45518D01*
X43418Y66435D02*
Y66548D01*
X41223Y67610D02*
X41483D01*
X41414Y67052D02*
X41548Y67186D01*
Y67545D01*
X41483Y67610D02*
X41548Y67545D01*
X38543Y69182D02*
Y69391D01*
X38652Y69500D01*
X44152D01*
X38188Y69339D02*
Y69602D01*
X38507Y69921D01*
X38857D01*
X36248Y68316D02*
X38692Y70760D01*
X44359Y65725D02*
Y66427D01*
X43640Y65004D02*
X44359Y65723D01*
X45078Y57059D02*
X45177Y57159D01*
X38917Y57498D02*
X40044D01*
X46812Y57849D02*
X47042Y57619D01*
X39460Y65665D02*
X39760D01*
X49570Y65070D02*
Y65145D01*
X50059Y65634D01*
X51031Y64031D02*
X51350Y64350D01*
Y63700D02*
X51667Y64017D01*
X35650Y64975D02*
X35775D01*
X46470Y63170D02*
X46690Y63390D01*
X46928D01*
X46866Y63125D02*
X47267D01*
X46928Y63390D02*
X47110Y63571D01*
Y64010D01*
X49600Y63644D02*
X49904Y63340D01*
X51067D01*
X51343Y63063D01*
X53421Y63050D02*
X53766Y63394D01*
X54816D01*
X51350Y63050D02*
X53421D01*
X38600Y63895D02*
X38899Y63596D01*
X44445Y62791D02*
X45044Y63390D01*
X46278D01*
X46588Y63700D01*
X45416Y63170D02*
X46470D01*
X47064Y61751D02*
X47449Y61367D01*
X46770Y61751D02*
X47064D01*
X46652Y61870D02*
X46770Y61751D01*
X44113Y61870D02*
X46650D01*
X44487Y62090D02*
X47197D01*
X46150Y62400D02*
Y62422D01*
X38020Y61710D02*
X38800D01*
X37493Y61182D02*
X38020Y61710D01*
X37670Y60960D02*
X38060Y61350D01*
X38030Y60855D02*
X38265Y61090D01*
X40273D01*
X40381Y61198D01*
Y61346D01*
X40553Y61518D01*
X39791Y61350D02*
X40133Y61692D01*
X38060Y61350D02*
X39791D01*
X39442Y61610D02*
X39709Y61877D01*
X38900Y61610D02*
X39442D01*
X46334Y70760D02*
X49642Y67452D01*
X38698Y70760D02*
X46334D01*
X46202Y70440D02*
X48897Y67745D01*
X49009D01*
X48442Y65339D02*
X48977D01*
X47760Y66171D02*
Y67632D01*
X47480Y65892D02*
X47760Y66171D01*
X48750Y57850D02*
Y57855D01*
X35739Y59949D02*
X35988Y59700D01*
X37000Y62700D02*
X37121Y62821D01*
X50380Y60130D02*
X50700Y60450D01*
X35605Y62998D02*
X35807Y63200D01*
X36000D01*
X35677Y59949D02*
X35739D01*
X35600Y65968D02*
X35832Y66200D01*
X36000D01*
X45010Y60135D02*
X45764D01*
X46077Y60448D01*
X46049Y60110D02*
X46260D01*
X45809Y59869D02*
X46049Y60110D01*
X45809Y59672D02*
Y59869D01*
X45597Y59460D02*
X45809Y59672D01*
X32325Y60425D02*
X32650Y60100D01*
X29725Y59775D02*
X30050Y60100D01*
X32000Y60750D02*
X32325Y60425D01*
X32000Y60750D02*
X32000D01*
X29725Y61725D02*
X30050Y61400D01*
X30700Y60750D01*
D25*
X17775Y84375D02*
X18059D01*
X16950D02*
X17775D01*
X49065Y66615D02*
X49075Y66625D01*
X48750Y66300D02*
X49065Y66615D01*
X46146Y66303D02*
X46157Y66314D01*
X45821Y65979D02*
X46146Y66303D01*
X45500Y65657D02*
X45821Y65979D01*
X48744Y62405D02*
X48744Y62405D01*
X48425Y62085D02*
X48744Y62405D01*
X48425Y60125D02*
X48750Y60450D01*
X48418Y60118D02*
X48425Y60125D01*
X45105Y61105D02*
X45449D01*
X45103D02*
X45105D01*
X45115Y59150D02*
X45500D01*
X45105D02*
X45115D01*
X51350Y59100D02*
X51425D01*
X51300D02*
X51350D01*
X29312Y86938D02*
X29325Y86950D01*
X29200Y86825D02*
X29312Y86938D01*
X13050Y86925D02*
Y87500D01*
X13725Y85075D02*
X15800D01*
X13450D02*
X13725D01*
X13050Y85650D02*
Y86925D01*
Y84675D02*
Y85650D01*
X12125Y85200D02*
X12850Y84475D01*
X11450Y85875D02*
X12125Y85200D01*
X12125Y83750D02*
X12850Y84475D01*
X11850Y83475D02*
X12125Y83750D01*
X18600Y82275D02*
X18600Y82275D01*
X18050Y82825D02*
X18600Y82275D01*
X13587Y83738D02*
X14250Y83075D01*
X13450Y83875D02*
X13587Y83738D01*
X49068Y65968D02*
X49074Y65974D01*
X48750Y65650D02*
X49068Y65968D01*
X51390Y61790D02*
X51850D01*
X48100Y62399D02*
X48425Y62725D01*
X47778Y62075D02*
X48100Y62399D01*
X48750Y57837D02*
X49131Y57456D01*
X16952Y85577D02*
X16952Y85577D01*
X16950Y85579D02*
X16952Y85577D01*
X16950Y85575D02*
X16952Y85577D01*
X16850Y85475D02*
X16950Y85575D01*
X45785Y62786D02*
X46150Y62422D01*
X45782Y62789D02*
X45785Y62786D01*
X51800Y64650D02*
X52095D01*
X51700D02*
X51800D01*
X8575Y85075D02*
X9900D01*
X47450Y58500D02*
X47772Y58177D01*
X48765Y59150D02*
X49170Y58745D01*
Y58275D02*
Y58745D01*
X45140Y65448D02*
Y65963D01*
Y65448D02*
X45263Y65325D01*
X45140Y65963D02*
X45481Y66304D01*
X45825Y65325D02*
X45825Y65325D01*
X46150Y65000D01*
X50700Y59150D02*
X51025Y59475D01*
X51350Y61100D02*
X51450D01*
X51775Y60775D01*
X45113Y59800D02*
X45500D01*
X47450Y62400D02*
X47778Y62075D01*
X48100Y61750D01*
X48105Y61744D01*
X36815Y71411D02*
Y71981D01*
X37715Y71411D02*
Y71981D01*
X45175Y58175D02*
X45499Y58499D01*
X45100Y58175D02*
X45175D01*
X45080D02*
X45100D01*
X51675Y60125D02*
X51700D01*
X51350Y60450D02*
X51449D01*
X51775Y60775D01*
X51349Y61749D02*
X51390Y61790D01*
X45500Y64350D02*
X46150Y65000D01*
X45825Y58175D02*
X46150Y58500D01*
X48425Y58175D02*
X48750Y58500D01*
X50700Y61750D02*
X51350Y62400D01*
X48100Y58500D02*
X48425Y58175D01*
X51350Y65000D02*
X51700Y64650D01*
X50700Y58500D02*
X51025Y58825D01*
X51350Y59800D02*
X51675Y60125D01*
X51350Y58500D02*
X51675Y58175D01*
X48100Y63050D02*
X48425Y62725D01*
X46800Y62400D02*
X47125Y62725D01*
X51025Y66625D02*
X51350Y66300D01*
Y62400D02*
X51830D01*
X51025Y58825D02*
X51300Y59100D01*
X51500Y59025D02*
X54850D01*
X51425Y59100D02*
X51500Y59025D01*
X45500Y65650D02*
Y65657D01*
X44975Y64675D02*
X45300Y65000D01*
X45500D01*
X45110Y63700D02*
X45500D01*
X51025Y65970D02*
X51345Y65650D01*
X50701Y66299D02*
X51025Y65975D01*
X50285Y67305D02*
Y68001D01*
X48750Y57855D02*
X49170Y58275D01*
X48103Y57479D02*
Y57846D01*
X48100Y57850D02*
X48103Y57846D01*
X48100Y66950D02*
Y67434D01*
X48750Y66950D02*
X48875Y67075D01*
Y67372D01*
X32000Y58200D02*
X32250Y57950D01*
X11450Y87500D02*
Y87825D01*
Y86925D02*
Y87500D01*
X28550Y62375D02*
X29075D01*
X34000Y58200D02*
X34250Y57950D01*
X34000Y58200D02*
X34000D01*
X33250Y71300D02*
Y71900D01*
X35250Y71300D02*
Y71900D01*
X15050Y79625D02*
X15575D01*
X13800Y80875D02*
X15050Y79625D01*
X13565Y80875D02*
X13800D01*
X18059Y84375D02*
X18175D01*
X18117Y84317D02*
X18175Y84375D01*
X18075Y84275D02*
X18117Y84317D01*
X16850Y84275D02*
X18075D01*
X17957Y82250D02*
X18575D01*
X17857Y82150D02*
X17957Y82250D01*
X13450Y81425D02*
Y81450D01*
X12650Y80975D02*
X13625Y80000D01*
Y79250D02*
Y80000D01*
X13050Y81390D02*
X13565Y80875D01*
X13050Y81390D02*
Y82025D01*
X11450Y81000D02*
X11675Y80775D01*
X8775Y83875D02*
X9900D01*
X9075Y83475D02*
X9900D01*
X13450Y81450D02*
Y82025D01*
X11050Y81300D02*
Y82025D01*
X11450Y81000D02*
Y82025D01*
X12650Y80975D02*
Y82025D01*
X9725Y82500D02*
X9900Y82675D01*
Y82491D02*
Y82675D01*
X11850Y82025D02*
Y83475D01*
X14650Y81561D02*
X14836Y81375D01*
X11850Y81450D02*
Y82025D01*
X17757Y82250D02*
X17857Y82150D01*
X17625Y82250D02*
X17757D01*
X17538Y82338D02*
X17625Y82250D01*
X17600Y82825D02*
X18050D01*
X16450Y83075D02*
X16700Y82825D01*
X15800Y83075D02*
X16450D01*
X17625Y84575D02*
X17775Y84725D01*
X17538Y82338D02*
Y82762D01*
X17775Y84660D02*
Y84725D01*
X13450Y82025D02*
Y83875D01*
X9243Y85482D02*
X9250Y85475D01*
X8882Y85482D02*
X9243D01*
X9250Y85475D02*
X9250Y85475D01*
X9900D01*
X16950Y85575D02*
Y85579D01*
X11050Y86925D02*
Y87650D01*
X9175Y85875D02*
X9900D01*
X14650Y81561D02*
Y82025D01*
X16850Y84275D02*
X16850Y84275D01*
X15800Y85075D02*
X16325D01*
X15800Y85475D02*
X16850D01*
X16950Y85575D01*
X11450Y85875D02*
Y86925D01*
X12850Y84475D02*
X13050Y84675D01*
X13450Y85075D01*
X12255Y91640D02*
X12381Y91514D01*
X14250Y82025D02*
Y83075D01*
X12850Y84475D02*
X13450Y83875D01*
X11450Y86925D02*
X11450Y86925D01*
X12650D02*
Y87672D01*
X9900Y85475D02*
X10875D01*
X10900Y85450D01*
X14250Y82025D02*
X14250Y82025D01*
X14250Y81450D02*
Y82025D01*
X16850Y84275D02*
X16950Y84375D01*
X15800Y84275D02*
X16850D01*
X16828Y84675D02*
X17689Y85536D01*
X12250Y86925D02*
Y88760D01*
X15800Y83475D02*
X16825D01*
X14836Y81375D02*
X16675D01*
X17200Y80850D01*
X19625D01*
X15800Y84675D02*
X16828D01*
X11675Y79725D02*
Y80775D01*
X29075Y62375D02*
X29400Y62050D01*
X32000Y58200D02*
X32000D01*
X32250Y57950D02*
X32500Y57700D01*
X2175Y96950D02*
Y97475D01*
X3100D01*
X3225Y97350D01*
X7025Y97275D02*
X7600D01*
X7675Y97350D01*
X29200Y86475D02*
Y86825D01*
X27500Y64700D02*
X27750Y64950D01*
X30000Y58200D02*
X30250Y58450D01*
D26*
X31350Y64000D02*
X32000Y63350D01*
X31025Y64325D02*
X31350Y64000D01*
X32000Y62050D02*
X32325Y61725D01*
X31350Y62700D02*
X32000Y62050D01*
X30050Y65300D02*
X30700Y64650D01*
X29725Y65625D02*
X30050Y65300D01*
Y64000D02*
X30700Y63350D01*
X29725Y64325D02*
X30050Y64000D01*
X50376Y66625D02*
Y67213D01*
Y66612D02*
Y66625D01*
X34275Y64325D02*
X34600Y64000D01*
X33950Y64650D02*
X34275Y64325D01*
X32650Y64650D02*
X33300Y64000D01*
X32325Y64975D02*
X32650Y64650D01*
X32000Y65300D02*
X32325Y64975D01*
X33950Y63350D02*
X34600Y62700D01*
X33625Y63675D02*
X33950Y63350D01*
X33300Y64000D02*
X33625Y63675D01*
Y62375D02*
X33950Y62050D01*
X33300Y62700D02*
X33625Y62375D01*
Y61075D02*
X33950Y60750D01*
X33300Y61400D02*
X33625Y61075D01*
X32650Y63350D02*
X33300Y62700D01*
X32325Y63675D02*
X32650Y63350D01*
X32000Y64000D02*
X32325Y63675D01*
X32000Y62700D02*
X32325Y62375D01*
X31350Y63350D02*
X32000Y62700D01*
X32325Y61075D02*
X32650Y60750D01*
X32000Y61400D02*
X32325Y61075D01*
X31025Y64975D02*
X31350Y64650D01*
X30700Y65300D02*
X31025Y64975D01*
X30050Y64650D02*
X30700Y64000D01*
X29725Y64975D02*
X30050Y64650D01*
X31025Y62375D02*
X31350Y62050D01*
X30700Y62700D02*
X31025Y62375D01*
X29725Y63675D02*
X30050Y63350D01*
X29400Y64000D02*
X29725Y63675D01*
X30050Y62050D02*
X30700Y61400D01*
X29725Y62375D02*
X30050Y62050D01*
X31350Y60750D02*
X32000Y60100D01*
X31025Y61075D02*
X31350Y60750D01*
X30700Y61400D02*
X31025Y61075D01*
X30050Y60750D02*
X30700Y60100D01*
X29725Y61075D02*
X30050Y60750D01*
X29400Y61400D02*
X29725Y61075D01*
X31025Y63025D02*
X31350Y62700D01*
X31025Y63675D02*
X31350Y63350D01*
X30700Y64000D02*
X31025Y63675D01*
X31350Y62050D02*
X32000Y61400D01*
X29400Y62700D02*
X29725Y62375D01*
X34600Y64650D02*
X34900Y64350D01*
X34600Y64650D02*
X34600Y64650D01*
Y64650D01*
Y64625D02*
Y64650D01*
X45263Y65325D02*
X45825D01*
X36425Y85725D02*
X36500Y85650D01*
X34600Y62700D02*
X34925Y62375D01*
X51025Y66625D02*
Y68025D01*
X50285Y67305D02*
X50376Y67213D01*
Y66612D02*
X50692Y66296D01*
X40755Y64283D02*
X41209Y63829D01*
X27850Y87975D02*
X28300Y88425D01*
X33300Y64650D02*
X33625Y64325D01*
X29400Y63350D02*
X29725Y63025D01*
X30700Y64650D02*
X31025Y64325D01*
X32325Y61725D02*
X32650Y61400D01*
X30700Y63350D02*
X31025Y63025D01*
X32325D02*
X32650Y62700D01*
X32325Y64325D02*
X32650Y64000D01*
X32000Y64650D02*
X32325Y64325D01*
X27500Y61700D02*
X27750Y61950D01*
X33750Y67450D02*
X34000Y67200D01*
X33750Y67450D02*
Y67450D01*
X31750Y67450D02*
X32000Y67200D01*
X31750Y67450D02*
Y67450D01*
X29250Y67450D02*
X29500Y67200D01*
Y67200D02*
Y67200D01*
X28000Y66700D02*
X28250Y66950D01*
X28000Y66700D02*
Y66700D01*
X26250Y68450D02*
X26500Y68200D01*
X26225Y68450D02*
X26250D01*
X26225Y56950D02*
X26475Y57200D01*
X26500D01*
X27500Y59200D02*
X27750Y58950D01*
X28250Y58450D02*
X28500Y58200D01*
X32500Y54250D02*
X33325D01*
X32500Y53650D02*
Y54250D01*
X31025Y65625D02*
X31350Y65300D01*
Y65300D02*
Y65300D01*
X32650Y62050D02*
X33300Y61400D01*
X33950Y62050D02*
X34600Y61400D01*
X33300Y65300D02*
X33950Y64650D01*
X33300Y65300D02*
X33300D01*
X34600Y63975D02*
Y64000D01*
X33950D02*
X34600Y63350D01*
X33625Y64325D02*
X33950Y64000D01*
X32650D02*
X33300Y63350D01*
X33950Y62700D02*
X34600Y62050D01*
X33625Y63025D02*
X33950Y62700D01*
X33625Y61725D02*
X33950Y61400D01*
X33625Y60425D02*
X33950Y60100D01*
X32325Y65625D02*
X32650Y65300D01*
X33300Y60750D02*
Y60750D01*
X32650Y61400D02*
X33300Y60750D01*
X30700Y60100D02*
X31025Y59775D01*
X31025D01*
X32000Y60100D02*
X32325Y59775D01*
X32325D01*
X29725Y63025D02*
X30050Y62700D01*
Y62700D02*
Y62700D01*
X33300Y60100D02*
X33625Y59775D01*
X32650Y60750D02*
X33300Y60100D01*
X30050Y63350D02*
X30700Y62700D01*
X33625Y59775D02*
X33625D01*
X29400Y64650D02*
X29725Y64325D01*
X32325Y62375D02*
X32650Y62050D01*
Y62050D02*
Y62050D01*
X31350Y64650D02*
X32000Y64000D01*
X32650Y62700D02*
X33300Y62050D01*
X32000Y63350D02*
X32325Y63025D01*
X33300Y62050D02*
Y62050D01*
X30700Y91450D02*
X30700Y91450D01*
X30700Y91450D02*
X30700Y91450D01*
X31225D01*
X31450Y90725D02*
X31700Y90475D01*
X29700Y90975D02*
Y91000D01*
X30625Y87500D02*
Y88475D01*
X30200D02*
X30625D01*
X30200Y86975D02*
X30625D01*
X29700Y86475D02*
X30200Y86975D01*
X37000Y84625D02*
X37050Y84675D01*
Y85650D01*
X36500D02*
X37050D01*
X27700Y87975D02*
X27850D01*
X28300Y88425D02*
X28700Y88825D01*
Y88975D01*
X27700Y88475D02*
X28200Y88975D01*
Y89450D01*
X29700Y90975D02*
X30200Y90475D01*
Y90475D02*
Y90475D01*
X30700Y89975D02*
Y90475D01*
X30200Y90975D02*
X30700Y90475D01*
Y90475D02*
X31200Y90975D01*
X33100Y89625D02*
X35575D01*
X32700Y89225D02*
X33100Y89625D01*
X29700Y85475D02*
Y85675D01*
X30550Y89825D02*
X30700Y89975D01*
X30550Y89575D02*
Y89825D01*
X29225Y91475D02*
X29700Y91000D01*
X30700Y90948D02*
Y90975D01*
Y91450D01*
X33950Y65300D02*
X34600Y64650D01*
Y64000D02*
X34600D01*
X34625D01*
X33950Y60750D02*
X33975D01*
X34275Y60450D01*
X33950Y61400D02*
Y61400D01*
Y61400D02*
X34600Y60750D01*
X34225Y65575D02*
X34275D01*
X33950Y65300D02*
X34225Y65575D01*
X29700Y84025D02*
Y84475D01*
X29600Y83925D02*
X29700Y84025D01*
Y85675D02*
X29950Y85925D01*
X30400Y85775D02*
X30700Y85475D01*
X30400Y85775D02*
Y86175D01*
X30625Y86400D01*
X30200Y87475D02*
X30601D01*
X30625Y87500D01*
D27*
X33250Y69825D02*
Y70400D01*
Y67450D02*
Y69825D01*
X43781Y60583D02*
X43784Y60586D01*
X43658Y60460D02*
X43781Y60583D01*
X43631Y60230D02*
X43778Y60083D01*
X19025Y88900D02*
X19260D01*
X18150D02*
X19025D01*
X2175Y95850D02*
X3225D01*
X1950D02*
X2175D01*
X15050Y86875D02*
X15820D01*
X15850Y86225D02*
X15925Y86300D01*
X28538Y61713D02*
X28575Y61750D01*
X28025Y61200D02*
X28538Y61713D01*
X36503Y67703D02*
X36510Y67696D01*
X36248Y67958D02*
X36503Y67703D01*
X37146Y57700D02*
X37396Y57450D01*
X37250Y57950D02*
X38075D01*
X37000Y58200D02*
X37250Y57950D01*
X36750Y58950D02*
X38550D01*
X38455Y58700D02*
X38885Y58270D01*
X37500Y58700D02*
X38455D01*
X40790Y65330D02*
X40915Y65205D01*
X40420Y65330D02*
X40790D01*
X40265Y65175D02*
X40420Y65330D01*
X40733Y65560D02*
X40873Y65700D01*
X40315Y65560D02*
X40733D01*
X40160Y65405D02*
X40315Y65560D01*
X39425Y65405D02*
X40160D01*
X39520Y65175D02*
X40265D01*
X44353Y69090D02*
X44492Y69230D01*
X44355Y68860D02*
X44495Y68720D01*
X39260Y56490D02*
X39380Y56610D01*
X39046Y56490D02*
X39260D01*
X37000Y62200D02*
X37245Y62445D01*
X37655D01*
X37670Y62430D01*
X38616D01*
X38686Y62360D01*
X38521Y62200D02*
X38591Y62130D01*
X37500Y62200D02*
X38521D01*
X39141Y62130D02*
X39277Y61994D01*
X37250Y67950D02*
Y68340D01*
X8300Y84675D02*
X9900D01*
X7925Y84300D02*
X8300Y84675D01*
X6950Y84300D02*
X7925D01*
X6575Y84675D02*
X6950Y84300D01*
X35525Y84700D02*
Y85725D01*
X38951Y56260D02*
X39232D01*
X39378Y56114D01*
X36250Y56245D02*
Y57450D01*
X37199Y55296D02*
X37567D01*
X36250Y56245D02*
X37199Y55296D01*
X36500Y60200D02*
X36750Y60450D01*
X38010D01*
X36500Y58700D02*
X36750Y58950D01*
X48425Y61425D02*
X48750Y61100D01*
X37650Y59970D02*
X38270D01*
X38530Y60230D01*
X43631D01*
X38550Y58950D02*
X38860Y58640D01*
X38435Y60460D02*
X43658D01*
X37515Y57685D02*
X37850D01*
X39046Y56490D01*
X46150Y59150D02*
X46475Y58825D01*
X37000Y57700D02*
X37146D01*
X37396Y57450D02*
X37760D01*
X38951Y56260D01*
X46800Y59150D02*
X47125Y58825D01*
X36000Y57700D02*
X36250Y57450D01*
X37875Y60700D02*
X38030Y60855D01*
X37500Y60700D02*
X37875D01*
X37500Y59200D02*
X38635D01*
X38875Y58960D01*
X37500Y58200D02*
X38215D01*
X38917Y57498D01*
X37500Y60200D02*
X38175D01*
X38435Y60460D01*
X48750Y63700D02*
X49075Y64025D01*
X37604Y64950D02*
X37624Y64970D01*
X37250Y64950D02*
X37604D01*
X37000Y65200D02*
X37250Y64950D01*
X48100Y63700D02*
X48425Y64025D01*
X37500Y67700D02*
X38890Y69090D01*
X44353Y69090D01*
X46150Y65650D02*
X46475Y65975D01*
X37770Y67645D02*
X38986Y68860D01*
X37770Y67588D02*
Y67645D01*
X37250Y67450D02*
X37632D01*
Y67450D02*
X37770Y67588D01*
X38986Y68860D02*
X44355D01*
X37000Y67200D02*
X37250Y67450D01*
X46800Y65650D02*
X47125Y65975D01*
X37000Y66700D02*
X37250Y66950D01*
X37660D01*
X37003Y67703D02*
X37250Y67950D01*
X36500Y66700D02*
X36750Y66450D01*
X37149Y60704D02*
X37405Y60960D01*
X48100Y61100D02*
X48425Y60775D01*
X35625Y61950D02*
X36750D01*
X37000Y61700D01*
X37000Y63700D02*
X37250Y63450D01*
X38885Y58270D02*
X39460D01*
X50050Y61750D02*
X50375Y62075D01*
X50050Y62400D02*
X50375Y62725D01*
X37500Y63700D02*
X38165D01*
X36750Y66450D02*
X37690D01*
X38075Y57950D02*
X38983Y57042D01*
X36248Y67958D02*
Y68316D01*
X37500Y65200D02*
X39220D01*
X39425Y65405D01*
X37624Y64970D02*
X39315D01*
X39520Y65175D01*
X37405Y60960D02*
X37670D01*
X38591Y62130D02*
X39141D01*
X38686Y62360D02*
X39137D01*
X39277Y62500D01*
X37250Y63450D02*
X37940D01*
X1100Y87250D02*
Y95000D01*
X1950Y95850D01*
X30200Y88975D02*
X30725D01*
X30625Y86975D02*
X30625Y86975D01*
X35525Y84700D02*
X35600Y84625D01*
X32700Y85725D02*
X35525D01*
X28200Y89450D02*
X28200Y89450D01*
X33000Y67200D02*
X33250Y67450D01*
X34500Y67200D02*
X35000D01*
X35025D01*
X19525Y88350D02*
X20013Y88838D01*
X19975Y88875D02*
X20013Y88838D01*
X17950Y88350D02*
X19525D01*
X14325Y80925D02*
X16675D01*
X13850Y81400D02*
X14325Y80925D01*
X13850Y81400D02*
Y82025D01*
X12250Y81450D02*
Y82025D01*
X12250Y82025D01*
X13450Y87237D02*
X14288Y88075D01*
X16900D01*
X13450Y86925D02*
Y87237D01*
X13850Y87237D02*
X14488Y87875D01*
X14250Y87267D02*
X14658Y87675D01*
X13850Y86925D02*
Y87237D01*
X14250Y86925D02*
Y87267D01*
X15800Y85875D02*
X16614D01*
X16764Y86025D01*
X14488Y87875D02*
X17125D01*
X18150Y88900D01*
X19260D02*
X19600Y89240D01*
X14658Y87675D02*
X17275D01*
X17950Y88350D01*
X15820Y86875D02*
X15870Y86925D01*
X18025D01*
X16764Y86025D02*
X19250D01*
X11850Y86925D02*
Y88225D01*
X16900Y88075D02*
X17075Y88250D01*
Y88700D01*
X16675Y80925D02*
X19025Y78575D01*
X19250Y86025D02*
X20200Y85075D01*
X20074Y88813D02*
X20637D01*
X19600Y89240D02*
X20810D01*
X28000Y61200D02*
X28025D01*
X20637Y88813D02*
X21288Y88162D01*
X21638Y52025D02*
Y88412D01*
X20810Y89240D02*
X21638Y88412D01*
X3225Y95850D02*
X7675D01*
X18025Y86925D02*
X18400Y86550D01*
X20075D01*
X20800Y62950D02*
X20975Y63125D01*
Y85650D01*
X20075Y86550D02*
X20975Y85650D01*
X15925Y86300D02*
X19525D01*
X19725Y55775D02*
X20825Y54675D01*
X19725Y55775D02*
Y64500D01*
X20200Y64975D01*
Y85075D01*
X19525Y86300D02*
X20600Y85225D01*
Y64575D02*
Y85225D01*
X20325Y61200D02*
Y64300D01*
X20600Y64575D01*
X35025Y67200D02*
X35250Y67425D01*
Y70045D02*
X35350Y69945D01*
X35250Y70045D02*
Y70400D01*
Y67425D02*
Y69275D01*
X35350Y69375D01*
Y69945D01*
X1100Y87250D02*
X3675Y84675D01*
X6575D01*
X11625Y88450D02*
X11850Y88225D01*
X21288Y52800D02*
Y88162D01*
D28*
X37000Y64190D02*
X37183D01*
X35750Y55625D02*
Y57950D01*
X22850Y61200D02*
X27000D01*
X22825D02*
X22850D01*
X39050Y57895D02*
X39056D01*
X38984D02*
X39050D01*
X36625Y57955D02*
X36750Y57830D01*
X36245Y57955D02*
X36625D01*
X36750Y57575D02*
Y57830D01*
X36500Y57545D02*
X36755Y57290D01*
Y56770D02*
Y57290D01*
X37250Y58450D02*
X38429D01*
X37000Y58700D02*
X37250Y58450D01*
X39340Y65665D02*
X39460D01*
X35000Y58700D02*
X35250Y58450D01*
X37088Y60200D02*
X37333Y59955D01*
X37635D01*
X37000Y60200D02*
X37088D01*
X37168Y59455D02*
X37328Y59615D01*
X38940D01*
X36500Y59200D02*
X36755Y59455D01*
X37168D01*
X38800Y59445D02*
X38965Y59280D01*
X37635Y59955D02*
X37650Y59970D01*
X37154Y59200D02*
X37399Y59445D01*
X38800D01*
X37000Y59700D02*
X37085Y59785D01*
X38430D01*
X38429Y58450D02*
X38984Y57895D01*
X36500Y57545D02*
Y57700D01*
X38430Y59785D02*
X38544Y59899D01*
X36000Y58200D02*
X36245Y57955D01*
X36515Y65200D02*
X36760Y65445D01*
X37670Y66200D02*
X37720Y66250D01*
X38890Y65825D02*
X39053Y65988D01*
X37258Y64115D02*
X38770D01*
X38900Y63985D01*
X39055D01*
X37646Y64500D02*
X39085D01*
X37601Y64455D02*
X37646Y64500D01*
X37399Y64455D02*
X37601D01*
X37183Y64190D02*
X37258Y64115D01*
X36500Y64200D02*
X36755Y63945D01*
X37820D01*
X39055Y63985D02*
X39265Y63775D01*
X39700D01*
X39085Y64500D02*
X39120Y64535D01*
X36654Y60700D02*
X36899Y60945D01*
X36500Y60700D02*
X36654D01*
X37000Y59200D02*
X37154D01*
X37096Y57450D02*
X37245Y57301D01*
Y56930D02*
Y57301D01*
X36500Y66200D02*
X36750Y65950D01*
X36875Y57450D02*
X37096D01*
X36500Y64700D02*
X36654D01*
X39725Y64535D02*
X39755Y64505D01*
X39120Y64535D02*
X39725D01*
X37692Y64305D02*
X38945D01*
X37672Y64285D02*
X37692Y64305D01*
X38945D02*
X39075Y64175D01*
X37870Y63895D02*
X38335D01*
X37820Y63945D02*
X37870Y63895D01*
X37000Y60700D02*
X37154D01*
X39075Y64175D02*
X39355D01*
X38600Y64740D02*
X39420D01*
X37500Y66200D02*
X37670D01*
X37500Y64700D02*
X38560D01*
X38600Y64740D01*
X37000Y66200D02*
X37154D01*
X36750Y57575D02*
X36875Y57450D01*
X37328Y64285D02*
X37672D01*
X37168Y64445D02*
X37328Y64285D01*
X36909Y64445D02*
X37168D01*
X36654Y64700D02*
X36909Y64445D01*
X37154Y64700D02*
X37399Y64455D01*
X37000Y64700D02*
X37154D01*
Y66200D02*
X37399Y65955D01*
X39012Y65635D02*
X39117Y65740D01*
X38085Y65635D02*
X39012D01*
X38065Y65615D02*
X38085Y65635D01*
X37200Y65615D02*
X38065D01*
X37115Y65700D02*
X37200Y65615D01*
X37000Y65700D02*
X37115D01*
X38535Y66030D02*
X38615Y66110D01*
X37930Y65825D02*
X38890D01*
X37890Y65785D02*
X37930Y65825D01*
X37328Y65785D02*
X37890D01*
X37163Y65950D02*
X37328Y65785D01*
X36751Y65950D02*
X37163D01*
X37800Y66030D02*
X38535D01*
X37725Y65955D02*
X37800Y66030D01*
X37399Y65955D02*
X37725D01*
X37720Y66250D02*
X38365D01*
X38432Y66317D01*
X39120Y65445D02*
X39340Y65665D01*
X36760Y65445D02*
X39120D01*
X39420Y64740D02*
X39535Y64855D01*
X40120D02*
X40165Y64810D01*
X39535Y64855D02*
X40120D01*
X37455Y61145D02*
X37493Y61182D01*
X37316Y61145D02*
X37455D01*
X37116Y60945D02*
X37316Y61145D01*
X36899Y60945D02*
X37116D01*
X34250Y59050D02*
Y59125D01*
X35000Y67700D02*
Y69700D01*
X29400Y60750D02*
X29725Y60425D01*
X29400Y60750D02*
X29400D01*
X33325Y55150D02*
Y55675D01*
X33500Y55850D01*
X33000Y57700D02*
X33275Y57425D01*
X33500Y55850D02*
Y57700D01*
Y58200D02*
X33750Y58450D01*
X34250D01*
X34500Y58200D01*
X30975Y88725D02*
X35575D01*
X30725Y88975D02*
X30975Y88725D01*
X31225Y91450D02*
X31450Y91225D01*
Y90725D02*
Y91225D01*
X30700Y90475D02*
Y90475D01*
X31950Y85725D02*
X32700D01*
X31700Y85475D02*
X31950Y85725D01*
X30700Y84975D02*
X30950Y84725D01*
X31200Y84965D02*
X31450Y84715D01*
X30550Y89575D02*
X30900Y89225D01*
X32700D01*
X30200Y84965D02*
Y84975D01*
X31200Y84965D02*
Y84975D01*
X27500Y57700D02*
X27750Y57450D01*
Y54675D02*
Y57450D01*
X35500Y58200D02*
X35750Y57950D01*
X34250Y58450D02*
Y59050D01*
X27260Y62940D02*
X27500Y62700D01*
X24890Y62940D02*
X27260D01*
X33275Y56475D02*
Y57425D01*
X32500Y55150D02*
Y55700D01*
X33275Y56475D01*
X32250Y67450D02*
X32500Y67200D01*
X32250Y67450D02*
Y68625D01*
X32500Y67700D02*
X32750Y67950D01*
Y68600D01*
X31500Y67700D02*
X31740Y67940D01*
X31250Y67450D02*
X31500Y67200D01*
X31250Y67450D02*
Y69350D01*
X30760Y67940D02*
X31000Y67700D01*
X30760Y67940D02*
Y68965D01*
X30250Y67450D02*
X30500Y67200D01*
X30250Y67450D02*
Y69025D01*
X28950Y84000D02*
Y89225D01*
X29700Y89975D01*
X30138Y69137D02*
X30250Y69025D01*
X30650Y69075D02*
X30760Y68965D01*
X30325Y85225D02*
X30450Y85100D01*
X32000Y67700D02*
Y69925D01*
X31740Y67940D02*
Y69635D01*
X31500Y68200D02*
Y69450D01*
X31000Y68200D02*
Y69150D01*
X29255Y83745D02*
Y84068D01*
X29950Y84725D02*
X30200Y84975D01*
X29700D02*
X29950Y85225D01*
X30325D01*
X29700Y88636D02*
X29950Y88886D01*
Y89725D01*
X30200Y89975D01*
X29460Y86574D02*
X29700Y86814D01*
Y88636D01*
X29255Y84068D02*
X29460Y84273D01*
Y86574D01*
X31725Y84975D02*
X31965Y85215D01*
X31700Y84975D02*
X31725D01*
X30950Y84275D02*
Y84725D01*
X30200Y83275D02*
Y84475D01*
X29950Y83550D02*
Y84725D01*
X31965Y85215D02*
X32510D01*
X32525Y85200D01*
X31450Y84715D02*
X32515D01*
X31200Y84475D02*
X31550Y84125D01*
X33400Y85200D02*
X33425D01*
X30450Y83850D02*
Y85100D01*
X30700Y84100D02*
Y84475D01*
X35000Y69700D02*
Y69800D01*
D29*
X37838Y68537D02*
X37850Y68550D01*
X37500Y68200D02*
X37838Y68537D01*
X36743Y66942D02*
X36750Y66935D01*
X36500Y67185D02*
X36743Y66942D01*
X52475Y61425D02*
X52500D01*
X50375D02*
X52475D01*
X36213Y55713D02*
X36225Y55700D01*
X36000Y55925D02*
X36213Y55713D01*
X37500Y57200D02*
X37795Y56905D01*
X51675Y59475D02*
X51700D01*
X51025D02*
X51675D01*
X36000Y55925D02*
Y57200D01*
X50375Y58824D02*
X50375Y55875D01*
X47125Y60125D02*
Y60130D01*
Y60585D01*
X45638Y60450D02*
X45948Y60760D01*
X46950D01*
X45500Y60450D02*
X45638D01*
X45825Y65325D02*
X45825D01*
X50050Y59150D02*
X50375Y58824D01*
X46671Y60110D02*
X47110D01*
X46361Y59800D02*
X46671Y60110D01*
X34600Y62050D02*
X34925Y61725D01*
X34600Y63350D02*
X34925Y63025D01*
X34600Y63350D02*
Y63350D01*
Y60750D02*
X34925Y60425D01*
X48749Y64350D02*
X48749Y64349D01*
X48699Y64400D02*
X48749Y64350D01*
X47076Y67310D02*
X47125Y67261D01*
X48100Y67425D02*
X48125Y67450D01*
X47125Y66625D02*
X47450Y66300D01*
X51025Y65325D02*
X51675D01*
X50700Y65000D02*
X51025Y65325D01*
X36500Y58200D02*
X36750Y58450D01*
X36500Y59700D02*
X36750Y59950D01*
X36500Y61700D02*
X36750Y61450D01*
X36250Y65950D02*
X36500Y65700D01*
X36500Y63700D02*
X36735Y63465D01*
X50735Y65615D02*
X51010Y65340D01*
X46150Y59800D02*
X46361D01*
X47775Y64879D02*
Y65325D01*
Y64879D02*
X47979Y64675D01*
X48500Y64400D02*
X48699D01*
X47775Y65325D02*
Y65775D01*
X48100Y66100D01*
Y66300D01*
X46950Y60760D02*
X47125Y60585D01*
X48225Y64675D02*
X48500Y64400D01*
X47979Y64675D02*
X48225D01*
X47125Y66625D02*
Y67261D01*
X50050Y61100D02*
X50375Y61425D01*
D30*
X54862Y60662D02*
X55225Y61025D01*
X54850Y60650D02*
X54862Y60662D01*
X48750Y62405D02*
X48766D01*
X48744D02*
X48750D01*
X50423Y54975D02*
Y54980D01*
Y54387D02*
Y54975D01*
X14075Y91000D02*
X14200Y90875D01*
X13950Y91125D02*
X14075Y91000D01*
X18649Y85526D02*
X18650Y85525D01*
X18600Y85575D02*
X18649Y85526D01*
X12227Y90673D02*
X12250Y90696D01*
X6069Y86819D02*
X6200Y86950D01*
X5775Y86525D02*
X6069Y86819D01*
X6157Y86732D02*
X6200Y86775D01*
X5925Y86500D02*
X6157Y86732D01*
X47775Y58177D02*
X47797D01*
X47772D02*
X47775D01*
X20074Y87950D02*
X20175D01*
X19325D02*
X20074D01*
X48535Y56400D02*
Y57048D01*
Y56395D02*
Y56400D01*
X48871Y55746D02*
X48873Y55744D01*
X48530Y56087D02*
X48871Y55746D01*
X4625Y85075D02*
X5675Y86125D01*
X4525Y85175D02*
X4625Y85075D01*
X48500Y54550D02*
X48675Y54375D01*
X48500Y54550D02*
Y55000D01*
X48000Y54600D02*
Y55000D01*
X7650Y84750D02*
Y85450D01*
X6025D02*
X6750D01*
X7650D02*
X8200D01*
X8575Y85075D01*
X51700Y59475D02*
X51925Y59700D01*
X54825D01*
X36225Y55275D02*
Y55700D01*
X51675Y58175D02*
X54875D01*
X54279Y65450D02*
X54875D01*
X54154Y65325D02*
X54279Y65450D01*
X51675Y65325D02*
X54154D01*
X55650Y61625D02*
X55725Y61700D01*
X55650Y61025D02*
Y61625D01*
X54775Y64650D02*
X54875Y64550D01*
X52095Y64650D02*
X54775D01*
X51700Y60125D02*
X53315D01*
X53840Y60650D02*
X54850D01*
X53315Y60125D02*
X53840Y60650D01*
X55225Y61025D02*
X55650D01*
X54325Y61700D02*
X54800D01*
X55700Y62700D02*
Y63375D01*
X51025Y68025D02*
X51200Y68200D01*
Y68860D01*
X51210Y68870D01*
X50275Y67998D02*
Y68835D01*
X48103Y57479D02*
X48535Y57048D01*
X48530Y56087D02*
Y56390D01*
X48750Y57837D02*
Y57850D01*
X8075Y78775D02*
X8550D01*
X9750Y77850D02*
X10325D01*
X10300Y76450D02*
X10300Y76450D01*
X9850Y76450D02*
X10300D01*
X27500Y61700D02*
Y61700D01*
X28525Y62350D02*
X28550Y62375D01*
X28475Y62350D02*
X28525D01*
X13525Y91125D02*
X13950D01*
X13500D02*
X13525D01*
X18575Y81450D02*
X19325D01*
X5863Y86438D02*
X5925Y86500D01*
X5675Y86250D02*
X5863Y86438D01*
X6200Y87525D02*
Y87775D01*
Y86950D02*
Y87525D01*
Y86775D02*
Y86950D01*
X5925Y86500D02*
Y86525D01*
Y86375D02*
Y86500D01*
X5863Y86438D02*
X5925Y86375D01*
X5775Y86525D02*
X5863Y86438D01*
X5675Y86125D02*
Y86250D01*
X5925Y86525D02*
X6144Y86744D01*
X5925Y86375D02*
X6214D01*
X6850D01*
X5675Y86125D02*
X5925Y86375D01*
X8550Y78775D02*
X9000D01*
X6750Y83275D02*
X6800Y83325D01*
X6100Y83275D02*
X6750D01*
X6175Y80075D02*
X6800D01*
X6175Y82175D02*
X6800D01*
X8275Y82750D02*
Y82873D01*
X7700Y82175D02*
X8275Y82750D01*
X8250Y83875D02*
X8775D01*
X7700Y83325D02*
X8250Y83875D01*
X6775Y83350D02*
X6800Y83325D01*
X8275Y82873D02*
X8550Y83148D01*
Y83155D02*
X8870Y83475D01*
X8550Y83148D02*
Y83155D01*
X8870Y83475D02*
X9075D01*
X9625Y82500D02*
X9725D01*
X18684Y85562D02*
X19012D01*
X19150Y85700D01*
X12227Y90673D02*
X12250Y90650D01*
X12400Y90500D01*
X12250Y90696D02*
X12255Y90701D01*
X18650Y87025D02*
Y87150D01*
Y87025D02*
X19000Y87375D01*
X19325Y81450D02*
X19461Y81586D01*
X3750Y90500D02*
X4250D01*
X3525Y90275D02*
X3750Y90500D01*
X3525Y89775D02*
Y90275D01*
X3250Y89500D02*
X3525Y89775D01*
X3250Y89500D02*
X4225D01*
X5075Y88650D01*
X27500Y64700D02*
Y64700D01*
X4300Y85175D02*
X4525D01*
X54025Y61400D02*
X54325Y61700D01*
X52500Y61400D02*
X54025D01*
X47925Y55800D02*
Y56350D01*
X36350Y53700D02*
Y54250D01*
X38250Y54475D02*
Y54900D01*
X38050Y54275D02*
X38250Y54475D01*
X38775Y54450D02*
Y54900D01*
Y54450D02*
X38950Y54275D01*
X49575Y68800D02*
Y69400D01*
X48675D02*
X48950Y69125D01*
Y68775D02*
Y69125D01*
D31*
X18751Y84801D02*
X19053Y84500D01*
X6325Y91175D02*
X7050D01*
X4925D02*
X6325D01*
X6075Y87650D02*
X6200Y87525D01*
X5075Y88650D02*
X6075Y87650D01*
X8188Y80363D02*
X8635Y80810D01*
X7900Y80075D02*
X8188Y80363D01*
X7550Y82025D02*
X7700Y82175D01*
X7550Y81600D02*
Y82025D01*
X6200Y87525D02*
X6250Y87475D01*
X8635Y80810D02*
Y81410D01*
X5735Y82765D02*
X7335D01*
X5350Y83150D02*
X5735Y82765D01*
X7700Y80075D02*
X7900D01*
X8635Y81410D02*
X9725Y82500D01*
X4725Y83150D02*
X5350D01*
X7335Y82765D02*
X7700Y83130D01*
Y83325D01*
X6250Y87475D02*
X6600D01*
X4250Y90500D02*
X4925Y91175D01*
D32*
X13750Y77200D02*
Y77625D01*
Y76450D02*
Y77200D01*
X9850Y76450D02*
Y77750D01*
X9750Y77850D02*
X9850Y77750D01*
X13750Y76450D02*
X13750Y76450D01*
X13625Y77750D02*
X13750Y77625D01*
X13625Y77750D02*
Y77850D01*
X15600Y89300D02*
X15675Y89225D01*
X15600Y89300D02*
Y90875D01*
D33*
X47775Y54375D02*
X48000Y54600D01*
X36225Y55700D02*
Y55725D01*
Y55275D02*
X36350Y55150D01*
X7050Y91175D02*
X8125Y90100D01*
X8250D01*
X47925Y55800D02*
X47975Y55750D01*
X49550Y68775D02*
X49575Y68800D01*
D34*
X32500Y72250D02*
X33250Y73000D01*
X32500Y68200D02*
Y72250D01*
X32775Y71941D02*
X33675Y72841D01*
X32775Y68600D02*
Y71941D01*
X32250Y68625D02*
Y70250D01*
X30950Y84275D02*
X31575Y83650D01*
Y82875D02*
Y83650D01*
X29650Y82275D02*
Y83250D01*
X29950Y83550D01*
X29300Y81900D02*
Y83700D01*
X29255Y83745D02*
X29300Y83700D01*
X30000Y82500D02*
Y83075D01*
X30200Y83275D01*
X33425Y85200D02*
X33675Y84950D01*
X32525Y85200D02*
X33400D01*
X33675Y72841D02*
Y84950D01*
X31550Y84125D02*
X32550D01*
X32775Y83900D01*
Y73250D02*
Y83900D01*
X31200Y82575D02*
X31400Y82375D01*
X32125D01*
X32350Y82150D01*
X30875Y82275D02*
X31175Y81975D01*
X31800D01*
X31925Y81850D01*
X28950Y70325D02*
X30138Y69137D01*
X28950Y70325D02*
Y84000D01*
X29375Y70350D02*
X30650Y69075D01*
X29375Y70350D02*
Y80100D01*
X29800Y70350D02*
X31000Y69150D01*
X29800Y70350D02*
Y81400D01*
X29300Y81900D02*
X29800Y81400D01*
X30225Y70375D02*
X31250Y69350D01*
X29650Y82275D02*
X30225Y81700D01*
X30650Y70300D02*
X31500Y69450D01*
X30650Y70300D02*
Y73425D01*
X31525Y74300D01*
X31075Y70300D02*
X31740Y69635D01*
X31075Y70300D02*
Y73150D01*
X31925Y74000D01*
X31500Y70425D02*
X32000Y69925D01*
X31500Y70425D02*
Y72800D01*
X32350Y73650D01*
X31925Y70575D02*
X32250Y70250D01*
X31925Y70575D02*
Y72400D01*
X32775Y73250D01*
X31525Y74300D02*
Y75350D01*
X30625Y76250D02*
X31525Y75350D01*
X30625Y76250D02*
Y77825D01*
X31125Y77575D02*
X31925Y78375D01*
X31125Y76500D02*
Y77575D01*
Y76500D02*
X31925Y75700D01*
Y74000D02*
Y75700D01*
Y78375D02*
Y81850D01*
X31600Y77325D02*
X32350Y78075D01*
X31600Y76875D02*
Y77325D01*
Y76875D02*
X32350Y76125D01*
Y73650D02*
Y76125D01*
Y78075D02*
Y82150D01*
X30450Y83850D02*
X30875Y83425D01*
Y82275D02*
Y83425D01*
X30700Y84100D02*
X31200Y83600D01*
Y82575D02*
Y83600D01*
X30625Y77825D02*
X31450Y78650D01*
X30000Y82500D02*
X31450Y81050D01*
Y78650D02*
Y78975D01*
Y80725D02*
Y81050D01*
X30225Y75900D02*
X30525Y75600D01*
Y74375D02*
Y75600D01*
X30225Y74075D02*
X30525Y74375D01*
X30225Y70375D02*
Y74075D01*
Y75900D02*
Y81700D01*
X32515Y84715D02*
X33085D01*
X33250Y84550D01*
Y73000D02*
Y84550D01*
X30675Y79750D02*
X31450Y78975D01*
X30675Y79750D02*
Y79950D01*
X31450Y80725D01*
D35*
X18117Y84317D02*
X18409Y84025D01*
X18059Y84375D02*
X18117Y84317D01*
X17775Y84659D02*
X18059Y84375D01*
X17775Y84659D02*
Y84660D01*
X18409Y84025D02*
X18625D01*
X18078Y83550D02*
X18503Y83125D01*
X16625Y83550D02*
X18078D01*
X17377Y81450D02*
X18575D01*
X16700Y82127D02*
X17377Y81450D01*
X16700Y82127D02*
Y82825D01*
X18503Y83125D02*
X18575D01*
X18625Y84025D02*
X19075Y83575D01*
X19350D01*
D36*
X12250Y91635D02*
X12255Y91640D01*
X12250Y90650D02*
Y90696D01*
Y91635D01*
D37*
X19000Y87375D02*
X19025Y87400D01*
Y87900D01*
D38*
X15675Y90875D02*
X17775D01*
D39*
X17000Y34350D02*
D03*
X40700Y33750D02*
D03*
X26125Y23150D02*
D03*
X45275Y44275D02*
D03*
X64975Y38475D02*
D03*
X65025Y52625D02*
D03*
X64950Y61125D02*
D03*
Y69550D02*
D03*
X51775Y80925D02*
D03*
X47200Y88225D02*
D03*
X7650Y84750D02*
D03*
X40452Y52475D02*
D03*
X47597Y52681D02*
D03*
X55600Y54800D02*
D03*
X4725Y83150D02*
D03*
X5350D02*
D03*
X6075Y89825D02*
D03*
Y89200D02*
D03*
X11850Y89900D02*
D03*
X12550D02*
D03*
X18575Y83125D02*
D03*
X5675Y52800D02*
D03*
X6475Y67750D02*
D03*
X15375Y44500D02*
D03*
X16600Y59050D02*
D03*
X26075Y44300D02*
D03*
X14225Y64000D02*
D03*
X18575Y82250D02*
D03*
X25500Y82925D02*
D03*
X5075Y88650D02*
D03*
X3525Y90275D02*
D03*
X12255Y91640D02*
D03*
X31650Y96450D02*
D03*
X40400Y94900D02*
D03*
X43000Y87000D02*
D03*
X64150Y94525D02*
D03*
X64950Y86775D02*
D03*
X51075Y94650D02*
D03*
X72100Y83850D02*
D03*
X81725Y91900D02*
D03*
X77800Y94450D02*
D03*
X7550Y81600D02*
D03*
X9050Y87100D02*
D03*
X19350Y83575D02*
D03*
X18650Y87025D02*
D03*
X18575Y91050D02*
D03*
X10900Y74900D02*
D03*
X11575D02*
D03*
X42750Y81500D02*
D03*
X49500Y80750D02*
D03*
X6175Y61075D02*
D03*
X14325Y68325D02*
D03*
X24750Y96475D02*
D03*
X18575Y81450D02*
D03*
X8300Y80250D02*
D03*
X10200Y74900D02*
D03*
X16950Y85575D02*
D03*
X18575Y91750D02*
D03*
X18600Y90350D02*
D03*
X6075Y88575D02*
D03*
X16450Y74625D02*
D03*
X17225Y74475D02*
D03*
X8950Y86100D02*
D03*
X4575Y43700D02*
D03*
X21250Y104175D02*
D03*
X26800Y115375D02*
D03*
X88000Y57500D02*
D03*
Y71500D02*
D03*
X40600Y103600D02*
D03*
X51150Y111950D02*
D03*
X51225Y103675D02*
D03*
X64125Y112025D02*
D03*
X76950Y112250D02*
D03*
X88000Y64750D02*
D03*
X77175Y103450D02*
D03*
X64200Y103525D02*
D03*
X40675Y111425D02*
D03*
X7775Y104275D02*
D03*
X3100Y5150D02*
D03*
X82750Y4725D02*
D03*
X44125Y4175D02*
D03*
X82625Y27975D02*
D03*
X56575Y26425D02*
D03*
X3875Y115700D02*
D03*
X9650Y110500D02*
D03*
X3650Y26550D02*
D03*
X64400Y1425D02*
D03*
X77150Y69525D02*
D03*
X75400Y61125D02*
D03*
Y52050D02*
D03*
X16475Y65300D02*
D03*
X19475Y79400D02*
D03*
X4300Y85175D02*
D03*
X2750Y73425D02*
D03*
X61125Y80775D02*
D03*
X61050Y73575D02*
D03*
X51800Y73225D02*
D03*
X44000Y73050D02*
D03*
X40200Y72875D02*
D03*
X72725Y73050D02*
D03*
X81700Y83375D02*
D03*
X25625Y6650D02*
D03*
D40*
X48500Y55000D02*
D03*
X48000D02*
D03*
X38250Y54900D02*
D03*
X38775D02*
D03*
X34900Y64325D02*
D03*
X34925Y61725D02*
D03*
Y63025D02*
D03*
X51875Y70100D02*
D03*
X37300Y98100D02*
D03*
X27375Y98125D02*
D03*
X19200Y98150D02*
D03*
X11075Y98125D02*
D03*
X53125Y66875D02*
D03*
X45825Y65325D02*
D03*
X49062Y65975D02*
D03*
X51675Y59475D02*
D03*
X36175Y53050D02*
D03*
X35725Y55625D02*
D03*
X36225Y55725D02*
D03*
X36815Y71410D02*
D03*
X39277Y62500D02*
D03*
X48425Y61425D02*
D03*
X44465Y57710D02*
D03*
X39050Y57900D02*
D03*
X39380Y56610D02*
D03*
X46475Y58825D02*
D03*
X39380Y56110D02*
D03*
X47125Y58825D02*
D03*
X43716Y56794D02*
D03*
X44298Y56989D02*
D03*
X39790Y57035D02*
D03*
X47125Y60130D02*
D03*
X47775Y58175D02*
D03*
X49065Y59475D02*
D03*
X40905Y65710D02*
D03*
X49075Y64025D02*
D03*
X40915Y65205D02*
D03*
X48425Y64025D02*
D03*
X44492Y69230D02*
D03*
X46475Y65975D02*
D03*
X44495Y68720D02*
D03*
X47125Y65975D02*
D03*
X49060Y66620D02*
D03*
X45906Y68628D02*
D03*
X42465Y59880D02*
D03*
X50375Y59475D02*
D03*
X49725Y60775D02*
D03*
X43780Y60085D02*
D03*
X48425Y60775D02*
D03*
X43780Y60585D02*
D03*
X48950Y68775D02*
D03*
X35625Y61950D02*
D03*
X37715Y71410D02*
D03*
X48860Y67385D02*
D03*
X50423Y54387D02*
D03*
X48125Y67450D02*
D03*
X35650Y64475D02*
D03*
X34925Y60425D02*
D03*
Y62375D02*
D03*
X34900Y63675D02*
D03*
X35650Y60935D02*
D03*
X50375Y60125D02*
D03*
X35650Y64975D02*
D03*
X51675Y65325D02*
D03*
X50375Y66625D02*
D03*
X51800Y64650D02*
D03*
X51025Y66625D02*
D03*
X51675Y58175D02*
D03*
X51025Y58825D02*
D03*
X51700Y60125D02*
D03*
X37045Y55945D02*
D03*
X38425Y56105D02*
D03*
X37581Y55294D02*
D03*
X38080Y55735D02*
D03*
X38145Y56525D02*
D03*
X51775Y60775D02*
D03*
X35600Y65945D02*
D03*
X35650Y63950D02*
D03*
X50375Y60775D02*
D03*
X35625Y62950D02*
D03*
X51025Y64025D02*
D03*
X50375Y65325D02*
D03*
X51675Y64025D02*
D03*
X35285Y59605D02*
D03*
X48425Y59475D02*
D03*
X35660Y59950D02*
D03*
X40055Y57495D02*
D03*
X50375Y62075D02*
D03*
X48425Y58825D02*
D03*
X47775Y59475D02*
D03*
Y58825D02*
D03*
X39460Y58270D02*
D03*
X46475Y65325D02*
D03*
X38521Y62821D02*
D03*
X44975Y64675D02*
D03*
X44450Y62775D02*
D03*
X46475Y62725D02*
D03*
X47125Y65325D02*
D03*
Y64675D02*
D03*
X47775Y65325D02*
D03*
X46475Y64675D02*
D03*
X45180Y57525D02*
D03*
X49725Y59475D02*
D03*
X47075Y67325D02*
D03*
X47775Y62725D02*
D03*
X48425D02*
D03*
X49130Y62725D02*
D03*
X47125Y62725D02*
D03*
X45775Y62775D02*
D03*
X45025D02*
D03*
X45100Y58175D02*
D03*
X39700Y63775D02*
D03*
X39277Y61994D02*
D03*
X39355Y64175D02*
D03*
X38900Y63596D02*
D03*
X39775Y66710D02*
D03*
X40300Y66195D02*
D03*
X39925Y65830D02*
D03*
X39395Y66330D02*
D03*
X40165Y64810D02*
D03*
X39755Y64505D02*
D03*
X35585Y59130D02*
D03*
X50375Y62725D02*
D03*
X51850Y61800D02*
D03*
X51845Y62400D02*
D03*
X48525Y56400D02*
D03*
X51025Y57525D02*
D03*
X55650Y61025D02*
D03*
X55700Y62700D02*
D03*
X44475Y64675D02*
D03*
X49600Y64220D02*
D03*
X49570Y65070D02*
D03*
X50375Y64025D02*
D03*
X49600Y63644D02*
D03*
X49130Y62085D02*
D03*
X38170Y63200D02*
D03*
X8075Y78775D02*
D03*
X9000D02*
D03*
X13225Y78725D02*
D03*
X14200Y78725D02*
D03*
X28525Y62350D02*
D03*
X6175Y80075D02*
D03*
Y82175D02*
D03*
X6100Y83275D02*
D03*
X4250Y83801D02*
D03*
X12000Y83875D02*
D03*
X12850Y84475D02*
D03*
X12875Y83225D02*
D03*
X22125Y62350D02*
D03*
X22550Y78900D02*
D03*
Y81100D02*
D03*
Y83250D02*
D03*
X3750Y85750D02*
D03*
X7025Y97275D02*
D03*
X12875Y85650D02*
D03*
X28300Y88425D02*
D03*
X29725Y61075D02*
D03*
X31025D02*
D03*
Y62375D02*
D03*
X32325D02*
D03*
Y63675D02*
D03*
X33625Y62375D02*
D03*
X31025Y63675D02*
D03*
X29725Y64975D02*
D03*
X30625Y86400D02*
D03*
Y88475D02*
D03*
X33625Y63675D02*
D03*
X34075Y79450D02*
D03*
X35250Y71900D02*
D03*
X37050Y85650D02*
D03*
X20800Y62950D02*
D03*
X24890Y62940D02*
D03*
X28525Y61725D02*
D03*
X9075Y90650D02*
D03*
X9450Y90250D02*
D03*
X9900D02*
D03*
X20825Y54675D02*
D03*
X32900Y53125D02*
D03*
X34250Y59050D02*
D03*
X29725Y59775D02*
D03*
Y61725D02*
D03*
X30550Y89575D02*
D03*
X35000Y69700D02*
D03*
X22850Y61200D02*
D03*
X29725Y64325D02*
D03*
Y65625D02*
D03*
X32325Y61725D02*
D03*
X31025Y63025D02*
D03*
X32325D02*
D03*
X31025Y65625D02*
D03*
X32325D02*
D03*
X32500Y55700D02*
D03*
X33250Y69825D02*
D03*
X31575Y82875D02*
D03*
X30625Y86975D02*
D03*
X29725Y63675D02*
D03*
Y62375D02*
D03*
X33625Y63025D02*
D03*
Y61725D02*
D03*
X29725Y63025D02*
D03*
X32325Y64325D02*
D03*
X31025Y64975D02*
D03*
Y59775D02*
D03*
X29725Y60425D02*
D03*
X31025Y64325D02*
D03*
X32325Y59775D02*
D03*
Y60425D02*
D03*
Y61075D02*
D03*
X33625Y59775D02*
D03*
Y61075D02*
D03*
Y60425D02*
D03*
Y64325D02*
D03*
X33650Y65600D02*
D03*
X31025Y60425D02*
D03*
Y61725D02*
D03*
X32325Y64975D02*
D03*
X30625Y87500D02*
D03*
X29950Y85925D02*
D03*
X30700Y91450D02*
D03*
X28200Y89450D02*
D03*
X29225Y91475D02*
D03*
X34275Y65575D02*
D03*
X33250Y71900D02*
D03*
X13725Y78725D02*
D03*
Y83875D02*
D03*
Y85075D02*
D03*
X12000D02*
D03*
X8550Y78775D02*
D03*
X14600Y85650D02*
D03*
Y84475D02*
D03*
Y83225D02*
D03*
X11125D02*
D03*
Y84450D02*
D03*
X11150Y85650D02*
D03*
X17075Y88700D02*
D03*
X22000Y76775D02*
D03*
X4250Y90500D02*
D03*
X3250Y89500D02*
D03*
X2750Y81750D02*
D03*
X11625Y88450D02*
D03*
X19025Y78575D02*
D03*
X34075Y81125D02*
D03*
X29600Y83925D02*
D03*
X29300Y86950D02*
D03*
X29375Y80100D02*
D03*
X20325Y61200D02*
D03*
X32500Y53650D02*
D03*
X27750Y54675D02*
D03*
X22025Y53150D02*
D03*
X21288Y52800D02*
D03*
X21638Y52025D02*
D03*
X2175Y97475D02*
D03*
X1475Y92975D02*
D03*
X6725Y77000D02*
D03*
X7450Y89800D02*
D03*
X8375Y76450D02*
D03*
X8150Y93100D02*
D03*
X12100Y96500D02*
D03*
X6050Y93475D02*
D03*
X52475Y61400D02*
D03*
X49150Y57475D02*
D03*
X47925Y56350D02*
D03*
X36350Y53700D02*
D03*
X49550Y68775D02*
D03*
X29175Y52375D02*
D03*
D41*
X37795Y56905D02*
D03*
X37850Y68525D02*
D03*
X6025Y85450D02*
D03*
X35250Y58450D02*
D03*
X45825Y65975D02*
D03*
X48425Y62085D02*
D03*
X36750Y58450D02*
D03*
Y59950D02*
D03*
Y61450D02*
D03*
Y63450D02*
D03*
X36250Y65950D02*
D03*
X45825Y58175D02*
D03*
X51025Y65975D02*
D03*
X48425Y58175D02*
D03*
X45105Y61100D02*
D03*
Y59800D02*
D03*
X45115Y59150D02*
D03*
X36750Y66950D02*
D03*
X40755Y64283D02*
D03*
X45105Y63700D02*
D03*
X48425Y60125D02*
D03*
X32250Y57950D02*
D03*
X27750Y61950D02*
D03*
X34250Y57950D02*
D03*
X14225Y91950D02*
D03*
X33750Y67450D02*
D03*
X31750Y67450D02*
D03*
X29250Y67450D02*
D03*
X28250Y66950D02*
D03*
Y58450D02*
D03*
X26225Y68450D02*
D03*
Y56950D02*
D03*
X27750Y58950D02*
D03*
X34275Y64325D02*
D03*
Y60450D02*
D03*
X11450Y87850D02*
D03*
Y87500D02*
D03*
X7900Y89375D02*
D03*
X6325Y90850D02*
D03*
X6375Y91550D02*
D03*
X7700Y91175D02*
D03*
X17050Y80150D02*
D03*
X15750Y75600D02*
D03*
X6800Y79400D02*
D03*
X7550D02*
D03*
X7675Y77625D02*
D03*
X8825Y78175D02*
D03*
X14325Y74825D02*
D03*
X12375Y74700D02*
D03*
X14050Y77200D02*
D03*
X13375D02*
D03*
X11050Y78650D02*
D03*
X16325Y78625D02*
D03*
X14825D02*
D03*
X18050Y82825D02*
D03*
X14800Y90000D02*
D03*
Y88425D02*
D03*
X12825Y90650D02*
D03*
X13525Y91125D02*
D03*
X11650Y90650D02*
D03*
X3400Y91825D02*
D03*
X7050Y91925D02*
D03*
X6850Y90350D02*
D03*
X8475Y89375D02*
D03*
X6200Y87775D02*
D03*
X6144Y86744D02*
D03*
X6214Y86375D02*
D03*
X8911Y80125D02*
D03*
X10300Y76450D02*
D03*
X9400D02*
D03*
X10325Y77850D02*
D03*
X9175D02*
D03*
X13450Y81450D02*
D03*
X12250D02*
D03*
X11850D02*
D03*
X19053Y84500D02*
D03*
X19150Y85700D02*
D03*
X8882Y85482D02*
D03*
X9250Y85475D02*
D03*
X7325Y76500D02*
D03*
X6275Y77950D02*
D03*
Y78800D02*
D03*
X16325Y85075D02*
D03*
X13075Y87500D02*
D03*
X14250Y81450D02*
D03*
X27750Y64950D02*
D03*
X30250Y58450D02*
D03*
M02*
