G04 Layer_Color=8388736*
%FSLAX43Y43*%
%MOMM*%
G71*
G01*
G75*
%ADD40C,0.400*%
%ADD43R,0.610X0.660*%
%ADD44R,0.610X0.800*%
%ADD45R,0.800X0.610*%
%ADD46R,0.660X0.610*%
%ADD47R,0.900X0.300*%
%ADD48R,0.300X0.900*%
%ADD49R,4.700X3.700*%
%ADD50R,2.100X0.900*%
%ADD51R,0.900X2.100*%
%ADD52R,0.990X0.740*%
%ADD53R,0.740X0.990*%
%ADD54R,0.850X1.100*%
%ADD55C,0.330*%
D40*
X51350Y57200D02*
D03*
X50700D02*
D03*
X46150D02*
D03*
X45500D02*
D03*
X51350Y57850D02*
D03*
X50700D02*
D03*
X50050D02*
D03*
X48750D02*
D03*
X48100D02*
D03*
X47450D02*
D03*
X46800D02*
D03*
X46150D02*
D03*
X45500D02*
D03*
X51350Y58500D02*
D03*
X50700D02*
D03*
X50050D02*
D03*
X48750D02*
D03*
X48100D02*
D03*
X47450D02*
D03*
X46800D02*
D03*
X46150D02*
D03*
X45500D02*
D03*
X51350Y59150D02*
D03*
X50700D02*
D03*
X50050D02*
D03*
X48100D02*
D03*
X47450D02*
D03*
X46800D02*
D03*
X48750D02*
D03*
X46150D02*
D03*
X45500D02*
D03*
Y59800D02*
D03*
X46150D02*
D03*
X48750D02*
D03*
X46800D02*
D03*
X47450D02*
D03*
X48100D02*
D03*
X50050D02*
D03*
X50700D02*
D03*
X51350D02*
D03*
Y62400D02*
D03*
X50700D02*
D03*
X50050D02*
D03*
X48100D02*
D03*
X47450D02*
D03*
X46800D02*
D03*
X48750D02*
D03*
X46150D02*
D03*
X48750Y61750D02*
D03*
X48100D02*
D03*
X50050D02*
D03*
X50700D02*
D03*
X51350D02*
D03*
X45500Y61100D02*
D03*
X46150D02*
D03*
X46800D02*
D03*
X47450D02*
D03*
X48100D02*
D03*
X48750D02*
D03*
X50050D02*
D03*
X50700D02*
D03*
X51350D02*
D03*
X45500Y60450D02*
D03*
X46150D02*
D03*
X46800D02*
D03*
X47450D02*
D03*
X48100D02*
D03*
X48750D02*
D03*
X50050D02*
D03*
X50700D02*
D03*
X51350D02*
D03*
Y65000D02*
D03*
X50700D02*
D03*
X50050D02*
D03*
X48100D02*
D03*
X47450D02*
D03*
X46800D02*
D03*
X48750D02*
D03*
X46150D02*
D03*
X45500D02*
D03*
Y64350D02*
D03*
X46150D02*
D03*
X48750D02*
D03*
X46800D02*
D03*
X47450D02*
D03*
X48100D02*
D03*
X50050D02*
D03*
X50700D02*
D03*
X51350D02*
D03*
X45500Y63700D02*
D03*
X46150D02*
D03*
X46800D02*
D03*
X47450D02*
D03*
X48100D02*
D03*
X48750D02*
D03*
X50050D02*
D03*
X50700D02*
D03*
X51350D02*
D03*
X48100Y63050D02*
D03*
X48750D02*
D03*
X50050D02*
D03*
X50700D02*
D03*
X51350D02*
D03*
Y67600D02*
D03*
X50700D02*
D03*
X46150D02*
D03*
X45500D02*
D03*
Y66950D02*
D03*
X46150D02*
D03*
X48750D02*
D03*
X46800D02*
D03*
X47450D02*
D03*
X48100D02*
D03*
X50050D02*
D03*
X50700D02*
D03*
X51350D02*
D03*
X45500Y66300D02*
D03*
X46150D02*
D03*
X46800D02*
D03*
X47450D02*
D03*
X48100D02*
D03*
X48750D02*
D03*
X50050D02*
D03*
X50700D02*
D03*
X51350D02*
D03*
X45500Y65650D02*
D03*
X46150D02*
D03*
X46800D02*
D03*
X47450D02*
D03*
X48100D02*
D03*
X48750D02*
D03*
X50050D02*
D03*
X50700D02*
D03*
X51350D02*
D03*
D43*
X6750Y85450D02*
D03*
X7650D02*
D03*
X36425Y85725D02*
D03*
X35525D02*
D03*
X48675Y69400D02*
D03*
X49575D02*
D03*
X48675Y54375D02*
D03*
X47775D02*
D03*
X38950Y54275D02*
D03*
X38050D02*
D03*
X36825Y72000D02*
D03*
X37725D02*
D03*
X17784Y85562D02*
D03*
X18684D02*
D03*
X6800Y83325D02*
D03*
X7700D02*
D03*
X6800Y80075D02*
D03*
X7700D02*
D03*
X18675Y84725D02*
D03*
X17775D02*
D03*
X17600Y82825D02*
D03*
X16700D02*
D03*
X6800Y82175D02*
D03*
X7700D02*
D03*
X51225Y68925D02*
D03*
X50325D02*
D03*
X54850Y61675D02*
D03*
X55750D02*
D03*
X48875Y55750D02*
D03*
X47975D02*
D03*
D44*
X40275Y63775D02*
D03*
X41175D02*
D03*
X55750Y63400D02*
D03*
X54850D02*
D03*
D45*
X50375Y54975D02*
D03*
Y55875D02*
D03*
X19625Y80850D02*
D03*
Y81750D02*
D03*
X20074Y87913D02*
D03*
Y88813D02*
D03*
X19025Y87900D02*
D03*
Y88800D02*
D03*
X35575Y88725D02*
D03*
Y89625D02*
D03*
D46*
X36350Y55150D02*
D03*
Y54250D02*
D03*
X54875Y59750D02*
D03*
Y60650D02*
D03*
X2175Y96050D02*
D03*
Y96950D02*
D03*
X32500Y54250D02*
D03*
Y55150D02*
D03*
X33250Y71300D02*
D03*
Y70400D02*
D03*
X35250Y71300D02*
D03*
Y70400D02*
D03*
X33325Y54250D02*
D03*
Y55150D02*
D03*
X54875Y65450D02*
D03*
Y64550D02*
D03*
Y58125D02*
D03*
Y59025D02*
D03*
D47*
X9900Y84675D02*
D03*
Y84275D02*
D03*
Y83875D02*
D03*
Y83475D02*
D03*
Y83075D02*
D03*
Y82675D02*
D03*
Y85075D02*
D03*
Y85475D02*
D03*
Y85875D02*
D03*
Y86275D02*
D03*
X15800D02*
D03*
Y85875D02*
D03*
Y85475D02*
D03*
Y85075D02*
D03*
Y84675D02*
D03*
Y82675D02*
D03*
Y83075D02*
D03*
Y83475D02*
D03*
Y83875D02*
D03*
Y84275D02*
D03*
D48*
X15050Y86925D02*
D03*
X12650Y82025D02*
D03*
X13050D02*
D03*
X13450D02*
D03*
X13850D02*
D03*
X14250D02*
D03*
X14650D02*
D03*
X12250D02*
D03*
X11850D02*
D03*
X11450D02*
D03*
X11050D02*
D03*
X10650D02*
D03*
X11050Y86925D02*
D03*
X11450D02*
D03*
X11850D02*
D03*
X12250D02*
D03*
X12650D02*
D03*
X14650D02*
D03*
X14250D02*
D03*
X13850D02*
D03*
X13450D02*
D03*
X13050D02*
D03*
X10650D02*
D03*
X15050Y82025D02*
D03*
D49*
X12850Y84475D02*
D03*
D50*
X11675Y79625D02*
D03*
Y77625D02*
D03*
X15575Y79625D02*
D03*
Y77625D02*
D03*
X10275Y88900D02*
D03*
Y90900D02*
D03*
D51*
X13675Y89225D02*
D03*
X15675D02*
D03*
D52*
X13625Y77850D02*
D03*
Y79250D02*
D03*
X8250Y90100D02*
D03*
Y88700D02*
D03*
X9750Y77850D02*
D03*
Y79250D02*
D03*
X12250Y90650D02*
D03*
Y89250D02*
D03*
D53*
X7050Y91175D02*
D03*
X8450D02*
D03*
X6875Y87625D02*
D03*
X8275D02*
D03*
X9850Y76450D02*
D03*
X11250D02*
D03*
X13750Y76450D02*
D03*
X15150D02*
D03*
X14225Y91150D02*
D03*
X15625D02*
D03*
X8275Y86350D02*
D03*
X6875D02*
D03*
X37000Y84625D02*
D03*
X35600D02*
D03*
D54*
X3225Y95850D02*
D03*
Y97350D02*
D03*
X7675Y95850D02*
D03*
Y97350D02*
D03*
D55*
X26500Y68200D02*
D03*
X27000D02*
D03*
X27500D02*
D03*
X28000D02*
D03*
X28500D02*
D03*
X29500D02*
D03*
X30000D02*
D03*
X31000D02*
D03*
X31500D02*
D03*
X32500D02*
D03*
X33000D02*
D03*
X34000D02*
D03*
X34500D02*
D03*
X35500D02*
D03*
X36000D02*
D03*
X36500D02*
D03*
X37000D02*
D03*
X37500D02*
D03*
X26500Y67700D02*
D03*
X27000D02*
D03*
X27500D02*
D03*
X28000D02*
D03*
X28500D02*
D03*
X29000D02*
D03*
X29500D02*
D03*
X30000D02*
D03*
X30500D02*
D03*
X31000D02*
D03*
X31500D02*
D03*
X32000D02*
D03*
X32500D02*
D03*
X33000D02*
D03*
X33500D02*
D03*
X34000D02*
D03*
X34500D02*
D03*
X35000D02*
D03*
X35500D02*
D03*
X36000D02*
D03*
X36500D02*
D03*
X37000D02*
D03*
X37500D02*
D03*
X26500Y67200D02*
D03*
X27000D02*
D03*
X27500D02*
D03*
X28000D02*
D03*
X28500D02*
D03*
X29000D02*
D03*
X29500D02*
D03*
X30000D02*
D03*
X30500D02*
D03*
X31000D02*
D03*
X31500D02*
D03*
X32000D02*
D03*
X32500D02*
D03*
X33000D02*
D03*
X33500D02*
D03*
X34000D02*
D03*
X34500D02*
D03*
X35000D02*
D03*
X35500D02*
D03*
X36000D02*
D03*
X36500D02*
D03*
X37000D02*
D03*
X37500D02*
D03*
X26500Y66700D02*
D03*
X27000D02*
D03*
X27500D02*
D03*
X28000D02*
D03*
X28500D02*
D03*
X29000D02*
D03*
X29500D02*
D03*
X30000D02*
D03*
X30500D02*
D03*
X31000D02*
D03*
X31500D02*
D03*
X32000D02*
D03*
X32500D02*
D03*
X33000D02*
D03*
X33500D02*
D03*
X34000D02*
D03*
X34500D02*
D03*
X35000D02*
D03*
X35500D02*
D03*
X36000D02*
D03*
X36500D02*
D03*
X37000D02*
D03*
X37500D02*
D03*
X26500Y66200D02*
D03*
X27000D02*
D03*
X27500D02*
D03*
X28000D02*
D03*
X36000D02*
D03*
X36500D02*
D03*
X37000D02*
D03*
X37500D02*
D03*
X27000Y65700D02*
D03*
X27500D02*
D03*
X28000D02*
D03*
X36000D02*
D03*
X36500D02*
D03*
X37000D02*
D03*
X26500Y65200D02*
D03*
X27000D02*
D03*
X27500D02*
D03*
X28000D02*
D03*
X36000D02*
D03*
X36500D02*
D03*
X37000D02*
D03*
X37500D02*
D03*
X26500Y64700D02*
D03*
X27000D02*
D03*
X27500D02*
D03*
X28000D02*
D03*
X30050Y65300D02*
D03*
X30700D02*
D03*
X31350D02*
D03*
X32000D02*
D03*
X32650D02*
D03*
X33300D02*
D03*
X33950D02*
D03*
X36000Y64700D02*
D03*
X36500D02*
D03*
X37000D02*
D03*
X37500D02*
D03*
X27000Y64200D02*
D03*
X27500D02*
D03*
X28000D02*
D03*
X29400Y64650D02*
D03*
X30050D02*
D03*
X30700D02*
D03*
X31350D02*
D03*
X32000D02*
D03*
X32650D02*
D03*
X33300D02*
D03*
X33950D02*
D03*
X34600D02*
D03*
X36000Y64200D02*
D03*
X36500D02*
D03*
X37000D02*
D03*
X26500Y63700D02*
D03*
X27000D02*
D03*
X27500D02*
D03*
X28000D02*
D03*
X29400Y64000D02*
D03*
X30050D02*
D03*
X30700D02*
D03*
X31350D02*
D03*
X32000D02*
D03*
X32650D02*
D03*
X33300D02*
D03*
X33950D02*
D03*
X34600D02*
D03*
X36000Y63700D02*
D03*
X36500D02*
D03*
X37000D02*
D03*
X37500D02*
D03*
X26500Y63200D02*
D03*
X27000D02*
D03*
X27500D02*
D03*
X28000D02*
D03*
X29400Y63350D02*
D03*
X30050D02*
D03*
X30700D02*
D03*
X31350D02*
D03*
X32000D02*
D03*
X32650D02*
D03*
X33300D02*
D03*
X33950D02*
D03*
X34600D02*
D03*
X36000Y63200D02*
D03*
X36500D02*
D03*
X37000D02*
D03*
X37500D02*
D03*
X27000Y62700D02*
D03*
X27500D02*
D03*
X28000D02*
D03*
X29400D02*
D03*
X30050D02*
D03*
X30700D02*
D03*
X31350D02*
D03*
X32000D02*
D03*
X32650D02*
D03*
X33300D02*
D03*
X33950D02*
D03*
X34600D02*
D03*
X36000D02*
D03*
X36500D02*
D03*
X37000D02*
D03*
X26500Y62200D02*
D03*
X27000D02*
D03*
X27500D02*
D03*
X28000D02*
D03*
X29400Y62050D02*
D03*
X30050D02*
D03*
X30700D02*
D03*
X31350D02*
D03*
X32000D02*
D03*
X32650D02*
D03*
X33300D02*
D03*
X33950D02*
D03*
X34600D02*
D03*
X36000Y62200D02*
D03*
X36500D02*
D03*
X37000D02*
D03*
X37500D02*
D03*
X26500Y61700D02*
D03*
X27000D02*
D03*
X27500D02*
D03*
X28000D02*
D03*
X29400Y61400D02*
D03*
X30050D02*
D03*
X30700D02*
D03*
X31350D02*
D03*
X32000D02*
D03*
X32650D02*
D03*
X33300D02*
D03*
X33950D02*
D03*
X34600D02*
D03*
X36000Y61700D02*
D03*
X36500D02*
D03*
X37000D02*
D03*
X37500D02*
D03*
X27000Y61200D02*
D03*
X27500D02*
D03*
X28000D02*
D03*
X29400Y60750D02*
D03*
X30050D02*
D03*
X30700D02*
D03*
X31350D02*
D03*
X32000D02*
D03*
X32650D02*
D03*
X33300D02*
D03*
X33950D02*
D03*
X34600D02*
D03*
X36000Y61200D02*
D03*
X36500D02*
D03*
X37000D02*
D03*
X26500Y60700D02*
D03*
X27000D02*
D03*
X27500D02*
D03*
X28000D02*
D03*
X30050Y60100D02*
D03*
X30700D02*
D03*
X31350D02*
D03*
X32000D02*
D03*
X32650D02*
D03*
X33300D02*
D03*
X33950D02*
D03*
X36000Y60700D02*
D03*
X36500D02*
D03*
X37000D02*
D03*
X37500D02*
D03*
X26500Y60200D02*
D03*
X27000D02*
D03*
X27500D02*
D03*
X28000D02*
D03*
X36000D02*
D03*
X36500D02*
D03*
X37000D02*
D03*
X37500D02*
D03*
X27000Y59700D02*
D03*
X27500D02*
D03*
X28000D02*
D03*
X36000D02*
D03*
X36500D02*
D03*
X37000D02*
D03*
X26500Y59200D02*
D03*
X27000D02*
D03*
X27500D02*
D03*
X28000D02*
D03*
X36000D02*
D03*
X36500D02*
D03*
X37000D02*
D03*
X37500D02*
D03*
X26500Y58700D02*
D03*
X27000D02*
D03*
X27500D02*
D03*
X28000D02*
D03*
X28500D02*
D03*
X29000D02*
D03*
X29500D02*
D03*
X30000D02*
D03*
X30500D02*
D03*
X31000D02*
D03*
X31500D02*
D03*
X32000D02*
D03*
X32500D02*
D03*
X33000D02*
D03*
X33500D02*
D03*
X34000D02*
D03*
X34500D02*
D03*
X35000D02*
D03*
X35500D02*
D03*
X36000D02*
D03*
X36500D02*
D03*
X37000D02*
D03*
X37500D02*
D03*
X26500Y58200D02*
D03*
X27000D02*
D03*
X27500D02*
D03*
X28000D02*
D03*
X28500D02*
D03*
X29000D02*
D03*
X29500D02*
D03*
X30000D02*
D03*
X30500D02*
D03*
X31000D02*
D03*
X31500D02*
D03*
X32000D02*
D03*
X32500D02*
D03*
X33000D02*
D03*
X33500D02*
D03*
X34000D02*
D03*
X34500D02*
D03*
X35000D02*
D03*
X35500D02*
D03*
X36000D02*
D03*
X36500D02*
D03*
X37000D02*
D03*
X37500D02*
D03*
X26500Y57700D02*
D03*
X27000D02*
D03*
X27500D02*
D03*
X28000D02*
D03*
X28500D02*
D03*
X29000D02*
D03*
X29500D02*
D03*
X30000D02*
D03*
X30500D02*
D03*
X31000D02*
D03*
X31500D02*
D03*
X32000D02*
D03*
X32500D02*
D03*
X33000D02*
D03*
X33500D02*
D03*
X34000D02*
D03*
X34500D02*
D03*
X35000D02*
D03*
X35500D02*
D03*
X36000D02*
D03*
X36500D02*
D03*
X37000D02*
D03*
X37500D02*
D03*
X26500Y57200D02*
D03*
X27000D02*
D03*
X27500D02*
D03*
X28000D02*
D03*
X28500D02*
D03*
X29500D02*
D03*
X30000D02*
D03*
X31000D02*
D03*
X31500D02*
D03*
X32500D02*
D03*
X33000D02*
D03*
X34000D02*
D03*
X34500D02*
D03*
X35500D02*
D03*
X36000D02*
D03*
X36500D02*
D03*
X37000D02*
D03*
X37500D02*
D03*
X25700Y90975D02*
D03*
X26200D02*
D03*
X26700D02*
D03*
X27200D02*
D03*
X27700D02*
D03*
X28200D02*
D03*
X28700D02*
D03*
X29200D02*
D03*
X29700D02*
D03*
X30200D02*
D03*
X30700D02*
D03*
X31200D02*
D03*
X31700D02*
D03*
X32200D02*
D03*
X25700Y90475D02*
D03*
X26200D02*
D03*
X26700D02*
D03*
X27200D02*
D03*
X27700D02*
D03*
X28200D02*
D03*
X28700D02*
D03*
X29200D02*
D03*
X29700D02*
D03*
X30200D02*
D03*
X30700D02*
D03*
X31200D02*
D03*
X31700D02*
D03*
X32200D02*
D03*
X25700Y89975D02*
D03*
X26200D02*
D03*
X26700D02*
D03*
X27200D02*
D03*
X27700D02*
D03*
X28200D02*
D03*
X28700D02*
D03*
X29200D02*
D03*
X29700D02*
D03*
X30200D02*
D03*
X30700D02*
D03*
X31200D02*
D03*
X31700D02*
D03*
X32200D02*
D03*
X25700Y89475D02*
D03*
X26200D02*
D03*
X26700D02*
D03*
X31200D02*
D03*
X31700D02*
D03*
X32200D02*
D03*
X25700Y88975D02*
D03*
X26200D02*
D03*
X26700D02*
D03*
X27700D02*
D03*
X28200D02*
D03*
X28700D02*
D03*
X29200D02*
D03*
X29700D02*
D03*
X30200D02*
D03*
X31200D02*
D03*
X31700D02*
D03*
X32200D02*
D03*
X25700Y88475D02*
D03*
X26200D02*
D03*
X26700D02*
D03*
X27700D02*
D03*
X30200D02*
D03*
X31200D02*
D03*
X31700D02*
D03*
X32200D02*
D03*
X25700Y87975D02*
D03*
X26200D02*
D03*
X26700D02*
D03*
X27700D02*
D03*
X30200D02*
D03*
X31200D02*
D03*
X31700D02*
D03*
X32200D02*
D03*
X25700Y87475D02*
D03*
X26200D02*
D03*
X26700D02*
D03*
X27700D02*
D03*
X30200D02*
D03*
X31200D02*
D03*
X31700D02*
D03*
X32200D02*
D03*
X25700Y86975D02*
D03*
X26200D02*
D03*
X26700D02*
D03*
X27700D02*
D03*
X30200D02*
D03*
X31200D02*
D03*
X31700D02*
D03*
X32200D02*
D03*
X25700Y86475D02*
D03*
X26200D02*
D03*
X26700D02*
D03*
X27700D02*
D03*
X28200D02*
D03*
X28700D02*
D03*
X29200D02*
D03*
X29700D02*
D03*
X30200D02*
D03*
X31200D02*
D03*
X31700D02*
D03*
X32200D02*
D03*
X25700Y85975D02*
D03*
X26200D02*
D03*
X26700D02*
D03*
X30700D02*
D03*
X31200D02*
D03*
X31700D02*
D03*
X32200D02*
D03*
X25700Y85475D02*
D03*
X26200D02*
D03*
X26700D02*
D03*
X27200D02*
D03*
X27700D02*
D03*
X28200D02*
D03*
X28700D02*
D03*
X29200D02*
D03*
X29700D02*
D03*
X30200D02*
D03*
X30700D02*
D03*
X31200D02*
D03*
X31700D02*
D03*
X32200D02*
D03*
X25700Y84975D02*
D03*
X26200D02*
D03*
X26700D02*
D03*
X27200D02*
D03*
X27700D02*
D03*
X28200D02*
D03*
X28700D02*
D03*
X29200D02*
D03*
X29700D02*
D03*
X30200D02*
D03*
X30700D02*
D03*
X31200D02*
D03*
X31700D02*
D03*
X32200D02*
D03*
X25700Y84475D02*
D03*
X26200D02*
D03*
X26700D02*
D03*
X27200D02*
D03*
X27700D02*
D03*
X28200D02*
D03*
X28700D02*
D03*
X29200D02*
D03*
X29700D02*
D03*
X30200D02*
D03*
X30700D02*
D03*
X31200D02*
D03*
X31700D02*
D03*
X32200D02*
D03*
M02*
