G04 Layer_Physical_Order=4*
G04 Layer_Color=6736896*
%FSLAX43Y43*%
%MOMM*%
G71*
G01*
G75*
%ADD25C,0.200*%
%ADD30C,0.300*%
%ADD32C,0.500*%
%ADD33C,0.127*%
%ADD39C,0.600*%
%ADD40C,0.400*%
G36*
X88592Y408D02*
X408D01*
Y119592D01*
X88592D01*
Y408D01*
D02*
G37*
%LPC*%
G36*
X32325Y62031D02*
X32208Y62008D01*
X32109Y61941D01*
X32042Y61842D01*
X32019Y61725D01*
X32042Y61608D01*
X32109Y61509D01*
X32208Y61442D01*
X32325Y61419D01*
X32442Y61442D01*
X32541Y61509D01*
X32608Y61608D01*
X32631Y61725D01*
X32608Y61842D01*
X32541Y61941D01*
X32442Y62008D01*
X32325Y62031D01*
D02*
G37*
G36*
X31025D02*
X30908Y62008D01*
X30809Y61941D01*
X30742Y61842D01*
X30719Y61725D01*
X30742Y61608D01*
X30809Y61509D01*
X30908Y61442D01*
X31025Y61419D01*
X31142Y61442D01*
X31241Y61509D01*
X31308Y61608D01*
X31331Y61725D01*
X31308Y61842D01*
X31241Y61941D01*
X31142Y62008D01*
X31025Y62031D01*
D02*
G37*
G36*
X24890Y63246D02*
X24773Y63223D01*
X24674Y63156D01*
X24607Y63057D01*
X24584Y62940D01*
X24607Y62823D01*
X24674Y62724D01*
X24773Y62657D01*
X24890Y62634D01*
X25007Y62657D01*
X25106Y62724D01*
X25173Y62823D01*
X25196Y62940D01*
X25173Y63057D01*
X25106Y63156D01*
X25007Y63223D01*
X24890Y63246D01*
D02*
G37*
G36*
X33625Y62031D02*
X33508Y62008D01*
X33409Y61941D01*
X33342Y61842D01*
X33319Y61725D01*
X33342Y61608D01*
X33409Y61509D01*
X33508Y61442D01*
X33625Y61419D01*
X33742Y61442D01*
X33841Y61509D01*
X33908Y61608D01*
X33931Y61725D01*
X33908Y61842D01*
X33841Y61941D01*
X33742Y62008D01*
X33625Y62031D01*
D02*
G37*
G36*
X29725D02*
X29608Y62008D01*
X29509Y61941D01*
X29442Y61842D01*
X29419Y61725D01*
X29442Y61608D01*
X29509Y61509D01*
X29608Y61442D01*
X29725Y61419D01*
X29842Y61442D01*
X29941Y61509D01*
X30008Y61608D01*
X30031Y61725D01*
X30008Y61842D01*
X29941Y61941D01*
X29842Y62008D01*
X29725Y62031D01*
D02*
G37*
G36*
X20325Y61506D02*
X20208Y61483D01*
X20109Y61416D01*
X20042Y61317D01*
X20019Y61200D01*
X20042Y61083D01*
X20109Y60984D01*
X20208Y60917D01*
X20325Y60894D01*
X20442Y60917D01*
X20541Y60984D01*
X20608Y61083D01*
X20631Y61200D01*
X20608Y61317D01*
X20541Y61416D01*
X20442Y61483D01*
X20325Y61506D01*
D02*
G37*
G36*
X35650Y61241D02*
X35533Y61218D01*
X35434Y61151D01*
X35367Y61052D01*
X35344Y60935D01*
X35367Y60818D01*
X35434Y60719D01*
X35533Y60652D01*
X35650Y60629D01*
X35767Y60652D01*
X35866Y60719D01*
X35933Y60818D01*
X35956Y60935D01*
X35933Y61052D01*
X35866Y61151D01*
X35767Y61218D01*
X35650Y61241D01*
D02*
G37*
G36*
X28525Y62656D02*
X28408Y62633D01*
X28309Y62566D01*
X28242Y62467D01*
X28219Y62350D01*
X28242Y62233D01*
X28281Y62175D01*
X28309Y62134D01*
Y61941D01*
X28281Y61900D01*
X28242Y61842D01*
X28219Y61725D01*
X28242Y61608D01*
X28309Y61509D01*
X28408Y61442D01*
X28525Y61419D01*
X28642Y61442D01*
X28741Y61509D01*
X28808Y61608D01*
X28831Y61725D01*
X28808Y61842D01*
X28769Y61900D01*
X28741Y61941D01*
Y62134D01*
X28769Y62175D01*
X28808Y62233D01*
X28831Y62350D01*
X28808Y62467D01*
X28741Y62566D01*
X28642Y62633D01*
X28525Y62656D01*
D02*
G37*
G36*
X22850Y61506D02*
X22733Y61483D01*
X22634Y61416D01*
X22567Y61317D01*
X22544Y61200D01*
X22567Y61083D01*
X22634Y60984D01*
X22733Y60917D01*
X22850Y60894D01*
X22967Y60917D01*
X23066Y60984D01*
X23133Y61083D01*
X23156Y61200D01*
X23133Y61317D01*
X23066Y61416D01*
X22967Y61483D01*
X22850Y61506D01*
D02*
G37*
G36*
X31025Y64631D02*
X30908Y64608D01*
X30809Y64541D01*
X30742Y64442D01*
X30719Y64325D01*
X30742Y64208D01*
X30809Y64109D01*
X30908Y64042D01*
X31025Y64019D01*
X31142Y64042D01*
X31241Y64109D01*
X31308Y64208D01*
X31331Y64325D01*
X31308Y64442D01*
X31241Y64541D01*
X31142Y64608D01*
X31025Y64631D01*
D02*
G37*
G36*
X29725D02*
X29608Y64608D01*
X29509Y64541D01*
X29442Y64442D01*
X29419Y64325D01*
X29442Y64208D01*
X29509Y64109D01*
X29608Y64042D01*
X29725Y64019D01*
X29842Y64042D01*
X29941Y64109D01*
X30008Y64208D01*
X30031Y64325D01*
X30008Y64442D01*
X29941Y64541D01*
X29842Y64608D01*
X29725Y64631D01*
D02*
G37*
G36*
X33625D02*
X33508Y64608D01*
X33409Y64541D01*
X33342Y64442D01*
X33319Y64325D01*
X33342Y64208D01*
X33409Y64109D01*
X33508Y64042D01*
X33625Y64019D01*
X33742Y64042D01*
X33841Y64109D01*
X33908Y64208D01*
X33931Y64325D01*
X33908Y64442D01*
X33841Y64541D01*
X33742Y64608D01*
X33625Y64631D01*
D02*
G37*
G36*
X32325D02*
X32208Y64608D01*
X32109Y64541D01*
X32042Y64442D01*
X32019Y64325D01*
X32042Y64208D01*
X32109Y64109D01*
X32208Y64042D01*
X32325Y64019D01*
X32442Y64042D01*
X32541Y64109D01*
X32608Y64208D01*
X32631Y64325D01*
X32608Y64442D01*
X32541Y64541D01*
X32442Y64608D01*
X32325Y64631D01*
D02*
G37*
G36*
X33625Y63331D02*
X33508Y63308D01*
X33409Y63241D01*
X33342Y63142D01*
X33319Y63025D01*
X33342Y62908D01*
X33409Y62809D01*
X33508Y62742D01*
X33625Y62719D01*
X33742Y62742D01*
X33841Y62809D01*
X33908Y62908D01*
X33931Y63025D01*
X33908Y63142D01*
X33841Y63241D01*
X33742Y63308D01*
X33625Y63331D01*
D02*
G37*
G36*
X29725D02*
X29608Y63308D01*
X29509Y63241D01*
X29442Y63142D01*
X29419Y63025D01*
X29442Y62908D01*
X29509Y62809D01*
X29608Y62742D01*
X29725Y62719D01*
X29842Y62742D01*
X29941Y62809D01*
X30008Y62908D01*
X30031Y63025D01*
X30008Y63142D01*
X29941Y63241D01*
X29842Y63308D01*
X29725Y63331D01*
D02*
G37*
G36*
X20800Y63256D02*
X20683Y63233D01*
X20584Y63166D01*
X20517Y63067D01*
X20494Y62950D01*
X20517Y62833D01*
X20584Y62734D01*
X20683Y62667D01*
X20800Y62644D01*
X20917Y62667D01*
X21016Y62734D01*
X21083Y62833D01*
X21106Y62950D01*
X21083Y63067D01*
X21016Y63166D01*
X20917Y63233D01*
X20800Y63256D01*
D02*
G37*
G36*
X32325Y63331D02*
X32208Y63308D01*
X32109Y63241D01*
X32042Y63142D01*
X32019Y63025D01*
X32042Y62908D01*
X32109Y62809D01*
X32208Y62742D01*
X32325Y62719D01*
X32442Y62742D01*
X32541Y62809D01*
X32608Y62908D01*
X32631Y63025D01*
X32608Y63142D01*
X32541Y63241D01*
X32442Y63308D01*
X32325Y63331D01*
D02*
G37*
G36*
X31025D02*
X30908Y63308D01*
X30809Y63241D01*
X30742Y63142D01*
X30719Y63025D01*
X30742Y62908D01*
X30809Y62809D01*
X30908Y62742D01*
X31025Y62719D01*
X31142Y62742D01*
X31241Y62809D01*
X31308Y62908D01*
X31331Y63025D01*
X31308Y63142D01*
X31241Y63241D01*
X31142Y63308D01*
X31025Y63331D01*
D02*
G37*
G36*
X34925Y60731D02*
X34808Y60708D01*
X34709Y60641D01*
X34642Y60542D01*
X34619Y60425D01*
X34642Y60308D01*
X34709Y60209D01*
X34808Y60142D01*
X34925Y60119D01*
X35042Y60142D01*
X35141Y60209D01*
X35208Y60308D01*
X35231Y60425D01*
X35208Y60542D01*
X35141Y60641D01*
X35042Y60708D01*
X34925Y60731D01*
D02*
G37*
G36*
X32500Y56006D02*
X32383Y55983D01*
X32284Y55916D01*
X32217Y55817D01*
X32194Y55700D01*
X32217Y55583D01*
X32284Y55484D01*
X32383Y55417D01*
X32500Y55394D01*
X32617Y55417D01*
X32716Y55484D01*
X32783Y55583D01*
X32806Y55700D01*
X32783Y55817D01*
X32716Y55916D01*
X32617Y55983D01*
X32500Y56006D01*
D02*
G37*
G36*
X27750Y54981D02*
X27633Y54958D01*
X27534Y54891D01*
X27467Y54792D01*
X27444Y54675D01*
X27467Y54558D01*
X27534Y54459D01*
X27633Y54392D01*
X27750Y54369D01*
X27867Y54392D01*
X27966Y54459D01*
X28033Y54558D01*
X28056Y54675D01*
X28033Y54792D01*
X27966Y54891D01*
X27867Y54958D01*
X27750Y54981D01*
D02*
G37*
G36*
X48525Y56706D02*
X48408Y56682D01*
X48308Y56616D01*
X48242Y56517D01*
X48219Y56400D01*
X48242Y56283D01*
X48308Y56183D01*
X48408Y56117D01*
X48525Y56094D01*
X48642Y56117D01*
X48741Y56183D01*
X48807Y56283D01*
X48830Y56400D01*
X48807Y56517D01*
X48741Y56616D01*
X48642Y56682D01*
X48525Y56706D01*
D02*
G37*
G36*
X40055Y57801D02*
X39938Y57778D01*
X39839Y57711D01*
X39772Y57612D01*
X39749Y57495D01*
X39772Y57378D01*
X39673Y57318D01*
X39574Y57251D01*
X39507Y57152D01*
X39484Y57035D01*
X39380Y56916D01*
X39263Y56893D01*
X39164Y56826D01*
X39097Y56727D01*
X39074Y56610D01*
X39097Y56493D01*
X39150Y56360D01*
X39097Y56227D01*
X39074Y56110D01*
X39097Y55993D01*
X39164Y55894D01*
X39263Y55827D01*
X39380Y55804D01*
X39497Y55827D01*
X39596Y55894D01*
X39663Y55993D01*
X39686Y56110D01*
X39663Y56227D01*
X39610Y56360D01*
X39663Y56493D01*
X39686Y56610D01*
X39790Y56729D01*
X39907Y56752D01*
X40006Y56819D01*
X40073Y56918D01*
X40096Y57035D01*
X40073Y57152D01*
X40172Y57212D01*
X40271Y57279D01*
X40338Y57378D01*
X40361Y57495D01*
X40338Y57612D01*
X40271Y57711D01*
X40172Y57778D01*
X40055Y57801D01*
D02*
G37*
G36*
X20825Y54981D02*
X20708Y54958D01*
X20609Y54891D01*
X20542Y54792D01*
X20519Y54675D01*
X20542Y54558D01*
X20609Y54459D01*
X20708Y54392D01*
X20825Y54369D01*
X20942Y54392D01*
X21041Y54459D01*
X21108Y54558D01*
X21131Y54675D01*
X21108Y54792D01*
X21041Y54891D01*
X20942Y54958D01*
X20825Y54981D01*
D02*
G37*
G36*
X21288Y53106D02*
X21170Y53083D01*
X21071Y53016D01*
X21005Y52917D01*
X20982Y52800D01*
X21005Y52683D01*
X21071Y52584D01*
X21170Y52517D01*
X21288Y52494D01*
X21405Y52517D01*
X21504Y52584D01*
X21570Y52683D01*
X21593Y52800D01*
X21570Y52917D01*
X21504Y53016D01*
X21405Y53083D01*
X21288Y53106D01*
D02*
G37*
G36*
X21638Y52331D02*
X21520Y52308D01*
X21421Y52241D01*
X21355Y52142D01*
X21332Y52025D01*
X21355Y51908D01*
X21421Y51809D01*
X21520Y51742D01*
X21638Y51719D01*
X21755Y51742D01*
X21854Y51809D01*
X21920Y51908D01*
X21943Y52025D01*
X21920Y52142D01*
X21854Y52241D01*
X21755Y52308D01*
X21638Y52331D01*
D02*
G37*
G36*
X32900Y53431D02*
X32783Y53408D01*
X32684Y53341D01*
X32617Y53242D01*
X32594Y53125D01*
X32617Y53008D01*
X32684Y52909D01*
X32783Y52842D01*
X32900Y52819D01*
X33017Y52842D01*
X33116Y52909D01*
X33183Y53008D01*
X33206Y53125D01*
X33183Y53242D01*
X33116Y53341D01*
X33017Y53408D01*
X32900Y53431D01*
D02*
G37*
G36*
X36175Y53356D02*
X36058Y53333D01*
X35959Y53266D01*
X35892Y53167D01*
X35869Y53050D01*
X35892Y52933D01*
X35959Y52834D01*
X36058Y52767D01*
X36175Y52744D01*
X36292Y52767D01*
X36391Y52834D01*
X36458Y52933D01*
X36481Y53050D01*
X36458Y53167D01*
X36391Y53266D01*
X36292Y53333D01*
X36175Y53356D01*
D02*
G37*
G36*
X31025Y60731D02*
X30908Y60708D01*
X30809Y60641D01*
X30742Y60542D01*
X30719Y60425D01*
X30742Y60308D01*
X30809Y60209D01*
X30908Y60142D01*
X31025Y60119D01*
X31142Y60142D01*
X31241Y60209D01*
X31308Y60308D01*
X31331Y60425D01*
X31308Y60542D01*
X31241Y60641D01*
X31142Y60708D01*
X31025Y60731D01*
D02*
G37*
G36*
X29725D02*
X29608Y60708D01*
X29509Y60641D01*
X29442Y60542D01*
X29419Y60425D01*
X29442Y60308D01*
X29493Y60232D01*
X29501Y60219D01*
X29506Y60100D01*
X29501Y59981D01*
X29493Y59968D01*
X29442Y59892D01*
X29419Y59775D01*
X29442Y59658D01*
X29509Y59559D01*
X29608Y59492D01*
X29725Y59469D01*
X29842Y59492D01*
X29941Y59559D01*
X30008Y59658D01*
X30031Y59775D01*
X30008Y59892D01*
X29957Y59968D01*
X29949Y59981D01*
X29944Y60100D01*
X29949Y60219D01*
X29957Y60232D01*
X30008Y60308D01*
X30031Y60425D01*
X30008Y60542D01*
X29941Y60641D01*
X29842Y60708D01*
X29725Y60731D01*
D02*
G37*
G36*
X33625D02*
X33508Y60708D01*
X33409Y60641D01*
X33342Y60542D01*
X33319Y60425D01*
X33342Y60308D01*
X33409Y60209D01*
X33508Y60142D01*
X33625Y60119D01*
X33742Y60142D01*
X33841Y60209D01*
X33908Y60308D01*
X33931Y60425D01*
X33908Y60542D01*
X33841Y60641D01*
X33742Y60708D01*
X33625Y60731D01*
D02*
G37*
G36*
X32325D02*
X32208Y60708D01*
X32109Y60641D01*
X32042Y60542D01*
X32019Y60425D01*
X32042Y60308D01*
X32109Y60209D01*
X32208Y60142D01*
X32325Y60119D01*
X32442Y60142D01*
X32541Y60209D01*
X32608Y60308D01*
X32631Y60425D01*
X32608Y60542D01*
X32541Y60641D01*
X32442Y60708D01*
X32325Y60731D01*
D02*
G37*
G36*
X35660Y60256D02*
X35543Y60233D01*
X35444Y60166D01*
X35377Y60067D01*
X35285Y59911D01*
X35168Y59888D01*
X35069Y59821D01*
X35002Y59722D01*
X34979Y59605D01*
X35002Y59488D01*
X35069Y59389D01*
X35168Y59322D01*
X35284Y59258D01*
X35279Y59130D01*
X35302Y59013D01*
X35369Y58914D01*
X35468Y58847D01*
X35585Y58824D01*
X35702Y58847D01*
X35801Y58914D01*
X35868Y59013D01*
X35891Y59130D01*
X35868Y59247D01*
X35801Y59346D01*
X35702Y59413D01*
X35684Y59482D01*
X35714Y59646D01*
X35777Y59667D01*
X35876Y59734D01*
X35943Y59833D01*
X35966Y59950D01*
X35943Y60067D01*
X35876Y60166D01*
X35777Y60233D01*
X35660Y60256D01*
D02*
G37*
G36*
X39460Y58576D02*
X39343Y58553D01*
X39244Y58486D01*
X39177Y58387D01*
X39154Y58270D01*
X39050Y58206D01*
X38933Y58183D01*
X38834Y58116D01*
X38767Y58017D01*
X38744Y57900D01*
X38767Y57783D01*
X38834Y57684D01*
X38933Y57617D01*
X39050Y57594D01*
X39167Y57617D01*
X39266Y57684D01*
X39333Y57783D01*
X39356Y57900D01*
X39460Y57964D01*
X39577Y57987D01*
X39676Y58054D01*
X39743Y58153D01*
X39766Y58270D01*
X39743Y58387D01*
X39676Y58486D01*
X39577Y58553D01*
X39460Y58576D01*
D02*
G37*
G36*
X49150Y57781D02*
X49033Y57758D01*
X48934Y57691D01*
X48867Y57592D01*
X48844Y57475D01*
X48867Y57358D01*
X48934Y57259D01*
X49033Y57192D01*
X49150Y57169D01*
X49267Y57192D01*
X49366Y57259D01*
X49433Y57358D01*
X49456Y57475D01*
X49433Y57592D01*
X49366Y57691D01*
X49267Y57758D01*
X49150Y57781D01*
D02*
G37*
G36*
X34250Y59356D02*
X34133Y59333D01*
X34034Y59266D01*
X33967Y59167D01*
X33944Y59050D01*
X33967Y58933D01*
X34034Y58834D01*
X34133Y58767D01*
X34250Y58744D01*
X34367Y58767D01*
X34466Y58834D01*
X34533Y58933D01*
X34556Y59050D01*
X34533Y59167D01*
X34466Y59266D01*
X34367Y59333D01*
X34250Y59356D01*
D02*
G37*
G36*
X45100Y58481D02*
X44983Y58457D01*
X44883Y58391D01*
X44817Y58292D01*
X44794Y58175D01*
X44813Y58079D01*
X44747Y58017D01*
X44640Y57954D01*
X44582Y57993D01*
X44465Y58016D01*
X44348Y57993D01*
X44249Y57926D01*
X44182Y57827D01*
X44159Y57710D01*
X44182Y57593D01*
X44249Y57494D01*
X44198Y57275D01*
X44181Y57271D01*
X44082Y57205D01*
X44059Y57171D01*
X44016Y57116D01*
X43907Y57092D01*
X43812Y57080D01*
X43716Y57099D01*
X43599Y57076D01*
X43500Y57010D01*
X43434Y56911D01*
X43410Y56794D01*
X43434Y56676D01*
X43500Y56577D01*
X43599Y56511D01*
X43716Y56488D01*
X43833Y56511D01*
X43933Y56577D01*
X44068Y56665D01*
X44118Y56689D01*
X44298Y56683D01*
X44415Y56706D01*
X44514Y56772D01*
X44580Y56872D01*
X44604Y56989D01*
X44580Y57106D01*
X44547Y57156D01*
X44599Y57382D01*
X44696Y57439D01*
X44897Y57408D01*
X44964Y57308D01*
X45063Y57242D01*
X45180Y57219D01*
X45297Y57242D01*
X45396Y57308D01*
X45463Y57408D01*
X45486Y57525D01*
X45463Y57642D01*
X45396Y57741D01*
X45382Y57750D01*
X45327Y57924D01*
X45348Y58006D01*
X45382Y58058D01*
X45405Y58175D01*
X45382Y58292D01*
X45316Y58391D01*
X45217Y58457D01*
X45100Y58481D01*
D02*
G37*
G36*
X16950Y85983D02*
X16794Y85952D01*
X16662Y85863D01*
X16573Y85731D01*
X16542Y85575D01*
X16573Y85419D01*
X16662Y85287D01*
X16794Y85198D01*
X16950Y85167D01*
X17106Y85198D01*
X17238Y85287D01*
X17327Y85419D01*
X17358Y85575D01*
X17327Y85731D01*
X17238Y85863D01*
X17106Y85952D01*
X16950Y85983D01*
D02*
G37*
G36*
X7650Y85158D02*
X7494Y85127D01*
X7362Y85038D01*
X7273Y84906D01*
X7242Y84750D01*
X7273Y84594D01*
X7362Y84462D01*
X7494Y84373D01*
X7650Y84342D01*
X7806Y84373D01*
X7938Y84462D01*
X8027Y84594D01*
X8058Y84750D01*
X8027Y84906D01*
X7938Y85038D01*
X7806Y85127D01*
X7650Y85158D01*
D02*
G37*
G36*
X9050Y87508D02*
X8894Y87477D01*
X8762Y87388D01*
X8673Y87256D01*
X8642Y87100D01*
X8673Y86944D01*
X8762Y86812D01*
X8860Y86746D01*
X8894Y86723D01*
X8905Y86713D01*
X8863Y86492D01*
X8850Y86488D01*
X8794Y86477D01*
X8662Y86388D01*
X8573Y86256D01*
X8542Y86100D01*
X8573Y85944D01*
X8662Y85812D01*
X8794Y85723D01*
X8950Y85692D01*
X9106Y85723D01*
X9238Y85812D01*
X9327Y85944D01*
X9358Y86100D01*
X9327Y86256D01*
X9238Y86388D01*
X9140Y86454D01*
X9106Y86477D01*
X9095Y86487D01*
X9137Y86709D01*
X9150Y86712D01*
X9206Y86723D01*
X9338Y86812D01*
X9427Y86944D01*
X9458Y87100D01*
X9427Y87256D01*
X9338Y87388D01*
X9206Y87477D01*
X9050Y87508D01*
D02*
G37*
G36*
X29950Y86231D02*
X29833Y86208D01*
X29734Y86141D01*
X29667Y86042D01*
X29644Y85925D01*
X29667Y85808D01*
X29734Y85709D01*
X29833Y85642D01*
X29950Y85619D01*
X30067Y85642D01*
X30166Y85709D01*
X30233Y85808D01*
X30256Y85925D01*
X30233Y86042D01*
X30166Y86141D01*
X30067Y86208D01*
X29950Y86231D01*
D02*
G37*
G36*
X19350Y83983D02*
X19194Y83952D01*
X19062Y83863D01*
X18973Y83731D01*
X18949Y83609D01*
X18837Y83531D01*
X18744Y83493D01*
X18731Y83502D01*
X18575Y83533D01*
X18419Y83502D01*
X18287Y83413D01*
X18198Y83281D01*
X18167Y83125D01*
X18198Y82969D01*
X18287Y82837D01*
X18419Y82748D01*
X18575Y82717D01*
X18731Y82748D01*
X18863Y82837D01*
X18952Y82969D01*
X18976Y83091D01*
X19088Y83169D01*
X19181Y83207D01*
X19194Y83198D01*
X19350Y83167D01*
X19506Y83198D01*
X19638Y83287D01*
X19727Y83419D01*
X19758Y83575D01*
X19727Y83731D01*
X19638Y83863D01*
X19506Y83952D01*
X19350Y83983D01*
D02*
G37*
G36*
X7550Y82008D02*
X7394Y81977D01*
X7262Y81888D01*
X7173Y81756D01*
X7142Y81600D01*
X7173Y81444D01*
X7262Y81312D01*
X7394Y81223D01*
X7550Y81192D01*
X7706Y81223D01*
X7838Y81312D01*
X7927Y81444D01*
X7958Y81600D01*
X7927Y81756D01*
X7838Y81888D01*
X7706Y81977D01*
X7550Y82008D01*
D02*
G37*
G36*
X18575Y81858D02*
X18419Y81827D01*
X18287Y81738D01*
X18198Y81606D01*
X18167Y81450D01*
X18198Y81294D01*
X18287Y81162D01*
X18419Y81073D01*
X18575Y81042D01*
X18731Y81073D01*
X18863Y81162D01*
X18952Y81294D01*
X18983Y81450D01*
X18952Y81606D01*
X18863Y81738D01*
X18731Y81827D01*
X18575Y81858D01*
D02*
G37*
G36*
X5350Y83558D02*
X5194Y83527D01*
X5037Y83450D01*
X4881Y83527D01*
X4725Y83558D01*
X4569Y83527D01*
X4437Y83438D01*
X4348Y83306D01*
X4317Y83150D01*
X4348Y82994D01*
X4437Y82862D01*
X4569Y82773D01*
X4725Y82742D01*
X4881Y82773D01*
X5037Y82850D01*
X5194Y82773D01*
X5350Y82742D01*
X5506Y82773D01*
X5638Y82862D01*
X5727Y82994D01*
X5758Y83150D01*
X5727Y83306D01*
X5638Y83438D01*
X5506Y83527D01*
X5350Y83558D01*
D02*
G37*
G36*
X31575Y83181D02*
X31458Y83158D01*
X31359Y83091D01*
X31292Y82992D01*
X31269Y82875D01*
X31292Y82758D01*
X31359Y82659D01*
X31458Y82592D01*
X31575Y82569D01*
X31692Y82592D01*
X31791Y82659D01*
X31858Y82758D01*
X31881Y82875D01*
X31858Y82992D01*
X31791Y83091D01*
X31692Y83158D01*
X31575Y83181D01*
D02*
G37*
G36*
X18650Y87433D02*
X18494Y87402D01*
X18362Y87313D01*
X18273Y87181D01*
X18242Y87025D01*
X18273Y86869D01*
X18362Y86737D01*
X18494Y86648D01*
X18650Y86617D01*
X18806Y86648D01*
X18938Y86737D01*
X19027Y86869D01*
X19058Y87025D01*
X19027Y87181D01*
X18938Y87313D01*
X18806Y87402D01*
X18650Y87433D01*
D02*
G37*
G36*
X18575Y92158D02*
X18419Y92127D01*
X18287Y92038D01*
X18198Y91906D01*
X18167Y91750D01*
X18198Y91594D01*
X18287Y91462D01*
Y91338D01*
X18198Y91206D01*
X18167Y91050D01*
X18198Y90894D01*
X18235Y90839D01*
X18312Y90638D01*
X18223Y90506D01*
X18192Y90350D01*
X18223Y90194D01*
X18312Y90062D01*
X18444Y89973D01*
X18600Y89942D01*
X18756Y89973D01*
X18888Y90062D01*
X18977Y90194D01*
X19008Y90350D01*
X18977Y90506D01*
X18940Y90561D01*
X18863Y90762D01*
X18952Y90894D01*
X18983Y91050D01*
X18952Y91206D01*
X18863Y91338D01*
Y91462D01*
X18952Y91594D01*
X18983Y91750D01*
X18952Y91906D01*
X18863Y92038D01*
X18731Y92127D01*
X18575Y92158D01*
D02*
G37*
G36*
X30550Y89881D02*
X30433Y89858D01*
X30334Y89791D01*
X30267Y89692D01*
X30244Y89575D01*
X30267Y89458D01*
X30334Y89359D01*
X30433Y89292D01*
X30550Y89269D01*
X30667Y89292D01*
X30766Y89359D01*
X30833Y89458D01*
X30856Y89575D01*
X30833Y89692D01*
X30766Y89791D01*
X30667Y89858D01*
X30550Y89881D01*
D02*
G37*
G36*
X12550Y90308D02*
X12394Y90277D01*
X12262Y90188D01*
X12138D01*
X12006Y90277D01*
X11850Y90308D01*
X11694Y90277D01*
X11562Y90188D01*
X11473Y90056D01*
X11442Y89900D01*
X11473Y89744D01*
X11562Y89612D01*
X11694Y89523D01*
X11850Y89492D01*
X12006Y89523D01*
X12138Y89612D01*
X12262D01*
X12394Y89523D01*
X12550Y89492D01*
X12706Y89523D01*
X12838Y89612D01*
X12927Y89744D01*
X12958Y89900D01*
X12927Y90056D01*
X12838Y90188D01*
X12706Y90277D01*
X12550Y90308D01*
D02*
G37*
G36*
X9075Y90956D02*
X8958Y90933D01*
X8859Y90866D01*
X8792Y90767D01*
X8769Y90650D01*
X8792Y90533D01*
X8859Y90434D01*
X8958Y90367D01*
X9075Y90344D01*
X9164Y90148D01*
X9167Y90133D01*
X9234Y90034D01*
X9333Y89967D01*
X9450Y89944D01*
X9567Y89967D01*
X9666Y90034D01*
X9684D01*
X9783Y89967D01*
X9900Y89944D01*
X10017Y89967D01*
X10116Y90034D01*
X10183Y90133D01*
X10206Y90250D01*
X10183Y90367D01*
X10116Y90466D01*
X10017Y90533D01*
X9900Y90556D01*
X9783Y90533D01*
X9684Y90466D01*
X9666D01*
X9567Y90533D01*
X9450Y90556D01*
X9361Y90752D01*
X9358Y90767D01*
X9291Y90866D01*
X9192Y90933D01*
X9075Y90956D01*
D02*
G37*
G36*
X28200Y89756D02*
X28083Y89733D01*
X27984Y89666D01*
X27917Y89567D01*
X27894Y89450D01*
X27917Y89333D01*
X27984Y89234D01*
X28083Y89167D01*
X28200Y89144D01*
X28317Y89167D01*
X28416Y89234D01*
X28483Y89333D01*
X28506Y89450D01*
X28483Y89567D01*
X28416Y89666D01*
X28317Y89733D01*
X28200Y89756D01*
D02*
G37*
G36*
X11625Y88756D02*
X11508Y88733D01*
X11409Y88666D01*
X11342Y88567D01*
X11319Y88450D01*
X11342Y88333D01*
X11409Y88234D01*
X11508Y88167D01*
X11625Y88144D01*
X11742Y88167D01*
X11841Y88234D01*
X11908Y88333D01*
X11931Y88450D01*
X11908Y88567D01*
X11841Y88666D01*
X11742Y88733D01*
X11625Y88756D01*
D02*
G37*
G36*
X30625Y87281D02*
X30508Y87258D01*
X30409Y87191D01*
X30342Y87092D01*
X30319Y86975D01*
X30342Y86858D01*
X30409Y86759D01*
X30508Y86692D01*
X30625Y86669D01*
X30742Y86692D01*
X30841Y86759D01*
X30908Y86858D01*
X30931Y86975D01*
X30908Y87092D01*
X30841Y87191D01*
X30742Y87258D01*
X30625Y87281D01*
D02*
G37*
G36*
X17075Y89006D02*
X16958Y88983D01*
X16859Y88916D01*
X16792Y88817D01*
X16769Y88700D01*
X16792Y88583D01*
X16859Y88484D01*
X16958Y88417D01*
X17075Y88394D01*
X17192Y88417D01*
X17291Y88484D01*
X17358Y88583D01*
X17381Y88700D01*
X17358Y88817D01*
X17291Y88916D01*
X17192Y88983D01*
X17075Y89006D01*
D02*
G37*
G36*
X6075Y90233D02*
X5919Y90202D01*
X5787Y90113D01*
X5698Y89981D01*
X5667Y89825D01*
X5698Y89669D01*
X5775Y89512D01*
X5698Y89356D01*
X5667Y89200D01*
X5698Y89044D01*
X5775Y88887D01*
X5698Y88731D01*
X5667Y88575D01*
X5698Y88419D01*
X5787Y88287D01*
X5919Y88198D01*
X6075Y88167D01*
X6231Y88198D01*
X6363Y88287D01*
X6452Y88419D01*
X6483Y88575D01*
X6452Y88731D01*
X6375Y88887D01*
X6452Y89044D01*
X6483Y89200D01*
X6452Y89356D01*
X6375Y89512D01*
X6452Y89669D01*
X6483Y89825D01*
X6452Y89981D01*
X6363Y90113D01*
X6231Y90202D01*
X6075Y90233D01*
D02*
G37*
G36*
X45906Y68934D02*
X45789Y68911D01*
X45689Y68844D01*
X45623Y68745D01*
X45600Y68628D01*
X45623Y68511D01*
X45689Y68412D01*
X45789Y68345D01*
X45906Y68322D01*
X46023Y68345D01*
X46122Y68412D01*
X46188Y68511D01*
X46211Y68628D01*
X46188Y68745D01*
X46122Y68844D01*
X46023Y68911D01*
X45906Y68934D01*
D02*
G37*
G36*
X48125Y67756D02*
X48008Y67732D01*
X47908Y67666D01*
X47842Y67567D01*
X47835Y67530D01*
X47298Y67530D01*
X47291Y67541D01*
X47192Y67607D01*
X47075Y67631D01*
X46958Y67607D01*
X46858Y67541D01*
X46851Y67530D01*
X38376Y67530D01*
X35710Y66550D01*
X34929Y65769D01*
X34929Y64654D01*
X34900Y64631D01*
X34783Y64608D01*
X34684Y64541D01*
X34617Y64442D01*
X34594Y64325D01*
X34617Y64208D01*
X34684Y64109D01*
X34783Y64042D01*
X34900Y64019D01*
X34929Y63996D01*
X34929Y63334D01*
X34925Y63331D01*
X34808Y63308D01*
X34709Y63241D01*
X34642Y63142D01*
X34619Y63025D01*
X34642Y62908D01*
X34709Y62809D01*
X34808Y62742D01*
X34925Y62719D01*
X35042Y62742D01*
X35141Y62809D01*
X35375Y62784D01*
X35409Y62734D01*
X35459Y62700D01*
X35705Y62454D01*
X35648Y62313D01*
X35609Y62253D01*
X35508Y62233D01*
X35409Y62166D01*
X35342Y62067D01*
X35335Y62029D01*
X35234Y61983D01*
X35120Y61955D01*
X35042Y62008D01*
X34925Y62031D01*
X34808Y62008D01*
X34709Y61941D01*
X34642Y61842D01*
X34619Y61725D01*
X34642Y61608D01*
X34709Y61509D01*
X34808Y61442D01*
X34925Y61419D01*
X35042Y61442D01*
X35141Y61509D01*
X35208Y61608D01*
X35215Y61646D01*
X35316Y61692D01*
X35430Y61720D01*
X35508Y61667D01*
X35625Y61644D01*
X35742Y61667D01*
X35841Y61734D01*
X35908Y61833D01*
X35928Y61934D01*
X35988Y61973D01*
X36129Y62030D01*
X39170Y58989D01*
X45990Y58989D01*
X46169Y58825D01*
X46192Y58708D01*
X46258Y58608D01*
X46358Y58542D01*
X46475Y58519D01*
X46592Y58542D01*
X46680Y58601D01*
X46691Y58608D01*
X46908D01*
X46919Y58601D01*
X47008Y58542D01*
X47125Y58519D01*
X47242Y58542D01*
X47330Y58601D01*
X47341Y58608D01*
X47360D01*
X47552Y58398D01*
X47551Y58380D01*
X47543Y58367D01*
X47492Y58292D01*
X47469Y58175D01*
X47492Y58058D01*
X47559Y57959D01*
X47658Y57892D01*
X47775Y57869D01*
X47892Y57892D01*
X47991Y57959D01*
X48058Y58058D01*
X48081Y58175D01*
X48058Y58292D01*
X48007Y58368D01*
X47999Y58381D01*
X47998Y58405D01*
X48201Y58608D01*
X48208D01*
X48219Y58601D01*
X48308Y58542D01*
X48425Y58519D01*
X48542Y58542D01*
X48641Y58608D01*
X48707Y58708D01*
X48730Y58825D01*
X48909Y58989D01*
X52132Y58989D01*
X52136Y58781D01*
Y58388D01*
X51926Y58339D01*
X51891Y58391D01*
X51792Y58457D01*
X51675Y58481D01*
X51558Y58457D01*
X51458Y58391D01*
X51392Y58292D01*
X51369Y58175D01*
X51392Y58058D01*
X51458Y57958D01*
X51558Y57892D01*
X51629Y57878D01*
X51697Y57747D01*
X51712Y57664D01*
X49011Y54963D01*
X48928Y54978D01*
X48797Y55046D01*
X48783Y55117D01*
X48716Y55216D01*
X48617Y55283D01*
X48500Y55306D01*
X48383Y55283D01*
X48284Y55216D01*
X48217Y55117D01*
X48194Y55000D01*
X48211Y54917D01*
X48153Y54799D01*
X48083Y54707D01*
X39240D01*
X39081Y54900D01*
X39058Y55017D01*
X38991Y55116D01*
X38892Y55183D01*
X38775Y55206D01*
X38658Y55183D01*
X38559Y55116D01*
X38492Y55017D01*
X38469Y54900D01*
X38310Y54707D01*
X37840D01*
X37729Y54832D01*
X37770Y55060D01*
X37797Y55078D01*
X37863Y55177D01*
X37882Y55271D01*
X37895Y55300D01*
X38074Y55430D01*
X38080Y55429D01*
X38197Y55452D01*
X38296Y55519D01*
X38363Y55618D01*
X38386Y55735D01*
X38542Y55822D01*
X38641Y55889D01*
X38708Y55988D01*
X38731Y56105D01*
X38708Y56222D01*
X38641Y56321D01*
X38542Y56388D01*
X38428Y56410D01*
X38451Y56525D01*
X38428Y56642D01*
X38361Y56741D01*
X38262Y56808D01*
X38145Y56831D01*
X38028Y56808D01*
X37929Y56741D01*
X37862Y56642D01*
X37839Y56525D01*
X37862Y56408D01*
X37929Y56309D01*
X38025Y56244D01*
X38028Y56232D01*
X38022Y56029D01*
X37963Y56018D01*
X37864Y55951D01*
X37797Y55852D01*
X37779Y55759D01*
X37766Y55729D01*
X37587Y55599D01*
X37581Y55600D01*
X37464Y55577D01*
X37365Y55511D01*
X37176Y55508D01*
X37239Y55714D01*
X37261Y55729D01*
X37328Y55828D01*
X37351Y55945D01*
X37328Y56062D01*
X37261Y56161D01*
X37162Y56228D01*
X37045Y56251D01*
X36928Y56228D01*
X36829Y56161D01*
X36762Y56062D01*
X36739Y55945D01*
X36541Y55865D01*
X36485Y55875D01*
X36441Y55941D01*
X36342Y56008D01*
X36225Y56031D01*
X36108Y56008D01*
X36009Y55941D01*
X36009Y55941D01*
X35942Y55842D01*
X35842Y55908D01*
X35725Y55931D01*
X35608Y55908D01*
X35509Y55841D01*
X35442Y55742D01*
X35419Y55625D01*
X35442Y55508D01*
X35509Y55409D01*
X35608Y55342D01*
X35725Y55319D01*
X35842Y55342D01*
X35941Y55409D01*
X35951Y55423D01*
X36185Y55405D01*
X36244Y55345D01*
X36270Y55213D01*
X36348Y55098D01*
X37348Y54098D01*
X37463Y54020D01*
X37600Y53993D01*
X48903D01*
X49039Y54020D01*
X49155Y54098D01*
X52745Y57688D01*
X52822Y57803D01*
X52850Y57940D01*
Y61400D01*
Y62807D01*
X52822Y62944D01*
X52745Y63060D01*
X52305Y63500D01*
X52189Y63577D01*
X52132Y63588D01*
X52132Y64552D01*
X51841Y64842D01*
X51835Y64869D01*
X51880Y65101D01*
X51891Y65108D01*
X51957Y65208D01*
X51980Y65325D01*
X51957Y65442D01*
X51891Y65541D01*
X51792Y65607D01*
X51675Y65631D01*
X51558Y65607D01*
X51458Y65541D01*
X51451Y65530D01*
X51219Y65485D01*
X51192Y65491D01*
X50727Y65957D01*
X49153Y67530D01*
X49124D01*
X49076Y67601D01*
X48977Y67668D01*
X48860Y67691D01*
X48743Y67668D01*
X48644Y67601D01*
X48619Y67565D01*
X48428Y67566D01*
X48406Y67569D01*
X48341Y67666D01*
X48242Y67732D01*
X48125Y67756D01*
D02*
G37*
G36*
X48950Y69081D02*
X48833Y69058D01*
X48734Y68991D01*
X48667Y68892D01*
X48644Y68775D01*
X48667Y68658D01*
X48734Y68559D01*
X48833Y68492D01*
X48950Y68469D01*
X49067Y68492D01*
X49166Y68559D01*
X49233Y68658D01*
X49256Y68775D01*
X49233Y68892D01*
X49166Y68991D01*
X49067Y69058D01*
X48950Y69081D01*
D02*
G37*
G36*
X44492Y69536D02*
X44375Y69513D01*
X44276Y69446D01*
X44210Y69347D01*
X44187Y69230D01*
X44210Y69113D01*
X44279Y68936D01*
X44212Y68837D01*
X44189Y68720D01*
X44212Y68603D01*
X44279Y68504D01*
X44378Y68437D01*
X44495Y68414D01*
X44612Y68437D01*
X44711Y68504D01*
X44778Y68603D01*
X44801Y68720D01*
X44778Y68837D01*
X44709Y69014D01*
X44775Y69113D01*
X44798Y69230D01*
X44775Y69347D01*
X44709Y69446D01*
X44610Y69513D01*
X44492Y69536D01*
D02*
G37*
G36*
X51025Y66930D02*
X50908Y66907D01*
X50808Y66841D01*
X50742Y66742D01*
X50719Y66625D01*
X50742Y66508D01*
X50808Y66408D01*
X50908Y66342D01*
X51025Y66319D01*
X51142Y66342D01*
X51241Y66408D01*
X51307Y66508D01*
X51330Y66625D01*
X51307Y66742D01*
X51241Y66841D01*
X51142Y66907D01*
X51025Y66930D01*
D02*
G37*
G36*
X29725Y65931D02*
X29608Y65908D01*
X29509Y65841D01*
X29442Y65742D01*
X29419Y65625D01*
X29442Y65508D01*
X29509Y65409D01*
X29608Y65342D01*
X29725Y65319D01*
X29842Y65342D01*
X29941Y65409D01*
X30008Y65508D01*
X30031Y65625D01*
X30008Y65742D01*
X29941Y65841D01*
X29842Y65908D01*
X29725Y65931D01*
D02*
G37*
G36*
X34275Y65881D02*
X34158Y65858D01*
X34059Y65791D01*
X33992Y65692D01*
X33969Y65575D01*
X33992Y65458D01*
X34059Y65359D01*
X34158Y65292D01*
X34275Y65269D01*
X34392Y65292D01*
X34491Y65359D01*
X34558Y65458D01*
X34581Y65575D01*
X34558Y65692D01*
X34491Y65791D01*
X34392Y65858D01*
X34275Y65881D01*
D02*
G37*
G36*
X32325Y65931D02*
X32208Y65908D01*
X32109Y65841D01*
X32042Y65742D01*
X32019Y65625D01*
X32042Y65508D01*
X32109Y65409D01*
X32208Y65342D01*
X32325Y65319D01*
X32442Y65342D01*
X32541Y65409D01*
X32608Y65508D01*
X32631Y65625D01*
X32608Y65742D01*
X32541Y65841D01*
X32442Y65908D01*
X32325Y65931D01*
D02*
G37*
G36*
X31025D02*
X30908Y65908D01*
X30809Y65841D01*
X30742Y65742D01*
X30719Y65625D01*
X30742Y65508D01*
X30809Y65409D01*
X30908Y65342D01*
X31025Y65319D01*
X31142Y65342D01*
X31241Y65409D01*
X31308Y65508D01*
X31331Y65625D01*
X31308Y65742D01*
X31241Y65841D01*
X31142Y65908D01*
X31025Y65931D01*
D02*
G37*
G36*
X35000Y70006D02*
X34883Y69983D01*
X34784Y69916D01*
X34717Y69817D01*
X34694Y69700D01*
X34717Y69583D01*
X34784Y69484D01*
X34883Y69417D01*
X35000Y69394D01*
X35117Y69417D01*
X35216Y69484D01*
X35283Y69583D01*
X35306Y69700D01*
X35283Y69817D01*
X35216Y69916D01*
X35117Y69983D01*
X35000Y70006D01*
D02*
G37*
G36*
X9000Y79081D02*
X8883Y79058D01*
X8784Y78991D01*
X8766D01*
X8667Y79058D01*
X8550Y79081D01*
X8433Y79058D01*
X8312Y79001D01*
X8192Y79058D01*
X8075Y79081D01*
X7958Y79058D01*
X7859Y78991D01*
X7792Y78892D01*
X7769Y78775D01*
X7792Y78658D01*
X7859Y78559D01*
X7958Y78492D01*
X8075Y78469D01*
X8192Y78492D01*
X8312Y78549D01*
X8433Y78492D01*
X8550Y78469D01*
X8667Y78492D01*
X8766Y78559D01*
X8784D01*
X8883Y78492D01*
X9000Y78469D01*
X9117Y78492D01*
X9216Y78559D01*
X9283Y78658D01*
X9306Y78775D01*
X9283Y78892D01*
X9216Y78991D01*
X9117Y79058D01*
X9000Y79081D01*
D02*
G37*
G36*
X14200Y79031D02*
X14083Y79008D01*
X13984Y78941D01*
X13842Y79008D01*
X13725Y79031D01*
X13608Y79008D01*
X13509Y78941D01*
X13441D01*
X13342Y79008D01*
X13225Y79031D01*
X13108Y79008D01*
X13009Y78941D01*
X12942Y78842D01*
X12919Y78725D01*
X12942Y78608D01*
X13009Y78509D01*
X13108Y78442D01*
X13225Y78419D01*
X13342Y78442D01*
X13475Y78495D01*
X13608Y78442D01*
X13725Y78419D01*
X13842Y78442D01*
X13941Y78509D01*
X14083Y78442D01*
X14200Y78419D01*
X14317Y78442D01*
X14416Y78509D01*
X14483Y78608D01*
X14506Y78725D01*
X14483Y78842D01*
X14416Y78941D01*
X14317Y79008D01*
X14200Y79031D01*
D02*
G37*
G36*
X8300Y80658D02*
X8144Y80627D01*
X8012Y80538D01*
X7923Y80406D01*
X7892Y80250D01*
X7923Y80094D01*
X8012Y79962D01*
X8144Y79873D01*
X8300Y79842D01*
X8456Y79873D01*
X8588Y79962D01*
X8677Y80094D01*
X8708Y80250D01*
X8677Y80406D01*
X8588Y80538D01*
X8456Y80627D01*
X8300Y80658D01*
D02*
G37*
G36*
X29375Y80406D02*
X29258Y80383D01*
X29159Y80316D01*
X29092Y80217D01*
X29069Y80100D01*
X29092Y79983D01*
X29159Y79884D01*
X29258Y79817D01*
X29375Y79794D01*
X29492Y79817D01*
X29591Y79884D01*
X29658Y79983D01*
X29681Y80100D01*
X29658Y80217D01*
X29591Y80316D01*
X29492Y80383D01*
X29375Y80406D01*
D02*
G37*
G36*
X19025Y78881D02*
X18908Y78858D01*
X18809Y78791D01*
X18742Y78692D01*
X18719Y78575D01*
X18742Y78458D01*
X18809Y78359D01*
X18908Y78292D01*
X19025Y78269D01*
X19142Y78292D01*
X19241Y78359D01*
X19308Y78458D01*
X19331Y78575D01*
X19308Y78692D01*
X19241Y78791D01*
X19142Y78858D01*
X19025Y78881D01*
D02*
G37*
G36*
X36815Y71716D02*
X36698Y71693D01*
X36599Y71626D01*
X36533Y71527D01*
X36509Y71410D01*
X36533Y71293D01*
X36599Y71194D01*
X36698Y71127D01*
X36815Y71104D01*
X36932Y71127D01*
X37031Y71194D01*
X37098Y71293D01*
X37121Y71410D01*
X37098Y71527D01*
X37031Y71626D01*
X36932Y71693D01*
X36815Y71716D01*
D02*
G37*
G36*
X33250Y70131D02*
X33133Y70108D01*
X33034Y70041D01*
X32967Y69942D01*
X32944Y69825D01*
X32967Y69708D01*
X33034Y69609D01*
X33133Y69542D01*
X33250Y69519D01*
X33367Y69542D01*
X33466Y69609D01*
X33533Y69708D01*
X33556Y69825D01*
X33533Y69942D01*
X33466Y70041D01*
X33367Y70108D01*
X33250Y70131D01*
D02*
G37*
G36*
X11575Y75308D02*
X11419Y75277D01*
X11393Y75260D01*
X11238Y75205D01*
X11082Y75260D01*
X11056Y75277D01*
X10900Y75308D01*
X10744Y75277D01*
X10612Y75188D01*
X10488D01*
X10356Y75277D01*
X10200Y75308D01*
X10044Y75277D01*
X9912Y75188D01*
X9823Y75056D01*
X9792Y74900D01*
X9823Y74744D01*
X9912Y74612D01*
X10044Y74523D01*
X10200Y74492D01*
X10356Y74523D01*
X10488Y74612D01*
X10612D01*
X10744Y74523D01*
X10900Y74492D01*
X11056Y74523D01*
X11082Y74540D01*
X11238Y74595D01*
X11393Y74540D01*
X11419Y74523D01*
X11575Y74492D01*
X11731Y74523D01*
X11863Y74612D01*
X11952Y74744D01*
X11983Y74900D01*
X11952Y75056D01*
X11863Y75188D01*
X11731Y75277D01*
X11575Y75308D01*
D02*
G37*
G36*
X16450Y75033D02*
X16294Y75002D01*
X16162Y74913D01*
X16073Y74781D01*
X16042Y74625D01*
X16073Y74469D01*
X16162Y74337D01*
X16294Y74248D01*
X16450Y74217D01*
X16606Y74248D01*
X16645Y74274D01*
X16786Y74305D01*
X16914Y74221D01*
X16937Y74187D01*
X17069Y74098D01*
X17225Y74067D01*
X17381Y74098D01*
X17513Y74187D01*
X17602Y74319D01*
X17633Y74475D01*
X17602Y74631D01*
X17513Y74763D01*
X17381Y74852D01*
X17225Y74883D01*
X17069Y74852D01*
X17030Y74826D01*
X16889Y74795D01*
X16761Y74879D01*
X16738Y74913D01*
X16606Y75002D01*
X16450Y75033D01*
D02*
G37*
%LPD*%
D25*
X45778Y62778D02*
X45780Y62776D01*
X45774Y62782D02*
X45778Y62778D01*
X48937Y63361D02*
X49109Y63190D01*
X49894D01*
X45780Y62797D02*
X46345Y63361D01*
X48937D01*
X49894Y63190D02*
X49951Y63247D01*
X52053D01*
X52220D01*
D30*
X36225Y55725D02*
X36600Y55350D01*
D32*
X52493Y61400D02*
Y62807D01*
Y57940D02*
Y61400D01*
X37600Y54350D02*
X48903D01*
X52493Y57940D01*
X36600Y55350D02*
X37600Y54350D01*
X52053Y63247D02*
X52493Y62807D01*
D33*
X50372Y64025D02*
Y64701D01*
Y64018D02*
Y64025D01*
X38167Y63200D02*
Y66647D01*
Y63193D02*
Y63200D01*
X50374Y60775D02*
X50378Y60779D01*
X49950Y60351D02*
X50374Y60775D01*
X49721Y60771D02*
X49721Y60770D01*
X48703Y61789D02*
X49721Y60771D01*
X50369Y59469D02*
X50371Y59467D01*
X49999Y59840D02*
X50369Y59469D01*
X51678Y64021D02*
X51679Y64022D01*
X51311Y63654D02*
X51678Y64021D01*
X38523Y62819D02*
X38799Y63094D01*
X38518Y62813D02*
X38523Y62819D01*
X45776Y62773D02*
X45780Y62776D01*
X45771Y62768D02*
X45776Y62773D01*
X50008Y63867D02*
Y64326D01*
X49751Y64584D02*
X50008Y64326D01*
X48106Y64584D02*
X49751D01*
X47582Y64059D02*
X48106Y64584D01*
X35500Y64839D02*
X35639Y64977D01*
X35499Y64839D02*
X35500D01*
X35286Y64626D02*
X35499Y64839D01*
X35286Y64625D02*
Y64626D01*
X35266Y64604D02*
X35286Y64625D01*
X35266Y63735D02*
Y64604D01*
X47482Y59840D02*
X49999D01*
X47150Y59508D02*
X47482Y59840D01*
X46063Y67074D02*
X46182Y66954D01*
X38167Y66647D02*
X38593Y67074D01*
X46063D01*
X47615Y61789D02*
X48703D01*
X47661Y60351D02*
X49950D01*
X35654Y64475D02*
X36777Y63352D01*
X46981Y60685D02*
X47327D01*
X35654Y63438D02*
X36350Y62742D01*
Y62478D02*
Y62742D01*
Y62478D02*
X39319Y59509D01*
X47151D01*
X35563Y63438D02*
X35654D01*
X35266Y63735D02*
X35563Y63438D01*
X35606Y65938D02*
X37342Y64202D01*
X45780Y62776D02*
Y62797D01*
X47431Y61605D02*
X47615Y61789D01*
X37345Y63371D02*
Y64199D01*
X39110Y61605D02*
X47431D01*
X37345Y63371D02*
X39110Y61605D01*
X49999Y65074D02*
X50372Y64701D01*
X50008Y63867D02*
X50221Y63654D01*
X51311D01*
X46236Y64059D02*
X47582D01*
X38799Y63094D02*
X41364D01*
X41592Y63322D01*
X36777Y62946D02*
Y63352D01*
X38758Y60965D02*
X44173D01*
X36777Y62946D02*
X38758Y60965D01*
X47327Y60685D02*
X47661Y60351D01*
X49822Y65443D02*
X49999Y65267D01*
Y65074D02*
Y65267D01*
X48368Y65443D02*
X49822D01*
X46857Y66954D02*
X48368Y65443D01*
X46182Y66954D02*
X46857D01*
X41592Y63322D02*
Y65400D01*
X44462Y65834D02*
X46236Y64059D01*
X42025Y65834D02*
X44462D01*
X41592Y65400D02*
X42025Y65834D01*
X45939Y60685D02*
X46981Y60685D01*
X45348Y60094D02*
X45939Y60685D01*
X45045Y60094D02*
X45348D01*
X44174Y60965D02*
X45045Y60094D01*
D39*
X17000Y34350D02*
D03*
X40700Y33750D02*
D03*
X26125Y23150D02*
D03*
X45275Y44275D02*
D03*
X64975Y38475D02*
D03*
X65025Y52625D02*
D03*
X64950Y61125D02*
D03*
Y69550D02*
D03*
X51775Y80925D02*
D03*
X47200Y88225D02*
D03*
X7650Y84750D02*
D03*
X40452Y52475D02*
D03*
X47597Y52681D02*
D03*
X55600Y54800D02*
D03*
X4725Y83150D02*
D03*
X5350D02*
D03*
X6075Y89825D02*
D03*
Y89200D02*
D03*
X11850Y89900D02*
D03*
X12550D02*
D03*
X18575Y83125D02*
D03*
X5675Y52800D02*
D03*
X6475Y67750D02*
D03*
X15375Y44500D02*
D03*
X16600Y59050D02*
D03*
X26075Y44300D02*
D03*
X14225Y64000D02*
D03*
X18575Y82250D02*
D03*
X25500Y82925D02*
D03*
X5075Y88650D02*
D03*
X3525Y90275D02*
D03*
X12255Y91640D02*
D03*
X31650Y96450D02*
D03*
X40400Y94900D02*
D03*
X43000Y87000D02*
D03*
X64150Y94525D02*
D03*
X64950Y86775D02*
D03*
X51075Y94650D02*
D03*
X72100Y83850D02*
D03*
X81725Y91900D02*
D03*
X77800Y94450D02*
D03*
X7550Y81600D02*
D03*
X9050Y87100D02*
D03*
X19350Y83575D02*
D03*
X18650Y87025D02*
D03*
X18575Y91050D02*
D03*
X10900Y74900D02*
D03*
X11575D02*
D03*
X42750Y81500D02*
D03*
X49500Y80750D02*
D03*
X6175Y61075D02*
D03*
X14325Y68325D02*
D03*
X24750Y96475D02*
D03*
X18575Y81450D02*
D03*
X8300Y80250D02*
D03*
X10200Y74900D02*
D03*
X16950Y85575D02*
D03*
X18575Y91750D02*
D03*
X18600Y90350D02*
D03*
X6075Y88575D02*
D03*
X16450Y74625D02*
D03*
X17225Y74475D02*
D03*
X8950Y86100D02*
D03*
X4575Y43700D02*
D03*
X21250Y104175D02*
D03*
X26800Y115375D02*
D03*
X88000Y57500D02*
D03*
Y71500D02*
D03*
X40600Y103600D02*
D03*
X51150Y111950D02*
D03*
X51225Y103675D02*
D03*
X64125Y112025D02*
D03*
X76950Y112250D02*
D03*
X88000Y64750D02*
D03*
X77175Y103450D02*
D03*
X64200Y103525D02*
D03*
X40675Y111425D02*
D03*
X7775Y104275D02*
D03*
X3100Y5150D02*
D03*
X82750Y4725D02*
D03*
X44125Y4175D02*
D03*
X82625Y27975D02*
D03*
X56575Y26425D02*
D03*
X3875Y115700D02*
D03*
X9650Y110500D02*
D03*
X3650Y26550D02*
D03*
X64400Y1425D02*
D03*
X77150Y69525D02*
D03*
X75400Y61125D02*
D03*
Y52050D02*
D03*
X16475Y65300D02*
D03*
X19475Y79400D02*
D03*
X4300Y85175D02*
D03*
X2750Y73425D02*
D03*
X61125Y80775D02*
D03*
X61050Y73575D02*
D03*
X51800Y73225D02*
D03*
X44000Y73050D02*
D03*
X40200Y72875D02*
D03*
X72725Y73050D02*
D03*
X81700Y83375D02*
D03*
X25625Y6650D02*
D03*
D40*
X48500Y55000D02*
D03*
X48000D02*
D03*
X38250Y54900D02*
D03*
X38775D02*
D03*
X34900Y64325D02*
D03*
X34925Y61725D02*
D03*
Y63025D02*
D03*
X51875Y70100D02*
D03*
X37300Y98100D02*
D03*
X27375Y98125D02*
D03*
X19200Y98150D02*
D03*
X11075Y98125D02*
D03*
X53125Y66875D02*
D03*
X45825Y65325D02*
D03*
X49062Y65975D02*
D03*
X51675Y59475D02*
D03*
X36175Y53050D02*
D03*
X35725Y55625D02*
D03*
X36225Y55725D02*
D03*
X36815Y71410D02*
D03*
X39277Y62500D02*
D03*
X48425Y61425D02*
D03*
X44465Y57710D02*
D03*
X39050Y57900D02*
D03*
X39380Y56610D02*
D03*
X46475Y58825D02*
D03*
X39380Y56110D02*
D03*
X47125Y58825D02*
D03*
X43716Y56794D02*
D03*
X44298Y56989D02*
D03*
X39790Y57035D02*
D03*
X47125Y60130D02*
D03*
X47775Y58175D02*
D03*
X49065Y59475D02*
D03*
X40905Y65710D02*
D03*
X49075Y64025D02*
D03*
X40915Y65205D02*
D03*
X48425Y64025D02*
D03*
X44492Y69230D02*
D03*
X46475Y65975D02*
D03*
X44495Y68720D02*
D03*
X47125Y65975D02*
D03*
X49060Y66620D02*
D03*
X45906Y68628D02*
D03*
X42465Y59880D02*
D03*
X50375Y59475D02*
D03*
X49725Y60775D02*
D03*
X43780Y60085D02*
D03*
X48425Y60775D02*
D03*
X43780Y60585D02*
D03*
X48950Y68775D02*
D03*
X35625Y61950D02*
D03*
X37715Y71410D02*
D03*
X48860Y67385D02*
D03*
X50423Y54387D02*
D03*
X48125Y67450D02*
D03*
X35650Y64475D02*
D03*
X34925Y60425D02*
D03*
Y62375D02*
D03*
X34900Y63675D02*
D03*
X35650Y60935D02*
D03*
X50375Y60125D02*
D03*
X35650Y64975D02*
D03*
X51675Y65325D02*
D03*
X50375Y66625D02*
D03*
X51800Y64650D02*
D03*
X51025Y66625D02*
D03*
X51675Y58175D02*
D03*
X51025Y58825D02*
D03*
X51700Y60125D02*
D03*
X37045Y55945D02*
D03*
X38425Y56105D02*
D03*
X37581Y55294D02*
D03*
X38080Y55735D02*
D03*
X38145Y56525D02*
D03*
X51775Y60775D02*
D03*
X35600Y65945D02*
D03*
X35650Y63950D02*
D03*
X50375Y60775D02*
D03*
X35625Y62950D02*
D03*
X51025Y64025D02*
D03*
X50375Y65325D02*
D03*
X51675Y64025D02*
D03*
X35285Y59605D02*
D03*
X48425Y59475D02*
D03*
X35660Y59950D02*
D03*
X40055Y57495D02*
D03*
X50375Y62075D02*
D03*
X48425Y58825D02*
D03*
X47775Y59475D02*
D03*
Y58825D02*
D03*
X39460Y58270D02*
D03*
X46475Y65325D02*
D03*
X38521Y62821D02*
D03*
X44975Y64675D02*
D03*
X44450Y62775D02*
D03*
X46475Y62725D02*
D03*
X47125Y65325D02*
D03*
Y64675D02*
D03*
X47775Y65325D02*
D03*
X46475Y64675D02*
D03*
X45180Y57525D02*
D03*
X49725Y59475D02*
D03*
X47075Y67325D02*
D03*
X47775Y62725D02*
D03*
X48425D02*
D03*
X49130Y62725D02*
D03*
X47125Y62725D02*
D03*
X45775Y62775D02*
D03*
X45025D02*
D03*
X45100Y58175D02*
D03*
X39700Y63775D02*
D03*
X39277Y61994D02*
D03*
X39355Y64175D02*
D03*
X38900Y63596D02*
D03*
X39775Y66710D02*
D03*
X40300Y66195D02*
D03*
X39925Y65830D02*
D03*
X39395Y66330D02*
D03*
X40165Y64810D02*
D03*
X39755Y64505D02*
D03*
X35585Y59130D02*
D03*
X50375Y62725D02*
D03*
X51850Y61800D02*
D03*
X51845Y62400D02*
D03*
X48525Y56400D02*
D03*
X51025Y57525D02*
D03*
X55650Y61025D02*
D03*
X55700Y62700D02*
D03*
X44475Y64675D02*
D03*
X49600Y64220D02*
D03*
X49570Y65070D02*
D03*
X50375Y64025D02*
D03*
X49600Y63644D02*
D03*
X49130Y62085D02*
D03*
X38170Y63200D02*
D03*
X8075Y78775D02*
D03*
X9000D02*
D03*
X13225Y78725D02*
D03*
X14200Y78725D02*
D03*
X28525Y62350D02*
D03*
X6175Y80075D02*
D03*
Y82175D02*
D03*
X6100Y83275D02*
D03*
X4250Y83801D02*
D03*
X12000Y83875D02*
D03*
X12850Y84475D02*
D03*
X12875Y83225D02*
D03*
X22125Y62350D02*
D03*
X22550Y78900D02*
D03*
Y81100D02*
D03*
Y83250D02*
D03*
X3750Y85750D02*
D03*
X7025Y97275D02*
D03*
X12875Y85650D02*
D03*
X28300Y88425D02*
D03*
X29725Y61075D02*
D03*
X31025D02*
D03*
Y62375D02*
D03*
X32325D02*
D03*
Y63675D02*
D03*
X33625Y62375D02*
D03*
X31025Y63675D02*
D03*
X29725Y64975D02*
D03*
X30625Y86400D02*
D03*
Y88475D02*
D03*
X33625Y63675D02*
D03*
X34075Y79450D02*
D03*
X35250Y71900D02*
D03*
X37050Y85650D02*
D03*
X20800Y62950D02*
D03*
X24890Y62940D02*
D03*
X28525Y61725D02*
D03*
X9075Y90650D02*
D03*
X9450Y90250D02*
D03*
X9900D02*
D03*
X20825Y54675D02*
D03*
X32900Y53125D02*
D03*
X34250Y59050D02*
D03*
X29725Y59775D02*
D03*
Y61725D02*
D03*
X30550Y89575D02*
D03*
X35000Y69700D02*
D03*
X22850Y61200D02*
D03*
X29725Y64325D02*
D03*
Y65625D02*
D03*
X32325Y61725D02*
D03*
X31025Y63025D02*
D03*
X32325D02*
D03*
X31025Y65625D02*
D03*
X32325D02*
D03*
X32500Y55700D02*
D03*
X33250Y69825D02*
D03*
X31575Y82875D02*
D03*
X30625Y86975D02*
D03*
X29725Y63675D02*
D03*
Y62375D02*
D03*
X33625Y63025D02*
D03*
Y61725D02*
D03*
X29725Y63025D02*
D03*
X32325Y64325D02*
D03*
X31025Y64975D02*
D03*
Y59775D02*
D03*
X29725Y60425D02*
D03*
X31025Y64325D02*
D03*
X32325Y59775D02*
D03*
Y60425D02*
D03*
Y61075D02*
D03*
X33625Y59775D02*
D03*
Y61075D02*
D03*
Y60425D02*
D03*
Y64325D02*
D03*
X33650Y65600D02*
D03*
X31025Y60425D02*
D03*
Y61725D02*
D03*
X32325Y64975D02*
D03*
X30625Y87500D02*
D03*
X29950Y85925D02*
D03*
X30700Y91450D02*
D03*
X28200Y89450D02*
D03*
X29225Y91475D02*
D03*
X34275Y65575D02*
D03*
X33250Y71900D02*
D03*
X13725Y78725D02*
D03*
Y83875D02*
D03*
Y85075D02*
D03*
X12000D02*
D03*
X8550Y78775D02*
D03*
X14600Y85650D02*
D03*
Y84475D02*
D03*
Y83225D02*
D03*
X11125D02*
D03*
Y84450D02*
D03*
X11150Y85650D02*
D03*
X17075Y88700D02*
D03*
X22000Y76775D02*
D03*
X4250Y90500D02*
D03*
X3250Y89500D02*
D03*
X2750Y81750D02*
D03*
X11625Y88450D02*
D03*
X19025Y78575D02*
D03*
X34075Y81125D02*
D03*
X29600Y83925D02*
D03*
X29300Y86950D02*
D03*
X29375Y80100D02*
D03*
X20325Y61200D02*
D03*
X32500Y53650D02*
D03*
X27750Y54675D02*
D03*
X22025Y53150D02*
D03*
X21288Y52800D02*
D03*
X21638Y52025D02*
D03*
X2175Y97475D02*
D03*
X1475Y92975D02*
D03*
X6725Y77000D02*
D03*
X7450Y89800D02*
D03*
X8375Y76450D02*
D03*
X8150Y93100D02*
D03*
X12100Y96500D02*
D03*
X6050Y93475D02*
D03*
X52475Y61400D02*
D03*
X49150Y57475D02*
D03*
X47925Y56350D02*
D03*
X36350Y53700D02*
D03*
X49550Y68775D02*
D03*
X29175Y52375D02*
D03*
M02*
