G04 Layer_Color=128*
%FSLAX43Y43*%
%MOMM*%
G71*
G01*
G75*
%ADD56C,0.051*%
D56*
X16850Y34350D02*
X17150D01*
X17000Y34200D02*
Y34500D01*
X40550Y33750D02*
X40850D01*
X40700Y33600D02*
Y33900D01*
X48400Y55000D02*
X48600D01*
X48500Y54900D02*
Y55100D01*
X47900Y55000D02*
X48100D01*
X48000Y54900D02*
Y55100D01*
X38150Y54900D02*
X38350D01*
X38250Y54800D02*
Y55000D01*
X38675Y54900D02*
X38875D01*
X38775Y54800D02*
Y55000D01*
X34800Y64325D02*
X35000D01*
X34900Y64225D02*
Y64425D01*
X34825Y61725D02*
X35025D01*
X34925Y61625D02*
Y61825D01*
X34825Y63025D02*
X35025D01*
X34925Y62925D02*
Y63125D01*
X25975Y23150D02*
X26275D01*
X26125Y23000D02*
Y23300D01*
X45125Y44275D02*
X45425D01*
X45275Y44125D02*
Y44425D01*
X64825Y38475D02*
X65125D01*
X64975Y38325D02*
Y38625D01*
X64875Y52625D02*
X65175D01*
X65025Y52475D02*
Y52775D01*
X64800Y61125D02*
X65100D01*
X64950Y60975D02*
Y61275D01*
X64800Y69550D02*
X65100D01*
X64950Y69400D02*
Y69700D01*
X51775Y70100D02*
X51975D01*
X51875Y70000D02*
Y70200D01*
X51625Y80925D02*
X51925D01*
X51775Y80775D02*
Y81075D01*
X47050Y88225D02*
X47350D01*
X47200Y88075D02*
Y88375D01*
X37200Y98100D02*
X37400D01*
X37300Y98000D02*
Y98200D01*
X27275Y98125D02*
X27475D01*
X27375Y98025D02*
Y98225D01*
X19100Y98150D02*
X19300D01*
X19200Y98050D02*
Y98250D01*
X10975Y98125D02*
X11175D01*
X11075Y98025D02*
Y98225D01*
X53025Y66875D02*
X53225D01*
X53125Y66775D02*
Y66975D01*
X7500Y84750D02*
X7800D01*
X7650Y84600D02*
Y84900D01*
X45725Y65325D02*
X45925D01*
X45825Y65225D02*
Y65425D01*
X48962Y65975D02*
X49162D01*
X49062Y65875D02*
Y66075D01*
X51575Y59475D02*
X51775D01*
X51675Y59375D02*
Y59575D01*
X36075Y53050D02*
X36275D01*
X36175Y52950D02*
Y53150D01*
X35625Y55625D02*
X35825D01*
X35725Y55525D02*
Y55725D01*
X36125D02*
X36325D01*
X36225Y55625D02*
Y55825D01*
X36715Y71410D02*
X36915D01*
X36815Y71310D02*
Y71510D01*
X39177Y62500D02*
X39377D01*
X39277Y62400D02*
Y62600D01*
X48325Y61425D02*
X48525D01*
X48425Y61325D02*
Y61525D01*
X44365Y57710D02*
X44565D01*
X44465Y57610D02*
Y57810D01*
X38950Y57900D02*
X39150D01*
X39050Y57800D02*
Y58000D01*
X39280Y56610D02*
X39480D01*
X39380Y56510D02*
Y56710D01*
X46375Y58825D02*
X46575D01*
X46475Y58725D02*
Y58925D01*
X39280Y56110D02*
X39480D01*
X39380Y56010D02*
Y56210D01*
X47025Y58825D02*
X47225D01*
X47125Y58725D02*
Y58925D01*
X43616Y56794D02*
X43816D01*
X43716Y56694D02*
Y56894D01*
X44198Y56989D02*
X44398D01*
X44298Y56889D02*
Y57089D01*
X39690Y57035D02*
X39890D01*
X39790Y56935D02*
Y57135D01*
X47025Y60130D02*
X47225D01*
X47125Y60030D02*
Y60230D01*
X47675Y58175D02*
X47875D01*
X47775Y58075D02*
Y58275D01*
X48965Y59475D02*
X49165D01*
X49065Y59375D02*
Y59575D01*
X40805Y65710D02*
X41005D01*
X40905Y65610D02*
Y65810D01*
X48975Y64025D02*
X49175D01*
X49075Y63925D02*
Y64125D01*
X40815Y65205D02*
X41015D01*
X40915Y65105D02*
Y65305D01*
X48325Y64025D02*
X48525D01*
X48425Y63925D02*
Y64125D01*
X44392Y69230D02*
X44592D01*
X44492Y69130D02*
Y69330D01*
X46375Y65975D02*
X46575D01*
X46475Y65875D02*
Y66075D01*
X44395Y68720D02*
X44595D01*
X44495Y68620D02*
Y68820D01*
X47025Y65975D02*
X47225D01*
X47125Y65875D02*
Y66075D01*
X48960Y66620D02*
X49160D01*
X49060Y66520D02*
Y66720D01*
X45806Y68628D02*
X46006D01*
X45906Y68528D02*
Y68728D01*
X42365Y59880D02*
X42565D01*
X42465Y59780D02*
Y59980D01*
X50275Y59475D02*
X50475D01*
X50375Y59375D02*
Y59575D01*
X49625Y60775D02*
X49825D01*
X49725Y60675D02*
Y60875D01*
X43680Y60085D02*
X43880D01*
X43780Y59985D02*
Y60185D01*
X48325Y60775D02*
X48525D01*
X48425Y60675D02*
Y60875D01*
X43680Y60585D02*
X43880D01*
X43780Y60485D02*
Y60685D01*
X48850Y68775D02*
X49050D01*
X48950Y68675D02*
Y68875D01*
X40302Y52475D02*
X40602D01*
X40452Y52325D02*
Y52625D01*
X47447Y52681D02*
X47747D01*
X47597Y52531D02*
Y52831D01*
X55450Y54800D02*
X55750D01*
X55600Y54650D02*
Y54950D01*
X35525Y61950D02*
X35725D01*
X35625Y61850D02*
Y62050D01*
X37615Y71410D02*
X37815D01*
X37715Y71310D02*
Y71510D01*
X48760Y67385D02*
X48960D01*
X48860Y67285D02*
Y67485D01*
X50323Y54387D02*
X50523D01*
X50423Y54287D02*
Y54487D01*
X48025Y67450D02*
X48225D01*
X48125Y67350D02*
Y67550D01*
X35550Y64475D02*
X35750D01*
X35650Y64375D02*
Y64575D01*
X34825Y60425D02*
X35025D01*
X34925Y60325D02*
Y60525D01*
X34825Y62375D02*
X35025D01*
X34925Y62275D02*
Y62475D01*
X34800Y63675D02*
X35000D01*
X34900Y63575D02*
Y63775D01*
X35550Y60935D02*
X35750D01*
X35650Y60835D02*
Y61035D01*
X50275Y60125D02*
X50475D01*
X50375Y60025D02*
Y60225D01*
X35550Y64975D02*
X35750D01*
X35650Y64875D02*
Y65075D01*
X51575Y65325D02*
X51775D01*
X51675Y65225D02*
Y65425D01*
X50275Y66625D02*
X50475D01*
X50375Y66525D02*
Y66725D01*
X51700Y64650D02*
X51900D01*
X51800Y64550D02*
Y64750D01*
X50925Y66625D02*
X51125D01*
X51025Y66525D02*
Y66725D01*
X51575Y58175D02*
X51775D01*
X51675Y58075D02*
Y58275D01*
X50925Y58825D02*
X51125D01*
X51025Y58725D02*
Y58925D01*
X51600Y60125D02*
X51800D01*
X51700Y60025D02*
Y60225D01*
X36945Y55945D02*
X37145D01*
X37045Y55845D02*
Y56045D01*
X38325Y56105D02*
X38525D01*
X38425Y56005D02*
Y56205D01*
X37481Y55294D02*
X37681D01*
X37581Y55194D02*
Y55394D01*
X37980Y55735D02*
X38180D01*
X38080Y55635D02*
Y55835D01*
X38045Y56525D02*
X38245D01*
X38145Y56425D02*
Y56625D01*
X51675Y60775D02*
X51875D01*
X51775Y60675D02*
Y60875D01*
X35500Y65945D02*
X35700D01*
X35600Y65845D02*
Y66045D01*
X35550Y63950D02*
X35750D01*
X35650Y63850D02*
Y64050D01*
X50275Y60775D02*
X50475D01*
X50375Y60675D02*
Y60875D01*
X35525Y62950D02*
X35725D01*
X35625Y62850D02*
Y63050D01*
X50925Y64025D02*
X51125D01*
X51025Y63925D02*
Y64125D01*
X50275Y65325D02*
X50475D01*
X50375Y65225D02*
Y65425D01*
X51575Y64025D02*
X51775D01*
X51675Y63925D02*
Y64125D01*
X35185Y59605D02*
X35385D01*
X35285Y59505D02*
Y59705D01*
X48325Y59475D02*
X48525D01*
X48425Y59375D02*
Y59575D01*
X35560Y59950D02*
X35760D01*
X35660Y59850D02*
Y60050D01*
X39955Y57495D02*
X40155D01*
X40055Y57395D02*
Y57595D01*
X50275Y62075D02*
X50475D01*
X50375Y61975D02*
Y62175D01*
X48325Y58825D02*
X48525D01*
X48425Y58725D02*
Y58925D01*
X47675Y59475D02*
X47875D01*
X47775Y59375D02*
Y59575D01*
X47675Y58825D02*
X47875D01*
X47775Y58725D02*
Y58925D01*
X39360Y58270D02*
X39560D01*
X39460Y58170D02*
Y58370D01*
X46375Y65325D02*
X46575D01*
X46475Y65225D02*
Y65425D01*
X38421Y62821D02*
X38621D01*
X38521Y62721D02*
Y62921D01*
X44875Y64675D02*
X45075D01*
X44975Y64575D02*
Y64775D01*
X44350Y62775D02*
X44550D01*
X44450Y62675D02*
Y62875D01*
X46375Y62725D02*
X46575D01*
X46475Y62625D02*
Y62825D01*
X47025Y65325D02*
X47225D01*
X47125Y65225D02*
Y65425D01*
X47025Y64675D02*
X47225D01*
X47125Y64575D02*
Y64775D01*
X47675Y65325D02*
X47875D01*
X47775Y65225D02*
Y65425D01*
X46375Y64675D02*
X46575D01*
X46475Y64575D02*
Y64775D01*
X45080Y57525D02*
X45280D01*
X45180Y57425D02*
Y57625D01*
X49625Y59475D02*
X49825D01*
X49725Y59375D02*
Y59575D01*
X46975Y67325D02*
X47175D01*
X47075Y67225D02*
Y67425D01*
X47675Y62725D02*
X47875D01*
X47775Y62625D02*
Y62825D01*
X48325Y62725D02*
X48525D01*
X48425Y62625D02*
Y62825D01*
X49030Y62725D02*
X49230D01*
X49130Y62625D02*
Y62825D01*
X47025Y62725D02*
X47225D01*
X47125Y62625D02*
Y62825D01*
X45675Y62775D02*
X45875D01*
X45775Y62675D02*
Y62875D01*
X44925Y62775D02*
X45125D01*
X45025Y62675D02*
Y62875D01*
X45000Y58175D02*
X45200D01*
X45100Y58075D02*
Y58275D01*
X39600Y63775D02*
X39800D01*
X39700Y63675D02*
Y63875D01*
X39177Y61994D02*
X39377D01*
X39277Y61894D02*
Y62094D01*
X39255Y64175D02*
X39455D01*
X39355Y64075D02*
Y64275D01*
X38800Y63596D02*
X39000D01*
X38900Y63496D02*
Y63696D01*
X39675Y66710D02*
X39875D01*
X39775Y66610D02*
Y66810D01*
X40200Y66195D02*
X40400D01*
X40300Y66095D02*
Y66295D01*
X39825Y65830D02*
X40025D01*
X39925Y65730D02*
Y65930D01*
X39295Y66330D02*
X39495D01*
X39395Y66230D02*
Y66430D01*
X40065Y64810D02*
X40265D01*
X40165Y64710D02*
Y64910D01*
X39655Y64505D02*
X39855D01*
X39755Y64405D02*
Y64605D01*
X35485Y59130D02*
X35685D01*
X35585Y59030D02*
Y59230D01*
X50275Y62725D02*
X50475D01*
X50375Y62625D02*
Y62825D01*
X51750Y61800D02*
X51950D01*
X51850Y61700D02*
Y61900D01*
X51745Y62400D02*
X51945D01*
X51845Y62300D02*
Y62500D01*
X48425Y56400D02*
X48625D01*
X48525Y56300D02*
Y56500D01*
X50925Y57525D02*
X51125D01*
X51025Y57425D02*
Y57625D01*
X55550Y61025D02*
X55750D01*
X55650Y60925D02*
Y61125D01*
X55600Y62700D02*
X55800D01*
X55700Y62600D02*
Y62800D01*
X44375Y64675D02*
X44575D01*
X44475Y64575D02*
Y64775D01*
X49500Y64220D02*
X49700D01*
X49600Y64120D02*
Y64320D01*
X49470Y65070D02*
X49670D01*
X49570Y64970D02*
Y65170D01*
X50275Y64025D02*
X50475D01*
X50375Y63925D02*
Y64125D01*
X49500Y63644D02*
X49700D01*
X49600Y63544D02*
Y63744D01*
X49030Y62085D02*
X49230D01*
X49130Y61985D02*
Y62185D01*
X38070Y63200D02*
X38270D01*
X38170Y63100D02*
Y63300D01*
X7975Y78775D02*
X8175D01*
X8075Y78675D02*
Y78875D01*
X4575Y83150D02*
X4875D01*
X4725Y83000D02*
Y83300D01*
X8900Y78775D02*
X9100D01*
X9000Y78675D02*
Y78875D01*
X5200Y83150D02*
X5500D01*
X5350Y83000D02*
Y83300D01*
X5925Y89825D02*
X6225D01*
X6075Y89675D02*
Y89975D01*
X5925Y89200D02*
X6225D01*
X6075Y89050D02*
Y89350D01*
X13125Y78725D02*
X13325D01*
X13225Y78625D02*
Y78825D01*
X14100Y78725D02*
X14300D01*
X14200Y78625D02*
Y78825D01*
X11700Y89900D02*
X12000D01*
X11850Y89750D02*
Y90050D01*
X12400Y89900D02*
X12700D01*
X12550Y89750D02*
Y90050D01*
X18425Y83125D02*
X18725D01*
X18575Y82975D02*
Y83275D01*
X28425Y62350D02*
X28625D01*
X28525Y62250D02*
Y62450D01*
X5525Y52800D02*
X5825D01*
X5675Y52650D02*
Y52950D01*
X6325Y67750D02*
X6625D01*
X6475Y67600D02*
Y67900D01*
X6075Y80075D02*
X6275D01*
X6175Y79975D02*
Y80175D01*
X6075Y82175D02*
X6275D01*
X6175Y82075D02*
Y82275D01*
X6000Y83275D02*
X6200D01*
X6100Y83175D02*
Y83375D01*
X4150Y83801D02*
X4350D01*
X4250Y83701D02*
Y83901D01*
X11900Y83875D02*
X12100D01*
X12000Y83775D02*
Y83975D01*
X12750Y84475D02*
X12950D01*
X12850Y84375D02*
Y84575D01*
X12775Y83225D02*
X12975D01*
X12875Y83125D02*
Y83325D01*
X15225Y44500D02*
X15525D01*
X15375Y44350D02*
Y44650D01*
X16450Y59050D02*
X16750D01*
X16600Y58900D02*
Y59200D01*
X25925Y44300D02*
X26225D01*
X26075Y44150D02*
Y44450D01*
X22025Y62350D02*
X22225D01*
X22125Y62250D02*
Y62450D01*
X14075Y64000D02*
X14375D01*
X14225Y63850D02*
Y64150D01*
X18425Y82250D02*
X18725D01*
X18575Y82100D02*
Y82400D01*
X22450Y78900D02*
X22650D01*
X22550Y78800D02*
Y79000D01*
X22450Y81100D02*
X22650D01*
X22550Y81000D02*
Y81200D01*
X25350Y82925D02*
X25650D01*
X25500Y82775D02*
Y83075D01*
X22450Y83250D02*
X22650D01*
X22550Y83150D02*
Y83350D01*
X3650Y85750D02*
X3850D01*
X3750Y85650D02*
Y85850D01*
X4925Y88650D02*
X5225D01*
X5075Y88500D02*
Y88800D01*
X3375Y90275D02*
X3675D01*
X3525Y90125D02*
Y90425D01*
X6925Y97275D02*
X7125D01*
X7025Y97175D02*
Y97375D01*
X12775Y85650D02*
X12975D01*
X12875Y85550D02*
Y85750D01*
X12105Y91640D02*
X12405D01*
X12255Y91490D02*
Y91790D01*
X28200Y88425D02*
X28400D01*
X28300Y88325D02*
Y88525D01*
X29625Y61075D02*
X29825D01*
X29725Y60975D02*
Y61175D01*
X30925Y61075D02*
X31125D01*
X31025Y60975D02*
Y61175D01*
X30925Y62375D02*
X31125D01*
X31025Y62275D02*
Y62475D01*
X32225Y62375D02*
X32425D01*
X32325Y62275D02*
Y62475D01*
X32225Y63675D02*
X32425D01*
X32325Y63575D02*
Y63775D01*
X33525Y62375D02*
X33725D01*
X33625Y62275D02*
Y62475D01*
X30925Y63675D02*
X31125D01*
X31025Y63575D02*
Y63775D01*
X29625Y64975D02*
X29825D01*
X29725Y64875D02*
Y65075D01*
X30525Y86400D02*
X30725D01*
X30625Y86300D02*
Y86500D01*
X30525Y88475D02*
X30725D01*
X30625Y88375D02*
Y88575D01*
X31500Y96450D02*
X31800D01*
X31650Y96300D02*
Y96600D01*
X33525Y63675D02*
X33725D01*
X33625Y63575D02*
Y63775D01*
X33975Y79450D02*
X34175D01*
X34075Y79350D02*
Y79550D01*
X35150Y71900D02*
X35350D01*
X35250Y71800D02*
Y72000D01*
X36950Y85650D02*
X37150D01*
X37050Y85550D02*
Y85750D01*
X40250Y94900D02*
X40550D01*
X40400Y94750D02*
Y95050D01*
X42850Y87000D02*
X43150D01*
X43000Y86850D02*
Y87150D01*
X64000Y94525D02*
X64300D01*
X64150Y94375D02*
Y94675D01*
X64800Y86775D02*
X65100D01*
X64950Y86625D02*
Y86925D01*
X50925Y94650D02*
X51225D01*
X51075Y94500D02*
Y94800D01*
X71950Y83850D02*
X72250D01*
X72100Y83700D02*
Y84000D01*
X81575Y91900D02*
X81875D01*
X81725Y91750D02*
Y92050D01*
X77650Y94450D02*
X77950D01*
X77800Y94300D02*
Y94600D01*
X7400Y81600D02*
X7700D01*
X7550Y81450D02*
Y81750D01*
X20700Y62950D02*
X20900D01*
X20800Y62850D02*
Y63050D01*
X24790Y62940D02*
X24990D01*
X24890Y62840D02*
Y63040D01*
X28425Y61725D02*
X28625D01*
X28525Y61625D02*
Y61825D01*
X8900Y87100D02*
X9200D01*
X9050Y86950D02*
Y87250D01*
X8975Y90650D02*
X9175D01*
X9075Y90550D02*
Y90750D01*
X9350Y90250D02*
X9550D01*
X9450Y90150D02*
Y90350D01*
X9800Y90250D02*
X10000D01*
X9900Y90150D02*
Y90350D01*
X20725Y54675D02*
X20925D01*
X20825Y54575D02*
Y54775D01*
X32800Y53125D02*
X33000D01*
X32900Y53025D02*
Y53225D01*
X19200Y83575D02*
X19500D01*
X19350Y83425D02*
Y83725D01*
X34150Y59050D02*
X34350D01*
X34250Y58950D02*
Y59150D01*
X29625Y59775D02*
X29825D01*
X29725Y59675D02*
Y59875D01*
X29625Y61725D02*
X29825D01*
X29725Y61625D02*
Y61825D01*
X18500Y87025D02*
X18800D01*
X18650Y86875D02*
Y87175D01*
X30450Y89575D02*
X30650D01*
X30550Y89475D02*
Y89675D01*
X34900Y69700D02*
X35100D01*
X35000Y69600D02*
Y69800D01*
X22750Y61200D02*
X22950D01*
X22850Y61100D02*
Y61300D01*
X29625Y64325D02*
X29825D01*
X29725Y64225D02*
Y64425D01*
X29625Y65625D02*
X29825D01*
X29725Y65525D02*
Y65725D01*
X18425Y91050D02*
X18725D01*
X18575Y90900D02*
Y91200D01*
X32225Y61725D02*
X32425D01*
X32325Y61625D02*
Y61825D01*
X30925Y63025D02*
X31125D01*
X31025Y62925D02*
Y63125D01*
X32225Y63025D02*
X32425D01*
X32325Y62925D02*
Y63125D01*
X30925Y65625D02*
X31125D01*
X31025Y65525D02*
Y65725D01*
X32225Y65625D02*
X32425D01*
X32325Y65525D02*
Y65725D01*
X32400Y55700D02*
X32600D01*
X32500Y55600D02*
Y55800D01*
X33150Y69825D02*
X33350D01*
X33250Y69725D02*
Y69925D01*
X31475Y82875D02*
X31675D01*
X31575Y82775D02*
Y82975D01*
X10750Y74900D02*
X11050D01*
X10900Y74750D02*
Y75050D01*
X11425Y74900D02*
X11725D01*
X11575Y74750D02*
Y75050D01*
X30525Y86975D02*
X30725D01*
X30625Y86875D02*
Y87075D01*
X42600Y81500D02*
X42900D01*
X42750Y81350D02*
Y81650D01*
X49350Y80750D02*
X49650D01*
X49500Y80600D02*
Y80900D01*
X29625Y63675D02*
X29825D01*
X29725Y63575D02*
Y63775D01*
X29625Y62375D02*
X29825D01*
X29725Y62275D02*
Y62475D01*
X33525Y63025D02*
X33725D01*
X33625Y62925D02*
Y63125D01*
X33525Y61725D02*
X33725D01*
X33625Y61625D02*
Y61825D01*
X29625Y63025D02*
X29825D01*
X29725Y62925D02*
Y63125D01*
X32225Y64325D02*
X32425D01*
X32325Y64225D02*
Y64425D01*
X30925Y64975D02*
X31125D01*
X31025Y64875D02*
Y65075D01*
X30925Y59775D02*
X31125D01*
X31025Y59675D02*
Y59875D01*
X29625Y60425D02*
X29825D01*
X29725Y60325D02*
Y60525D01*
X30925Y64325D02*
X31125D01*
X31025Y64225D02*
Y64425D01*
X32225Y59775D02*
X32425D01*
X32325Y59675D02*
Y59875D01*
X32225Y60425D02*
X32425D01*
X32325Y60325D02*
Y60525D01*
X32225Y61075D02*
X32425D01*
X32325Y60975D02*
Y61175D01*
X33525Y59775D02*
X33725D01*
X33625Y59675D02*
Y59875D01*
X33525Y61075D02*
X33725D01*
X33625Y60975D02*
Y61175D01*
X33525Y60425D02*
X33725D01*
X33625Y60325D02*
Y60525D01*
X33525Y64325D02*
X33725D01*
X33625Y64225D02*
Y64425D01*
X33550Y65600D02*
X33750D01*
X33650Y65500D02*
Y65700D01*
X30925Y60425D02*
X31125D01*
X31025Y60325D02*
Y60525D01*
X30925Y61725D02*
X31125D01*
X31025Y61625D02*
Y61825D01*
X32225Y64975D02*
X32425D01*
X32325Y64875D02*
Y65075D01*
X30525Y87500D02*
X30725D01*
X30625Y87400D02*
Y87600D01*
X29850Y85925D02*
X30050D01*
X29950Y85825D02*
Y86025D01*
X30600Y91450D02*
X30800D01*
X30700Y91350D02*
Y91550D01*
X28100Y89450D02*
X28300D01*
X28200Y89350D02*
Y89550D01*
X6025Y61075D02*
X6325D01*
X6175Y60925D02*
Y61225D01*
X14175Y68325D02*
X14475D01*
X14325Y68175D02*
Y68475D01*
X24600Y96475D02*
X24900D01*
X24750Y96325D02*
Y96625D01*
X29125Y91475D02*
X29325D01*
X29225Y91375D02*
Y91575D01*
X34175Y65575D02*
X34375D01*
X34275Y65475D02*
Y65675D01*
X33150Y71900D02*
X33350D01*
X33250Y71800D02*
Y72000D01*
X18425Y81450D02*
X18725D01*
X18575Y81300D02*
Y81600D01*
X13625Y78725D02*
X13825D01*
X13725Y78625D02*
Y78825D01*
X13625Y83875D02*
X13825D01*
X13725Y83775D02*
Y83975D01*
X13625Y85075D02*
X13825D01*
X13725Y84975D02*
Y85175D01*
X11900Y85075D02*
X12100D01*
X12000Y84975D02*
Y85175D01*
X8450Y78775D02*
X8650D01*
X8550Y78675D02*
Y78875D01*
X8150Y80250D02*
X8450D01*
X8300Y80100D02*
Y80400D01*
X14500Y85650D02*
X14700D01*
X14600Y85550D02*
Y85750D01*
X14500Y84475D02*
X14700D01*
X14600Y84375D02*
Y84575D01*
X14500Y83225D02*
X14700D01*
X14600Y83125D02*
Y83325D01*
X11025Y83225D02*
X11225D01*
X11125Y83125D02*
Y83325D01*
X11025Y84450D02*
X11225D01*
X11125Y84350D02*
Y84550D01*
X11050Y85650D02*
X11250D01*
X11150Y85550D02*
Y85750D01*
X16975Y88700D02*
X17175D01*
X17075Y88600D02*
Y88800D01*
X10050Y74900D02*
X10350D01*
X10200Y74750D02*
Y75050D01*
X16800Y85575D02*
X17100D01*
X16950Y85425D02*
Y85725D01*
X21900Y76775D02*
X22100D01*
X22000Y76675D02*
Y76875D01*
X4150Y90500D02*
X4350D01*
X4250Y90400D02*
Y90600D01*
X3150Y89500D02*
X3350D01*
X3250Y89400D02*
Y89600D01*
X2650Y81750D02*
X2850D01*
X2750Y81650D02*
Y81850D01*
X18425Y91750D02*
X18725D01*
X18575Y91600D02*
Y91900D01*
X18450Y90350D02*
X18750D01*
X18600Y90200D02*
Y90500D01*
X5925Y88575D02*
X6225D01*
X6075Y88425D02*
Y88725D01*
X16300Y74625D02*
X16600D01*
X16450Y74475D02*
Y74775D01*
X17075Y74475D02*
X17375D01*
X17225Y74325D02*
Y74625D01*
X8800Y86100D02*
X9100D01*
X8950Y85950D02*
Y86250D01*
X11525Y88450D02*
X11725D01*
X11625Y88350D02*
Y88550D01*
X18925Y78575D02*
X19125D01*
X19025Y78475D02*
Y78675D01*
X33975Y81125D02*
X34175D01*
X34075Y81025D02*
Y81225D01*
X29500Y83925D02*
X29700D01*
X29600Y83825D02*
Y84025D01*
X29200Y86950D02*
X29400D01*
X29300Y86850D02*
Y87050D01*
X29275Y80100D02*
X29475D01*
X29375Y80000D02*
Y80200D01*
X20225Y61200D02*
X20425D01*
X20325Y61100D02*
Y61300D01*
X4425Y43700D02*
X4725D01*
X4575Y43550D02*
Y43850D01*
X32400Y53650D02*
X32600D01*
X32500Y53550D02*
Y53750D01*
X27650Y54675D02*
X27850D01*
X27750Y54575D02*
Y54775D01*
X21925Y53150D02*
X22125D01*
X22025Y53050D02*
Y53250D01*
X21188Y52800D02*
X21388D01*
X21288Y52700D02*
Y52900D01*
X21538Y52025D02*
X21737D01*
X21638Y51925D02*
Y52125D01*
X2075Y97475D02*
X2275D01*
X2175Y97375D02*
Y97575D01*
X1375Y92975D02*
X1575D01*
X1475Y92875D02*
Y93075D01*
X21100Y104175D02*
X21400D01*
X21250Y104025D02*
Y104325D01*
X26650Y115375D02*
X26950D01*
X26800Y115225D02*
Y115525D01*
X87850Y57500D02*
X88150D01*
X88000Y57350D02*
Y57650D01*
X87850Y71500D02*
X88150D01*
X88000Y71350D02*
Y71650D01*
X40450Y103600D02*
X40750D01*
X40600Y103450D02*
Y103750D01*
X51000Y111950D02*
X51300D01*
X51150Y111800D02*
Y112100D01*
X51075Y103675D02*
X51375D01*
X51225Y103525D02*
Y103825D01*
X63975Y112025D02*
X64275D01*
X64125Y111875D02*
Y112175D01*
X76800Y112250D02*
X77100D01*
X76950Y112100D02*
Y112400D01*
X87850Y64750D02*
X88150D01*
X88000Y64600D02*
Y64900D01*
X77025Y103450D02*
X77325D01*
X77175Y103300D02*
Y103600D01*
X64050Y103525D02*
X64350D01*
X64200Y103375D02*
Y103675D01*
X40525Y111425D02*
X40825D01*
X40675Y111275D02*
Y111575D01*
X7625Y104275D02*
X7925D01*
X7775Y104125D02*
Y104425D01*
X2950Y5150D02*
X3250D01*
X3100Y5000D02*
Y5300D01*
X82600Y4725D02*
X82900D01*
X82750Y4575D02*
Y4875D01*
X43975Y4175D02*
X44275D01*
X44125Y4025D02*
Y4325D01*
X82475Y27975D02*
X82775D01*
X82625Y27825D02*
Y28125D01*
X56425Y26425D02*
X56725D01*
X56575Y26275D02*
Y26575D01*
X3725Y115700D02*
X4025D01*
X3875Y115550D02*
Y115850D01*
X9500Y110500D02*
X9800D01*
X9650Y110350D02*
Y110650D01*
X3500Y26550D02*
X3800D01*
X3650Y26400D02*
Y26700D01*
X64250Y1425D02*
X64550D01*
X64400Y1275D02*
Y1575D01*
X6625Y77000D02*
X6825D01*
X6725Y76900D02*
Y77100D01*
X7350Y89800D02*
X7550D01*
X7450Y89700D02*
Y89900D01*
X8275Y76450D02*
X8475D01*
X8375Y76350D02*
Y76550D01*
X77000Y69525D02*
X77300D01*
X77150Y69375D02*
Y69675D01*
X75250Y61125D02*
X75550D01*
X75400Y60975D02*
Y61275D01*
X75250Y52050D02*
X75550D01*
X75400Y51900D02*
Y52200D01*
X16325Y65300D02*
X16625D01*
X16475Y65150D02*
Y65450D01*
X19325Y79400D02*
X19625D01*
X19475Y79250D02*
Y79550D01*
X4150Y85175D02*
X4450D01*
X4300Y85025D02*
Y85325D01*
X2600Y73425D02*
X2900D01*
X2750Y73275D02*
Y73575D01*
X8050Y93100D02*
X8250D01*
X8150Y93000D02*
Y93200D01*
X12000Y96500D02*
X12200D01*
X12100Y96400D02*
Y96600D01*
X5950Y93475D02*
X6150D01*
X6050Y93375D02*
Y93575D01*
X60975Y80775D02*
X61275D01*
X61125Y80625D02*
Y80925D01*
X60900Y73575D02*
X61200D01*
X61050Y73425D02*
Y73725D01*
X51650Y73225D02*
X51950D01*
X51800Y73075D02*
Y73375D01*
X43850Y73050D02*
X44150D01*
X44000Y72900D02*
Y73200D01*
X40050Y72875D02*
X40350D01*
X40200Y72725D02*
Y73025D01*
X72575Y73050D02*
X72875D01*
X72725Y72900D02*
Y73200D01*
X81550Y83375D02*
X81850D01*
X81700Y83225D02*
Y83525D01*
X25475Y6650D02*
X25775D01*
X25625Y6500D02*
Y6800D01*
X52375Y61400D02*
X52575D01*
X52475Y61300D02*
Y61500D01*
X49050Y57475D02*
X49250D01*
X49150Y57375D02*
Y57575D01*
X47825Y56350D02*
X48025D01*
X47925Y56250D02*
Y56450D01*
X36250Y53700D02*
X36450D01*
X36350Y53600D02*
Y53800D01*
X49450Y68775D02*
X49650D01*
X49550Y68675D02*
Y68875D01*
X29075Y52375D02*
X29275D01*
X29175Y52275D02*
Y52475D01*
M02*
