G04 Layer_Physical_Order=6*
G04 Layer_Color=16711680*
%FSLAX43Y43*%
%MOMM*%
G71*
G01*
G75*
%ADD10R,0.510X0.560*%
%ADD13R,0.700X0.510*%
%ADD14R,0.560X0.510*%
%ADD20R,0.890X0.640*%
%ADD21R,0.640X0.890*%
%ADD24C,0.120*%
%ADD25C,0.200*%
%ADD26C,0.175*%
%ADD27C,0.100*%
%ADD28C,0.090*%
%ADD30C,0.300*%
%ADD33C,0.127*%
%ADD34C,0.130*%
%ADD36C,0.600*%
%ADD37C,0.250*%
%ADD39C,0.600*%
%ADD40C,0.400*%
G36*
X88592Y408D02*
X408D01*
Y119592D01*
X88592D01*
Y408D01*
D02*
G37*
%LPC*%
G36*
X31955Y66113D02*
X31395D01*
X31318Y66082D01*
X31305Y66048D01*
X31227Y65981D01*
X31077Y65921D01*
X31025Y65931D01*
X30973Y65921D01*
X30823Y65981D01*
X30745Y66048D01*
X30732Y66082D01*
X30655Y66113D01*
X30095D01*
X30018Y66082D01*
X30005Y66048D01*
X29927Y65981D01*
X29777Y65921D01*
X29725Y65931D01*
X29673Y65921D01*
X29523Y65981D01*
X29445Y66048D01*
X29432Y66082D01*
X29355Y66113D01*
X28795D01*
X28718Y66082D01*
X28687Y66005D01*
Y65495D01*
X28718Y65418D01*
X28795Y65387D01*
X29116D01*
X29200Y65370D01*
X29566D01*
X29608Y65342D01*
X29725Y65319D01*
X29842Y65342D01*
X29884Y65370D01*
X30250D01*
X30334Y65387D01*
X30416D01*
X30500Y65370D01*
X30866D01*
X30908Y65342D01*
X31025Y65319D01*
X31142Y65342D01*
X31184Y65370D01*
X31550D01*
X31634Y65387D01*
X31716D01*
X31800Y65370D01*
X32166D01*
X32208Y65342D01*
X32325Y65319D01*
X32442Y65342D01*
X32541Y65409D01*
X32608Y65508D01*
X32631Y65625D01*
X32608Y65742D01*
X32541Y65841D01*
X32442Y65908D01*
X32325Y65931D01*
X32273Y65921D01*
X32123Y65981D01*
X32045Y66048D01*
X32032Y66082D01*
X31955Y66113D01*
D02*
G37*
G36*
X35000Y70006D02*
X34883Y69983D01*
X34784Y69916D01*
X34717Y69817D01*
X34694Y69700D01*
X34717Y69583D01*
X34784Y69484D01*
X34883Y69417D01*
X35000Y69394D01*
X35117Y69417D01*
X35216Y69484D01*
X35283Y69583D01*
X35306Y69700D01*
X35283Y69817D01*
X35216Y69916D01*
X35117Y69983D01*
X35000Y70006D01*
D02*
G37*
G36*
X31025Y63331D02*
X30908Y63308D01*
X30809Y63241D01*
X30742Y63142D01*
X30719Y63025D01*
X30742Y62908D01*
X30809Y62809D01*
X30908Y62742D01*
X31025Y62719D01*
X31142Y62742D01*
X31241Y62809D01*
X31308Y62908D01*
X31331Y63025D01*
X31308Y63142D01*
X31241Y63241D01*
X31142Y63308D01*
X31025Y63331D01*
D02*
G37*
G36*
X32325Y64631D02*
X32208Y64608D01*
X32109Y64541D01*
X32109Y64541D01*
X32042Y64442D01*
X31955Y64438D01*
X31582D01*
X31560Y64460D01*
X31498Y64502D01*
X31425Y64516D01*
X31258D01*
X31241Y64541D01*
X31142Y64608D01*
X31025Y64631D01*
X30908Y64608D01*
X30809Y64541D01*
X30809Y64541D01*
X30742Y64442D01*
X30655Y64438D01*
X30282D01*
X30260Y64460D01*
X30198Y64502D01*
X30125Y64516D01*
X29958D01*
X29941Y64541D01*
X29842Y64608D01*
X29725Y64631D01*
X29608Y64608D01*
X29509Y64541D01*
X29442Y64442D01*
X29419Y64325D01*
X29442Y64208D01*
X29509Y64109D01*
X29608Y64042D01*
X29725Y64019D01*
X29777Y64029D01*
X29947Y63929D01*
X29987Y63887D01*
Y63820D01*
X30018Y63743D01*
X30095Y63712D01*
X30655D01*
X30732Y63743D01*
X30763Y63820D01*
Y63884D01*
X30775D01*
X30848Y63898D01*
X30910Y63940D01*
X30995Y64025D01*
X31025Y64019D01*
X31077Y64029D01*
X31247Y63929D01*
X31287Y63887D01*
Y63820D01*
X31318Y63743D01*
X31395Y63712D01*
X31955D01*
X32032Y63743D01*
X32063Y63820D01*
Y63884D01*
X32075D01*
X32148Y63898D01*
X32210Y63940D01*
X32295Y64025D01*
X32325Y64019D01*
X32442Y64042D01*
X32541Y64109D01*
X32608Y64208D01*
X32631Y64325D01*
X32608Y64442D01*
X32541Y64541D01*
X32442Y64608D01*
X32325Y64631D01*
D02*
G37*
G36*
X16450Y75033D02*
X16294Y75002D01*
X16162Y74913D01*
X16073Y74781D01*
X16042Y74625D01*
X16073Y74469D01*
X16162Y74337D01*
X16294Y74248D01*
X16450Y74217D01*
X16606Y74248D01*
X16645Y74274D01*
X16786Y74305D01*
X16914Y74221D01*
X16937Y74187D01*
X17069Y74098D01*
X17225Y74067D01*
X17381Y74098D01*
X17513Y74187D01*
X17602Y74319D01*
X17633Y74475D01*
X17602Y74631D01*
X17513Y74763D01*
X17381Y74852D01*
X17225Y74883D01*
X17069Y74852D01*
X17030Y74826D01*
X16889Y74795D01*
X16761Y74879D01*
X16738Y74913D01*
X16606Y75002D01*
X16450Y75033D01*
D02*
G37*
G36*
X19025Y78881D02*
X18908Y78858D01*
X18809Y78791D01*
X18742Y78692D01*
X18719Y78575D01*
X18742Y78458D01*
X18809Y78359D01*
X18908Y78292D01*
X19025Y78269D01*
X19142Y78292D01*
X19241Y78359D01*
X19308Y78458D01*
X19331Y78575D01*
X19308Y78692D01*
X19241Y78791D01*
X19142Y78858D01*
X19025Y78881D01*
D02*
G37*
G36*
X33250Y70131D02*
X33133Y70108D01*
X33034Y70041D01*
X32967Y69942D01*
X32944Y69825D01*
X32967Y69708D01*
X33034Y69609D01*
X33133Y69542D01*
X33250Y69519D01*
X33367Y69542D01*
X33466Y69609D01*
X33533Y69708D01*
X33556Y69825D01*
X33533Y69942D01*
X33466Y70041D01*
X33367Y70108D01*
X33250Y70131D01*
D02*
G37*
G36*
X36815Y71716D02*
X36698Y71693D01*
X36599Y71626D01*
X36533Y71527D01*
X36509Y71410D01*
X36533Y71293D01*
X36599Y71194D01*
X36698Y71127D01*
X36815Y71104D01*
X36932Y71127D01*
X37031Y71194D01*
X37098Y71293D01*
X37121Y71410D01*
X37098Y71527D01*
X37031Y71626D01*
X36932Y71693D01*
X36815Y71716D01*
D02*
G37*
G36*
X29355Y63538D02*
X28795D01*
X28718Y63507D01*
X28687Y63430D01*
Y62920D01*
X28718Y62843D01*
X28795Y62812D01*
X29355D01*
X29408Y62834D01*
X29492D01*
X29509Y62809D01*
X29608Y62742D01*
X29725Y62719D01*
X29842Y62742D01*
X29941Y62809D01*
X30008Y62908D01*
X30031Y63025D01*
X30008Y63142D01*
X29941Y63241D01*
X29842Y63308D01*
X29725Y63331D01*
X29673Y63321D01*
X29500Y63411D01*
X29452Y63456D01*
X29432Y63507D01*
X29355Y63538D01*
D02*
G37*
G36*
X48500Y55306D02*
X48383Y55283D01*
X48284Y55216D01*
X48217Y55117D01*
X48194Y55000D01*
X48217Y54883D01*
X48284Y54784D01*
X48383Y54717D01*
X48500Y54694D01*
X48617Y54717D01*
X48716Y54784D01*
X48783Y54883D01*
X48806Y55000D01*
X48783Y55117D01*
X48716Y55216D01*
X48617Y55283D01*
X48500Y55306D01*
D02*
G37*
G36*
X27750Y54981D02*
X27633Y54958D01*
X27534Y54891D01*
X27498Y54837D01*
X21077D01*
X21041Y54891D01*
X20942Y54958D01*
X20825Y54981D01*
X20708Y54958D01*
X20609Y54891D01*
X20542Y54792D01*
X20519Y54675D01*
X20542Y54558D01*
X20609Y54459D01*
X20708Y54392D01*
X20825Y54369D01*
X20942Y54392D01*
X21041Y54459D01*
X21077Y54513D01*
X27498D01*
X27534Y54459D01*
X27633Y54392D01*
X27750Y54369D01*
X27867Y54392D01*
X27966Y54459D01*
X28033Y54558D01*
X28056Y54675D01*
X28033Y54792D01*
X27966Y54891D01*
X27867Y54958D01*
X27750Y54981D01*
D02*
G37*
G36*
X36175Y53356D02*
X36058Y53333D01*
X35959Y53266D01*
X35892Y53167D01*
X35869Y53050D01*
X35882Y52986D01*
X35083Y52187D01*
X21890D01*
X21854Y52241D01*
X21755Y52308D01*
X21638Y52331D01*
X21520Y52308D01*
X21421Y52241D01*
X21355Y52142D01*
X21332Y52025D01*
X21355Y51908D01*
X21421Y51809D01*
X21520Y51742D01*
X21638Y51719D01*
X21755Y51742D01*
X21854Y51809D01*
X21890Y51863D01*
X35150D01*
X35265Y51910D01*
X36111Y52757D01*
X36175Y52744D01*
X36292Y52767D01*
X36391Y52834D01*
X36458Y52933D01*
X36481Y53050D01*
X36458Y53167D01*
X36391Y53266D01*
X36292Y53333D01*
X36175Y53356D01*
D02*
G37*
G36*
X38775Y55206D02*
X38658Y55183D01*
X38559Y55116D01*
X38492Y55017D01*
X38469Y54900D01*
X38492Y54783D01*
X38559Y54684D01*
X38658Y54617D01*
X38775Y54594D01*
X38892Y54617D01*
X38991Y54684D01*
X39058Y54783D01*
X39081Y54900D01*
X39058Y55017D01*
X38991Y55116D01*
X38892Y55183D01*
X38775Y55206D01*
D02*
G37*
G36*
X38145Y56831D02*
X38028Y56808D01*
X37929Y56741D01*
X37862Y56642D01*
X37839Y56525D01*
X37862Y56408D01*
X37929Y56309D01*
X38022Y56246D01*
X38017Y56048D01*
X37963Y56018D01*
X37864Y55951D01*
X37797Y55852D01*
X37779Y55759D01*
X37766Y55729D01*
X37587Y55599D01*
X37581Y55600D01*
X37464Y55577D01*
X37365Y55511D01*
X37298Y55411D01*
X37275Y55294D01*
X37298Y55177D01*
X37365Y55078D01*
X37464Y55012D01*
X37581Y54988D01*
X37698Y55012D01*
X37797Y55078D01*
X37863Y55177D01*
X37882Y55271D01*
X37895Y55300D01*
X38074Y55430D01*
X38080Y55429D01*
X38197Y55452D01*
X38296Y55519D01*
X38363Y55618D01*
X38386Y55735D01*
X38542Y55822D01*
X38641Y55889D01*
X38708Y55988D01*
X38731Y56105D01*
X38708Y56222D01*
X38641Y56321D01*
X38542Y56388D01*
X38428Y56410D01*
X38451Y56525D01*
X38428Y56642D01*
X38361Y56741D01*
X38262Y56808D01*
X38145Y56831D01*
D02*
G37*
G36*
X37045Y56251D02*
X36928Y56228D01*
X36829Y56161D01*
X36762Y56062D01*
X36739Y55945D01*
X36762Y55828D01*
X36829Y55729D01*
X36928Y55662D01*
X37045Y55639D01*
X37162Y55662D01*
X37261Y55729D01*
X37328Y55828D01*
X37351Y55945D01*
X37328Y56062D01*
X37261Y56161D01*
X37162Y56228D01*
X37045Y56251D01*
D02*
G37*
G36*
X32500Y56006D02*
X32383Y55983D01*
X32284Y55916D01*
X32217Y55817D01*
X32194Y55700D01*
X32217Y55583D01*
X32284Y55484D01*
X32383Y55417D01*
X32500Y55394D01*
X32617Y55417D01*
X32716Y55484D01*
X32783Y55583D01*
X32806Y55700D01*
X32783Y55817D01*
X32716Y55916D01*
X32617Y55983D01*
X32500Y56006D01*
D02*
G37*
G36*
X34250Y59356D02*
X34133Y59333D01*
X34034Y59266D01*
X33967Y59167D01*
X33944Y59050D01*
X33967Y58933D01*
X33995Y58891D01*
Y58828D01*
X33905Y58638D01*
X33345D01*
X33268Y58607D01*
X33237Y58530D01*
Y58020D01*
X33268Y57943D01*
X33345Y57912D01*
X33905D01*
X33995Y57722D01*
Y54106D01*
X33524Y53635D01*
X33155D01*
X33057Y53615D01*
X32975Y53560D01*
X32832Y53417D01*
X32783Y53408D01*
X32684Y53341D01*
X32617Y53242D01*
X32594Y53125D01*
X32437Y52928D01*
X21563D01*
X21504Y53016D01*
X21405Y53083D01*
X21288Y53106D01*
X21170Y53083D01*
X21071Y53016D01*
X21005Y52917D01*
X20982Y52800D01*
X21005Y52683D01*
X21071Y52584D01*
X21170Y52517D01*
X21288Y52494D01*
X21405Y52517D01*
X21504Y52584D01*
X21516Y52602D01*
X34690D01*
X34690Y52602D01*
X34752Y52614D01*
X34805Y52650D01*
X34928Y52772D01*
X34930Y52775D01*
X35865Y53710D01*
X35912Y53825D01*
Y55321D01*
X36097Y55449D01*
X36108Y55443D01*
X36108Y55442D01*
X36225Y55419D01*
X36342Y55442D01*
X36441Y55509D01*
X36508Y55608D01*
X36531Y55725D01*
X36508Y55842D01*
X36441Y55941D01*
X36342Y56008D01*
X36225Y56031D01*
X36108Y56008D01*
X36009Y55941D01*
X35842Y55908D01*
X35803Y55915D01*
X35750Y55937D01*
X35731Y55930D01*
X35725Y55931D01*
X35608Y55908D01*
X35509Y55841D01*
X35442Y55742D01*
X35419Y55625D01*
X35442Y55508D01*
X35509Y55409D01*
X35588Y55356D01*
Y53892D01*
X34700Y53005D01*
X34697Y53003D01*
X34622Y52928D01*
X33717D01*
X33696Y53138D01*
X33727Y53144D01*
X33810Y53200D01*
X34430Y53820D01*
X34485Y53902D01*
X34505Y54000D01*
Y58891D01*
X34533Y58933D01*
X34556Y59050D01*
X34533Y59167D01*
X34466Y59266D01*
X34367Y59333D01*
X34250Y59356D01*
D02*
G37*
G36*
X14200Y79031D02*
X14083Y79008D01*
X13984Y78941D01*
X13842Y79008D01*
X13725Y79031D01*
X13608Y79008D01*
X13475Y78955D01*
X13342Y79008D01*
X13225Y79031D01*
X13108Y79008D01*
X13009Y78941D01*
X12942Y78842D01*
X12919Y78725D01*
X12942Y78608D01*
X13009Y78509D01*
X13108Y78442D01*
X13225Y78419D01*
X13342Y78442D01*
X13475Y78495D01*
X13608Y78442D01*
X13725Y78419D01*
X13842Y78442D01*
X13941Y78509D01*
X14083Y78442D01*
X14200Y78419D01*
X14317Y78442D01*
X14416Y78509D01*
X14483Y78608D01*
X14506Y78725D01*
X14483Y78842D01*
X14416Y78941D01*
X14317Y79008D01*
X14200Y79031D01*
D02*
G37*
G36*
X18650Y87433D02*
X18494Y87402D01*
X18362Y87313D01*
X18273Y87181D01*
X18242Y87025D01*
X18273Y86869D01*
X18362Y86737D01*
X18494Y86648D01*
X18650Y86617D01*
X18806Y86648D01*
X18938Y86737D01*
X19027Y86869D01*
X19058Y87025D01*
X19027Y87181D01*
X18938Y87313D01*
X18806Y87402D01*
X18650Y87433D01*
D02*
G37*
G36*
X27795Y90003D02*
X26905D01*
X26828Y89972D01*
X26797Y89895D01*
Y89382D01*
X25070Y87655D01*
X25015Y87573D01*
X24995Y87475D01*
Y86906D01*
X22469Y84380D01*
X18775D01*
X18677Y84360D01*
X18595Y84305D01*
X17095Y82805D01*
X17040Y82723D01*
X17020Y82625D01*
Y80706D01*
X11615Y75300D01*
X11575Y75308D01*
X11419Y75277D01*
X11393Y75260D01*
X11238Y75205D01*
X11082Y75260D01*
X11056Y75277D01*
X10900Y75308D01*
X10744Y75277D01*
X10612Y75188D01*
X10488D01*
X10356Y75277D01*
X10200Y75308D01*
X10044Y75277D01*
X9912Y75188D01*
X9823Y75056D01*
X9792Y74900D01*
X9823Y74744D01*
X9912Y74612D01*
X10044Y74523D01*
X10200Y74492D01*
X10356Y74523D01*
X10488Y74612D01*
X10612D01*
X10744Y74523D01*
X10900Y74492D01*
X11056Y74523D01*
X11082Y74540D01*
X11238Y74595D01*
X11393Y74540D01*
X11419Y74523D01*
X11575Y74492D01*
X11731Y74523D01*
X11863Y74612D01*
X11952Y74744D01*
X11983Y74900D01*
X11975Y74939D01*
X17455Y80420D01*
X17510Y80502D01*
X17530Y80600D01*
Y82519D01*
X17983Y82973D01*
X18050Y82972D01*
X18230Y82922D01*
X18287Y82837D01*
X18419Y82748D01*
X18575Y82717D01*
X18731Y82748D01*
X18863Y82837D01*
X18952Y82969D01*
X18976Y83091D01*
X19088Y83169D01*
X19181Y83207D01*
X19194Y83198D01*
X19350Y83167D01*
X19506Y83198D01*
X19638Y83287D01*
X19727Y83419D01*
X19758Y83575D01*
X19741Y83660D01*
X19846Y83835D01*
X19886Y83870D01*
X22575D01*
X22673Y83890D01*
X22755Y83945D01*
X25430Y86620D01*
X25485Y86702D01*
X25505Y86800D01*
Y87369D01*
X27282Y89147D01*
X27795D01*
X27872Y89178D01*
X28072Y89174D01*
X28083Y89167D01*
X28101Y89164D01*
X29070Y88194D01*
Y87600D01*
X29090Y87502D01*
X29145Y87420D01*
X29637Y86928D01*
Y86645D01*
X29668Y86568D01*
X29745Y86537D01*
X30305D01*
X30382Y86568D01*
X30466Y86651D01*
X30623Y86669D01*
X30625Y86669D01*
X30742Y86692D01*
X30841Y86759D01*
X30908Y86858D01*
X30931Y86975D01*
X30908Y87092D01*
X30841Y87191D01*
X30742Y87258D01*
X30625Y87281D01*
X30508Y87258D01*
X30504Y87255D01*
X30325D01*
X30305Y87263D01*
X30022D01*
X29580Y87706D01*
Y88300D01*
X29560Y88398D01*
X29505Y88480D01*
X28499Y89487D01*
X28483Y89567D01*
X28416Y89666D01*
X28317Y89733D01*
X28200Y89756D01*
X28113Y89739D01*
X28004Y89783D01*
X27903Y89847D01*
Y89895D01*
X27872Y89972D01*
X27795Y90003D01*
D02*
G37*
G36*
X12550Y90308D02*
X12394Y90277D01*
X12262Y90188D01*
X12138D01*
X12006Y90277D01*
X11850Y90308D01*
X11694Y90277D01*
X11562Y90188D01*
X11473Y90056D01*
X11442Y89900D01*
X11473Y89744D01*
X11562Y89612D01*
X11694Y89523D01*
X11850Y89492D01*
X12006Y89523D01*
X12138Y89612D01*
X12262D01*
X12394Y89523D01*
X12550Y89492D01*
X12706Y89523D01*
X12838Y89612D01*
X12927Y89744D01*
X12958Y89900D01*
X12927Y90056D01*
X12838Y90188D01*
X12706Y90277D01*
X12550Y90308D01*
D02*
G37*
G36*
X31920Y90328D02*
X31030D01*
X30953Y90297D01*
X30922Y90220D01*
Y90155D01*
X30875D01*
X30777Y90135D01*
X30695Y90080D01*
X30482Y89867D01*
X30433Y89858D01*
X30334Y89791D01*
X30267Y89692D01*
X30244Y89575D01*
X30267Y89458D01*
X30334Y89359D01*
X30433Y89292D01*
X30482Y89283D01*
X31145Y88619D01*
Y86481D01*
X30844Y86180D01*
X30109D01*
X30067Y86208D01*
X29950Y86231D01*
X29833Y86208D01*
X29791Y86180D01*
X29650D01*
X29552Y86160D01*
X29470Y86105D01*
X29203Y85838D01*
X28920D01*
X28843Y85807D01*
X28812Y85730D01*
Y85220D01*
X28843Y85143D01*
X28920Y85112D01*
X29480D01*
X29557Y85143D01*
X29588Y85220D01*
Y85503D01*
X29756Y85670D01*
X29791D01*
X29833Y85642D01*
X29950Y85619D01*
X30067Y85642D01*
X30109Y85670D01*
X30950D01*
X31048Y85690D01*
X31130Y85745D01*
X31580Y86195D01*
X31635Y86277D01*
X31655Y86375D01*
Y88725D01*
X31635Y88823D01*
X31580Y88905D01*
X31224Y89262D01*
X31311Y89472D01*
X31920D01*
X31997Y89503D01*
X32028Y89580D01*
Y90220D01*
X31997Y90297D01*
X31920Y90328D01*
D02*
G37*
G36*
X11625Y88756D02*
X11508Y88733D01*
X11409Y88666D01*
X11342Y88567D01*
X11319Y88450D01*
X11342Y88333D01*
X11409Y88234D01*
X11508Y88167D01*
X11625Y88144D01*
X11742Y88167D01*
X11841Y88234D01*
X11908Y88333D01*
X11931Y88450D01*
X11908Y88567D01*
X11841Y88666D01*
X11742Y88733D01*
X11625Y88756D01*
D02*
G37*
G36*
X18575Y92158D02*
X18419Y92127D01*
X18287Y92038D01*
X18198Y91906D01*
X18167Y91750D01*
X18198Y91594D01*
X18287Y91462D01*
Y91338D01*
X18198Y91206D01*
X18167Y91050D01*
X18198Y90894D01*
X18235Y90839D01*
X18312Y90638D01*
X18223Y90506D01*
X18192Y90350D01*
X18223Y90194D01*
X18312Y90062D01*
X18444Y89973D01*
X18600Y89942D01*
X18756Y89973D01*
X18888Y90062D01*
X18977Y90194D01*
X19008Y90350D01*
X18977Y90506D01*
X18940Y90561D01*
X18863Y90762D01*
X18952Y90894D01*
X18983Y91050D01*
X18952Y91206D01*
X18863Y91338D01*
Y91462D01*
X18952Y91594D01*
X18983Y91750D01*
X18952Y91906D01*
X18863Y92038D01*
X18731Y92127D01*
X18575Y92158D01*
D02*
G37*
G36*
X9075Y90956D02*
X8958Y90933D01*
X8859Y90866D01*
X8792Y90767D01*
X8769Y90650D01*
X8792Y90533D01*
X8859Y90434D01*
X8958Y90367D01*
X9075Y90344D01*
X9164Y90148D01*
X9167Y90133D01*
X9234Y90034D01*
X9333Y89967D01*
X9450Y89944D01*
X9567Y89967D01*
X9666Y90034D01*
X9684D01*
X9783Y89967D01*
X9900Y89944D01*
X10017Y89967D01*
X10116Y90034D01*
X10183Y90133D01*
X10206Y90250D01*
X10183Y90367D01*
X10116Y90466D01*
X10017Y90533D01*
X9900Y90556D01*
X9783Y90533D01*
X9684Y90466D01*
X9666D01*
X9567Y90533D01*
X9450Y90556D01*
X9361Y90752D01*
X9358Y90767D01*
X9291Y90866D01*
X9192Y90933D01*
X9075Y90956D01*
D02*
G37*
G36*
X6075Y90233D02*
X5919Y90202D01*
X5787Y90113D01*
X5698Y89981D01*
X5667Y89825D01*
X5698Y89669D01*
X5775Y89512D01*
X5698Y89356D01*
X5667Y89200D01*
X5698Y89044D01*
X5775Y88887D01*
X5698Y88731D01*
X5667Y88575D01*
X5698Y88419D01*
X5787Y88287D01*
X5919Y88198D01*
X6075Y88167D01*
X6231Y88198D01*
X6363Y88287D01*
X6452Y88419D01*
X6483Y88575D01*
X6452Y88731D01*
X6375Y88887D01*
X6452Y89044D01*
X6483Y89200D01*
X6452Y89356D01*
X6375Y89512D01*
X6452Y89669D01*
X6483Y89825D01*
X6452Y89981D01*
X6363Y90113D01*
X6231Y90202D01*
X6075Y90233D01*
D02*
G37*
G36*
X17075Y89006D02*
X16958Y88983D01*
X16859Y88916D01*
X16792Y88817D01*
X16769Y88700D01*
X16792Y88583D01*
X16859Y88484D01*
X16958Y88417D01*
X17075Y88394D01*
X17192Y88417D01*
X17291Y88484D01*
X17358Y88583D01*
X17381Y88700D01*
X17358Y88817D01*
X17291Y88916D01*
X17192Y88983D01*
X17075Y89006D01*
D02*
G37*
G36*
X31575Y83181D02*
X31458Y83158D01*
X31359Y83091D01*
X31292Y82992D01*
X31269Y82875D01*
X31292Y82758D01*
X31359Y82659D01*
X31407Y82627D01*
Y82370D01*
X29432Y80395D01*
X29375Y80406D01*
X29258Y80383D01*
X29159Y80316D01*
X29092Y80217D01*
X29069Y80100D01*
X29092Y79983D01*
X29159Y79884D01*
X29258Y79817D01*
X29375Y79794D01*
X29492Y79817D01*
X29591Y79884D01*
X29658Y79983D01*
X29681Y80100D01*
X29670Y80157D01*
X31694Y82181D01*
X31730Y82236D01*
X31743Y82300D01*
Y82627D01*
X31791Y82659D01*
X31858Y82758D01*
X31881Y82875D01*
X31858Y82992D01*
X31791Y83091D01*
X31692Y83158D01*
X31575Y83181D01*
D02*
G37*
G36*
X18575Y81858D02*
X18419Y81827D01*
X18287Y81738D01*
X18198Y81606D01*
X18167Y81450D01*
X18198Y81294D01*
X18287Y81162D01*
X18419Y81073D01*
X18575Y81042D01*
X18731Y81073D01*
X18863Y81162D01*
X18952Y81294D01*
X18983Y81450D01*
X18952Y81606D01*
X18863Y81738D01*
X18731Y81827D01*
X18575Y81858D01*
D02*
G37*
G36*
X9000Y79081D02*
X8883Y79058D01*
X8784Y78991D01*
X8766D01*
X8667Y79058D01*
X8550Y79081D01*
X8433Y79058D01*
X8334Y78991D01*
X8291D01*
X8192Y79058D01*
X8075Y79081D01*
X7958Y79058D01*
X7859Y78991D01*
X7792Y78892D01*
X7769Y78775D01*
X7792Y78658D01*
X7859Y78559D01*
X7958Y78492D01*
X8075Y78469D01*
X8192Y78492D01*
X8312Y78549D01*
X8433Y78492D01*
X8550Y78469D01*
X8667Y78492D01*
X8775Y78554D01*
X8883Y78492D01*
X9000Y78469D01*
X9117Y78492D01*
X9216Y78559D01*
X9283Y78658D01*
X9306Y78775D01*
X9283Y78892D01*
X9216Y78991D01*
X9117Y79058D01*
X9000Y79081D01*
D02*
G37*
G36*
X8300Y80658D02*
X8144Y80627D01*
X8012Y80538D01*
X7923Y80406D01*
X7892Y80250D01*
X7923Y80094D01*
X8012Y79962D01*
X8144Y79873D01*
X8300Y79842D01*
X8456Y79873D01*
X8588Y79962D01*
X8677Y80094D01*
X8708Y80250D01*
X8677Y80406D01*
X8588Y80538D01*
X8456Y80627D01*
X8300Y80658D01*
D02*
G37*
G36*
X7550Y82008D02*
X7394Y81977D01*
X7262Y81888D01*
X7173Y81756D01*
X7142Y81600D01*
X7150Y81561D01*
X6770Y81180D01*
X6715Y81098D01*
X6695Y81000D01*
Y77425D01*
X6715Y77327D01*
X6770Y77245D01*
X7670Y76344D01*
Y71600D01*
X7690Y71502D01*
X7745Y71420D01*
X19745Y59420D01*
X19827Y59365D01*
X19925Y59345D01*
X28650D01*
X28748Y59365D01*
X28830Y59420D01*
X28922Y59512D01*
X29249D01*
X29362Y59305D01*
Y58745D01*
X29393Y58668D01*
X29470Y58637D01*
X29980D01*
X30057Y58668D01*
X30088Y58745D01*
Y59305D01*
X30057Y59382D01*
X30055Y59382D01*
X30027Y59426D01*
X29983Y59576D01*
X29983Y59622D01*
X30008Y59658D01*
X30031Y59775D01*
X30008Y59892D01*
X29949Y59980D01*
X29941Y59991D01*
Y60209D01*
X29949Y60220D01*
X30008Y60308D01*
X30095Y60412D01*
X30226Y60412D01*
X30450D01*
X30581Y60281D01*
X30581Y60281D01*
X30647Y60237D01*
X30725Y60221D01*
X30725Y60221D01*
X30800D01*
X30809Y60209D01*
X30908Y60142D01*
X31025Y60119D01*
X31142Y60142D01*
X31241Y60209D01*
X31250Y60221D01*
X31325D01*
X31403Y60237D01*
X31469Y60281D01*
X31600Y60412D01*
X31750D01*
X31881Y60281D01*
X31881Y60281D01*
X31947Y60237D01*
X32025Y60221D01*
X32025Y60221D01*
X32100D01*
X32109Y60209D01*
X32208Y60142D01*
X32325Y60119D01*
X32442Y60142D01*
X32541Y60209D01*
X32608Y60308D01*
X32695Y60412D01*
X32826Y60412D01*
X33050D01*
X33181Y60281D01*
X33181Y60281D01*
X33247Y60237D01*
X33325Y60221D01*
X33325Y60221D01*
X33400D01*
X33409Y60209D01*
X33508Y60142D01*
X33625Y60119D01*
X33742Y60142D01*
X33841Y60209D01*
X33850Y60221D01*
X33925D01*
X34003Y60237D01*
X34069Y60281D01*
X34200Y60412D01*
X34424D01*
X34555Y60412D01*
X34642Y60308D01*
X34709Y60209D01*
X34808Y60142D01*
X34925Y60119D01*
X35013Y60011D01*
X35069Y59821D01*
X35002Y59722D01*
X34979Y59605D01*
X35002Y59488D01*
X35069Y59389D01*
X35075Y59385D01*
Y57875D01*
X38749D01*
X38767Y57783D01*
X38834Y57684D01*
X38933Y57617D01*
X39050Y57594D01*
X39167Y57617D01*
X39266Y57684D01*
X39333Y57783D01*
X39351Y57875D01*
X39715D01*
X39751Y57827D01*
X39808Y57665D01*
X39772Y57612D01*
X39749Y57495D01*
X39772Y57378D01*
X39673Y57318D01*
X39574Y57251D01*
X39507Y57152D01*
X39484Y57035D01*
X39380Y56916D01*
X39263Y56893D01*
X39164Y56826D01*
X39097Y56727D01*
X39074Y56610D01*
X39097Y56493D01*
X39150Y56360D01*
X39097Y56227D01*
X39074Y56110D01*
X39097Y55993D01*
X39164Y55894D01*
X39263Y55827D01*
X39380Y55804D01*
X39497Y55827D01*
X39596Y55894D01*
X39663Y55993D01*
X39686Y56110D01*
X39663Y56227D01*
X39610Y56360D01*
X39663Y56493D01*
X39686Y56610D01*
X39790Y56729D01*
X39907Y56752D01*
X40006Y56819D01*
X40073Y56918D01*
X40096Y57035D01*
X40073Y57152D01*
X40172Y57212D01*
X40271Y57279D01*
X40338Y57378D01*
X40361Y57495D01*
X40338Y57612D01*
X40302Y57665D01*
X40359Y57827D01*
X40395Y57875D01*
X43981D01*
X44159Y57710D01*
X44182Y57593D01*
X44249Y57494D01*
X44198Y57275D01*
X44181Y57271D01*
X44082Y57205D01*
X44059Y57171D01*
X44016Y57116D01*
X43907Y57092D01*
X43812Y57080D01*
X43716Y57099D01*
X43599Y57076D01*
X43500Y57010D01*
X43434Y56911D01*
X43410Y56794D01*
X43434Y56676D01*
X43500Y56577D01*
X43599Y56511D01*
X43716Y56488D01*
X43833Y56511D01*
X43933Y56577D01*
X44068Y56665D01*
X44118Y56689D01*
X44298Y56683D01*
X44415Y56706D01*
X44514Y56772D01*
X44580Y56872D01*
X44604Y56989D01*
X44580Y57106D01*
X44547Y57156D01*
X44599Y57382D01*
X44696Y57439D01*
X44897Y57408D01*
X44964Y57308D01*
X45063Y57242D01*
X45180Y57219D01*
X45297Y57242D01*
X45396Y57308D01*
X45463Y57408D01*
X45486Y57525D01*
X45463Y57642D01*
X45447Y57665D01*
X45545Y57875D01*
X46745D01*
X46768Y57818D01*
X46845Y57787D01*
X47405D01*
X47482Y57818D01*
X47505Y57875D01*
X47745D01*
X47775Y57869D01*
X47805Y57875D01*
X48117D01*
Y56400D01*
X48148Y56244D01*
X48237Y56111D01*
X48369Y56023D01*
X48525Y55992D01*
X48681Y56023D01*
X48813Y56111D01*
X48902Y56244D01*
X48933Y56400D01*
Y56801D01*
X49143Y56913D01*
X49197Y56877D01*
Y56305D01*
X49228Y56228D01*
X49305Y56197D01*
X49945D01*
X50022Y56228D01*
X50053Y56305D01*
Y57195D01*
X50022Y57272D01*
X49945Y57303D01*
X49642D01*
X49452Y57493D01*
X49439Y57559D01*
X49490Y57668D01*
X49567Y57769D01*
X51652D01*
X51652Y57769D01*
X51808Y57800D01*
X51920Y57875D01*
X52999D01*
Y58947D01*
X53363Y59312D01*
X53363Y59312D01*
X53452Y59444D01*
X53483Y59600D01*
Y65800D01*
X53483Y65800D01*
X53452Y65956D01*
X53363Y66088D01*
X52999Y66453D01*
Y68975D01*
X49177D01*
X49166Y68991D01*
X49067Y69058D01*
X48950Y69081D01*
X48833Y69058D01*
X48734Y68991D01*
X48723Y68975D01*
X44935D01*
X44895Y69009D01*
X44789Y69185D01*
X44798Y69230D01*
X44775Y69347D01*
X44709Y69446D01*
X44610Y69513D01*
X44492Y69536D01*
X44375Y69513D01*
X44276Y69446D01*
X44210Y69347D01*
X44187Y69230D01*
X44196Y69185D01*
X44089Y69009D01*
X44049Y68975D01*
X35075Y68975D01*
X35075Y65035D01*
X34881Y64954D01*
X34705Y65130D01*
X34623Y65185D01*
X34538Y65202D01*
Y65230D01*
X34530Y65250D01*
Y65416D01*
X34558Y65458D01*
X34581Y65575D01*
X34558Y65692D01*
X34491Y65791D01*
X34392Y65858D01*
X34275Y65881D01*
X34158Y65858D01*
X34059Y65791D01*
X33992Y65692D01*
X33969Y65575D01*
X33974Y65548D01*
X33936Y65401D01*
X33843Y65307D01*
X33812Y65230D01*
Y64794D01*
X33625Y64631D01*
X33618Y64629D01*
X33508Y64608D01*
X33409Y64541D01*
X33342Y64442D01*
X33319Y64325D01*
X33342Y64208D01*
X33409Y64109D01*
X33508Y64042D01*
X33625Y64019D01*
X33655Y64025D01*
X33740Y63940D01*
X33802Y63898D01*
X33875Y63884D01*
X33887D01*
Y63820D01*
X33918Y63743D01*
X33995Y63712D01*
X34555D01*
X34632Y63743D01*
X34663Y63820D01*
Y63823D01*
X34748Y63840D01*
X34830Y63895D01*
X34865Y63930D01*
X35075Y63843D01*
Y63515D01*
X34925Y63331D01*
X34808Y63308D01*
X34709Y63241D01*
X34642Y63142D01*
X34619Y63025D01*
X34625Y62995D01*
X34418Y62788D01*
X34207D01*
X34108Y62888D01*
X34046Y62929D01*
X33931Y63025D01*
X33908Y63142D01*
X33841Y63241D01*
X33742Y63308D01*
X33625Y63331D01*
X33590Y63324D01*
X33548Y63352D01*
X33475Y63366D01*
X33363D01*
Y63430D01*
X33332Y63507D01*
X33255Y63538D01*
X32695D01*
X32618Y63507D01*
X32598Y63456D01*
X32550Y63411D01*
X32377Y63321D01*
X32325Y63331D01*
X32208Y63308D01*
X32109Y63241D01*
X32042Y63142D01*
X32019Y63025D01*
X32042Y62908D01*
X32109Y62809D01*
X32208Y62742D01*
X32325Y62719D01*
X32442Y62742D01*
X32444Y62744D01*
X32618Y62843D01*
X32695Y62812D01*
X33255D01*
X33332Y62843D01*
X33506Y62744D01*
X33508Y62742D01*
X33625Y62719D01*
X33655Y62725D01*
X33762Y62617D01*
X33824Y62576D01*
X33887Y62563D01*
Y62257D01*
X33655Y62025D01*
X33625Y62031D01*
X33508Y62008D01*
X33409Y61941D01*
X33332Y61857D01*
X33255Y61888D01*
X32695D01*
X32618Y61857D01*
X32541Y61941D01*
X32442Y62008D01*
X32325Y62031D01*
X32208Y62008D01*
X32109Y61941D01*
X32032Y61857D01*
X31955Y61888D01*
X31395D01*
X31318Y61857D01*
X31241Y61941D01*
X31142Y62008D01*
X31025Y62031D01*
X30908Y62008D01*
X30809Y61941D01*
X30732Y61857D01*
X30655Y61888D01*
X30095D01*
X30018Y61857D01*
X29941Y61941D01*
X29842Y62008D01*
X29725Y62031D01*
X29608Y62008D01*
X29509Y61941D01*
X29458Y61866D01*
X29405Y61888D01*
X28929D01*
X28761Y62038D01*
X28741Y62073D01*
Y62134D01*
X28769Y62175D01*
X28808Y62233D01*
X28831Y62350D01*
X28808Y62467D01*
X28741Y62566D01*
X28642Y62633D01*
X28525Y62656D01*
X28408Y62633D01*
X28309Y62566D01*
X28273Y62512D01*
X25168D01*
X25104Y62722D01*
X25106Y62724D01*
X25173Y62823D01*
X25196Y62940D01*
X25173Y63057D01*
X25106Y63156D01*
X25007Y63223D01*
X24890Y63246D01*
X24773Y63223D01*
X24674Y63156D01*
X24641Y63107D01*
X21056D01*
X21016Y63166D01*
X20917Y63233D01*
X20800Y63256D01*
X20683Y63233D01*
X20584Y63166D01*
X20517Y63067D01*
X20494Y62950D01*
X20517Y62833D01*
X20584Y62734D01*
X20683Y62667D01*
X20800Y62644D01*
X20917Y62667D01*
X21016Y62734D01*
X21056Y62793D01*
X23056D01*
X23056Y62793D01*
X23212Y62630D01*
X23212Y62583D01*
Y62070D01*
X23243Y61993D01*
X23320Y61962D01*
X23830D01*
X23907Y61993D01*
X23938Y62070D01*
Y62188D01*
X28273D01*
X28281Y62175D01*
X28309Y61941D01*
X28281Y61900D01*
X28242Y61842D01*
X28219Y61725D01*
X28222Y61710D01*
X28156Y61644D01*
X28112Y61578D01*
X28104Y61538D01*
X28020D01*
X27943Y61507D01*
X27912Y61430D01*
Y61430D01*
X27663D01*
Y61430D01*
X27632Y61507D01*
X27555Y61538D01*
X26995D01*
X26918Y61507D01*
X26887Y61430D01*
Y61430D01*
X24175D01*
X24077Y61410D01*
X23995Y61355D01*
X23628Y60988D01*
X23312D01*
X23297Y60996D01*
X23156Y61198D01*
X23156Y61200D01*
X23133Y61317D01*
X23066Y61416D01*
X22967Y61483D01*
X22850Y61506D01*
X22733Y61483D01*
X22634Y61416D01*
X22594Y61357D01*
X20581D01*
X20541Y61416D01*
X20442Y61483D01*
X20325Y61506D01*
X20208Y61483D01*
X20109Y61416D01*
X20042Y61317D01*
X20019Y61200D01*
X20042Y61083D01*
X20109Y60984D01*
X20208Y60917D01*
X20325Y60894D01*
X20442Y60917D01*
X20541Y60984D01*
X20581Y61043D01*
X22594D01*
X22634Y60984D01*
X22733Y60917D01*
X22839Y60896D01*
X22850Y60894D01*
X23042Y60734D01*
Y60370D01*
X23073Y60293D01*
X23101Y60282D01*
Y60068D01*
X23073Y60057D01*
X23042Y59980D01*
Y59855D01*
X20031D01*
X8180Y71706D01*
Y76450D01*
X8160Y76548D01*
X8105Y76630D01*
X7205Y77531D01*
Y80894D01*
X7510Y81200D01*
X7550Y81192D01*
X7706Y81223D01*
X7838Y81312D01*
X7927Y81444D01*
X7958Y81600D01*
X7927Y81756D01*
X7838Y81888D01*
X7706Y81977D01*
X7550Y82008D01*
D02*
G37*
G36*
X16950Y85983D02*
X16794Y85952D01*
X16662Y85863D01*
X16573Y85731D01*
X16542Y85575D01*
X16573Y85419D01*
X16662Y85287D01*
X16794Y85198D01*
X16950Y85167D01*
X17106Y85198D01*
X17238Y85287D01*
X17327Y85419D01*
X17358Y85575D01*
X17327Y85731D01*
X17238Y85863D01*
X17106Y85952D01*
X16950Y85983D01*
D02*
G37*
G36*
X9050Y87508D02*
X8894Y87477D01*
X8762Y87388D01*
X8673Y87256D01*
X8642Y87100D01*
X8673Y86944D01*
X8762Y86812D01*
X8860Y86746D01*
X8894Y86723D01*
X8905Y86713D01*
X8863Y86492D01*
X8850Y86488D01*
X8794Y86477D01*
X8662Y86388D01*
X8573Y86256D01*
X8542Y86100D01*
X8573Y85944D01*
X8662Y85812D01*
X8794Y85723D01*
X8950Y85692D01*
X9106Y85723D01*
X9238Y85812D01*
X9327Y85944D01*
X9358Y86100D01*
X9327Y86256D01*
X9238Y86388D01*
X9140Y86454D01*
X9106Y86477D01*
X9095Y86487D01*
X9137Y86709D01*
X9150Y86712D01*
X9206Y86723D01*
X9338Y86812D01*
X9427Y86944D01*
X9458Y87100D01*
X9427Y87256D01*
X9338Y87388D01*
X9206Y87477D01*
X9050Y87508D01*
D02*
G37*
G36*
X5350Y83558D02*
X5194Y83527D01*
X5037Y83450D01*
X4881Y83527D01*
X4725Y83558D01*
X4569Y83527D01*
X4437Y83438D01*
X4348Y83306D01*
X4317Y83150D01*
X4348Y82994D01*
X4437Y82862D01*
X4569Y82773D01*
X4725Y82742D01*
X4881Y82773D01*
X5037Y82850D01*
X5194Y82773D01*
X5350Y82742D01*
X5506Y82773D01*
X5638Y82862D01*
X5727Y82994D01*
X5758Y83150D01*
X5727Y83306D01*
X5638Y83438D01*
X5506Y83527D01*
X5350Y83558D01*
D02*
G37*
G36*
X7650Y85158D02*
X7494Y85127D01*
X7362Y85038D01*
X7273Y84906D01*
X7242Y84750D01*
X7273Y84594D01*
X7362Y84462D01*
X7494Y84373D01*
X7650Y84342D01*
X7806Y84373D01*
X7938Y84462D01*
X8027Y84594D01*
X8058Y84750D01*
X8027Y84906D01*
X7938Y85038D01*
X7806Y85127D01*
X7650Y85158D01*
D02*
G37*
%LPD*%
G36*
X29781Y61381D02*
X29847Y61337D01*
X29925Y61321D01*
X30018Y61124D01*
Y61107D01*
X30018Y61107D01*
X29987Y61030D01*
Y60863D01*
X29947Y60821D01*
X29777Y60721D01*
X29725Y60731D01*
X29608Y60708D01*
X29509Y60641D01*
X29442Y60542D01*
X29419Y60425D01*
X29422Y60410D01*
X29250Y60238D01*
X28845D01*
X28768Y60207D01*
X28737Y60130D01*
Y60047D01*
X28544Y59855D01*
X23958D01*
Y59980D01*
X23927Y60057D01*
X23899Y60068D01*
Y60282D01*
X23927Y60293D01*
X23958Y60370D01*
Y60598D01*
X24281Y60920D01*
X26887D01*
Y60920D01*
X26918Y60843D01*
X26995Y60812D01*
X27555D01*
X27632Y60843D01*
X27663Y60920D01*
Y60920D01*
X27912D01*
Y60920D01*
X27943Y60843D01*
X28020Y60812D01*
X28580D01*
X28657Y60843D01*
X28688Y60920D01*
Y60999D01*
X28845Y61162D01*
X29405D01*
X29482Y61193D01*
X29513Y61270D01*
Y61321D01*
X29525D01*
X29603Y61337D01*
X29669Y61381D01*
X29710Y61422D01*
X29725Y61419D01*
X29740Y61422D01*
X29781Y61381D01*
D02*
G37*
D10*
X22675Y62350D02*
D03*
X23575D02*
D03*
X45250Y65375D02*
D03*
X44350D02*
D03*
X46025Y62125D02*
D03*
X46925D02*
D03*
X33275Y64950D02*
D03*
X34175D02*
D03*
X30625Y59025D02*
D03*
X29725D02*
D03*
D13*
X51025Y62850D02*
D03*
Y61950D02*
D03*
X23500Y59725D02*
D03*
Y60625D02*
D03*
D14*
X27275Y60275D02*
D03*
Y61175D02*
D03*
X28300Y60275D02*
D03*
Y61175D02*
D03*
X47125Y58150D02*
D03*
Y57250D02*
D03*
X49675Y66000D02*
D03*
Y66900D02*
D03*
X32975Y59875D02*
D03*
Y60775D02*
D03*
X34275Y63175D02*
D03*
Y64075D02*
D03*
Y61525D02*
D03*
Y62425D02*
D03*
Y59875D02*
D03*
Y60775D02*
D03*
X31675Y62425D02*
D03*
Y61525D02*
D03*
Y59875D02*
D03*
Y60775D02*
D03*
X30375Y59875D02*
D03*
Y60775D02*
D03*
Y62425D02*
D03*
Y61525D02*
D03*
X32975Y62425D02*
D03*
Y61525D02*
D03*
X30375Y63175D02*
D03*
Y64075D02*
D03*
X29075Y64850D02*
D03*
Y65750D02*
D03*
Y64075D02*
D03*
Y63175D02*
D03*
X31675D02*
D03*
Y64075D02*
D03*
Y64850D02*
D03*
Y65750D02*
D03*
X30375Y64850D02*
D03*
Y65750D02*
D03*
X33625Y59175D02*
D03*
Y58275D02*
D03*
X29125Y60775D02*
D03*
Y59875D02*
D03*
X30025Y87800D02*
D03*
Y86900D02*
D03*
X29200Y86375D02*
D03*
Y85475D02*
D03*
X32975Y64075D02*
D03*
Y63175D02*
D03*
X29125Y62425D02*
D03*
Y61525D02*
D03*
D20*
X31475Y89900D02*
D03*
Y91300D02*
D03*
X27350Y88175D02*
D03*
Y89575D02*
D03*
D21*
X53225Y67625D02*
D03*
X51825D02*
D03*
X51025Y56750D02*
D03*
X49625D02*
D03*
D24*
X49570Y65072D02*
X49572D01*
X48674D02*
X49570D01*
X51029Y64021D02*
X51033Y64025D01*
X50254Y63246D02*
X51029Y64021D01*
X49229Y59982D02*
X49731Y59481D01*
X35587Y59132D02*
X35807Y58912D01*
X41383Y63665D02*
X49600D01*
X49792Y60137D02*
X50367D01*
X49528Y60402D02*
X49792Y60137D01*
X35302Y59592D02*
X35304Y59590D01*
X38208D01*
X35650Y60935D02*
X36480Y61765D01*
Y62020D01*
X35625Y61950D02*
X35654D01*
X37222Y63517D01*
X35625Y62950D02*
X35961Y63286D01*
X36127D01*
X35650Y63950D02*
X35700D01*
X36578Y64828D01*
Y65477D01*
X44362Y64253D02*
X47970D01*
X42058Y66557D02*
X44362Y64253D01*
X40131Y66557D02*
X42058D01*
X37222Y63517D02*
Y63647D01*
X40131Y66557D01*
X38418Y63562D02*
X38744Y63236D01*
X39488D01*
X38023Y63562D02*
X38418D01*
X41131Y63415D02*
X41383Y63667D01*
X39667Y63415D02*
X41131D01*
X39488Y63236D02*
X39667Y63415D01*
X47380Y66960D02*
X48848Y65492D01*
X46580Y66960D02*
X47380D01*
X45963Y67577D02*
X46580Y66960D01*
X38208Y59590D02*
X38381Y59417D01*
X45792D02*
X46867Y60492D01*
X47920D02*
X48011Y60402D01*
X46867Y60492D02*
X47920D01*
X47589Y59842D02*
X48528D01*
X47129Y59382D02*
X47589Y59842D01*
X46402Y59382D02*
X47129D01*
X48668Y59982D02*
X49229D01*
X48528Y59842D02*
X48668Y59982D01*
X42482Y58192D02*
X42977Y58687D01*
X42977Y58687D02*
X45707D01*
X35662Y59952D02*
X36206D01*
X45707Y58687D02*
X46402Y59382D01*
X37277Y58912D02*
X37502Y58687D01*
X35807Y58912D02*
X37277D01*
X38381Y59417D02*
X45792D01*
X37502Y58687D02*
X41392D01*
X41882Y58192D02*
X42482D01*
X41392Y58687D02*
X41882Y58192D01*
X39130Y62876D02*
X41186D01*
X41557Y63247D01*
X50252D01*
X49373Y64437D02*
X49583Y64227D01*
X48848Y65492D02*
X49917D01*
X50081Y65329D01*
X50374D01*
X36206Y59952D02*
X39130Y62876D01*
X36578Y65477D02*
X38678Y67577D01*
X46400Y66546D02*
X47199D01*
X47205Y66541D02*
X48674Y65072D01*
X36127Y63286D02*
X37031Y64190D01*
Y65336D01*
X38835Y67140D01*
X45806D02*
X46400Y66546D01*
X45055Y66759D02*
X45436Y67140D01*
X45055Y66383D02*
Y66759D01*
X44843Y66170D02*
X45055Y66383D01*
X44426Y66170D02*
X44843D01*
X44074Y66522D02*
X44426Y66170D01*
X44074Y66522D02*
Y66815D01*
X43749Y67140D02*
X44074Y66815D01*
X45436Y67140D02*
X45806D01*
X38835D02*
X43749D01*
X47970Y64253D02*
X48154Y64437D01*
X36480Y62020D02*
X38023Y63562D01*
X48011Y60402D02*
X49528D01*
X48154Y64437D02*
X49373D01*
X38678Y67577D02*
X45963D01*
X21288Y52800D02*
X21323Y52765D01*
X34690D01*
X34812Y52888D01*
D25*
X44982Y64675D02*
Y64780D01*
Y64652D02*
Y64675D01*
X31675Y62375D02*
X31725D01*
X31025D02*
X31675D01*
X29312Y86938D02*
X29325Y86950D01*
X29200Y86825D02*
X29312Y86938D01*
X34700Y60650D02*
X34925Y60425D01*
X44402Y65360D02*
X44982Y64780D01*
X29175Y62375D02*
X29725D01*
X31775Y59775D02*
X32325D01*
X33325Y60425D02*
X33625D01*
X30725D02*
X31025D01*
X29725Y62375D02*
X30325D01*
X29125Y62425D02*
X29175Y62375D01*
X29125Y61525D02*
X29525D01*
X29725Y61725D01*
X29350Y60050D02*
X29725Y60425D01*
X28300Y61500D02*
X28525Y61725D01*
X28300Y61175D02*
Y61500D01*
Y60275D02*
X28650Y60625D01*
X29125Y60775D02*
X29425Y61075D01*
X28975Y60625D02*
X29125Y60775D01*
X28650Y60625D02*
X28975D01*
X33625Y59175D02*
Y59775D01*
X29725Y61725D02*
X29925Y61525D01*
X30375D01*
X30400Y61500D02*
X30800D01*
X31025Y61725D01*
X30375Y62425D02*
Y63175D01*
X30975Y62425D02*
X31025Y62375D01*
X30375Y62425D02*
X30975D01*
X30325Y62375D02*
X30375Y62425D01*
X33925Y60425D02*
X34275Y60775D01*
X33625Y60425D02*
X33925D01*
X32975Y60775D02*
X33325Y60425D01*
X30475Y59775D02*
X31025D01*
X30375Y60775D02*
X30725Y60425D01*
X31025D02*
X31325D01*
X31675Y60775D01*
X33625Y59775D02*
X34175D01*
X33075D02*
X33625D01*
X31025D02*
X31575D01*
X32325D02*
X32875D01*
X32025Y60425D02*
X32325D01*
X31675Y60775D02*
X32025Y60425D01*
X34075Y61525D02*
X34275D01*
X33625Y61075D02*
X34075Y61525D01*
X33025Y62375D02*
X33625D01*
X32975Y62425D02*
X33025Y62375D01*
X32375Y62425D02*
X32975D01*
X32325Y62375D02*
X32375Y62425D01*
X31725Y62375D02*
X32325D01*
X31675Y62425D02*
X31725Y62375D01*
X31025Y61725D02*
X31225Y61525D01*
X31675D01*
Y60775D02*
Y61525D01*
X32325Y61725D02*
X32525Y61525D01*
X32975D01*
X28300Y60275D02*
Y60350D01*
X29425Y61075D02*
X29725D01*
X30025Y87800D02*
X30350Y87475D01*
X30600D01*
X30625Y87500D01*
X29200Y86375D02*
Y86825D01*
D26*
X34275Y65050D02*
X34296Y65004D01*
X34296Y65004D01*
X33250Y64975D02*
X33275Y64950D01*
X31325Y91450D02*
X31475Y91300D01*
X33625Y63025D02*
X33897Y62752D01*
X31675Y63175D02*
X31825D01*
X32975Y64075D02*
X33225D01*
X32725D02*
X32975D01*
X33475Y63175D02*
X33625Y63025D01*
X32975Y63175D02*
X33475D01*
X29075Y65750D02*
X29200Y65625D01*
X29075Y64850D02*
X29200Y64975D01*
X29725Y64325D02*
X30125D01*
X30375Y64075D01*
X29225Y63025D02*
X29725D01*
X29075Y63175D02*
X29225Y63025D01*
X30250Y65625D02*
X30375Y65750D01*
X30500Y65625D01*
X31550D02*
X31675Y65750D01*
X31800Y65625D01*
X31550Y64975D02*
X31675Y64850D01*
X31800Y64975D01*
X33250D02*
Y65200D01*
X33625Y64325D02*
X33875Y64075D01*
X34275D01*
X34125Y63175D02*
X34275D01*
X33897Y62752D02*
X33972D01*
X34275Y62450D01*
Y62425D02*
Y62450D01*
X34325Y62425D02*
X34900Y63000D01*
X34275Y62425D02*
X34325D01*
X30375Y64075D02*
X30775D01*
X31025Y64325D01*
X31425D01*
X31675Y64075D01*
X32075D01*
X32325Y64325D01*
X30225Y63175D02*
X30375D01*
X30525D01*
X31525D02*
X31675D01*
X34275Y60775D02*
X34325Y60725D01*
X34175Y59775D02*
X34275Y59875D01*
X32975D02*
X33075Y59775D01*
X31675Y59875D02*
X31775Y59775D01*
X30375Y59875D02*
X30475Y59775D01*
X29725Y59025D02*
Y59775D01*
X30625Y59025D02*
X31025Y59425D01*
Y59775D01*
X31575D02*
X31675Y59875D01*
X32875Y59775D02*
X32975Y59875D01*
X33625Y61725D02*
X34275Y62375D01*
X34925Y61725D01*
X34275Y62375D02*
Y62425D01*
D27*
X50375Y62725D02*
X50900D01*
X50373D02*
X50375D01*
X39281Y62504D02*
X39422Y62362D01*
X39281Y62504D02*
X39281Y62504D01*
X35750Y55625D02*
Y55775D01*
Y53825D02*
Y55625D01*
X39823Y62362D02*
X40027Y62159D01*
X39422Y62362D02*
X39823D01*
X47159Y61143D02*
X48039Y62024D01*
X48690D01*
X50898Y62077D02*
X51025Y61950D01*
X50900Y62725D02*
X51025Y62850D01*
X50174Y62527D02*
X50373Y62725D01*
X48134Y61794D02*
X48595D01*
X48910Y61478D01*
X49369D01*
X46364Y61187D02*
X46638Y60913D01*
X47254D01*
X46734Y61143D02*
X47159D01*
X46460Y61417D02*
X46734Y61143D01*
X50377Y62077D02*
X50898D01*
X50161Y62297D02*
X50377Y62081D01*
X39310Y61996D02*
X39447Y62132D01*
X39728D01*
X40733Y62159D02*
X41106Y61786D01*
X40027Y62159D02*
X40733D01*
X40645Y61922D02*
X40876Y61691D01*
X39938Y61922D02*
X40645D01*
X39728Y62132D02*
X39938Y61922D01*
X42020Y60150D02*
X43764Y61894D01*
X44238Y62124D02*
X44547Y61816D01*
X43669Y62124D02*
X44238D01*
X44143Y61894D02*
X44317Y61721D01*
X43764Y61894D02*
X44143D01*
X41106Y60689D02*
Y61786D01*
X40876Y60594D02*
X41320Y60150D01*
X40876Y60594D02*
Y61691D01*
X41925Y60380D02*
X43669Y62124D01*
X41415Y60380D02*
X41925D01*
X41106Y60689D02*
X41415Y60380D01*
X41320Y60150D02*
X42020D01*
X49822Y62527D02*
X50174D01*
X49800Y62180D02*
X49917Y62297D01*
X50161D01*
X48690Y62024D02*
X49006Y61708D01*
X49800Y61909D02*
Y62180D01*
X49369Y61478D02*
X49800Y61909D01*
X49006Y61708D02*
X49274D01*
X49570Y62004D01*
Y62275D01*
X49822Y62527D01*
X47254Y60913D02*
X48134Y61794D01*
X45357Y61022D02*
X45753Y61417D01*
X46460D01*
X45587Y60926D02*
X45848Y61187D01*
X46364D01*
X45587Y60257D02*
Y60926D01*
X45357Y60352D02*
Y61022D01*
X44317Y60328D02*
Y61721D01*
X44547Y60424D02*
Y61816D01*
X44317Y60328D02*
X44662Y59983D01*
X45218Y60213D02*
X45357Y60352D01*
X44757Y60213D02*
X45218D01*
X44547Y60424D02*
X44757Y60213D01*
X45313Y59983D02*
X45587Y60257D01*
X44662Y59983D02*
X45313D01*
X20825Y54675D02*
X27750D01*
X23575Y62350D02*
X28525D01*
X20800Y54675D02*
X20825D01*
X35150Y52025D02*
X36175Y53050D01*
X21638Y52025D02*
X35150D01*
X34812Y52888D02*
X35750Y53825D01*
D28*
X20800Y62950D02*
X24880D01*
X24890Y62940D01*
X20325Y61200D02*
X22850D01*
D30*
X23500Y59600D02*
X28650D01*
X19925D02*
X23500D01*
X53167Y67683D02*
X53295Y67810D01*
X53152Y67667D02*
X53167Y67683D01*
X53166Y67566D02*
X53348Y67383D01*
X53103Y67628D02*
X53166Y67566D01*
X49629Y66946D02*
X49685Y67003D01*
X49309Y66627D02*
X49629Y66946D01*
X47127Y62725D02*
Y62727D01*
Y62396D02*
Y62725D01*
X51027Y57525D02*
Y57527D01*
Y56750D02*
Y57525D01*
Y56717D02*
Y56750D01*
X47102Y57177D02*
X47927Y56352D01*
X30375Y64975D02*
X31025D01*
X29725D02*
X30375D01*
X49782Y56750D02*
Y56803D01*
Y56683D02*
Y56750D01*
X49730Y56855D02*
X49782Y56803D01*
X49130Y57455D02*
X49730Y56855D01*
X47775Y58177D02*
X47777D01*
X47152D02*
X47775D01*
X28188Y89438D02*
X29325Y88300D01*
X28175Y89450D02*
X28188Y89438D01*
X51737Y67661D02*
X51800Y67599D01*
X45777Y62775D02*
Y62777D01*
Y62441D02*
Y62775D01*
X27275Y61175D02*
X28300D01*
X24175D02*
X27275D01*
X23500Y60625D02*
X23625D01*
X7925Y71600D02*
Y76450D01*
Y71600D02*
X19925Y59600D01*
X6950Y77425D02*
X7925Y76450D01*
X34900Y64325D02*
Y64575D01*
X34525Y64950D02*
X34900Y64575D01*
X34175Y64950D02*
X34525Y64950D01*
X34650Y64075D02*
X34888Y64312D01*
X34275Y64075D02*
X34650D01*
X32325Y64975D02*
X33250D01*
X34700Y60725D02*
X34925Y60950D01*
X34325Y60725D02*
X34700D01*
X34925Y60950D02*
Y61725D01*
X45264Y65360D02*
X45818D01*
X44364D02*
X44402D01*
X30875Y89900D02*
X31475D01*
X46905Y62174D02*
X47127Y62396D01*
X45777Y62441D02*
X46019Y62199D01*
X51027Y66627D02*
Y66656D01*
X45818Y65360D02*
X45838Y65339D01*
X49064Y66627D02*
X49309D01*
X29200Y64975D02*
X29725D01*
X31825Y63175D02*
X32325Y63675D01*
X33625D02*
X34125Y63175D01*
X31800Y64975D02*
X32325D01*
X29650Y85925D02*
X29950D01*
X29725Y65625D02*
X30250D01*
X30500D02*
X31025D01*
X34275Y65050D02*
Y65575D01*
X32325Y63675D02*
X32725Y64075D01*
X33225D02*
X33625Y63675D01*
X28925Y59875D02*
X29125D01*
X28650Y59600D02*
X28925Y59875D01*
X34250Y54000D02*
Y59050D01*
X33625Y58275D02*
X34225D01*
X28050Y88175D02*
X28300Y88425D01*
X27350Y88175D02*
X28050D01*
X30700Y91450D02*
X31325D01*
X30550Y89575D02*
X30875Y89900D01*
X27475Y89450D02*
X28175D01*
X29200Y65625D02*
X29725D01*
X29075Y64075D02*
X29475Y63675D01*
X29725D01*
X31025Y65625D02*
X31550D01*
X31800D02*
X32325D01*
X31025Y64975D02*
X31550D01*
X29725Y63675D02*
X30225Y63175D01*
X30525D02*
X31025Y63675D01*
X31525Y63175D01*
X18775Y84125D02*
X22575D01*
X17275Y82625D02*
X18775Y84125D01*
X17275Y80600D02*
Y82625D01*
X11575Y74900D02*
X17275Y80600D01*
X6950Y81000D02*
X7550Y81600D01*
X23625Y60625D02*
X24175Y61175D01*
X33250Y65200D02*
X33650Y65600D01*
X22575Y84125D02*
X25250Y86800D01*
Y87475D01*
X27350Y89575D01*
X30125Y87000D02*
X30600D01*
X29200Y85475D02*
X29650Y85925D01*
X29325Y87600D02*
Y88300D01*
Y87600D02*
X30025Y86900D01*
X30550Y89575D02*
X31400Y88725D01*
Y86375D02*
Y88725D01*
X30950Y85925D02*
X31400Y86375D01*
X29950Y85925D02*
X30950D01*
X22125Y62350D02*
X22675D01*
X6950Y77425D02*
Y81000D01*
X51817Y67058D02*
Y67447D01*
X51537Y67975D02*
X51706Y67806D01*
X53125Y66875D02*
Y67525D01*
X53166Y67566D02*
X53166D01*
X32900Y53125D02*
X33155Y53380D01*
X33630D01*
X34250Y54000D01*
D33*
X34700Y60650D02*
Y60725D01*
X53125Y67525D02*
X53166Y67566D01*
X53225Y67625D01*
D34*
X31575Y82300D02*
Y82875D01*
X29375Y80100D02*
X31575Y82300D01*
X30025Y86900D02*
X30125Y87000D01*
X30600D02*
X30625Y86975D01*
D36*
X51662Y58187D02*
X53075Y59600D01*
X51652Y58177D02*
X51662Y58187D01*
X48525Y56400D02*
Y57900D01*
X48100Y67474D02*
X48611Y67985D01*
X51027Y66656D02*
X51817Y67447D01*
Y67058D02*
X53075Y65800D01*
Y59600D02*
Y65800D01*
X51527Y67985D02*
X51537Y67975D01*
X48611Y67985D02*
X51527D01*
X48802Y58177D02*
X51652D01*
X48525Y57900D02*
X48802Y58177D01*
D37*
X49675Y65977D02*
X49694D01*
X49064D02*
X49675D01*
D39*
X17000Y34350D02*
D03*
X40700Y33750D02*
D03*
X26125Y23150D02*
D03*
X45275Y44275D02*
D03*
X64975Y38475D02*
D03*
X65025Y52625D02*
D03*
X64950Y61125D02*
D03*
Y69550D02*
D03*
X51775Y80925D02*
D03*
X47200Y88225D02*
D03*
X7650Y84750D02*
D03*
X40452Y52475D02*
D03*
X47597Y52681D02*
D03*
X55600Y54800D02*
D03*
X4725Y83150D02*
D03*
X5350D02*
D03*
X6075Y89825D02*
D03*
Y89200D02*
D03*
X11850Y89900D02*
D03*
X12550D02*
D03*
X18575Y83125D02*
D03*
X5675Y52800D02*
D03*
X6475Y67750D02*
D03*
X15375Y44500D02*
D03*
X16600Y59050D02*
D03*
X26075Y44300D02*
D03*
X14225Y64000D02*
D03*
X18575Y82250D02*
D03*
X25500Y82925D02*
D03*
X5075Y88650D02*
D03*
X3525Y90275D02*
D03*
X12255Y91640D02*
D03*
X31650Y96450D02*
D03*
X40400Y94900D02*
D03*
X43000Y87000D02*
D03*
X64150Y94525D02*
D03*
X64950Y86775D02*
D03*
X51075Y94650D02*
D03*
X72100Y83850D02*
D03*
X81725Y91900D02*
D03*
X77800Y94450D02*
D03*
X7550Y81600D02*
D03*
X9050Y87100D02*
D03*
X19350Y83575D02*
D03*
X18650Y87025D02*
D03*
X18575Y91050D02*
D03*
X10900Y74900D02*
D03*
X11575D02*
D03*
X42750Y81500D02*
D03*
X49500Y80750D02*
D03*
X6175Y61075D02*
D03*
X14325Y68325D02*
D03*
X24750Y96475D02*
D03*
X18575Y81450D02*
D03*
X8300Y80250D02*
D03*
X10200Y74900D02*
D03*
X16950Y85575D02*
D03*
X18575Y91750D02*
D03*
X18600Y90350D02*
D03*
X6075Y88575D02*
D03*
X16450Y74625D02*
D03*
X17225Y74475D02*
D03*
X8950Y86100D02*
D03*
X4575Y43700D02*
D03*
X21250Y104175D02*
D03*
X26800Y115375D02*
D03*
X88000Y57500D02*
D03*
Y71500D02*
D03*
X40600Y103600D02*
D03*
X51150Y111950D02*
D03*
X51225Y103675D02*
D03*
X64125Y112025D02*
D03*
X76950Y112250D02*
D03*
X88000Y64750D02*
D03*
X77175Y103450D02*
D03*
X64200Y103525D02*
D03*
X40675Y111425D02*
D03*
X7775Y104275D02*
D03*
X3100Y5150D02*
D03*
X82750Y4725D02*
D03*
X44125Y4175D02*
D03*
X82625Y27975D02*
D03*
X56575Y26425D02*
D03*
X3875Y115700D02*
D03*
X9650Y110500D02*
D03*
X3650Y26550D02*
D03*
X64400Y1425D02*
D03*
X77150Y69525D02*
D03*
X75400Y61125D02*
D03*
Y52050D02*
D03*
X16475Y65300D02*
D03*
X19475Y79400D02*
D03*
X4300Y85175D02*
D03*
X2750Y73425D02*
D03*
X61125Y80775D02*
D03*
X61050Y73575D02*
D03*
X51800Y73225D02*
D03*
X44000Y73050D02*
D03*
X40200Y72875D02*
D03*
X72725Y73050D02*
D03*
X81700Y83375D02*
D03*
X25625Y6650D02*
D03*
D40*
X48500Y55000D02*
D03*
X48000D02*
D03*
X38250Y54900D02*
D03*
X38775D02*
D03*
X34900Y64325D02*
D03*
X34925Y61725D02*
D03*
Y63025D02*
D03*
X51875Y70100D02*
D03*
X37300Y98100D02*
D03*
X27375Y98125D02*
D03*
X19200Y98150D02*
D03*
X11075Y98125D02*
D03*
X53125Y66875D02*
D03*
X45825Y65325D02*
D03*
X49062Y65975D02*
D03*
X51675Y59475D02*
D03*
X36175Y53050D02*
D03*
X35725Y55625D02*
D03*
X36225Y55725D02*
D03*
X36815Y71410D02*
D03*
X39277Y62500D02*
D03*
X48425Y61425D02*
D03*
X44465Y57710D02*
D03*
X39050Y57900D02*
D03*
X39380Y56610D02*
D03*
X46475Y58825D02*
D03*
X39380Y56110D02*
D03*
X47125Y58825D02*
D03*
X43716Y56794D02*
D03*
X44298Y56989D02*
D03*
X39790Y57035D02*
D03*
X47125Y60130D02*
D03*
X47775Y58175D02*
D03*
X49065Y59475D02*
D03*
X40905Y65710D02*
D03*
X49075Y64025D02*
D03*
X40915Y65205D02*
D03*
X48425Y64025D02*
D03*
X44492Y69230D02*
D03*
X46475Y65975D02*
D03*
X44495Y68720D02*
D03*
X47125Y65975D02*
D03*
X49060Y66620D02*
D03*
X45906Y68628D02*
D03*
X42465Y59880D02*
D03*
X50375Y59475D02*
D03*
X49725Y60775D02*
D03*
X43780Y60085D02*
D03*
X48425Y60775D02*
D03*
X43780Y60585D02*
D03*
X48950Y68775D02*
D03*
X35625Y61950D02*
D03*
X37715Y71410D02*
D03*
X48860Y67385D02*
D03*
X50423Y54387D02*
D03*
X48125Y67450D02*
D03*
X35650Y64475D02*
D03*
X34925Y60425D02*
D03*
Y62375D02*
D03*
X34900Y63675D02*
D03*
X35650Y60935D02*
D03*
X50375Y60125D02*
D03*
X35650Y64975D02*
D03*
X51675Y65325D02*
D03*
X50375Y66625D02*
D03*
X51800Y64650D02*
D03*
X51025Y66625D02*
D03*
X51675Y58175D02*
D03*
X51025Y58825D02*
D03*
X51700Y60125D02*
D03*
X37045Y55945D02*
D03*
X38425Y56105D02*
D03*
X37581Y55294D02*
D03*
X38080Y55735D02*
D03*
X38145Y56525D02*
D03*
X51775Y60775D02*
D03*
X35600Y65945D02*
D03*
X35650Y63950D02*
D03*
X50375Y60775D02*
D03*
X35625Y62950D02*
D03*
X51025Y64025D02*
D03*
X50375Y65325D02*
D03*
X51675Y64025D02*
D03*
X35285Y59605D02*
D03*
X48425Y59475D02*
D03*
X35660Y59950D02*
D03*
X40055Y57495D02*
D03*
X50375Y62075D02*
D03*
X48425Y58825D02*
D03*
X47775Y59475D02*
D03*
Y58825D02*
D03*
X39460Y58270D02*
D03*
X46475Y65325D02*
D03*
X38521Y62821D02*
D03*
X44975Y64675D02*
D03*
X44450Y62775D02*
D03*
X46475Y62725D02*
D03*
X47125Y65325D02*
D03*
Y64675D02*
D03*
X47775Y65325D02*
D03*
X46475Y64675D02*
D03*
X45180Y57525D02*
D03*
X49725Y59475D02*
D03*
X47075Y67325D02*
D03*
X47775Y62725D02*
D03*
X48425D02*
D03*
X49130Y62725D02*
D03*
X47125Y62725D02*
D03*
X45775Y62775D02*
D03*
X45025D02*
D03*
X45100Y58175D02*
D03*
X39700Y63775D02*
D03*
X39277Y61994D02*
D03*
X39355Y64175D02*
D03*
X38900Y63596D02*
D03*
X39775Y66710D02*
D03*
X40300Y66195D02*
D03*
X39925Y65830D02*
D03*
X39395Y66330D02*
D03*
X40165Y64810D02*
D03*
X39755Y64505D02*
D03*
X35585Y59130D02*
D03*
X50375Y62725D02*
D03*
X51850Y61800D02*
D03*
X51845Y62400D02*
D03*
X48525Y56400D02*
D03*
X51025Y57525D02*
D03*
X55650Y61025D02*
D03*
X55700Y62700D02*
D03*
X44475Y64675D02*
D03*
X49600Y64220D02*
D03*
X49570Y65070D02*
D03*
X50375Y64025D02*
D03*
X49600Y63644D02*
D03*
X49130Y62085D02*
D03*
X38170Y63200D02*
D03*
X8075Y78775D02*
D03*
X9000D02*
D03*
X13225Y78725D02*
D03*
X14200Y78725D02*
D03*
X28525Y62350D02*
D03*
X6175Y80075D02*
D03*
Y82175D02*
D03*
X6100Y83275D02*
D03*
X4250Y83801D02*
D03*
X12000Y83875D02*
D03*
X12850Y84475D02*
D03*
X12875Y83225D02*
D03*
X22125Y62350D02*
D03*
X22550Y78900D02*
D03*
Y81100D02*
D03*
Y83250D02*
D03*
X3750Y85750D02*
D03*
X7025Y97275D02*
D03*
X12875Y85650D02*
D03*
X28300Y88425D02*
D03*
X29725Y61075D02*
D03*
X31025D02*
D03*
Y62375D02*
D03*
X32325D02*
D03*
Y63675D02*
D03*
X33625Y62375D02*
D03*
X31025Y63675D02*
D03*
X29725Y64975D02*
D03*
X30625Y86400D02*
D03*
Y88475D02*
D03*
X33625Y63675D02*
D03*
X34075Y79450D02*
D03*
X35250Y71900D02*
D03*
X37050Y85650D02*
D03*
X20800Y62950D02*
D03*
X24890Y62940D02*
D03*
X28525Y61725D02*
D03*
X9075Y90650D02*
D03*
X9450Y90250D02*
D03*
X9900D02*
D03*
X20825Y54675D02*
D03*
X32900Y53125D02*
D03*
X34250Y59050D02*
D03*
X29725Y59775D02*
D03*
Y61725D02*
D03*
X30550Y89575D02*
D03*
X35000Y69700D02*
D03*
X22850Y61200D02*
D03*
X29725Y64325D02*
D03*
Y65625D02*
D03*
X32325Y61725D02*
D03*
X31025Y63025D02*
D03*
X32325D02*
D03*
X31025Y65625D02*
D03*
X32325D02*
D03*
X32500Y55700D02*
D03*
X33250Y69825D02*
D03*
X31575Y82875D02*
D03*
X30625Y86975D02*
D03*
X29725Y63675D02*
D03*
Y62375D02*
D03*
X33625Y63025D02*
D03*
Y61725D02*
D03*
X29725Y63025D02*
D03*
X32325Y64325D02*
D03*
X31025Y64975D02*
D03*
Y59775D02*
D03*
X29725Y60425D02*
D03*
X31025Y64325D02*
D03*
X32325Y59775D02*
D03*
Y60425D02*
D03*
Y61075D02*
D03*
X33625Y59775D02*
D03*
Y61075D02*
D03*
Y60425D02*
D03*
Y64325D02*
D03*
X33650Y65600D02*
D03*
X31025Y60425D02*
D03*
Y61725D02*
D03*
X32325Y64975D02*
D03*
X30625Y87500D02*
D03*
X29950Y85925D02*
D03*
X30700Y91450D02*
D03*
X28200Y89450D02*
D03*
X29225Y91475D02*
D03*
X34275Y65575D02*
D03*
X33250Y71900D02*
D03*
X13725Y78725D02*
D03*
Y83875D02*
D03*
Y85075D02*
D03*
X12000D02*
D03*
X8550Y78775D02*
D03*
X14600Y85650D02*
D03*
Y84475D02*
D03*
Y83225D02*
D03*
X11125D02*
D03*
Y84450D02*
D03*
X11150Y85650D02*
D03*
X17075Y88700D02*
D03*
X22000Y76775D02*
D03*
X4250Y90500D02*
D03*
X3250Y89500D02*
D03*
X2750Y81750D02*
D03*
X11625Y88450D02*
D03*
X19025Y78575D02*
D03*
X34075Y81125D02*
D03*
X29600Y83925D02*
D03*
X29300Y86950D02*
D03*
X29375Y80100D02*
D03*
X20325Y61200D02*
D03*
X32500Y53650D02*
D03*
X27750Y54675D02*
D03*
X22025Y53150D02*
D03*
X21288Y52800D02*
D03*
X21638Y52025D02*
D03*
X2175Y97475D02*
D03*
X1475Y92975D02*
D03*
X6725Y77000D02*
D03*
X7450Y89800D02*
D03*
X8375Y76450D02*
D03*
X8150Y93100D02*
D03*
X12100Y96500D02*
D03*
X6050Y93475D02*
D03*
X52475Y61400D02*
D03*
X49150Y57475D02*
D03*
X47925Y56350D02*
D03*
X36350Y53700D02*
D03*
X49550Y68775D02*
D03*
X29175Y52375D02*
D03*
M02*
