G04 Layer_Color=16711935*
%FSLAX43Y43*%
%MOMM*%
G71*
G01*
G75*
%ADD43R,0.610X0.660*%
%ADD45R,0.800X0.610*%
%ADD46R,0.660X0.610*%
%ADD52R,0.990X0.740*%
%ADD53R,0.740X0.990*%
D43*
X22675Y62350D02*
D03*
X23575D02*
D03*
X45250Y65375D02*
D03*
X44350D02*
D03*
X46025Y62125D02*
D03*
X46925D02*
D03*
X33275Y64950D02*
D03*
X34175D02*
D03*
X30625Y59025D02*
D03*
X29725D02*
D03*
D45*
X51025Y62850D02*
D03*
Y61950D02*
D03*
X23500Y59725D02*
D03*
Y60625D02*
D03*
D46*
X27275Y60275D02*
D03*
Y61175D02*
D03*
X28300Y60275D02*
D03*
Y61175D02*
D03*
X47125Y58150D02*
D03*
Y57250D02*
D03*
X49675Y66000D02*
D03*
Y66900D02*
D03*
X32975Y59875D02*
D03*
Y60775D02*
D03*
X34275Y63175D02*
D03*
Y64075D02*
D03*
Y61525D02*
D03*
Y62425D02*
D03*
Y59875D02*
D03*
Y60775D02*
D03*
X31675Y62425D02*
D03*
Y61525D02*
D03*
Y59875D02*
D03*
Y60775D02*
D03*
X30375Y59875D02*
D03*
Y60775D02*
D03*
Y62425D02*
D03*
Y61525D02*
D03*
X32975Y62425D02*
D03*
Y61525D02*
D03*
X30375Y63175D02*
D03*
Y64075D02*
D03*
X29075Y64850D02*
D03*
Y65750D02*
D03*
Y64075D02*
D03*
Y63175D02*
D03*
X31675D02*
D03*
Y64075D02*
D03*
Y64850D02*
D03*
Y65750D02*
D03*
X30375Y64850D02*
D03*
Y65750D02*
D03*
X33625Y59175D02*
D03*
Y58275D02*
D03*
X29125Y60775D02*
D03*
Y59875D02*
D03*
X30025Y87800D02*
D03*
Y86900D02*
D03*
X29200Y86375D02*
D03*
Y85475D02*
D03*
X32975Y64075D02*
D03*
Y63175D02*
D03*
X29125Y62425D02*
D03*
Y61525D02*
D03*
D52*
X31475Y89900D02*
D03*
Y91300D02*
D03*
X27350Y88175D02*
D03*
Y89575D02*
D03*
D53*
X53225Y67625D02*
D03*
X51825D02*
D03*
X51025Y56750D02*
D03*
X49625D02*
D03*
M02*
